<svg width="1728" height="1117" viewBox="0 0 1728 1117" fill="none" xmlns="http://www.w3.org/2000/svg">
<g clip-path="url(#clip0_299_1406)">
<path fill-rule="evenodd" clip-rule="evenodd" d="M1728 652.219V1169.8H-3V681.512L3.8055 682.102L32.7333 682.755C33.0535 682.762 33.3719 682.801 33.6841 682.872L50.1705 686.59C50.5675 686.68 50.9515 686.819 51.3128 687.005L57.4512 681.961L55.853 680.366L46.2636 683.555H39.8707L55.853 669.203L54.2547 666.013L67.0405 645.282L63.045 647.674L60.6476 650.863L61.4468 638.105L69.4379 626.942L57.4512 640.498L59.0494 632.524L72.6343 617.374V609.4L59.8485 618.969L71.0361 603.819V596.642C73.1671 593.187 77.2692 585.479 76.6299 582.29C75.9906 579.1 75.8308 580.961 75.8308 582.29L63.045 592.655L75.0317 576.708V573.519L72.6343 566.342L77.429 557.571V550.395L70.237 551.192L80.6255 542.421L81.4246 539.232L75.0317 541.624L76.6299 539.232L86.2192 525.677L91.0139 488.2L95.8086 499.363L92.6121 497.769L93.4112 520.892L100.603 532.055L105.398 539.232L100.603 541.624L110.992 554.382L105.398 553.584L116.586 570.329L114.188 571.127L127.773 575.113L115.786 578.303L122.497 581.347C129.794 575.834 135.811 568.803 138.762 564.621L130.402 567.652L138.002 560.073L133.442 561.589L138.762 555.526L146.361 539.61L142.561 543.4L137.242 547.189L128.882 550.221L134.962 544.158L125.843 545.673L135.722 539.61C138.762 537.791 139.522 533.8 139.522 532.031L134.202 533.547L143.321 517.631L134.962 519.905C139.218 517.48 144.841 505.252 147.121 499.442L140.281 503.989L141.801 501.715H138.002L146.361 492.621L142.561 493.379L131.922 495.652L140.281 490.347L145.601 485.042L141.801 486.558L143.321 483.526L135.962 486.195C143.454 483.064 150.015 471.143 152.44 465.336L146.361 469.884L148.641 465.336L144.081 466.852C148.945 463.821 155.227 449.421 157.76 442.6L171.439 466.852L165.359 464.579L167.639 469.884L160.8 465.336L175.239 485.042L168.399 481.252L170.679 485.042L166.119 482.768L177.518 495.652L172.199 491.863L174.479 495.652L166.119 492.621L176.758 507.021L163.84 499.442L168.399 505.505L186.638 519.905L176.758 516.873L179.798 522.179L168.399 513.842L180.558 527.484L176.758 526.726L177.518 529.758L169.919 527.484L185.118 542.642L177.518 538.852V542.642L171.439 538.852L173.719 547.189C174.327 550.221 185.624 560.073 191.197 564.621L182.838 559.315L186.638 564.621L175.999 559.315C180.941 565.589 193.106 573.628 202.799 579.335C206.946 575.5 210.617 571.682 210.957 569.989L213.236 561.652L207.157 565.442V561.652L199.558 565.442L214.756 550.284L207.157 552.558L207.917 549.526L204.117 550.284L216.276 536.642L204.877 544.979L207.917 539.673L198.038 542.705L216.276 528.305L220.836 522.242L207.917 529.821L218.556 515.421L210.197 518.452L212.476 514.663L207.157 518.452L218.556 505.568L213.996 507.842L216.276 504.052L209.437 507.842L223.876 488.137L217.036 492.684L219.316 487.379L213.236 489.652L226.915 465.4C229.448 472.221 235.731 486.621 240.594 489.652L236.035 488.137L238.314 492.684L232.235 488.137C234.661 493.943 241.221 505.864 248.713 508.995L241.354 506.326L242.874 509.358L239.074 507.842L244.394 513.147L252.753 518.452L242.114 516.179L238.314 515.421L246.674 524.515H242.874L244.394 526.789L237.554 522.242C239.834 528.052 245.458 540.28 249.713 542.705L241.354 540.431L250.473 556.347L245.154 554.831C245.154 556.6 245.914 560.591 248.953 562.41L258.833 568.473L249.713 566.958L255.793 573.021L247.434 569.989L242.114 566.2L238.314 562.41L245.914 578.326L251.233 584.389L246.674 582.873L254.273 590.452L245.914 587.421C250.501 593.922 262.499 607.309 275.194 611.174L265.672 608.642L270.232 612.431L258.833 608.642L261.872 613.189L252.753 608.642L255.793 613.947L245.154 607.126C246.927 613.442 253.817 626.831 267.192 629.863L282.391 635.926L274.031 635.168L279.351 640.473L271.752 637.442L277.831 644.263L267.192 638.2L270.992 645.779C264.912 643.252 251.993 636.684 248.953 630.621C248.953 636.937 251.689 651.387 262.632 658.663L278.591 668.515L291.51 672.305L283.151 671.547L287.71 676.094L278.591 673.063L282.391 677.61L269.472 669.273L271.752 673.063L265.672 670.031L270.992 679.884L259.593 670.031L263.392 677.61L247.434 663.21C249.207 671.8 255.793 690.04 267.952 694.284L276.311 698.831L286.19 702.621L279.351 701.863L282.391 707.168L274.791 702.621L280.111 707.926L268.712 703.379L274.791 707.926C269.472 707.168 257.617 704.137 252.753 698.073C257.566 705.905 270.688 721.265 284.671 720.052L274.791 721.568L277.352 723.658L279.557 724.339C280.017 724.482 280.497 724.554 280.979 724.554H343.192C348.29 717.405 351.302 708.205 352.415 702.811L336.457 717.211L340.256 709.632L328.857 719.484L334.177 709.632L328.097 712.663L330.377 708.874L317.458 717.211L321.258 712.663L312.138 715.695L316.698 711.148L308.339 711.906L321.258 708.116L337.216 698.263C348.16 690.988 350.895 676.537 350.895 670.221C347.856 676.284 334.937 682.853 328.857 685.379L332.657 677.8L322.018 683.863L328.097 677.042L320.498 680.074L325.817 674.769L317.458 675.527L332.657 669.463C346.032 666.432 352.922 653.042 354.695 646.727L344.056 653.548L347.096 648.242L337.976 652.79L341.016 648.242L329.617 652.032L334.177 648.242L324.655 650.775C337.35 646.909 349.348 633.523 353.935 627.021L345.576 630.053L353.175 622.474L348.616 623.99L353.935 617.927L361.534 602.011L357.735 605.8L352.415 609.59L344.056 612.621L350.135 606.558L341.016 608.074L350.895 602.011C353.935 600.192 354.695 596.2 354.695 594.432L349.375 595.948L358.495 580.032L350.135 582.306C354.391 579.88 360.015 567.653 362.294 561.842L355.455 566.39L356.975 564.116H353.175L361.534 555.021L357.735 555.779L347.096 558.053L355.455 552.748L360.775 547.442L356.975 548.958L358.495 545.927L351.136 548.595C358.628 545.465 365.188 533.543 367.614 527.737L361.534 532.284L363.814 527.737L359.255 529.253C364.118 526.221 370.4 511.821 372.934 505L386.612 529.253L380.533 526.979L382.813 532.284L375.973 527.737L390.412 547.442L383.573 543.653L385.852 547.442L381.293 545.169L392.692 558.053L387.372 554.263L389.652 558.053L381.293 555.021L391.932 569.421L379.013 561.842L383.573 567.906L401.811 582.306L391.932 579.274L394.972 584.579L383.573 576.242L395.732 589.884L391.932 589.127L392.692 592.158L385.093 589.884L400.291 605.042L392.692 601.253V605.042L386.612 601.253L388.892 609.59C389.5 612.621 400.798 622.474 406.371 627.021L398.011 621.716L401.811 627.021L391.172 621.716C397.859 630.204 417.77 641.927 426.889 646.727L419.29 645.211L426.889 653.548L410.17 643.695L411.69 650.516L401.811 639.148L404.851 648.242L398.011 638.39L397.252 643.695L391.932 636.116L392.692 642.179L400.291 660.369L410.93 668.706L428.409 681.59L415.49 674.769L419.29 680.074L409.411 674.769L414.73 683.106L400.291 671.737L401.811 680.074L404.091 686.895C407.546 692.925 419.389 700.843 429.59 706.734C434.874 705.987 439.062 705.551 441.979 705.357C442.395 705.329 442.791 705.252 443.187 705.122L484.206 691.63C484.692 691.47 485.194 691.391 485.706 691.383C501.221 691.145 523.375 683.809 533.477 679.798C534.054 679.569 534.666 679.449 535.287 679.449H540.956C541.254 679.449 541.552 679.421 541.846 679.366L557.94 676.341C558.67 676.204 559.422 676.237 560.137 676.439L564.482 677.664C565.535 677.961 566.657 677.89 567.664 677.464L568.537 677.095C569.917 676.512 570.814 675.161 570.814 673.664V672.838C570.814 672.005 571.263 671.236 571.99 670.826C572.717 670.416 573.167 669.647 573.167 668.814V667.976C573.167 667.239 573.384 666.519 573.793 665.905L575.806 662.877C576.383 662.009 577.228 661.352 578.212 661.005L585.597 658.403C585.936 658.283 586.287 658.202 586.644 658.161L630.738 653.061C631.556 652.966 632.384 653.083 633.144 653.4L658.631 664.022C658.904 664.136 659.166 664.274 659.413 664.436L662.019 666.141L670.514 659.16L668.916 657.565L659.327 660.755H652.934L668.916 646.402L667.318 643.213L680.104 622.481L676.108 624.873L673.711 628.063L674.51 615.305L682.501 604.142L670.514 617.697L672.113 609.723L685.698 594.573V586.6L672.912 596.168L684.099 581.018V573.842C686.23 570.387 690.332 562.679 689.693 559.489C689.054 556.3 688.894 558.16 688.894 559.489L676.108 569.855L688.095 553.908V550.718L685.698 543.542L690.492 534.771V527.594L683.3 528.392L693.689 519.621L694.488 516.431L688.095 518.823L689.693 516.431L699.282 502.876L704.077 465.4L708.872 476.563L705.675 474.968L706.474 498.092L713.666 509.255L718.461 516.431L713.666 518.823L724.055 531.581L718.461 530.784L729.649 547.529L727.251 548.326L740.836 552.313L728.85 555.502L737.64 559.489L729.649 561.084L745.631 576.234L734.443 572.247L745.631 582.613L738.439 583.41L743.234 590.587L740.037 591.384L751.225 600.155L738.439 596.168L756.019 606.534C753.622 609.192 747.229 613.551 740.836 609.723L752.823 619.292L744.832 618.494C749.094 620.887 758.097 626.787 760.015 631.252L752.024 628.063L747.229 631.252L748.028 636.834L767.207 652.781V656.768L749.627 648.794L753.622 659.958L767.207 672.715L776.796 679.094L768.805 678.297L764.81 676.702L781.591 685.473H792.779L787.185 690.258L778.395 691.852L770.403 691.055L774.665 700.623C795.752 701.043 816.578 697.795 826.737 695.489C827.095 695.408 827.447 695.369 827.813 695.369H857.852C858.622 695.369 859.38 695.184 860.063 694.831L872.31 688.501C872.858 688.218 873.455 688.045 874.069 687.978C884.557 686.844 896.287 683.131 901.707 681.098C902.268 680.887 902.857 680.776 903.456 680.776H911.285C912.477 680.776 913.626 680.334 914.509 679.537L917.834 676.538C918.603 675.844 919.576 675.417 920.607 675.32L924.721 674.933C925.607 674.85 926.442 674.507 927.216 674.069C933.682 670.409 949.778 668.279 958.173 667.577C958.73 667.531 959.275 667.392 959.784 667.163L964.207 665.167C964.664 664.961 965.15 664.828 965.648 664.772L976.197 663.582C976.505 663.547 976.815 663.542 977.124 663.567L992.521 664.807C992.925 664.84 993.331 664.821 993.731 664.752L1007.7 662.328C1008.18 662.245 1008.64 662.09 1009.07 661.869L1046.55 642.657C1046.96 642.449 1047.33 642.185 1047.66 641.873V639.147L1032.46 646.726V642.937L1024.86 644.453L1038.54 627.779L1019.54 633.842L1029.42 621.716L1018.78 627.779L1023.34 620.958L1012.7 623.99L1021.06 617.168L1011.18 615.653C1025.17 616.865 1038.29 601.505 1043.1 593.674C1038.24 599.737 1026.38 602.768 1021.06 603.526L1027.14 598.979L1015.74 603.526L1021.06 598.221L1013.46 602.768L1016.5 597.463L1009.66 598.221L1019.54 594.432L1027.9 589.884C1040.06 585.64 1046.65 567.4 1048.42 558.811L1032.46 573.211L1036.26 565.632L1024.86 575.484L1030.18 565.632L1024.1 568.663L1026.38 564.874L1013.46 573.211L1017.26 568.663L1008.14 571.695L1012.7 567.147L1004.35 567.905L1017.26 564.116L1033.22 554.263C1044.17 546.987 1046.9 532.537 1046.9 526.221C1043.86 532.284 1030.94 538.853 1024.86 541.379L1028.66 533.8L1018.02 539.863L1024.1 533.042L1016.5 536.074L1021.82 530.768L1013.46 531.526L1028.66 525.463C1042.04 522.432 1048.93 509.042 1050.7 502.726L1040.06 509.547L1043.1 504.242L1033.98 508.789L1037.02 504.242L1025.62 508.032L1030.18 504.242L1020.66 506.775C1033.36 502.909 1045.35 489.522 1049.94 483.021L1041.58 486.053L1049.18 478.474L1044.62 479.989L1049.94 473.926L1057.54 458.011L1053.74 461.8L1048.42 465.589L1040.06 468.621L1046.14 462.558L1037.02 464.074L1046.9 458.011C1049.94 456.192 1050.7 452.2 1050.7 450.432L1045.38 451.947L1054.5 436.032L1046.14 438.305C1050.4 435.88 1056.02 423.653 1058.3 417.842L1051.46 422.389L1052.98 420.116H1049.18L1057.54 411.021L1053.74 411.779L1043.1 414.053L1051.46 408.747L1056.78 403.442L1052.98 404.958L1054.5 401.926L1047.14 404.595C1054.63 401.465 1061.19 389.543 1063.62 383.737L1057.54 388.284L1059.82 383.737L1055.26 385.253C1060.12 382.221 1066.41 367.821 1068.94 361L1082.62 385.253L1076.54 382.979L1078.82 388.284L1071.98 383.737L1086.42 403.442L1079.58 399.653L1081.86 403.442L1077.3 401.168L1088.7 414.053L1083.38 410.263L1085.66 414.053L1077.3 411.021L1087.94 425.421L1075.02 417.842L1079.58 423.905L1097.82 438.305L1087.94 435.274L1090.98 440.579L1079.58 432.242L1091.74 445.884L1087.94 445.126L1088.7 448.158L1081.1 445.884L1096.3 461.042L1088.7 457.253V461.042L1082.62 457.253L1084.9 465.589C1085.51 468.621 1096.8 478.474 1102.38 483.021L1094.02 477.716L1097.82 483.021L1087.18 477.716C1093.87 486.204 1113.78 497.926 1122.9 502.726L1115.3 501.211L1122.9 509.547L1106.18 499.695L1107.7 506.516L1097.82 495.147L1100.86 504.242L1094.02 494.389L1093.26 499.695L1087.94 492.116L1088.7 498.179L1096.3 516.368L1106.94 524.705L1124.42 537.589L1111.5 530.768L1115.3 536.074L1105.42 530.768L1110.74 539.105L1096.3 527.737L1097.82 536.074L1100.1 542.895C1104.96 551.383 1126.44 563.611 1136.57 568.663L1122.9 564.116L1136.57 573.211L1128.21 570.179L1130.49 575.484L1117.58 569.421L1124.42 577.758L1100.86 562.6L1111.5 574.726L1103.14 568.663L1104.66 573.211L1091.74 558.811L1092.5 571.695L1095.54 577.758C1097.97 582.608 1115.3 590.389 1123.66 593.674H1116.82L1124.42 595.947H1119.86L1109.22 591.4L1117.58 599.737L1111.5 597.463L1101.62 589.126L1107.7 598.979L1097.82 592.158L1099.34 598.979L1090.22 591.4L1087.94 593.674L1090.98 596.705L1102.38 604.284H1096.3L1101.62 611.863L1111.5 617.168L1122.14 623.232L1113.78 620.2L1114.54 623.232L1106.94 619.442L1109.98 625.505L1127.46 630.811L1116.82 633.084L1106.18 630.053L1099.34 625.505L1103.14 633.842L1115.3 642.179L1100.1 639.905L1107.71 646.417L1131.49 649.396C1132.54 649.528 1133.61 649.307 1134.53 648.766L1158.27 634.771C1158.75 634.489 1159.18 634.125 1159.53 633.696L1166.42 625.379C1166.81 624.907 1167.28 624.516 1167.82 624.224L1166.98 623.808L1173.38 609.455L1165.38 610.253L1156.59 608.658L1151 603.874H1162.19L1178.97 595.103L1174.97 596.697L1166.98 597.495L1176.57 591.116L1190.16 578.358L1194.15 567.195L1176.57 575.168V571.182L1195.75 555.234L1196.55 549.653L1191.75 546.463L1183.76 549.653C1185.68 545.187 1194.68 539.287 1198.95 536.895L1190.96 537.692L1202.94 528.124C1196.55 531.951 1190.16 527.592 1187.76 524.934L1205.34 514.568L1192.55 518.555L1203.74 509.784L1200.54 508.987L1205.34 501.811L1198.15 501.013L1209.34 490.647L1198.15 494.634L1214.13 479.484L1206.14 477.89L1214.93 473.903L1202.94 470.713L1216.53 466.726L1214.13 465.929L1225.32 449.184L1219.72 449.982L1230.11 437.224L1225.32 434.832L1230.11 427.655L1237.3 416.492L1238.1 393.368L1234.91 394.963L1239.7 383.8L1244.5 421.276L1254.09 434.832L1255.68 437.224L1249.29 434.832L1250.09 438.021L1260.48 446.792L1253.29 445.995V453.171L1258.08 461.942L1255.68 469.118V472.308L1262.19 480.97C1268.1 475.991 1276.68 468.221 1277.2 465.589L1279.48 457.253L1273.4 461.042V457.253L1265.8 461.042L1281 445.884L1273.4 448.158L1274.16 445.126L1270.36 445.884L1282.52 432.242L1271.12 440.579L1274.16 435.274L1264.28 438.305L1282.52 423.905L1287.08 417.842L1274.16 425.421L1284.8 411.021L1276.44 414.053L1278.72 410.263L1273.4 414.053L1284.8 401.168L1280.24 403.442L1282.52 399.653L1275.68 403.442L1290.12 383.737L1283.28 388.284L1285.56 382.979L1279.48 385.253L1293.16 361C1295.7 367.821 1301.98 382.221 1306.84 385.253L1302.28 383.737L1304.56 388.284L1298.48 383.737C1300.91 389.543 1307.47 401.465 1314.96 404.595L1307.6 401.926L1309.12 404.958L1305.32 403.442L1310.64 408.747L1319 414.053L1308.36 411.779L1304.56 411.021L1312.92 420.116H1309.12L1310.64 422.389L1303.8 417.842C1306.08 423.653 1311.71 435.88 1315.96 438.305L1307.6 436.032L1316.72 451.947L1311.4 450.432C1311.4 452.2 1312.16 456.192 1315.2 458.011L1325.08 464.074L1315.96 462.558L1322.04 468.621L1313.68 465.589L1308.36 461.8L1304.56 458.011L1312.16 473.926L1317.48 479.989L1312.92 478.474L1320.52 486.053L1312.16 483.021C1316.75 489.522 1328.75 502.909 1341.44 506.775L1331.92 504.242L1336.48 508.032L1325.08 504.242L1328.12 508.789L1319 504.242L1322.04 509.547L1311.4 502.726C1313.17 509.042 1320.06 522.432 1333.44 525.463L1339.84 528.017L1342.03 525.108V521.919L1339.63 514.742L1344.43 505.971V498.795L1337.23 499.592L1347.62 490.821L1348.42 487.632L1342.03 490.024L1343.63 487.632L1353.22 474.076L1358.01 436.6L1362.8 447.763L1359.61 446.169L1360.41 469.292L1367.6 480.455L1372.39 487.632L1367.6 490.024L1377.99 502.782L1372.39 501.984L1383.58 518.729L1381.18 519.526L1394.77 523.513L1382.78 526.703L1391.57 530.69L1383.58 532.284L1399.56 547.434L1388.38 543.447L1399.56 553.813L1392.37 554.611L1397.17 561.787L1393.97 562.584L1405.16 571.355L1392.37 567.369L1409.95 577.734C1407.55 580.392 1401.16 584.751 1394.77 580.924L1406.76 590.492L1398.76 589.695C1403.03 592.087 1412.03 597.987 1413.95 602.453L1405.96 599.263L1401.16 602.453L1401.96 608.034L1421.14 623.982V627.969L1403.56 619.995L1407.55 631.158L1421.14 643.916L1430.73 650.295L1422.74 649.497L1418.74 647.903L1426.56 651.991C1427.14 651.771 1427.77 651.732 1428.37 651.885L1461.8 660.4C1463.01 660.706 1464.28 660.537 1465.36 659.928L1468.81 657.982C1469.3 657.703 1469.84 657.513 1470.41 657.423L1510.29 650.997C1510.58 650.95 1510.87 650.877 1511.15 650.777L1558.55 633.799L1559.24 632.255L1551.25 633.052L1542.46 631.458L1536.87 626.673H1548.06L1564.84 617.902L1560.84 619.497L1552.85 620.294L1562.44 613.915L1576.02 601.158L1580.02 589.994L1562.44 597.968V593.981L1581.62 578.034L1582.42 572.452L1577.62 569.263L1569.63 572.452C1571.55 567.987 1580.55 562.086 1584.81 559.694L1576.82 560.492L1588.81 550.923C1582.42 554.751 1576.02 550.392 1573.63 547.734L1591.21 537.368L1578.42 541.355L1589.61 532.584L1586.41 531.786L1591.21 524.61L1584.02 523.813L1595.2 513.447L1584.02 517.434L1600 502.284L1592.01 500.689L1600.8 496.702L1588.81 493.513L1602.39 489.526L1600 488.729L1611.19 471.984L1605.59 472.781L1615.98 460.023L1611.19 457.631L1615.98 450.455L1623.17 439.292L1623.97 416.168L1620.77 417.763L1625.57 406.6L1630.36 444.076L1639.95 457.631L1641.55 460.023L1635.16 457.631L1635.96 460.821L1646.35 469.592L1639.15 468.794V475.971L1643.95 484.742L1641.55 491.918V495.108L1646.18 501.261C1651.64 496.488 1657.82 490.61 1658.26 488.39L1660.54 480.053L1654.46 483.842V480.053L1646.86 483.842L1662.06 468.684L1654.46 470.958L1655.22 467.926L1651.42 468.684L1663.58 455.042L1652.18 463.379L1655.22 458.074L1645.34 461.105L1663.58 446.705L1668.14 440.642L1655.22 448.221L1665.86 433.821L1657.5 436.853L1659.78 433.063L1654.46 436.853L1665.86 423.968L1661.3 426.242L1663.58 422.453L1656.74 426.242L1671.18 406.537L1664.34 411.084L1666.62 405.779L1660.54 408.053L1674.22 383.8C1676.76 390.621 1683.04 405.021 1687.9 408.053L1683.34 406.537L1685.62 411.084L1679.54 406.537C1681.97 412.343 1688.53 424.265 1696.02 427.395L1688.66 424.726L1690.18 427.758L1686.38 426.242L1691.7 431.547L1700.06 436.853L1689.42 434.579L1685.62 433.821L1693.98 442.916H1690.18L1691.7 445.19L1684.86 440.642C1687.14 446.453 1692.77 458.68 1697.02 461.105L1688.66 458.832L1697.78 474.747L1692.46 473.232C1692.46 475 1693.22 478.992 1696.26 480.811L1706.14 486.874L1697.02 485.358L1703.1 491.421L1694.74 488.39L1689.42 484.6L1685.62 480.811L1693.22 496.726L1698.54 502.79L1693.98 501.274L1701.58 508.853L1693.22 505.821C1697.81 512.322 1709.81 525.709 1722.5 529.575L1712.98 527.042L1717.54 530.832L1706.14 527.042L1709.18 531.59L1700.06 527.042L1703.1 532.347L1692.46 525.526C1694.23 531.842 1701.12 545.232 1714.5 548.263L1728 553.649V554.172L1721.34 553.568L1726.66 558.874L1719.06 555.842L1725.14 562.663L1714.5 556.6L1718.3 564.179C1712.22 561.653 1699.3 555.084 1696.26 549.021C1696.26 555.337 1699 569.787 1709.94 577.063L1725.9 586.916L1728 587.532V592.162L1725.9 591.463L1728 593.978V594.915L1716.78 587.674L1719.06 591.463L1712.98 588.432L1718.3 598.284L1706.9 588.432L1710.7 596.011L1694.74 581.611C1696.51 590.2 1703.1 608.44 1715.26 612.684L1723.62 617.232L1728 618.912V620.412L1726.66 620.263L1728 622.605V624.552L1722.1 621.021L1727.42 626.326L1716.02 621.779L1722.1 626.326C1716.78 625.568 1704.92 622.537 1700.06 616.474C1704.41 623.557 1715.56 636.799 1728 638.367V639.063L1722.1 639.969L1728 644.784V646.089L1719.82 643.758L1724.38 650.579L1713.74 644.516L1720.6 652.939L1728 652.219ZM1724.38 530.074L1722.5 529.575C1723.13 529.765 1723.75 529.932 1724.38 530.074ZM1697.02 427.758L1696.02 427.395C1696.35 427.534 1696.69 427.655 1697.02 427.758ZM1343.32 507.274L1341.44 506.775C1342.07 506.965 1342.69 507.132 1343.32 507.274ZM1315.96 404.958L1314.96 404.595C1315.29 404.734 1315.63 404.855 1315.96 404.958ZM1046.14 404.958C1046.48 404.855 1046.81 404.734 1047.14 404.595L1046.14 404.958ZM1018.78 507.274C1019.41 507.132 1020.04 506.965 1020.66 506.775L1018.78 507.274ZM350.135 548.958C350.471 548.855 350.804 548.734 351.136 548.595L350.135 548.958ZM322.778 651.274C323.404 651.132 324.03 650.965 324.655 650.775L322.778 651.274ZM277.071 611.673L275.194 611.174C275.818 611.364 276.444 611.531 277.071 611.673ZM249.713 509.358L248.713 508.995C249.045 509.133 249.378 509.255 249.713 509.358ZM134.962 486.558C135.297 486.455 135.631 486.333 135.962 486.195L134.962 486.558ZM1183.76 618.226L1183.21 619.022L1182.14 619.06C1181.93 619.067 1181.72 619.088 1181.52 619.121L1183.76 618.226ZM1707.72 654.191C1707.68 654.195 1707.63 654.199 1707.59 654.202L1704.62 650.579L1714.02 653.579L1707.72 654.191ZM56.7844 690.086L53.5785 688.278L55.0539 687.542L59.0494 688.34L56.7844 690.086ZM196.369 702.263L196.742 702.374L196.91 701.617L195.757 701.042L196.369 702.263ZM197.467 702.59L200.925 703.619L197.99 702.155L197.467 702.59ZM403.477 711.444C401.169 711.937 398.787 712.464 396.334 713.028L395.732 702.811L403.477 711.444ZM410.221 710.056C409.565 710.185 408.902 710.318 408.232 710.454L404.851 706.6L410.221 710.056ZM667.058 669.437L663.444 667.073L668.117 664.742L672.113 665.539L667.058 669.437ZM1095.45 644.881L1082.42 643.247L1082.62 641.421L1095.45 644.881ZM1260.47 482.414C1260.21 482.625 1259.96 482.828 1259.73 483.021L1260.56 482.491L1265.39 486.405C1263.35 487.942 1261.16 489.48 1258.92 490.976C1256.71 487.164 1253.52 480.732 1254.09 477.89C1254.72 474.7 1254.88 476.561 1254.88 477.89L1260.47 482.414ZM1260.09 499.975L1261.87 502.381L1264.28 495.147L1260.09 499.975ZM1262.21 502.849L1268.11 510.841L1273.4 498.179L1274.16 492.116L1268.84 499.695L1268.08 494.389L1262.21 502.849ZM1267.58 512.111L1258.08 505V512.974L1263.06 518.522L1265.8 516.368L1267.58 512.111ZM1265.29 528.144L1265.64 528.637L1265.8 527.737L1265.29 528.144ZM1265.96 485.975L1262.44 481.298L1268.08 477.716L1264.28 483.021L1274.92 477.716C1272.91 480.269 1269.71 483.114 1265.96 485.975ZM1327.47 604.33L1329.79 600.567C1325.57 598.958 1321.42 596.691 1319 593.674C1320.8 596.595 1323.75 600.565 1327.47 604.33ZM1328.44 586.59L1328.44 586.505L1336.43 575.342L1327.33 585.635C1327.55 585.839 1327.78 586.038 1328.01 586.233C1328.13 586.334 1328.25 586.435 1328.37 586.534L1328.44 586.59ZM1325.48 583.765L1326.05 580.924L1333.68 572.409L1327.38 566.966L1326.84 567.369L1327.24 566.838L1325.84 565.632L1329.64 573.211L1313.68 558.811C1314.97 565.056 1318.8 576.405 1325.48 583.765ZM1337.36 559.499L1339.63 560.9V557.8L1337.36 559.499ZM1338.71 566.802L1335.72 564.874L1337.61 568.023L1338.71 566.802ZM1337.34 568.333L1331.92 565.632L1334.87 571.088L1337.34 568.333ZM1334.13 557.504L1328.88 554.263C1317.94 546.987 1315.2 532.537 1315.2 526.221C1317.49 530.782 1325.37 535.63 1331.72 538.827L1330.04 541.055L1332.38 539.158C1334.21 540.063 1335.89 540.82 1337.24 541.379L1335.04 537L1336.7 535.658L1341.57 538.433C1340.41 540.967 1339.01 543.454 1338.03 545.042V552.219L1334.13 557.504ZM1341.98 537.509C1342.35 536.661 1342.68 535.82 1342.95 535.017L1339.29 533.557L1338.81 533.949L1341.98 537.509ZM1341.38 531.864L1343.32 533.8C1343.6 532.76 1343.74 531.824 1343.68 531.077L1342.48 530.968L1341.38 531.864ZM1343.32 529.404L1342.91 529.243C1342.99 528.846 1343.11 528.749 1343.32 529.404ZM1334.88 534.62L1333.44 533.8L1334.26 535.44L1334.88 534.62ZM1643.89 503.232L1640.75 500.689C1640.75 499.36 1640.59 497.5 1639.95 500.689C1639.71 501.889 1640.14 503.727 1640.89 505.738C1641.77 505.016 1642.79 504.165 1643.89 503.232ZM1640.89 505.753L1644.32 503.579L1645.98 504.93L1645.34 505.821L1646.42 505.285L1648.9 507.298C1647.22 508.654 1645.38 510.025 1643.47 511.38C1642.53 509.602 1641.58 507.605 1640.89 505.753ZM1645.6 522.293L1650.91 529.483L1654.46 520.979L1655.22 514.916L1649.9 522.495L1649.14 517.19L1645.6 522.293ZM1649.79 532.17L1643.95 527.8V535.773L1646.91 539.071L1649.79 532.17ZM1650.02 506.381C1652.47 504.343 1654.54 502.354 1655.98 500.516L1648.44 504.276L1650.02 506.381ZM1647.42 502.92L1649.14 500.516L1646.76 502.032L1647.42 502.92ZM116.586 583.884L119.859 583.231C119.078 583.756 118.286 584.26 117.484 584.737L116.586 583.884ZM118.815 585.998L118.728 585.915L119.003 585.842L118.815 585.998ZM136.93 641.81C136.758 642.53 136.558 643.298 136.331 644.105C135.692 643.68 135.069 643.279 134.475 642.907L135.814 641.699L136.93 641.81ZM133.034 621.357C132.816 621.927 132.582 622.499 132.332 623.07L125.376 618.969L133.034 621.357ZM135.722 607.821C135.722 610.576 135.201 614.88 133.705 619.462L128.229 615.168C131.611 612.84 134.485 610.288 135.722 607.821ZM120.518 587.612L125.843 585.842L123.053 590.015L120.518 587.612ZM131.922 585.842L123.225 590.178L131.74 598.249C136.029 593.4 138.547 587.796 139.522 584.326L128.882 591.147L131.922 585.842ZM121.38 595.048L131.406 598.621C130.479 599.639 129.472 600.62 128.383 601.536L121.38 595.048ZM206.379 583.261L205.106 583.896L206.08 584.964C206.59 584.465 207.068 583.972 207.509 583.487L206.379 583.261ZM198.038 587.421L200.221 584.373L199.215 583.78L196.005 585.817L196.517 588.115L195.048 586.425L193.478 587.421C193.918 587.062 194.393 586.67 194.896 586.251L186.638 576.747L189.677 585.842L182.838 575.989L182.078 581.294L176.758 573.715L177.518 579.779L185.118 597.968L186.709 599.215C192.924 595.359 199.476 590.886 204.194 586.714L202.022 585.434L198.038 587.421ZM194.997 581.294L198.379 583.288C197.526 584.029 196.695 584.739 195.912 585.4L194.997 581.294ZM195.757 606.305L193.62 604.63L198.038 599.547L195.775 606.318L195.757 606.305ZM203.282 611.852L196.328 606.726L201.837 598.789L202.597 604.094L207.917 596.515L207.157 602.579L203.282 611.852ZM200.317 612.368L202.57 613.558L202.054 614.793L200.317 612.368ZM194.237 612.368L201.449 616.241L199.558 620.768L191.082 627.41C190.185 626.402 189.451 625.426 188.917 624.494L186.638 617.673L185.118 609.336L199.557 620.705L194.237 612.368ZM180.558 640.41L180.584 640.439L180.562 640.47L180.558 640.41ZM180.597 640.453L180.562 640.472L181.318 653.294L183.905 658.455C186.711 656.452 189.282 654.424 191.374 652.466L180.597 640.453ZM176.758 675.273L178.158 673.878L178.279 673.821L176.939 675.454L176.758 675.273ZM181.933 675.406L178.869 677.378L179.798 678.305L191.197 685.884H185.118L188.495 690.696C194.17 687.736 199.103 684.581 200.317 682.158L201.624 679.552L200.317 679.063L194.385 674.058L193.264 675.307L196.517 680.579L191.588 677.176L191.198 677.61L191.389 677.038L189.262 675.57L187.35 676.956L188.158 680.579L185.454 678.332L184.359 679.126L185.224 678.14L181.933 675.406ZM193.321 695.012L192.806 694.735L194.238 693.526L193.321 695.012ZM197.841 697.439L197.234 697.113L198.038 696.558L197.841 697.439ZM203.396 702.09L202.773 702.504L202.596 701.8L203.396 702.09ZM201.354 699.359L204.665 701.246L204.877 701.105L207.917 698.073L205.637 695.8L201.354 699.359ZM203.357 676.094L202.618 677.569L198.037 673L203.404 675.294L203.357 676.094ZM204.117 663.21L203.628 671.511C202.02 670.779 200.371 670.001 198.746 669.197L204.117 663.21ZM194.998 667L194.837 667.183L194.769 667.147L194.998 667ZM190.437 670.726L191.179 671.352L190.971 671.59L190.437 670.726ZM192.423 673.945L192.139 673.483L192.718 673.063L192.423 673.945ZM186.638 673.758L188.152 674.803L187.13 675.967L186.638 673.758ZM192.908 650.952C192.734 651.135 192.555 651.318 192.371 651.502L191.957 650.263L192.908 650.952ZM195.399 647.881C195.073 648.385 194.692 648.901 194.263 649.426L189.677 644.2L195.399 647.881ZM197.843 633.487C198.265 633.812 198.695 634.138 199.133 634.463L199.558 632.137L197.843 633.487ZM208.134 582.386L208.358 582.511C208.402 582.457 208.445 582.405 208.488 582.352C208.552 582.273 208.615 582.194 208.677 582.115L208.134 582.386Z" fill="#05502F"/>
</g>
<defs>
<clipPath id="clip0_299_1406">
<rect width="1728" height="1117" fill="white"/>
</clipPath>
</defs>
</svg>
