<svg width="1440" height="673" viewBox="0 0 1440 673" fill="none" xmlns="http://www.w3.org/2000/svg">
<path d="M1439.9 229.89C1439.9 376.02 1439.88 522.14 1439.99 668.27C1439.99 672.02 1439.15 672.86 1435.4 672.86C958.46 672.76 481.53 672.76 4.59009 672.86C0.840087 672.86 -0.00991319 672.02 8.68125e-05 668.27C0.110087 534.14 0.0900868 400.01 0.0900868 265.88C11.4901 266.56 22.9001 267.23 34.3001 267.91C39.0701 263.62 44.0401 259.51 48.5001 254.93C49.8201 253.58 49.4301 250.72 50.3701 248.82C51.8401 245.87 53.8401 243.19 55.4701 240.31C55.7601 239.79 55.3301 238.86 55.2301 238.12C51.9801 240.34 53.3601 237.35 53.2501 236.28C53.0701 234.47 53.8301 231.87 52.8901 230.95C48.9301 227.11 52.2101 224.79 54.2701 222.27C56.7801 219.19 59.8401 216.51 62.0301 213.23C63.0501 211.7 62.5901 209.18 62.8101 207.11C61.4201 207.79 60.0001 208.43 58.6401 209.16C57.9101 209.55 57.2701 210.09 56.5901 210.57C56.3301 210.26 56.0801 209.95 55.8201 209.65C57.7801 206.62 60.1801 203.78 61.5801 200.52C63.2201 196.69 64.0601 192.5 65.1101 188.43C65.4901 186.96 65.5101 185.4 65.7001 183.89C64.4901 184.68 63.2901 185.48 62.0701 186.25C61.5201 186.6 60.9401 186.9 60.3801 187.23L59.4101 186.29C60.6701 184.54 62.2001 182.92 63.1201 181.01C63.9901 179.2 65.2501 176.59 64.5601 175.2C62.5401 171.11 64.0501 168.06 65.8101 164.56C66.7801 162.63 66.9401 160.09 66.7301 157.89C66.6701 157.28 64.0001 156.92 62.3301 156.38C64.7701 154.22 67.0401 152.31 69.1801 150.25C69.6301 149.82 69.5501 148.84 69.7101 148.11C68.9301 148.14 68.1401 148.18 67.3601 148.21C67.0601 147.94 66.7601 147.68 66.4701 147.41C67.2201 146.31 67.8901 145.15 68.7301 144.12C72.6901 139.24 75.1601 133.95 75.4801 127.42C75.8201 120.44 77.2301 113.51 78.1701 106.56C79.7201 108.6 81.2201 110.87 80.8801 112.81C79.2201 122.24 78.3701 131.38 85.0101 139.48C85.8501 140.5 86.6301 141.64 87.1301 142.85C87.9701 144.87 92.2801 146.93 87.2901 149.18C87.1601 149.24 87.3901 150.63 87.7801 151.17C89.0401 152.92 90.7601 154.42 91.6601 156.33C92.0101 157.08 97.3101 159.18 91.5201 160.01C91.5201 160.01 91.4601 161.21 91.7601 161.58C96.4101 167.26 98.0101 176 107.26 177.08C107.51 177.11 107.71 177.52 107.93 177.76C105.29 178.43 102.64 179.1 99.6301 179.87C103.73 183.51 106.35 181.77 108.71 178.69C111.2 175.81 113.69 172.92 116.18 170.04C116.4 169.92 116.63 169.81 116.85 169.69C116.7 169.54 116.56 169.39 116.41 169.24C116.28 169.45 116.15 169.66 116.02 169.86C115.14 169.52 114.26 169.18 113.38 168.84C114.89 166.22 116.45 163.63 117.88 160.97C119.14 158.64 120.33 156.26 121.4 153.83C121.75 153.04 121.61 152.04 121.69 151.13C120.96 151.44 120.24 151.77 119.49 152.04C116.95 152.97 114.4 153.88 111.86 154.8L112.02 154.89C112.37 153.92 113.19 152.21 112.99 152.08C110.73 150.61 110.72 150.72 113.27 149.05C114.63 148.16 116.3 147.33 117.04 146.03C117.65 144.94 121.22 142.04 116.03 141.95C115.97 141.95 115.64 140.39 115.93 139.82C117.29 137.19 118.79 134.62 120.3 132.07C121.35 130.3 121.05 129.71 118.95 130.14C118.31 130.27 117.58 129.94 116.89 129.83L117.04 129.92C119.21 125.83 121.4 121.76 123.53 117.65C123.82 117.1 123.84 116.41 123.98 115.79C123.32 115.92 122.65 116.19 121.99 116.16C120.8 116.09 119.62 115.85 118.43 115.67C118.94 114.91 119.41 114.12 119.98 113.41C121.03 112.1 122.15 110.84 123.14 109.68H114.63L114.79 109.76C116.74 108.29 118.75 106.89 120.6 105.3C121.18 104.8 121.76 103.24 121.58 103.08C118.77 100.72 121.18 99.32 122.38 97.59C124.25 94.9 125.97 92.12 127.67 89.32C127.7 89.27 126.72 88.6 126.21 88.22L126.27 88.39C124.55 86.61 124.58 85.08 126.01 82.84C128.39 79.11 130.12 74.98 132.12 71.02C132.62 70.02 133.13 69.03 133.63 68.03C134.44 69.01 135.37 69.91 136.03 70.98C139.02 75.84 141.93 80.76 144.88 85.65L144.93 85.69C143.25 86.58 140.46 85.76 140.16 88.78L137.49 88.35C137.55 88.28 137.62 88.22 137.68 88.15C137.6 88.2 137.52 88.25 137.44 88.3C138.04 88.71 138.65 89.12 139.25 89.53C141.77 93.18 144.3 96.83 146.77 100.4C145.4 100.69 144.02 100.99 142.65 101.29C143.31 102.48 143.92 103.71 144.66 104.86C145.1 105.54 145.9 106.02 146.28 106.72C146.73 107.57 146.91 108.57 147.21 109.51C146.3 109.66 145.39 109.84 144.48 109.94C143.37 110.06 142.26 110.1 141.15 110.18L141.94 109.29L141.18 110.2C143.16 112.74 145.15 115.27 147.13 117.81L146.53 118.63C144.57 117.65 142.61 116.66 140.64 115.68C140.44 116 140.23 116.33 140.03 116.65C142.49 118.79 144.93 120.97 147.43 123.07C149.97 125.21 152.57 127.29 155.14 129.4C153.8 129.92 152.8 129.46 151.92 129.63C150.38 129.92 148.92 130.59 147.43 131.11C148.08 132 148.81 132.85 149.37 133.79C149.96 134.78 150.97 135.98 150.79 136.89C150.27 139.54 147.9 138.72 146.09 138.83C145.82 138.61 145.56 138.37 145.27 138.17C145.23 138.15 145.05 138.34 144.94 138.43L145.92 139.04C147.51 140.88 148.92 142.94 150.75 144.49C153.01 146.41 153.13 147.56 150.14 148.45C149.48 148.65 148.59 149.14 148.18 148.88C145 146.91 145.45 149.46 146.2 150.73C148.31 154.34 150.9 157.68 153.16 161.21C154.29 162.98 155.12 164.95 156.09 166.82C155.93 166.97 155.77 167.11 155.61 167.26C154.81 167.07 154.02 166.87 153.22 166.68C152.57 166.49 151.91 166.3 151.26 166.1C151.63 166.56 151.99 167.03 152.36 167.49C158 171.55 163.61 175.67 169.33 179.62C170.03 180.1 171.68 180.13 172.31 179.63C175.76 176.91 178.54 173.66 179.07 169.04C179.21 167.87 179.88 166.84 177.53 167.47C175.72 167.96 173.51 166.96 171.47 166.63C172.56 165.48 173.56 164.23 174.75 163.2C176.76 161.46 178.88 159.85 180.81 158.3C178.17 157.48 175.95 157.45 174.88 156.33C172.46 153.79 176.2 153.14 176.93 151.5C177.13 151.06 177.73 150.76 177.8 150.33C177.85 150.05 177.32 149.41 176.99 149.37C174.7 149.06 172.4 148.86 169.51 148.57C173.11 145.72 176.55 143.22 179.71 140.41C181.3 139 182.39 137.03 183.7 135.31C181.98 136.09 180.25 136.86 178.53 137.64C178.36 137.35 178.17 137.08 177.97 136.83L183.9 129.16C183.69 128.94 183.49 128.71 183.27 128.51C183.23 128.48 183.11 128.54 183.02 128.56C183.32 128.76 183.61 128.97 183.91 129.17C181.88 128.83 179.85 128.49 177.82 128.14C179.08 126.24 180.21 124.23 181.63 122.45C184.46 118.92 182.06 119.21 179.57 119.46C179.4 119.24 179.21 119.04 179 118.85C181.37 115.21 183.73 111.58 186.1 107.94C186.61 107.72 187.11 107.49 187.62 107.27C187.6 107.19 187.57 107.11 187.55 107.03C187.55 107.13 187.56 107.22 187.57 107.32C186.9 107.25 186.23 107.18 185.56 107.12C184.77 106.39 183.93 104.98 183.21 105.04C179.52 105.37 181.34 103.6 182.06 102.32C184.48 97.98 186.93 93.66 189.42 89.35C189.89 88.53 190.57 87.84 191.16 87.09C191.74 88 192.39 88.87 192.88 89.82C195.08 94.08 197.03 98.48 199.48 102.58C200.72 104.65 200.12 105.86 198.83 107.27L198.91 107.1C198.49 107.65 197.59 108.52 197.71 108.72C199.96 112.17 202.33 115.53 204.69 118.91C205.05 119.43 205.51 119.88 205.92 120.37C205.63 120.49 205.33 120.6 205.05 120.73C201.43 122.37 203.88 123.82 205.29 125.08C206.72 126.35 208.37 127.38 209.93 128.51C209.84 128.76 209.76 129 209.67 129.25C207.17 128.83 204.66 128.41 201.45 127.87C202.88 129.64 203.94 130.85 204.89 132.15C205.49 132.97 205.94 133.9 206.45 134.77C205.29 134.9 204.13 135.07 202.97 135.13C202.42 135.15 201.87 134.94 201.31 134.83C201.41 135.44 201.37 136.12 201.64 136.65C203.74 140.74 205.9 144.8 208.05 148.87L208.21 148.78C205.23 149.067 204.597 150.693 206.31 153.66C207.3 155.38 208.33 157.09 209.21 158.87C209.49 159.44 209.68 160.53 209.37 160.84C206.68 163.54 206.7 164.7 209.85 166.89C211.56 168.08 213.39 169.12 215.72 170.57C213.72 170.91 211.54 170.93 211.47 171.34C210.55 176.36 208.46 172.58 206.96 171.96C205.76 171.47 204.7 170.6 203.55 169.98C203.51 169.96 202.71 170.9 202.81 171.12C205.39 176.34 208.06 181.52 210.69 186.72C211.04 187.41 211.28 188.16 211.57 188.88C210.75 188.85 209.94 188.82 209.12 188.79C208.84 188.62 208.55 188.45 208.27 188.27C208.44 188.57 208.6 188.87 208.77 189.17C209.29 190 209.65 190.98 210.34 191.62C214.59 195.56 218.96 199.39 223.18 203.36C223.84 203.98 223.96 205.15 224.33 206.07C223.45 206.24 222.58 206.5 221.7 206.55C220.82 206.6 219.91 206.33 219.03 206.41C218.52 206.45 211.84 207.31 211.5 207.16C210.1 206.53 208.69 205.92 207.28 205.3C207.83 206.8 208.17 208.43 208.99 209.77C210.36 212.03 211.94 214.18 213.61 216.24C217.85 221.46 224.27 222.68 230.09 225C233.02 226.17 233 226.17 231.92 228.22C231.83 228.39 232.13 228.8 232.29 229.08C233.4 231.05 232.51 230.91 231.05 230.31C231 230.29 230.59 231.13 230.34 231.58C230.1 231.83 229.86 232.07 229.62 232.32C228.56 231.64 227.5 230.96 226.44 230.28L226.36 230.46L226.54 230.36C226.37 230.96 226.05 231.56 226.08 232.15C226.12 233.17 226.37 234.18 226.53 235.19C225.6 234.86 224.59 234.67 223.77 234.16C219.16 231.34 214.59 228.44 210.14 225.66C210.08 234.15 214.34 242.77 221.68 247.2C227.59 250.77 233.87 253.74 240.05 256.84C242.72 258.17 240 257.72 239.73 257.93C238.85 258.62 237.92 259.26 236.97 259.84C234.01 261.66 232.34 258.89 230.09 258C228.64 257.42 226.88 257.65 225.26 257.52C225.5 258.64 225.78 259.76 225.97 260.9C226.06 261.48 225.99 262.08 225.99 263.08C224.42 261.62 223.25 260.45 221.99 259.4C221.57 259.05 220.92 258.97 220.38 258.77C219.68 262.69 218.32 259.44 217.63 258.89C214.86 256.68 212.23 254.3 208.82 251.34C209.13 253.18 209.21 253.98 209.41 254.75C212.84 268.06 221.34 276.57 234.18 281.06C235.01 281.35 236.31 282.49 236.2 282.91C235.8 284.34 236.27 286.61 233.72 286.64C230.85 286.67 227.92 287.06 225.14 286.57C222.43 286.08 219.88 284.68 217.26 283.67C216.75 283.48 216.25 283.29 215.74 283.1C215.95 283.56 216.17 284.02 216.38 284.47C221.27 291.07 227.41 295.94 235.57 298.13C234.41 298.78 233.42 299.33 232.43 299.88C233.53 300.51 234.6 301.22 235.76 301.72C236.33 301.97 237.07 301.84 237.74 301.84C253.57 301.84 269.39 301.88 285.22 301.78C286.51 301.78 288.49 301.19 288.97 300.26C291.45 295.48 293.55 290.51 295.78 285.6C290.16 287.2 287.96 293.11 281.64 293.04C279.37 293.01 279.42 294.3 279.04 291.82C278.98 291.4 278.03 290.76 277.57 290.83C275.8 291.09 273.68 291.11 272.41 292.12C269.94 294.1 267.5 292.74 265.08 292.71C264.47 292.71 263.87 291.36 263.27 290.63C263.63 290.34 263.96 289.97 264.36 289.76C270.65 286.44 277.16 283.49 283.19 279.76C290.17 275.44 294.6 265.56 293.68 258.88C288.51 262.15 283.14 265.56 277.19 269.32C277.42 266.9 277.56 265.45 277.7 264C276.65 264.49 275.61 264.97 274.56 265.46C274.3 265.15 274.05 264.84 273.79 264.53C273.88 264.21 274.14 263.69 274.04 263.61C272.8 262.61 271.5 261.67 270.22 260.71C271.9 259.66 273.51 258.47 275.28 257.61C277.06 256.75 279.01 256.26 280.87 255.56C289.15 252.44 294.1 246.33 297.22 238.23C294.27 239.07 291.79 239.77 289.3 240.47L289.28 240.51C289.84 240.38 290.39 240.25 290.95 240.12C290.58 239.97 290.21 239.82 289.84 239.67C290.22 239.82 290.59 239.97 290.97 240.12C290.77 239.86 290.56 239.36 290.39 239.38C286.63 239.66 282.88 240.02 279.13 240.29C278.81 240.31 278.45 239.8 278.11 239.53L278.18 239.5C278.8 238.62 279.25 237.5 280.07 236.9C285.86 232.68 291.71 228.56 295.18 222C295.4 221.88 295.63 221.77 295.85 221.65C295.7 221.5 295.56 221.35 295.41 221.2C295.28 221.41 295.15 221.62 295.02 221.82C294.14 221.48 293.26 221.14 292.37 220.8C293.88 218.18 295.45 215.58 296.89 212.92C298.15 210.59 299.34 208.21 300.41 205.78C300.76 204.99 300.61 203.99 300.7 203.08C299.97 203.39 299.25 203.72 298.5 203.99C295.96 204.92 293.41 205.83 290.87 206.75L291.03 206.84C292.74 204.21 292.74 204.2 291.09 203.91C290.47 203.8 289.84 203.78 289.21 203.72C289.67 203.16 290.08 202.55 290.61 202.06C292.73 200.11 294.94 198.25 296.95 196.19C297.18 195.95 296.28 193.95 296.01 193.98C293.45 194.21 294.13 193.04 294.89 191.73C296.37 189.16 297.8 186.56 299.31 184.02C300.37 182.25 300.04 181.67 297.95 182.09C297.31 182.22 296.58 181.89 295.9 181.78L296.05 181.87C298.22 177.78 300.41 173.71 302.54 169.6C302.83 169.05 302.85 168.36 302.99 167.74C302.33 167.87 301.66 168.14 301 168.11C299.81 168.04 298.63 167.8 297.44 167.62C297.95 166.86 298.42 166.07 298.99 165.36C300.04 164.05 301.16 162.79 302.15 161.63H293.64L293.8 161.71C295.75 160.24 297.76 158.84 299.61 157.25C300.19 156.75 300.77 155.19 300.59 155.03C297.78 152.67 300.19 151.27 301.39 149.54C303.26 146.85 304.98 144.07 306.68 141.27C306.71 141.22 305.73 140.55 305.22 140.17L305.28 140.34C303.56 138.56 303.59 137.03 305.02 134.79C307.4 131.07 309.13 126.93 311.13 122.97C311.63 121.97 312.14 120.98 312.64 119.98C313.45 120.96 314.38 121.86 315.04 122.93C318.03 127.79 320.94 132.71 323.89 137.6L323.94 137.64C322.26 138.53 319.47 137.71 319.17 140.73C318.28 140.59 317.39 140.44 316.5 140.3C316.56 140.23 316.63 140.17 316.69 140.1C316.61 140.15 316.53 140.2 316.45 140.25C317.06 140.66 317.66 141.07 318.27 141.49C320.79 145.14 323.32 148.78 325.79 152.36C324.42 152.66 323.04 152.95 321.66 153.25C322.32 154.44 322.93 155.67 323.68 156.82C324.12 157.5 324.92 157.98 325.3 158.68C325.75 159.53 325.93 160.53 326.23 161.47C325.32 161.62 324.41 161.8 323.5 161.9C322.39 162.02 321.28 162.06 320.17 162.14C320.43 161.84 320.69 161.55 320.96 161.25C320.71 161.55 320.45 161.86 320.2 162.16C322.18 164.7 324.17 167.23 326.15 169.77C325.95 170.04 325.75 170.32 325.55 170.59C323.59 169.61 321.63 168.62 319.66 167.64C319.43 168 319.2 168.36 318.96 168.72C324.01 172.95 329.06 177.19 334.11 181.42C332.8 181.88 331.81 181.42 330.93 181.59C329.4 181.88 327.93 182.55 326.44 183.07C327.09 183.96 327.82 184.81 328.38 185.75C328.97 186.74 329.98 187.94 329.8 188.85C329.28 191.5 326.91 190.68 325.1 190.79C324.83 190.57 324.57 190.33 324.28 190.13C324.24 190.11 324.06 190.3 323.95 190.39C324.28 190.59 324.61 190.79 324.93 191C326.52 192.84 327.93 194.9 329.76 196.45C332.02 198.37 332.14 199.52 329.15 200.41C328.49 200.61 327.6 201.1 327.19 200.84C324.01 198.87 324.46 201.41 325.21 202.69C327.32 206.3 329.91 209.64 332.17 213.17C333.3 214.94 334.13 216.91 335.1 218.78C334.94 218.93 334.78 219.07 334.62 219.22C333.82 219.03 333.03 218.83 332.23 218.64C331.58 218.45 330.92 218.26 330.27 218.06L331.37 219.45C338.03 224.09 344.57 228.93 351.42 233.27C354.11 234.98 352.31 237.67 353.8 239.42C352.21 238.78 350.58 238.2 349.03 237.47C347.83 236.91 346.76 236.08 345.56 235.55C345.26 235.42 344.24 236.01 344.23 236.29C344.09 239.48 342.92 237.43 342.14 236.7C340.84 235.49 339.62 234.2 338.36 232.95C337.93 233.59 337.49 234.22 337.06 234.86C336.4 233.91 335.77 232.92 335.05 232.01C334.78 231.68 333.95 231.31 333.93 231.33C331.12 235.61 331.18 229.02 328.97 230.44C329.15 231.42 329.26 232.71 329.64 233.92C332.57 243.1 336.69 251.42 345.73 256.22C348.62 257.76 349.91 260.24 349.7 263.57C348.14 262.94 346.63 262.34 345.12 261.73C344.91 261.58 344.7 261.43 344.49 261.27C344.53 261.48 344.57 261.69 344.6 261.9C344.8 261.79 345 261.68 345.19 261.57C344.52 262.51 345.39 265.82 342.46 263.25C340.62 261.63 338.59 260.22 335.82 258.08C336.68 265.79 338.23 272.02 344.1 276.25C348.41 279.36 352.75 282.45 357.3 285.18C358.98 286.18 361.47 286.85 363.29 286.42C372.45 284.24 381.53 281.71 390.61 279.17C396.36 277.56 401.95 274.78 407.78 274.21C419.49 273.05 430.48 269.54 441.68 266.4C449.92 264.09 458.55 263.18 467.03 261.75C468.11 261.57 469.35 261.92 470.45 262.26C474.03 263.38 476.56 262.94 477.52 258.65C479.62 249.27 486.61 246.56 495.17 245.84C502.63 245.21 510.09 244.44 517.48 243.28C524.37 242.2 531.08 241.83 537.15 245.84C542.99 249.7 547.61 248.72 551.76 243.24C553.14 241.42 555.21 240.13 556.88 238.51C557.57 237.84 558.73 236.63 558.53 236.23C556.84 232.81 559.87 231.01 561.03 228.66C562.34 225.99 564.16 223.57 565.62 220.97C565.87 220.52 565.45 219.69 565.34 219.04C560.4 221.53 563.79 217.19 563.33 216.3C562.71 215.08 563.67 212.72 562.88 211.99C558.49 207.92 562.48 205.53 564.52 202.92C566.87 199.91 569.88 197.38 571.96 194.22C572.98 192.67 572.54 190.16 572.77 188.09C571.38 188.76 569.96 189.39 568.6 190.11C567.87 190.5 567.23 191.05 566.55 191.52C566.29 191.21 566.04 190.9 565.78 190.6C567.74 187.57 570.14 184.73 571.54 181.47C573.18 177.64 574.02 173.45 575.07 169.38C575.45 167.91 575.47 166.35 575.65 164.84C574.44 165.63 573.24 166.43 572.02 167.2C571.47 167.55 570.89 167.85 570.33 168.18C570.01 167.87 569.69 167.55 569.37 167.24C570.63 165.49 572.16 163.87 573.08 161.96C573.95 160.15 575.21 157.54 574.52 156.15C572.5 152.06 574.01 149.01 575.77 145.51C576.74 143.58 576.9 141.04 576.69 138.84C576.63 138.23 573.96 137.87 572.29 137.33C574.73 135.17 577 133.26 579.14 131.2C579.59 130.77 579.51 129.79 579.67 129.06C578.89 129.09 578.1 129.13 577.32 129.16C577.02 128.89 576.72 128.63 576.43 128.36C577.18 127.26 577.85 126.1 578.69 125.08C582.64 120.21 585.13 114.94 585.44 108.41C585.78 101.41 587.19 94.46 588.17 87.21C591.39 90.44 590.21 93.73 589.87 97.22C588.92 107.2 590.33 116.72 597.59 124.48C598.26 125.2 598.76 126.1 599.2 126.99C599.44 127.47 599.6 128.52 599.44 128.6C593.93 131.35 598.97 133.29 600.15 135.07C602.31 138.33 602.51 138.17 601.28 141.1C601.14 141.43 601.33 142.07 601.59 142.37C606.33 147.94 607.68 156.88 616.99 157.94C617.1 157.95 617.16 158.34 617.26 158.58C616.26 158.9 615.3 159.19 614.37 159.52C612.99 160.01 611.63 160.53 610.26 161.03C611.57 161.83 612.89 162.62 614.17 163.46C614.39 163.61 614.43 164.02 614.55 164.31C611.383 165.237 610.993 166.867 613.38 169.2C615.04 170.83 616.77 172.39 618.38 174.07C619.01 174.73 619.4 175.62 619.89 176.4C618.99 176.31 618.1 176.22 617.2 176.13C616.57 176.07 615.94 176 614.57 175.86C616.55 177.68 618.1 178.92 619.42 180.37C620.58 181.64 624.68 183.7 618.82 183.96C618.4 183.98 618.01 184.62 617.6 184.97C620.42 187.36 618.37 192.12 622.19 194.21C623.05 194.68 626.54 195.02 624.08 197.76C623.16 197.54 622.24 197.32 621.32 197.1C622.01 197.57 622.7 198.05 623.4 198.52C624.09 198.97 624.81 199.39 625.47 199.88C627.23 201.19 628.96 202.53 630.71 203.85C628.24 205 625.79 206.18 623.29 207.26C622.8 207.47 622.13 207.29 620.72 207.29C623.41 209.66 625.52 211.52 627.82 213.54C626.38 213.74 625.31 213.89 624.35 214.03C627.41 216.87 630.39 219.64 633.38 222.41C633.24 222.57 633.1 222.73 632.95 222.88C632.3 222.79 631.52 222.89 631.01 222.58C628.29 220.88 625.6 221.83 624.71 224.16C624.12 225.7 625.67 228.3 626.73 230.15C627.42 231.37 628.95 232.1 630.1 233.06C633.04 235.51 636.07 237.87 638.86 240.48C639.8 241.36 640.11 242.92 640.71 244.17C639.52 244.01 638.24 244.08 637.16 243.64C634.4 242.52 631.72 241.19 629.02 239.91C627.16 239.03 626.37 239.72 627.19 241.49C628.56 244.44 629.73 247.75 631.92 250C636.63 254.84 641.94 259.11 646.89 263.52C646.04 263.64 644.96 263.78 643.19 264.03C648.32 266.88 652.52 270.02 658.13 269.15C658.87 269.04 659.67 269.37 660.45 269.5C659.96 270.27 659.59 271.57 658.95 271.71C654.87 272.66 650.72 273.32 646.6 274.15C645.71 274.33 644.18 274.77 644.15 275.19C643.92 278.25 647.41 281.85 650.47 281.78C655.13 281.67 659.79 281.48 664.44 281.2C678.87 280.32 693.02 276.16 707.64 277.52C713.98 278.11 719.83 277.01 725.14 273.28C726.47 272.35 728.11 271.67 729.7 271.34C739.91 269.24 750.14 267.28 760.36 265.26C761.17 265.1 762.1 265.02 762.72 264.56C770.59 258.8 779.96 257.49 789.14 255.67C793.21 254.86 797.56 254.95 801.41 253.59C807.85 251.32 814.26 250.69 820.98 251.44C830.8 252.54 840.1 251.03 848.85 246.03C855.91 241.99 863.3 238.53 870.54 234.79C871.57 234.26 872.59 233.7 873.52 233.02C873.82 232.8 873.79 232.13 873.91 231.66C873.4 231.57 872.78 231.25 872.39 231.43C869.68 232.69 867.04 234.11 864.32 235.36C863.5 235.74 861.73 235.92 861.72 235.88C860.77 231.91 857.63 235.86 855.92 234.14C859.02 230.24 862.15 226.3 865.27 222.37C865.11 222.17 864.95 221.96 864.8 221.76C860.62 223.03 856.44 224.3 851.41 225.83C853.35 222.92 854.7 220.9 856.05 218.88C856.31 218.61 856.57 218.34 856.83 218.08C856.38 218.13 855.92 218.18 855.47 218.23C854.48 218.68 853.48 219.13 852.49 219.58C852.32 219.29 852.13 219.02 851.92 218.77C851.34 218.04 855.1 215.15 850.68 216.31C849.62 216.59 848.51 216.67 846.62 216.97C849.787 214.003 850.05 212.07 847.41 211.17C855.52 208.79 861.83 204.16 866.64 197.48C866.97 197 867.31 196.52 867.64 196.04C867.05 196.27 866.46 196.49 865.87 196.72C862.99 197.75 860.15 198.93 857.2 199.73C855.95 200.07 854.47 199.59 853.1 199.48L853.19 199.45C853.22 199.29 853.25 199.12 853.28 198.96C852.99 198.96 852.62 198.83 852.41 198.96C850.36 200.32 848.08 199.9 847.09 198.15C845.83 195.9 847.25 194.52 849.79 193.58C853.35 192.26 856.8 190.47 859.99 188.41C868.37 182.99 871.67 174.49 874.39 164.65C869 167.5 866.77 173.02 860.56 173.04C858.23 173.04 858.3 174.32 857.94 171.85C857.88 171.43 856.94 170.77 856.49 170.84C854.72 171.1 852.59 171.11 851.32 172.12C848.85 174.11 846.41 172.74 843.99 172.72C843.38 172.72 842.77 171.39 842.22 170.62C842.2 170.59 842.84 169.99 843.24 169.77C849.53 166.45 856.04 163.5 862.07 159.77C869.05 155.45 873.48 145.58 872.58 138.89C867.41 142.16 862.04 145.57 856.09 149.34C856.32 146.92 856.46 145.47 856.6 144.02C855.55 144.51 854.5 144.99 853.46 145.48C853.2 145.17 852.95 144.86 852.69 144.55C852.78 144.23 853.04 143.71 852.94 143.63C851.7 142.63 850.4 141.69 849.12 140.73C850.8 139.68 852.41 138.49 854.18 137.63C855.96 136.77 857.91 136.28 859.77 135.58C868.05 132.46 873 126.35 876.12 118.25C873.17 119.09 870.69 119.79 868.2 120.49L868.18 120.53C868.74 120.4 869.29 120.27 869.85 120.14C869.48 119.99 869.11 119.84 868.74 119.69C869.12 119.84 869.49 119.99 869.87 120.14C869.67 119.88 869.46 119.38 869.29 119.4C865.53 119.68 861.78 120.04 858.03 120.31C857.71 120.33 857.35 119.82 857.01 119.55L857.08 119.52C857.7 118.64 858.15 117.52 858.97 116.92C864.76 112.71 870.61 108.58 874.08 102.02C874.3 101.9 874.53 101.79 874.75 101.67C874.6 101.52 874.46 101.37 874.31 101.22C874.18 101.43 874.05 101.64 873.92 101.84C873.04 101.5 872.16 101.16 871.27 100.82C872.78 98.2 874.35 95.6 875.79 92.94C877.05 90.61 878.24 88.23 879.31 85.8C879.66 85.01 879.51 84.01 879.6 83.1C878.87 83.41 878.15 83.74 877.4 84.01C874.86 84.94 872.31 85.85 869.77 86.77L869.93 86.86C870.28 85.89 871.1 84.18 870.9 84.05C868.64 82.58 868.63 82.69 871.18 81.02C872.54 80.13 874.22 79.3 874.95 78C875.56 76.91 879.05 74.04 873.94 73.92C873.87 73.92 873.55 72.36 873.84 71.79C875.2 69.16 876.7 66.59 878.21 64.04C879.26 62.27 878.96 61.68 876.86 62.11C876.22 62.24 875.49 61.91 874.8 61.8L874.95 61.89C877.12 57.8 879.31 53.73 881.44 49.62C881.73 49.07 881.75 48.38 881.89 47.76C881.23 47.89 880.56 48.16 879.9 48.13C878.71 48.06 877.53 47.82 876.34 47.64C876.85 46.88 877.32 46.09 877.89 45.38C878.94 44.07 880.06 42.81 881.05 41.65H872.54L872.7 41.73C874.65 40.26 876.66 38.86 878.51 37.27C879.09 36.77 879.67 35.21 879.49 35.05C876.68 32.69 879.09 31.29 880.29 29.56C882.16 26.87 883.88 24.09 885.58 21.29C885.61 21.24 884.63 20.57 884.12 20.19L884.18 20.36C882.46 18.58 882.49 17.05 883.92 14.81C886.3 11.09 888.03 6.95 890.03 2.99C890.53 1.99 891.04 1 891.54 0C892.35 0.98 893.28 1.88 893.94 2.95C896.93 7.81 899.84 12.73 902.79 17.62L902.84 17.66C901.16 18.55 898.37 17.73 898.07 20.75C897.18 20.61 896.29 20.46 895.4 20.32C895.46 20.25 895.53 20.19 895.59 20.12C895.51 20.17 895.43 20.22 895.35 20.27C895.95 20.68 896.56 21.09 897.16 21.5C899.68 25.15 902.21 28.8 904.68 32.37C903.31 32.66 901.93 32.96 900.56 33.26C901.22 34.45 901.83 35.68 902.57 36.83C903.01 37.51 903.81 37.99 904.19 38.69C904.64 39.54 904.82 40.54 905.12 41.48C904.21 41.63 903.3 41.81 902.39 41.91C901.28 42.03 900.17 42.07 899.06 42.15C899.32 41.85 899.58 41.56 899.85 41.26C899.6 41.56 899.34 41.87 899.09 42.17C901.07 44.71 903.06 47.24 905.04 49.78C904.84 50.05 904.64 50.33 904.44 50.6C902.48 49.62 900.52 48.63 898.55 47.65C898.32 48.01 898.09 48.37 897.85 48.73C902.9 52.96 907.95 57.2 913 61.43C911.71 61.89 910.7 61.43 909.82 61.6C908.28 61.89 906.82 62.56 905.33 63.07C905.98 63.96 906.71 64.81 907.27 65.75C907.86 66.74 908.87 67.94 908.69 68.85C908.17 71.5 905.81 70.68 903.99 70.79C903.72 70.57 903.46 70.33 903.16 70.13C903.12 70.11 902.94 70.3 902.83 70.39C903.16 70.59 903.49 70.79 903.81 71C905.4 72.84 906.81 74.89 908.64 76.45C910.9 78.37 911.02 79.52 908.03 80.41C907.37 80.61 906.48 81.1 906.07 80.84C902.89 78.87 903.34 81.41 904.09 82.69C906.2 86.3 908.79 89.64 911.05 93.17C912.18 94.94 913.01 96.91 913.98 98.78C913.82 98.93 913.66 99.07 913.5 99.22C912.7 99.03 911.91 98.83 911.11 98.64C910.46 98.45 909.8 98.26 909.15 98.06C909.52 98.52 909.88 98.99 910.25 99.45C916.91 104.09 923.44 108.92 930.29 113.26C932.98 114.96 931.16 117.68 932.69 119.41C931.1 118.77 929.48 118.2 927.92 117.48C926.87 117 925.94 116.26 924.91 115.74C924.39 115.48 923.6 115.14 923.22 115.35C921.03 116.56 921.11 116.57 919.37 114.86C918.67 114.18 917.7 113.77 916.85 113.24C916.95 116.81 916.07 114.62 914.98 113.67C914.22 113.02 913.71 108.67 911.82 113.03C911.38 112.79 910.86 112.63 910.53 112.3C909.76 111.53 909.08 110.67 908.37 109.85C908 111.42 908.12 112.72 908.5 113.94C911.42 123.12 915.56 131.43 924.58 136.22C927.47 137.76 928.76 140.24 928.54 143.56C926.98 142.93 925.47 142.33 923.96 141.72C923.75 141.57 923.54 141.41 923.33 141.26C923.37 141.47 923.41 141.68 923.44 141.89C923.64 141.78 923.84 141.67 924.03 141.56C923.35 142.46 924.24 145.83 921.33 143.25C919.97 142.04 918.5 140.96 917.04 139.87C916.54 139.5 915.92 139.28 915.35 138.99C915.22 139.73 914.9 140.49 915 141.19C915.92 147.64 918.79 152.74 923.86 157.18C929.54 162.16 937.39 164.01 941.79 171.09C943.3 173.52 941.26 174.39 942 175.83C940.81 175.7 939.57 175.71 938.44 175.39C937.18 175.03 936.02 174.35 934.81 173.81C934.61 174.37 934.41 174.92 934.21 175.48C933.94 175.83 933.67 176.18 933.4 176.53C930.73 174.84 928.12 173.06 925.37 171.53C924.5 171.05 922.76 170.74 922.26 171.23C919.6 173.78 919.7 173.87 917.34 171.21C915.42 169.06 913.48 166.94 911.16 164.36C910.39 176.85 912.53 180.74 922.54 185.94C926.57 188.03 930.64 190.07 934.69 192.13C934.59 192.56 934.48 192.99 934.38 193.42C932.36 193.06 930.35 192.7 928.33 192.35C927.84 192.29 927.35 192.24 926.85 192.18C927.13 192.45 927.42 192.71 927.7 192.98C928.56 194.12 929.42 195.26 930.28 196.4C928.06 195.98 926.33 194.86 924.57 193.81C923.53 193.19 922.43 192.66 921.35 192.09C921.54 193.23 921.73 194.37 921.98 195.89C918.54 193.29 918.57 193.32 915.86 195.1C915.52 195.33 914.64 195.08 914.21 194.78C912.99 193.92 911.93 192.83 910.68 192.02C910.15 191.67 909.31 191.79 908.62 191.69C908.7 192.51 908.47 193.71 908.93 194.08C910.97 195.78 913.19 197.25 915.37 198.78C917.27 200.11 917.22 200.05 915.72 201.79C915.43 202.12 915.7 203.14 915.97 203.72C918.03 208.18 922.44 209.65 926.27 211.92C927.44 212.61 929.12 214.53 928.85 215.2C927.59 218.36 926.22 214.64 924.79 214.97C924.52 215.03 924.29 215.27 924 215.45C926.53 222.38 933.98 220.16 938.53 223.52C931.17 227.29 924.74 223.9 918 220.33C918.51 224.98 921.31 227.29 924.61 229.37C925.56 229.97 926.06 231.29 926.76 232.28C925.69 232.26 924.61 232.31 923.55 232.21C922.14 232.08 920.75 231.83 918.15 231.46C921.49 234.76 923.82 236.92 927.73 237.12C932.54 237.37 937.3 238.31 942.1 238.83C943.39 238.97 945.06 239.2 946 238.56C954.45 232.85 965 230 971.03 221C973.39 217.48 974.87 213.37 976.87 209.59C978.41 206.69 978.25 205.94 974.46 205.97C970.54 206 966.59 204.48 962.69 203.47C962.13 203.32 961.8 202.25 961.37 201.61C962.11 201.43 962.87 201.03 963.59 201.11C967.95 201.6 971.8 200.34 975.34 197.91C976.2 197.32 976.99 196.61 977.82 195.96C976.79 195.77 975.76 195.59 974.93 195.44C979.87 191.1 985.07 186.96 989.7 182.27C991.91 180.03 993.11 176.76 994.62 173.88C994.93 173.29 994.6 172.36 994.56 171.59C993.93 171.73 993.25 171.76 992.67 172.01C989.63 173.36 986.63 174.8 983.58 176.11C982.93 176.39 982.11 176.28 981.37 176.35C981.47 175.43 981.32 174.37 981.74 173.63C982.2 172.81 983.18 172.29 983.94 171.65C987.9 168.34 992.06 165.25 995.7 161.62C996.92 160.4 997.72 157.34 997.02 156.02C996.37 154.79 993.49 154.59 991.54 154.27C990.53 154.11 989.4 154.67 988.33 154.91C988.18 154.65 988.03 154.38 987.88 154.12C991.19 151.46 994.5 148.8 997.99 146C996.69 145.84 995.56 145.7 994.05 145.52C996.44 143.44 998.62 141.54 1001.05 139.42C999.01 139.2 997.43 139.34 996.14 138.8C994.37 138.06 992.82 136.8 991.17 135.76C992.53 134.72 993.83 133.57 995.27 132.66C998.04 130.9 998.04 130.96 997.25 128.65C997.15 128.36 997.46 127.65 997.72 127.56C1002.19 126.04 1001.54 121.27 1003.68 118.29C1005.1 116.31 1004.17 115.76 1002.21 115.8C999.78 115.85 999.55 115.02 1001.27 113.43C1003.08 111.75 1004.9 110.07 1007.29 107.85C1005.79 107.85 1005.31 107.85 1004.82 107.85C1003.99 107.87 1003.16 107.89 1002.33 107.92C1002.78 107.23 1003.14 106.43 1003.71 105.86C1005.7 103.85 1007.74 101.88 1009.81 99.95C1011.24 98.63 1012.53 97.46 1009.32 96.88C1008.67 96.76 1008.1 96.28 1007.49 95.96C1007.99 95.56 1008.45 95.1 1009 94.78C1009.9 94.24 1010.86 93.78 1012.4 92.96C1009.31 91.97 1006.91 91.21 1003.76 90.2C1006.56 89.28 1008.59 88.61 1010.63 87.94C1011.39 87.69 1012.52 87.65 1012.84 87.12C1015.41 82.93 1017.85 78.66 1020.27 74.37C1020.51 73.94 1020.36 72.78 1020.34 72.77C1014.61 72.39 1019.64 70.1 1020 69.48C1021.15 67.49 1022.87 65.84 1024.25 63.97C1024.63 63.46 1024.78 62.06 1024.66 62.01C1019.86 60.1 1023.28 57.66 1024.62 56.17C1031.62 48.38 1033.49 38.95 1031.81 29.3C1031.1 25.2 1031.55 22.46 1033.49 18.87C1037.11 33.53 1033.52 49.78 1047.23 61.42C1044.63 61.42 1043.31 61.42 1041.99 61.42C1042.84 62.59 1043.56 63.9 1044.58 64.91C1046.18 66.49 1047.98 67.86 1050.01 69.58C1045.03 69.94 1043.94 71.43 1045.13 75.65C1045.4 76.59 1045.86 77.54 1046.45 78.33C1048.62 81.22 1049.05 84.12 1047.51 87.56C1046.41 90.01 1050.12 97.89 1052.39 98.6C1052.85 98.75 1053.69 98.43 1054.06 98.05C1057.28 94.76 1060.66 91.58 1063.51 87.99C1064.87 86.28 1065.25 83.78 1065.93 81.59C1066.03 81.27 1065.29 80.69 1064.93 80.23C1062.99 82.89 1061.64 79.48 1059.88 79.73C1057.97 80.01 1057.88 79.5 1059.35 78.25C1062.13 75.89 1064.78 73.37 1067.31 71.07C1065.05 70.4 1062.87 70.4 1061.78 69.31C1059.24 66.78 1062.78 65.93 1063.78 64.52C1065.47 62.15 1065.77 61.85 1062.53 62.75C1060.97 63.18 1058.88 61.75 1056.84 61.1C1060.08 58.54 1063.45 56.11 1066.54 53.36C1068.13 51.94 1069.23 49.97 1070.55 48.25C1068.82 49.02 1067.1 49.8 1065.37 50.57C1065.2 50.28 1065.01 50.01 1064.8 49.76C1066.78 47.2 1068.75 44.65 1070.73 42.09C1070.52 41.87 1070.32 41.64 1070.1 41.44C1070.06 41.41 1069.94 41.47 1069.85 41.49C1070.15 41.69 1070.44 41.9 1070.74 42.1C1068.69 41.77 1066.64 41.44 1064.6 41.1C1065.88 39.19 1067.03 37.17 1068.47 35.39C1071.31 31.86 1068.91 32.15 1066.41 32.4C1066.24 32.18 1066.05 31.98 1065.84 31.79C1068.21 28.15 1070.57 24.52 1072.94 20.88C1073.45 20.66 1073.95 20.43 1074.46 20.21C1074.44 20.13 1074.41 20.05 1074.39 19.97C1074.39 20.07 1074.41 20.16 1074.42 20.26C1073.75 20.19 1073.08 20.12 1072.41 20.06C1071.63 19.33 1070.77 17.9 1070.1 17.98C1066.36 18.46 1068.14 16.68 1068.87 15.31C1071.57 10.25 1074.29 5.2 1077 0.15C1077.7 0.56 1078.71 0.8 1079.04 1.41C1081.62 6.21 1084.22 11.03 1086.45 16C1086.93 17.07 1085.97 18.79 1085.67 20.21L1085.75 20.04C1085.33 20.59 1084.43 21.46 1084.56 21.65C1086.81 25.1 1089.18 28.46 1091.54 31.83C1091.9 32.35 1092.35 32.8 1092.76 33.29C1092.47 33.41 1092.17 33.52 1091.89 33.65C1088.28 35.29 1090.72 36.74 1092.13 38C1093.56 39.27 1095.21 40.3 1096.77 41.43C1096.69 41.68 1096.6 41.92 1096.52 42.17C1094.01 41.75 1091.51 41.33 1088.08 40.75C1089.77 42.72 1090.97 44.04 1092.06 45.44C1092.58 46.11 1092.89 46.94 1093.29 47.69C1092.26 47.91 1091.25 48.26 1090.21 48.31C1089.53 48.34 1088.84 47.95 1088.15 47.74C1088.32 48.5 1088.33 49.34 1088.68 50.01C1090.71 53.95 1092.81 57.86 1094.89 61.78L1095.05 61.69C1092.07 61.9767 1091.43 63.6033 1093.14 66.57C1094.13 68.29 1095.16 70 1096.04 71.78C1096.32 72.35 1096.52 73.44 1096.21 73.75C1093.38 76.59 1093.38 77.5 1096.68 79.8C1098.39 80.99 1100.22 82.03 1102.55 83.48C1100.55 83.82 1098.38 83.84 1098.3 84.24C1097.38 89.26 1095.29 85.49 1093.79 84.87C1092.59 84.37 1091.54 83.51 1090.38 82.88C1090.34 82.86 1089.53 83.8 1089.64 84.02C1092.22 89.24 1094.89 94.42 1097.52 99.62C1097.87 100.31 1098.11 101.06 1098.4 101.78C1097.58 101.75 1096.77 101.72 1095.95 101.69C1095.66 101.52 1095.38 101.35 1095.09 101.17C1095.26 101.47 1095.42 101.77 1095.59 102.07C1100.12 106.59 1104.68 111.08 1109.15 115.66C1110.03 116.56 1110.53 117.83 1111.2 118.93C1110.03 118.99 1108.86 119.07 1107.68 119.09C1107.2 119.09 1106.67 118.76 1106.25 118.88C1101.88 120.14 1098.42 120.03 1095.87 118.55C1095.38 118.27 1094.87 118.02 1093.53 117.31C1097.24 127.8 1103.66 133.98 1113.47 136.58C1114.78 136.93 1117.12 137.41 1117.39 136.93C1118.2 135.5 1119.02 133.18 1118.38 132C1116.18 127.96 1117.9 124.88 1119.62 121.39C1120.58 119.45 1120.74 116.92 1120.53 114.72C1120.47 114.11 1117.8 113.76 1116.14 113.23C1118.58 111.07 1120.86 109.16 1122.98 107.1C1123.43 106.67 1123.34 105.69 1123.5 104.96C1122.72 104.99 1121.93 105.03 1121.15 105.06C1120.85 104.79 1120.55 104.53 1120.26 104.26C1121.01 103.16 1121.68 102 1122.52 100.98C1126.47 96.11 1128.96 90.84 1129.27 84.31C1129.61 77.31 1131.02 70.36 1132 63.11C1135.22 66.34 1134.03 69.62 1133.7 73.12C1132.75 83.1 1134.17 92.62 1141.43 100.38C1142.1 101.1 1142.6 102 1143.04 102.89C1143.28 103.37 1143.44 104.42 1143.28 104.5C1137.77 107.25 1142.81 109.19 1143.99 110.97C1146.15 114.23 1146.35 114.06 1145.12 117C1144.98 117.33 1145.17 117.97 1145.43 118.27C1150.17 123.84 1151.52 132.78 1160.83 133.84C1160.94 133.85 1161 134.24 1161.1 134.48C1160.1 134.8 1159.14 135.09 1158.21 135.42C1156.83 135.91 1155.47 136.43 1154.1 136.93C1155.41 137.73 1156.73 138.52 1158.01 139.36C1158.23 139.51 1158.27 139.92 1158.39 140.21C1155.22 141.137 1154.83 142.767 1157.22 145.1C1158.88 146.73 1160.61 148.29 1162.22 149.97C1162.85 150.63 1163.24 151.52 1163.73 152.3C1162.83 152.21 1161.94 152.12 1161.04 152.03C1160.41 151.97 1159.78 151.9 1158.41 151.76C1160.39 153.58 1161.94 154.82 1163.26 156.27C1164.42 157.54 1168.52 159.6 1162.66 159.86C1162.24 159.88 1161.85 160.52 1161.44 160.87C1164.26 163.26 1162.24 167.97 1166.05 170.06C1168.39 171.34 1168.2 171.68 1167.91 173.66C1166.99 173.44 1166.07 173.22 1165.15 173C1165.84 173.47 1166.53 173.95 1167.22 174.42C1168.06 174.95 1168.94 175.43 1169.73 176.02C1171.35 177.23 1172.93 178.51 1174.53 179.76C1172.23 180.9 1169.96 182.1 1167.61 183.13C1166.98 183.41 1166.13 183.17 1164.42 183.17C1166.42 184.85 1167.79 185.95 1169.08 187.12C1169.87 187.84 1170.55 188.69 1171.27 189.48C1170.2 189.64 1169.13 189.8 1168.25 189.93C1171.22 192.76 1174.16 195.55 1177.1 198.35L1176.83 198.73C1176.18 198.66 1175.4 198.8 1174.9 198.49C1172.2 196.82 1169.49 197.68 1168.57 200.01C1167.96 201.54 1169.41 204.21 1170.53 206C1171.45 207.47 1173.24 208.41 1174.65 209.57C1177.59 212.01 1180.62 214.37 1183.43 216.95C1184.15 217.61 1184.21 218.97 1184.58 220.02C1183.56 219.93 1182.44 220.08 1181.53 219.71C1178.61 218.52 1175.77 217.16 1172.91 215.83C1171.23 215.05 1170.14 215.36 1171.01 217.31C1172.34 220.28 1173.52 223.59 1175.7 225.84C1180.4 230.68 1185.69 234.94 1190.66 239.35C1189.85 239.48 1188.85 239.65 1187.84 239.81C1197.77 242.95 1207.68 245.5 1217.62 247.87C1218.94 248.18 1220.5 247.77 1221.88 247.43C1225.23 246.6 1228.51 245.38 1231.89 244.74C1241.69 242.88 1251.74 242 1261.28 239.31C1272.91 236.03 1284.14 231.31 1295.54 227.18C1296.69 226.76 1297.77 226.17 1298.88 225.66C1297.18 225 1295.69 225.45 1294.31 225.22C1290.94 224.66 1287.58 223.93 1284.31 222.96C1283.48 222.71 1283 221.31 1282.36 220.44C1283.29 220.3 1284.25 219.93 1285.15 220.04C1290.62 220.71 1294.67 217.86 1299.82 214.7C1297.73 214.57 1296.77 214.52 1295.81 214.46C1296.38 213.81 1296.89 213.08 1297.54 212.52C1302.07 208.62 1306.9 205.02 1311.05 200.75C1313.23 198.51 1314.25 195.13 1315.65 192.19C1315.73 192.03 1314.33 190.72 1313.98 190.86C1310.89 192.09 1307.91 193.57 1304.85 194.86C1304.07 195.19 1303.1 195.09 1302.22 195.19C1302.48 194.15 1302.57 193.02 1303.06 192.1C1303.42 191.43 1304.31 191.04 1304.95 190.51C1308.65 187.41 1312.56 184.52 1315.94 181.11C1317.34 179.69 1318.71 176.77 1318.15 175.23C1317.35 173 1314.77 171.68 1311.91 173.36C1311.2 173.78 1310.12 173.58 1309.21 173.66C1309.09 173.43 1308.97 173.2 1308.86 172.98C1312.15 170.35 1315.43 167.72 1318.99 164.88C1317.56 164.73 1316.46 164.61 1314.91 164.45C1315.95 163.54 1316.71 162.92 1317.41 162.24C1318.55 161.14 1319.65 160 1320.77 158.87C1319.36 158.48 1317.86 158.28 1316.58 157.64C1314.99 156.85 1313.59 155.69 1312.11 154.7C1313.32 153.72 1314.46 152.64 1315.75 151.79C1317.77 150.46 1317.8 150.52 1318.08 147.25C1318.1 146.97 1318.4 146.58 1318.66 146.49C1323.31 144.9 1322.53 139.85 1324.79 136.74C1324.97 136.49 1324.21 135.25 1323.63 134.83C1322.95 134.34 1321.99 134.24 1321.14 133.98C1321.75 133.22 1322.28 132.39 1322.97 131.72C1324.5 130.21 1326.09 128.78 1328.24 126.78C1326.75 126.78 1326.26 126.78 1325.78 126.78C1324.95 126.8 1324.12 126.83 1323.29 126.85C1323.74 126.16 1324.09 125.36 1324.66 124.79C1326.65 122.78 1328.69 120.82 1330.76 118.88C1332.16 117.58 1333.53 116.41 1330.29 115.81C1329.64 115.69 1329.06 115.21 1328.44 114.9C1328.94 114.5 1329.4 114.04 1329.94 113.71C1330.85 113.17 1331.81 112.71 1333.36 111.89C1330.26 110.9 1327.86 110.14 1324.71 109.14C1327.5 108.22 1329.53 107.55 1331.57 106.88C1332.33 106.63 1333.47 106.6 1333.79 106.07C1336.36 101.88 1338.8 97.6 1341.21 93.32C1341.46 92.88 1341.31 91.72 1341.3 91.72C1335.61 91.38 1340.55 89.08 1340.93 88.43C1342.08 86.44 1343.8 84.79 1345.18 82.92C1345.56 82.4 1345.75 81.02 1345.61 80.96C1340.54 78.72 1344.55 76.13 1345.83 74.73C1352.97 66.9 1354.25 57.3 1352.72 47.77C1352.08 43.77 1352.86 41.3 1354.35 37.52C1358.05 52.46 1354.46 68.72 1368.12 80.33C1365.57 80.33 1364.24 80.33 1362.91 80.33C1363.76 81.51 1364.46 82.82 1365.48 83.83C1367.08 85.41 1368.89 86.78 1371.77 89.21C1366.02 87.7 1364.77 90.42 1366.04 93.51C1368.2 98.73 1370.08 103.57 1368.18 109.44C1367.79 110.63 1371.1 114.58 1372.59 114.52C1376.14 114.37 1383.21 103.73 1382.93 100.23C1382.9 99.83 1382.34 99.47 1382.02 99.1C1379.41 101.92 1377.6 97.48 1375.16 98.75L1374.47 97.63C1377.57 94.83 1380.68 92.03 1383.85 89.16C1381.9 88.72 1379.25 91.66 1378.53 88.13C1378.26 86.79 1379.78 85.08 1380.54 83.56C1380.76 83.13 1381.38 82.84 1381.45 82.42C1381.52 82.01 1381.17 81.15 1380.94 81.13C1378.6 80.89 1376.25 80.79 1373.1 80.59C1376.88 77.6 1380.32 75.11 1383.48 72.3C1385.07 70.89 1386.17 68.91 1387.49 67.19C1385.76 67.96 1384.04 68.74 1382.31 69.51C1382.14 69.22 1381.95 68.95 1381.74 68.7C1383.72 66.14 1385.69 63.59 1387.67 61.03C1387.46 60.81 1387.26 60.58 1387.04 60.37C1387 60.34 1386.88 60.4 1386.79 60.43C1387.09 60.63 1387.39 60.84 1387.68 61.04C1385.63 60.71 1383.58 60.38 1381.54 60.05C1382.82 58.14 1383.97 56.12 1385.41 54.34C1388.26 50.8 1385.85 51.1 1383.35 51.35C1383.17 51.13 1382.98 50.93 1382.78 50.75C1385.15 47.11 1387.51 43.48 1389.88 39.84C1390.39 39.62 1390.89 39.39 1391.4 39.17C1391.37 39.09 1391.34 39.01 1391.31 38.93C1391.32 39.03 1391.34 39.12 1391.35 39.22C1390.68 39.15 1390.01 39.08 1389.34 39.02C1388.55 38.29 1387.71 36.88 1386.99 36.94C1383.3 37.27 1385.13 35.49 1385.84 34.22C1388.26 29.88 1390.71 25.55 1393.2 21.25C1393.67 20.43 1394.35 19.74 1394.94 18.99C1395.46 19.75 1396.06 20.46 1396.47 21.27C1398.73 25.68 1400.75 30.23 1403.26 34.49C1404.48 36.56 1403.91 37.77 1402.6 39.18L1402.68 39.01C1402.26 39.56 1401.36 40.43 1401.49 40.62C1403.74 44.07 1406.11 47.43 1408.47 50.8C1408.83 51.32 1409.28 51.77 1409.69 52.26C1409.4 52.38 1409.1 52.49 1408.82 52.62C1405.21 54.26 1407.65 55.71 1409.06 56.97C1410.49 58.24 1412.14 59.27 1413.7 60.4C1413.61 60.65 1413.53 60.89 1413.44 61.14C1410.94 60.72 1408.43 60.3 1405.01 59.72C1406.71 61.7 1407.91 63.01 1408.99 64.41C1409.51 65.08 1409.82 65.91 1410.22 66.66C1409.19 66.88 1408.18 67.23 1407.14 67.28C1406.46 67.31 1405.77 66.92 1405.08 66.71C1405.25 67.47 1405.26 68.31 1405.61 68.98C1407.64 72.92 1409.74 76.83 1411.82 80.75L1411.98 80.66C1409 80.9467 1408.36 82.5733 1410.07 85.54C1411.06 87.26 1412.09 88.97 1412.97 90.75C1413.25 91.32 1413.45 92.41 1413.14 92.72C1410.31 95.56 1410.31 96.47 1413.61 98.77C1415.32 99.96 1417.15 101 1419.48 102.45C1417.48 102.79 1415.31 102.81 1415.23 103.21C1414.31 108.23 1412.22 104.46 1410.72 103.84C1409.52 103.34 1408.47 102.48 1407.31 101.85C1407.27 101.83 1406.46 102.77 1406.57 102.99C1409.15 108.21 1411.82 113.39 1414.45 118.59C1414.8 119.28 1415.04 120.03 1415.33 120.75C1414.51 120.72 1413.7 120.69 1412.88 120.66C1412.59 120.49 1412.31 120.32 1412.02 120.14C1412.19 120.44 1412.35 120.74 1412.52 121.04C1417.05 125.56 1421.62 130.05 1426.08 134.63C1426.96 135.53 1427.45 136.8 1428.12 137.9C1426.95 137.95 1425.77 138.04 1424.6 138.05C1424.12 138.05 1423.59 137.73 1423.17 137.85C1418.76 139.137 1415.3 139.023 1412.79 137.51C1412.31 137.22 1411.8 136.98 1410.45 136.28C1413.38 144.51 1417.74 150.29 1424.85 153.53C1429.34 155.57 1434.12 156.99 1438.77 158.68C1437.85 159.93 1435.48 159.22 1435.29 162C1435.2 163.29 1432.08 165.44 1430.24 162.11C1430.16 162.21 1430.08 162.32 1429.98 162.41C1429.94 162.45 1429.85 162.43 1429.78 162.44C1429.95 162.34 1430.11 162.24 1430.28 162.14C1430.1 162.74 1429.75 163.34 1429.77 163.93C1429.81 164.95 1430.08 165.96 1430.25 166.98C1429.17 166.59 1428 166.36 1427.04 165.77C1422.58 163.03 1418.18 160.18 1413.48 157.2C1414.37 165.61 1417 173.16 1424.09 178.21C1429.06 181.75 1434.53 184.58 1439.78 187.72V190.72C1437.16 193.84 1435.73 190.18 1433.72 189.73C1431.92 189.33 1430.02 189.37 1428.17 189.22C1428.52 190.25 1428.87 191.28 1429.22 192.31C1428.87 192.64 1428.53 192.97 1428.18 193.31C1426.64 192.47 1425.1 191.64 1423.57 190.8C1423.72 190.61 1423.88 190.42 1424.03 190.23C1423.62 190.41 1423.2 190.6 1422.79 190.78C1421.39 190.02 1419.88 189.41 1418.63 188.45C1416.76 187.02 1415.09 185.34 1413.33 183.77C1415.15 193.42 1418.4 202.08 1426.86 207.36C1430.92 209.89 1435.46 211.63 1439.78 213.73V217.73C1432.48 221.03 1425.93 217.7 1419.28 215C1424.77 222.08 1430.46 228.5 1439.78 229.73L1439.9 229.89ZM111.46 188.06C109.43 188.44 107.4 188.81 105.38 189.26C105.35 189.26 105.38 190.47 105.69 190.86C107.34 192.9 109.08 194.87 110.83 196.82C110.87 196.86 111.53 196.51 111.74 196.22C113.73 193.51 115.72 190.79 117.62 188.01C117.93 187.56 117.79 186.8 117.86 186.19C117.17 186.39 116.43 186.5 115.8 186.82C114.92 187.27 114.19 188.04 113.28 188.35C112.73 188.54 111.96 188.14 111.3 188C111.33 187.73 111.36 187.45 111.38 187.18C111.21 187.31 111.03 187.44 110.86 187.58C111.06 187.74 111.26 187.9 111.46 188.05V188.06ZM162.45 262.53C161.88 262.19 161.03 261.43 160.79 261.59C158.33 263.22 156.06 263.67 153.83 261.22C153.74 261.12 152.59 261.69 152.3 262.16C152.11 262.47 152.41 263.41 152.78 263.68C154.64 265.05 156.64 266.24 158.46 267.65C158.81 267.92 158.69 268.93 158.63 269.59C158.55 270.37 157.92 271.59 158.19 271.8C158.91 272.38 160.31 273.07 160.86 272.75C163.53 271.16 166.13 269.39 168.49 267.37C169.25 266.72 169.79 264.4 169.41 264.09C167.71 262.69 165.65 261.73 163.71 260.61C163.61 260.93 163.52 261.24 163.42 261.56C163.1 261.88 162.78 262.21 162.46 262.53H162.45ZM157.91 182.05C156.29 182.94 156.44 176.1 153.87 181.13C153.44 180.84 152.96 180.59 152.6 180.24C151.85 179.51 151.16 178.73 150.44 177.96C150 178.19 149.56 178.43 149.12 178.66C151.85 184.73 154.59 190.79 157.32 196.86C161.61 194.22 165.9 191.59 170.18 188.94C170.6 188.68 171.04 188.37 171.31 187.98C171.53 187.66 171.61 186.83 171.56 186.81C169.58 186.16 165.99 184.76 165.81 185.11C164.31 188.03 163.88 185.48 163.16 184.78C161.65 183.31 160.16 181.81 158.67 180.33C158.59 180.57 158.49 180.81 158.44 181.06C158.41 181.22 158.45 181.39 158.46 181.55C158.28 181.72 158.1 181.89 157.91 182.07V182.05ZM1096.7 138.32C1097.57 147.34 1100.59 155.04 1108.4 160.24C1112.21 162.78 1114.65 161.76 1115.63 157.32C1116.29 154.32 1117.23 151.38 1117.67 148.35C1117.8 147.43 1116.87 146.11 1116.05 145.41C1115.58 145.01 1113.95 145.12 1113.56 145.6C1111.6 147.98 1111.64 148.11 1109.22 146.56C1105.22 143.99 1101.27 141.33 1096.71 138.32H1096.7ZM1096.7 165.04C1096.21 165.26 1095.71 165.47 1095.22 165.69C1097.36 170.42 1099.27 175.28 1101.7 179.86C1103.94 184.07 1104.17 183.93 1107.33 180.19C1108.18 179.18 1109.26 178.34 1109.99 177.26C1110.53 176.46 1111.21 175.06 1110.88 174.53C1110.12 173.33 1108.86 171.82 1107.64 171.65C1103.68 171.11 1103.64 171.32 1101.81 169.67C1100.1 168.14 1098.4 166.59 1096.7 165.05V165.04ZM156.8 209.17C157.81 212.24 158.79 215.55 160.05 218.74C160.31 219.41 162.01 220.26 162.39 220.01C164.44 218.67 166.39 217.12 168.13 215.39C168.52 215 168.23 213.12 167.7 212.77C164.95 210.97 162.02 209.44 159.14 207.83C158.6 207.53 158 207.32 157.42 207.07C157.25 207.65 157.08 208.23 156.8 209.17ZM1062.8 109.9C1061.69 110.17 1056.97 111.31 1056.97 111.31C1055.61 112.92 1052.94 114.77 1053.17 116.1C1053.6 118.54 1055.74 120.69 1057.17 122.96C1057.48 122.68 1057.92 122.45 1058.06 122.1C1059.59 118.24 1061.07 114.37 1062.79 109.91L1062.8 109.9ZM153.64 232.67C153.34 233.48 152.99 233.97 153 234.46C153.04 236.92 152.91 239.43 153.33 241.83C154.17 246.59 155.79 246.96 159.55 243.9C161.71 242.14 161.38 240.95 159.58 239.23C157.57 237.31 155.83 235.11 153.65 232.67H153.64Z" fill="#05502F"/>
<path d="M570.33 168.22C569.65 168.36 568.97 168.51 568.29 168.65C568.65 168.19 569.01 167.74 569.36 167.28C569.68 167.59 570 167.91 570.32 168.22H570.33Z" fill="#05502F"/>
<path d="M274.55 265.48C273.79 265.44 273.03 265.41 272.27 265.37C272.77 265.1 273.28 264.82 273.78 264.55C274.04 264.86 274.29 265.17 274.55 265.48Z" fill="#05502F"/>
<path d="M853.47 145.51L851.19 145.4C851.69 145.13 852.2 144.85 852.7 144.58C852.95 144.89 853.21 145.2 853.46 145.51H853.47Z" fill="#05502F"/>
<path d="M60.3901 187.22C59.7101 187.36 59.0301 187.51 58.3501 187.65C58.7101 187.19 59.0701 186.74 59.4201 186.28C59.7401 186.59 60.0601 186.91 60.3901 187.22Z" fill="#05502F"/>
<path d="M198.87 107.31C199.17 107.17 199.47 107.04 199.77 106.9C199.79 107.04 199.82 107.18 199.84 107.32C199.54 107.26 199.24 107.2 198.95 107.14L198.87 107.31Z" fill="#05502F"/>
<path d="M114.66 109.67C114.72 109.97 114.79 110.27 114.85 110.57C114.72 110.57 114.59 110.56 114.47 110.55C114.59 110.28 114.71 110.02 114.83 109.75L114.67 109.67H114.66Z" fill="#05502F"/>
<path d="M147.17 117.84C147.38 118.19 147.59 118.54 147.8 118.89C147.39 118.81 146.98 118.74 146.57 118.66L147.17 117.84Z" fill="#05502F"/>
<path d="M179.61 119.5C179.21 119.59 178.82 119.69 178.42 119.78C178.63 119.49 178.83 119.19 179.04 118.9C179.24 119.09 179.43 119.29 179.61 119.51V119.5Z" fill="#05502F"/>
<path d="M857.02 119.58C857.4 119.81 857.77 120.03 858.15 120.26C857.8 120.02 857.44 119.79 857.09 119.55L857.02 119.58Z" fill="#05502F"/>
<path d="M868.22 120.53C868.32 120.66 868.42 120.79 868.5 120.93C868.56 121.03 868.58 121.15 868.62 121.26C868.48 121.03 868.34 120.8 868.2 120.57L868.22 120.53Z" fill="#05502F"/>
<path d="M577.31 129.21L576.11 129.62C576.21 129.22 576.32 128.82 576.42 128.41C576.72 128.68 577.02 128.94 577.31 129.21Z" fill="#05502F"/>
<path d="M116.91 129.82C116.98 130.04 117.05 130.27 117.12 130.49C116.9 130.48 116.69 130.47 116.47 130.46C116.67 130.28 116.86 130.1 117.06 129.91L116.91 129.82Z" fill="#05502F"/>
<path d="M178.57 137.67C178.12 137.67 177.67 137.68 177.22 137.69C177.48 137.41 177.74 137.14 178 136.86C178.21 137.12 178.4 137.39 178.56 137.67H178.57Z" fill="#05502F"/>
<path d="M323.89 137.64L323.09 138.43C323.37 138.18 323.66 137.93 323.94 137.68L323.89 137.64Z" fill="#05502F"/>
<path d="M305.21 140.21C304.92 140.28 304.62 140.35 304.33 140.42L304.73 139.78L305.27 140.38L305.21 140.21Z" fill="#05502F"/>
<path d="M924.82 145.23C924.76 145.36 924.7 145.46 924.65 145.57C924.49 145.46 924.33 145.35 924.17 145.24C924.28 145.13 924.38 144.94 924.49 144.94C924.6 144.94 924.71 145.12 924.82 145.22V145.23Z" fill="#05502F"/>
<path d="M119.84 101.19C119.84 101.31 119.88 101.46 119.83 101.52C119.75 101.61 119.6 101.63 119.48 101.68L119.51 101.01C119.63 101.07 119.74 101.13 119.85 101.19H119.84Z" fill="#05502F"/>
<path d="M208.09 148.9C208.29 149.08 208.48 149.27 208.68 149.45C208.46 149.45 208.25 149.47 208.03 149.48C208.1 149.26 208.18 149.03 208.25 148.81L208.09 148.9Z" fill="#05502F"/>
<path d="M298.38 153.1H298.74L298.53 153.77C298.42 153.65 298.26 153.55 298.2 153.41C298.17 153.34 298.31 153.2 298.37 153.1H298.38Z" fill="#05502F"/>
<path d="M111.87 154.79C111.96 155.02 112.06 155.24 112.15 155.47C111.93 155.47 111.7 155.49 111.48 155.5C111.66 155.3 111.85 155.09 112.03 154.89L111.87 154.8V154.79Z" fill="#05502F"/>
<path d="M914.02 98.88C914.22 99.13 914.42 99.39 914.63 99.64C914.27 99.53 913.91 99.42 913.55 99.31C913.71 99.17 913.87 99.02 914.03 98.88H914.02Z" fill="#05502F"/>
<path d="M293.63 161.66C293.69 161.96 293.76 162.26 293.82 162.56C293.69 162.56 293.56 162.55 293.44 162.54C293.56 162.27 293.68 162.01 293.8 161.74L293.64 161.66H293.63Z" fill="#05502F"/>
<path d="M157.66 165.46L157.34 165.53L157.4 165.27L157.66 165.46Z" fill="#05502F"/>
<path d="M126.24 88.23C125.95 88.3 125.65 88.37 125.36 88.44L125.76 87.8C125.94 88 126.12 88.2 126.3 88.4L126.24 88.23Z" fill="#05502F"/>
<path d="M156.12 166.86C156.32 167.11 156.52 167.37 156.73 167.62C156.37 167.51 156.01 167.4 155.65 167.29C155.81 167.15 155.97 167 156.13 166.86H156.12Z" fill="#05502F"/>
<path d="M869.77 86.8101C869.86 87.0401 869.96 87.2601 870.05 87.4901C869.83 87.4901 869.6 87.5101 869.38 87.5201C869.56 87.3201 869.75 87.1101 869.93 86.9101L869.77 86.8201V86.8101Z" fill="#05502F"/>
<path d="M326.14 169.82C326.35 170.17 326.56 170.52 326.77 170.87L325.54 170.64C325.74 170.37 325.94 170.09 326.14 169.82Z" fill="#05502F"/>
<path d="M144.91 85.66C144.64 85.92 144.38 86.19 144.11 86.45C144.39 86.2 144.68 85.95 144.96 85.7L144.91 85.66Z" fill="#05502F"/>
<path d="M934.28 175.6C934.52 176.06 934.75 176.52 934.99 176.98C934.49 176.87 933.98 176.76 933.48 176.65C933.75 176.3 934.02 175.95 934.29 175.6H934.28Z" fill="#05502F"/>
<path d="M295.88 181.8C295.95 182.02 296.02 182.25 296.09 182.47C295.87 182.46 295.66 182.45 295.44 182.44C295.64 182.26 295.83 182.08 296.03 181.89L295.88 181.8Z" fill="#05502F"/>
<path d="M874.81 61.84C874.88 62.06 874.95 62.29 875.02 62.51C874.8 62.5 874.59 62.49 874.37 62.48C874.57 62.3 874.76 62.12 874.96 61.93L874.81 61.84Z" fill="#05502F"/>
<path d="M1065.45 50.7C1065 50.7 1064.55 50.71 1064.1 50.72C1064.36 50.44 1064.62 50.17 1064.88 49.89C1065.09 50.15 1065.28 50.42 1065.45 50.7Z" fill="#05502F"/>
<path d="M905.06 49.85C905.27 50.2 905.48 50.55 905.69 50.9C905.28 50.82 904.87 50.75 904.46 50.67C904.66 50.4 904.86 50.12 905.06 49.85Z" fill="#05502F"/>
<path d="M565.03 191.91C565.27 191.49 565.52 191.06 565.76 190.64C566.02 190.95 566.27 191.26 566.53 191.56C565.99 191.65 565.44 191.74 564.9 191.83L565.03 191.91Z" fill="#05502F"/>
<path d="M872.56 41.6899C872.62 41.9899 872.69 42.2899 872.75 42.5899C872.62 42.5899 872.49 42.5799 872.37 42.5699C872.49 42.2999 872.61 42.0399 872.73 41.7699L872.57 41.6899H872.56Z" fill="#05502F"/>
<path d="M564.9 191.83C564.88 192.13 564.85 192.43 564.83 192.72C564.69 192.69 564.55 192.67 564.4 192.64C564.61 192.39 564.82 192.15 565.03 191.9L564.9 191.82V191.83Z" fill="#05502F"/>
<path d="M916.7 196.31C916.6 196.4 916.49 196.49 916.39 196.58C916.31 196.47 916.15 196.35 916.16 196.25C916.17 196.15 916.35 196.07 916.45 195.98C916.53 196.09 916.61 196.2 916.7 196.31Z" fill="#05502F"/>
<path d="M853.09 199.53C853.45 199.78 853.81 200.03 854.17 200.28C854.04 200.38 853.91 200.47 853.78 200.57C853.58 200.21 853.38 199.86 853.18 199.5L853.09 199.53Z" fill="#05502F"/>
<path d="M290.85 206.78C290.94 207.01 291.04 207.23 291.13 207.46C290.91 207.46 290.68 207.48 290.46 207.49C290.64 207.29 290.83 207.08 291.01 206.88L290.85 206.79V206.78Z" fill="#05502F"/>
<path d="M56.6 210.56C56.06 210.65 55.51 210.74 54.97 210.82L55.1 210.9C55.34 210.48 55.59 210.05 55.83 209.63C56.09 209.94 56.34 210.25 56.6 210.55V210.56Z" fill="#05502F"/>
<path d="M54.97 210.83C54.95 211.13 54.92 211.43 54.9 211.72C54.76 211.69 54.62 211.67 54.47 211.64C54.68 211.39 54.89 211.15 55.1 210.9L54.97 210.82V210.83Z" fill="#05502F"/>
<path d="M877.83 33.3C877.77 33.41 877.71 33.52 877.65 33.64C877.47 33.53 877.3 33.41 877.12 33.3C877.24 33.19 877.36 32.99 877.48 32.99C877.6 32.99 877.72 33.19 877.83 33.3Z" fill="#05502F"/>
<path d="M335.1 218.85C335.3 219.1 335.5 219.36 335.71 219.61C335.35 219.5 334.99 219.39 334.63 219.28C334.79 219.14 334.95 218.99 335.11 218.85H335.1Z" fill="#05502F"/>
<path d="M852.48 219.65C852.08 219.72 851.68 219.78 851.29 219.85C851.5 219.51 851.71 219.17 851.92 218.84C852.13 219.1 852.32 219.37 852.49 219.65H852.48Z" fill="#05502F"/>
<path d="M633.37 222.49C633.49 222.81 633.61 223.13 633.73 223.45C633.47 223.29 633.2 223.12 632.94 222.96C633.08 222.8 633.22 222.64 633.37 222.49Z" fill="#05502F"/>
<path d="M1066.49 32.52C1066.09 32.61 1065.7 32.7 1065.3 32.8C1065.51 32.51 1065.71 32.21 1065.92 31.92C1066.12 32.11 1066.31 32.31 1066.49 32.53V32.52Z" fill="#05502F"/>
<path d="M230.36 231.59C230.61 231.91 230.85 232.24 231.1 232.56C230.61 232.48 230.13 232.4 229.64 232.33C229.88 232.08 230.12 231.84 230.36 231.59Z" fill="#05502F"/>
<path d="M278.1 239.55L279.23 240.23C278.88 239.99 278.52 239.76 278.17 239.52L278.1 239.55Z" fill="#05502F"/>
<path d="M289.3 240.49C289.4 240.62 289.5 240.75 289.58 240.89C289.64 240.99 289.66 241.11 289.7 241.21C289.56 240.98 289.42 240.75 289.28 240.52L289.3 240.48V240.49Z" fill="#05502F"/>
<path d="M884.14 20.2401C883.85 20.3101 883.55 20.3801 883.26 20.4501C883.39 20.2401 883.53 20.0201 883.66 19.8101C883.84 20.0101 884.02 20.2101 884.2 20.4101L884.14 20.2401Z" fill="#05502F"/>
<path d="M902.81 17.6801C902.54 17.9401 902.28 18.2101 902.01 18.4701C902.29 18.2201 902.58 17.9701 902.86 17.7201L902.81 17.6801Z" fill="#05502F"/>
<path d="M345.89 265.19C345.83 265.32 345.77 265.42 345.72 265.53C345.56 265.42 345.4 265.31 345.24 265.2C345.35 265.09 345.45 264.9 345.56 264.9C345.67 264.9 345.78 265.08 345.89 265.18V265.19Z" fill="#05502F"/>
<path d="M67.3802 148.2C66.9802 148.34 66.5802 148.47 66.1802 148.61C66.2802 148.21 66.3902 147.81 66.4902 147.4C66.7902 147.67 67.0902 147.93 67.3802 148.2Z" fill="#05502F"/>
<path d="M1121.24 105.22C1120.84 105.36 1120.44 105.49 1120.04 105.63C1120.14 105.23 1120.25 104.83 1120.35 104.43C1120.65 104.7 1120.95 104.96 1121.24 105.23V105.22Z" fill="#05502F"/>
<path d="M1411.93 80.9201C1412.12 81.1001 1412.32 81.2901 1412.51 81.4701C1412.29 81.4701 1412.08 81.4801 1411.86 81.4901C1411.93 81.2701 1412.01 81.0501 1412.08 80.8201L1411.92 80.9101L1411.93 80.9201Z" fill="#05502F"/>
<path d="M1382.41 71.69C1382 71.76 1381.58 71.82 1381.17 71.89C1381.39 71.55 1381.62 71.21 1381.84 70.87C1382.05 71.13 1382.24 71.4 1382.41 71.68V71.69Z" fill="#05502F"/>
<path d="M1094.97 61.9201C1095.16 62.1001 1095.36 62.2901 1095.55 62.4701C1095.33 62.4701 1095.12 62.4801 1094.9 62.4901C1094.97 62.2701 1095.05 62.0501 1095.12 61.8201L1094.96 61.9101L1094.97 61.9201Z" fill="#05502F"/>
<path d="M1383.45 51.52C1383.05 51.61 1382.66 51.71 1382.26 51.8C1382.47 51.51 1382.67 51.21 1382.88 50.92C1383.09 51.11 1383.28 51.31 1383.45 51.52Z" fill="#05502F"/>
<path d="M1402.7 39.33C1403 39.19 1403.3 39.05 1403.6 38.91C1403.62 39.05 1403.65 39.19 1403.67 39.33C1403.37 39.27 1403.07 39.21 1402.77 39.16L1402.69 39.33H1402.7Z" fill="#05502F"/>
<path d="M1177.2 198.54C1177.36 198.76 1177.55 198.97 1177.67 199.21C1177.7 199.27 1177.51 199.44 1177.42 199.56C1177.26 199.35 1177.09 199.13 1176.93 198.92L1177.2 198.54Z" fill="#05502F"/>
<path d="M1085.74 20.34C1086.04 20.2 1086.34 20.06 1086.64 19.92C1086.66 20.06 1086.69 20.2 1086.71 20.34C1086.41 20.28 1086.11 20.22 1085.81 20.17L1085.73 20.34H1085.74Z" fill="#05502F"/>
<path d="M158.45 181.54C158.57 182.12 158.68 182.7 158.8 183.27C158.5 182.86 158.2 182.46 157.91 182.05C158.09 181.88 158.27 181.71 158.46 181.53L158.45 181.54Z" fill="#05502F"/>
<path d="M163.41 261.56C163.55 262.23 163.7 262.89 163.84 263.56C163.38 263.22 162.91 262.88 162.45 262.54C162.77 262.22 163.09 261.89 163.41 261.57V261.56Z" fill="#05502F"/>
</svg>
