<svg width="1512" height="982" viewBox="0 0 1512 982" fill="none" xmlns="http://www.w3.org/2000/svg">
<path d="M1511.91 517.165C1511.91 670.462 1511.88 823.748 1512 977.045C1512 980.979 1511.12 981.86 1507.18 981.86C1006.39 981.755 505.61 981.755 4.81962 981.86C0.882097 981.86 -0.0104089 980.979 9.11537e-05 977.045C0.115592 836.337 0.0945918 695.628 0.0945918 554.92C12.0647 555.633 24.0453 556.336 36.0153 557.049C41.0239 552.549 46.2424 548.238 50.9254 543.433C52.3115 542.017 51.9019 539.016 52.889 537.023C54.4325 533.929 56.5325 531.117 58.244 528.096C58.5485 527.55 58.097 526.575 57.992 525.798C54.5795 528.127 56.0285 524.991 55.913 523.868C55.724 521.969 56.522 519.242 55.535 518.277C51.3769 514.248 54.821 511.815 56.984 509.171C59.6195 505.94 62.8325 503.129 65.132 499.688C66.203 498.083 65.72 495.439 65.951 493.268C64.4915 493.981 63.0005 494.652 61.5725 495.418C60.806 495.827 60.134 496.394 59.42 496.897C59.147 496.572 58.8845 496.247 58.6115 495.932C60.6695 492.754 63.1895 489.774 64.6595 486.354C66.3816 482.337 67.2636 477.941 68.3661 473.671C68.7651 472.129 68.7861 470.493 68.9856 468.909C67.7151 469.738 66.455 470.577 65.174 471.385C64.5965 471.752 63.9875 472.066 63.3995 472.413L62.381 471.426C63.704 469.591 65.3105 467.891 66.2765 465.888C67.1901 463.989 68.5131 461.251 67.7886 459.793C65.6675 455.502 67.253 452.302 69.1011 448.631C70.1196 446.606 70.2876 443.942 70.0671 441.634C70.0041 440.994 67.2006 440.616 65.447 440.05C68.0091 437.784 70.3926 435.78 72.6396 433.619C73.1121 433.168 73.0281 432.14 73.1961 431.374C72.3771 431.405 71.5476 431.447 70.7286 431.479C70.4136 431.196 70.0986 430.923 69.7941 430.64C70.5816 429.486 71.2851 428.269 72.1671 427.188C76.3251 422.069 78.9186 416.519 79.2546 409.669C79.6116 402.347 81.0921 395.077 82.0792 387.786C83.7067 389.926 85.2817 392.308 84.9247 394.343C83.1817 404.235 82.2892 413.823 89.2612 422.321C90.1432 423.391 90.9622 424.587 91.4872 425.856C92.3692 427.975 96.8948 430.136 91.6552 432.496C91.5187 432.559 91.7602 434.018 92.1697 434.584C93.4927 436.42 95.2987 437.993 96.2438 439.997C96.6113 440.784 102.176 442.987 96.0967 443.858C96.0967 443.858 96.0338 445.116 96.3488 445.505C101.231 451.463 102.911 460.632 112.624 461.765C112.886 461.796 113.096 462.226 113.327 462.478C110.555 463.181 107.773 463.884 104.612 464.692C108.917 468.51 111.668 466.685 114.146 463.454C116.761 460.432 119.375 457.401 121.99 454.379C122.221 454.254 122.462 454.138 122.693 454.012C122.536 453.855 122.389 453.698 122.231 453.54C122.095 453.761 121.958 453.981 121.822 454.191C120.898 453.834 119.974 453.477 119.05 453.121C120.635 450.372 122.273 447.655 123.775 444.865C125.098 442.42 126.347 439.924 127.471 437.374C127.838 436.546 127.691 435.497 127.775 434.542C127.009 434.867 126.253 435.213 125.465 435.497C122.798 436.472 120.121 437.427 117.454 438.392L117.622 438.486C117.989 437.469 118.85 435.675 118.64 435.539C116.267 433.997 116.257 434.112 118.934 432.36C120.362 431.426 122.116 430.556 122.893 429.192C123.533 428.048 127.282 425.006 121.832 424.912C121.769 424.912 121.423 423.275 121.727 422.677C123.155 419.918 124.73 417.222 126.316 414.547C127.418 412.69 127.103 412.072 124.898 412.523C124.226 412.659 123.46 412.313 122.735 412.197L122.893 412.292C125.171 408.001 127.471 403.732 129.707 399.42C130.012 398.843 130.033 398.119 130.18 397.469C129.487 397.605 128.783 397.888 128.09 397.857C126.841 397.784 125.602 397.532 124.352 397.343C124.888 396.546 125.381 395.717 125.98 394.972C127.082 393.598 128.258 392.276 129.298 391.059H120.362L120.53 391.143C122.578 389.601 124.688 388.132 126.631 386.464C127.24 385.94 127.849 384.303 127.66 384.135C124.709 381.66 127.24 380.191 128.5 378.376C130.463 375.554 132.269 372.638 134.055 369.701C134.086 369.648 133.057 368.945 132.521 368.547L132.584 368.725C130.778 366.858 130.81 365.253 132.312 362.903C134.811 358.99 136.627 354.657 138.727 350.503C139.252 349.454 139.788 348.416 140.313 347.366C141.163 348.395 142.14 349.339 142.833 350.461C145.972 355.56 149.028 360.721 152.125 365.851L152.178 365.893C150.414 366.826 147.484 365.966 147.169 369.134L144.366 368.683C144.429 368.61 144.502 368.547 144.565 368.473C144.481 368.526 144.397 368.578 144.313 368.631C144.943 369.061 145.584 369.491 146.214 369.921C148.86 373.75 151.516 377.579 154.11 381.324C152.671 381.628 151.222 381.943 149.784 382.258C150.477 383.506 151.117 384.796 151.894 386.003C152.356 386.716 153.196 387.22 153.595 387.954C154.068 388.846 154.257 389.895 154.572 390.881C153.616 391.038 152.661 391.227 151.705 391.332C150.54 391.458 149.374 391.5 148.209 391.584L149.038 390.65L148.24 391.605C150.319 394.269 152.409 396.923 154.488 399.588L153.858 400.448C151.8 399.42 149.742 398.382 147.673 397.353C147.463 397.689 147.243 398.035 147.033 398.371C149.616 400.616 152.178 402.903 154.803 405.106C157.47 407.351 160.2 409.533 162.898 411.746C161.491 412.292 160.441 411.809 159.517 411.988C157.9 412.292 156.367 412.995 154.803 413.54C155.485 414.474 156.252 415.366 156.84 416.352C157.459 417.39 158.52 418.649 158.331 419.604C157.785 422.384 155.296 421.523 153.396 421.639C153.112 421.408 152.839 421.156 152.535 420.946C152.493 420.925 152.304 421.125 152.188 421.219L153.217 421.859C154.887 423.789 156.367 425.95 158.289 427.576C160.662 429.591 160.788 430.797 157.648 431.731C156.955 431.94 156.021 432.454 155.59 432.182C152.251 430.115 152.724 432.79 153.511 434.122C155.727 437.91 158.446 441.413 160.819 445.116C162.006 446.973 162.877 449.04 163.896 451.002C163.728 451.159 163.56 451.306 163.392 451.463C162.552 451.264 161.722 451.054 160.882 450.855C160.2 450.655 159.507 450.456 158.824 450.246C159.213 450.729 159.591 451.222 159.979 451.704C165.901 455.964 171.792 460.286 177.798 464.429C178.533 464.933 180.265 464.964 180.927 464.44C184.549 461.586 187.468 458.177 188.025 453.33C188.172 452.103 188.875 451.023 186.408 451.683C184.507 452.197 182.187 451.148 180.045 450.802C181.189 449.596 182.239 448.285 183.489 447.204C185.599 445.379 187.825 443.69 189.852 442.064C187.08 441.204 184.749 441.172 183.625 439.997C181.084 437.333 185.011 436.651 185.778 434.93C185.988 434.469 186.618 434.154 186.691 433.703C186.744 433.409 186.187 432.738 185.841 432.696C183.436 432.371 181.021 432.161 177.987 431.857C181.767 428.867 185.379 426.244 188.697 423.296C190.366 421.817 191.511 419.751 192.886 417.946C191.08 418.764 189.264 419.572 187.458 420.39C187.279 420.086 187.08 419.803 186.87 419.541L193.096 411.495C192.876 411.264 192.666 411.022 192.435 410.813C192.393 410.781 192.267 410.844 192.172 410.865C192.487 411.075 192.792 411.295 193.107 411.505C190.975 411.148 188.844 410.792 186.712 410.425C188.035 408.431 189.222 406.323 190.713 404.455C193.684 400.752 191.164 401.057 188.55 401.319C188.371 401.088 188.172 400.878 187.951 400.679C190.44 396.86 192.918 393.052 195.406 389.234C195.942 389.003 196.467 388.762 197.002 388.531C196.981 388.447 196.95 388.363 196.929 388.279C196.929 388.384 196.939 388.479 196.95 388.583C196.246 388.51 195.543 388.437 194.839 388.374C194.01 387.608 193.128 386.129 192.372 386.192C188.497 386.538 190.408 384.681 191.164 383.338C193.705 378.785 196.278 374.253 198.892 369.732C199.386 368.872 200.1 368.148 200.719 367.361C201.328 368.316 202.011 369.229 202.525 370.225C204.836 374.694 206.883 379.31 209.456 383.611C210.758 385.782 210.128 387.052 208.773 388.531L208.857 388.353C208.416 388.93 207.471 389.842 207.597 390.052C209.96 393.671 212.448 397.196 214.926 400.742C215.304 401.287 215.787 401.759 216.218 402.273C215.913 402.399 215.598 402.515 215.304 402.651C211.503 404.372 214.076 405.893 215.556 407.214C217.058 408.547 218.79 409.627 220.428 410.813C220.334 411.075 220.25 411.327 220.155 411.589C217.53 411.148 214.895 410.708 211.524 410.141C213.026 411.998 214.139 413.267 215.136 414.631C215.766 415.491 216.239 416.467 216.774 417.38C215.556 417.516 214.338 417.694 213.12 417.757C212.543 417.778 211.965 417.558 211.377 417.443C211.482 418.083 211.44 418.796 211.724 419.352C213.929 423.642 216.197 427.902 218.454 432.171L218.622 432.077C215.493 432.378 214.828 434.084 216.627 437.196C217.667 439.001 218.748 440.794 219.672 442.662C219.966 443.26 220.166 444.403 219.84 444.728C217.016 447.561 217.037 448.778 220.344 451.075C222.14 452.323 224.061 453.414 226.508 454.936C224.408 455.292 222.119 455.313 222.045 455.743C221.079 461.009 218.885 457.044 217.31 456.394C216.05 455.88 214.937 454.967 213.729 454.317C213.687 454.296 212.847 455.282 212.952 455.512C215.661 460.988 218.465 466.423 221.226 471.878C221.594 472.601 221.846 473.388 222.15 474.144C221.289 474.112 220.439 474.081 219.578 474.049C219.284 473.871 218.979 473.692 218.685 473.504C218.864 473.818 219.032 474.133 219.21 474.448C219.756 475.318 220.134 476.346 220.859 477.018C225.321 481.151 229.91 485.169 234.341 489.334C235.034 489.984 235.16 491.211 235.548 492.177C234.624 492.355 233.711 492.628 232.787 492.68C231.863 492.733 230.907 492.449 229.983 492.533C229.448 492.575 222.434 493.477 222.077 493.32C220.607 492.659 219.126 492.019 217.646 491.369C218.223 492.942 218.58 494.652 219.441 496.058C220.88 498.429 222.539 500.684 224.292 502.845C228.744 508.321 235.485 509.601 241.596 512.035C244.673 513.262 244.652 513.262 243.518 515.413C243.423 515.591 243.738 516.021 243.906 516.315C245.072 518.382 244.137 518.235 242.604 517.605C242.552 517.584 242.121 518.466 241.859 518.938C241.607 519.2 241.355 519.452 241.103 519.714C239.99 519.001 238.877 518.287 237.764 517.574L237.68 517.763L237.869 517.658C237.69 518.287 237.354 518.917 237.386 519.536C237.428 520.606 237.69 521.665 237.858 522.725C236.882 522.379 235.821 522.179 234.96 521.644C230.12 518.686 225.321 515.644 220.649 512.727C220.586 521.634 225.059 530.676 232.766 535.324C238.971 539.069 245.565 542.185 252.054 545.437C254.858 546.832 252.002 546.36 251.718 546.58C250.794 547.304 249.818 547.975 248.82 548.584C245.712 550.493 243.959 547.587 241.596 546.653C240.074 546.045 238.226 546.286 236.525 546.15C236.777 547.325 237.071 548.5 237.27 549.696C237.365 550.304 237.291 550.934 237.291 551.983C235.643 550.451 234.414 549.224 233.091 548.122C232.65 547.755 231.968 547.671 231.401 547.461C230.666 551.573 229.238 548.164 228.513 547.587C225.605 545.269 222.843 542.772 219.263 539.667C219.588 541.597 219.672 542.436 219.882 543.244C223.484 557.207 232.409 566.134 245.891 570.844C246.762 571.149 248.127 572.345 248.012 572.785C247.592 574.285 248.085 576.667 245.408 576.698C242.394 576.73 239.318 577.139 236.399 576.625C233.553 576.111 230.876 574.642 228.125 573.582C227.589 573.383 227.064 573.184 226.529 572.984C226.749 573.467 226.98 573.95 227.201 574.422C232.335 581.345 238.782 586.454 247.35 588.752C246.132 589.433 245.093 590.01 244.053 590.587C245.208 591.248 246.332 591.993 247.55 592.518C248.148 592.78 248.925 592.644 249.629 592.644C266.25 592.644 282.862 592.686 299.483 592.581C300.838 592.581 302.917 591.962 303.421 590.986C306.025 585.972 308.23 580.758 310.571 575.607C304.67 577.286 302.36 583.485 295.724 583.412C293.341 583.38 293.393 584.734 292.994 582.132C292.931 581.692 291.934 581.02 291.451 581.094C289.592 581.366 287.366 581.387 286.033 582.447C283.439 584.524 280.877 583.097 278.336 583.066C277.695 583.066 277.065 581.65 276.435 580.884C276.813 580.58 277.16 580.191 277.58 579.971C284.185 576.488 291.02 573.394 297.352 569.481C304.681 564.949 309.332 554.584 308.366 547.577C302.938 551.007 297.299 554.584 291.052 558.529C291.293 555.99 291.44 554.469 291.587 552.948C290.485 553.462 289.393 553.965 288.29 554.479C288.017 554.154 287.755 553.829 287.482 553.504C287.576 553.168 287.849 552.622 287.744 552.539C286.442 551.49 285.077 550.503 283.733 549.496C285.497 548.395 287.188 547.146 289.046 546.244C290.915 545.342 292.963 544.828 294.916 544.094C303.61 540.821 308.807 534.411 312.083 525.914C308.986 526.795 306.382 527.529 303.767 528.264L303.746 528.306C304.334 528.169 304.912 528.033 305.5 527.897C305.111 527.739 304.723 527.582 304.334 527.424C304.733 527.582 305.122 527.739 305.521 527.897C305.311 527.624 305.09 527.099 304.912 527.12C300.964 527.414 297.026 527.792 293.089 528.075C292.753 528.096 292.375 527.561 292.018 527.278L292.091 527.246C292.742 526.323 293.215 525.148 294.076 524.519C300.155 520.092 306.298 515.77 309.941 508.888C310.172 508.762 310.414 508.647 310.645 508.521C310.487 508.363 310.34 508.206 310.183 508.049C310.046 508.269 309.91 508.489 309.773 508.699C308.849 508.342 307.925 507.986 306.991 507.629C308.576 504.881 310.225 502.153 311.737 499.363C313.06 496.918 314.309 494.422 315.433 491.872C315.8 491.044 315.643 489.995 315.737 489.04C314.971 489.365 314.215 489.711 313.427 489.995C310.76 490.97 308.083 491.925 305.416 492.89L305.584 492.984C307.379 490.225 307.379 490.215 305.647 489.911C304.996 489.795 304.334 489.774 303.673 489.711C304.156 489.124 304.586 488.484 305.143 487.97C307.369 485.924 309.689 483.973 311.8 481.812C312.041 481.56 311.096 479.462 310.813 479.494C308.125 479.735 308.839 478.508 309.637 477.133C311.191 474.437 312.692 471.71 314.278 469.045C315.391 467.188 315.044 466.58 312.85 467.02C312.178 467.157 311.411 466.811 310.697 466.695L310.855 466.79C313.133 462.499 315.433 458.23 317.669 453.918C317.974 453.341 317.995 452.617 318.142 451.967C317.449 452.103 316.745 452.386 316.052 452.355C314.803 452.281 313.564 452.03 312.314 451.841C312.85 451.044 313.343 450.215 313.942 449.47C315.044 448.096 316.22 446.774 317.26 445.557H308.324L308.492 445.641C310.54 444.099 312.65 442.63 314.593 440.962C315.202 440.438 315.811 438.801 315.622 438.633C312.671 436.158 315.202 434.689 316.462 432.874C318.425 430.052 320.231 427.136 322.016 424.199C322.048 424.146 321.019 423.443 320.483 423.045L320.546 423.223C318.74 421.356 318.772 419.751 320.273 417.401C322.772 413.498 324.589 409.155 326.689 405.001C327.214 403.952 327.749 402.913 328.274 401.864C329.125 402.892 330.101 403.837 330.794 404.959C333.934 410.057 336.989 415.219 340.087 420.349L340.139 420.39C338.375 421.324 335.446 420.464 335.131 423.632C334.196 423.485 333.262 423.328 332.327 423.181C332.39 423.107 332.464 423.045 332.527 422.971C332.443 423.024 332.359 423.076 332.275 423.128C332.915 423.559 333.545 423.989 334.186 424.429C336.832 428.258 339.488 432.077 342.082 435.832C340.643 436.147 339.194 436.451 337.745 436.766C338.438 438.014 339.079 439.305 339.866 440.511C340.328 441.224 341.168 441.728 341.567 442.462C342.04 443.354 342.229 444.403 342.544 445.389C341.588 445.547 340.633 445.735 339.677 445.84C338.512 445.966 337.346 446.008 336.181 446.092C336.454 445.777 336.727 445.473 337.01 445.158C336.748 445.473 336.475 445.798 336.212 446.113C338.291 448.778 340.381 451.432 342.46 454.096C342.25 454.38 342.04 454.673 341.83 454.956C339.772 453.928 337.714 452.89 335.645 451.862C335.404 452.239 335.162 452.617 334.91 452.995C340.213 457.432 345.515 461.88 350.818 466.318C349.442 466.8 348.403 466.318 347.479 466.496C345.872 466.8 344.329 467.503 342.764 468.049C343.447 468.982 344.213 469.874 344.801 470.86C345.421 471.899 346.481 473.157 346.292 474.112C345.746 476.892 343.258 476.032 341.357 476.147C341.074 475.916 340.801 475.665 340.496 475.455C340.454 475.434 340.265 475.633 340.15 475.728C340.496 475.937 340.843 476.147 341.179 476.367C342.848 478.298 344.329 480.459 346.25 482.085C348.624 484.099 348.749 485.305 345.61 486.239C344.917 486.449 343.982 486.963 343.552 486.69C340.213 484.623 340.685 487.288 341.473 488.631C343.688 492.418 346.408 495.922 348.781 499.625C349.968 501.482 350.839 503.548 351.858 505.51C351.69 505.667 351.522 505.814 351.354 505.972C350.514 505.772 349.684 505.562 348.844 505.363C348.162 505.164 347.468 504.964 346.786 504.755L347.941 506.213C354.934 511.08 361.801 516.158 368.994 520.711C371.818 522.504 369.928 525.326 371.493 527.162C369.823 526.491 368.112 525.882 366.484 525.117C365.224 524.529 364.101 523.658 362.841 523.102C362.526 522.966 361.455 523.585 361.444 523.879C361.297 527.225 360.069 525.075 359.25 524.309C357.885 523.039 356.604 521.686 355.281 520.375C354.829 521.046 354.367 521.707 353.916 522.379C353.223 521.382 352.561 520.343 351.805 519.389C351.522 519.043 350.65 518.654 350.629 518.675C347.678 523.165 347.741 516.252 345.421 517.742C345.61 518.77 345.725 520.123 346.124 521.392C349.201 531.023 353.527 539.751 363.019 544.786C366.054 546.402 367.408 549.003 367.188 552.497C365.55 551.836 363.964 551.206 362.379 550.566C362.158 550.409 361.938 550.252 361.717 550.084C361.759 550.304 361.801 550.524 361.833 550.745C362.043 550.629 362.253 550.514 362.452 550.399C361.749 551.385 362.662 554.857 359.586 552.161C357.654 550.461 355.522 548.982 352.614 546.737C353.517 554.825 355.144 561.361 361.308 565.799C365.833 569.061 370.39 572.303 375.168 575.166C376.932 576.216 379.546 576.918 381.457 576.467C391.075 574.18 400.609 571.526 410.143 568.862C416.181 567.173 422.05 564.256 428.172 563.658C440.468 562.442 452.007 558.759 463.767 555.465C472.419 553.042 481.481 552.087 490.385 550.587C491.519 550.399 492.821 550.766 493.976 551.122C497.735 552.297 500.392 551.836 501.4 547.335C503.605 537.495 510.944 534.652 519.932 533.897C527.765 533.236 535.598 532.428 543.358 531.212C550.592 530.079 557.638 529.69 564.011 533.897C570.144 537.946 574.995 536.918 579.352 531.17C580.801 529.26 582.975 527.907 584.728 526.208C585.453 525.505 586.671 524.235 586.461 523.816C584.686 520.228 587.868 518.34 589.086 515.874C590.461 513.074 592.372 510.535 593.905 507.807C594.168 507.335 593.727 506.465 593.611 505.783C588.424 508.395 591.984 503.842 591.501 502.908C590.85 501.628 591.858 499.153 591.028 498.387C586.419 494.117 590.608 491.61 592.75 488.872C595.218 485.714 598.378 483.06 600.562 479.745C601.633 478.119 601.171 475.486 601.413 473.315C599.953 474.018 598.462 474.679 597.034 475.434C596.268 475.843 595.596 476.42 594.882 476.913C594.609 476.588 594.346 476.263 594.073 475.948C596.131 472.769 598.651 469.79 600.121 466.37C601.843 462.352 602.725 457.957 603.828 453.687C604.227 452.145 604.248 450.509 604.437 448.924C603.166 449.753 601.906 450.592 600.625 451.4C600.048 451.767 599.439 452.082 598.851 452.428C598.515 452.103 598.179 451.767 597.843 451.442C599.166 449.606 600.772 447.907 601.738 445.903C602.652 444.004 603.975 441.266 603.25 439.808C601.129 435.518 602.715 432.318 604.563 428.646C605.581 426.622 605.749 423.957 605.529 421.649C605.466 421.009 602.662 420.632 600.909 420.065C603.471 417.799 605.854 415.796 608.101 413.635C608.574 413.184 608.49 412.155 608.658 411.39C607.839 411.421 607.009 411.463 606.19 411.495C605.875 411.211 605.56 410.939 605.256 410.655C606.043 409.501 606.747 408.284 607.629 407.214C611.776 402.106 614.391 396.577 614.716 389.727C615.073 382.384 616.554 375.093 617.583 367.487C620.964 370.876 619.725 374.327 619.368 377.988C618.37 388.458 619.851 398.444 627.474 406.585C628.177 407.34 628.702 408.285 629.164 409.218C629.416 409.722 629.584 410.823 629.416 410.907C623.631 413.792 628.923 415.827 630.162 417.694C632.43 421.114 632.64 420.946 631.348 424.02C631.201 424.366 631.401 425.038 631.674 425.352C636.651 431.196 638.068 440.574 647.844 441.686C647.96 441.697 648.023 442.106 648.128 442.357C647.078 442.693 646.07 442.997 645.093 443.344C643.644 443.858 642.216 444.403 640.777 444.928C642.153 445.767 643.539 446.596 644.883 447.477C645.114 447.634 645.156 448.064 645.282 448.368C641.957 449.341 641.547 451.051 644.054 453.498C645.797 455.208 647.613 456.845 649.304 458.607C649.965 459.3 650.375 460.233 650.889 461.051C649.944 460.957 649.01 460.863 648.065 460.768C647.403 460.705 646.742 460.632 645.303 460.485C647.382 462.394 649.01 463.695 650.396 465.216C651.614 466.548 655.919 468.709 649.766 468.982C649.325 469.003 648.915 469.675 648.485 470.042C651.446 472.549 649.293 477.542 653.304 479.735C654.207 480.228 657.872 480.585 655.289 483.459C654.323 483.228 653.357 482.997 652.391 482.767C653.115 483.26 653.84 483.763 654.575 484.256C655.299 484.728 656.055 485.169 656.748 485.683C658.596 487.057 660.413 488.463 662.25 489.848C659.657 491.054 657.084 492.292 654.459 493.425C653.945 493.645 653.241 493.456 651.761 493.456C654.585 495.943 656.801 497.894 659.216 500.013C657.704 500.223 656.58 500.38 655.572 500.527C658.785 503.506 661.914 506.412 665.054 509.318C664.907 509.486 664.76 509.654 664.602 509.811C663.92 509.717 663.101 509.822 662.565 509.496C659.709 507.713 656.885 508.71 655.95 511.154C655.331 512.769 656.958 515.497 658.071 517.438C658.796 518.717 660.402 519.483 661.61 520.49C664.697 523.06 667.878 525.536 670.808 528.274C671.795 529.197 672.12 530.834 672.75 532.145C671.501 531.977 670.157 532.051 669.023 531.589C666.125 530.414 663.311 529.019 660.476 527.676C658.523 526.753 657.693 527.477 658.554 529.334C659.993 532.428 661.221 535.901 663.521 538.261C668.466 543.338 674.042 547.818 679.239 552.444C678.347 552.57 677.213 552.717 675.354 552.979C680.741 555.969 685.151 559.263 691.041 558.35C691.818 558.235 692.658 558.581 693.477 558.717C692.963 559.525 692.574 560.889 691.902 561.036C687.618 562.032 683.261 562.725 678.935 563.596C678 563.784 676.394 564.246 676.362 564.686C676.121 567.897 679.785 571.673 682.998 571.6C687.891 571.484 692.784 571.285 697.667 570.991C712.818 570.068 727.676 565.704 743.027 567.131C749.684 567.75 755.827 566.596 761.402 562.683C762.799 561.707 764.521 560.994 766.19 560.648C776.911 558.445 787.652 556.389 798.384 554.269C799.234 554.102 800.211 554.018 800.862 553.535C809.125 547.493 818.964 546.118 828.603 544.209C832.876 543.359 837.444 543.454 841.486 542.027C848.248 539.646 854.979 538.985 862.035 539.772C872.346 540.926 882.111 539.342 891.299 534.096C898.712 529.858 906.471 526.229 914.073 522.305C915.155 521.749 916.226 521.162 917.202 520.448C917.517 520.218 917.486 519.515 917.612 519.022C917.076 518.927 916.425 518.592 916.016 518.78C913.17 520.102 910.398 521.592 907.542 522.903C906.681 523.302 904.823 523.491 904.812 523.449C903.815 519.284 900.518 523.428 898.722 521.623C901.977 517.532 905.264 513.399 908.54 509.276C908.372 509.066 908.204 508.846 908.046 508.636C903.657 509.968 899.268 511.301 893.987 512.906C896.024 509.853 897.441 507.734 898.859 505.615C899.132 505.332 899.405 505.048 899.678 504.776C899.205 504.828 898.722 504.88 898.25 504.933C897.21 505.405 896.16 505.877 895.121 506.349C894.942 506.045 894.743 505.762 894.522 505.499C893.913 504.734 897.861 501.702 893.22 502.919C892.107 503.213 890.942 503.296 888.957 503.611C892.282 500.499 892.559 498.471 889.787 497.527C898.302 495.03 904.928 490.173 909.978 483.165C910.325 482.662 910.682 482.158 911.028 481.655C910.409 481.896 909.789 482.127 909.17 482.368C906.146 483.449 903.164 484.686 900.066 485.526C898.754 485.882 897.2 485.379 895.761 485.263L895.856 485.232C895.887 485.064 895.919 484.886 895.95 484.718C895.646 484.718 895.257 484.581 895.037 484.718C892.884 486.145 890.49 485.704 889.451 483.868C888.128 481.508 889.619 480.06 892.286 479.074C896.024 477.689 899.646 475.811 902.996 473.65C911.795 467.965 915.26 459.048 918.116 448.725C912.456 451.715 910.115 457.506 903.594 457.527C901.148 457.527 901.221 458.869 900.843 456.278C900.78 455.838 899.793 455.145 899.321 455.219C897.462 455.491 895.226 455.502 893.892 456.562C891.299 458.649 888.737 457.212 886.196 457.191C885.555 457.191 884.915 455.796 884.337 454.988C884.316 454.956 884.988 454.327 885.408 454.096C892.013 450.613 898.848 447.519 905.18 443.606C912.509 439.074 917.16 428.72 916.215 421.702C910.787 425.132 905.148 428.709 898.901 432.664C899.142 430.126 899.289 428.604 899.436 427.083C898.334 427.597 897.231 428.101 896.139 428.615C895.866 428.29 895.604 427.965 895.331 427.639C895.425 427.304 895.698 426.758 895.593 426.674C894.291 425.625 892.926 424.639 891.582 423.632C893.346 422.531 895.037 421.282 896.895 420.38C898.764 419.478 900.812 418.964 902.765 418.229C911.459 414.956 916.656 408.547 919.932 400.049C916.835 400.931 914.231 401.665 911.616 402.399L911.595 402.441C912.183 402.305 912.761 402.169 913.349 402.032C912.96 401.875 912.572 401.717 912.183 401.56C912.582 401.717 912.971 401.875 913.37 402.032C913.16 401.759 912.939 401.235 912.761 401.256C908.813 401.55 904.875 401.927 900.938 402.211C900.602 402.232 900.224 401.696 899.867 401.413L899.94 401.382C900.591 400.459 901.064 399.284 901.925 398.654C908.004 394.238 914.147 389.905 917.79 383.024C918.021 382.898 918.263 382.782 918.494 382.656C918.336 382.499 918.189 382.342 918.032 382.184C917.895 382.405 917.759 382.625 917.622 382.835C916.698 382.478 915.774 382.121 914.84 381.765C916.425 379.016 918.074 376.289 919.586 373.498C920.909 371.054 922.158 368.557 923.282 366.008C923.649 365.179 923.492 364.13 923.586 363.176C922.82 363.501 922.064 363.847 921.276 364.13C918.609 365.106 915.932 366.06 913.265 367.026L913.433 367.12C913.8 366.102 914.661 364.309 914.451 364.172C912.078 362.63 912.068 362.745 914.745 360.994C916.173 360.06 917.937 359.189 918.704 357.825C919.344 356.682 923.009 353.671 917.643 353.545C917.57 353.545 917.234 351.909 917.538 351.311C918.966 348.552 920.541 345.856 922.127 343.181C923.229 341.324 922.914 340.705 920.709 341.156C920.037 341.293 919.271 340.946 918.546 340.831L918.704 340.925C920.982 336.635 923.282 332.365 925.518 328.054C925.823 327.477 925.844 326.753 925.991 326.102C925.298 326.239 924.594 326.522 923.901 326.491C922.652 326.417 921.413 326.165 920.163 325.976C920.699 325.179 921.192 324.35 921.791 323.606C922.893 322.231 924.069 320.91 925.109 319.693H916.173L916.341 319.777C918.389 318.235 920.499 316.766 922.442 315.098C923.051 314.573 923.66 312.937 923.471 312.769C920.52 310.293 923.051 308.825 924.311 307.01C926.274 304.188 928.08 301.271 929.865 298.334C929.897 298.282 928.868 297.579 928.332 297.18L928.395 297.359C926.589 295.491 926.621 293.886 928.122 291.536C930.621 287.634 932.438 283.291 934.538 279.137C935.063 278.088 935.598 277.049 936.123 276C936.974 277.028 937.951 277.972 938.644 279.095C941.783 284.193 944.839 289.354 947.936 294.484L947.989 294.526C946.225 295.46 943.295 294.6 942.98 297.768C942.046 297.621 941.111 297.463 940.177 297.317C940.24 297.243 940.313 297.18 940.376 297.107C940.292 297.159 940.208 297.212 940.124 297.264C940.754 297.694 941.395 298.124 942.025 298.554C944.671 302.383 947.327 306.212 949.921 309.958C948.482 310.262 947.033 310.577 945.595 310.891C946.288 312.14 946.928 313.43 947.705 314.636C948.167 315.35 949.007 315.853 949.406 316.588C949.879 317.479 950.068 318.528 950.383 319.514C949.427 319.672 948.472 319.861 947.516 319.965C946.351 320.091 945.185 320.133 944.02 320.217C944.293 319.903 944.566 319.598 944.849 319.284C944.587 319.598 944.314 319.923 944.051 320.238C946.13 322.903 948.22 325.557 950.299 328.221C950.089 328.505 949.879 328.798 949.669 329.082C947.611 328.054 945.553 327.015 943.484 325.987C943.243 326.365 943.001 326.742 942.749 327.12C948.052 331.557 953.354 336.005 958.657 340.443C957.302 340.925 956.242 340.443 955.318 340.621C953.701 340.925 952.168 341.628 950.603 342.163C951.286 343.097 952.052 343.989 952.64 344.975C953.26 346.013 954.32 347.272 954.131 348.227C953.585 351.007 951.107 350.146 949.196 350.262C948.913 350.031 948.64 349.779 948.325 349.569C948.283 349.548 948.094 349.748 947.978 349.842C948.325 350.052 948.671 350.262 949.007 350.482C950.677 352.412 952.157 354.563 954.079 356.199C956.452 358.214 956.578 359.42 953.438 360.354C952.745 360.563 951.811 361.078 951.38 360.805C948.041 358.738 948.514 361.403 949.301 362.745C951.517 366.533 954.236 370.036 956.609 373.739C957.796 375.596 958.667 377.663 959.686 379.625C959.518 379.782 959.35 379.929 959.182 380.086C958.342 379.887 957.512 379.677 956.672 379.478C955.99 379.278 955.297 379.079 954.614 378.869C955.003 379.352 955.381 379.845 955.769 380.327C962.762 385.195 969.619 390.262 976.811 394.815C979.636 396.598 977.725 399.452 979.331 401.266C977.662 400.595 975.961 399.997 974.323 399.242C973.22 398.738 972.244 397.962 971.162 397.416C970.616 397.144 969.787 396.787 969.388 397.007C967.088 398.277 967.172 398.287 965.345 396.493C964.61 395.78 963.592 395.35 962.699 394.794C962.804 398.539 961.88 396.241 960.736 395.245C959.938 394.563 959.402 390 957.418 394.573C956.956 394.322 956.41 394.154 956.063 393.808C955.255 393 954.541 392.098 953.795 391.238C953.407 392.885 953.533 394.248 953.932 395.528C956.998 405.158 961.345 413.876 970.816 418.901C973.85 420.516 975.205 423.118 974.974 426.601C973.336 425.94 971.75 425.31 970.165 424.671C969.944 424.513 969.724 424.345 969.503 424.188C969.545 424.408 969.587 424.629 969.619 424.849C969.829 424.734 970.039 424.618 970.238 424.503C969.524 425.447 970.459 428.982 967.403 426.276C965.975 425.006 964.432 423.873 962.899 422.73C962.374 422.342 961.723 422.111 961.124 421.807C960.988 422.583 960.652 423.38 960.757 424.115C961.723 430.881 964.736 436.231 970.06 440.889C976.024 446.113 984.266 448.054 988.886 455.481C990.472 458.03 988.33 458.943 989.107 460.453C987.857 460.317 986.555 460.328 985.369 459.992C984.046 459.614 982.828 458.901 981.557 458.334C981.347 458.922 981.137 459.499 980.927 460.086C980.644 460.453 980.36 460.821 980.077 461.188C977.273 459.415 974.533 457.548 971.645 455.943C970.732 455.439 968.905 455.114 968.38 455.628C965.587 458.303 965.692 458.397 963.214 455.607C961.198 453.351 959.161 451.127 956.725 448.421C955.916 461.523 958.163 465.604 968.674 471.059C972.905 473.252 977.179 475.392 981.431 477.553C981.326 478.004 981.211 478.455 981.106 478.906C978.985 478.529 976.874 478.151 974.753 477.784C974.239 477.721 973.724 477.668 973.199 477.605C973.493 477.889 973.798 478.161 974.092 478.445C974.995 479.64 975.898 480.836 976.801 482.032C974.47 481.592 972.653 480.417 970.805 479.315C969.713 478.665 968.558 478.109 967.424 477.511C967.624 478.707 967.823 479.903 968.086 481.497C964.474 478.77 964.505 478.801 961.66 480.669C961.303 480.91 960.379 480.648 959.927 480.333C958.646 479.431 957.533 478.287 956.221 477.438C955.664 477.07 954.782 477.196 954.058 477.091C954.142 477.952 953.9 479.21 954.383 479.599C956.525 481.382 958.856 482.924 961.145 484.529C963.14 485.924 963.088 485.861 961.513 487.687C961.208 488.033 961.492 489.103 961.775 489.711C963.938 494.39 968.569 495.932 972.59 498.313C973.819 499.037 975.583 501.051 975.299 501.754C973.976 505.069 972.538 501.167 971.036 501.513C970.753 501.576 970.511 501.828 970.207 502.017C972.863 509.286 980.686 506.958 985.463 510.482C977.735 514.437 970.984 510.881 963.907 507.136C964.442 512.014 967.382 514.437 970.847 516.619C971.845 517.249 972.37 518.633 973.105 519.672C971.981 519.651 970.847 519.704 969.734 519.599C968.254 519.462 966.794 519.2 964.064 518.812C967.571 522.274 970.018 524.54 974.123 524.749C979.174 525.012 984.172 525.998 989.212 526.543C990.566 526.69 992.32 526.931 993.307 526.26C1002.18 520.27 1013.26 517.28 1019.59 507.839C1022.07 504.146 1023.62 499.835 1025.72 495.869C1027.34 492.827 1027.17 492.04 1023.19 492.072C1019.07 492.103 1014.93 490.509 1010.83 489.449C1010.24 489.292 1009.9 488.169 1009.45 487.498C1010.22 487.309 1011.02 486.889 1011.78 486.973C1016.35 487.487 1020.4 486.166 1024.11 483.616C1025.02 482.997 1025.85 482.253 1026.72 481.571C1025.64 481.371 1024.56 481.183 1023.68 481.025C1028.87 476.472 1034.33 472.129 1039.19 467.209C1041.51 464.859 1042.77 461.429 1044.36 458.408C1044.68 457.789 1044.34 456.813 1044.3 456.006C1043.63 456.152 1042.92 456.184 1042.31 456.446C1039.12 457.862 1035.97 459.373 1032.77 460.747C1032.08 461.041 1031.22 460.926 1030.45 460.999C1030.55 460.034 1030.39 458.922 1030.83 458.146C1031.32 457.285 1032.35 456.74 1033.14 456.068C1037.3 452.596 1041.67 449.355 1045.49 445.547C1046.77 444.267 1047.61 441.057 1046.88 439.672C1046.2 438.382 1043.17 438.172 1041.12 437.836C1040.06 437.668 1038.88 438.256 1037.75 438.507C1037.6 438.235 1037.44 437.951 1037.28 437.679C1040.76 434.888 1044.23 432.098 1047.9 429.16C1046.53 428.993 1045.35 428.846 1043.76 428.657C1046.27 426.475 1048.56 424.482 1051.11 422.258C1048.97 422.027 1047.31 422.174 1045.95 421.607C1044.1 420.831 1042.47 419.509 1040.74 418.418C1042.16 417.327 1043.53 416.121 1045.04 415.166C1047.95 413.32 1047.95 413.383 1047.12 410.96C1047.01 410.655 1047.34 409.911 1047.61 409.816C1052.31 408.222 1051.62 403.218 1053.87 400.091C1055.36 398.014 1054.39 397.437 1052.33 397.479C1049.78 397.532 1049.53 396.661 1051.34 394.993C1053.24 393.231 1055.15 391.468 1057.66 389.139C1056.09 389.139 1055.58 389.139 1055.07 389.139C1054.2 389.16 1053.33 389.181 1052.45 389.213C1052.93 388.489 1053.3 387.65 1053.9 387.052C1055.99 384.943 1058.13 382.877 1060.31 380.852C1061.81 379.467 1063.16 378.24 1059.79 377.631C1059.11 377.506 1058.51 377.002 1057.87 376.666C1058.4 376.247 1058.88 375.764 1059.46 375.428C1060.4 374.862 1061.41 374.379 1063.03 373.519C1059.78 372.481 1057.26 371.683 1053.96 370.624C1056.9 369.659 1059.03 368.956 1061.17 368.253C1061.97 367.991 1063.15 367.949 1063.49 367.393C1066.19 362.997 1068.75 358.518 1071.29 354.017C1071.54 353.566 1071.39 352.349 1071.36 352.339C1065.35 351.94 1070.63 349.538 1071.01 348.888C1072.21 346.8 1074.02 345.069 1075.47 343.107C1075.87 342.572 1076.03 341.104 1075.9 341.051C1070.86 339.048 1074.45 336.488 1075.86 334.925C1083.21 326.753 1085.17 316.86 1083.41 306.737C1082.66 302.436 1083.14 299.562 1085.17 295.795C1088.97 311.174 1085.2 328.221 1099.6 340.432C1096.87 340.432 1095.48 340.432 1094.1 340.432C1094.99 341.66 1095.75 343.034 1096.82 344.093C1098.5 345.751 1100.39 347.188 1102.52 348.993C1097.29 349.37 1096.14 350.933 1097.39 355.36C1097.68 356.346 1098.16 357.343 1098.78 358.172C1101.06 361.203 1101.51 364.246 1099.89 367.854C1098.74 370.424 1102.63 378.691 1105.02 379.436C1105.5 379.593 1106.38 379.257 1106.77 378.859C1110.15 375.407 1113.7 372.071 1116.69 368.305C1118.12 366.512 1118.52 363.889 1119.23 361.592C1119.34 361.256 1118.56 360.647 1118.18 360.165C1116.15 362.955 1114.73 359.378 1112.88 359.64C1110.88 359.934 1110.78 359.399 1112.33 358.088C1115.24 355.612 1118.03 352.968 1120.68 350.556C1118.31 349.853 1116.02 349.853 1114.88 348.709C1112.21 346.055 1115.93 345.163 1116.98 343.684C1118.75 341.198 1119.07 340.883 1115.66 341.828C1114.03 342.279 1111.83 340.778 1109.69 340.097C1113.09 337.411 1116.63 334.862 1119.87 331.977C1121.54 330.487 1122.7 328.421 1124.09 326.616C1122.27 327.424 1120.46 328.242 1118.65 329.05C1118.47 328.746 1118.27 328.463 1118.05 328.2C1120.13 325.515 1122.2 322.84 1124.27 320.154C1124.05 319.923 1123.84 319.682 1123.61 319.472C1123.57 319.441 1123.44 319.504 1123.35 319.525C1123.67 319.735 1123.97 319.955 1124.28 320.165C1122.13 319.819 1119.98 319.472 1117.84 319.116C1119.18 317.112 1120.39 314.993 1121.9 313.126C1124.88 309.423 1122.36 309.727 1119.74 309.989C1119.56 309.758 1119.36 309.548 1119.14 309.349C1121.63 305.531 1124.11 301.723 1126.59 297.904C1127.13 297.673 1127.66 297.432 1128.19 297.201C1128.17 297.117 1128.14 297.033 1128.12 296.949C1128.12 297.054 1128.14 297.149 1128.15 297.254C1127.45 297.18 1126.74 297.107 1126.04 297.044C1125.22 296.278 1124.32 294.778 1123.61 294.862C1119.69 295.365 1121.55 293.498 1122.32 292.061C1125.16 286.753 1128.01 281.455 1130.86 276.157C1131.59 276.587 1132.65 276.839 1133 277.479C1135.71 282.515 1138.44 287.571 1140.78 292.785C1141.28 293.907 1140.28 295.712 1139.96 297.201L1140.05 297.023C1139.6 297.6 1138.66 298.512 1138.8 298.712C1141.16 302.331 1143.65 305.856 1146.13 309.391C1146.5 309.937 1146.98 310.409 1147.41 310.923C1147.1 311.049 1146.79 311.164 1146.49 311.3C1142.7 313.021 1145.26 314.542 1146.74 315.864C1148.25 317.196 1149.98 318.276 1151.62 319.462C1151.53 319.724 1151.44 319.976 1151.35 320.238C1148.72 319.798 1146.09 319.357 1142.49 318.749C1144.27 320.815 1145.53 322.2 1146.67 323.669C1147.22 324.371 1147.54 325.242 1147.96 326.029C1146.88 326.26 1145.82 326.627 1144.73 326.679C1144.01 326.711 1143.29 326.302 1142.57 326.081C1142.74 326.879 1142.75 327.76 1143.12 328.463C1145.25 332.596 1147.46 336.698 1149.64 340.81L1149.81 340.716C1146.68 341.016 1146.01 342.723 1147.81 345.835C1148.84 347.639 1149.93 349.433 1150.85 351.3C1151.14 351.898 1151.35 353.042 1151.03 353.367C1148.06 356.346 1148.06 357.301 1151.52 359.714C1153.32 360.962 1155.24 362.053 1157.69 363.574C1155.59 363.931 1153.31 363.952 1153.22 364.371C1152.26 369.638 1150.06 365.683 1148.49 365.032C1147.23 364.508 1146.13 363.606 1144.91 362.945C1144.87 362.924 1144.01 363.91 1144.13 364.141C1146.84 369.617 1149.64 375.051 1152.4 380.506C1152.77 381.23 1153.02 382.016 1153.33 382.772C1152.47 382.74 1151.62 382.709 1150.76 382.677C1150.45 382.499 1150.16 382.321 1149.85 382.132C1150.03 382.447 1150.2 382.761 1150.38 383.076C1155.13 387.818 1159.92 392.528 1164.62 397.332C1165.54 398.277 1166.06 399.609 1166.77 400.763C1165.54 400.826 1164.31 400.91 1163.07 400.931C1162.57 400.931 1162.01 400.585 1161.57 400.71C1156.99 402.032 1153.35 401.917 1150.67 400.364C1150.16 400.07 1149.62 399.808 1148.21 399.063C1152.11 410.068 1158.85 416.551 1169.15 419.278C1170.53 419.646 1172.98 420.149 1173.27 419.646C1174.12 418.146 1174.98 415.712 1174.31 414.474C1172 410.236 1173.8 407.005 1175.61 403.343C1176.62 401.308 1176.79 398.654 1176.56 396.346C1176.5 395.706 1173.7 395.339 1171.96 394.783C1174.52 392.517 1176.91 390.514 1179.14 388.353C1179.61 387.902 1179.52 386.873 1179.68 386.108C1178.86 386.139 1178.03 386.181 1177.22 386.213C1176.9 385.929 1176.59 385.657 1176.28 385.373C1177.07 384.219 1177.77 383.003 1178.65 381.933C1182.8 376.824 1185.42 371.295 1185.74 364.445C1186.1 357.102 1187.58 349.811 1188.61 342.205C1191.99 345.594 1190.74 349.034 1190.39 352.706C1189.4 363.176 1190.89 373.162 1198.51 381.303C1199.21 382.058 1199.74 383.003 1200.2 383.936C1200.45 384.44 1200.62 385.541 1200.45 385.625C1194.67 388.51 1199.96 390.545 1201.2 392.412C1203.47 395.832 1203.68 395.654 1202.38 398.738C1202.24 399.084 1202.44 399.756 1202.71 400.07C1207.69 405.914 1209.1 415.292 1218.88 416.404C1219 416.415 1219.06 416.824 1219.16 417.075C1218.11 417.411 1217.11 417.715 1216.13 418.062C1214.68 418.576 1213.25 419.121 1211.81 419.646C1213.19 420.485 1214.57 421.314 1215.92 422.195C1216.15 422.352 1216.19 422.782 1216.32 423.087C1212.99 424.059 1212.58 425.769 1215.09 428.216C1216.83 429.926 1218.65 431.563 1220.34 433.325C1221 434.018 1221.41 434.951 1221.93 435.769C1220.98 435.675 1220.05 435.581 1219.1 435.486C1218.44 435.423 1217.78 435.35 1216.34 435.203C1218.42 437.112 1220.05 438.413 1221.43 439.934C1222.65 441.266 1226.95 443.427 1220.8 443.7C1220.36 443.721 1219.95 444.393 1219.52 444.76C1222.48 447.267 1220.36 452.208 1224.36 454.4C1226.82 455.743 1226.62 456.1 1226.31 458.177C1225.35 457.946 1224.38 457.715 1223.42 457.485C1224.14 457.978 1224.87 458.481 1225.59 458.974C1226.47 459.53 1227.4 460.034 1228.23 460.653C1229.93 461.922 1231.59 463.265 1233.27 464.576C1230.85 465.772 1228.47 467.031 1226 468.112C1225.34 468.405 1224.45 468.153 1222.65 468.153C1224.75 469.916 1226.19 471.07 1227.54 472.297C1228.37 473.052 1229.09 473.944 1229.84 474.773C1228.72 474.941 1227.6 475.109 1226.67 475.245C1229.79 478.214 1232.88 481.141 1235.96 484.078L1235.68 484.477C1235 484.403 1234.18 484.55 1233.65 484.225C1230.82 482.473 1227.97 483.375 1227.01 485.819C1226.37 487.424 1227.89 490.225 1229.07 492.103C1230.03 493.645 1231.91 494.631 1233.39 495.848C1236.48 498.408 1239.66 500.884 1242.61 503.59C1243.37 504.283 1243.43 505.709 1243.82 506.811C1242.75 506.716 1241.57 506.874 1240.62 506.486C1237.55 505.237 1234.57 503.81 1231.56 502.415C1229.8 501.597 1228.66 501.922 1229.57 503.968C1230.97 507.083 1232.2 510.556 1234.49 512.916C1239.43 517.994 1244.98 522.462 1250.2 527.089C1249.35 527.225 1248.3 527.403 1247.24 527.571C1257.67 530.865 1268.07 533.54 1278.51 536.027C1279.9 536.352 1281.53 535.922 1282.98 535.565C1286.5 534.694 1289.94 533.415 1293.49 532.743C1303.78 530.792 1314.34 529.869 1324.35 527.047C1336.56 523.606 1348.36 518.654 1360.33 514.322C1361.53 513.881 1362.67 513.262 1363.83 512.727C1362.05 512.035 1360.48 512.507 1359.04 512.266C1355.5 511.678 1351.97 510.913 1348.53 509.895C1347.66 509.633 1347.16 508.164 1346.49 507.251C1347.46 507.104 1348.47 506.716 1349.42 506.832C1355.16 507.535 1359.41 504.545 1364.82 501.23C1362.63 501.093 1361.62 501.041 1360.61 500.978C1361.21 500.296 1361.74 499.53 1362.43 498.943C1367.18 494.852 1372.25 491.075 1376.61 486.596C1378.9 484.246 1379.97 480.7 1381.44 477.616C1381.53 477.448 1380.06 476.074 1379.69 476.221C1376.44 477.511 1373.32 479.064 1370.1 480.417C1369.28 480.763 1368.26 480.658 1367.34 480.763C1367.61 479.672 1367.71 478.487 1368.22 477.521C1368.6 476.819 1369.53 476.409 1370.21 475.853C1374.09 472.601 1378.2 469.57 1381.75 465.992C1383.22 464.503 1384.66 461.44 1384.07 459.824C1383.23 457.485 1380.52 456.1 1377.52 457.862C1376.77 458.303 1375.64 458.093 1374.68 458.177C1374.55 457.936 1374.43 457.694 1374.31 457.464C1377.77 454.705 1381.21 451.946 1384.95 448.966C1383.45 448.809 1382.29 448.683 1380.67 448.515C1381.76 447.561 1382.56 446.91 1383.29 446.197C1384.49 445.043 1385.64 443.847 1386.82 442.662C1385.34 442.253 1383.76 442.043 1382.42 441.371C1380.75 440.543 1379.28 439.326 1377.73 438.287C1379 437.259 1380.19 436.126 1381.55 435.234C1383.67 433.839 1383.7 433.902 1383.99 430.472C1384.01 430.178 1384.33 429.769 1384.6 429.675C1389.49 428.007 1388.67 422.709 1391.04 419.446C1391.23 419.184 1390.43 417.883 1389.82 417.443C1389.11 416.929 1388.1 416.824 1387.21 416.551C1387.85 415.754 1388.4 414.883 1389.13 414.18C1390.73 412.596 1392.4 411.096 1394.66 408.998C1393.1 408.998 1392.58 408.998 1392.08 408.998C1391.21 409.019 1390.34 409.05 1389.46 409.071C1389.94 408.347 1390.3 407.508 1390.9 406.91C1392.99 404.802 1395.13 402.746 1397.31 400.71C1398.78 399.347 1400.22 398.119 1396.81 397.49C1396.13 397.364 1395.52 396.86 1394.87 396.535C1395.4 396.116 1395.88 395.633 1396.45 395.287C1397.4 394.72 1398.41 394.238 1400.04 393.378C1396.78 392.339 1394.26 391.542 1390.96 390.493C1393.88 389.528 1396.02 388.825 1398.16 388.122C1398.96 387.86 1400.15 387.828 1400.49 387.272C1403.19 382.877 1405.75 378.387 1408.28 373.897C1408.54 373.435 1408.39 372.218 1408.37 372.218C1402.4 371.862 1407.59 369.449 1407.99 368.767C1409.19 366.679 1411 364.948 1412.45 362.987C1412.85 362.441 1413.05 360.994 1412.9 360.931C1407.58 358.581 1411.79 355.864 1413.13 354.395C1420.63 346.181 1421.97 336.11 1420.37 326.113C1419.69 321.917 1420.51 319.326 1422.08 315.36C1425.96 331.033 1422.19 348.09 1436.54 360.27C1433.86 360.27 1432.46 360.27 1431.07 360.27C1431.96 361.508 1432.69 362.882 1433.76 363.941C1435.44 365.599 1437.34 367.036 1440.37 369.585C1434.33 368.001 1433.02 370.855 1434.35 374.096C1436.62 379.572 1438.59 384.65 1436.6 390.807C1436.19 392.056 1439.66 396.2 1441.23 396.137C1444.96 395.979 1452.38 384.817 1452.09 381.146C1452.06 380.726 1451.47 380.348 1451.13 379.96C1448.39 382.919 1446.49 378.261 1443.93 379.593L1443.2 378.418C1446.46 375.481 1449.72 372.544 1453.05 369.533C1451.01 369.071 1448.22 372.155 1447.47 368.452C1447.18 367.047 1448.78 365.253 1449.58 363.658C1449.81 363.207 1450.46 362.903 1450.53 362.462C1450.61 362.032 1450.24 361.13 1450 361.109C1447.54 360.857 1445.07 360.752 1441.77 360.542C1445.73 357.406 1449.35 354.794 1452.66 351.846C1454.33 350.367 1455.49 348.29 1456.87 346.485C1455.06 347.293 1453.25 348.111 1451.44 348.919C1451.26 348.615 1451.06 348.332 1450.84 348.069C1452.92 345.384 1454.98 342.709 1457.06 340.023C1456.84 339.792 1456.63 339.551 1456.4 339.331C1456.36 339.299 1456.23 339.362 1456.14 339.394C1456.45 339.604 1456.77 339.824 1457.07 340.034C1454.92 339.687 1452.77 339.341 1450.63 338.995C1451.97 336.991 1453.18 334.872 1454.69 333.005C1457.68 329.291 1455.15 329.606 1452.53 329.868C1452.34 329.638 1452.14 329.428 1451.93 329.239C1454.42 325.42 1456.9 321.612 1459.38 317.794C1459.92 317.563 1460.44 317.322 1460.98 317.091C1460.95 317.007 1460.92 316.923 1460.89 316.839C1460.9 316.944 1460.92 317.039 1460.93 317.144C1460.22 317.07 1459.52 316.997 1458.82 316.934C1457.99 316.168 1457.11 314.689 1456.35 314.752C1452.48 315.098 1454.4 313.231 1455.14 311.898C1457.68 307.345 1460.26 302.803 1462.87 298.292C1463.36 297.432 1464.08 296.708 1464.7 295.921C1465.24 296.719 1465.87 297.463 1466.3 298.313C1468.68 302.939 1470.8 307.713 1473.43 312.182C1474.71 314.353 1474.12 315.622 1472.74 317.102L1472.82 316.923C1472.38 317.5 1471.44 318.413 1471.57 318.612C1473.94 322.231 1476.43 325.756 1478.9 329.291C1479.28 329.837 1479.75 330.309 1480.18 330.823C1479.88 330.949 1479.57 331.064 1479.27 331.201C1475.48 332.921 1478.04 334.442 1479.52 335.764C1481.02 337.096 1482.76 338.177 1484.4 339.362C1484.3 339.625 1484.22 339.876 1484.12 340.139C1481.5 339.698 1478.86 339.257 1475.27 338.649C1477.06 340.726 1478.32 342.1 1479.45 343.569C1480 344.272 1480.32 345.143 1480.74 345.929C1479.66 346.16 1478.6 346.527 1477.51 346.58C1476.79 346.611 1476.07 346.202 1475.34 345.982C1475.52 346.779 1475.53 347.66 1475.9 348.363C1478.03 352.496 1480.24 356.598 1482.42 360.71L1482.59 360.616C1479.46 360.917 1478.79 362.623 1480.58 365.735C1481.62 367.54 1482.7 369.333 1483.63 371.201C1483.92 371.799 1484.13 372.942 1483.81 373.267C1480.84 376.247 1480.84 377.201 1484.3 379.614C1486.1 380.862 1488.02 381.953 1490.46 383.475C1488.36 383.831 1486.09 383.852 1486 384.272C1485.04 389.538 1482.84 385.583 1481.27 384.933C1480.01 384.408 1478.9 383.506 1477.69 382.845C1477.64 382.824 1476.79 383.81 1476.91 384.041C1479.62 389.517 1482.42 394.951 1485.18 400.406C1485.55 401.13 1485.8 401.917 1486.11 402.672C1485.25 402.641 1484.4 402.609 1483.53 402.578C1483.23 402.399 1482.94 402.221 1482.63 402.032C1482.81 402.347 1482.98 402.662 1483.16 402.976C1487.91 407.718 1492.71 412.428 1497.39 417.233C1498.32 418.177 1498.83 419.509 1499.54 420.663C1498.31 420.716 1497.07 420.81 1495.84 420.821C1495.34 420.821 1494.78 420.485 1494.34 420.611C1489.71 421.961 1486.08 421.842 1483.44 420.254C1482.94 419.95 1482.4 419.698 1480.98 418.964C1484.06 427.597 1488.64 433.661 1496.1 437.06C1500.82 439.2 1505.84 440.689 1510.72 442.462C1509.75 443.774 1507.26 443.029 1507.07 445.945C1506.97 447.298 1503.69 449.554 1501.76 446.061C1501.68 446.165 1501.59 446.281 1501.49 446.375C1501.45 446.417 1501.35 446.396 1501.28 446.407C1501.46 446.302 1501.63 446.197 1501.8 446.092C1501.62 446.721 1501.25 447.351 1501.27 447.97C1501.31 449.04 1501.59 450.099 1501.77 451.169C1500.64 450.76 1499.41 450.519 1498.4 449.9C1493.72 447.026 1489.1 444.036 1484.16 440.91C1485.1 449.732 1487.86 457.653 1495.3 462.95C1500.52 466.664 1506.27 469.633 1511.78 472.927V476.074C1509.03 479.347 1507.53 475.507 1505.42 475.035C1503.53 474.616 1501.53 474.658 1499.59 474.5C1499.96 475.581 1500.32 476.661 1500.69 477.742C1500.32 478.088 1499.97 478.434 1499.6 478.791C1497.98 477.91 1496.37 477.039 1494.76 476.158C1494.92 475.958 1495.08 475.759 1495.24 475.56C1494.81 475.749 1494.37 475.948 1493.94 476.137C1492.47 475.339 1490.88 474.699 1489.57 473.692C1487.61 472.192 1485.85 470.43 1484.01 468.783C1485.92 478.906 1489.33 487.991 1498.21 493.53C1502.48 496.184 1507.24 498.009 1511.78 500.212V504.408C1504.11 507.87 1497.24 504.377 1490.25 501.545C1496.02 508.972 1501.99 515.707 1511.78 516.997L1511.91 517.165ZM117.034 473.283C114.902 473.682 112.771 474.07 110.65 474.542C110.618 474.542 110.65 475.811 110.975 476.221C112.708 478.361 114.535 480.427 116.372 482.473C116.414 482.515 117.107 482.148 117.328 481.843C119.417 479.001 121.507 476.147 123.502 473.231C123.827 472.759 123.68 471.961 123.754 471.322C123.029 471.531 122.252 471.647 121.591 471.982C120.667 472.455 119.9 473.262 118.945 473.588C118.367 473.787 117.559 473.367 116.866 473.22C116.897 472.937 116.929 472.643 116.95 472.36C116.771 472.497 116.582 472.633 116.404 472.78C116.614 472.948 116.824 473.115 117.034 473.273V473.283ZM170.574 551.406C169.975 551.049 169.083 550.252 168.831 550.42C166.248 552.129 163.864 552.601 161.523 550.031C161.428 549.926 160.221 550.524 159.916 551.017C159.717 551.343 160.032 552.329 160.42 552.612C162.373 554.049 164.473 555.298 166.384 556.777C166.752 557.06 166.626 558.119 166.563 558.812C166.479 559.63 165.817 560.91 166.101 561.13C166.857 561.739 168.327 562.463 168.904 562.127C171.708 560.459 174.438 558.602 176.916 556.483C177.714 555.801 178.281 553.367 177.882 553.042C176.097 551.573 173.934 550.566 171.897 549.391C171.792 549.727 171.697 550.052 171.592 550.388C171.256 550.724 170.92 551.07 170.584 551.406H170.574ZM165.807 466.979C164.106 467.912 164.263 460.737 161.565 466.013C161.113 465.709 160.609 465.447 160.231 465.08C159.444 464.314 158.719 463.496 157.963 462.688C157.501 462.929 157.039 463.181 156.577 463.422C159.444 469.79 162.321 476.147 165.187 482.515C169.692 479.745 174.196 476.986 178.69 474.206C179.131 473.934 179.593 473.608 179.877 473.199C180.108 472.864 180.192 471.993 180.139 471.972C178.06 471.29 174.291 469.821 174.102 470.189C172.527 473.252 172.075 470.577 171.319 469.842C169.734 468.3 168.169 466.727 166.605 465.174C166.521 465.426 166.416 465.678 166.363 465.94C166.332 466.108 166.374 466.286 166.384 466.454C166.195 466.632 166.006 466.811 165.807 467V466.979ZM1151.54 421.104C1152.46 430.566 1155.63 438.644 1163.83 444.099C1167.83 446.763 1170.39 445.693 1171.42 441.036C1172.11 437.889 1173.1 434.804 1173.56 431.626C1173.7 430.661 1172.72 429.276 1171.86 428.542C1171.37 428.122 1169.66 428.237 1169.25 428.741C1167.19 431.238 1167.23 431.374 1164.69 429.748C1160.49 427.052 1156.34 424.261 1151.55 421.104H1151.54ZM1151.54 449.134C1151.03 449.365 1150.5 449.585 1149.99 449.816C1152.24 454.778 1154.24 459.876 1156.79 464.681C1159.15 469.098 1159.39 468.951 1162.7 465.027C1163.6 463.968 1164.73 463.087 1165.5 461.954C1166.06 461.114 1166.78 459.646 1166.43 459.09C1165.63 457.831 1164.31 456.247 1163.03 456.068C1158.87 455.502 1158.83 455.722 1156.91 453.991C1155.11 452.386 1153.33 450.76 1151.54 449.145V449.134ZM164.641 495.429C165.702 498.649 166.731 502.122 168.054 505.468C168.327 506.171 170.112 507.063 170.511 506.8C172.663 505.395 174.711 503.769 176.538 501.954C176.947 501.545 176.643 499.572 176.086 499.205C173.199 497.317 170.122 495.712 167.098 494.023C166.531 493.708 165.901 493.488 165.292 493.226C165.114 493.834 164.935 494.443 164.641 495.429ZM1115.95 391.29C1114.78 391.573 1109.83 392.769 1109.83 392.769C1108.4 394.458 1105.59 396.399 1105.84 397.794C1106.29 400.354 1108.53 402.609 1110.04 404.99C1110.36 404.697 1110.82 404.455 1110.97 404.088C1112.58 400.039 1114.13 395.979 1115.94 391.3L1115.95 391.29ZM161.323 520.081C161.008 520.931 160.641 521.445 160.651 521.959C160.693 524.54 160.557 527.173 160.998 529.69C161.88 534.684 163.581 535.072 167.529 531.862C169.797 530.016 169.45 528.767 167.56 526.963C165.45 524.949 163.623 522.641 161.334 520.081H161.323Z" fill="#05502F"/>
<path d="M598.851 452.47C598.137 452.617 597.423 452.774 596.709 452.921C597.087 452.439 597.465 451.967 597.832 451.484C598.169 451.809 598.505 452.145 598.841 452.47H598.851Z" fill="#05502F"/>
<path d="M288.28 554.5C287.482 554.458 286.684 554.427 285.886 554.385C286.411 554.102 286.946 553.808 287.471 553.525C287.744 553.85 288.007 554.175 288.28 554.5Z" fill="#05502F"/>
<path d="M896.15 428.647L893.756 428.531C894.281 428.248 894.816 427.954 895.341 427.671C895.604 427.996 895.877 428.321 896.139 428.647H896.15Z" fill="#05502F"/>
<path d="M63.4101 472.402C62.6961 472.549 61.9821 472.706 61.2681 472.853C61.6461 472.371 62.0241 471.899 62.3916 471.416C62.7276 471.741 63.0636 472.077 63.4101 472.402Z" fill="#05502F"/>
<path d="M208.815 388.573C209.13 388.426 209.444 388.29 209.759 388.143C209.78 388.29 209.812 388.437 209.833 388.583C209.518 388.52 209.203 388.458 208.899 388.395L208.815 388.573Z" fill="#05502F"/>
<path d="M120.394 391.049C120.457 391.363 120.531 391.678 120.593 391.993C120.457 391.993 120.321 391.982 120.195 391.972C120.321 391.689 120.447 391.416 120.572 391.133L120.405 391.049H120.394Z" fill="#05502F"/>
<path d="M154.53 399.619C154.75 399.987 154.971 400.354 155.191 400.721C154.761 400.637 154.33 400.564 153.9 400.48L154.53 399.619Z" fill="#05502F"/>
<path d="M188.592 401.361C188.172 401.455 187.762 401.56 187.342 401.654C187.563 401.35 187.773 401.035 187.993 400.731C188.203 400.931 188.403 401.14 188.592 401.371V401.361Z" fill="#05502F"/>
<path d="M899.877 401.445C900.276 401.686 900.665 401.917 901.064 402.158C900.696 401.906 900.318 401.665 899.951 401.413L899.877 401.445Z" fill="#05502F"/>
<path d="M911.637 402.441C911.742 402.578 911.847 402.714 911.931 402.861C911.994 402.966 912.015 403.092 912.057 403.207C911.91 402.966 911.763 402.725 911.616 402.483L911.637 402.441Z" fill="#05502F"/>
<path d="M606.18 411.547L604.92 411.977C605.025 411.557 605.14 411.138 605.245 410.708C605.56 410.991 605.875 411.264 606.18 411.547Z" fill="#05502F"/>
<path d="M122.757 412.187C122.83 412.418 122.903 412.659 122.977 412.89C122.746 412.879 122.526 412.869 122.295 412.858C122.505 412.67 122.704 412.481 122.914 412.281L122.757 412.187Z" fill="#05502F"/>
<path d="M187.5 420.422C187.028 420.422 186.555 420.432 186.083 420.443C186.356 420.149 186.629 419.866 186.902 419.572C187.122 419.845 187.322 420.128 187.49 420.422H187.5Z" fill="#05502F"/>
<path d="M340.086 420.39L339.247 421.219C339.54 420.957 339.845 420.695 340.138 420.432L340.086 420.39Z" fill="#05502F"/>
<path d="M320.472 423.087C320.168 423.16 319.853 423.233 319.549 423.307L319.968 422.635L320.535 423.265L320.472 423.087Z" fill="#05502F"/>
<path d="M971.067 428.353C971.004 428.489 970.941 428.594 970.888 428.709C970.721 428.594 970.553 428.478 970.385 428.363C970.5 428.248 970.605 428.048 970.72 428.048C970.836 428.048 970.951 428.237 971.067 428.342V428.353Z" fill="#05502F"/>
<path d="M125.833 382.153C125.833 382.279 125.875 382.436 125.822 382.499C125.738 382.593 125.581 382.614 125.455 382.667L125.487 381.964C125.612 382.027 125.728 382.09 125.843 382.153H125.833Z" fill="#05502F"/>
<path d="M218.496 432.203C218.706 432.392 218.905 432.591 219.115 432.78C218.884 432.78 218.664 432.801 218.433 432.811C218.507 432.58 218.59 432.339 218.664 432.108L218.496 432.203Z" fill="#05502F"/>
<path d="M313.301 436.609H313.679L313.458 437.312C313.343 437.186 313.175 437.081 313.112 436.934C313.081 436.861 313.228 436.714 313.291 436.609H313.301Z" fill="#05502F"/>
<path d="M117.464 438.382C117.558 438.623 117.663 438.854 117.758 439.095C117.527 439.095 117.285 439.116 117.055 439.126C117.244 438.917 117.443 438.696 117.632 438.487L117.464 438.392V438.382Z" fill="#05502F"/>
<path d="M959.728 379.729C959.938 379.992 960.148 380.265 960.368 380.527C959.99 380.411 959.612 380.296 959.234 380.181C959.402 380.034 959.57 379.876 959.738 379.729H959.728Z" fill="#05502F"/>
<path d="M308.314 445.588C308.377 445.903 308.45 446.218 308.513 446.533C308.377 446.533 308.24 446.522 308.114 446.512C308.24 446.228 308.366 445.956 308.492 445.672L308.324 445.588H308.314Z" fill="#05502F"/>
<path d="M165.544 449.575L165.208 449.648L165.271 449.375L165.544 449.575Z" fill="#05502F"/>
<path d="M132.552 368.557C132.247 368.631 131.933 368.704 131.628 368.778L132.048 368.106C132.237 368.316 132.426 368.526 132.615 368.736L132.552 368.557Z" fill="#05502F"/>
<path d="M163.927 451.044C164.137 451.306 164.347 451.579 164.568 451.841C164.19 451.726 163.812 451.61 163.434 451.495C163.602 451.348 163.77 451.191 163.938 451.044H163.927Z" fill="#05502F"/>
<path d="M913.264 367.068C913.359 367.309 913.463 367.54 913.558 367.781C913.327 367.781 913.086 367.802 912.855 367.812C913.044 367.603 913.243 367.382 913.432 367.173L913.264 367.078V367.068Z" fill="#05502F"/>
<path d="M342.449 454.149C342.67 454.516 342.89 454.883 343.111 455.25L341.819 455.009C342.029 454.726 342.239 454.432 342.449 454.149Z" fill="#05502F"/>
<path d="M152.156 365.861C151.872 366.134 151.6 366.417 151.316 366.69C151.61 366.428 151.914 366.165 152.208 365.903L152.156 365.861Z" fill="#05502F"/>
<path d="M981.001 460.212C981.253 460.695 981.494 461.178 981.746 461.66C981.221 461.545 980.686 461.429 980.161 461.314C980.444 460.947 980.728 460.58 981.011 460.212H981.001Z" fill="#05502F"/>
<path d="M310.676 466.716C310.749 466.947 310.823 467.188 310.896 467.419C310.665 467.409 310.445 467.398 310.214 467.388C310.424 467.199 310.623 467.01 310.833 466.811L310.676 466.716Z" fill="#05502F"/>
<path d="M918.556 340.873C918.63 341.104 918.703 341.345 918.777 341.576C918.546 341.565 918.326 341.555 918.095 341.544C918.305 341.356 918.504 341.167 918.714 340.967L918.556 340.873Z" fill="#05502F"/>
<path d="M1118.73 329.186C1118.26 329.186 1117.79 329.197 1117.31 329.207C1117.59 328.914 1117.86 328.63 1118.13 328.337C1118.35 328.609 1118.55 328.893 1118.73 329.186Z" fill="#05502F"/>
<path d="M950.319 328.295C950.54 328.662 950.76 329.029 950.981 329.396C950.55 329.312 950.12 329.239 949.689 329.155C949.899 328.872 950.109 328.578 950.319 328.295Z" fill="#05502F"/>
<path d="M593.286 477.322C593.538 476.881 593.8 476.43 594.052 475.99C594.325 476.315 594.588 476.64 594.861 476.955C594.294 477.049 593.716 477.144 593.149 477.238L593.286 477.322Z" fill="#05502F"/>
<path d="M916.194 319.735C916.257 320.049 916.33 320.364 916.393 320.679C916.257 320.679 916.121 320.668 915.995 320.658C916.121 320.375 916.246 320.102 916.372 319.819L916.204 319.735H916.194Z" fill="#05502F"/>
<path d="M593.149 477.238C593.128 477.553 593.097 477.868 593.076 478.172C592.929 478.14 592.782 478.119 592.625 478.088C592.845 477.826 593.065 477.574 593.285 477.312L593.149 477.228V477.238Z" fill="#05502F"/>
<path d="M962.542 481.938C962.437 482.032 962.321 482.127 962.216 482.221C962.132 482.106 961.965 481.98 961.975 481.875C961.986 481.77 962.174 481.686 962.279 481.592C962.363 481.707 962.447 481.823 962.542 481.938Z" fill="#05502F"/>
<path d="M895.751 485.316C896.129 485.578 896.507 485.84 896.885 486.103C896.748 486.208 896.612 486.302 896.475 486.407C896.265 486.029 896.055 485.662 895.845 485.284L895.751 485.316Z" fill="#05502F"/>
<path d="M305.394 492.921C305.489 493.163 305.594 493.393 305.688 493.635C305.457 493.635 305.216 493.656 304.985 493.666C305.174 493.456 305.374 493.236 305.562 493.026L305.394 492.932V492.921Z" fill="#05502F"/>
<path d="M59.4303 496.887C58.8633 496.981 58.2858 497.076 57.7188 497.16L57.8552 497.244C58.1072 496.803 58.3698 496.352 58.6218 495.911C58.8948 496.237 59.1573 496.562 59.4303 496.876V496.887Z" fill="#05502F"/>
<path d="M57.7184 497.17C57.6974 497.485 57.6659 497.8 57.6449 498.104C57.4981 498.072 57.3512 498.051 57.1938 498.02C57.4141 497.758 57.6344 497.506 57.8547 497.244L57.7184 497.16V497.17Z" fill="#05502F"/>
<path d="M921.727 310.933C921.664 311.049 921.601 311.164 921.538 311.29C921.35 311.174 921.171 311.049 920.982 310.933C921.108 310.818 921.234 310.608 921.36 310.608C921.486 310.608 921.612 310.818 921.727 310.933Z" fill="#05502F"/>
<path d="M351.857 505.583C352.067 505.846 352.277 506.119 352.498 506.381C352.12 506.265 351.742 506.15 351.364 506.035C351.532 505.888 351.7 505.73 351.868 505.583H351.857Z" fill="#05502F"/>
<path d="M895.11 506.423C894.69 506.496 894.27 506.559 893.861 506.633C894.081 506.276 894.302 505.919 894.522 505.573C894.743 505.846 894.942 506.129 895.121 506.423H895.11Z" fill="#05502F"/>
<path d="M665.042 509.402C665.168 509.738 665.294 510.073 665.42 510.409C665.147 510.241 664.864 510.063 664.591 509.895C664.738 509.727 664.885 509.559 665.042 509.402Z" fill="#05502F"/>
<path d="M1119.82 310.115C1119.4 310.209 1118.99 310.304 1118.57 310.409C1118.79 310.104 1119 309.79 1119.22 309.485C1119.43 309.685 1119.63 309.894 1119.82 310.125V310.115Z" fill="#05502F"/>
<path d="M241.88 518.948C242.143 519.284 242.395 519.63 242.657 519.966C242.143 519.882 241.639 519.798 241.124 519.725C241.376 519.462 241.628 519.211 241.88 518.948Z" fill="#05502F"/>
<path d="M292.007 527.299L293.193 528.012C292.826 527.76 292.448 527.519 292.08 527.267L292.007 527.299Z" fill="#05502F"/>
<path d="M303.767 528.285C303.872 528.421 303.977 528.557 304.061 528.704C304.124 528.809 304.145 528.935 304.187 529.04C304.04 528.799 303.893 528.557 303.746 528.316L303.767 528.274V528.285Z" fill="#05502F"/>
<path d="M928.353 297.233C928.049 297.306 927.734 297.38 927.43 297.453C927.566 297.233 927.713 297.002 927.849 296.782C928.038 296.992 928.227 297.201 928.416 297.411L928.353 297.233Z" fill="#05502F"/>
<path d="M947.957 294.547C947.674 294.82 947.401 295.103 947.118 295.376C947.411 295.114 947.716 294.851 948.009 294.589L947.957 294.547Z" fill="#05502F"/>
<path d="M363.187 554.196C363.124 554.333 363.061 554.438 363.008 554.553C362.841 554.438 362.673 554.322 362.505 554.207C362.62 554.091 362.725 553.892 362.841 553.892C362.956 553.892 363.071 554.081 363.187 554.186V554.196Z" fill="#05502F"/>
<path d="M70.7493 431.468C70.3293 431.615 69.9093 431.752 69.4893 431.899C69.5943 431.479 69.7098 431.059 69.8148 430.629C70.1298 430.912 70.4448 431.185 70.7493 431.468Z" fill="#05502F"/>
<path d="M1177.31 386.381C1176.89 386.527 1176.47 386.664 1176.05 386.811C1176.15 386.391 1176.27 385.971 1176.38 385.552C1176.69 385.835 1177.01 386.108 1177.31 386.391V386.381Z" fill="#05502F"/>
<path d="M1482.54 360.889C1482.74 361.078 1482.95 361.277 1483.14 361.466C1482.91 361.466 1482.69 361.476 1482.46 361.487C1482.54 361.256 1482.62 361.025 1482.69 360.784L1482.53 360.878L1482.54 360.889Z" fill="#05502F"/>
<path d="M1451.54 351.206C1451.11 351.28 1450.67 351.343 1450.24 351.416C1450.47 351.059 1450.71 350.703 1450.94 350.346C1451.16 350.619 1451.36 350.902 1451.54 351.196V351.206Z" fill="#05502F"/>
<path d="M1149.73 340.957C1149.93 341.146 1150.14 341.345 1150.33 341.534C1150.1 341.534 1149.88 341.544 1149.65 341.555C1149.73 341.324 1149.81 341.093 1149.88 340.852L1149.72 340.946L1149.73 340.957Z" fill="#05502F"/>
<path d="M1452.63 330.047C1452.21 330.141 1451.8 330.246 1451.38 330.34C1451.6 330.036 1451.81 329.721 1452.03 329.417C1452.25 329.617 1452.45 329.826 1452.63 330.047Z" fill="#05502F"/>
<path d="M1472.84 317.259C1473.16 317.112 1473.47 316.965 1473.79 316.818C1473.81 316.965 1473.84 317.112 1473.86 317.259C1473.55 317.196 1473.23 317.133 1472.92 317.08L1472.83 317.259H1472.84Z" fill="#05502F"/>
<path d="M1236.07 484.277C1236.24 484.508 1236.44 484.728 1236.56 484.98C1236.59 485.043 1236.39 485.221 1236.3 485.347C1236.13 485.127 1235.95 484.896 1235.79 484.676L1236.07 484.277Z" fill="#05502F"/>
<path d="M1140.03 297.338C1140.35 297.191 1140.66 297.044 1140.98 296.897C1141 297.044 1141.03 297.191 1141.05 297.338C1140.74 297.275 1140.42 297.212 1140.11 297.159L1140.02 297.338H1140.03Z" fill="#05502F"/>
<path d="M166.373 466.444C166.499 467.052 166.614 467.66 166.74 468.258C166.426 467.828 166.111 467.409 165.807 466.979C165.995 466.8 166.184 466.622 166.384 466.433L166.373 466.444Z" fill="#05502F"/>
<path d="M171.582 550.388C171.729 551.091 171.886 551.783 172.033 552.486C171.55 552.13 171.057 551.773 170.574 551.416C170.91 551.081 171.246 550.734 171.582 550.399V550.388Z" fill="#05502F"/>
</svg>
