<svg width="1512" height="982" viewBox="0 0 1512 982" fill="none" xmlns="http://www.w3.org/2000/svg">
<g clip-path="url(#clip0_224_452)">
<path d="M258 339.244H265C265 328.374 265.36 317.744 264.87 307.164C264.54 300.044 266.12 293.874 269.94 287.934C273.42 282.514 276.36 276.744 279.97 270.374C282.55 274.864 284.87 278.894 287.19 282.924C287.46 282.864 287.73 282.804 288 282.744C288 278.524 288 274.294 288 270.074C288 249.754 288.02 229.424 287.97 209.104C287.97 206.524 287.75 204.094 291.95 205.524V157.484C294.39 157.194 296.47 156.944 298.49 156.704C304.04 111.324 328.92 83.9641 374 74.4141C374 65.3141 373.95 55.8441 374.04 46.3841C374.06 44.6141 374.21 42.6241 375.03 41.1341C379.2 33.5841 383.61 26.1741 387.93 18.7141C387.89 20.2041 388.15 21.7841 387.75 23.1741C383.54 37.9141 383.94 53.0141 383.88 68.1141C383.86 72.4741 385 74.1241 389.41 75.4941C417.8 84.3141 436.59 103.044 444.94 131.684C446.95 138.574 447.6 145.854 448.95 153.354C459.21 154.284 469.59 155.224 479.96 156.164C482.84 156.574 485.73 156.984 488.83 157.434C488.83 160.074 488.83 162.644 488.83 165.224C483.41 164.684 478 164.124 472.58 163.604C461.08 162.494 449.58 161.404 438.08 160.304C414.59 160.284 391.1 160.404 367.62 160.124C362.82 160.064 361.9 161.674 361.91 166.074C362.05 217.214 362 268.354 362 319.504C362 329.911 367.187 334.424 377.56 333.044C377.86 333.004 378.12 332.744 378.98 332.254C378.98 324.964 379.04 317.344 378.9 309.734C378.88 308.914 377.73 307.444 377.06 307.424C373.74 307.284 374 305.094 374 302.874C374.01 271.554 373.93 240.234 374.06 208.924C374.1 199.224 381.29 190.884 389.18 187.804C404.96 181.644 421.98 193.414 422 210.274C422.04 240.764 422.02 271.244 422 301.734C422 303.364 421.86 304.994 421.78 306.964C420.02 307.064 418.57 307.144 417.12 307.224C417.08 305.414 417.2 303.574 416.98 301.784C416.33 296.494 415.55 291.214 414.83 285.924C414.89 268.114 415.1 250.304 414.93 232.494C414.85 223.764 407.61 216.724 399.04 216.274C390.15 215.804 381.54 222.194 381.28 230.944C380.74 248.994 381.12 267.064 381.12 286.294C382.5 284.144 383.25 282.944 384.03 281.764C388.71 274.634 393.4 267.514 398.08 260.384C398.38 260.754 398.68 261.124 398.98 261.494L399.12 261.684C399.18 264.334 399.1 267.004 399.33 269.644C400.17 279.224 401.89 288.784 401.9 298.364C402.05 526.334 402.01 754.304 402.01 982.264H388.01C388.01 802.064 388.03 621.864 387.88 441.674C387.88 437.544 386.68 433.074 384.84 429.354C380.94 421.494 365.74 416.784 357.79 427.014C357.21 427.774 356.62 428.524 356.03 429.274C355.86 429.414 355.69 429.544 355.52 429.684C355.62 429.664 355.77 429.684 355.82 429.624C355.91 429.524 355.94 429.364 355.99 429.234C356.71 428.624 357.42 428.014 358.14 427.404C358.62 427.264 359.16 427.224 359.57 426.974C371.53 419.714 385.29 426.974 385.26 443.194C384.87 622.874 385.02 802.564 385.02 982.244H349.02C349.02 802.044 349.04 621.844 348.89 441.654C348.89 437.524 347.69 433.054 345.85 429.334C341.95 421.474 326.75 416.764 318.8 426.994C318.22 427.754 317.63 428.504 317.04 429.254C316.87 429.394 316.7 429.524 316.53 429.664C316.63 429.644 316.78 429.664 316.83 429.604C316.92 429.504 316.95 429.344 317 429.214C317.72 428.604 318.43 427.994 319.15 427.384C319.63 427.244 320.17 427.204 320.58 426.954C332.54 419.694 346.3 426.954 346.27 443.174C345.88 622.854 346.03 802.544 346.03 982.224H311.03C311.03 913.774 311.03 845.324 311.03 776.874C311.03 665.124 311.06 553.374 310.9 441.624C310.9 437.494 309.7 433.024 307.86 429.304C303.96 421.444 288.76 416.734 280.81 426.974C280.23 427.734 279.64 428.484 279.05 429.234C278.88 429.374 278.71 429.504 278.54 429.644C278.64 429.624 278.79 429.644 278.84 429.584C278.93 429.484 278.96 429.324 279.01 429.194C279.73 428.584 280.44 427.974 281.16 427.364C281.64 427.224 282.18 427.184 282.59 426.934C294.55 419.674 308.31 426.934 308.27 443.164C307.88 622.844 308.03 802.534 308.03 982.214H258V339.244ZM338 308.014C338 283.214 338.01 258.934 338 234.654C338 226.954 333.93 222.224 327.45 222.254C321 222.284 317.02 227.014 317.02 234.774C317 258.064 317.01 281.364 317.02 304.654C317.02 306.094 317.18 307.534 317.27 309.124C324.26 308.754 330.86 308.394 338.01 308.014H338ZM312.65 224.114C307.13 225.754 305.98 229.484 305.99 234.104C306.02 257.574 305.99 281.034 306.02 304.504C306.02 305.944 306.22 307.384 306.33 308.944H312.65V224.124V224.114ZM340.77 398.034V366.684H332.2V398.034H340.77ZM328.76 398.104V367.594H320.31V398.104H328.76ZM291 470.094C291 460.974 291.23 452.354 290.81 443.774C290.72 441.924 288.28 440.194 286.92 438.404C285.29 439.754 282.32 441.044 282.26 442.464C281.83 451.654 282.04 460.884 282.04 470.104H291V470.094ZM303 470.124C303 460.914 303.24 452.144 302.8 443.404C302.71 441.664 300.03 440.054 298.54 438.384C297.03 439.864 294.3 441.294 294.23 442.844C293.82 451.884 294.03 460.944 294.03 470.124H303.01H303ZM329 470.104C329 460.954 329.24 452.184 328.8 443.454C328.71 441.704 326.06 440.074 324.59 438.384C323.07 439.854 320.3 441.254 320.23 442.794C319.81 451.834 320.02 460.904 320.02 470.104H328.99H329ZM341 470.084C341 460.944 341.23 452.324 340.81 443.734C340.72 441.894 338.25 440.174 336.88 438.404C335.27 439.764 332.32 441.074 332.26 442.504C331.84 451.694 332.04 460.914 332.04 470.074H341V470.084ZM367 470.124C367 460.874 367.24 452.094 366.8 443.354C366.71 441.624 364 440.034 362.5 438.374C361.01 439.874 358.29 441.314 358.22 442.884C357.81 451.914 358.02 460.984 358.02 470.124H367ZM379 470.094C379 460.964 379.23 452.344 378.81 443.764C378.72 441.924 376.26 440.194 374.9 438.414C373.28 439.774 370.32 441.064 370.26 442.494C369.84 451.684 370.04 460.904 370.04 470.104H379V470.094Z" fill="#06292E"/>
<path d="M414.82 285.914C415.55 291.194 416.33 296.474 416.97 301.774C417.19 303.564 417.07 305.394 417.11 307.214C417.07 314.704 416.91 322.194 417.11 329.664C417.15 331.084 418.53 333.554 419.53 333.684C425.5 334.454 431.54 334.684 438 335.124C438 332.444 438 330.474 438 328.504C438.03 272.434 438.06 216.364 438.09 160.294C449.59 161.394 461.09 162.484 472.59 163.594C478.01 164.114 483.42 164.674 488.84 165.214C488.89 172.364 488.97 179.524 489 186.674C489.03 193.644 489 200.624 489 207.934C490.39 208.144 491.59 208.324 493 208.534C493 231.764 492.98 254.714 493.03 277.664C493.03 279.594 493.48 281.524 493.72 283.454C491.15 288.584 486.73 293.594 486.36 298.884C485.34 313.274 486.03 327.774 486.08 342.234C486.08 342.824 486.5 343.414 486.66 343.824H496C496 340.294 495.9 337.154 496.02 334.024C496.6 317.974 494.45 301.824 497.96 285.884C498.92 281.544 499.32 277.074 499.98 272.664C500.65 272.444 501.83 271.924 501.9 272.044C506.6 280.264 511.29 288.504 515.76 296.864C516.39 298.044 515.99 299.814 515.99 301.304C516 314.754 515.99 328.214 515.99 341.834C518.08 342.084 519.7 342.274 522.02 342.544C522.02 429.064 522.02 515.654 522.02 602.244C509.94 606.044 497.85 609.844 484.99 613.884C484.99 610.964 484.99 609.174 484.99 607.374C484.99 580.914 484.99 554.454 484.99 527.994C484.99 497.544 484.96 467.084 485.01 436.634C485.02 427.564 492.18 422.204 500.86 424.794C503.36 425.534 505.63 427.054 508 428.204C508.05 428.334 508.08 428.484 508.17 428.594C508.22 428.654 508.36 428.634 508.46 428.654C508.29 428.514 508.13 428.384 507.96 428.244C506.39 426.474 505.16 424.074 503.2 423.044C492.84 417.624 482.02 424.704 482.01 436.824C481.96 483.774 481.99 530.734 481.99 577.684C481.99 588.674 482.06 599.664 481.91 610.654C481.89 612.174 481.1 614.704 480.1 615.034C470.05 618.324 459.88 621.244 448.99 624.494C448.99 621.854 448.99 619.914 448.99 617.974C448.99 584.844 448.99 551.704 448.99 518.574C448.99 491.434 448.97 464.294 449 437.154C449.01 426.994 457.33 421.474 466.77 425.354C468.6 426.104 470.27 427.244 472.01 428.204C472.06 428.334 472.09 428.484 472.18 428.594C472.23 428.654 472.37 428.634 472.47 428.654C472.3 428.514 472.14 428.384 471.97 428.244C469.7 423.044 463.47 420.134 457.58 421.514C450.01 423.284 446 428.704 446 437.344C445.99 498.154 445.94 558.964 446.1 619.774C446.11 624.324 444.66 626.204 440.39 627.264C433.26 629.044 426.27 631.414 417.77 633.984C426.12 637.894 432.89 641.344 439.89 644.224C444.23 646.014 446.14 648.224 446.13 653.344C445.95 762.974 445.99 872.594 445.99 982.224H412.99C412.99 801.364 412.99 620.514 412.99 439.654C412.99 438.154 412.89 436.644 413.02 435.164C413.41 430.694 415.45 427.314 419.64 425.364C425.77 422.514 430.92 425.134 436.01 428.204C436.06 428.334 436.09 428.484 436.18 428.594C436.23 428.654 436.37 428.634 436.47 428.654C436.3 428.514 436.14 428.384 435.97 428.244C433.7 423.044 427.47 420.134 421.58 421.514C413.77 423.344 409.99 428.814 409.99 438.354C409.99 619.644 409.99 800.934 409.99 982.224H401.99C401.99 754.254 402.02 526.284 401.88 298.324C401.88 288.754 400.15 279.184 399.31 269.604C399.08 266.964 399.16 264.304 399.1 261.654C404.34 269.734 409.57 277.814 414.81 285.894L414.82 285.914ZM472.98 309.334C472.98 283.194 473.13 257.744 472.77 232.294C472.73 229.504 470.41 225.604 468.01 224.304C465.24 222.794 460.91 222.634 457.81 223.624C453.56 224.994 451.97 229.104 451.97 233.694C452.02 257.504 451.99 281.324 452.01 305.134C452.01 305.914 452.2 306.694 452.33 307.744C459.16 308.274 465.75 308.774 472.98 309.334ZM483.73 309.034C483.82 307.394 483.99 305.804 483.99 304.214C484.01 274.604 484.01 244.994 483.99 215.374C483.99 206.204 477 201.214 468.19 204.024C462.42 205.864 460.1 208.824 460.7 214.014C465.86 211.194 470.67 211.614 473.8 216.724C475.26 219.104 475.9 222.344 475.92 225.194C476.08 251.144 476.01 277.094 476.01 303.054C476.01 304.984 476.01 306.904 476.01 309.034H483.74H483.73ZM453.29 365.264V398.924H460.69V365.744C458.14 365.574 455.87 365.434 453.29 365.264ZM471.69 399.104V366.694C469.02 366.564 466.65 366.444 464.3 366.324V399.104H471.69ZM425 471.094C425 461.114 425.19 451.664 424.82 442.224C424.76 440.614 422.3 439.094 420.94 437.524C419.64 438.784 417.24 440.004 417.2 441.304C416.88 451.194 417.03 461.104 417.03 471.084H425V471.094ZM436 471.094C436 461.154 436.19 451.704 435.82 442.274C435.76 440.644 433.33 439.104 432 437.514C430.68 438.754 428.25 439.954 428.21 441.234C427.89 451.134 428.03 461.044 428.03 471.084H435.99L436 471.094ZM453 470.954H461C461 461.224 461.19 451.784 460.82 442.354C460.76 440.694 458.56 438.014 457.03 437.764C454.08 437.284 452.95 439.724 452.97 442.664C453.04 451.954 452.99 461.234 452.99 470.954H453ZM472 471.094C472 461.154 472.19 451.704 471.82 442.274C471.76 440.644 469.33 439.104 468 437.514C466.68 438.754 464.25 439.954 464.21 441.234C463.89 451.134 464.03 461.044 464.03 471.084H471.99L472 471.094ZM497 471.084C497 461.184 497.19 451.734 496.82 442.304C496.76 440.664 494.35 439.114 493.02 437.524C491.68 438.924 489.24 440.274 489.19 441.714C488.85 451.444 489.01 461.194 489.01 471.084H497ZM507.99 471.044C507.99 461.104 508.16 451.504 507.82 441.914C507.77 440.404 505.42 438.984 504.14 437.524C502.77 438.884 500.25 440.204 500.2 441.604C499.85 451.344 500.02 461.094 500.02 471.044H508H507.99Z" fill="#019053"/>
<path d="M472.02 428.224C470.28 427.264 468.61 426.124 466.78 425.374C457.34 421.494 449.02 427.014 449.01 437.174C448.98 464.314 449 491.454 449 518.594C449 551.724 449 584.864 449 617.994C449 619.934 449 621.884 449 624.514C459.89 621.264 470.06 618.334 480.11 615.054C481.11 614.724 481.9 612.194 481.92 610.674C482.07 599.684 482 588.694 482 577.704C482 530.754 481.97 483.794 482.02 436.844C482.03 424.724 492.86 417.654 503.21 423.064C505.17 424.084 506.4 426.494 507.97 428.264L508.01 428.224C505.63 427.064 503.36 425.554 500.87 424.814C492.18 422.224 485.03 427.584 485.02 436.654C484.97 467.104 485 497.564 485 528.014C485 554.474 485 580.934 485 607.394C485 609.194 485 610.984 485 613.904C497.86 609.864 509.95 606.064 522.03 602.264C535.09 598.504 548.18 594.824 561.21 590.964C579.99 585.404 598.72 579.694 617.5 574.114C619.38 573.554 621.41 573.284 623.37 573.284C780.62 573.244 937.87 573.254 1095.12 573.254C1096.12 573.254 1097.11 573.344 1098.11 573.394C1096.39 574.374 1094.72 575.464 1092.94 576.324C1055.4 594.604 1017.85 612.854 980.31 631.124C978.77 631.874 977.29 632.754 974.58 634.224H981.52C1069.94 634.224 1158.36 634.224 1246.78 634.244C1248.91 634.244 1251.05 634.604 1253.18 634.794C1244.15 639.054 1235.12 643.314 1226.1 647.564C1225.1 647.504 1224.11 647.394 1223.11 647.394C1140.48 647.394 1057.86 647.414 975.23 647.434C966.44 647.704 957.65 648.204 948.86 648.204C784.36 648.254 619.86 648.234 455.36 648.234C454.03 648.234 452.68 648.354 451.36 648.214C448.24 647.884 446.92 648.914 446.93 652.344C447.05 678.014 447.04 703.674 446.93 729.344C446.92 732.484 448.09 733.604 451.04 733.254C451.37 733.214 451.71 733.254 452.04 733.254C626.37 733.244 800.71 733.234 975.04 733.214C1058.64 733.234 1142.23 733.254 1225.83 733.274C1225.83 735.604 1225.83 737.934 1225.83 740.264C1142.24 740.274 1058.65 740.294 975.07 740.304C973.9 740.284 972.74 740.254 971.57 740.254C798.64 740.254 625.7 740.254 452.77 740.254C452.27 740.254 451.76 740.314 451.27 740.254C448.06 739.844 446.93 741.124 446.93 744.444C447.02 785.094 446.97 825.744 447.07 866.394C447.07 867.684 448.32 868.974 448.99 870.254C448.99 907.584 448.99 944.924 448.99 982.254H445.99C445.99 872.624 445.95 763.004 446.13 653.374C446.13 648.254 444.24 646.044 439.89 644.254C432.89 641.374 426.12 637.924 417.77 634.014C426.28 631.454 433.26 629.074 440.39 627.294C444.66 626.234 446.11 624.344 446.1 619.804C445.93 558.994 445.98 498.184 446 437.374C446 428.734 450.01 423.314 457.58 421.544C463.47 420.164 469.69 423.084 471.97 428.274L472.01 428.234L472.02 428.224ZM777.33 636.524C775.35 638.674 773.48 639.784 773.17 641.224C772.46 644.534 775.18 644.254 777.33 644.224C779.57 644.194 782.59 644.734 781.81 641.064C781.51 639.654 779.47 638.604 777.33 636.524ZM1188.73 644.804C1189.24 644.314 1189.76 643.814 1190.27 643.324C1189.72 641.664 1189.52 638.914 1188.53 638.584C1186.52 637.924 1184.04 638.394 1181.85 638.864C1181.44 638.954 1181.06 642.134 1181.4 642.294C1183.73 643.364 1186.26 644.014 1188.72 644.804H1188.73ZM1022.11 646.344C1024.42 643.654 1025.64 642.234 1026.87 640.804C1025.47 639.924 1024.15 638.554 1022.65 638.294C1020.79 637.974 1017.74 637.344 1018.2 640.884C1018.39 642.344 1020.07 643.594 1022.12 646.344H1022.11ZM973.32 646.044C975.41 643.704 976.68 642.274 977.95 640.854C976.54 639.984 975.21 638.624 973.69 638.354C971.53 637.974 968.46 637.674 969.17 641.404C969.42 642.744 971.23 643.784 973.32 646.044ZM875.29 646.054C877.39 643.724 878.67 642.294 879.96 640.874C878.55 639.994 877.23 638.634 875.72 638.364C873.58 637.984 870.49 637.654 871.18 641.404C871.43 642.744 873.22 643.794 875.3 646.054H875.29ZM532.53 645.964C534.57 643.824 536.5 642.734 536.82 641.294C537.56 637.984 534.84 638.144 532.67 638.274C530.73 638.384 527.65 637.394 528.21 640.944C528.45 642.444 530.45 643.654 532.53 645.964ZM581.77 645.974C583.71 643.774 585.56 642.624 585.83 641.174C586.47 637.774 583.63 638.224 581.55 638.264C579.54 638.304 576.54 637.574 577.22 641.064C577.51 642.554 579.58 643.704 581.77 645.974ZM826.32 636.474C824.33 638.684 822.46 639.824 822.17 641.274C821.48 644.674 824.41 644.614 826.37 644.104C828.04 643.674 829.43 642.114 830.94 641.054C829.71 639.834 828.47 638.614 826.32 636.484V636.474ZM630.61 636.474C628.49 638.614 627.27 639.844 626.05 641.074C627.57 642.124 628.96 643.674 630.64 644.104C632.63 644.614 635.52 644.604 634.82 641.244C634.52 639.794 632.63 638.674 630.61 636.474ZM679.63 646.034C681.75 643.804 683.57 642.764 683.83 641.434C684.55 637.724 681.51 637.954 679.33 638.354C677.8 638.624 676.46 639.964 675.04 640.824C676.3 642.264 677.56 643.694 679.62 646.034H679.63ZM924.32 636.474C922.33 638.684 920.46 639.824 920.17 641.274C919.48 644.674 922.41 644.614 924.37 644.104C926.04 643.674 927.43 642.114 928.94 641.054C927.71 639.834 926.47 638.614 924.32 636.484V636.474ZM728.8 646.064C730.84 643.774 732.61 642.704 732.84 641.374C733.5 637.604 730.38 637.994 728.26 638.364C726.75 638.634 725.45 640.024 724.05 640.914C725.35 642.324 726.65 643.744 728.8 646.064ZM744.65 636.574C742.94 638.794 741.43 639.924 741.14 641.314C740.53 644.254 742.83 644.224 744.92 644.254C747.28 644.294 749.63 644.094 748.85 640.974C748.51 639.624 746.71 638.644 744.65 636.574ZM760.86 645.914C762.81 643.784 764.48 642.764 764.85 641.394C765.58 638.694 763.62 638.124 761.32 638.224C759.17 638.314 756.51 637.934 757.15 641.264C757.41 642.624 759.05 643.724 760.86 645.914ZM712.62 636.264C710.37 638.674 708.55 639.754 708.16 641.214C707.42 644.004 709.7 644.664 711.79 644.134C713.31 643.754 715.18 642.704 715.76 641.444C716.11 640.664 714.31 638.914 712.62 636.264ZM695.88 645.914C697.82 643.784 699.54 642.744 699.85 641.384C700.57 638.164 698.06 638.244 695.81 638.214C693.62 638.184 691.47 638.444 692.14 641.264C692.47 642.644 694.06 643.724 695.88 645.904V645.914ZM794.37 645.904C796.06 643.684 797.58 642.544 797.86 641.154C798.46 638.214 796.14 638.274 794.06 638.224C791.69 638.174 789.36 638.414 790.15 641.514C790.5 642.864 792.3 643.834 794.37 645.904ZM663.62 636.264C661.37 638.674 659.55 639.754 659.16 641.214C658.42 644.004 660.7 644.664 662.79 644.134C664.31 643.754 666.18 642.704 666.76 641.444C667.11 640.664 665.31 638.914 663.62 636.264ZM647.15 645.914C648.96 643.724 650.54 642.644 650.86 641.254C651.52 638.414 649.35 638.204 647.18 638.214C644.91 638.234 642.42 638.184 643.16 641.394C643.47 642.754 645.2 643.784 647.15 645.904V645.914ZM810.13 645.914C811.95 643.734 813.54 642.654 813.86 641.274C814.52 638.454 812.38 638.194 810.19 638.214C807.93 638.234 805.43 638.174 806.15 641.394C806.46 642.754 808.18 643.784 810.13 645.904V645.914ZM613.65 636.574C611.94 638.794 610.42 639.924 610.13 641.314C609.51 644.254 611.82 644.224 613.91 644.254C616.27 644.294 618.63 644.094 617.84 640.974C617.5 639.624 615.7 638.644 613.64 636.574H613.65ZM598.37 645.904C600.06 643.684 601.57 642.544 601.86 641.154C602.46 638.214 600.14 638.274 598.06 638.224C595.69 638.174 593.36 638.414 594.15 641.514C594.5 642.864 596.3 643.834 598.37 645.904ZM842.38 646.214C844.63 643.804 846.45 642.724 846.84 641.264C847.58 638.474 845.29 637.814 843.21 638.344C841.69 638.724 839.82 639.764 839.24 641.034C838.89 641.814 840.69 643.564 842.38 646.214ZM565.38 645.894C567.08 643.674 568.59 642.544 568.87 641.154C569.47 638.224 567.16 638.264 565.07 638.214C562.7 638.164 560.36 638.404 561.16 641.504C561.51 642.854 563.31 643.824 565.38 645.894ZM548.63 636.574C546.94 638.794 545.42 639.934 545.14 641.324C544.54 644.264 546.86 644.204 548.94 644.254C551.31 644.304 553.64 644.054 552.85 640.964C552.5 639.614 550.7 638.644 548.63 636.574ZM858.66 645.904C860.71 643.834 862.51 642.854 862.85 641.504C863.64 638.404 861.3 638.164 858.93 638.214C856.84 638.254 854.53 638.234 855.14 641.154C855.43 642.544 856.95 643.674 858.66 645.894V645.904ZM515.66 636.574C513.94 638.804 512.43 639.934 512.14 641.314C511.53 644.244 513.83 644.224 515.92 644.254C518.27 644.294 520.64 644.094 519.85 640.974C519.51 639.624 517.71 638.644 515.66 636.564V636.574ZM500.14 636.564C498.19 638.694 496.52 639.714 496.15 641.084C495.42 643.784 497.38 644.344 499.68 644.254C501.83 644.164 504.49 644.534 503.85 641.214C503.59 639.854 501.95 638.754 500.13 636.564H500.14ZM483.86 636.564C482.04 638.744 480.46 639.824 480.13 641.204C479.47 644.034 481.62 644.274 483.81 644.254C486.07 644.234 488.57 644.294 487.84 641.074C487.53 639.714 485.8 638.684 483.85 636.564H483.86ZM467.13 645.914C468.95 643.734 470.54 642.654 470.87 641.284C471.53 638.464 469.39 638.204 467.2 638.224C464.94 638.244 462.44 638.184 463.16 641.404C463.47 642.764 465.19 643.794 467.13 645.914ZM450.88 645.914C452.82 643.784 454.54 642.744 454.85 641.384C455.57 638.164 453.06 638.244 450.81 638.214C448.62 638.184 446.47 638.444 447.15 641.264C447.48 642.644 449.07 643.724 450.89 645.904L450.88 645.914ZM1213.71 643.264C1214.19 643.734 1214.68 644.214 1215.16 644.684C1217.43 643.984 1219.78 643.454 1221.91 642.444C1222.27 642.274 1221.95 639.124 1221.48 638.994C1219.53 638.444 1217.18 637.924 1215.43 638.584C1214.41 638.974 1214.26 641.624 1213.71 643.264ZM1205.72 637.584C1202.7 638.274 1200.37 638.594 1198.28 639.464C1197.84 639.644 1197.94 642.864 1198.33 642.994C1200.61 643.724 1203.05 643.954 1205.72 644.394V637.574V637.584ZM940.85 645.914C942.81 643.794 944.48 642.784 944.86 641.414C945.59 638.724 943.65 638.134 941.34 638.234C939.2 638.324 936.52 637.934 937.15 641.264C937.41 642.634 939.05 643.734 940.86 645.914H940.85ZM1172.36 638.124C1169.85 638.234 1167.62 638.334 1165.34 638.434C1165.21 639.834 1165.04 640.654 1165.08 641.464C1165.12 642.244 1165.38 643.014 1165.53 643.674C1173.08 644.754 1173.52 644.424 1172.36 638.124ZM1152.35 646.054C1154.59 643.804 1156.41 642.784 1156.87 641.334C1157.68 638.734 1155.79 637.964 1153.46 638.174C1151.49 638.344 1148.64 637.464 1149.1 640.944C1149.28 642.324 1150.7 643.534 1152.36 646.054H1152.35ZM1133.14 643.814H1140.62V638.614H1133.14V643.814ZM1116.25 643.614C1124.2 644.814 1125.03 644.134 1123.17 638.584H1116.25V643.614ZM1104.12 646.024C1105.99 643.614 1107.01 642.294 1108.03 640.984C1106.71 640.044 1105.51 638.634 1104.05 638.284C1101.9 637.764 1099.37 638.124 1100.1 641.314C1100.41 642.664 1102.07 643.714 1104.12 646.024ZM1084.61 638.174C1083.49 644.514 1084.65 645.254 1091.93 643.274C1091.84 641.784 1091.76 640.204 1091.66 638.524C1090.44 638.374 1089.64 638.224 1088.83 638.194C1087.51 638.144 1086.19 638.184 1084.61 638.184V638.174ZM1067.32 638.474C1067.2 639.854 1067.03 640.684 1067.08 641.494C1067.13 642.274 1067.39 643.034 1067.54 643.704C1075.1 644.744 1075.54 644.414 1074.39 638.484H1067.31L1067.32 638.474ZM1055.16 646.024C1057 643.614 1058.01 642.284 1059.03 640.954C1057.71 640.024 1056.5 638.634 1055.03 638.274C1052.86 637.744 1050.37 638.164 1051.13 641.334C1051.45 642.684 1053.11 643.714 1055.16 646.024ZM1042.65 638.584H1034.89C1035.02 640.594 1035.13 642.154 1035.24 643.834H1042.65V638.584ZM956.88 636.564C955.05 638.754 953.47 639.834 953.14 641.204C952.47 644.024 954.62 644.284 956.81 644.254C959.06 644.224 961.58 644.304 960.85 641.084C960.54 639.724 958.82 638.694 956.88 636.564ZM908.34 645.904C910.05 643.684 911.57 642.554 911.86 641.164C912.48 638.234 910.18 638.254 908.08 638.214C905.73 638.174 903.36 638.364 904.15 641.484C904.49 642.834 906.28 643.814 908.34 645.894V645.904ZM993.52 643.564V638.544H986.43C985.64 644.524 986.18 644.894 993.52 643.564ZM1002.31 644.524C1005.14 644.034 1007.51 643.864 1009.64 643.054C1010.09 642.884 1010.01 639.284 1009.55 639.134C1007.38 638.414 1005 638.344 1002.31 637.994V644.524ZM892.14 646.214C894.07 643.684 895.58 642.544 895.87 641.164C896.47 638.224 894.07 637.854 892.1 638.364C890.61 638.744 889.37 640.124 888.03 641.064C889.09 642.384 890.14 643.714 892.15 646.224L892.14 646.214Z" fill="#06292E"/>
<path d="M521.93 870.314C521.95 907.624 521.98 944.934 522 982.244H485V952.814C485 926.874 485.01 900.934 484.98 874.994C484.98 872.874 485.95 869.934 481.98 870.214L482.03 870.264C482.03 850.614 482.03 830.964 482.05 811.314C482.05 801.064 484.88 791.784 490.9 783.344C505.74 762.534 539.6 758.834 558.05 776.174C556.73 776.284 555.4 776.394 554.08 776.524C531.03 778.694 514.28 793.464 511.49 815.114C510.39 823.644 511.07 832.414 511.03 841.074C510.98 850.684 511.02 860.294 511.02 870.304H521.95L521.93 870.314Z" fill="#019053"/>
<path d="M449 982.244C449 944.914 449 907.574 449 870.244C460.01 870.244 471.01 870.254 482.02 870.264L481.97 870.214C481.97 907.554 481.99 944.904 482 982.244H449Z" fill="#019053"/>
<path d="M308 982.244C308 802.564 307.86 622.874 308.24 443.194C308.28 426.974 294.51 419.704 282.56 426.964C282.15 427.214 281.61 427.254 281.13 427.394C281.01 427.264 280.9 427.134 280.78 426.994C288.72 416.764 303.93 421.464 307.83 429.334C309.67 433.054 310.87 437.524 310.87 441.654C311.03 553.404 311 665.154 311 776.904C311 845.354 311 913.804 311 982.254H308V982.244Z" fill="#019053"/>
<path d="M346 982.244C346 802.564 345.86 622.874 346.24 443.194C346.28 426.974 332.51 419.704 320.55 426.974C320.14 427.224 319.6 427.264 319.12 427.404C319 427.274 318.88 427.144 318.77 427.004C326.72 416.774 341.92 421.484 345.82 429.344C347.66 433.064 348.86 437.534 348.86 441.664C349.01 621.864 348.99 802.064 348.99 982.254H345.99L346 982.244Z" fill="#019053"/>
<path d="M385 982.244C385 802.564 384.86 622.874 385.24 443.194C385.28 426.974 371.51 419.704 359.55 426.974C359.14 427.224 358.6 427.264 358.12 427.404C358 427.274 357.88 427.144 357.77 427.004C365.72 416.774 380.92 421.484 384.82 429.344C386.66 433.064 387.86 437.534 387.86 441.664C388.01 621.864 387.99 802.064 387.99 982.254H384.99L385 982.244Z" fill="#019053"/>
<path d="M410 982.244C410 800.954 410 619.664 410 438.374C410 428.834 413.78 423.364 421.59 421.534C427.48 420.154 433.7 423.064 435.98 428.264L436.02 428.224C430.93 425.154 425.79 422.534 419.65 425.384C415.46 427.334 413.42 430.714 413.03 435.184C412.9 436.674 413 438.184 413 439.674C413 620.534 413 801.384 413 982.244H410Z" fill="#06292E"/>
<path d="M482 982.244C482 944.904 481.98 907.554 481.97 870.214C485.94 869.934 484.97 872.874 484.97 874.994C485.01 900.934 484.99 926.874 484.99 952.814V982.244H481.99H482Z" fill="#06292E"/>
<path d="M482.02 870.264C471.01 870.264 460.01 870.254 449 870.244C448.33 868.954 447.08 867.674 447.08 866.384C446.98 825.734 447.03 785.084 446.94 744.434C446.94 741.114 448.06 739.824 451.28 740.244C451.77 740.304 452.28 740.244 452.78 740.244C625.71 740.244 798.65 740.244 971.58 740.244C972.75 740.244 973.91 740.274 975.08 740.294C975.04 742.614 974.97 744.944 974.97 747.264C974.95 788.124 974.93 828.984 974.91 869.834C962.81 869.864 950.71 869.894 938.61 869.924C938.56 850.004 938.5 830.094 938.48 810.174C938.47 796.474 933.73 784.964 922.94 776.214C911.01 765.854 897.12 763.014 882.03 766.284C861.46 770.744 846.33 788.604 846.88 810.434C847.38 830.244 846.95 850.074 846.92 869.894C840.01 869.944 833.11 870.004 826.2 870.054C826.13 868.064 826.01 866.074 826.01 864.094C826 845.344 826.25 826.584 825.91 807.834C825.68 794.944 820.64 784.064 810.05 776.164C799.25 765.944 785.95 763.164 772.11 765.914C747.28 770.854 734.07 788.094 734.05 813.424C734.05 832.254 734.01 851.084 733.99 869.914C718.13 869.934 702.28 869.954 686.42 869.974C686.38 867.644 686.3 865.324 686.29 862.994C686.21 843.534 686.66 824.064 685.88 804.634C685.41 792.974 680.23 782.944 670.12 776.134C669.04 775.124 668.07 773.974 666.87 773.134C658.11 766.974 648.32 764.904 637.68 765.124C614.77 765.604 595.04 785.144 594.97 807.984C594.9 828.614 594.92 849.244 594.9 869.864C587.99 869.924 581.07 869.994 574.16 870.054C574.08 849.564 574.18 829.064 573.87 808.574C573.67 795.424 568.67 784.344 558.04 776.144C539.58 758.804 505.73 762.494 490.89 783.314C484.88 791.744 482.05 801.034 482.04 811.284C482.04 830.934 482.03 850.584 482.02 870.234V870.264Z" fill="#064928"/>
<path d="M975.23 647.424C1057.86 647.414 1140.48 647.394 1223.11 647.384C1224.11 647.384 1225.1 647.494 1226.1 647.554C1226.07 674.134 1226.04 700.714 1226 727.294C1226 729.284 1225.9 731.274 1225.84 733.264C1142.24 733.244 1058.65 733.224 975.05 733.204C975.02 723.894 974.95 714.584 974.97 705.274C975.03 685.994 975.14 666.714 975.22 647.424H975.23ZM1074.04 677.354H1083.54V668.624C1084.37 668.574 1085.2 668.514 1086.03 668.464V677.164H1095.54V668.624C1098.49 668.614 1101.44 668.594 1104.38 668.584V677.124H1113.89V668.494C1114.68 668.514 1115.47 668.534 1116.25 668.554V677.134H1125.89V668.504C1126.81 668.154 1127.73 667.814 1128.66 667.464L1128.46 666.624H1070.97C1070.97 684.224 1070.92 701.334 1071.1 718.444C1071.1 719.394 1072.93 720.314 1073.91 721.254C1076.98 721.384 1080.04 721.524 1083.3 721.664V683.324H1074.11C1074.09 681.334 1074.07 679.344 1074.06 677.354H1074.04ZM1148.22 677.224H1157.86V668.504C1158.64 668.504 1159.42 668.514 1160.2 668.524V677.124H1169.85V668.504L1179.03 668.464V677.114H1188.04V668.434C1189.03 668.434 1190.01 668.434 1191 668.444V677.064H1200.04V668.424C1200.94 668.084 1201.84 667.744 1203.04 667.294C1202.29 666.674 1202.05 666.314 1201.82 666.314C1183.87 666.234 1165.91 666.124 1147.96 666.284C1146.99 666.284 1145.2 668.474 1145.19 669.654C1145 685.784 1145.01 701.914 1145.19 718.044C1145.2 719.114 1147.12 720.164 1148.16 721.214H1157.59V683.354H1148.28C1148.26 681.304 1148.24 679.254 1148.22 677.204V677.224ZM1008.94 668.484C1009.75 668.514 1010.56 668.554 1011.37 668.584V677.124H1020.95V668.474L1030.1 668.494V677.144H1039.7V668.574C1040.49 668.544 1041.28 668.524 1042.08 668.494V677.154H1051.7V668.574C1052.69 668.234 1053.67 667.884 1055.78 667.154C1053.77 666.264 1052.83 665.494 1051.88 665.494C1034.44 665.424 1017.01 665.374 999.57 665.574C998.41 665.584 996.29 667.574 996.28 668.664C996.07 685.434 996.11 702.204 996.14 718.974C996.14 721.174 996.91 722.674 999.51 721.294H1008.69V683.284H999.94L999.9 677.494H1008.93V668.504L1008.94 668.484ZM1095.2 721.354V683.654H1086.08V721.354H1095.2ZM1113.63 721.344V683.684H1104.59V721.344H1113.63ZM1169.56 721.294V683.624H1160.35V721.294H1169.56ZM1116.44 683.434V721.304H1125.66V683.434H1116.44ZM1042.16 683.434V721.294H1051.38V683.434H1042.16ZM1039.37 721.284V683.624H1030.23V721.284H1039.37ZM1020.91 683.704H1011.66V721.214H1020.91V683.704ZM1200.1 683.554H1191.08V721.104H1200.1V683.554ZM1187.86 721.274V683.624H1179.15V721.274H1187.86Z" fill="#049154"/>
<path d="M974.91 869.844C974.93 828.984 974.94 788.124 974.97 747.274C974.97 744.954 975.04 742.624 975.08 740.304C1058.67 740.294 1142.26 740.274 1225.84 740.264C1225.89 782.704 1225.95 825.134 1225.99 867.574C1225.99 868.214 1225.86 868.864 1225.74 869.934C1217.74 869.934 1209.81 869.934 1201.89 869.934C1201.9 851.224 1202.03 832.514 1201.83 813.804C1201.78 808.944 1200.69 804.104 1200.08 799.254C1196.55 783.884 1187.03 773.734 1172.5 768.274C1160.9 763.914 1149.22 763.394 1137.81 769.204C1133.85 771.534 1129.9 773.864 1125.94 776.194C1115 784.324 1110.14 795.524 1109.98 808.814C1109.72 829.224 1109.79 849.634 1109.72 870.044C1102.81 870.014 1095.9 869.984 1088.98 869.954C1088.98 849.154 1089.03 828.354 1088.95 807.564C1088.95 805.114 1088.28 802.664 1087.93 800.224C1083.9 774.014 1051.8 757.474 1026.06 768.354C1021.71 770.984 1017.37 773.604 1013.02 776.234C1004.35 783.034 999.46 792.084 997.97 802.844C997.25 808.084 997.35 813.454 997.29 818.764C997.11 835.884 997.02 852.994 996.9 870.114C989.57 870.034 982.23 869.954 974.9 869.874L974.91 869.844Z" fill="#029053"/>
<path d="M1253.18 634.784C1251.05 634.594 1248.91 634.234 1246.78 634.234C1158.36 634.204 1069.94 634.214 981.52 634.214H974.58C977.29 632.744 978.77 631.864 980.31 631.114C1017.85 612.844 1055.4 594.594 1092.94 576.314C1094.72 575.444 1096.39 574.364 1098.11 573.384C1103.55 575.294 1109.05 577.034 1114.42 579.134C1159.24 596.634 1204.03 614.194 1248.82 631.754C1250.47 632.404 1252.05 633.254 1253.65 634.034C1253.7 634.054 1253.66 634.364 1253.59 634.484C1253.51 634.614 1253.33 634.684 1253.2 634.784H1253.18Z" fill="#029053"/>
<path d="M996.91 870.084C997.03 852.964 997.12 835.854 997.3 818.734C997.36 813.424 997.25 808.054 997.98 802.814C999.46 792.054 1004.36 783.004 1013.03 776.204C1013.86 776.274 1014.68 776.374 1015.51 776.404C1042.01 777.204 1061.44 798.594 1060.31 822.644C1059.58 838.414 1060.25 854.244 1060.29 870.054C1039.16 870.064 1018.04 870.074 996.91 870.084Z" fill="#F9F6B7"/>
<path d="M558.04 776.184C568.67 784.374 573.67 795.454 573.87 808.614C574.18 829.104 574.09 849.604 574.16 870.094C556.75 870.164 539.34 870.244 521.93 870.314C518.46 870.314 515 870.314 511 870.314C511 860.294 510.96 850.684 511.01 841.084C511.06 832.424 510.37 823.654 511.47 815.124C514.26 793.474 531.02 778.704 554.06 776.534C555.38 776.414 556.71 776.304 558.03 776.184H558.04Z" fill="#FAF6B7"/>
<path d="M670.13 776.164C680.24 782.974 685.42 793.004 685.89 804.664C686.68 824.094 686.22 843.574 686.3 863.024C686.3 865.354 686.39 867.674 686.43 870.004C665.31 870.064 644.18 870.124 623.06 870.174C623.19 868.354 623.42 866.544 623.43 864.724C623.46 850.414 623.43 836.104 623.45 821.794C623.46 807.044 629.17 795.044 640.85 785.954C649.46 779.264 659.47 776.714 670.14 776.154L670.13 776.164Z" fill="#F9F6B7"/>
<path d="M1109.72 870.034C1109.79 849.624 1109.72 829.214 1109.98 808.804C1110.15 795.514 1115.01 784.304 1125.94 776.184C1126.6 776.264 1127.26 776.384 1127.92 776.404C1153.62 777.444 1174.09 797.004 1172.96 824.734C1172.34 839.864 1172.95 855.034 1173 870.184C1151.91 870.134 1130.81 870.084 1109.72 870.024V870.034Z" fill="#FAF6B7"/>
<path d="M810.05 776.184C820.64 784.084 825.68 794.964 825.91 807.854C826.25 826.604 825.99 845.354 826.01 864.114C826.01 866.104 826.13 868.094 826.2 870.074C805.12 870.104 784.04 870.134 762.96 870.164C763 853.844 762.96 837.524 763.1 821.194C763.22 807.034 768.78 795.404 779.88 786.504C788.7 779.434 799.02 776.784 810.05 776.174V776.184Z" fill="#FAF6B7"/>
<path d="M922.94 776.224C933.73 784.974 938.47 796.484 938.48 810.184C938.49 830.104 938.56 850.014 938.61 869.934C917.63 869.964 896.65 869.994 875.67 870.024C875.69 853.724 875.77 837.414 875.71 821.104C875.68 812.564 877.65 804.634 882.35 797.474C891.93 782.894 905.95 776.684 922.94 776.214V776.224Z" fill="#FBF7B7"/>
<path d="M922.94 776.224C905.95 776.694 891.93 782.904 882.35 797.484C877.65 804.634 875.68 812.574 875.71 821.114C875.77 837.414 875.69 853.724 875.67 870.034C866.09 869.994 856.51 869.954 846.93 869.914C846.95 850.094 847.39 830.264 846.89 810.454C846.34 788.624 861.47 770.754 882.04 766.304C897.14 763.034 911.03 765.864 922.95 776.234L922.94 776.224Z" fill="#049154"/>
<path d="M810.05 776.184C799.02 776.794 788.69 779.454 779.88 786.514C768.78 795.414 763.22 807.034 763.1 821.204C762.96 837.524 763 853.844 762.96 870.174C753.31 870.094 743.65 870.024 734 869.944C734.02 851.114 734.05 832.284 734.06 813.454C734.07 788.124 747.28 770.884 772.12 765.944C785.96 763.194 799.25 765.964 810.06 776.194L810.05 776.184Z" fill="#049053"/>
<path d="M670.13 776.164C659.46 776.724 649.45 779.264 640.84 785.964C629.16 795.044 623.46 807.054 623.44 821.804C623.43 836.114 623.45 850.424 623.42 864.734C623.42 866.554 623.18 868.364 623.05 870.184C613.67 870.094 604.28 870.004 594.89 869.914C594.91 849.284 594.89 828.654 594.96 808.034C595.04 785.194 614.76 765.654 637.67 765.174C648.31 764.954 658.1 767.014 666.86 773.184C668.06 774.024 669.03 775.174 670.11 776.184L670.13 776.164Z" fill="#029053"/>
<path d="M479.97 156.164C469.6 155.224 459.22 154.284 448.96 153.354C447.61 145.854 446.96 138.574 444.95 131.684C436.6 103.044 417.81 84.3141 389.42 75.4941C385.01 74.1241 383.87 72.4741 383.89 68.1141C383.95 53.0141 383.56 37.9141 387.76 23.1741C388.16 21.7841 387.89 20.2041 387.94 18.7141C388.61 18.4641 389.83 17.9041 389.89 18.0141C394.6 26.2341 399.59 34.3241 403.64 42.8641C405 45.7341 403.99 49.7541 404.01 53.2441C404.03 60.3641 404.01 67.4841 404.01 74.5341C450.33 81.3641 478.18 118.054 479.98 156.174L479.97 156.164Z" fill="#029053"/>
<path d="M1060.29 870.054C1060.25 854.254 1059.58 838.414 1060.31 822.644C1061.43 798.594 1042 777.214 1015.51 776.404C1014.68 776.374 1013.86 776.274 1013.03 776.204C1017.38 773.574 1021.72 770.954 1026.07 768.324C1031.07 768.964 1036.05 769.724 1041.07 770.214C1054.65 771.544 1066.71 776.354 1076.33 786.194C1080.56 790.514 1084.09 795.514 1087.94 800.204C1088.3 802.654 1088.95 805.094 1088.96 807.544C1089.04 828.344 1088.99 849.144 1088.99 869.934C1079.43 869.974 1069.86 870.014 1060.3 870.044L1060.29 870.054Z" fill="#084A29"/>
<path d="M1173 870.184C1172.95 855.034 1172.34 839.854 1172.96 824.734C1174.09 797.004 1153.62 777.444 1127.92 776.404C1127.26 776.374 1126.6 776.254 1125.94 776.184C1129.9 773.854 1133.85 771.524 1137.81 769.194C1142.93 769.544 1148.06 769.764 1153.16 770.264C1166.59 771.574 1178.68 776.034 1188.21 785.994C1192.31 790.274 1196.13 794.824 1200.08 799.244C1200.69 804.094 1201.78 808.934 1201.83 813.794C1202.03 832.504 1201.9 851.214 1201.89 869.924C1192.26 870.014 1182.63 870.104 1173 870.194V870.184Z" fill="#064928"/>
<path d="M499.98 272.684C499.32 277.094 498.91 281.554 497.96 285.904C494.45 301.854 496.6 317.994 496.02 334.044C495.91 337.174 496 340.314 496 343.844H486.66C486.5 343.434 486.08 342.844 486.08 342.254C486.03 327.794 485.35 313.284 486.36 298.904C486.73 293.614 491.15 288.604 493.72 283.474C495.81 279.884 497.89 276.284 499.98 272.684Z" fill="#06292E"/>
<path d="M438.09 160.304C438.06 216.374 438.03 272.444 438 328.514C438 330.484 438 332.454 438 335.134C431.54 334.694 425.5 334.464 419.53 333.694C418.53 333.564 417.15 331.094 417.11 329.674C416.9 322.194 417.07 314.704 417.11 307.224C418.56 307.144 420.01 307.064 421.77 306.964C421.86 304.984 421.99 303.364 421.99 301.734C422 271.244 422.03 240.764 421.99 210.274C421.97 193.414 404.95 181.644 389.17 187.804C381.28 190.884 374.09 199.234 374.05 208.924C373.92 240.244 374 271.564 373.99 302.874C373.99 305.094 373.73 307.284 377.05 307.424C377.72 307.454 378.87 308.914 378.89 309.734C379.03 317.344 378.97 324.964 378.97 332.254C378.12 332.734 377.85 333.004 377.55 333.044C367.177 334.424 361.99 329.911 361.99 319.504C361.99 268.364 362.04 217.224 361.9 166.074C361.89 161.674 362.81 160.064 367.61 160.124C391.1 160.404 414.59 160.284 438.07 160.304H438.09Z" fill="#064928"/>
<path d="M414.82 285.914C409.59 277.834 404.35 269.754 399.11 261.674C399.11 261.674 398.97 261.484 398.97 261.474C398.67 261.104 398.37 260.734 398.07 260.364C393.39 267.494 388.7 274.614 384.02 281.744C383.24 282.924 382.49 284.134 381.11 286.274C381.11 267.044 380.74 248.974 381.27 230.924C381.53 222.174 390.14 215.784 399.03 216.254C407.6 216.714 414.84 223.744 414.92 232.474C415.08 250.284 414.87 268.094 414.82 285.904V285.914Z" fill="#F9F6B6"/>
<path d="M338 308.014C330.85 308.394 324.25 308.754 317.26 309.124C317.17 307.534 317.01 306.094 317.01 304.654C316.99 281.364 316.99 258.064 317.01 234.774C317.01 227.014 320.99 222.284 327.44 222.254C333.92 222.224 337.99 226.954 337.99 234.654C338.01 258.934 337.99 283.214 337.99 308.014H338Z" fill="#FAF6B7"/>
<path d="M312.65 224.114V308.934H306.33C306.22 307.374 306.02 305.934 306.02 304.494C306 281.024 306.02 257.564 305.99 234.094C305.99 229.484 307.13 225.744 312.65 224.104V224.114Z" fill="#019053"/>
<path d="M340.77 398.034H332.2V366.684H340.77V398.034Z" fill="#F9F6B7"/>
<path d="M328.76 398.104H320.31V367.594H328.76V398.104Z" fill="#FAF6B7"/>
<path d="M291 470.094H282.04C282.04 460.874 281.83 451.654 282.26 442.454C282.33 441.034 285.3 439.744 286.92 438.394C288.28 440.184 290.72 441.914 290.81 443.764C291.23 452.344 291 460.964 291 470.084V470.094Z" fill="#F9F6B6"/>
<path d="M303 470.124H294.02C294.02 460.954 293.81 451.884 294.22 442.844C294.29 441.294 297.03 439.864 298.53 438.384C300.02 440.054 302.7 441.664 302.79 443.404C303.23 452.144 302.99 460.914 302.99 470.124H303Z" fill="#F9F6B6"/>
<path d="M329 470.104H320.03C320.03 460.904 319.82 451.834 320.24 442.794C320.31 441.264 323.08 439.854 324.6 438.384C326.07 440.074 328.72 441.694 328.81 443.454C329.25 452.184 329.01 460.954 329.01 470.104H329Z" fill="#F9F6B6"/>
<path d="M341 470.084H332.04C332.04 460.914 331.83 451.704 332.26 442.514C332.33 441.074 335.27 439.774 336.88 438.414C338.25 440.184 340.72 441.904 340.81 443.744C341.23 452.334 341 460.954 341 470.094V470.084Z" fill="#F9F6B6"/>
<path d="M367 470.124H358.02C358.02 460.984 357.81 451.914 358.22 442.884C358.29 441.324 361 439.874 362.5 438.374C364 440.034 366.71 441.624 366.8 443.354C367.24 452.094 367 460.874 367 470.124Z" fill="#F9F6B6"/>
<path d="M379 470.094H370.04C370.04 460.904 369.83 451.684 370.26 442.484C370.33 441.054 373.28 439.764 374.9 438.404C376.27 440.184 378.72 441.914 378.81 443.754C379.23 452.334 379 460.954 379 470.084V470.094Z" fill="#F9F6B6"/>
<path d="M358.13 427.394C357.41 428.004 356.7 428.614 355.98 429.224L356.02 429.264C356.61 428.514 357.19 427.754 357.78 426.994C357.89 427.124 358.01 427.254 358.13 427.394Z" fill="#019053"/>
<path d="M319.13 427.394C318.41 428.004 317.7 428.614 316.98 429.224L317.02 429.264C317.61 428.514 318.19 427.754 318.78 426.994C318.89 427.124 319.01 427.254 319.13 427.394Z" fill="#019053"/>
<path d="M279.02 429.264C279.61 428.514 280.19 427.754 280.78 427.004C280.89 427.134 281.01 427.264 281.13 427.394C280.42 428.004 279.7 428.614 278.98 429.224L279.02 429.264Z" fill="#019053"/>
<path d="M278.98 429.224C278.93 429.354 278.9 429.514 278.81 429.614C278.76 429.674 278.62 429.654 278.51 429.674C278.68 429.534 278.85 429.404 279.02 429.264L278.98 429.224Z" fill="#019053"/>
<path d="M316.98 429.224C316.93 429.354 316.9 429.514 316.81 429.614C316.76 429.674 316.62 429.654 316.51 429.674C316.68 429.534 316.85 429.404 317.02 429.264L316.98 429.224Z" fill="#019053"/>
<path d="M355.98 429.224C355.93 429.354 355.9 429.514 355.81 429.614C355.76 429.674 355.62 429.654 355.51 429.674C355.68 429.534 355.85 429.404 356.02 429.264L355.98 429.224Z" fill="#019053"/>
<path d="M472.98 309.334C465.76 308.774 459.17 308.274 452.33 307.744C452.2 306.694 452.01 305.914 452.01 305.134C451.99 281.324 452.02 257.504 451.97 233.694C451.97 229.104 453.55 224.984 457.81 223.624C460.91 222.634 465.24 222.794 468.01 224.304C470.41 225.604 472.73 229.514 472.77 232.294C473.13 257.744 472.98 283.194 472.98 309.334Z" fill="#FAF6B7"/>
<path d="M483.73 309.034H476C476 306.914 476 304.984 476 303.054C476 277.104 476.06 251.144 475.91 225.194C475.89 222.344 475.25 219.104 473.79 216.724C470.66 211.614 465.85 211.204 460.69 214.014C460.09 208.834 462.41 205.864 468.18 204.024C476.99 201.214 483.98 206.204 483.98 215.374C484 244.984 483.99 274.594 483.98 304.214C483.98 305.804 483.81 307.394 483.72 309.034H483.73Z" fill="#06292E"/>
<path d="M453.29 365.264C455.88 365.434 458.14 365.574 460.69 365.744V398.924H453.29V365.264Z" fill="#F9F6B7"/>
<path d="M471.69 399.104H464.3V366.324C466.66 366.444 469.02 366.554 471.69 366.694V399.104Z" fill="#F9F6B7"/>
<path d="M425 471.094H417.03C417.03 461.104 416.89 451.204 417.2 441.314C417.24 440.014 419.63 438.794 420.94 437.534C422.29 439.094 424.75 440.614 424.82 442.234C425.19 451.664 425 461.124 425 471.104V471.094Z" fill="#F9F6B7"/>
<path d="M436 471.094H428.04C428.04 461.044 427.9 451.134 428.22 441.244C428.26 439.964 430.69 438.764 432.01 437.524C433.34 439.104 435.77 440.644 435.83 442.284C436.2 451.714 436.01 461.164 436.01 471.104L436 471.094Z" fill="#F9F6B7"/>
<path d="M453 470.954C453 461.234 453.04 451.954 452.98 442.664C452.96 439.734 454.09 437.294 457.04 437.764C458.57 438.014 460.77 440.694 460.83 442.354C461.19 451.774 461.01 461.224 461.01 470.954H453.01H453Z" fill="#F9F6B7"/>
<path d="M472 471.094H464.04C464.04 461.044 463.9 451.134 464.22 441.244C464.26 439.964 466.69 438.764 468.01 437.524C469.34 439.104 471.77 440.644 471.83 442.284C472.2 451.714 472.01 461.164 472.01 471.104L472 471.094Z" fill="#F9F6B7"/>
<path d="M497 471.084H489.01C489.01 461.194 488.85 451.444 489.19 441.714C489.24 440.274 491.69 438.914 493.02 437.524C494.34 439.114 496.75 440.664 496.82 442.304C497.19 451.734 497 461.184 497 471.084Z" fill="#F9F6B7"/>
<path d="M507.99 471.044H500.01C500.01 461.104 499.85 451.344 500.19 441.604C500.24 440.194 502.75 438.884 504.13 437.524C505.42 438.984 507.76 440.414 507.81 441.914C508.15 451.504 507.98 461.104 507.98 471.044H507.99Z" fill="#F9F6B7"/>
<path d="M435.97 428.264C436.14 428.404 436.3 428.534 436.47 428.674C436.37 428.654 436.23 428.674 436.18 428.614C436.09 428.514 436.07 428.354 436.01 428.224L435.97 428.264Z" fill="#06292E"/>
<path d="M471.97 428.264C472.14 428.404 472.3 428.534 472.47 428.674C472.37 428.654 472.23 428.674 472.18 428.614C472.09 428.514 472.07 428.354 472.01 428.224L471.97 428.264Z" fill="#06292E"/>
<path d="M507.97 428.264C508.14 428.404 508.3 428.534 508.47 428.674C508.37 428.654 508.23 428.674 508.18 428.614C508.09 428.514 508.07 428.354 508.01 428.224L507.97 428.264Z" fill="#06292E"/>
<path d="M975.23 647.424C975.14 666.704 975.03 685.984 974.98 705.274C974.95 714.584 975.03 723.894 975.06 733.204C800.73 733.214 626.39 733.224 452.06 733.244C451.73 733.244 451.39 733.214 451.06 733.244C448.11 733.594 446.94 732.474 446.95 729.334C447.05 703.664 447.06 678.004 446.95 652.334C446.93 648.914 448.25 647.884 451.38 648.204C452.7 648.344 454.04 648.224 455.38 648.224C619.88 648.224 784.38 648.234 948.88 648.194C957.67 648.194 966.46 647.694 975.25 647.424H975.23ZM799.28 668.404V677.074H808.66V668.434C809.5 668.414 810.35 668.384 811.19 668.354V677.134H820.6V668.464C823.78 668.424 826.96 668.374 830.13 668.334C829.97 671.234 829.8 674.134 829.64 677.084H839.28C839.12 673.934 838.97 671.144 838.82 668.344L841.53 668.554V677.284H850.99C850.97 679.314 850.95 681.334 850.93 683.364H841.88V721.264H851.07C854.58 721.444 853.98 718.894 853.98 716.804C853.99 701.504 853.87 686.204 854.07 670.904C854.12 667.114 852.89 666.114 849.22 666.154C832.92 666.334 816.63 666.224 800.33 666.254C799.04 666.254 797.74 666.544 796.45 666.704C796.46 667.054 796.48 667.404 796.49 667.764C797.42 667.984 798.35 668.194 799.27 668.414L799.28 668.404ZM765.33 668.434V677.244H774.98C774.96 679.294 774.94 681.354 774.92 683.404H765.42V721.254H775.02C778.53 721.504 778 718.984 778 716.864C778 701.564 777.9 686.264 778.08 670.974C778.12 667.264 777.05 666.114 773.3 666.154C756.84 666.334 740.38 666.224 723.92 666.254C722.76 666.254 721.59 666.604 720.43 666.784C720.43 667.084 720.45 667.394 720.46 667.694C721.37 667.914 722.28 668.134 723.19 668.354V677.084H732.62V668.464L735.16 668.334V677.174H744.47V668.564C747.47 668.544 750.47 668.524 753.47 668.504V677.054H762.84V668.344C763.67 668.374 764.51 668.404 765.34 668.434H765.33ZM918.16 668.344C917.99 671.234 917.81 674.114 917.61 677.394H927.04C927.02 679.364 927 681.344 926.98 683.314H918.06V721.314H927.25C930.33 721.384 930.02 719.204 930.02 717.184C930.02 701.734 929.94 686.274 930.08 670.824C930.11 667.484 929.3 666.134 925.66 666.164C909.05 666.334 892.43 666.224 875.81 666.264C874.7 666.264 873.59 666.634 872.48 666.834C872.5 667.154 872.53 667.484 872.55 667.804C873.48 668.014 874.41 668.224 875.35 668.444V677.074H884.76V668.394C885.61 668.394 886.46 668.404 887.3 668.414V677.084H896.76V668.384C899.9 668.374 903.04 668.364 906.19 668.344C906.06 671.254 905.93 674.164 905.81 677.074H915.47C915.26 673.914 915.07 671.124 914.89 668.324C915.99 668.324 917.08 668.324 918.18 668.334L918.16 668.344ZM613.21 668.364V677.594C616.65 677.384 619.75 677.184 622.85 676.994L622.8 683.594H613.25V721.654C616.6 721.484 619.7 721.334 622.8 721.184C626.2 721.614 626.02 719.314 626.02 717.054C626 701.584 625.91 686.104 626.08 670.634C626.12 667.024 624.82 666.154 621.44 666.184C604.97 666.324 588.49 666.234 572.02 666.274C570.85 666.274 569.69 666.614 567.14 667.024C569.18 667.954 569.87 668.264 570.56 668.584V677.114H580.33C580.16 673.954 580.01 671.154 579.86 668.364C580.73 668.424 581.6 668.484 582.47 668.534V677.074H591.83V668.364C594.96 668.364 598.08 668.374 601.21 668.384V677.114H610.67V668.454C611.52 668.424 612.36 668.404 613.21 668.374V668.364ZM546.04 677.384C546.02 679.354 546 681.334 545.98 683.304H537.11V721.304H546.24C549.77 721.304 548.99 718.684 548.99 716.674C549.02 701.544 548.9 686.404 549.08 671.274C549.13 667.444 548.17 666.074 544.1 666.134C527.97 666.364 511.84 666.224 495.71 666.244C494.34 666.244 492.98 666.484 491.61 666.604C491.57 666.914 491.54 667.234 491.5 667.544C492.49 667.864 493.48 668.184 494.47 668.504V677.104H503.79V668.354C504.64 668.374 505.49 668.404 506.34 668.424V677.054H515.75V668.374C518.9 668.374 522.05 668.354 525.19 668.344V677.154H534.44V668.554C535.35 668.484 536.26 668.404 537.17 668.334C537.04 671.214 536.91 674.104 536.76 677.374H546.03L546.04 677.384ZM647.17 668.344V677.074H656.45C656.24 673.914 656.06 671.124 655.88 668.324C656.97 668.324 658.06 668.324 659.15 668.334C658.99 671.234 658.82 674.134 658.66 677.084H668.3C668.14 673.934 667.99 671.144 667.84 668.344C671.01 668.374 674.17 668.404 677.34 668.434V677.064H686.77V668.384C687.61 668.384 688.45 668.404 689.3 668.404V677.544C692.74 677.384 695.83 677.244 698.92 677.094C698.89 679.244 698.87 681.384 698.84 683.534H689.33V721.214H698.9C702.36 721.564 702 719.134 702 716.954C702 701.644 701.9 686.334 702.07 671.034C702.11 667.404 701.17 666.104 697.34 666.144C680.87 666.334 664.4 666.214 647.93 666.254C646.76 666.254 645.59 666.594 644.43 666.774C644.43 667.074 644.44 667.374 644.45 667.674C645.36 667.894 646.26 668.114 647.17 668.334V668.344ZM503.74 721.254V683.554H494.52V721.254H503.74ZM506.41 683.444V721.304H515.6V683.444H506.41ZM591.72 721.354V683.634H582.57V721.354H591.72ZM601.23 683.434V721.144H610.47V683.434H601.23ZM896.56 721.314V683.614H887.35V721.314H896.56ZM875.41 683.434V721.304H884.6V683.434H875.41ZM677.46 683.474V721.264H686.54V683.474H677.46ZM811.21 683.424V721.324H820.39V683.424H811.21ZM808.48 721.304V683.634H799.33V721.304H808.48ZM762.73 721.324V683.634H753.57V721.324H762.73ZM732.54 683.574H723.3V721.154H732.54V683.574ZM744.04 721.284V683.544H735.2V721.284H744.04ZM838.81 721.284V683.564H830.08V721.284H838.81ZM667.91 683.634H658.98V721.204H667.91V683.634ZM655.91 721.274V683.564H647.19V721.274H655.91ZM906.25 683.564V721.214H915.03V683.564H906.25ZM579.78 721.234V683.554H570.81V721.234H579.78ZM525.17 721.104H534.06V683.544H525.17V721.104Z" fill="#094B2A"/>
<path d="M777.33 636.524C779.47 638.604 781.51 639.654 781.81 641.064C782.59 644.734 779.57 644.194 777.33 644.224C775.18 644.254 772.46 644.534 773.17 641.224C773.48 639.784 775.35 638.674 777.33 636.524Z" fill="#064628"/>
<path d="M1188.73 644.804C1186.27 644.014 1183.74 643.374 1181.41 642.294C1181.07 642.134 1181.45 638.954 1181.86 638.864C1184.05 638.394 1186.53 637.924 1188.54 638.584C1189.53 638.904 1189.72 641.664 1190.28 643.324C1189.77 643.814 1189.25 644.314 1188.74 644.804H1188.73Z" fill="#028850"/>
<path d="M1022.11 646.344C1020.06 643.594 1018.39 642.334 1018.19 640.884C1017.73 637.354 1020.78 637.984 1022.64 638.294C1024.15 638.554 1025.46 639.924 1026.86 640.804C1025.64 642.234 1024.41 643.654 1022.1 646.344H1022.11Z" fill="#028850"/>
<path d="M973.32 646.044C971.23 643.794 969.42 642.744 969.17 641.404C968.47 637.664 971.54 637.964 973.69 638.354C975.21 638.624 976.54 639.984 977.95 640.854C976.68 642.284 975.4 643.714 973.32 646.044Z" fill="#064628"/>
<path d="M875.29 646.054C873.21 643.794 871.42 642.734 871.17 641.404C870.48 637.654 873.57 637.984 875.71 638.364C877.23 638.634 878.55 640.004 879.95 640.874C878.67 642.294 877.39 643.724 875.28 646.054H875.29Z" fill="#064628"/>
<path d="M532.53 645.964C530.46 643.654 528.45 642.434 528.21 640.944C527.65 637.394 530.73 638.384 532.67 638.274C534.84 638.154 537.56 637.994 536.82 641.294C536.5 642.744 534.57 643.834 532.53 645.964Z" fill="#064628"/>
<path d="M581.77 645.974C579.58 643.704 577.51 642.554 577.22 641.064C576.54 637.584 579.54 638.304 581.55 638.264C583.63 638.224 586.47 637.764 585.83 641.174C585.56 642.624 583.71 643.774 581.77 645.974Z" fill="#064628"/>
<path d="M826.32 636.474C828.47 638.604 829.71 639.824 830.94 641.044C829.43 642.104 828.04 643.664 826.37 644.094C824.41 644.604 821.48 644.664 822.17 641.264C822.46 639.814 824.33 638.674 826.32 636.464V636.474Z" fill="#064628"/>
<path d="M630.61 636.474C632.63 638.674 634.52 639.794 634.82 641.244C635.52 644.604 632.63 644.624 630.64 644.104C628.96 643.674 627.57 642.124 626.05 641.074C627.27 639.844 628.49 638.614 630.61 636.474Z" fill="#064628"/>
<path d="M679.63 646.034C677.57 643.694 676.31 642.254 675.05 640.824C676.47 639.964 677.81 638.624 679.34 638.354C681.52 637.964 684.56 637.724 683.84 641.434C683.58 642.774 681.76 643.804 679.64 646.034H679.63Z" fill="#064628"/>
<path d="M924.32 636.474C926.47 638.604 927.71 639.824 928.94 641.044C927.43 642.104 926.04 643.664 924.37 644.094C922.41 644.604 919.48 644.664 920.17 641.264C920.46 639.814 922.33 638.674 924.32 636.464V636.474Z" fill="#064628"/>
<path d="M728.8 646.064C726.66 643.734 725.35 642.324 724.05 640.914C725.45 640.024 726.75 638.634 728.26 638.364C730.38 637.994 733.5 637.594 732.84 641.374C732.61 642.714 730.84 643.784 728.8 646.064Z" fill="#064628"/>
<path d="M744.65 636.574C746.71 638.654 748.5 639.634 748.85 640.974C749.64 644.084 747.28 644.294 744.92 644.254C742.83 644.214 740.52 644.254 741.14 641.314C741.43 639.924 742.95 638.794 744.65 636.574Z" fill="#064628"/>
<path d="M760.86 645.914C759.05 643.734 757.41 642.634 757.15 641.264C756.51 637.934 759.18 638.314 761.32 638.224C763.62 638.134 765.58 638.694 764.85 641.394C764.48 642.764 762.81 643.784 760.86 645.914Z" fill="#064628"/>
<path d="M712.62 636.264C714.31 638.914 716.11 640.674 715.76 641.444C715.18 642.714 713.31 643.754 711.79 644.134C709.7 644.664 707.42 644.004 708.16 641.214C708.55 639.754 710.37 638.664 712.62 636.264Z" fill="#064628"/>
<path d="M695.88 645.914C694.06 643.734 692.47 642.654 692.14 641.274C691.47 638.444 693.62 638.194 695.81 638.224C698.06 638.254 700.58 638.164 699.85 641.394C699.55 642.754 697.82 643.784 695.88 645.924V645.914Z" fill="#064628"/>
<path d="M794.37 645.904C792.3 643.834 790.5 642.864 790.15 641.514C789.35 638.414 791.69 638.174 794.06 638.224C796.14 638.274 798.46 638.214 797.86 641.154C797.58 642.544 796.07 643.684 794.37 645.904Z" fill="#064628"/>
<path d="M663.62 636.264C665.31 638.914 667.11 640.674 666.76 641.444C666.18 642.714 664.31 643.754 662.79 644.134C660.7 644.664 658.42 644.004 659.16 641.214C659.55 639.754 661.37 638.664 663.62 636.264Z" fill="#064628"/>
<path d="M647.15 645.914C645.19 643.794 643.47 642.754 643.16 641.404C642.42 638.194 644.92 638.234 647.18 638.224C649.36 638.214 651.53 638.424 650.86 641.264C650.54 642.644 648.96 643.734 647.15 645.924V645.914Z" fill="#064628"/>
<path d="M810.13 645.914C808.18 643.784 806.46 642.754 806.15 641.404C805.42 638.184 807.93 638.244 810.19 638.224C812.38 638.204 814.53 638.454 813.86 641.284C813.54 642.664 811.95 643.744 810.13 645.924V645.914Z" fill="#064628"/>
<path d="M613.65 636.574C615.71 638.654 617.51 639.634 617.85 640.974C618.64 644.094 616.27 644.294 613.92 644.254C611.83 644.214 609.52 644.254 610.14 641.314C610.43 639.924 611.95 638.794 613.66 636.574H613.65Z" fill="#064628"/>
<path d="M598.37 645.904C596.3 643.834 594.5 642.864 594.15 641.514C593.35 638.414 595.68 638.164 598.06 638.224C600.14 638.274 602.46 638.214 601.86 641.154C601.58 642.544 600.07 643.684 598.37 645.904Z" fill="#064628"/>
<path d="M842.38 646.214C840.69 643.564 838.89 641.804 839.24 641.034C839.81 639.764 841.69 638.724 843.21 638.344C845.29 637.824 847.58 638.474 846.84 641.264C846.45 642.724 844.63 643.814 842.38 646.214Z" fill="#064628"/>
<path d="M565.38 645.894C563.31 643.824 561.51 642.854 561.16 641.504C560.37 638.404 562.7 638.164 565.07 638.214C567.15 638.254 569.47 638.214 568.87 641.154C568.59 642.544 567.07 643.674 565.38 645.894Z" fill="#064628"/>
<path d="M548.63 636.574C550.7 638.644 552.5 639.614 552.85 640.964C553.65 644.064 551.32 644.314 548.94 644.254C546.86 644.204 544.54 644.264 545.14 641.324C545.42 639.934 546.94 638.794 548.63 636.574Z" fill="#064628"/>
<path d="M858.66 645.904C856.95 643.684 855.43 642.554 855.14 641.164C854.53 638.234 856.84 638.264 858.93 638.224C861.3 638.174 863.64 638.404 862.85 641.514C862.51 642.864 860.71 643.844 858.66 645.914V645.904Z" fill="#064628"/>
<path d="M515.66 636.574C517.71 638.654 519.51 639.634 519.85 640.984C520.64 644.104 518.27 644.304 515.92 644.264C513.82 644.234 511.53 644.264 512.14 641.324C512.43 639.944 513.94 638.814 515.66 636.584V636.574Z" fill="#064628"/>
<path d="M500.14 636.564C501.95 638.744 503.59 639.844 503.86 641.214C504.5 644.544 501.84 644.174 499.69 644.254C497.39 644.344 495.43 643.784 496.16 641.084C496.53 639.714 498.2 638.694 500.15 636.564H500.14Z" fill="#064628"/>
<path d="M483.86 636.564C485.81 638.684 487.54 639.724 487.85 641.074C488.58 644.284 486.08 644.234 483.82 644.254C481.63 644.274 479.48 644.024 480.14 641.204C480.46 639.824 482.05 638.744 483.87 636.564H483.86Z" fill="#064628"/>
<path d="M467.13 645.914C465.19 643.784 463.46 642.754 463.16 641.404C462.43 638.184 464.94 638.254 467.2 638.224C469.39 638.204 471.54 638.464 470.87 641.284C470.55 642.664 468.95 643.744 467.13 645.914Z" fill="#064628"/>
<path d="M450.88 645.914C449.06 643.734 447.47 642.654 447.14 641.274C446.47 638.444 448.61 638.194 450.8 638.224C453.05 638.254 455.57 638.164 454.84 641.394C454.54 642.754 452.81 643.784 450.87 645.924L450.88 645.914Z" fill="#064628"/>
<path d="M1213.71 643.264C1214.25 641.624 1214.41 638.974 1215.43 638.584C1217.18 637.924 1219.53 638.434 1221.48 638.994C1221.95 639.124 1222.27 642.274 1221.91 642.444C1219.79 643.454 1217.44 643.984 1215.16 644.684C1214.68 644.214 1214.19 643.734 1213.71 643.264Z" fill="#028850"/>
<path d="M1205.72 637.584V644.404C1203.05 643.954 1200.61 643.734 1198.33 643.004C1197.94 642.874 1197.84 639.654 1198.28 639.474C1200.37 638.604 1202.7 638.284 1205.72 637.594V637.584Z" fill="#028850"/>
<path d="M940.85 645.914C939.04 643.734 937.4 642.624 937.14 641.264C936.51 637.924 939.18 638.324 941.33 638.234C943.64 638.134 945.59 638.724 944.85 641.414C944.48 642.784 942.8 643.804 940.84 645.914H940.85Z" fill="#064628"/>
<path d="M1172.36 638.124C1173.52 644.424 1173.08 644.754 1165.53 643.674C1165.39 643.004 1165.12 642.244 1165.08 641.464C1165.04 640.654 1165.21 639.834 1165.34 638.434C1167.61 638.334 1169.85 638.234 1172.36 638.124Z" fill="#028850"/>
<path d="M1152.35 646.054C1150.69 643.534 1149.27 642.324 1149.09 640.944C1148.63 637.464 1151.49 638.344 1153.45 638.174C1155.78 637.974 1157.67 638.744 1156.86 641.334C1156.41 642.784 1154.58 643.804 1152.34 646.054H1152.35Z" fill="#028850"/>
<path d="M1133.14 643.814V638.614H1140.62V643.814H1133.14Z" fill="#028850"/>
<path d="M1116.25 643.614V638.584H1123.17C1125.03 644.124 1124.2 644.804 1116.25 643.614Z" fill="#028850"/>
<path d="M1104.12 646.024C1102.07 643.704 1100.41 642.664 1100.1 641.314C1099.36 638.124 1101.9 637.764 1104.05 638.284C1105.51 638.634 1106.71 640.044 1108.03 640.984C1107.01 642.304 1105.99 643.614 1104.12 646.024Z" fill="#028850"/>
<path d="M1084.61 638.174C1086.19 638.174 1087.51 638.144 1088.83 638.184C1089.64 638.214 1090.44 638.364 1091.66 638.514C1091.76 640.204 1091.85 641.774 1091.93 643.264C1084.65 645.244 1083.49 644.504 1084.61 638.164V638.174Z" fill="#028850"/>
<path d="M1067.32 638.474H1074.4C1075.54 644.404 1075.1 644.744 1067.55 643.694C1067.4 643.024 1067.13 642.264 1067.09 641.484C1067.04 640.674 1067.21 639.844 1067.33 638.464L1067.32 638.474Z" fill="#028850"/>
<path d="M1055.16 646.024C1053.1 643.714 1051.45 642.684 1051.13 641.334C1050.37 638.174 1052.86 637.744 1055.03 638.274C1056.49 638.634 1057.7 640.024 1059.03 640.954C1058.02 642.284 1057.01 643.604 1055.16 646.024Z" fill="#028850"/>
<path d="M1042.65 638.584V643.834H1035.24C1035.13 642.154 1035.02 640.584 1034.89 638.584H1042.65Z" fill="#028850"/>
<path d="M956.88 636.564C958.82 638.694 960.54 639.734 960.85 641.084C961.58 644.304 959.06 644.224 956.81 644.254C954.62 644.284 952.47 644.024 953.14 641.204C953.47 639.824 955.05 638.744 956.88 636.564Z" fill="#064628"/>
<path d="M908.34 645.904C906.29 643.824 904.49 642.844 904.15 641.494C903.36 638.374 905.73 638.184 908.08 638.224C910.18 638.254 912.48 638.234 911.86 641.174C911.57 642.564 910.05 643.694 908.34 645.914V645.904Z" fill="#064628"/>
<path d="M993.52 643.564C986.18 644.894 985.63 644.524 986.43 638.544H993.52V643.564Z" fill="#028850"/>
<path d="M1002.31 644.524V637.994C1004.99 638.344 1007.38 638.424 1009.55 639.134C1010 639.284 1010.08 642.884 1009.64 643.054C1007.51 643.864 1005.15 644.034 1002.31 644.524Z" fill="#028850"/>
<path d="M892.14 646.214C890.13 643.704 889.08 642.374 888.02 641.054C889.37 640.114 890.6 638.734 892.09 638.354C894.06 637.844 896.46 638.224 895.86 641.154C895.58 642.544 894.07 643.674 892.13 646.204L892.14 646.214Z" fill="#064628"/>
<path d="M1074.09 683.324H1083.28V721.664C1080.02 721.524 1076.96 721.384 1073.89 721.254C1073.95 708.614 1074.02 695.964 1074.08 683.324H1074.09Z" fill="#EEF2B2"/>
<path d="M1095.2 721.354H1086.08V683.654H1095.2V721.354Z" fill="#EEF2B2"/>
<path d="M1148.27 683.384H1157.58V721.244C1154.36 721.244 1151.26 721.244 1148.15 721.244C1148.19 708.624 1148.23 696.004 1148.27 683.384Z" fill="#F1F0B1"/>
<path d="M1113.63 721.344H1104.59V683.684H1113.63V721.344Z" fill="#F1F3B3"/>
<path d="M1169.56 721.294H1160.35V683.624H1169.56V721.294Z" fill="#F4F2B3"/>
<path d="M1116.44 683.434H1125.66V721.304H1116.44V683.434Z" fill="#F4F2B3"/>
<path d="M1042.16 683.434H1051.38V721.294H1042.16V683.434Z" fill="#F1F3B3"/>
<path d="M999.91 677.474C999.92 679.404 999.94 681.334 999.95 683.264C999.81 695.934 999.66 708.604 999.52 721.274C996.92 722.654 996.16 721.154 996.15 718.954C996.12 702.184 996.07 685.414 996.29 668.644C996.3 667.554 998.42 665.574 999.58 665.554C1017.01 665.354 1034.45 665.404 1051.89 665.474C1052.83 665.474 1053.78 666.254 1055.79 667.134C1053.68 667.864 1052.7 668.214 1051.71 668.554C1048.5 668.524 1045.29 668.504 1042.09 668.474C1041.3 668.504 1040.51 668.524 1039.71 668.554C1036.51 668.534 1033.31 668.504 1030.11 668.484C1027.06 668.484 1024.01 668.474 1020.96 668.464C1017.77 668.504 1014.57 668.544 1011.38 668.584C1010.57 668.554 1009.76 668.514 1008.95 668.484C1006 668.484 1003.04 668.484 999.43 668.484C999.61 671.674 999.76 674.574 999.92 677.474H999.91Z" fill="#062C2F"/>
<path d="M1039.37 721.284H1030.23V683.624H1039.37V721.284Z" fill="#F1F3B3"/>
<path d="M1020.91 683.704V721.214H1011.66V683.704H1020.91Z" fill="#F1F3B3"/>
<path d="M999.52 721.274C999.66 708.604 999.81 695.934 999.95 683.264C1002.75 683.264 1005.54 683.264 1008.7 683.264V721.274H999.52Z" fill="#FAF6B7"/>
<path d="M1200.1 683.554V721.104H1191.08V683.554H1200.1Z" fill="#FAF6B7"/>
<path d="M1187.86 721.274H1179.15V683.624H1187.86V721.274Z" fill="#FAF6B7"/>
<path d="M1148.27 683.384C1148.23 696.004 1148.19 708.624 1148.15 721.244C1147.12 720.184 1145.2 719.144 1145.18 718.074C1144.99 701.944 1144.99 685.814 1145.18 669.684C1145.19 668.494 1146.98 666.324 1147.95 666.314C1165.9 666.164 1183.86 666.264 1201.81 666.344C1202.05 666.344 1202.29 666.714 1203.03 667.324C1201.83 667.774 1200.93 668.114 1200.03 668.454C1197.02 668.454 1194 668.464 1190.99 668.474C1190 668.474 1189.02 668.474 1188.03 668.454C1185.03 668.454 1182.03 668.474 1179.03 668.484C1175.97 668.494 1172.91 668.514 1169.85 668.524C1166.63 668.524 1163.42 668.524 1160.2 668.534C1159.42 668.534 1158.64 668.524 1157.86 668.514C1154.77 668.514 1151.68 668.514 1148.22 668.514V677.244C1148.24 679.294 1148.26 681.344 1148.28 683.394L1148.27 683.384Z" fill="#062C2F"/>
<path d="M1074.09 683.324C1074.03 695.964 1073.96 708.614 1073.9 721.254C1072.92 720.314 1071.1 719.394 1071.09 718.444C1070.92 701.334 1070.96 684.224 1070.96 666.624H1128.45L1128.65 667.464C1127.73 667.814 1126.81 668.154 1125.88 668.504C1122.67 668.524 1119.46 668.534 1116.25 668.554C1115.46 668.534 1114.67 668.514 1113.89 668.494C1110.72 668.524 1107.55 668.554 1104.38 668.594C1101.43 668.604 1098.48 668.624 1095.54 668.634C1092.37 668.584 1089.2 668.524 1086.03 668.474C1085.2 668.524 1084.37 668.584 1083.54 668.634H1074.04C1074.04 671.764 1074.04 674.564 1074.04 677.364C1074.06 679.354 1074.08 681.344 1074.09 683.334V683.324Z" fill="#092C30"/>
<path d="M1116.25 668.554C1119.46 668.534 1122.67 668.524 1125.88 668.504C1125.88 671.284 1125.88 674.064 1125.88 677.134H1116.24V668.554H1116.25Z" fill="#EEF2B2"/>
<path d="M1148.22 677.224V668.494C1151.68 668.494 1154.77 668.494 1157.86 668.494C1157.86 671.284 1157.86 674.074 1157.86 677.214H1148.22V677.224Z" fill="#EBEBAE"/>
<path d="M1160.2 668.524C1163.42 668.524 1166.63 668.514 1169.85 668.514C1169.85 671.294 1169.85 674.064 1169.85 677.134H1160.2V668.534V668.524Z" fill="#F1F0B1"/>
<path d="M1104.38 668.584C1107.55 668.554 1110.72 668.514 1113.89 668.484C1113.89 671.254 1113.89 674.024 1113.89 677.114H1104.38V668.574V668.584Z" fill="#EBEBAE"/>
<path d="M1086.03 668.464C1089.2 668.514 1092.37 668.574 1095.54 668.624C1095.54 671.384 1095.54 674.134 1095.54 677.164H1086.03V668.464Z" fill="#EBEBAE"/>
<path d="M1074.04 677.354V668.624H1083.54C1083.54 671.364 1083.54 674.104 1083.54 677.354H1074.04Z" fill="#EBEBAE"/>
<path d="M1042.08 668.484C1045.29 668.514 1048.49 668.534 1051.7 668.564C1051.7 671.334 1051.7 674.094 1051.7 677.144H1042.08V668.484Z" fill="#EBEBAE"/>
<path d="M1030.1 668.494C1033.3 668.514 1036.5 668.544 1039.7 668.564C1039.7 671.324 1039.7 674.084 1039.7 677.144H1030.1V668.494Z" fill="#EBEBAE"/>
<path d="M1011.37 668.584C1014.56 668.544 1017.76 668.504 1020.95 668.464C1020.95 671.244 1020.95 674.024 1020.95 677.114H1011.37V668.574V668.584Z" fill="#EBEBAE"/>
<path d="M999.91 677.474C999.75 674.574 999.59 671.684 999.42 668.484C1003.03 668.484 1005.99 668.484 1008.94 668.484C1008.94 671.274 1008.94 674.064 1008.94 677.474H999.91Z" fill="#F4F2B3"/>
<path d="M1179.03 668.474C1182.03 668.474 1185.03 668.454 1188.03 668.444C1188.03 671.244 1188.03 674.034 1188.03 677.124H1179.02V668.474H1179.03Z" fill="#F4F2B3"/>
<path d="M1191 668.464C1194.01 668.464 1197.02 668.454 1200.04 668.444C1200.04 671.214 1200.04 673.984 1200.04 677.084H1191V668.464Z" fill="#F4F2B3"/>
<path d="M1087.93 800.194C1084.08 795.504 1080.54 790.504 1076.32 786.184C1066.7 776.354 1054.65 771.534 1041.06 770.204C1036.05 769.714 1031.06 768.954 1026.06 768.314C1051.8 757.434 1083.9 773.974 1087.93 800.184V800.194Z" fill="#062C2F"/>
<path d="M1200.08 799.244C1196.13 794.814 1192.31 790.274 1188.21 785.994C1178.68 776.034 1166.59 771.574 1153.16 770.264C1148.06 769.764 1142.93 769.544 1137.81 769.194C1149.22 763.384 1160.9 763.904 1172.5 768.264C1187.03 773.724 1196.55 783.874 1200.08 799.244Z" fill="#062C2F"/>
<path d="M503.74 721.254H494.52V683.554H503.74V721.254Z" fill="#F1F0B1"/>
<path d="M506.41 683.444H515.6V721.304H506.41V683.444Z" fill="#F1F0B1"/>
<path d="M591.72 721.354H582.57V683.634H591.72V721.354Z" fill="#F1F0B1"/>
<path d="M601.23 683.434H610.47V721.144H601.23V683.434Z" fill="#F4F2B3"/>
<path d="M896.56 721.314H887.35V683.614H896.56V721.314Z" fill="#F4F2B3"/>
<path d="M875.41 683.434H884.6V721.304H875.41V683.434Z" fill="#F1F0B1"/>
<path d="M622.79 721.184C619.69 721.334 616.59 721.494 613.24 721.654V683.594C616.59 683.594 619.69 683.594 622.79 683.594C622.79 696.124 622.79 708.654 622.79 721.184Z" fill="#F1F0B1"/>
<path d="M677.46 683.474H686.54V721.264H677.46V683.474Z" fill="#F1F0B1"/>
<path d="M811.21 683.424H820.39V721.324H811.21V683.424Z" fill="#F1F0B1"/>
<path d="M808.48 721.304H799.33V683.634H808.48V721.304Z" fill="#F1F0B1"/>
<path d="M775.02 721.254H765.42V683.404C768.7 683.404 771.81 683.404 774.92 683.404C774.95 696.024 774.98 708.634 775.02 721.254Z" fill="#F4F2B3"/>
<path d="M762.73 721.324H753.57V683.634H762.73V721.324Z" fill="#F1F0B1"/>
<path d="M698.9 721.214H689.33V683.534C692.65 683.534 695.74 683.534 698.84 683.534C698.86 696.094 698.88 708.654 698.91 721.214H698.9Z" fill="#F1F0B1"/>
<path d="M732.54 683.574V721.154H723.3V683.574H732.54Z" fill="#F1F0B1"/>
<path d="M744.04 721.284H735.2V683.544H744.04V721.284Z" fill="#FAF6B7"/>
<path d="M838.81 721.284H830.08V683.564H838.81V721.284Z" fill="#FAF6B7"/>
<path d="M667.91 683.634V721.204H658.98V683.634H667.91Z" fill="#FAF6B7"/>
<path d="M655.91 721.274H647.19V683.564H655.91V721.274Z" fill="#FAF6B7"/>
<path d="M851.08 721.264H841.89V683.364C845.05 683.364 848 683.364 850.94 683.364C850.99 695.994 851.03 708.634 851.08 721.264Z" fill="#FAF6B7"/>
<path d="M906.25 683.564H915.03V721.214H906.25V683.564Z" fill="#FAF6B7"/>
<path d="M927.24 721.304H918.05V683.304H926.97C927.06 695.974 927.15 708.634 927.24 721.304Z" fill="#FAF6B7"/>
<path d="M579.78 721.234H570.81V683.554H579.78V721.234Z" fill="#FAF6B7"/>
<path d="M546.25 721.304H537.12V683.304H545.99C546.08 695.974 546.17 708.634 546.26 721.304H546.25Z" fill="#FAF6B7"/>
<path d="M525.17 721.104V683.544H534.06V721.104H525.17Z" fill="#FAF6B7"/>
<path d="M698.9 721.214C698.88 708.654 698.86 696.094 698.83 683.534C698.86 681.384 698.88 679.244 698.91 677.094C698.91 674.254 698.91 671.404 698.91 668.404C695.13 668.404 692.21 668.404 689.29 668.404C688.45 668.404 687.61 668.384 686.76 668.384C683.62 668.404 680.48 668.414 677.33 668.434C674.16 668.404 671 668.374 667.83 668.344C664.93 668.344 662.04 668.344 659.14 668.344C658.05 668.344 656.96 668.344 655.87 668.334C652.97 668.334 650.06 668.344 647.16 668.354C646.25 668.134 645.35 667.914 644.44 667.694C644.44 667.394 644.43 667.094 644.42 666.794C645.59 666.614 646.76 666.274 647.92 666.274C664.39 666.244 680.86 666.364 697.33 666.164C701.16 666.124 702.1 667.414 702.06 671.054C701.88 686.354 701.98 701.664 701.99 716.974C701.99 719.154 702.35 721.584 698.89 721.234L698.9 721.214Z" fill="#06292E"/>
<path d="M546.25 721.304C546.16 708.634 546.07 695.974 545.98 683.304C546 681.334 546.02 679.354 546.04 677.384C546.04 674.484 546.04 671.584 546.04 668.344H537.18C536.27 668.414 535.36 668.494 534.45 668.564C531.37 668.494 528.28 668.424 525.2 668.354C522.05 668.354 518.9 668.374 515.76 668.384C512.62 668.404 509.49 668.414 506.35 668.434C505.5 668.414 504.65 668.384 503.8 668.364C500.69 668.414 497.59 668.464 494.48 668.514C493.49 668.194 492.5 667.874 491.51 667.554C491.55 667.244 491.58 666.924 491.62 666.614C492.99 666.484 494.35 666.254 495.72 666.254C511.85 666.224 527.98 666.374 544.11 666.144C548.19 666.084 549.14 667.454 549.09 671.284C548.9 686.414 549.03 701.544 549 716.684C549 718.704 549.78 721.324 546.25 721.314V721.304Z" fill="#092C30"/>
<path d="M622.79 721.184C622.79 708.654 622.79 696.124 622.79 683.594C622.81 681.394 622.82 679.194 622.84 676.994C622.84 674.234 622.84 671.474 622.84 668.364H613.2C612.35 668.394 611.51 668.414 610.66 668.434C607.51 668.404 604.35 668.384 601.2 668.364C598.07 668.364 594.95 668.354 591.82 668.344C588.7 668.394 585.58 668.454 582.46 668.514C581.59 668.454 580.72 668.394 579.85 668.344C576.75 668.414 573.65 668.494 570.55 668.564C569.86 668.244 569.17 667.934 567.13 667.004C569.67 666.604 570.84 666.264 572.01 666.254C588.48 666.224 604.96 666.304 621.43 666.164C624.81 666.134 626.11 667.004 626.07 670.614C625.9 686.084 625.99 701.564 626.01 717.034C626.01 719.294 626.2 721.604 622.79 721.164V721.184Z" fill="#062C2F"/>
<path d="M927.24 721.304C927.15 708.634 927.06 695.974 926.97 683.304C926.99 681.334 927.01 679.354 927.03 677.384V668.334H918.15C917.05 668.334 915.96 668.334 914.86 668.324C911.96 668.324 909.07 668.334 906.17 668.344C903.03 668.354 899.89 668.364 896.74 668.384C893.59 668.384 890.44 668.394 887.28 668.404C886.43 668.404 885.58 668.394 884.74 668.384C881.6 668.404 878.47 668.414 875.33 668.434C874.4 668.224 873.47 668.014 872.53 667.794C872.51 667.474 872.48 667.144 872.46 666.824C873.57 666.624 874.68 666.254 875.79 666.254C892.41 666.214 909.02 666.324 925.64 666.154C929.28 666.114 930.09 667.474 930.06 670.814C929.92 686.264 930 701.724 930 717.174C930 719.194 930.31 721.374 927.23 721.304H927.24Z" fill="#092C30"/>
<path d="M775.02 721.254C774.99 708.634 774.96 696.024 774.92 683.404C774.94 681.354 774.96 679.294 774.98 677.244C774.98 674.334 774.98 671.434 774.98 668.434H765.33C764.5 668.404 763.66 668.374 762.83 668.344C759.71 668.394 756.58 668.454 753.46 668.514C750.46 668.534 747.46 668.554 744.46 668.574C741.36 668.494 738.25 668.424 735.15 668.344C734.3 668.384 733.46 668.434 732.61 668.474C729.47 668.434 726.33 668.394 723.18 668.354C722.27 668.134 721.36 667.914 720.45 667.694C720.45 667.394 720.43 667.084 720.42 666.784C721.58 666.604 722.74 666.254 723.91 666.254C740.37 666.214 756.83 666.334 773.29 666.154C777.04 666.114 778.12 667.264 778.07 670.974C777.88 686.274 778 701.564 777.99 716.864C777.99 718.974 778.52 721.504 775.01 721.254H775.02Z" fill="#06292E"/>
<path d="M851.08 721.264C851.03 708.634 850.99 696.004 850.94 683.364C850.96 681.334 850.98 679.314 851 677.284C851 674.384 851 671.484 851 668.554C847.44 668.554 844.49 668.554 841.54 668.554C840.64 668.484 839.73 668.414 838.83 668.344C835.93 668.344 833.04 668.344 830.14 668.344C826.96 668.384 823.78 668.434 820.61 668.474C817.47 668.434 814.34 668.404 811.2 668.364C810.36 668.394 809.51 668.414 808.67 668.434C805.54 668.424 802.41 668.414 799.29 668.404C798.36 668.184 797.43 667.974 796.51 667.754C796.5 667.404 796.48 667.054 796.47 666.694C797.76 666.534 799.06 666.244 800.35 666.244C816.65 666.214 832.95 666.324 849.24 666.144C852.91 666.104 854.14 667.104 854.09 670.894C853.89 686.194 854.02 701.494 854 716.794C854 718.884 854.6 721.434 851.09 721.254L851.08 721.264Z" fill="#06292E"/>
<path d="M887.29 668.404C890.44 668.404 893.59 668.394 896.75 668.384C896.75 671.164 896.75 673.944 896.75 677.084H887.29V668.414V668.404Z" fill="#EBEBAE"/>
<path d="M494.47 668.514C497.58 668.464 500.68 668.414 503.79 668.364C503.79 671.164 503.79 673.974 503.79 677.114H494.47V668.514Z" fill="#EBEBAE"/>
<path d="M506.34 668.434C509.48 668.414 512.61 668.404 515.75 668.384C515.75 671.144 515.75 673.914 515.75 677.064H506.34V668.434Z" fill="#EBEBAE"/>
<path d="M525.19 668.354C528.27 668.424 531.36 668.494 534.44 668.564C534.44 671.344 534.44 674.114 534.44 677.164H525.19V668.354Z" fill="#EBEBAE"/>
<path d="M570.55 668.564C573.65 668.494 576.75 668.414 579.85 668.344C580 671.144 580.15 673.934 580.32 677.094H570.55V668.564Z" fill="#EBEBAE"/>
<path d="M582.46 668.514C585.58 668.454 588.7 668.404 591.82 668.344C591.82 671.114 591.82 673.894 591.82 677.054H582.46V668.514Z" fill="#EBEBAE"/>
<path d="M601.21 668.364C604.36 668.384 607.52 668.414 610.67 668.434C610.67 671.204 610.67 673.974 610.67 677.094H601.21V668.364Z" fill="#EBEBAE"/>
<path d="M613.21 668.364H622.85C622.85 671.474 622.85 674.234 622.85 676.994C619.75 677.184 616.65 677.384 613.21 677.594V668.364Z" fill="#EBEBAE"/>
<path d="M677.33 668.434C680.47 668.414 683.61 668.404 686.76 668.384C686.76 671.154 686.76 673.914 686.76 677.064H677.33V668.434Z" fill="#EBEBAE"/>
<path d="M689.28 668.404H698.9C698.9 671.404 698.9 674.254 698.9 677.094C695.81 677.234 692.72 677.384 689.28 677.544V668.404Z" fill="#EBEBAE"/>
<path d="M723.19 668.354C726.33 668.394 729.47 668.434 732.62 668.474C732.62 671.234 732.62 673.984 732.62 677.094H723.19V668.364V668.354Z" fill="#EBEBAE"/>
<path d="M735.15 668.334C738.25 668.414 741.36 668.484 744.46 668.564C744.46 671.354 744.46 674.134 744.46 677.174H735.15V668.334Z" fill="#EBEBAE"/>
<path d="M753.46 668.504C756.58 668.444 759.71 668.394 762.83 668.344C762.83 671.114 762.83 673.894 762.83 677.054H753.46V668.504Z" fill="#EBEBAE"/>
<path d="M765.33 668.434H774.98C774.98 671.434 774.98 674.334 774.98 677.244C771.9 677.244 768.82 677.244 765.33 677.244V668.434Z" fill="#EBEBAE"/>
<path d="M799.28 668.404C802.41 668.414 805.54 668.424 808.66 668.434C808.66 671.194 808.66 673.944 808.66 677.074H799.28V668.404Z" fill="#EBEBAE"/>
<path d="M811.2 668.364C814.34 668.404 817.47 668.434 820.61 668.474C820.61 671.264 820.61 674.054 820.61 677.144H811.2V668.364Z" fill="#EBEBAE"/>
<path d="M841.54 668.564H851C851 671.494 851 674.394 851 677.294C848.06 677.294 845.12 677.294 841.54 677.294V668.564Z" fill="#EBEBAE"/>
<path d="M875.34 668.434C878.48 668.414 881.61 668.404 884.75 668.384C884.75 671.144 884.75 673.914 884.75 677.064H875.34V668.434Z" fill="#EBEBAE"/>
<path d="M918.16 668.344H927.04V677.394H917.61C917.81 674.124 917.98 671.234 918.16 668.344Z" fill="#F4F2B3"/>
<path d="M906.18 668.344C909.08 668.344 911.97 668.334 914.87 668.324C915.06 671.114 915.24 673.914 915.45 677.074H905.79C905.92 674.174 906.05 671.254 906.17 668.344H906.18Z" fill="#F4F2B3"/>
<path d="M830.15 668.334C833.05 668.334 835.94 668.334 838.84 668.334C838.99 671.124 839.13 673.924 839.3 677.074H829.66C829.83 674.134 829.99 671.234 830.15 668.324V668.334Z" fill="#F4F2B3"/>
<path d="M659.15 668.334C662.05 668.334 664.94 668.334 667.84 668.334C667.99 671.134 668.13 673.924 668.3 677.074H658.66C658.83 674.134 658.99 671.234 659.15 668.324V668.334Z" fill="#F4F2B3"/>
<path d="M647.17 668.344C650.07 668.344 652.98 668.334 655.88 668.324C656.06 671.124 656.24 673.914 656.45 677.074H647.17V668.344Z" fill="#F4F2B3"/>
<path d="M537.18 668.344H546.04V677.384C543.13 677.384 540.22 677.384 536.77 677.384C536.92 674.114 537.05 671.224 537.18 668.344Z" fill="#F4F2B3"/>
</g>
<defs>
<clipPath id="clip0_224_452">
<rect width="1512" height="982" fill="white"/>
</clipPath>
</defs>
</svg>
