<svg width="996" height="965" viewBox="0 0 996 965" fill="none" xmlns="http://www.w3.org/2000/svg">
<path d="M0 321.244H7C7 310.374 7.36 299.744 6.87 289.164C6.54 282.044 8.12 275.874 11.94 269.934C15.42 264.514 18.36 258.744 21.97 252.374C24.55 256.864 26.87 260.894 29.19 264.924C29.46 264.864 29.73 264.804 30 264.744C30 260.524 30 256.294 30 252.074C30 231.754 30.02 211.424 29.97 191.104C29.97 188.524 29.75 186.094 33.95 187.524V139.484C36.39 139.194 38.47 138.944 40.49 138.704C46.04 93.3241 70.92 65.9641 116 56.4141C116 47.3141 115.95 37.8441 116.04 28.3841C116.06 26.6141 116.21 24.6241 117.03 23.1341C121.2 15.5841 125.61 8.17411 129.93 0.714111C129.89 2.20411 130.15 3.78411 129.75 5.17411C125.54 19.9141 125.94 35.0141 125.88 50.1141C125.86 54.4741 127 56.1241 131.41 57.4941C159.8 66.3141 178.59 85.0441 186.94 113.684C188.95 120.574 189.6 127.854 190.95 135.354C201.21 136.284 211.59 137.224 221.96 138.164C224.84 138.574 227.73 138.984 230.83 139.434C230.83 142.074 230.83 144.644 230.83 147.224C225.41 146.684 220 146.124 214.58 145.604C203.08 144.494 191.58 143.404 180.08 142.304C156.59 142.284 133.1 142.404 109.62 142.124C104.82 142.064 103.9 143.674 103.91 148.074C104.05 199.214 104 250.354 104 301.504C104 311.911 109.187 316.424 119.56 315.044C119.86 315.004 120.12 314.744 120.98 314.254C120.98 306.964 121.04 299.344 120.9 291.734C120.88 290.914 119.73 289.444 119.06 289.424C115.74 289.284 116 287.094 116 284.874C116.01 253.554 115.93 222.234 116.06 190.924C116.1 181.224 123.29 172.884 131.18 169.804C146.96 163.644 163.98 175.414 164 192.274C164.04 222.764 164.02 253.244 164 283.734C164 285.364 163.86 286.994 163.78 288.964C162.02 289.064 160.57 289.144 159.12 289.224C159.08 287.414 159.2 285.574 158.98 283.784C158.33 278.494 157.55 273.214 156.83 267.924C156.89 250.114 157.1 232.304 156.93 214.494C156.85 205.764 149.61 198.724 141.04 198.274C132.15 197.804 123.54 204.194 123.28 212.944C122.74 230.994 123.12 249.064 123.12 268.294C124.5 266.144 125.25 264.944 126.03 263.764C130.71 256.634 135.4 249.514 140.08 242.384C140.38 242.754 140.68 243.124 140.98 243.494L141.12 243.684C141.18 246.334 141.1 249.004 141.33 251.644C142.17 261.224 143.89 270.784 143.9 280.364C144.05 508.334 144.01 736.304 144.01 964.264H130.01C130.01 784.064 130.03 603.864 129.88 423.674C129.88 419.544 128.68 415.074 126.84 411.354C122.94 403.494 107.74 398.784 99.79 409.014C99.21 409.774 98.62 410.524 98.03 411.274C97.86 411.414 97.69 411.544 97.52 411.684C97.62 411.664 97.77 411.684 97.82 411.624C97.91 411.524 97.94 411.364 97.99 411.234C98.71 410.624 99.42 410.014 100.14 409.404C100.62 409.264 101.16 409.224 101.57 408.974C113.53 401.714 127.29 408.974 127.26 425.194C126.87 604.874 127.02 784.564 127.02 964.244H91.02C91.02 784.044 91.04 603.844 90.89 423.654C90.89 419.524 89.69 415.054 87.85 411.334C83.95 403.474 68.75 398.764 60.8 408.994C60.22 409.754 59.63 410.504 59.04 411.254C58.87 411.394 58.7 411.524 58.53 411.664C58.63 411.644 58.78 411.664 58.83 411.604C58.92 411.504 58.95 411.344 59 411.214C59.72 410.604 60.43 409.994 61.15 409.384C61.63 409.244 62.17 409.204 62.58 408.954C74.54 401.694 88.3 408.954 88.27 425.174C87.88 604.854 88.03 784.544 88.03 964.224H53.03C53.03 895.774 53.03 827.324 53.03 758.874C53.03 647.124 53.06 535.374 52.9 423.624C52.9 419.494 51.7 415.024 49.86 411.304C45.96 403.444 30.76 398.734 22.81 408.974C22.23 409.734 21.64 410.484 21.05 411.234C20.88 411.374 20.71 411.504 20.54 411.644C20.64 411.624 20.79 411.644 20.84 411.584C20.93 411.484 20.96 411.324 21.01 411.194C21.73 410.584 22.44 409.974 23.16 409.364C23.64 409.224 24.18 409.184 24.59 408.934C36.55 401.674 50.31 408.934 50.27 425.164C49.88 604.844 50.03 784.534 50.03 964.214H0V321.244ZM80 290.014C80 265.214 80.01 240.934 80 216.654C80 208.954 75.93 204.224 69.45 204.254C63 204.284 59.02 209.014 59.02 216.774C59 240.064 59.01 263.364 59.02 286.654C59.02 288.094 59.18 289.534 59.27 291.124C66.26 290.754 72.86 290.394 80.01 290.014H80ZM54.65 206.114C49.13 207.754 47.98 211.484 47.99 216.104C48.02 239.574 47.99 263.034 48.02 286.504C48.02 287.944 48.22 289.384 48.33 290.944H54.65V206.124V206.114ZM82.77 380.034V348.684H74.2V380.034H82.77ZM70.76 380.104V349.594H62.31V380.104H70.76ZM33 452.094C33 442.974 33.23 434.354 32.81 425.774C32.72 423.924 30.28 422.194 28.92 420.404C27.29 421.754 24.32 423.044 24.26 424.464C23.83 433.654 24.04 442.884 24.04 452.104H33V452.094ZM45 452.124C45 442.914 45.24 434.144 44.8 425.404C44.71 423.664 42.03 422.054 40.54 420.384C39.03 421.864 36.3 423.294 36.23 424.844C35.82 433.884 36.03 442.944 36.03 452.124H45.01H45ZM71 452.104C71 442.954 71.24 434.184 70.8 425.454C70.71 423.704 68.06 422.074 66.59 420.384C65.07 421.854 62.3 423.254 62.23 424.794C61.81 433.834 62.02 442.904 62.02 452.104H70.99H71ZM83 452.084C83 442.944 83.23 434.324 82.81 425.734C82.72 423.894 80.25 422.174 78.88 420.404C77.27 421.764 74.32 423.074 74.26 424.504C73.84 433.694 74.04 442.914 74.04 452.074H83V452.084ZM109 452.124C109 442.874 109.24 434.094 108.8 425.354C108.71 423.624 106 422.034 104.5 420.374C103.01 421.874 100.29 423.314 100.22 424.884C99.81 433.914 100.02 442.984 100.02 452.124H109ZM121 452.094C121 442.964 121.23 434.344 120.81 425.764C120.72 423.924 118.26 422.194 116.9 420.414C115.28 421.774 112.32 423.064 112.26 424.494C111.84 433.684 112.04 442.904 112.04 452.104H121V452.094Z" fill="#06292E"/>
<path d="M156.82 267.914C157.55 273.194 158.33 278.474 158.97 283.774C159.19 285.564 159.07 287.394 159.11 289.214C159.07 296.704 158.91 304.194 159.11 311.664C159.15 313.084 160.53 315.554 161.53 315.684C167.5 316.454 173.54 316.684 180 317.124C180 314.444 180 312.474 180 310.504C180.03 254.434 180.06 198.364 180.09 142.294C191.59 143.394 203.09 144.484 214.59 145.594C220.01 146.114 225.42 146.674 230.84 147.214C230.89 154.364 230.97 161.524 231 168.674C231.03 175.644 231 182.624 231 189.934C232.39 190.144 233.59 190.324 235 190.534C235 213.764 234.98 236.714 235.03 259.664C235.03 261.594 235.48 263.524 235.72 265.454C233.15 270.584 228.73 275.594 228.36 280.884C227.34 295.274 228.03 309.774 228.08 324.234C228.08 324.824 228.5 325.414 228.66 325.824H238C238 322.294 237.9 319.154 238.02 316.024C238.6 299.974 236.45 283.824 239.96 267.884C240.92 263.544 241.32 259.074 241.98 254.664C242.65 254.444 243.83 253.924 243.9 254.044C248.6 262.264 253.29 270.504 257.76 278.864C258.39 280.044 257.99 281.814 257.99 283.304C258 296.754 257.99 310.214 257.99 323.834C260.08 324.084 261.7 324.274 264.02 324.544C264.02 411.064 264.02 497.654 264.02 584.244C251.94 588.044 239.85 591.844 226.99 595.884C226.99 592.964 226.99 591.174 226.99 589.374C226.99 562.914 226.99 536.454 226.99 509.994C226.99 479.544 226.96 449.084 227.01 418.634C227.02 409.564 234.18 404.204 242.86 406.794C245.36 407.534 247.63 409.054 250 410.204C250.05 410.334 250.08 410.484 250.17 410.594C250.22 410.654 250.36 410.634 250.46 410.654C250.29 410.514 250.13 410.384 249.96 410.244C248.39 408.474 247.16 406.074 245.2 405.044C234.84 399.624 224.02 406.704 224.01 418.824C223.96 465.774 223.99 512.734 223.99 559.684C223.99 570.674 224.06 581.664 223.91 592.654C223.89 594.174 223.1 596.704 222.1 597.034C212.05 600.324 201.88 603.244 190.99 606.494C190.99 603.854 190.99 601.914 190.99 599.974C190.99 566.844 190.99 533.704 190.99 500.574C190.99 473.434 190.97 446.294 191 419.154C191.01 408.994 199.33 403.474 208.77 407.354C210.6 408.104 212.27 409.244 214.01 410.204C214.06 410.334 214.09 410.484 214.18 410.594C214.23 410.654 214.37 410.634 214.47 410.654C214.3 410.514 214.14 410.384 213.97 410.244C211.7 405.044 205.47 402.134 199.58 403.514C192.01 405.284 188 410.704 188 419.344C187.99 480.154 187.94 540.964 188.1 601.774C188.11 606.324 186.66 608.204 182.39 609.264C175.26 611.044 168.27 613.414 159.77 615.984C168.12 619.894 174.89 623.344 181.89 626.224C186.23 628.014 188.14 630.224 188.13 635.344C187.95 744.974 187.99 854.594 187.99 964.224H154.99C154.99 783.364 154.99 602.514 154.99 421.654C154.99 420.154 154.89 418.644 155.02 417.164C155.41 412.694 157.45 409.314 161.64 407.364C167.77 404.514 172.92 407.134 178.01 410.204C178.06 410.334 178.09 410.484 178.18 410.594C178.23 410.654 178.37 410.634 178.47 410.654C178.3 410.514 178.14 410.384 177.97 410.244C175.7 405.044 169.47 402.134 163.58 403.514C155.77 405.344 151.99 410.814 151.99 420.354C151.99 601.644 151.99 782.934 151.99 964.224H143.99C143.99 736.254 144.02 508.284 143.88 280.324C143.88 270.754 142.15 261.184 141.31 251.604C141.08 248.964 141.16 246.304 141.1 243.654C146.34 251.734 151.57 259.814 156.81 267.894L156.82 267.914ZM214.98 291.334C214.98 265.194 215.13 239.744 214.77 214.294C214.73 211.504 212.41 207.604 210.01 206.304C207.24 204.794 202.91 204.634 199.81 205.624C195.56 206.994 193.97 211.104 193.97 215.694C194.02 239.504 193.99 263.324 194.01 287.134C194.01 287.914 194.2 288.694 194.33 289.744C201.16 290.274 207.75 290.774 214.98 291.334ZM225.73 291.034C225.82 289.394 225.99 287.804 225.99 286.214C226.01 256.604 226.01 226.994 225.99 197.374C225.99 188.204 219 183.214 210.19 186.024C204.42 187.864 202.1 190.824 202.7 196.014C207.86 193.194 212.67 193.614 215.8 198.724C217.26 201.104 217.9 204.344 217.92 207.194C218.08 233.144 218.01 259.094 218.01 285.054C218.01 286.984 218.01 288.904 218.01 291.034H225.74H225.73ZM195.29 347.264V380.924H202.69V347.744C200.14 347.574 197.87 347.434 195.29 347.264ZM213.69 381.104V348.694C211.02 348.564 208.65 348.444 206.3 348.324V381.104H213.69ZM167 453.094C167 443.114 167.19 433.664 166.82 424.224C166.76 422.614 164.3 421.094 162.94 419.524C161.64 420.784 159.24 422.004 159.2 423.304C158.88 433.194 159.03 443.104 159.03 453.084H167V453.094ZM178 453.094C178 443.154 178.19 433.704 177.82 424.274C177.76 422.644 175.33 421.104 174 419.514C172.68 420.754 170.25 421.954 170.21 423.234C169.89 433.134 170.03 443.044 170.03 453.084H177.99L178 453.094ZM195 452.954H203C203 443.224 203.19 433.784 202.82 424.354C202.76 422.694 200.56 420.014 199.03 419.764C196.08 419.284 194.95 421.724 194.97 424.664C195.04 433.954 194.99 443.234 194.99 452.954H195ZM214 453.094C214 443.154 214.19 433.704 213.82 424.274C213.76 422.644 211.33 421.104 210 419.514C208.68 420.754 206.25 421.954 206.21 423.234C205.89 433.134 206.03 443.044 206.03 453.084H213.99L214 453.094ZM239 453.084C239 443.184 239.19 433.734 238.82 424.304C238.76 422.664 236.35 421.114 235.02 419.524C233.68 420.924 231.24 422.274 231.19 423.714C230.85 433.444 231.01 443.194 231.01 453.084H239ZM249.99 453.044C249.99 443.104 250.16 433.504 249.82 423.914C249.77 422.404 247.42 420.984 246.14 419.524C244.77 420.884 242.25 422.204 242.2 423.604C241.85 433.344 242.02 443.094 242.02 453.044H250H249.99Z" fill="#019053"/>
<path d="M214.02 410.224C212.28 409.264 210.61 408.124 208.78 407.374C199.34 403.494 191.02 409.014 191.01 419.174C190.98 446.314 191 473.454 191 500.594C191 533.724 191 566.864 191 599.994C191 601.934 191 603.884 191 606.514C201.89 603.264 212.06 600.334 222.11 597.054C223.11 596.724 223.9 594.194 223.92 592.674C224.07 581.684 224 570.694 224 559.704C224 512.754 223.97 465.794 224.02 418.844C224.03 406.724 234.86 399.654 245.21 405.064C247.17 406.084 248.4 408.494 249.97 410.264L250.01 410.224C247.63 409.064 245.36 407.554 242.87 406.814C234.18 404.224 227.03 409.584 227.02 418.654C226.97 449.104 227 479.564 227 510.014C227 536.474 227 562.934 227 589.394C227 591.194 227 592.984 227 595.904C239.86 591.864 251.95 588.064 264.03 584.264C277.09 580.504 290.18 576.824 303.21 572.964C321.99 567.404 340.72 561.694 359.5 556.114C361.38 555.554 363.41 555.284 365.37 555.284C522.62 555.244 679.87 555.254 837.12 555.254C838.12 555.254 839.11 555.344 840.11 555.394C838.39 556.374 836.72 557.464 834.94 558.324C797.4 576.604 759.85 594.854 722.31 613.124C720.77 613.874 719.29 614.754 716.58 616.224H723.52C811.94 616.224 900.36 616.224 988.78 616.244C990.91 616.244 993.05 616.604 995.18 616.794C986.15 621.054 977.12 625.314 968.1 629.564C967.1 629.504 966.11 629.394 965.11 629.394C882.48 629.394 799.86 629.414 717.23 629.434C708.44 629.704 699.65 630.204 690.86 630.204C526.36 630.254 361.86 630.234 197.36 630.234C196.03 630.234 194.68 630.354 193.36 630.214C190.24 629.884 188.92 630.914 188.93 634.344C189.05 660.014 189.04 685.674 188.93 711.344C188.92 714.484 190.09 715.604 193.04 715.254C193.37 715.214 193.71 715.254 194.04 715.254C368.37 715.244 542.71 715.234 717.04 715.214C800.64 715.234 884.23 715.254 967.83 715.274C967.83 717.604 967.83 719.934 967.83 722.264C884.24 722.274 800.65 722.294 717.07 722.304C715.9 722.284 714.74 722.254 713.57 722.254C540.64 722.254 367.7 722.254 194.77 722.254C194.27 722.254 193.76 722.314 193.27 722.254C190.06 721.844 188.93 723.124 188.93 726.444C189.02 767.094 188.97 807.744 189.07 848.394C189.07 849.684 190.32 850.974 190.99 852.254C190.99 889.584 190.99 926.924 190.99 964.254H187.99C187.99 854.624 187.95 745.004 188.13 635.374C188.13 630.254 186.24 628.044 181.89 626.254C174.89 623.374 168.12 619.924 159.77 616.014C168.28 613.454 175.26 611.074 182.39 609.294C186.66 608.234 188.11 606.344 188.1 601.804C187.93 540.994 187.98 480.184 188 419.374C188 410.734 192.01 405.314 199.58 403.544C205.47 402.164 211.69 405.084 213.97 410.274L214.01 410.234L214.02 410.224ZM519.33 618.524C517.35 620.674 515.48 621.784 515.17 623.224C514.46 626.534 517.18 626.254 519.33 626.224C521.57 626.194 524.59 626.734 523.81 623.064C523.51 621.654 521.47 620.604 519.33 618.524ZM930.73 626.804C931.24 626.314 931.76 625.814 932.27 625.324C931.72 623.664 931.52 620.914 930.53 620.584C928.52 619.924 926.04 620.394 923.85 620.864C923.44 620.954 923.06 624.134 923.4 624.294C925.73 625.364 928.26 626.014 930.72 626.804H930.73ZM764.11 628.344C766.42 625.654 767.64 624.234 768.87 622.804C767.47 621.924 766.15 620.554 764.65 620.294C762.79 619.974 759.74 619.344 760.2 622.884C760.39 624.344 762.07 625.594 764.12 628.344H764.11ZM715.32 628.044C717.41 625.704 718.68 624.274 719.95 622.854C718.54 621.984 717.21 620.624 715.69 620.354C713.53 619.974 710.46 619.674 711.17 623.404C711.42 624.744 713.23 625.784 715.32 628.044ZM617.29 628.054C619.39 625.724 620.67 624.294 621.96 622.874C620.55 621.994 619.23 620.634 617.72 620.364C615.58 619.984 612.49 619.654 613.18 623.404C613.43 624.744 615.22 625.794 617.3 628.054H617.29ZM274.53 627.964C276.57 625.824 278.5 624.734 278.82 623.294C279.56 619.984 276.84 620.144 274.67 620.274C272.73 620.384 269.65 619.394 270.21 622.944C270.45 624.444 272.45 625.654 274.53 627.964ZM323.77 627.974C325.71 625.774 327.56 624.624 327.83 623.174C328.47 619.774 325.63 620.224 323.55 620.264C321.54 620.304 318.54 619.574 319.22 623.064C319.51 624.554 321.58 625.704 323.77 627.974ZM568.32 618.474C566.33 620.684 564.46 621.824 564.17 623.274C563.48 626.674 566.41 626.614 568.37 626.104C570.04 625.674 571.43 624.114 572.94 623.054C571.71 621.834 570.47 620.614 568.32 618.484V618.474ZM372.61 618.474C370.49 620.614 369.27 621.844 368.05 623.074C369.57 624.124 370.96 625.674 372.64 626.104C374.63 626.614 377.52 626.604 376.82 623.244C376.52 621.794 374.63 620.674 372.61 618.474ZM421.63 628.034C423.75 625.804 425.57 624.764 425.83 623.434C426.55 619.724 423.51 619.954 421.33 620.354C419.8 620.624 418.46 621.964 417.04 622.824C418.3 624.264 419.56 625.694 421.62 628.034H421.63ZM666.32 618.474C664.33 620.684 662.46 621.824 662.17 623.274C661.48 626.674 664.41 626.614 666.37 626.104C668.04 625.674 669.43 624.114 670.94 623.054C669.71 621.834 668.47 620.614 666.32 618.484V618.474ZM470.8 628.064C472.84 625.774 474.61 624.704 474.84 623.374C475.5 619.604 472.38 619.994 470.26 620.364C468.75 620.634 467.45 622.024 466.05 622.914C467.35 624.324 468.65 625.744 470.8 628.064ZM486.65 618.574C484.94 620.794 483.43 621.924 483.14 623.314C482.53 626.254 484.83 626.224 486.92 626.254C489.28 626.294 491.63 626.094 490.85 622.974C490.51 621.624 488.71 620.644 486.65 618.574ZM502.86 627.914C504.81 625.784 506.48 624.764 506.85 623.394C507.58 620.694 505.62 620.124 503.32 620.224C501.17 620.314 498.51 619.934 499.15 623.264C499.41 624.624 501.05 625.724 502.86 627.914ZM454.62 618.264C452.37 620.674 450.55 621.754 450.16 623.214C449.42 626.004 451.7 626.664 453.79 626.134C455.31 625.754 457.18 624.704 457.76 623.444C458.11 622.664 456.31 620.914 454.62 618.264ZM437.88 627.914C439.82 625.784 441.54 624.744 441.85 623.384C442.57 620.164 440.06 620.244 437.81 620.214C435.62 620.184 433.47 620.444 434.14 623.264C434.47 624.644 436.06 625.724 437.88 627.904V627.914ZM536.37 627.904C538.06 625.684 539.58 624.544 539.86 623.154C540.46 620.214 538.14 620.274 536.06 620.224C533.69 620.174 531.36 620.414 532.15 623.514C532.5 624.864 534.3 625.834 536.37 627.904ZM405.62 618.264C403.37 620.674 401.55 621.754 401.16 623.214C400.42 626.004 402.7 626.664 404.79 626.134C406.31 625.754 408.18 624.704 408.76 623.444C409.11 622.664 407.31 620.914 405.62 618.264ZM389.15 627.914C390.96 625.724 392.54 624.644 392.86 623.254C393.52 620.414 391.35 620.204 389.18 620.214C386.91 620.234 384.42 620.184 385.16 623.394C385.47 624.754 387.2 625.784 389.15 627.904V627.914ZM552.13 627.914C553.95 625.734 555.54 624.654 555.86 623.274C556.52 620.454 554.38 620.194 552.19 620.214C549.93 620.234 547.43 620.174 548.15 623.394C548.46 624.754 550.18 625.784 552.13 627.904V627.914ZM355.65 618.574C353.94 620.794 352.42 621.924 352.13 623.314C351.51 626.254 353.82 626.224 355.91 626.254C358.27 626.294 360.63 626.094 359.84 622.974C359.5 621.624 357.7 620.644 355.64 618.574H355.65ZM340.37 627.904C342.06 625.684 343.57 624.544 343.86 623.154C344.46 620.214 342.14 620.274 340.06 620.224C337.69 620.174 335.36 620.414 336.15 623.514C336.5 624.864 338.3 625.834 340.37 627.904ZM584.38 628.214C586.63 625.804 588.45 624.724 588.84 623.264C589.58 620.474 587.29 619.814 585.21 620.344C583.69 620.724 581.82 621.764 581.24 623.034C580.89 623.814 582.69 625.564 584.38 628.214ZM307.38 627.894C309.08 625.674 310.59 624.544 310.87 623.154C311.47 620.224 309.16 620.264 307.07 620.214C304.7 620.164 302.36 620.404 303.16 623.504C303.51 624.854 305.31 625.824 307.38 627.894ZM290.63 618.574C288.94 620.794 287.42 621.934 287.14 623.324C286.54 626.264 288.86 626.204 290.94 626.254C293.31 626.304 295.64 626.054 294.85 622.964C294.5 621.614 292.7 620.644 290.63 618.574ZM600.66 627.904C602.71 625.834 604.51 624.854 604.85 623.504C605.64 620.404 603.3 620.164 600.93 620.214C598.84 620.254 596.53 620.234 597.14 623.154C597.43 624.544 598.95 625.674 600.66 627.894V627.904ZM257.66 618.574C255.94 620.804 254.43 621.934 254.14 623.314C253.53 626.244 255.83 626.224 257.92 626.254C260.27 626.294 262.64 626.094 261.85 622.974C261.51 621.624 259.71 620.644 257.66 618.564V618.574ZM242.14 618.564C240.19 620.694 238.52 621.714 238.15 623.084C237.42 625.784 239.38 626.344 241.68 626.254C243.83 626.164 246.49 626.534 245.85 623.214C245.59 621.854 243.95 620.754 242.13 618.564H242.14ZM225.86 618.564C224.04 620.744 222.46 621.824 222.13 623.204C221.47 626.034 223.62 626.274 225.81 626.254C228.07 626.234 230.57 626.294 229.84 623.074C229.53 621.714 227.8 620.684 225.85 618.564H225.86ZM209.13 627.914C210.95 625.734 212.54 624.654 212.87 623.284C213.53 620.464 211.39 620.204 209.2 620.224C206.94 620.244 204.44 620.184 205.16 623.404C205.47 624.764 207.19 625.794 209.13 627.914ZM192.88 627.914C194.82 625.784 196.54 624.744 196.85 623.384C197.57 620.164 195.06 620.244 192.81 620.214C190.62 620.184 188.47 620.444 189.15 623.264C189.48 624.644 191.07 625.724 192.89 627.904L192.88 627.914ZM955.71 625.264C956.19 625.734 956.68 626.214 957.16 626.684C959.43 625.984 961.78 625.454 963.91 624.444C964.27 624.274 963.95 621.124 963.48 620.994C961.53 620.444 959.18 619.924 957.43 620.584C956.41 620.974 956.26 623.624 955.71 625.264ZM947.72 619.584C944.7 620.274 942.37 620.594 940.28 621.464C939.84 621.644 939.94 624.864 940.33 624.994C942.61 625.724 945.05 625.954 947.72 626.394V619.574V619.584ZM682.85 627.914C684.81 625.794 686.48 624.784 686.86 623.414C687.59 620.724 685.65 620.134 683.34 620.234C681.2 620.324 678.52 619.934 679.15 623.264C679.41 624.634 681.05 625.734 682.86 627.914H682.85ZM914.36 620.124C911.85 620.234 909.62 620.334 907.34 620.434C907.21 621.834 907.04 622.654 907.08 623.464C907.12 624.244 907.38 625.014 907.53 625.674C915.08 626.754 915.52 626.424 914.36 620.124ZM894.35 628.054C896.59 625.804 898.41 624.784 898.87 623.334C899.68 620.734 897.79 619.964 895.46 620.174C893.49 620.344 890.64 619.464 891.1 622.944C891.28 624.324 892.7 625.534 894.36 628.054H894.35ZM875.14 625.814H882.62V620.614H875.14V625.814ZM858.25 625.614C866.2 626.814 867.03 626.134 865.17 620.584H858.25V625.614ZM846.12 628.024C847.99 625.614 849.01 624.294 850.03 622.984C848.71 622.044 847.51 620.634 846.05 620.284C843.9 619.764 841.37 620.124 842.1 623.314C842.41 624.664 844.07 625.714 846.12 628.024ZM826.61 620.174C825.49 626.514 826.65 627.254 833.93 625.274C833.84 623.784 833.76 622.204 833.66 620.524C832.44 620.374 831.64 620.224 830.83 620.194C829.51 620.144 828.19 620.184 826.61 620.184V620.174ZM809.32 620.474C809.2 621.854 809.03 622.684 809.08 623.494C809.13 624.274 809.39 625.034 809.54 625.704C817.1 626.744 817.54 626.414 816.39 620.484H809.31L809.32 620.474ZM797.16 628.024C799 625.614 800.01 624.284 801.03 622.954C799.71 622.024 798.5 620.634 797.03 620.274C794.86 619.744 792.37 620.164 793.13 623.334C793.45 624.684 795.11 625.714 797.16 628.024ZM784.65 620.584H776.89C777.02 622.594 777.13 624.154 777.24 625.834H784.65V620.584ZM698.88 618.564C697.05 620.754 695.47 621.834 695.14 623.204C694.47 626.024 696.62 626.284 698.81 626.254C701.06 626.224 703.58 626.304 702.85 623.084C702.54 621.724 700.82 620.694 698.88 618.564ZM650.34 627.904C652.05 625.684 653.57 624.554 653.86 623.164C654.48 620.234 652.18 620.254 650.08 620.214C647.73 620.174 645.36 620.364 646.15 623.484C646.49 624.834 648.28 625.814 650.34 627.894V627.904ZM735.52 625.564V620.544H728.43C727.64 626.524 728.18 626.894 735.52 625.564ZM744.31 626.524C747.14 626.034 749.51 625.864 751.64 625.054C752.09 624.884 752.01 621.284 751.55 621.134C749.38 620.414 747 620.344 744.31 619.994V626.524ZM634.14 628.214C636.07 625.684 637.58 624.544 637.87 623.164C638.47 620.224 636.07 619.854 634.1 620.364C632.61 620.744 631.37 622.124 630.03 623.064C631.09 624.384 632.14 625.714 634.15 628.224L634.14 628.214Z" fill="#06292E"/>
<path d="M263.93 852.314C263.95 889.624 263.98 926.934 264 964.244H227V934.814C227 908.874 227.01 882.934 226.98 856.994C226.98 854.874 227.95 851.934 223.98 852.214L224.03 852.264C224.03 832.614 224.03 812.964 224.05 793.314C224.05 783.064 226.88 773.784 232.9 765.344C247.74 744.534 281.6 740.834 300.05 758.174C298.73 758.284 297.4 758.394 296.08 758.524C273.03 760.694 256.28 775.464 253.49 797.114C252.39 805.644 253.07 814.414 253.03 823.074C252.98 832.684 253.02 842.294 253.02 852.304H263.95L263.93 852.314Z" fill="#019053"/>
<path d="M191 964.244C191 926.914 191 889.574 191 852.244C202.01 852.244 213.01 852.254 224.02 852.264L223.97 852.214C223.97 889.554 223.99 926.904 224 964.244H191Z" fill="#019053"/>
<path d="M50 964.244C50 784.564 49.86 604.874 50.24 425.194C50.28 408.974 36.51 401.704 24.56 408.964C24.15 409.214 23.61 409.254 23.13 409.394C23.01 409.264 22.9 409.134 22.78 408.994C30.72 398.764 45.93 403.464 49.83 411.334C51.67 415.054 52.87 419.524 52.87 423.654C53.03 535.404 53 647.154 53 758.904C53 827.354 53 895.804 53 964.254H50V964.244Z" fill="#019053"/>
<path d="M88 964.244C88 784.564 87.86 604.874 88.24 425.194C88.28 408.974 74.51 401.704 62.55 408.974C62.14 409.224 61.6 409.264 61.12 409.404C61 409.274 60.88 409.144 60.77 409.004C68.72 398.774 83.92 403.484 87.82 411.344C89.66 415.064 90.86 419.534 90.86 423.664C91.01 603.864 90.99 784.064 90.99 964.254H87.99L88 964.244Z" fill="#019053"/>
<path d="M127 964.244C127 784.564 126.86 604.874 127.24 425.194C127.28 408.974 113.51 401.704 101.55 408.974C101.14 409.224 100.6 409.264 100.12 409.404C100 409.274 99.88 409.144 99.77 409.004C107.72 398.774 122.92 403.484 126.82 411.344C128.66 415.064 129.86 419.534 129.86 423.664C130.01 603.864 129.99 784.064 129.99 964.254H126.99L127 964.244Z" fill="#019053"/>
<path d="M152 964.244C152 782.954 152 601.664 152 420.374C152 410.834 155.78 405.364 163.59 403.534C169.48 402.154 175.7 405.064 177.98 410.264L178.02 410.224C172.93 407.154 167.79 404.534 161.65 407.384C157.46 409.334 155.42 412.714 155.03 417.184C154.9 418.674 155 420.184 155 421.674C155 602.534 155 783.384 155 964.244H152Z" fill="#06292E"/>
<path d="M224 964.244C224 926.904 223.98 889.554 223.97 852.214C227.94 851.934 226.97 854.874 226.97 856.994C227.01 882.934 226.99 908.874 226.99 934.814V964.244H223.99H224Z" fill="#06292E"/>
<path d="M224.02 852.264C213.01 852.264 202.01 852.254 191 852.244C190.33 850.954 189.08 849.674 189.08 848.384C188.98 807.734 189.03 767.084 188.94 726.434C188.94 723.114 190.06 721.824 193.28 722.244C193.77 722.304 194.28 722.244 194.78 722.244C367.71 722.244 540.65 722.244 713.58 722.244C714.75 722.244 715.91 722.274 717.08 722.294C717.04 724.614 716.97 726.944 716.97 729.264C716.95 770.124 716.93 810.984 716.91 851.834C704.81 851.864 692.71 851.894 680.61 851.924C680.56 832.004 680.5 812.094 680.48 792.174C680.47 778.474 675.73 766.964 664.94 758.214C653.01 747.854 639.12 745.014 624.03 748.284C603.46 752.744 588.33 770.604 588.88 792.434C589.38 812.244 588.95 832.074 588.92 851.894C582.01 851.944 575.11 852.004 568.2 852.054C568.13 850.064 568.01 848.074 568.01 846.094C568 827.344 568.25 808.584 567.91 789.834C567.68 776.944 562.64 766.064 552.05 758.164C541.25 747.944 527.95 745.164 514.11 747.914C489.28 752.854 476.07 770.094 476.05 795.424C476.05 814.254 476.01 833.084 475.99 851.914C460.13 851.934 444.28 851.954 428.42 851.974C428.38 849.644 428.3 847.324 428.29 844.994C428.21 825.534 428.66 806.064 427.88 786.634C427.41 774.974 422.23 764.944 412.12 758.134C411.04 757.124 410.07 755.974 408.87 755.134C400.11 748.974 390.32 746.904 379.68 747.124C356.77 747.604 337.04 767.144 336.97 789.984C336.9 810.614 336.92 831.244 336.9 851.864C329.99 851.924 323.07 851.994 316.16 852.054C316.08 831.564 316.18 811.064 315.87 790.574C315.67 777.424 310.67 766.344 300.04 758.144C281.58 740.804 247.73 744.494 232.89 765.314C226.88 773.744 224.05 783.034 224.04 793.284C224.04 812.934 224.03 832.584 224.02 852.234V852.264Z" fill="#064928"/>
<path d="M717.23 629.424C799.86 629.414 882.48 629.394 965.11 629.384C966.11 629.384 967.1 629.494 968.1 629.554C968.07 656.134 968.04 682.714 968 709.294C968 711.284 967.9 713.274 967.84 715.264C884.24 715.244 800.65 715.224 717.05 715.204C717.02 705.894 716.95 696.584 716.97 687.274C717.03 667.994 717.14 648.714 717.22 629.424H717.23ZM816.04 659.354H825.54V650.624C826.37 650.574 827.2 650.514 828.03 650.464V659.164H837.54V650.624C840.49 650.614 843.44 650.594 846.38 650.584V659.124H855.89V650.494C856.68 650.514 857.47 650.534 858.25 650.554V659.134H867.89V650.504C868.81 650.154 869.73 649.814 870.66 649.464L870.46 648.624H812.97C812.97 666.224 812.92 683.334 813.1 700.444C813.1 701.394 814.93 702.314 815.91 703.254C818.98 703.384 822.04 703.524 825.3 703.664V665.324H816.11C816.09 663.334 816.07 661.344 816.06 659.354H816.04ZM890.22 659.224H899.86V650.504C900.64 650.504 901.42 650.514 902.2 650.524V659.124H911.85V650.504L921.03 650.464V659.114H930.04V650.434C931.03 650.434 932.01 650.434 933 650.444V659.064H942.04V650.424C942.94 650.084 943.84 649.744 945.04 649.294C944.29 648.674 944.05 648.314 943.82 648.314C925.87 648.234 907.91 648.124 889.96 648.284C888.99 648.284 887.2 650.474 887.19 651.654C887 667.784 887.01 683.914 887.19 700.044C887.2 701.114 889.12 702.164 890.16 703.214H899.59V665.354H890.28C890.26 663.304 890.24 661.254 890.22 659.204V659.224ZM750.94 650.484C751.75 650.514 752.56 650.554 753.37 650.584V659.124H762.95V650.474L772.1 650.494V659.144H781.7V650.574C782.49 650.544 783.28 650.524 784.08 650.494V659.154H793.7V650.574C794.69 650.234 795.67 649.884 797.78 649.154C795.77 648.264 794.83 647.494 793.88 647.494C776.44 647.424 759.01 647.374 741.57 647.574C740.41 647.584 738.29 649.574 738.28 650.664C738.07 667.434 738.11 684.204 738.14 700.974C738.14 703.174 738.91 704.674 741.51 703.294H750.69V665.284H741.94L741.9 659.494H750.93V650.504L750.94 650.484ZM837.2 703.354V665.654H828.08V703.354H837.2ZM855.63 703.344V665.684H846.59V703.344H855.63ZM911.56 703.294V665.624H902.35V703.294H911.56ZM858.44 665.434V703.304H867.66V665.434H858.44ZM784.16 665.434V703.294H793.38V665.434H784.16ZM781.37 703.284V665.624H772.23V703.284H781.37ZM762.91 665.704H753.66V703.214H762.91V665.704ZM942.1 665.554H933.08V703.104H942.1V665.554ZM929.86 703.274V665.624H921.15V703.274H929.86Z" fill="#049154"/>
<path d="M716.91 851.844C716.93 810.984 716.94 770.124 716.97 729.274C716.97 726.954 717.04 724.624 717.08 722.304C800.67 722.294 884.26 722.274 967.84 722.264C967.89 764.704 967.95 807.134 967.99 849.574C967.99 850.214 967.86 850.864 967.74 851.934C959.74 851.934 951.81 851.934 943.89 851.934C943.9 833.224 944.03 814.514 943.83 795.804C943.78 790.944 942.69 786.104 942.08 781.254C938.55 765.884 929.03 755.734 914.5 750.274C902.9 745.914 891.22 745.394 879.81 751.204C875.85 753.534 871.9 755.864 867.94 758.194C857 766.324 852.14 777.524 851.98 790.814C851.72 811.224 851.79 831.634 851.72 852.044C844.81 852.014 837.9 851.984 830.98 851.954C830.98 831.154 831.03 810.354 830.95 789.564C830.95 787.114 830.28 784.664 829.93 782.224C825.9 756.014 793.8 739.474 768.06 750.354C763.71 752.984 759.37 755.604 755.02 758.234C746.35 765.034 741.46 774.084 739.97 784.844C739.25 790.084 739.35 795.454 739.29 800.764C739.11 817.884 739.02 834.994 738.9 852.114C731.57 852.034 724.23 851.954 716.9 851.874L716.91 851.844Z" fill="#029053"/>
<path d="M995.18 616.784C993.05 616.594 990.91 616.234 988.78 616.234C900.36 616.204 811.94 616.214 723.52 616.214H716.58C719.29 614.744 720.77 613.864 722.31 613.114C759.85 594.844 797.4 576.594 834.94 558.314C836.72 557.444 838.39 556.364 840.11 555.384C845.55 557.294 851.05 559.034 856.42 561.134C901.24 578.634 946.03 596.194 990.82 613.754C992.47 614.404 994.05 615.254 995.65 616.034C995.7 616.054 995.66 616.364 995.59 616.484C995.51 616.614 995.33 616.684 995.2 616.784H995.18Z" fill="#029053"/>
<path d="M738.91 852.084C739.03 834.964 739.12 817.854 739.3 800.734C739.36 795.424 739.25 790.054 739.98 784.814C741.46 774.054 746.36 765.004 755.03 758.204C755.86 758.274 756.68 758.374 757.51 758.404C784.01 759.204 803.44 780.594 802.31 804.644C801.58 820.414 802.25 836.244 802.29 852.054C781.16 852.064 760.04 852.074 738.91 852.084Z" fill="#F9F6B7"/>
<path d="M300.04 758.184C310.67 766.374 315.67 777.454 315.87 790.614C316.18 811.104 316.09 831.604 316.16 852.094C298.75 852.164 281.34 852.244 263.93 852.314C260.46 852.314 257 852.314 253 852.314C253 842.294 252.96 832.684 253.01 823.084C253.06 814.424 252.37 805.654 253.47 797.124C256.26 775.474 273.02 760.704 296.06 758.534C297.38 758.414 298.71 758.304 300.03 758.184H300.04Z" fill="#FAF6B7"/>
<path d="M412.13 758.164C422.24 764.974 427.42 775.004 427.89 786.664C428.68 806.094 428.22 825.574 428.3 845.024C428.3 847.354 428.39 849.674 428.43 852.004C407.31 852.064 386.18 852.124 365.06 852.174C365.19 850.354 365.42 848.544 365.43 846.724C365.46 832.414 365.43 818.104 365.45 803.794C365.46 789.044 371.17 777.044 382.85 767.954C391.46 761.264 401.47 758.714 412.14 758.154L412.13 758.164Z" fill="#F9F6B7"/>
<path d="M851.72 852.034C851.79 831.624 851.72 811.214 851.98 790.804C852.15 777.514 857.01 766.304 867.94 758.184C868.6 758.264 869.26 758.384 869.92 758.404C895.62 759.444 916.09 779.004 914.96 806.734C914.34 821.864 914.95 837.034 915 852.184C893.91 852.134 872.81 852.084 851.72 852.024V852.034Z" fill="#FAF6B7"/>
<path d="M552.05 758.184C562.64 766.084 567.68 776.964 567.91 789.854C568.25 808.604 567.99 827.354 568.01 846.114C568.01 848.104 568.13 850.094 568.2 852.074C547.12 852.104 526.04 852.134 504.96 852.164C505 835.844 504.96 819.524 505.1 803.194C505.22 789.034 510.78 777.404 521.88 768.504C530.7 761.434 541.02 758.784 552.05 758.174V758.184Z" fill="#FAF6B7"/>
<path d="M664.94 758.224C675.73 766.974 680.47 778.484 680.48 792.184C680.49 812.104 680.56 832.014 680.61 851.934C659.63 851.964 638.65 851.994 617.67 852.024C617.69 835.724 617.77 819.414 617.71 803.104C617.68 794.564 619.65 786.634 624.35 779.474C633.93 764.894 647.95 758.684 664.94 758.214V758.224Z" fill="#FBF7B7"/>
<path d="M664.94 758.224C647.95 758.694 633.93 764.904 624.35 779.484C619.65 786.634 617.68 794.574 617.71 803.114C617.77 819.414 617.69 835.724 617.67 852.034C608.09 851.994 598.51 851.954 588.93 851.914C588.95 832.094 589.39 812.264 588.89 792.454C588.34 770.624 603.47 752.754 624.04 748.304C639.14 745.034 653.03 747.864 664.95 758.234L664.94 758.224Z" fill="#049154"/>
<path d="M552.05 758.184C541.02 758.794 530.69 761.454 521.88 768.514C510.78 777.414 505.22 789.034 505.1 803.204C504.96 819.524 505 835.844 504.96 852.174C495.31 852.094 485.65 852.024 476 851.944C476.02 833.114 476.05 814.284 476.06 795.454C476.07 770.124 489.28 752.884 514.12 747.944C527.96 745.194 541.25 747.964 552.06 758.194L552.05 758.184Z" fill="#049053"/>
<path d="M412.13 758.164C401.46 758.724 391.45 761.264 382.84 767.964C371.16 777.044 365.46 789.054 365.44 803.804C365.43 818.114 365.45 832.424 365.42 846.734C365.42 848.554 365.18 850.364 365.05 852.184C355.67 852.094 346.28 852.004 336.89 851.914C336.91 831.284 336.89 810.654 336.96 790.034C337.04 767.194 356.76 747.654 379.67 747.174C390.31 746.954 400.1 749.014 408.86 755.184C410.06 756.024 411.03 757.174 412.11 758.184L412.13 758.164Z" fill="#029053"/>
<path d="M221.97 138.164C211.6 137.224 201.22 136.284 190.96 135.354C189.61 127.854 188.96 120.574 186.95 113.684C178.6 85.0441 159.81 66.3141 131.42 57.4941C127.01 56.1241 125.87 54.4741 125.89 50.1141C125.95 35.0141 125.56 19.9141 129.76 5.17414C130.16 3.78414 129.89 2.20414 129.94 0.714143C130.61 0.464143 131.83 -0.0958575 131.89 0.0141425C136.6 8.23414 141.59 16.3241 145.64 24.8641C147 27.7341 145.99 31.7541 146.01 35.2441C146.03 42.3641 146.01 49.4841 146.01 56.5341C192.33 63.3641 220.18 100.054 221.98 138.174L221.97 138.164Z" fill="#029053"/>
<path d="M802.29 852.054C802.25 836.254 801.58 820.414 802.31 804.644C803.43 780.594 784 759.214 757.51 758.404C756.68 758.374 755.86 758.274 755.03 758.204C759.38 755.574 763.72 752.954 768.07 750.324C773.07 750.964 778.05 751.724 783.07 752.214C796.65 753.544 808.71 758.354 818.33 768.194C822.56 772.514 826.09 777.514 829.94 782.204C830.3 784.654 830.95 787.094 830.96 789.544C831.04 810.344 830.99 831.144 830.99 851.934C821.43 851.974 811.86 852.014 802.3 852.044L802.29 852.054Z" fill="#084A29"/>
<path d="M915 852.184C914.95 837.034 914.34 821.854 914.96 806.734C916.09 779.004 895.62 759.444 869.92 758.404C869.26 758.374 868.6 758.254 867.94 758.184C871.9 755.854 875.85 753.524 879.81 751.194C884.93 751.544 890.06 751.764 895.16 752.264C908.59 753.574 920.68 758.034 930.21 767.994C934.31 772.274 938.13 776.824 942.08 781.244C942.69 786.094 943.78 790.934 943.83 795.794C944.03 814.504 943.9 833.214 943.89 851.924C934.26 852.014 924.63 852.104 915 852.194V852.184Z" fill="#064928"/>
<path d="M241.98 254.684C241.32 259.094 240.91 263.554 239.96 267.904C236.45 283.854 238.6 299.994 238.02 316.044C237.91 319.174 238 322.314 238 325.844H228.66C228.5 325.434 228.08 324.844 228.08 324.254C228.03 309.794 227.35 295.284 228.36 280.904C228.73 275.614 233.15 270.604 235.72 265.474C237.81 261.884 239.89 258.284 241.98 254.684Z" fill="#06292E"/>
<path d="M180.09 142.304C180.06 198.374 180.03 254.444 180 310.514C180 312.484 180 314.454 180 317.134C173.54 316.694 167.5 316.464 161.53 315.694C160.53 315.564 159.15 313.094 159.11 311.674C158.9 304.194 159.07 296.704 159.11 289.224C160.56 289.144 162.01 289.064 163.77 288.964C163.86 286.984 163.99 285.364 163.99 283.734C164 253.244 164.03 222.764 163.99 192.274C163.97 175.414 146.95 163.644 131.17 169.804C123.28 172.884 116.09 181.234 116.05 190.924C115.92 222.244 116 253.564 115.99 284.874C115.99 287.094 115.73 289.284 119.05 289.424C119.72 289.454 120.87 290.914 120.89 291.734C121.03 299.344 120.97 306.964 120.97 314.254C120.12 314.734 119.85 315.004 119.55 315.044C109.177 316.424 103.99 311.911 103.99 301.504C103.99 250.364 104.04 199.224 103.9 148.074C103.89 143.674 104.81 142.064 109.61 142.124C133.1 142.404 156.59 142.284 180.07 142.304H180.09Z" fill="#064928"/>
<path d="M156.82 267.914C151.59 259.834 146.35 251.754 141.11 243.674C141.11 243.674 140.97 243.484 140.97 243.474C140.67 243.104 140.37 242.734 140.07 242.364C135.39 249.494 130.7 256.614 126.02 263.744C125.24 264.924 124.49 266.134 123.11 268.274C123.11 249.044 122.74 230.974 123.27 212.924C123.53 204.174 132.14 197.784 141.03 198.254C149.6 198.714 156.84 205.744 156.92 214.474C157.08 232.284 156.87 250.094 156.82 267.904V267.914Z" fill="#F9F6B6"/>
<path d="M80.0001 290.014C72.8501 290.394 66.2501 290.754 59.2601 291.124C59.1701 289.534 59.0101 288.094 59.0101 286.654C58.9901 263.364 58.9901 240.064 59.0101 216.774C59.0101 209.014 62.9901 204.284 69.4401 204.254C75.9201 204.224 79.9901 208.954 79.9901 216.654C80.0101 240.934 79.9901 265.214 79.9901 290.014H80.0001Z" fill="#FAF6B7"/>
<path d="M54.65 206.114V290.934H48.33C48.22 289.374 48.02 287.934 48.02 286.494C48 263.024 48.02 239.564 47.99 216.094C47.99 211.484 49.13 207.744 54.65 206.104V206.114Z" fill="#019053"/>
<path d="M82.77 380.034H74.2V348.684H82.77V380.034Z" fill="#F9F6B7"/>
<path d="M70.7601 380.104H62.3101V349.594H70.7601V380.104Z" fill="#FAF6B7"/>
<path d="M33 452.094H24.04C24.04 442.874 23.83 433.654 24.26 424.454C24.33 423.034 27.3 421.744 28.92 420.394C30.28 422.184 32.72 423.914 32.81 425.764C33.23 434.344 33 442.964 33 452.084V452.094Z" fill="#F9F6B6"/>
<path d="M45.0001 452.124H36.0201C36.0201 442.954 35.8101 433.884 36.2201 424.844C36.2901 423.294 39.0301 421.864 40.5301 420.384C42.0201 422.054 44.7001 423.664 44.7901 425.404C45.2301 434.144 44.9901 442.914 44.9901 452.124H45.0001Z" fill="#F9F6B6"/>
<path d="M71 452.104H62.03C62.03 442.904 61.82 433.834 62.24 424.794C62.31 423.264 65.08 421.854 66.6 420.384C68.07 422.074 70.72 423.694 70.81 425.454C71.25 434.184 71.01 442.954 71.01 452.104H71Z" fill="#F9F6B6"/>
<path d="M83 452.084H74.04C74.04 442.914 73.83 433.704 74.26 424.514C74.33 423.074 77.27 421.774 78.88 420.414C80.25 422.184 82.72 423.904 82.81 425.744C83.23 434.334 83 442.954 83 452.094V452.084Z" fill="#F9F6B6"/>
<path d="M109 452.124H100.02C100.02 442.984 99.8101 433.914 100.22 424.884C100.29 423.324 103 421.874 104.5 420.374C106 422.034 108.71 423.624 108.8 425.354C109.24 434.094 109 442.874 109 452.124Z" fill="#F9F6B6"/>
<path d="M121 452.094H112.04C112.04 442.904 111.83 433.684 112.26 424.484C112.33 423.054 115.28 421.764 116.9 420.404C118.27 422.184 120.72 423.914 120.81 425.754C121.23 434.334 121 442.954 121 452.084V452.094Z" fill="#F9F6B6"/>
<path d="M100.13 409.394C99.41 410.004 98.7 410.614 97.98 411.224L98.02 411.264C98.61 410.514 99.19 409.754 99.78 408.994C99.89 409.124 100.01 409.254 100.13 409.394Z" fill="#019053"/>
<path d="M61.13 409.394C60.41 410.004 59.7 410.614 58.98 411.224L59.02 411.264C59.61 410.514 60.19 409.754 60.78 408.994C60.89 409.124 61.01 409.254 61.13 409.394Z" fill="#019053"/>
<path d="M21.02 411.264C21.61 410.514 22.19 409.754 22.78 409.004C22.89 409.134 23.01 409.264 23.13 409.394C22.42 410.004 21.7 410.614 20.98 411.224L21.02 411.264Z" fill="#019053"/>
<path d="M20.98 411.224C20.93 411.354 20.9 411.514 20.81 411.614C20.76 411.674 20.62 411.654 20.51 411.674C20.68 411.534 20.85 411.404 21.02 411.264L20.98 411.224Z" fill="#019053"/>
<path d="M58.98 411.224C58.93 411.354 58.9 411.514 58.81 411.614C58.76 411.674 58.62 411.654 58.51 411.674C58.68 411.534 58.85 411.404 59.02 411.264L58.98 411.224Z" fill="#019053"/>
<path d="M97.98 411.224C97.93 411.354 97.9 411.514 97.81 411.614C97.76 411.674 97.62 411.654 97.51 411.674C97.68 411.534 97.85 411.404 98.02 411.264L97.98 411.224Z" fill="#019053"/>
<path d="M214.98 291.334C207.76 290.774 201.17 290.274 194.33 289.744C194.2 288.694 194.01 287.914 194.01 287.134C193.99 263.324 194.02 239.504 193.97 215.694C193.97 211.104 195.55 206.984 199.81 205.624C202.91 204.634 207.24 204.794 210.01 206.304C212.41 207.604 214.73 211.514 214.77 214.294C215.13 239.744 214.98 265.194 214.98 291.334Z" fill="#FAF6B7"/>
<path d="M225.73 291.034H218C218 288.914 218 286.984 218 285.054C218 259.104 218.06 233.144 217.91 207.194C217.89 204.344 217.25 201.104 215.79 198.724C212.66 193.614 207.85 193.204 202.69 196.014C202.09 190.834 204.41 187.864 210.18 186.024C218.99 183.214 225.98 188.204 225.98 197.374C226 226.984 225.99 256.594 225.98 286.214C225.98 287.804 225.81 289.394 225.72 291.034H225.73Z" fill="#06292E"/>
<path d="M195.29 347.264C197.88 347.434 200.14 347.574 202.69 347.744V380.924H195.29V347.264Z" fill="#F9F6B7"/>
<path d="M213.69 381.104H206.3V348.324C208.66 348.444 211.02 348.554 213.69 348.694V381.104Z" fill="#F9F6B7"/>
<path d="M167 453.094H159.03C159.03 443.104 158.89 433.204 159.2 423.314C159.24 422.014 161.63 420.794 162.94 419.534C164.29 421.094 166.75 422.614 166.82 424.234C167.19 433.664 167 443.124 167 453.104V453.094Z" fill="#F9F6B7"/>
<path d="M178 453.094H170.04C170.04 443.044 169.9 433.134 170.22 423.244C170.26 421.964 172.69 420.764 174.01 419.524C175.34 421.104 177.77 422.644 177.83 424.284C178.2 433.714 178.01 443.164 178.01 453.104L178 453.094Z" fill="#F9F6B7"/>
<path d="M195 452.954C195 443.234 195.04 433.954 194.98 424.664C194.96 421.734 196.09 419.294 199.04 419.764C200.57 420.014 202.77 422.694 202.83 424.354C203.19 433.774 203.01 443.224 203.01 452.954H195.01H195Z" fill="#F9F6B7"/>
<path d="M214 453.094H206.04C206.04 443.044 205.9 433.134 206.22 423.244C206.26 421.964 208.69 420.764 210.01 419.524C211.34 421.104 213.77 422.644 213.83 424.284C214.2 433.714 214.01 443.164 214.01 453.104L214 453.094Z" fill="#F9F6B7"/>
<path d="M239 453.084H231.01C231.01 443.194 230.85 433.444 231.19 423.714C231.24 422.274 233.69 420.914 235.02 419.524C236.34 421.114 238.75 422.664 238.82 424.304C239.19 433.734 239 443.184 239 453.084Z" fill="#F9F6B7"/>
<path d="M249.99 453.044H242.01C242.01 443.104 241.85 433.344 242.19 423.604C242.24 422.194 244.75 420.884 246.13 419.524C247.42 420.984 249.76 422.414 249.81 423.914C250.15 433.504 249.98 443.104 249.98 453.044H249.99Z" fill="#F9F6B7"/>
<path d="M177.97 410.264C178.14 410.404 178.3 410.534 178.47 410.674C178.37 410.654 178.23 410.674 178.18 410.614C178.09 410.514 178.07 410.354 178.01 410.224L177.97 410.264Z" fill="#06292E"/>
<path d="M213.97 410.264C214.14 410.404 214.3 410.534 214.47 410.674C214.37 410.654 214.23 410.674 214.18 410.614C214.09 410.514 214.07 410.354 214.01 410.224L213.97 410.264Z" fill="#06292E"/>
<path d="M249.97 410.264C250.14 410.404 250.3 410.534 250.47 410.674C250.37 410.654 250.23 410.674 250.18 410.614C250.09 410.514 250.07 410.354 250.01 410.224L249.97 410.264Z" fill="#06292E"/>
<path d="M717.23 629.424C717.14 648.704 717.03 667.984 716.98 687.274C716.95 696.584 717.03 705.894 717.06 715.204C542.73 715.214 368.39 715.224 194.06 715.244C193.73 715.244 193.39 715.214 193.06 715.244C190.11 715.594 188.94 714.474 188.95 711.334C189.05 685.664 189.06 660.004 188.95 634.334C188.93 630.914 190.25 629.884 193.38 630.204C194.7 630.344 196.04 630.224 197.38 630.224C361.88 630.224 526.38 630.234 690.88 630.194C699.67 630.194 708.46 629.694 717.25 629.424H717.23ZM541.28 650.404V659.074H550.66V650.434C551.5 650.414 552.35 650.384 553.19 650.354V659.134H562.6V650.464C565.78 650.424 568.96 650.374 572.13 650.334C571.97 653.234 571.8 656.134 571.64 659.084H581.28C581.12 655.934 580.97 653.144 580.82 650.344L583.53 650.554V659.284H592.99C592.97 661.314 592.95 663.334 592.93 665.364H583.88V703.264H593.07C596.58 703.444 595.98 700.894 595.98 698.804C595.99 683.504 595.87 668.204 596.07 652.904C596.12 649.114 594.89 648.114 591.22 648.154C574.92 648.334 558.63 648.224 542.33 648.254C541.04 648.254 539.74 648.544 538.45 648.704C538.46 649.054 538.48 649.404 538.49 649.764C539.42 649.984 540.35 650.194 541.27 650.414L541.28 650.404ZM507.33 650.434V659.244H516.98C516.96 661.294 516.94 663.354 516.92 665.404H507.42V703.254H517.02C520.53 703.504 520 700.984 520 698.864C520 683.564 519.9 668.264 520.08 652.974C520.12 649.264 519.05 648.114 515.3 648.154C498.84 648.334 482.38 648.224 465.92 648.254C464.76 648.254 463.59 648.604 462.43 648.784C462.43 649.084 462.45 649.394 462.46 649.694C463.37 649.914 464.28 650.134 465.19 650.354V659.084H474.62V650.464L477.16 650.334V659.174H486.47V650.564C489.47 650.544 492.47 650.524 495.47 650.504V659.054H504.84V650.344C505.67 650.374 506.51 650.404 507.34 650.434H507.33ZM660.16 650.344C659.99 653.234 659.81 656.114 659.61 659.394H669.04C669.02 661.364 669 663.344 668.98 665.314H660.06V703.314H669.25C672.33 703.384 672.02 701.204 672.02 699.184C672.02 683.734 671.94 668.274 672.08 652.824C672.11 649.484 671.3 648.134 667.66 648.164C651.05 648.334 634.43 648.224 617.81 648.264C616.7 648.264 615.59 648.634 614.48 648.834C614.5 649.154 614.53 649.484 614.55 649.804C615.48 650.014 616.41 650.224 617.35 650.444V659.074H626.76V650.394C627.61 650.394 628.46 650.404 629.3 650.414V659.084H638.76V650.384C641.9 650.374 645.04 650.364 648.19 650.344C648.06 653.254 647.93 656.164 647.81 659.074H657.47C657.26 655.914 657.07 653.124 656.89 650.324C657.99 650.324 659.08 650.324 660.18 650.334L660.16 650.344ZM355.21 650.364V659.594C358.65 659.384 361.75 659.184 364.85 658.994L364.8 665.594H355.25V703.654C358.6 703.484 361.7 703.334 364.8 703.184C368.2 703.614 368.02 701.314 368.02 699.054C368 683.584 367.91 668.104 368.08 652.634C368.12 649.024 366.82 648.154 363.44 648.184C346.97 648.324 330.49 648.234 314.02 648.274C312.85 648.274 311.69 648.614 309.14 649.024C311.18 649.954 311.87 650.264 312.56 650.584V659.114H322.33C322.16 655.954 322.01 653.154 321.86 650.364C322.73 650.424 323.6 650.484 324.47 650.534V659.074H333.83V650.364C336.96 650.364 340.08 650.374 343.21 650.384V659.114H352.67V650.454C353.52 650.424 354.36 650.404 355.21 650.374V650.364ZM288.04 659.384C288.02 661.354 288 663.334 287.98 665.304H279.11V703.304H288.24C291.77 703.304 290.99 700.684 290.99 698.674C291.02 683.544 290.9 668.404 291.08 653.274C291.13 649.444 290.17 648.074 286.1 648.134C269.97 648.364 253.84 648.224 237.71 648.244C236.34 648.244 234.98 648.484 233.61 648.604C233.57 648.914 233.54 649.234 233.5 649.544C234.49 649.864 235.48 650.184 236.47 650.504V659.104H245.79V650.354C246.64 650.374 247.49 650.404 248.34 650.424V659.054H257.75V650.374C260.9 650.374 264.05 650.354 267.19 650.344V659.154H276.44V650.554C277.35 650.484 278.26 650.404 279.17 650.334C279.04 653.214 278.91 656.104 278.76 659.374H288.03L288.04 659.384ZM389.17 650.344V659.074H398.45C398.24 655.914 398.06 653.124 397.88 650.324C398.97 650.324 400.06 650.324 401.15 650.334C400.99 653.234 400.82 656.134 400.66 659.084H410.3C410.14 655.934 409.99 653.144 409.84 650.344C413.01 650.374 416.17 650.404 419.34 650.434V659.064H428.77V650.384C429.61 650.384 430.45 650.404 431.3 650.404V659.544C434.74 659.384 437.83 659.244 440.92 659.094C440.89 661.244 440.87 663.384 440.84 665.534H431.33V703.214H440.9C444.36 703.564 444 701.134 444 698.954C444 683.644 443.9 668.334 444.07 653.034C444.11 649.404 443.17 648.104 439.34 648.144C422.87 648.334 406.4 648.214 389.93 648.254C388.76 648.254 387.59 648.594 386.43 648.774C386.43 649.074 386.44 649.374 386.45 649.674C387.36 649.894 388.26 650.114 389.17 650.334V650.344ZM245.74 703.254V665.554H236.52V703.254H245.74ZM248.41 665.444V703.304H257.6V665.444H248.41ZM333.72 703.354V665.634H324.57V703.354H333.72ZM343.23 665.434V703.144H352.47V665.434H343.23ZM638.56 703.314V665.614H629.35V703.314H638.56ZM617.41 665.434V703.304H626.6V665.434H617.41ZM419.46 665.474V703.264H428.54V665.474H419.46ZM553.21 665.424V703.324H562.39V665.424H553.21ZM550.48 703.304V665.634H541.33V703.304H550.48ZM504.73 703.324V665.634H495.57V703.324H504.73ZM474.54 665.574H465.3V703.154H474.54V665.574ZM486.04 703.284V665.544H477.2V703.284H486.04ZM580.81 703.284V665.564H572.08V703.284H580.81ZM409.91 665.634H400.98V703.204H409.91V665.634ZM397.91 703.274V665.564H389.19V703.274H397.91ZM648.25 665.564V703.214H657.03V665.564H648.25ZM321.78 703.234V665.554H312.81V703.234H321.78ZM267.17 703.104H276.06V665.544H267.17V703.104Z" fill="#094B2A"/>
<path d="M519.33 618.524C521.47 620.604 523.51 621.654 523.81 623.064C524.59 626.734 521.57 626.194 519.33 626.224C517.18 626.254 514.46 626.534 515.17 623.224C515.48 621.784 517.35 620.674 519.33 618.524Z" fill="#064628"/>
<path d="M930.73 626.804C928.27 626.014 925.74 625.374 923.41 624.294C923.07 624.134 923.45 620.954 923.86 620.864C926.05 620.394 928.53 619.924 930.54 620.584C931.53 620.904 931.72 623.664 932.28 625.324C931.77 625.814 931.25 626.314 930.74 626.804H930.73Z" fill="#028850"/>
<path d="M764.11 628.344C762.06 625.594 760.39 624.334 760.19 622.884C759.73 619.354 762.78 619.984 764.64 620.294C766.15 620.554 767.46 621.924 768.86 622.804C767.64 624.234 766.41 625.654 764.1 628.344H764.11Z" fill="#028850"/>
<path d="M715.32 628.044C713.23 625.794 711.42 624.744 711.17 623.404C710.47 619.664 713.54 619.964 715.69 620.354C717.21 620.624 718.54 621.984 719.95 622.854C718.68 624.284 717.4 625.714 715.32 628.044Z" fill="#064628"/>
<path d="M617.29 628.054C615.21 625.794 613.42 624.734 613.17 623.404C612.48 619.654 615.57 619.984 617.71 620.364C619.23 620.634 620.55 622.004 621.95 622.874C620.67 624.294 619.39 625.724 617.28 628.054H617.29Z" fill="#064628"/>
<path d="M274.53 627.964C272.46 625.654 270.45 624.434 270.21 622.944C269.65 619.394 272.73 620.384 274.67 620.274C276.84 620.154 279.56 619.994 278.82 623.294C278.5 624.744 276.57 625.834 274.53 627.964Z" fill="#064628"/>
<path d="M323.77 627.974C321.58 625.704 319.51 624.554 319.22 623.064C318.54 619.584 321.54 620.304 323.55 620.264C325.63 620.224 328.47 619.764 327.83 623.174C327.56 624.624 325.71 625.774 323.77 627.974Z" fill="#064628"/>
<path d="M568.32 618.474C570.47 620.604 571.71 621.824 572.94 623.044C571.43 624.104 570.04 625.664 568.37 626.094C566.41 626.604 563.48 626.664 564.17 623.264C564.46 621.814 566.33 620.674 568.32 618.464V618.474Z" fill="#064628"/>
<path d="M372.61 618.474C374.63 620.674 376.52 621.794 376.82 623.244C377.52 626.604 374.63 626.624 372.64 626.104C370.96 625.674 369.57 624.124 368.05 623.074C369.27 621.844 370.49 620.614 372.61 618.474Z" fill="#064628"/>
<path d="M421.63 628.034C419.57 625.694 418.31 624.254 417.05 622.824C418.47 621.964 419.81 620.624 421.34 620.354C423.52 619.964 426.56 619.724 425.84 623.434C425.58 624.774 423.76 625.804 421.64 628.034H421.63Z" fill="#064628"/>
<path d="M666.32 618.474C668.47 620.604 669.71 621.824 670.94 623.044C669.43 624.104 668.04 625.664 666.37 626.094C664.41 626.604 661.48 626.664 662.17 623.264C662.46 621.814 664.33 620.674 666.32 618.464V618.474Z" fill="#064628"/>
<path d="M470.8 628.064C468.66 625.734 467.35 624.324 466.05 622.914C467.45 622.024 468.75 620.634 470.26 620.364C472.38 619.994 475.5 619.594 474.84 623.374C474.61 624.714 472.84 625.784 470.8 628.064Z" fill="#064628"/>
<path d="M486.65 618.574C488.71 620.654 490.5 621.634 490.85 622.974C491.64 626.084 489.28 626.294 486.92 626.254C484.83 626.214 482.52 626.254 483.14 623.314C483.43 621.924 484.95 620.794 486.65 618.574Z" fill="#064628"/>
<path d="M502.86 627.914C501.05 625.734 499.41 624.634 499.15 623.264C498.51 619.934 501.18 620.314 503.32 620.224C505.62 620.134 507.58 620.694 506.85 623.394C506.48 624.764 504.81 625.784 502.86 627.914Z" fill="#064628"/>
<path d="M454.62 618.264C456.31 620.914 458.11 622.674 457.76 623.444C457.18 624.714 455.31 625.754 453.79 626.134C451.7 626.664 449.42 626.004 450.16 623.214C450.55 621.754 452.37 620.664 454.62 618.264Z" fill="#064628"/>
<path d="M437.88 627.914C436.06 625.734 434.47 624.654 434.14 623.274C433.47 620.444 435.62 620.194 437.81 620.224C440.06 620.254 442.58 620.164 441.85 623.394C441.55 624.754 439.82 625.784 437.88 627.924V627.914Z" fill="#064628"/>
<path d="M536.37 627.904C534.3 625.834 532.5 624.864 532.15 623.514C531.35 620.414 533.69 620.174 536.06 620.224C538.14 620.274 540.46 620.214 539.86 623.154C539.58 624.544 538.07 625.684 536.37 627.904Z" fill="#064628"/>
<path d="M405.62 618.264C407.31 620.914 409.11 622.674 408.76 623.444C408.18 624.714 406.31 625.754 404.79 626.134C402.7 626.664 400.42 626.004 401.16 623.214C401.55 621.754 403.37 620.664 405.62 618.264Z" fill="#064628"/>
<path d="M389.15 627.914C387.19 625.794 385.47 624.754 385.16 623.404C384.42 620.194 386.92 620.234 389.18 620.224C391.36 620.214 393.53 620.424 392.86 623.264C392.54 624.644 390.96 625.734 389.15 627.924V627.914Z" fill="#064628"/>
<path d="M552.13 627.914C550.18 625.784 548.46 624.754 548.15 623.404C547.42 620.184 549.93 620.244 552.19 620.224C554.38 620.204 556.53 620.454 555.86 623.284C555.54 624.664 553.95 625.744 552.13 627.924V627.914Z" fill="#064628"/>
<path d="M355.65 618.574C357.71 620.654 359.51 621.634 359.85 622.974C360.64 626.094 358.27 626.294 355.92 626.254C353.83 626.214 351.52 626.254 352.14 623.314C352.43 621.924 353.95 620.794 355.66 618.574H355.65Z" fill="#064628"/>
<path d="M340.37 627.904C338.3 625.834 336.5 624.864 336.15 623.514C335.35 620.414 337.68 620.164 340.06 620.224C342.14 620.274 344.46 620.214 343.86 623.154C343.58 624.544 342.07 625.684 340.37 627.904Z" fill="#064628"/>
<path d="M584.38 628.214C582.69 625.564 580.89 623.804 581.24 623.034C581.81 621.764 583.69 620.724 585.21 620.344C587.29 619.824 589.58 620.474 588.84 623.264C588.45 624.724 586.63 625.814 584.38 628.214Z" fill="#064628"/>
<path d="M307.38 627.894C305.31 625.824 303.51 624.854 303.16 623.504C302.37 620.404 304.7 620.164 307.07 620.214C309.15 620.254 311.47 620.214 310.87 623.154C310.59 624.544 309.07 625.674 307.38 627.894Z" fill="#064628"/>
<path d="M290.63 618.574C292.7 620.644 294.5 621.614 294.85 622.964C295.65 626.064 293.32 626.314 290.94 626.254C288.86 626.204 286.54 626.264 287.14 623.324C287.42 621.934 288.94 620.794 290.63 618.574Z" fill="#064628"/>
<path d="M600.66 627.904C598.95 625.684 597.43 624.554 597.14 623.164C596.53 620.234 598.84 620.264 600.93 620.224C603.3 620.174 605.64 620.404 604.85 623.514C604.51 624.864 602.71 625.844 600.66 627.914V627.904Z" fill="#064628"/>
<path d="M257.66 618.574C259.71 620.654 261.51 621.634 261.85 622.984C262.64 626.104 260.27 626.304 257.92 626.264C255.82 626.234 253.53 626.264 254.14 623.324C254.43 621.944 255.94 620.814 257.66 618.584V618.574Z" fill="#064628"/>
<path d="M242.14 618.564C243.95 620.744 245.59 621.844 245.86 623.214C246.5 626.544 243.84 626.174 241.69 626.254C239.39 626.344 237.43 625.784 238.16 623.084C238.53 621.714 240.2 620.694 242.15 618.564H242.14Z" fill="#064628"/>
<path d="M225.86 618.564C227.81 620.684 229.54 621.724 229.85 623.074C230.58 626.284 228.08 626.234 225.82 626.254C223.63 626.274 221.48 626.024 222.14 623.204C222.46 621.824 224.05 620.744 225.87 618.564H225.86Z" fill="#064628"/>
<path d="M209.13 627.914C207.19 625.784 205.46 624.754 205.16 623.404C204.43 620.184 206.94 620.254 209.2 620.224C211.39 620.204 213.54 620.464 212.87 623.284C212.55 624.664 210.95 625.744 209.13 627.914Z" fill="#064628"/>
<path d="M192.88 627.914C191.06 625.734 189.47 624.654 189.14 623.274C188.47 620.444 190.61 620.194 192.8 620.224C195.05 620.254 197.57 620.164 196.84 623.394C196.54 624.754 194.81 625.784 192.87 627.924L192.88 627.914Z" fill="#064628"/>
<path d="M955.71 625.264C956.25 623.624 956.41 620.974 957.43 620.584C959.18 619.924 961.53 620.434 963.48 620.994C963.95 621.124 964.27 624.274 963.91 624.444C961.79 625.454 959.44 625.984 957.16 626.684C956.68 626.214 956.19 625.734 955.71 625.264Z" fill="#028850"/>
<path d="M947.72 619.584V626.404C945.05 625.954 942.61 625.734 940.33 625.004C939.94 624.874 939.84 621.654 940.28 621.474C942.37 620.604 944.7 620.284 947.72 619.594V619.584Z" fill="#028850"/>
<path d="M682.85 627.914C681.04 625.734 679.4 624.624 679.14 623.264C678.51 619.924 681.18 620.324 683.33 620.234C685.64 620.134 687.59 620.724 686.85 623.414C686.48 624.784 684.8 625.804 682.84 627.914H682.85Z" fill="#064628"/>
<path d="M914.36 620.124C915.52 626.424 915.08 626.754 907.53 625.674C907.39 625.004 907.12 624.244 907.08 623.464C907.04 622.654 907.21 621.834 907.34 620.434C909.61 620.334 911.85 620.234 914.36 620.124Z" fill="#028850"/>
<path d="M894.35 628.054C892.69 625.534 891.27 624.324 891.09 622.944C890.63 619.464 893.49 620.344 895.45 620.174C897.78 619.974 899.67 620.744 898.86 623.334C898.41 624.784 896.58 625.804 894.34 628.054H894.35Z" fill="#028850"/>
<path d="M875.14 625.814V620.614H882.62V625.814H875.14Z" fill="#028850"/>
<path d="M858.25 625.614V620.584H865.17C867.03 626.124 866.2 626.804 858.25 625.614Z" fill="#028850"/>
<path d="M846.12 628.024C844.07 625.704 842.41 624.664 842.1 623.314C841.36 620.124 843.9 619.764 846.05 620.284C847.51 620.634 848.71 622.044 850.03 622.984C849.01 624.304 847.99 625.614 846.12 628.024Z" fill="#028850"/>
<path d="M826.61 620.174C828.19 620.174 829.51 620.144 830.83 620.184C831.64 620.214 832.44 620.364 833.66 620.514C833.76 622.204 833.85 623.774 833.93 625.264C826.65 627.244 825.49 626.504 826.61 620.164V620.174Z" fill="#028850"/>
<path d="M809.32 620.474H816.4C817.54 626.404 817.1 626.744 809.55 625.694C809.4 625.024 809.13 624.264 809.09 623.484C809.04 622.674 809.21 621.844 809.33 620.464L809.32 620.474Z" fill="#028850"/>
<path d="M797.16 628.024C795.1 625.714 793.45 624.684 793.13 623.334C792.37 620.174 794.86 619.744 797.03 620.274C798.49 620.634 799.7 622.024 801.03 622.954C800.02 624.284 799.01 625.604 797.16 628.024Z" fill="#028850"/>
<path d="M784.65 620.584V625.834H777.24C777.13 624.154 777.02 622.584 776.89 620.584H784.65Z" fill="#028850"/>
<path d="M698.88 618.564C700.82 620.694 702.54 621.734 702.85 623.084C703.58 626.304 701.06 626.224 698.81 626.254C696.62 626.284 694.47 626.024 695.14 623.204C695.47 621.824 697.05 620.744 698.88 618.564Z" fill="#064628"/>
<path d="M650.34 627.904C648.29 625.824 646.49 624.844 646.15 623.494C645.36 620.374 647.73 620.184 650.08 620.224C652.18 620.254 654.48 620.234 653.86 623.174C653.57 624.564 652.05 625.694 650.34 627.914V627.904Z" fill="#064628"/>
<path d="M735.52 625.564C728.18 626.894 727.63 626.524 728.43 620.544H735.52V625.564Z" fill="#028850"/>
<path d="M744.31 626.524V619.994C746.99 620.344 749.38 620.424 751.55 621.134C752 621.284 752.08 624.884 751.64 625.054C749.51 625.864 747.15 626.034 744.31 626.524Z" fill="#028850"/>
<path d="M634.14 628.214C632.13 625.704 631.08 624.374 630.02 623.054C631.37 622.114 632.6 620.734 634.09 620.354C636.06 619.844 638.46 620.224 637.86 623.154C637.58 624.544 636.07 625.674 634.13 628.204L634.14 628.214Z" fill="#064628"/>
<path d="M816.09 665.324H825.28V703.664C822.02 703.524 818.96 703.384 815.89 703.254C815.95 690.614 816.02 677.964 816.08 665.324H816.09Z" fill="#EEF2B2"/>
<path d="M837.2 703.354H828.08V665.654H837.2V703.354Z" fill="#EEF2B2"/>
<path d="M890.27 665.384H899.58V703.244C896.36 703.244 893.26 703.244 890.15 703.244C890.19 690.624 890.23 678.004 890.27 665.384Z" fill="#F1F0B1"/>
<path d="M855.63 703.344H846.59V665.684H855.63V703.344Z" fill="#F1F3B3"/>
<path d="M911.56 703.294H902.35V665.624H911.56V703.294Z" fill="#F4F2B3"/>
<path d="M858.44 665.434H867.66V703.304H858.44V665.434Z" fill="#F4F2B3"/>
<path d="M784.16 665.434H793.38V703.294H784.16V665.434Z" fill="#F1F3B3"/>
<path d="M741.91 659.474C741.92 661.404 741.94 663.334 741.95 665.264C741.81 677.934 741.66 690.604 741.52 703.274C738.92 704.654 738.16 703.154 738.15 700.954C738.12 684.184 738.07 667.414 738.29 650.644C738.3 649.554 740.42 647.574 741.58 647.554C759.01 647.354 776.45 647.404 793.89 647.474C794.83 647.474 795.78 648.254 797.79 649.134C795.68 649.864 794.7 650.214 793.71 650.554C790.5 650.524 787.29 650.504 784.09 650.474C783.3 650.504 782.51 650.524 781.71 650.554C778.51 650.534 775.31 650.504 772.11 650.484C769.06 650.484 766.01 650.474 762.96 650.464C759.77 650.504 756.57 650.544 753.38 650.584C752.57 650.554 751.76 650.514 750.95 650.484C748 650.484 745.04 650.484 741.43 650.484C741.61 653.674 741.76 656.574 741.92 659.474H741.91Z" fill="#062C2F"/>
<path d="M781.37 703.284H772.23V665.624H781.37V703.284Z" fill="#F1F3B3"/>
<path d="M762.91 665.704V703.214H753.66V665.704H762.91Z" fill="#F1F3B3"/>
<path d="M741.52 703.274C741.66 690.604 741.81 677.934 741.95 665.264C744.75 665.264 747.54 665.264 750.7 665.264V703.274H741.52Z" fill="#FAF6B7"/>
<path d="M942.1 665.554V703.104H933.08V665.554H942.1Z" fill="#FAF6B7"/>
<path d="M929.86 703.274H921.15V665.624H929.86V703.274Z" fill="#FAF6B7"/>
<path d="M890.27 665.384C890.23 678.004 890.19 690.624 890.15 703.244C889.12 702.184 887.2 701.144 887.18 700.074C886.99 683.944 886.99 667.814 887.18 651.684C887.19 650.494 888.98 648.324 889.95 648.314C907.9 648.164 925.86 648.264 943.81 648.344C944.05 648.344 944.29 648.714 945.03 649.324C943.83 649.774 942.93 650.114 942.03 650.454C939.02 650.454 936 650.464 932.99 650.474C932 650.474 931.02 650.474 930.03 650.454C927.03 650.454 924.03 650.474 921.03 650.484C917.97 650.494 914.91 650.514 911.85 650.524C908.63 650.524 905.42 650.524 902.2 650.534C901.42 650.534 900.64 650.524 899.86 650.514C896.77 650.514 893.68 650.514 890.22 650.514V659.244C890.24 661.294 890.26 663.344 890.28 665.394L890.27 665.384Z" fill="#062C2F"/>
<path d="M816.09 665.324C816.03 677.964 815.96 690.614 815.9 703.254C814.92 702.314 813.1 701.394 813.09 700.444C812.92 683.334 812.96 666.224 812.96 648.624H870.45L870.65 649.464C869.73 649.814 868.81 650.154 867.88 650.504C864.67 650.524 861.46 650.534 858.25 650.554C857.46 650.534 856.67 650.514 855.89 650.494C852.72 650.524 849.55 650.554 846.38 650.594C843.43 650.604 840.48 650.624 837.54 650.634C834.37 650.584 831.2 650.524 828.03 650.474C827.2 650.524 826.37 650.584 825.54 650.634H816.04C816.04 653.764 816.04 656.564 816.04 659.364C816.06 661.354 816.08 663.344 816.09 665.334V665.324Z" fill="#092C30"/>
<path d="M858.25 650.554C861.46 650.534 864.67 650.524 867.88 650.504C867.88 653.284 867.88 656.064 867.88 659.134H858.24V650.554H858.25Z" fill="#EEF2B2"/>
<path d="M890.22 659.224V650.494C893.68 650.494 896.77 650.494 899.86 650.494C899.86 653.284 899.86 656.074 899.86 659.214H890.22V659.224Z" fill="#EBEBAE"/>
<path d="M902.2 650.524C905.42 650.524 908.63 650.514 911.85 650.514C911.85 653.294 911.85 656.064 911.85 659.134H902.2V650.534V650.524Z" fill="#F1F0B1"/>
<path d="M846.38 650.584C849.55 650.554 852.72 650.514 855.89 650.484C855.89 653.254 855.89 656.024 855.89 659.114H846.38V650.574V650.584Z" fill="#EBEBAE"/>
<path d="M828.03 650.464C831.2 650.514 834.37 650.574 837.54 650.624C837.54 653.384 837.54 656.134 837.54 659.164H828.03V650.464Z" fill="#EBEBAE"/>
<path d="M816.04 659.354V650.624H825.54C825.54 653.364 825.54 656.104 825.54 659.354H816.04Z" fill="#EBEBAE"/>
<path d="M784.08 650.484C787.29 650.514 790.49 650.534 793.7 650.564C793.7 653.334 793.7 656.094 793.7 659.144H784.08V650.484Z" fill="#EBEBAE"/>
<path d="M772.1 650.494C775.3 650.514 778.5 650.544 781.7 650.564C781.7 653.324 781.7 656.084 781.7 659.144H772.1V650.494Z" fill="#EBEBAE"/>
<path d="M753.37 650.584C756.56 650.544 759.76 650.504 762.95 650.464C762.95 653.244 762.95 656.024 762.95 659.114H753.37V650.574V650.584Z" fill="#EBEBAE"/>
<path d="M741.91 659.474C741.75 656.574 741.59 653.684 741.42 650.484C745.03 650.484 747.99 650.484 750.94 650.484C750.94 653.274 750.94 656.064 750.94 659.474H741.91Z" fill="#F4F2B3"/>
<path d="M921.03 650.474C924.03 650.474 927.03 650.454 930.03 650.444C930.03 653.244 930.03 656.034 930.03 659.124H921.02V650.474H921.03Z" fill="#F4F2B3"/>
<path d="M933 650.464C936.01 650.464 939.02 650.454 942.04 650.444C942.04 653.214 942.04 655.984 942.04 659.084H933V650.464Z" fill="#F4F2B3"/>
<path d="M829.93 782.194C826.08 777.504 822.54 772.504 818.32 768.184C808.7 758.354 796.65 753.534 783.06 752.204C778.05 751.714 773.06 750.954 768.06 750.314C793.8 739.434 825.9 755.974 829.93 782.184V782.194Z" fill="#062C2F"/>
<path d="M942.08 781.244C938.13 776.814 934.31 772.274 930.21 767.994C920.68 758.034 908.59 753.574 895.16 752.264C890.06 751.764 884.93 751.544 879.81 751.194C891.22 745.384 902.9 745.904 914.5 750.264C929.03 755.724 938.55 765.874 942.08 781.244Z" fill="#062C2F"/>
<path d="M245.74 703.254H236.52V665.554H245.74V703.254Z" fill="#F1F0B1"/>
<path d="M248.41 665.444H257.6V703.304H248.41V665.444Z" fill="#F1F0B1"/>
<path d="M333.72 703.354H324.57V665.634H333.72V703.354Z" fill="#F1F0B1"/>
<path d="M343.23 665.434H352.47V703.144H343.23V665.434Z" fill="#F4F2B3"/>
<path d="M638.56 703.314H629.35V665.614H638.56V703.314Z" fill="#F4F2B3"/>
<path d="M617.41 665.434H626.6V703.304H617.41V665.434Z" fill="#F1F0B1"/>
<path d="M364.79 703.184C361.69 703.334 358.59 703.494 355.24 703.654V665.594C358.59 665.594 361.69 665.594 364.79 665.594C364.79 678.124 364.79 690.654 364.79 703.184Z" fill="#F1F0B1"/>
<path d="M419.46 665.474H428.54V703.264H419.46V665.474Z" fill="#F1F0B1"/>
<path d="M553.21 665.424H562.39V703.324H553.21V665.424Z" fill="#F1F0B1"/>
<path d="M550.48 703.304H541.33V665.634H550.48V703.304Z" fill="#F1F0B1"/>
<path d="M517.02 703.254H507.42V665.404C510.7 665.404 513.81 665.404 516.92 665.404C516.95 678.024 516.98 690.634 517.02 703.254Z" fill="#F4F2B3"/>
<path d="M504.73 703.324H495.57V665.634H504.73V703.324Z" fill="#F1F0B1"/>
<path d="M440.9 703.214H431.33V665.534C434.65 665.534 437.74 665.534 440.84 665.534C440.86 678.094 440.88 690.654 440.91 703.214H440.9Z" fill="#F1F0B1"/>
<path d="M474.54 665.574V703.154H465.3V665.574H474.54Z" fill="#F1F0B1"/>
<path d="M486.04 703.284H477.2V665.544H486.04V703.284Z" fill="#FAF6B7"/>
<path d="M580.81 703.284H572.08V665.564H580.81V703.284Z" fill="#FAF6B7"/>
<path d="M409.91 665.634V703.204H400.98V665.634H409.91Z" fill="#FAF6B7"/>
<path d="M397.91 703.274H389.19V665.564H397.91V703.274Z" fill="#FAF6B7"/>
<path d="M593.08 703.264H583.89V665.364C587.05 665.364 590 665.364 592.94 665.364C592.99 677.994 593.03 690.634 593.08 703.264Z" fill="#FAF6B7"/>
<path d="M648.25 665.564H657.03V703.214H648.25V665.564Z" fill="#FAF6B7"/>
<path d="M669.24 703.304H660.05V665.304H668.97C669.06 677.974 669.15 690.634 669.24 703.304Z" fill="#FAF6B7"/>
<path d="M321.78 703.234H312.81V665.554H321.78V703.234Z" fill="#FAF6B7"/>
<path d="M288.25 703.304H279.12V665.304H287.99C288.08 677.974 288.17 690.634 288.26 703.304H288.25Z" fill="#FAF6B7"/>
<path d="M267.17 703.104V665.544H276.06V703.104H267.17Z" fill="#FAF6B7"/>
<path d="M440.9 703.214C440.88 690.654 440.86 678.094 440.83 665.534C440.86 663.384 440.88 661.244 440.91 659.094C440.91 656.254 440.91 653.404 440.91 650.404C437.13 650.404 434.21 650.404 431.29 650.404C430.45 650.404 429.61 650.384 428.76 650.384C425.62 650.404 422.48 650.414 419.33 650.434C416.16 650.404 413 650.374 409.83 650.344C406.93 650.344 404.04 650.344 401.14 650.344C400.05 650.344 398.96 650.344 397.87 650.334C394.97 650.334 392.06 650.344 389.16 650.354C388.25 650.134 387.35 649.914 386.44 649.694C386.44 649.394 386.43 649.094 386.42 648.794C387.59 648.614 388.76 648.274 389.92 648.274C406.39 648.244 422.86 648.364 439.33 648.164C443.16 648.124 444.1 649.414 444.06 653.054C443.88 668.354 443.98 683.664 443.99 698.974C443.99 701.154 444.35 703.584 440.89 703.234L440.9 703.214Z" fill="#06292E"/>
<path d="M288.25 703.304C288.16 690.634 288.07 677.974 287.98 665.304C288 663.334 288.02 661.354 288.04 659.384C288.04 656.484 288.04 653.584 288.04 650.344H279.18C278.27 650.414 277.36 650.494 276.45 650.564C273.37 650.494 270.28 650.424 267.2 650.354C264.05 650.354 260.9 650.374 257.76 650.384C254.62 650.404 251.49 650.414 248.35 650.434C247.5 650.414 246.65 650.384 245.8 650.364C242.69 650.414 239.59 650.464 236.48 650.514C235.49 650.194 234.5 649.874 233.51 649.554C233.55 649.244 233.58 648.924 233.62 648.614C234.99 648.484 236.35 648.254 237.72 648.254C253.85 648.224 269.98 648.374 286.11 648.144C290.19 648.084 291.14 649.454 291.09 653.284C290.9 668.414 291.03 683.544 291 698.684C291 700.704 291.78 703.324 288.25 703.314V703.304Z" fill="#092C30"/>
<path d="M364.79 703.184C364.79 690.654 364.79 678.124 364.79 665.594C364.81 663.394 364.82 661.194 364.84 658.994C364.84 656.234 364.84 653.474 364.84 650.364H355.2C354.35 650.394 353.51 650.414 352.66 650.434C349.51 650.404 346.35 650.384 343.2 650.364C340.07 650.364 336.95 650.354 333.82 650.344C330.7 650.394 327.58 650.454 324.46 650.514C323.59 650.454 322.72 650.394 321.85 650.344C318.75 650.414 315.65 650.494 312.55 650.564C311.86 650.244 311.17 649.934 309.13 649.004C311.67 648.604 312.84 648.264 314.01 648.254C330.48 648.224 346.96 648.304 363.43 648.164C366.81 648.134 368.11 649.004 368.07 652.614C367.9 668.084 367.99 683.564 368.01 699.034C368.01 701.294 368.2 703.604 364.79 703.164V703.184Z" fill="#062C2F"/>
<path d="M669.24 703.304C669.15 690.634 669.06 677.974 668.97 665.304C668.99 663.334 669.01 661.354 669.03 659.384V650.334H660.15C659.05 650.334 657.96 650.334 656.86 650.324C653.96 650.324 651.07 650.334 648.17 650.344C645.03 650.354 641.89 650.364 638.74 650.384C635.59 650.384 632.44 650.394 629.28 650.404C628.43 650.404 627.58 650.394 626.74 650.384C623.6 650.404 620.47 650.414 617.33 650.434C616.4 650.224 615.47 650.014 614.53 649.794C614.51 649.474 614.48 649.144 614.46 648.824C615.57 648.624 616.68 648.254 617.79 648.254C634.41 648.214 651.02 648.324 667.64 648.154C671.28 648.114 672.09 649.474 672.06 652.814C671.92 668.264 672 683.724 672 699.174C672 701.194 672.31 703.374 669.23 703.304H669.24Z" fill="#092C30"/>
<path d="M517.02 703.254C516.99 690.634 516.96 678.024 516.92 665.404C516.94 663.354 516.96 661.294 516.98 659.244C516.98 656.334 516.98 653.434 516.98 650.434H507.33C506.5 650.404 505.66 650.374 504.83 650.344C501.71 650.394 498.58 650.454 495.46 650.514C492.46 650.534 489.46 650.554 486.46 650.574C483.36 650.494 480.25 650.424 477.15 650.344C476.3 650.384 475.46 650.434 474.61 650.474C471.47 650.434 468.33 650.394 465.18 650.354C464.27 650.134 463.36 649.914 462.45 649.694C462.45 649.394 462.43 649.084 462.42 648.784C463.58 648.604 464.74 648.254 465.91 648.254C482.37 648.214 498.83 648.334 515.29 648.154C519.04 648.114 520.12 649.264 520.07 652.974C519.88 668.274 520 683.564 519.99 698.864C519.99 700.974 520.52 703.504 517.01 703.254H517.02Z" fill="#06292E"/>
<path d="M593.08 703.264C593.03 690.634 592.99 678.004 592.94 665.364C592.96 663.334 592.98 661.314 593 659.284C593 656.384 593 653.484 593 650.554C589.44 650.554 586.49 650.554 583.54 650.554C582.64 650.484 581.73 650.414 580.83 650.344C577.93 650.344 575.04 650.344 572.14 650.344C568.96 650.384 565.78 650.434 562.61 650.474C559.47 650.434 556.34 650.404 553.2 650.364C552.36 650.394 551.51 650.414 550.67 650.434C547.54 650.424 544.41 650.414 541.29 650.404C540.36 650.184 539.43 649.974 538.51 649.754C538.5 649.404 538.48 649.054 538.47 648.694C539.76 648.534 541.06 648.244 542.35 648.244C558.65 648.214 574.95 648.324 591.24 648.144C594.91 648.104 596.14 649.104 596.09 652.894C595.89 668.194 596.02 683.494 596 698.794C596 700.884 596.6 703.434 593.09 703.254L593.08 703.264Z" fill="#06292E"/>
<path d="M629.29 650.404C632.44 650.404 635.59 650.394 638.75 650.384C638.75 653.164 638.75 655.944 638.75 659.084H629.29V650.414V650.404Z" fill="#EBEBAE"/>
<path d="M236.47 650.514C239.58 650.464 242.68 650.414 245.79 650.364C245.79 653.164 245.79 655.974 245.79 659.114H236.47V650.514Z" fill="#EBEBAE"/>
<path d="M248.34 650.434C251.48 650.414 254.61 650.404 257.75 650.384C257.75 653.144 257.75 655.914 257.75 659.064H248.34V650.434Z" fill="#EBEBAE"/>
<path d="M267.19 650.354C270.27 650.424 273.36 650.494 276.44 650.564C276.44 653.344 276.44 656.114 276.44 659.164H267.19V650.354Z" fill="#EBEBAE"/>
<path d="M312.55 650.564C315.65 650.494 318.75 650.414 321.85 650.344C322 653.144 322.15 655.934 322.32 659.094H312.55V650.564Z" fill="#EBEBAE"/>
<path d="M324.46 650.514C327.58 650.454 330.7 650.404 333.82 650.344C333.82 653.114 333.82 655.894 333.82 659.054H324.46V650.514Z" fill="#EBEBAE"/>
<path d="M343.21 650.364C346.36 650.384 349.52 650.414 352.67 650.434C352.67 653.204 352.67 655.974 352.67 659.094H343.21V650.364Z" fill="#EBEBAE"/>
<path d="M355.21 650.364H364.85C364.85 653.474 364.85 656.234 364.85 658.994C361.75 659.184 358.65 659.384 355.21 659.594V650.364Z" fill="#EBEBAE"/>
<path d="M419.33 650.434C422.47 650.414 425.61 650.404 428.76 650.384C428.76 653.154 428.76 655.914 428.76 659.064H419.33V650.434Z" fill="#EBEBAE"/>
<path d="M431.28 650.404H440.9C440.9 653.404 440.9 656.254 440.9 659.094C437.81 659.234 434.72 659.384 431.28 659.544V650.404Z" fill="#EBEBAE"/>
<path d="M465.19 650.354C468.33 650.394 471.47 650.434 474.62 650.474C474.62 653.234 474.62 655.984 474.62 659.094H465.19V650.364V650.354Z" fill="#EBEBAE"/>
<path d="M477.15 650.334C480.25 650.414 483.36 650.484 486.46 650.564C486.46 653.354 486.46 656.134 486.46 659.174H477.15V650.334Z" fill="#EBEBAE"/>
<path d="M495.46 650.504C498.58 650.444 501.71 650.394 504.83 650.344C504.83 653.114 504.83 655.894 504.83 659.054H495.46V650.504Z" fill="#EBEBAE"/>
<path d="M507.33 650.434H516.98C516.98 653.434 516.98 656.334 516.98 659.244C513.9 659.244 510.82 659.244 507.33 659.244V650.434Z" fill="#EBEBAE"/>
<path d="M541.28 650.404C544.41 650.414 547.54 650.424 550.66 650.434C550.66 653.194 550.66 655.944 550.66 659.074H541.28V650.404Z" fill="#EBEBAE"/>
<path d="M553.2 650.364C556.34 650.404 559.47 650.434 562.61 650.474C562.61 653.264 562.61 656.054 562.61 659.144H553.2V650.364Z" fill="#EBEBAE"/>
<path d="M583.54 650.564H593C593 653.494 593 656.394 593 659.294C590.06 659.294 587.12 659.294 583.54 659.294V650.564Z" fill="#EBEBAE"/>
<path d="M617.34 650.434C620.48 650.414 623.61 650.404 626.75 650.384C626.75 653.144 626.75 655.914 626.75 659.064H617.34V650.434Z" fill="#EBEBAE"/>
<path d="M660.16 650.344H669.04V659.394H659.61C659.81 656.124 659.98 653.234 660.16 650.344Z" fill="#F4F2B3"/>
<path d="M648.18 650.344C651.08 650.344 653.97 650.334 656.87 650.324C657.06 653.114 657.24 655.914 657.45 659.074H647.79C647.92 656.174 648.05 653.254 648.17 650.344H648.18Z" fill="#F4F2B3"/>
<path d="M572.15 650.334C575.05 650.334 577.94 650.334 580.84 650.334C580.99 653.124 581.13 655.924 581.3 659.074H571.66C571.83 656.134 571.99 653.234 572.15 650.324V650.334Z" fill="#F4F2B3"/>
<path d="M401.15 650.334C404.05 650.334 406.94 650.334 409.84 650.334C409.99 653.134 410.13 655.924 410.3 659.074H400.66C400.83 656.134 400.99 653.234 401.15 650.324V650.334Z" fill="#F4F2B3"/>
<path d="M389.17 650.344C392.07 650.344 394.98 650.334 397.88 650.324C398.06 653.124 398.24 655.914 398.45 659.074H389.17V650.344Z" fill="#F4F2B3"/>
<path d="M279.18 650.344H288.04V659.384C285.13 659.384 282.22 659.384 278.77 659.384C278.92 656.114 279.05 653.224 279.18 650.344Z" fill="#F4F2B3"/>
</svg>
