<svg width="1440" height="652" viewBox="0 0 1440 652" fill="none" xmlns="http://www.w3.org/2000/svg">
<path d="M0 122.89C0 121.56 0 120.22 0 118.89C2.46 117.19 4.91 115.48 7.38 113.79C9.1 112.62 9.71 110.88 9 109.12C8.23 107.23 6.45 106.79 4.5 107.5C4.23 107.2 3.96 106.9 3.7 106.59C5.64 104.84 7.58 103.09 9.49 101.37C8.84 101.13 8.1 100.86 7.28 100.56C8.71 99.25 10.03 98.05 11.43 96.76C9.34 96.07 7.49 95.61 5.78 94.86C4.3 94.2 4.4 93.18 5.75 92.34C7.58 91.21 9.45 90.13 11.27 88.97C11.42 88.87 11.32 88.36 11.33 88.05C10.03 88.11 9.14 87.78 10.63 86.65C12.16 85.49 12.61 84.1 13.01 82.26C13.4 80.45 15.36 78.81 11.84 78.36C12.52 77.34 13.11 76.24 13.89 75.31C14.82 74.2 14.84 74.33 13.53 73.08C13.28 72.84 13.47 71.7 13.83 71.34C15.8 69.33 17.88 67.42 19.97 65.43C18.8 64.78 17.83 64.25 16.74 63.65C17.93 62.81 18.88 62.14 20.01 61.34C18.1 60.68 16.55 60.15 14.89 59.58C17.05 58.39 19.43 57.71 20.84 56.15C22.91 53.86 24.31 50.94 25.96 48.27C26.3 47.72 26.53 47.09 26.81 46.49C23.1 45.13 26.5 43.96 26.97 42.82C27.79 40.83 31.74 39.48 28.14 36.6C28.01 36.49 28.51 35.44 28.85 34.91C29.83 33.37 30.75 31.77 31.92 30.38C36.48 24.94 35.52 18.35 34.93 12.28C34.66 9.57 35.15 8.26 36.59 6.12C37.35 11.76 38.4 16.83 38.62 21.94C38.83 26.72 40.58 30.57 43.51 34.13C44.7 35.57 44.58 35.64 43.32 37.73C43.12 38.07 43.11 38.8 43.34 39.05C44.12 39.9 45.24 40.48 45.86 41.42C46.33 42.13 50.65 43.73 45.61 44.13C45.36 44.15 44.93 45.3 45.04 45.82C45.47 47.71 46.11 49.55 46.63 51.42C46.97 52.63 47.9 54.21 47.46 55.03C45.39 58.86 47.34 61.68 49.29 64.61C49.02 64.97 48.74 65.33 48.47 65.69C47.72 65.36 46.97 65.03 46.22 64.7C46.17 65.47 45.87 66.33 46.11 67.01C46.97 69.49 48.55 71.85 48.83 74.37C49.1 76.85 49.86 78.79 51.34 80.65C52.08 81.58 52.62 82.67 53.87 84.68C51.28 83.29 49.83 82.52 48.34 81.72C47.44 84.63 48.36 86.57 50.12 88.38C52.09 90.41 54.07 92.47 55.7 94.77C56.43 95.81 56.7 98.58 56.53 98.64C54.15 99.45 55.37 101.3 55.14 102.69C55.01 103.46 54.84 104.89 54.68 104.89C51.8 104.89 53.32 106.24 53.91 107.28C54.24 107.86 54.63 108.4 54.93 109C56.51 112.18 58.36 115.11 59.47 118.68C60.44 121.8 64.55 123.95 67.28 126.53C67.14 126.84 67.01 127.15 66.87 127.45C63.97 126.95 61.07 126.45 57.74 125.87C59.94 128.59 59.9 128.55 58.16 130.11C57.91 130.33 58.08 131.51 58.43 131.81C61.14 134.09 63.95 136.26 66.72 138.47C64.57 139.41 62.76 139.45 60.95 139.41C59.36 139.37 58.96 140.17 59.18 141.61C59.78 145.61 64.93 148.6 68.36 146.59C75.51 142.39 83.32 140.46 91.34 138.78C100.74 136.81 110.45 135.64 118.95 130.66C122.04 128.85 124.73 129.16 127.88 130.41C143.01 136.4 158.24 142.11 173.36 148.13C180.35 150.92 187.4 153.15 194.91 154.08C200.51 154.77 206.5 155 211.49 157.27C216.92 159.74 221.4 158.53 226.31 157.03C228.53 156.35 230.76 155.64 233.03 155.18C236.73 154.43 240.48 153.91 244.19 153.21C245.15 153.03 246.07 152.58 246.96 152.16C252.5 149.49 257.98 146.7 263.57 144.14C270.23 141.09 277.12 140 284.38 142.03C286.36 142.58 288.74 142.96 290.64 142.4C307.69 137.35 324.67 132.06 341.67 126.88C343.41 126.35 345.18 125.85 346.97 125.63C354.72 124.65 362.54 124.22 369.96 121.32C371.36 120.77 373.21 121.36 374.85 121.42C380.81 121.64 386.77 121.75 392.72 122.14C394.77 122.27 397.28 122.52 398.71 123.73C402.65 127.06 407.03 127.76 411.98 128.31C417.47 128.92 422.88 130.84 426.47 135.97C428.12 138.33 430.53 140.28 432.9 142.01C436.39 144.55 440.25 146.58 443.77 149.08C446.29 150.87 448.85 151.12 451.77 150.7C461.16 149.34 470.57 148.1 479.97 146.86C484.15 146.31 484.15 146.36 485.05 141.72C485.1 141.44 485.34 141.19 485.5 140.93C487.32 137.83 487.92 137.37 490.45 135.67C494.18 133.17 497.9 130.64 501.43 127.89C505.55 124.68 506.61 120.06 507.01 114.35C504.92 115.98 503.51 117.47 501.79 118.31C500.32 119.03 498.79 116.17 496.88 117.89C496.7 118.05 495.3 117.38 495.14 116.87C494.98 116.38 495.53 115.46 496.02 114.99C496.72 114.32 497.64 113.86 498.5 113.36C506.3 108.85 510.85 102.12 512.27 93.24C512.32 92.74 512.37 92.24 512.42 91.75C512.24 92.12 512.06 92.49 511.87 92.86C509.9 94.12 506.74 93.17 505.72 96.19C503.46 93.81 503.19 97.08 501.92 97.5C501.57 97.62 500.81 97.53 500.8 97.47C500.47 94.94 499.16 96.71 498.42 97.01C497.2 97.51 496.14 98.39 494.92 98.87C494.56 99.01 493.87 98.33 493.34 98.02C494.79 97.26 490.95 96.64 493.34 95.6C495.6 94.62 497.74 93.24 499.73 91.77C503.56 88.94 507.24 85.92 510.98 82.97C511.22 82.8 511.46 82.63 511.7 82.47C511.47 82.42 511.24 82.37 511.02 82.33C511.05 82.58 511.08 82.83 511.11 83.07L507.76 82.28C508.33 81.27 508.76 80.16 509.49 79.29C510.66 77.89 512.26 76.82 513.23 75.32C514.36 73.56 515.06 71.51 515.83 69.55C515.93 69.3 515.34 68.78 515.07 68.38C513.06 70.05 511.85 67.79 508.97 67.8C511.48 65.58 513.12 64.18 514.69 62.71C515.5 61.95 516.75 61.32 514.22 60.85C511.16 60.28 511.15 59.65 512.85 57.28C513.32 56.62 513.75 55.92 514.2 55.24C514.47 54.97 514.74 54.69 515.01 54.42C514.61 54.56 514.21 54.7 513.81 54.84C511.98 54.41 510.16 53.98 508.64 53.63C512 50.54 515.52 47.31 519.04 44.07C519.23 43.78 519.43 43.49 519.62 43.2C519.23 43.26 518.83 43.33 518.44 43.39C517.69 43.67 516.94 43.95 516.19 44.23C515.89 43.98 515.59 43.72 515.28 43.47C516.46 41.73 517.63 39.99 518.81 38.24C517.41 38.03 516.22 37.85 515.02 37.67C515.53 36.57 516.02 35.47 516.55 34.39C516.69 34.11 516.97 33.89 517.19 33.65C519.15 31.54 518.26 30.45 515.84 29.92L515.96 30.01C517.19 28.08 518.26 26.03 519.68 24.25C521.38 22.13 520.9 20.22 518.93 19.19C517.71 18.55 517.43 18.27 518.02 17.24C520.41 12.98 522.83 8.74 525.23 4.51C527.53 8.93 529.52 13.12 531.87 17.11C532.98 19 532.6 20.01 530.96 20.99C530.7 20.79 530.44 20.59 530.18 20.4C530.29 20.78 530.39 21.16 530.5 21.54C530.95 26.16 537.46 28.31 535.6 33.95C535.5 34.25 536.39 34.94 536.89 35.37C537.81 36.15 538.79 36.86 540.58 38.26C537.77 37.93 536.02 37.73 533.78 37.47C534.96 38.96 535.79 40.18 536.79 41.24C538.18 42.72 537.32 43.16 535.91 43.28C535.29 43.34 534.63 43.08 533.99 42.97C533.74 42.77 533.5 42.58 533.25 42.38C533.3 42.76 533.34 43.14 533.39 43.53C534.63 46.06 535.98 48.55 537.06 51.14C537.44 52.06 540.98 54.23 536.34 54.08C536.38 54.77 536.22 55.56 536.5 56.12C537.55 58.19 538.79 60.16 539.86 62.21C540.04 62.55 539.73 63.57 539.62 63.57C536.06 63.69 537.97 65.75 538.76 66.65C539.94 67.97 541.65 68.82 543.06 69.95C543.29 70.14 543.16 70.79 543.19 71.22C539.41 71.24 543.31 73.02 542.2 74.14C539.76 73.09 537.12 71.96 533.45 70.38C536.07 74.63 538.06 77.67 539.82 80.83C540.46 81.97 541.1 84.42 540.82 84.57C537.41 86.43 540.5 87.73 541.31 88.6C543.67 91.15 546.35 93.4 548.93 95.74C550.1 96.8 552.52 98.22 552.33 98.74C551.49 101.07 549.65 99.38 548.16 99.16C547.88 99.12 547.54 99.26 547.27 99.4C544.41 100.93 541.67 100.37 538.97 98.95C538.7 98.76 538.43 98.56 538.16 98.37L538.36 99.52C540.59 105.61 544.62 109.93 550.79 112.14C552.5 112.75 554.21 113.38 555.9 114.06C557.91 114.86 557.4 114.66 556.52 116.64C555.56 118.81 552.59 119.53 552.77 122.31L552.84 122.14C548.58 119.68 544.32 117.23 540.01 114.74C540.71 120.59 542.42 126.45 547.45 130.19C552.06 133.62 557.41 136.05 562.46 138.88C563.14 139.26 564.47 138.77 563.51 140.49C563.14 141.17 563.79 141.91 562.23 142.06C559.7 142.31 557.85 141.28 555.82 140.16C554.13 139.23 552.11 138.57 552.09 141.83C551.82 142.09 551.56 142.36 551.29 142.62L548.58 140.54C547.22 142.79 546.23 141.09 545.24 140.19C543.55 138.67 541.9 137.09 540.24 135.53C540.09 135.57 539.92 135.57 539.8 135.65C539.71 135.7 539.68 135.85 539.62 135.95C539.84 135.78 540.07 135.6 540.29 135.43C540.1 135.86 539.67 136.36 539.76 136.72C541.71 144.51 544.89 151.44 552.69 155.15C554.48 156 556.16 157.12 557.99 157.88C559.81 158.63 561.27 159.45 561.09 161.74C561.08 161.91 561.55 162.21 561.84 162.29C565 163.21 568.13 164.26 571.35 164.94C575.4 165.8 579.6 166.03 583.58 167.14C588.47 168.5 593.45 169.99 597.89 172.38C600.29 173.67 602.29 174.98 605.1 174.84C606.56 174.77 608.09 174.98 609.5 175.38C617.11 177.57 624.69 179.88 632.3 182.08C632.86 182.24 633.57 181.89 634.21 181.78C634.16 182.24 633.88 182.92 634.09 183.14C636.95 186.15 639.24 185.97 642.3 182.54C642.59 182.21 642.73 181.74 642.94 181.33C642.38 181.13 641.79 180.71 641.26 180.77C638.85 181.06 636.45 181.49 634.05 181.87C636.53 179.33 639.99 177.19 641.23 174.15C642.58 170.86 643.71 167.53 645.72 164.55C646.37 163.59 646.95 162.58 647.48 161.55C647.69 161.14 647.69 160.62 647.79 160.15C642.97 159.88 648.55 153.8 644.01 153.37C644.51 152.02 644.72 150.45 645.56 149.36C647.58 146.73 650.1 144.48 651.98 141.77C652.78 140.61 652.5 138.7 652.71 137.14C651.71 137.4 650.72 137.72 649.7 137.9C649.24 137.98 648.73 137.79 648.89 137.81C650.9 132.45 652.96 127.03 654.93 121.58C655.12 121.07 654.77 120.36 654.68 119.74C653.93 120.07 653.18 120.4 652.43 120.72C652.17 120.36 651.9 120 651.64 119.64C652.52 117.57 654.58 115.13 654.05 113.51C652.88 109.89 653.87 107.22 655.35 104.15C656.01 102.79 655.44 99.31 655.26 99.29C651.3 99.01 653.78 97.65 654.76 96.65C655.57 95.82 656.59 95.18 657.33 94.31C657.63 93.96 657.7 92.98 657.42 92.64C656.11 90.99 655.97 90.96 656.92 89.82C660.19 85.89 662.21 81.63 662.38 76.31C662.54 71.37 663.62 66.45 664.3 61.45C666.18 64.04 665.64 64.04 665.69 67.49C665.79 73.98 664.64 80.73 669.6 86.48C670.91 87.99 675.44 90.29 671.02 93.57C670.94 93.63 671.4 94.41 671.6 94.86C672.67 97.29 677.06 98.47 674.39 102.3C677.85 106.39 678.85 112.8 685.39 114.01C685.51 114.03 685.56 114.43 685.66 114.72C684.11 115.26 682.61 115.77 680.82 116.39C681.99 117.25 682.92 117.92 683.97 118.69C682.76 119.37 681.93 119.84 680.87 120.43C682.71 122.15 684.42 123.72 686.1 125.31C687.43 126.57 687.4 126.55 685.84 128.05C685.64 128.24 685.73 129.06 685.97 129.32C686.76 130.17 687.71 130.86 688.55 131.67C689.86 132.92 689.44 133.65 687.78 133.8C686.17 133.95 686.28 134.77 687.08 135.67C688.74 137.54 687.73 140.93 690.71 142.06C690.73 142.06 690.54 142.71 690.41 143.04C690.26 143.42 687.43 142.47 689.86 144.11C692.05 145.59 694.34 146.93 697.49 148.9C694.49 150.05 692.18 150.94 689.61 151.93C690.57 152.78 691.67 153.72 692.71 154.71C692.98 154.97 693.09 155.39 693.28 155.74C689.13 157.21 693.42 157.72 693.75 158.19C694.66 159.51 696.04 160.5 697.24 161.63C696.97 161.96 696.7 162.28 696.43 162.61C694.4 161.64 692.52 162.33 691.99 164.21C691.64 165.45 692.58 167.24 693.33 168.56C693.87 169.5 695.05 170.08 695.95 170.82C698.39 172.83 700.88 174.77 703.22 176.88C703.69 177.3 703.59 178.35 703.75 179.11C703.06 179.05 702.29 179.16 701.68 178.91C699.16 177.87 696.68 176.72 693.87 175.47C695.56 185.95 702.51 190.69 711.84 188.17C714.56 187.44 717.15 186.25 719.85 185.45C726.21 183.58 732.56 181.67 739 180.09C743.35 179.02 747.81 178.38 752.24 177.71C755.78 177.17 758.86 175.83 761.69 173.61C771.41 165.99 781.8 159.48 793.45 155.2C795.4 154.48 797.63 153.92 799.65 154.13C808.25 155 816.83 156.19 825.41 157.26C831.71 158.05 837.04 160.09 838.45 167.27C838.57 167.9 839.04 168.47 839.14 169.1C839.68 172.21 841.73 172.46 844.35 172.16C846.61 171.9 848.96 171.66 851.17 172.02C859.97 173.45 868.71 175.01 877.14 178.25C882.35 180.25 888.08 180.93 893.56 182.25C898.21 183.38 902.9 184.38 907.46 185.81C913.47 187.69 919.36 189.96 925.33 191.99C927.04 192.57 928.82 193.1 930.61 193.33C949.8 195.76 968.45 200.46 986.75 206.65C988.9 207.38 991.29 207.7 993.57 207.71C1008.39 207.8 1023.21 207.81 1038.03 207.71C1040.47 207.69 1043 207.25 1045.32 206.49C1054.47 203.5 1063.54 200.29 1072.67 197.22C1074.38 196.64 1076.2 196.07 1077.98 196.03C1084.4 195.89 1090.37 194 1096.46 192.22C1102.48 190.46 1106.07 185.9 1110.16 181.87C1111.13 180.92 1111.38 179.19 1111.83 177.77C1112.33 176.2 1111.74 175.47 1110.12 176.15C1107.49 177.25 1104.9 178.46 1102.3 179.62L1101.56 178.76C1102.25 177.82 1102.81 176.72 1103.67 175.96C1106.42 173.55 1109.22 171.18 1112.13 168.96C1113.8 167.68 1114.6 166.06 1113.92 164.24C1113.19 162.28 1111.39 161.81 1109.39 162.53C1109.12 162.23 1108.85 161.93 1108.59 161.62C1110.53 159.87 1112.47 158.12 1114.38 156.4C1113.73 156.16 1112.99 155.89 1112.18 155.59C1113.61 154.28 1114.93 153.08 1116.33 151.79C1114.24 151.1 1112.39 150.64 1110.68 149.89C1109.2 149.24 1109.3 148.21 1110.65 147.37C1112.48 146.24 1114.35 145.16 1116.17 144C1116.32 143.9 1116.22 143.39 1116.23 143.08C1114.93 143.14 1114.04 142.81 1115.53 141.68C1117.06 140.52 1117.52 139.13 1117.91 137.29C1118.3 135.49 1120.26 133.84 1116.74 133.39C1117.42 132.37 1118.01 131.27 1118.79 130.34C1119.72 129.23 1119.74 129.36 1118.43 128.11C1118.18 127.87 1118.37 126.73 1118.73 126.37C1120.7 124.36 1122.78 122.45 1124.87 120.46C1123.7 119.81 1122.73 119.28 1121.64 118.68C1122.83 117.84 1123.78 117.17 1124.91 116.37C1123 115.71 1121.45 115.18 1119.79 114.61C1121.95 113.42 1124.33 112.74 1125.74 111.18C1127.81 108.89 1129.21 105.97 1130.86 103.3C1131.2 102.75 1131.43 102.12 1131.71 101.52C1128 100.16 1131.4 98.99 1131.87 97.85C1132.69 95.86 1136.64 94.51 1133.04 91.63C1132.91 91.52 1133.41 90.47 1133.75 89.94C1134.73 88.4 1135.65 86.8 1136.82 85.41C1141.38 79.97 1140.42 73.38 1139.83 67.31C1139.56 64.6 1140.05 63.29 1141.49 61.15C1142.25 66.79 1143.3 71.86 1143.52 76.97C1143.73 81.75 1145.48 85.6 1148.41 89.16C1149.6 90.6 1149.48 90.67 1148.22 92.76C1148.02 93.1 1148.01 93.83 1148.24 94.08C1149.02 94.93 1150.14 95.51 1150.76 96.45C1151.23 97.17 1155.54 98.76 1150.51 99.16C1150.26 99.18 1149.83 100.33 1149.94 100.85C1150.37 102.74 1151.01 104.58 1151.53 106.45C1151.87 107.66 1152.8 109.24 1152.36 110.06C1150.29 113.89 1152.24 116.71 1154.19 119.64C1153.92 120 1153.64 120.35 1153.37 120.71C1152.62 120.38 1151.87 120.05 1151.12 119.72C1151.07 120.49 1150.77 121.35 1151.01 122.03C1152.22 125.55 1153.57 129.03 1155.01 132.87C1159.92 130.51 1164.8 127.21 1169.18 123.15C1172.69 119.9 1173.62 115.66 1173.88 111C1173.27 111.19 1172.91 111.21 1172.65 111.38C1168.99 113.96 1168.99 114 1163.82 113.91C1163.19 113.9 1162.21 113.33 1162.06 112.83C1161.92 112.33 1162.47 111.39 1162.98 110.98C1164.67 109.65 1166.41 108.37 1168.26 107.28C1175.15 103.21 1177.5 96.44 1179.18 89.25C1179.23 88.75 1179.28 88.25 1179.33 87.76C1179.15 88.13 1178.97 88.5 1178.78 88.87C1176.81 90.13 1173.65 89.18 1172.63 92.2C1170.37 89.82 1170.1 93.09 1168.83 93.51C1168.48 93.63 1167.72 93.54 1167.71 93.48C1167.38 90.95 1166.07 92.72 1165.33 93.02C1164.11 93.52 1163.05 94.4 1161.83 94.88C1161.47 95.02 1160.78 94.34 1160.25 94.03C1161.7 93.27 1157.86 92.65 1160.25 91.61C1162.51 90.63 1164.65 89.25 1166.64 87.78C1170.47 84.95 1174.15 81.93 1177.89 78.98C1178.13 78.81 1178.37 78.64 1178.61 78.48C1178.38 78.43 1178.15 78.38 1177.93 78.34C1177.96 78.59 1177.99 78.84 1178.02 79.08C1176.9 78.82 1175.79 78.56 1174.67 78.29C1175.24 77.28 1175.67 76.17 1176.4 75.3C1177.57 73.9 1179.17 72.83 1180.14 71.33C1181.27 69.57 1181.97 67.52 1182.74 65.56C1182.84 65.31 1182.25 64.79 1181.98 64.39C1179.97 66.06 1178.76 63.8 1175.88 63.8C1178.39 61.58 1180.03 60.18 1181.6 58.71C1182.41 57.95 1183.66 57.32 1181.13 56.85C1178.07 56.28 1178.06 55.65 1179.76 53.28C1180.23 52.62 1180.66 51.92 1181.11 51.24C1181.38 50.97 1181.65 50.69 1181.92 50.42C1181.52 50.56 1181.12 50.7 1180.72 50.84C1178.89 50.41 1177.07 49.98 1175.55 49.63C1178.91 46.54 1182.43 43.31 1185.95 40.07C1186.14 39.78 1186.34 39.49 1186.53 39.2C1186.14 39.26 1185.74 39.33 1185.35 39.39C1184.6 39.67 1183.85 39.95 1183.1 40.23C1182.8 39.98 1182.5 39.72 1182.19 39.47C1183.36 37.73 1184.54 35.99 1185.72 34.25C1184.32 34.04 1183.13 33.86 1181.93 33.68C1182.44 32.58 1182.93 31.48 1183.47 30.4C1183.61 30.12 1183.89 29.9 1184.11 29.66C1186.07 27.55 1185.18 26.46 1182.76 25.93L1182.88 26.02C1184.18 23.97 1185.26 21.73 1186.84 19.93C1188.49 18.05 1187.21 15.75 1186.43 15.52C1183.69 14.69 1184.81 13.54 1185.56 12.11C1187.69 8.09 1189.76 4.04 1191.86 0C1192.19 0 1192.53 0 1192.86 0C1194.74 4.27 1196.42 8.64 1198.59 12.76C1199.6 14.69 1199.86 15.86 1197.87 16.99C1197.61 16.79 1197.35 16.59 1197.08 16.39C1197.18 16.77 1197.28 17.16 1197.37 17.54C1197.89 22.14 1204.33 24.31 1202.49 29.94C1202.39 30.24 1203.28 30.93 1203.78 31.36C1204.7 32.14 1205.68 32.85 1207.46 34.25C1204.65 33.92 1202.9 33.72 1200.66 33.46C1201.84 34.95 1202.67 36.17 1203.67 37.23C1205.05 38.71 1204.21 39.15 1202.79 39.27C1202.17 39.33 1201.51 39.07 1200.87 38.96C1200.62 38.76 1200.38 38.57 1200.13 38.37C1200.17 38.75 1200.22 39.13 1200.26 39.52C1201.77 42.46 1203.3 45.39 1204.78 48.35C1205.02 48.83 1205.32 49.71 1205.13 49.89C1204.49 50.47 1203.63 50.81 1202.85 51.24C1203.51 52.39 1204.16 53.53 1204.82 54.68C1206.01 56.77 1205.91 56.73 1204.88 59.95C1204.64 60.71 1205.05 62.03 1205.64 62.62C1206.91 63.88 1208.52 64.8 1209.91 65.94C1210.16 66.15 1210.06 66.79 1210.12 67.23C1206.34 66.78 1210.57 69.46 1208.51 70.13C1207.02 69.3 1205.21 68.22 1203.33 67.29C1202.81 67.03 1202.07 67.21 1201.44 67.19C1201.61 67.68 1201.72 68.2 1201.97 68.64C1203.45 71.21 1205.05 73.7 1206.42 76.32C1207.11 77.65 1208.06 80.29 1207.76 80.47C1204.15 82.65 1207.62 83.85 1208.47 84.89C1210.13 86.92 1212.19 88.65 1214.21 90.36C1215.29 91.28 1216.62 91.92 1217.84 92.68C1218.55 91.37 1219.23 90.04 1220 88.77C1220.42 88.07 1221.11 87.52 1221.49 86.8C1222.73 84.41 1223.89 81.97 1225.53 78.62C1222.63 79.84 1220.88 80.57 1219.14 81.31C1218.81 81 1218.48 80.68 1218.16 80.37C1216.22 78.43 1216.26 78.49 1218.59 76.74C1219.74 75.88 1220.79 74.81 1221.63 73.65C1221.95 73.21 1221.67 71.66 1221.45 71.61C1218.66 70.99 1220.27 69.64 1220.88 68.51C1221.58 67.21 1222.24 65.86 1223.11 64.67C1225.3 61.67 1222.38 62.33 1221.02 61.82C1222.07 60.07 1223.26 58.45 1224.04 56.66C1224.83 54.84 1225.22 52.84 1225.79 50.92C1226.02 50.95 1226.26 50.97 1226.49 51C1226.43 50.79 1226.38 50.58 1226.32 50.37C1226.17 50.59 1226.02 50.81 1225.86 51.03C1224.75 50.99 1223.64 50.95 1222.53 50.91C1223.01 50 1223.43 49.06 1223.99 48.2C1224.57 47.3 1225.28 46.49 1226.11 45.4C1223.87 45.66 1222.02 45.87 1219.16 46.2C1221.19 44.64 1222.47 43.85 1223.47 42.8C1224.05 42.2 1224.71 40.75 1224.43 40.41C1222.84 38.46 1224.49 37.52 1225.4 36.27C1226.56 34.67 1227.65 33.01 1228.73 31.34C1229.39 30.32 1229.23 30.28 1227.91 28.31C1227.48 27.67 1227.3 26.43 1227.63 25.79C1229.81 21.5 1232.16 17.3 1234.68 12.66C1237.22 17.19 1239.58 21.35 1241.86 25.54C1242.08 25.94 1241.82 26.59 1241.78 27.13L1241.86 27C1238.11 28.76 1237.99 29.14 1239.85 31.83C1241.25 33.85 1242.53 35.95 1243.86 38.01L1243.52 38.27C1241.83 38.4 1241.01 39.15 1241.97 40.81C1242.46 41.66 1243.24 42.33 1243.86 43.1C1245.52 45.14 1244.86 46.01 1242.4 46C1242 46 1241.6 46.17 1240.88 46.34C1241.9 47.77 1242.95 48.87 1243.52 50.19C1243.89 51.05 1245.13 53.51 1242.03 52.06C1241.82 51.96 1241.44 52.23 1241.14 52.33C1241.35 52.84 1241.43 53.52 1241.8 53.84C1244.85 56.38 1247.96 58.85 1250.96 61.26C1248.98 61.92 1247.46 62.42 1245.94 62.93C1245.62 62.74 1245.3 62.56 1244.98 62.37C1245.2 62.66 1245.41 62.96 1245.63 63.25C1246.06 63.94 1246.46 64.65 1246.93 65.31C1248.69 67.78 1248.64 67.98 1245.6 68.98C1245.13 69.14 1244.61 69.17 1244.11 69.25C1243.84 69.67 1243.57 70.1 1243.3 70.52C1245.51 72.16 1247.73 73.8 1250.02 75.5C1248.41 76.25 1247.13 77.35 1246.45 77.06C1243.48 75.8 1243.41 77.08 1244.35 79.2C1245.14 80.99 1246.07 82.78 1247.28 84.29C1248.51 85.83 1250.18 87 1251.6 88.4C1252.59 89.38 1252.46 91.06 1251.29 91.02C1246.63 90.87 1249.98 92.7 1250.75 93.25C1254.51 95.97 1258.42 98.49 1262.24 101.15C1263.29 101.88 1264.38 102.71 1265.07 103.75C1265.45 104.31 1265.03 105.4 1264.97 106.25C1264.34 106.17 1263.67 106.2 1263.09 105.97C1261.88 105.49 1260.72 104.86 1259.53 104.3C1258.35 107.48 1257.49 104.85 1256.45 104.17C1255.7 103.68 1254.8 103.41 1254 102.99C1252.97 102.46 1251.97 101.88 1250.96 101.32C1249.54 104.33 1249.01 100.5 1247.92 100.92C1247.69 100.54 1247.46 100.15 1247.23 99.77C1247.32 100.28 1247.41 100.8 1247.51 101.31C1249.13 108.13 1251.25 114.66 1257.61 118.75C1258.86 119.56 1260.13 120.41 1261.18 121.45C1262.12 122.38 1263.51 123.69 1263.4 124.68C1263.15 126.86 1261.54 125.62 1260.39 125.23C1260.28 125.19 1259.97 125.33 1259.96 125.43C1259.09 130.39 1257.7 125.68 1256.89 125.43C1255.57 125.01 1254.49 123.83 1252.71 122.53C1253.03 128.75 1254.77 133.51 1259.36 136.93C1262.15 139.01 1265.05 140.94 1267.95 142.89C1269.33 143.81 1270.96 144.42 1272.16 145.52C1273 146.29 1273.04 148.06 1273.93 148.65C1275.87 149.96 1273.23 150.94 1273.97 152.02C1273.2 152.02 1272.43 152.12 1271.67 152.02C1270.16 151.84 1268.66 151.56 1267.16 151.31C1267.4 151.05 1267.63 150.8 1267.87 150.54C1267.76 150.51 1267.57 150.44 1267.57 150.45C1267.45 150.73 1267.36 151.01 1267.26 151.3L1267.86 151.99C1267.69 152.12 1267.52 152.25 1267.34 152.37C1264.79 150.84 1262.26 149.27 1259.66 147.82C1259.27 147.6 1258.24 147.73 1258.09 148.01C1256.76 150.42 1256.75 150.49 1255.11 148.86C1253.46 147.23 1251.93 145.48 1249.96 143.36C1248.71 151.97 1251.93 157.12 1258.87 160.19C1260.99 161.13 1263.08 162.17 1265.14 163.25C1265.97 163.68 1266.67 164.36 1267.43 164.92C1266.47 165.27 1265.54 165.73 1264.55 165.95C1261.56 166.62 1261.2 166.59 1260.14 166.13C1259.86 166.01 1259.31 165.8 1259.31 165.81C1257.86 169.08 1256.54 166.23 1255.14 165.78C1254.78 165.66 1253.9 165.97 1253.9 166.09C1253.88 168.9 1252.81 167.48 1251.63 166.79C1250.39 166.06 1248.94 165.66 1247.59 165.12C1248.6 166.31 1249.56 167.55 1250.64 168.66C1251.21 169.24 1252.09 169.51 1252.67 170.09C1253.39 170.82 1256.41 171.1 1253.39 172.85C1253.73 173.21 1254.1 173.88 1254.4 173.86C1255.54 173.76 1256.68 173.5 1257.79 173.16C1268.12 170.06 1278.48 167.04 1288.76 163.78C1294.56 161.94 1300.28 160.82 1306.33 162.55C1308.22 163.09 1310.28 163.09 1312.27 163.15C1319.59 163.38 1326.91 163.56 1334.23 163.69C1348.43 163.94 1362.48 163.25 1375.64 156.96C1376.76 156.42 1378.22 156.42 1379.52 156.45C1388.5 156.65 1397.49 157.09 1406.47 157.07C1409.52 157.07 1412.72 156.37 1415.58 155.27C1423.43 152.25 1431.5 150.93 1439.86 151V651.9H0C0 478.6 0 305.3 0 132C3.81 129.17 7.15 126.05 7.22 120.64C4.6 121.5 2.3 122.25 0 123V122.89ZM1176.78 131.24C1174.86 133.27 1173.05 135.12 1171.31 137.04C1170.01 138.48 1168.76 138.25 1168.73 136.47C1168.7 134.78 1168.42 134.81 1167.28 135.54C1165.04 136.96 1162.78 138.35 1160.6 139.87C1159.46 140.67 1158.66 141.59 1157.47 139.77C1157.21 139.38 1155.22 140.12 1154.03 140.34C1154.32 141.29 1154.41 142.39 1154.95 143.17C1155.79 144.39 1156.94 145.39 1157.94 146.5C1162.19 151.21 1162.15 151.16 1167.86 148.21C1174.1 144.99 1178.32 141.56 1176.79 131.25L1176.78 131.24ZM1179.68 152.8C1178.73 152.73 1178.06 152.47 1177.68 152.7C1176.55 153.39 1175.57 154.32 1174.45 155.03C1174.09 155.26 1173.48 155.09 1172.99 155.1C1173.07 151.67 1171.48 154.03 1170.41 154.31C1169.95 154.43 1169.34 154.38 1168.92 154.17C1167.13 153.28 1162.03 153.21 1160.88 154.18C1160.53 154.47 1160.29 154.9 1160.02 155.28C1159.09 156.62 1162.26 160.43 1157.49 159.46C1157.59 159.87 1157.6 160.32 1157.8 160.68C1158.36 161.7 1158.93 162.72 1159.61 163.65C1160.95 165.48 1162.36 167.24 1163.74 169.03C1166.31 167.56 1168.93 166.17 1171.41 164.57C1172.19 164.07 1172.64 163.02 1173.17 162.18C1173.41 161.8 1173.71 161 1173.62 160.94C1170.89 159.1 1173.37 158.6 1174.42 157.8C1175.74 156.79 1177.14 155.89 1178.42 154.84C1178.88 154.46 1179.09 153.77 1179.66 152.8H1179.68ZM1204.84 94.67C1205.2 95.58 1205.49 96.52 1205.93 97.38C1209.53 104.48 1210.75 104.69 1216.27 99.1C1217.07 98.29 1217.74 97.36 1218.48 96.46C1214.36 93.23 1209.09 98.17 1204.84 94.66V94.67ZM1215.31 116.21C1212.64 114.21 1209.97 112.21 1206.61 109.69C1207.1 111.94 1207.36 113.37 1207.72 114.78C1209.21 120.64 1209.73 120.82 1214.58 117.16C1214.83 116.97 1214.98 116.65 1215.31 116.21ZM510.57 135.91C510.24 135.77 509.92 135.63 509.59 135.49C508.38 136.78 507.16 138.06 505.97 139.36C503.57 141.98 503.72 142.77 506.62 145.1C507.9 146.12 508.79 145.98 509.12 144.48C509.73 141.65 510.11 138.77 510.58 135.91H510.57ZM1206.63 131.22C1206.44 131.34 1206.25 131.47 1206.06 131.59C1206.77 133.72 1207.38 135.89 1208.24 137.97C1208.55 138.71 1209.6 139.82 1210.03 139.7C1211.05 139.43 1212.11 138.67 1212.71 137.8C1212.95 137.45 1212.21 136.12 1211.62 135.55C1210.04 134.02 1208.3 132.66 1206.63 131.23V131.22Z" fill="#006138"/>
</svg>
