<svg width="1440" height="904" viewBox="0 0 1440 904" fill="none" xmlns="http://www.w3.org/2000/svg">
<g clip-path="url(#clip0_186_504)">
<path d="M1440 200V904H0C0 669.33 0 434.67 0 200C6.84 195.58 13.61 191.04 20.55 186.79C23.18 185.18 26.13 183.97 29.07 183.02C36.52 180.61 43.38 177.15 48.14 170.84C53.32 163.97 60.78 160.15 67.4 155.2C69.68 153.49 71.69 154.02 73.56 156.05C75.93 158.62 78.33 161.17 80.86 163.59C82.15 164.83 83.63 166.39 85.24 166.68C88.9 167.36 91.62 169.33 94.33 171.59C97.91 174.57 101.67 177.36 105.22 180.37C107.49 182.3 109.85 183.5 112.9 183.01C116.37 182.45 119.49 183.53 122.38 185.32C129.04 189.43 135.22 188.07 141.16 183.78C142.1 183.1 142.96 182.29 143.91 181.62C147.19 179.29 150.24 179.39 153.57 181.6C156.18 183.33 158.84 185.09 161.68 186.36C173.68 191.72 174.78 191.54 184.34 182.35C187.25 179.55 190.16 177.05 193.93 175.4C195.91 174.53 197.34 172.44 199.03 170.91C200.46 169.62 201.74 167.67 203.41 167.22C207.54 166.11 211.84 165.36 216.11 165.12C219.22 164.94 221.76 164.11 223.38 161.6C226.54 156.69 231.02 153.92 236.53 152.46C238.45 151.95 240.23 150.91 242.15 150.39C245.87 149.4 248.62 147.3 250.89 144.19C252.11 142.52 253.88 141.04 255.71 140.07C259.97 137.81 264.38 135.83 268.79 133.87C278.7 129.45 288.41 124.74 295.87 116.5C296.54 115.76 297.28 115.06 298.07 114.47C303.94 110.11 309.44 105.05 315.82 101.62C324.35 97.0401 332.82 92.5101 340.52 86.6101C345.52 82.7801 347.39 82.8801 352.26 86.9301C359.56 93.0001 367.03 98.8701 374.13 105.15C383.99 113.87 396.06 119.53 405.7 128.59C411.12 133.68 417.33 137.98 423.38 142.35C427.81 145.55 432.9 147.89 437.08 151.35C440.7 154.35 444.36 155.29 448.86 155.16C450.56 155.11 452.51 156.56 454 157.75C458.68 161.49 463.17 165.46 467.82 169.25C468.78 170.03 470.08 170.9 471.21 170.89C477.05 170.86 481.74 173.43 486.21 176.8C491.42 180.72 496.84 184.21 503.45 185.44C504.85 185.7 506.17 186.67 507.39 187.51C510.68 189.78 513.89 192.17 517.15 194.48C517.93 195.03 518.82 195.94 519.61 195.88C524.8 195.51 528.23 198.85 532.13 201.35C535.6 203.57 539.11 205.87 542.91 207.38C551.25 210.68 558.85 210.06 564.22 201.7C564.31 201.56 564.44 201.45 564.55 201.32C569.08 195.61 574.56 191.34 581.45 188.6C586.33 186.66 591.35 184.8 595.28 180.84C599.39 176.7 600.84 176.81 605.44 180.54C615.27 188.51 625.03 196.57 634.86 204.53C636.12 205.55 637.58 206.41 639.08 207.06C644.8 209.59 650.54 212.12 656.37 214.38C657.53 214.83 659.3 214.45 660.53 213.89C665.18 211.78 670.1 209.98 674.19 207.05C678.33 204.08 681.6 199.9 685.25 196.25C685.84 195.66 686.34 194.91 687.04 194.52C690.39 192.63 693.81 190.64 697.69 193.14C700.06 194.66 702.12 193.91 704.19 192.59C712.06 187.59 720.05 182.76 727.77 177.54C732.2 174.54 736.38 171.42 741.94 170.72C744 170.46 746.03 169.3 747.89 168.24C750.39 166.82 752.84 166.72 755.58 167.31C757.83 167.8 760.21 168.11 762.48 167.93C765.48 167.7 767.6 168.31 768.95 171.25C769.95 173.43 771.66 174.8 774.32 175.17C778.99 175.81 782.49 178.78 783.75 183.03C785.92 190.34 790.82 195.76 795.01 201.73C796.57 203.96 798.63 204.86 801.05 203.99C809 201.1 818.21 201.34 824.6 194.41C825.55 193.38 827.63 192.96 829.15 193.02C830.36 193.07 831.83 194.04 832.65 195.04C838.33 201.96 843.66 209.19 849.57 215.92C852.17 218.88 855.8 220.55 860.29 219.28C863.73 218.3 867.24 218.65 870.18 221.21C870.92 221.85 871.84 222.48 872.76 222.67C878.15 223.74 883.17 226 886.67 230.01C890.27 234.14 894.95 235.93 899.43 238.35C901.18 239.3 902.81 240.59 904.67 241.22C907.51 242.18 909.68 243.86 911.22 246.31C913.11 249.32 915.68 250.26 919.19 250.11C922.8 249.95 926.53 250.09 930.05 250.83C934.25 251.72 938.19 253.85 942.4 254.61C949.07 255.82 955.84 255.41 961.33 250.91C967.22 246.07 973.63 242.38 980.88 240.18C984.92 238.96 987.76 236.64 989.97 232.99C994.79 225 1000.1 217.36 1007.3 211.2C1009.22 209.56 1011.04 208.46 1013.57 209.12C1018.72 210.47 1023.94 211.61 1028.98 213.3C1032.02 214.32 1034.47 216.47 1034.95 220.06C1035.28 222.5 1035.68 224.94 1035.99 227.38C1036.55 231.86 1036.55 231.65 1041.1 232.07C1046.55 232.58 1051.62 233.98 1056.23 237.48C1060.55 240.76 1065.43 243.58 1070.48 245.54C1073.49 246.7 1076.1 248.12 1078.64 249.95C1085.43 254.82 1091.89 259.71 1100.32 262.37C1109.02 265.12 1116.85 270.78 1124.88 275.46C1127.41 276.94 1129.74 278.05 1132.74 278C1140.57 277.87 1148.4 277.88 1156.23 278C1158.88 278.04 1161.03 277.31 1163.14 275.73C1168.07 272.03 1173.07 268.42 1178.17 264.98C1180.05 263.72 1182.29 262.98 1184.41 262.09C1186.5 261.21 1188.89 260.81 1190.7 259.55C1198.49 254.13 1206.06 248.41 1213.81 242.94C1221.06 237.82 1226.88 237.37 1232.46 242.27C1234.06 243.68 1236.06 245.72 1237.83 245.68C1244.61 245.5 1252.33 248.95 1257.6 241.46C1258.04 240.83 1258.98 240.56 1259.65 240.08C1263.83 237.09 1268.63 237.19 1273.49 236.89C1281.39 236.41 1289.29 235.59 1296.13 230.83C1300.77 227.6 1305.61 224.65 1310.25 221.41C1313.64 219.05 1317.13 218.53 1321.12 219.49C1324.3 220.26 1327.58 220.75 1330.85 220.97C1334.67 221.23 1338.52 221.2 1342.34 221.04C1349.43 220.74 1356.23 219.4 1361.49 214.08C1363.47 212.08 1365.71 211.82 1368.35 212.1C1372.62 212.55 1376.93 213.08 1381.2 212.89C1383.5 212.79 1386.16 211.79 1387.9 210.3C1390.8 207.82 1394.02 206.49 1397.53 205.32C1400.96 204.17 1404.41 202.81 1407.48 200.94C1411.24 198.65 1415.15 198.13 1418.91 199.74C1422.83 201.42 1426.72 200.99 1430.66 200.92C1433.78 200.86 1436.89 200.34 1440 200.03V200Z" fill="#84C77F"/>
<path d="M1326 0C1325.98 0.5 1326.09 1.36 1325.91 1.44C1322.02 2.94 1321.27 6.84 1319.53 9.89C1317.23 13.91 1316.84 14.04 1313.53 11.12C1311.12 8.99 1308.42 7.18 1306.18 5.48C1309.36 4.92 1310.33 5.33 1315.62 9.86C1318.09 6.57 1320.55 3.29 1323.01 0C1324.01 0 1325.01 0 1326.01 0H1326Z" fill="#10975D"/>
<path d="M1375.92 16.1299C1380.11 15.2699 1383.21 18.2999 1386.9 19.8299C1389.6 17.3499 1391.17 13.4299 1396.06 12.8799C1394.24 15.6099 1392.74 17.8499 1391.25 20.1099C1388.93 23.6399 1387.23 23.8399 1383.71 21.2899C1381.22 19.4799 1378.57 17.8699 1375.93 16.1399L1375.92 16.1299Z" fill="#169A61"/>
<path d="M1341.11 15.8801C1342.94 17.1501 1344.77 18.4101 1346.64 19.7001C1349.81 15.0301 1353.88 13.0701 1359.1 14.1101C1354.83 17.6101 1350.58 21.1101 1345.91 24.9301C1344.13 22.2901 1342.22 19.4701 1340.31 16.6501C1340.57 16.3901 1340.84 16.1401 1341.1 15.8801H1341.11Z" fill="#0A9459"/>
<path d="M106.05 106.11C110.11 105.28 113.21 108.3 117.02 109.89C119.44 107.15 121.38 103.71 126.24 102.57C124.16 105.75 122.59 108.15 121.01 110.54C119.06 113.49 117.18 113.77 114.08 111.62C111.41 109.77 108.73 107.94 106.05 106.11Z" fill="#169A61"/>
<path d="M1370.3 41.8701C1366.51 42.3801 1363.66 40.8801 1361.48 37.5601C1360.24 38.5301 1358.99 39.5101 1357.75 40.4801C1357.73 40.4201 1357.71 40.3701 1357.38 39.5501C1358.82 37.6101 1360.53 35.3101 1362.18 33.0801C1365.03 36.1701 1367.65 39.0101 1370.3 41.8701Z" fill="#179A62"/>
<path d="M155.43 149.54C154.1 150.62 152.92 151.58 151.75 152.54C151.51 152.37 151.27 152.2 151.04 152.04C152.74 149.71 154.44 147.39 156.15 145.06C159.01 148.12 161.63 150.94 164.33 153.83C160.58 154.44 157.82 152.86 155.45 149.54H155.43Z" fill="#179A62"/>
<path d="M1340.31 16.6501C1339.99 16.2101 1339.67 15.7701 1339.35 15.3301C1339.93 15.5101 1340.52 15.7001 1341.1 15.8801C1340.84 16.1401 1340.57 16.3901 1340.31 16.6501Z" fill="#0A9459"/>
</g>
<defs>
<clipPath id="clip0_186_504">
<rect width="1440" height="904" fill="white"/>
</clipPath>
</defs>
</svg>
