<svg width="1440" height="706" viewBox="0 0 1440 706" fill="none" xmlns="http://www.w3.org/2000/svg">
<g clip-path="url(#clip0_161_464)">
<path d="M1439.9 61.0799C1439.9 274.52 1439.89 487.97 1439.99 701.41C1439.99 705.16 1439.15 706 1435.4 706C958.47 705.9 481.53 705.9 4.6001 706C0.850097 706 9.65783e-05 705.16 0.0100966 701.41C0.110097 509.29 0.100097 317.18 0.100097 125.06C3.5201 126.5 6.8301 128.33 10.3701 129.33C24.5901 133.34 39.2001 132.58 53.4601 130.64C60.9501 129.62 66.9501 130.71 73.3901 133.78C84.0201 138.84 94.7201 143.87 106.84 144.41C113.31 144.7 119.83 144.92 126.23 145.85C130.59 146.48 135.38 147.4 138.88 149.79C142.49 152.26 145.83 153.19 149.93 153.02C153.75 152.86 157.59 153.12 161.41 152.95C167.58 152.68 172.41 149.12 177.63 146.54C177.13 146.02 176.81 145.88 176.5 145.89C175.18 145.95 173.87 146.05 172.55 146.14C173.58 145.42 174.6 144.68 175.65 143.98C177.04 143.07 178.54 142.31 179.83 141.28C182.33 139.28 183.99 136.8 183.77 133.19C182.26 134.16 181.07 135.44 179.72 135.64C178.37 135.84 176.87 134.95 175.43 134.53C176.2 133.69 176.83 132.41 177.78 132.11C181.2 131.02 183.37 128.8 184.93 125.63C182.63 125.44 180.56 125.27 177.87 125.05C182.33 121.25 183.997 116.523 182.87 110.87C182.82 110.64 183.08 110.36 183.18 110.1C184.07 107.94 185.3 105.86 185.75 103.61C186.3 100.87 186.76 97.8899 186.23 95.2099C185.66 92.3399 186.46 90.2399 187.88 88.0499C188.24 87.4999 188.97 86.7399 188.82 86.3699C187.3 82.6699 190.52 80.7899 192.14 77.9999C193.78 82.1099 194.85 86.2499 195.65 90.4299C195.95 92.0199 195.48 93.7499 195.65 95.3799C195.83 96.9899 195 98.9999 197.39 99.9599C198.92 100.58 198.64 101.37 197.95 103.11C196.87 105.83 196.13 109.83 197.4 112.06C199.25 115.31 199.91 119.94 204.43 121.36C205.19 121.6 205.87 122.21 206.45 122.79C206.74 123.08 206.75 123.66 206.88 124.11C206.47 124.15 206.05 124.29 205.66 124.21C203.5 123.79 201.36 123.32 199.21 122.87C198.94 122.65 198.67 122.44 198.4 122.22C198.51 122.6 198.61 122.98 198.72 123.37C199.2 128.17 202.49 130.76 206.27 132.98C205.49 133.55 204.77 134.42 203.9 134.61C203.04 134.8 202.03 134.3 201.08 134.1C201.39 135.36 201.4 136.82 202.08 137.83C202.98 139.16 204.32 140.26 205.62 141.24C207.78 142.87 210.08 144.34 212.31 145.87C210.99 146.41 209.53 147.61 208.37 147.36C205.28 146.71 202.32 145.45 199.29 144.42C199.32 144.34 199.24 144.49 199.2 144.65C197.62 151.1 206.38 150.63 206.72 155.82C206.72 155.9 207.44 156.11 207.62 155.98C210.13 154.19 212.79 152.55 215 150.45C216.07 149.43 216.27 147.51 216.87 145.99C215.6 146.13 214.34 146.3 213.07 146.38C212.79 146.4 212.48 146.12 212.19 145.98C212.66 145.19 213.02 144.29 213.64 143.63C214.85 142.32 216.5 141.32 217.42 139.85C218.39 138.29 218.71 136.33 219.32 134.54C217.7 135 216.08 135.5 214.45 135.92C213.35 136.2 212.21 136.41 211.08 136.51C210.98 136.51 210.79 135.49 210.64 134.94C213.6 132.96 217.66 132.2 218.13 127.52C218.24 126.45 219.92 125.61 220.59 124.5C221.9 122.32 220.12 122.09 218.64 121.75C218.95 121.21 219.39 120.69 219.55 120.11C219.74 119.37 219.83 118.56 219.73 117.8C219.42 115.4 218.22 112.83 221.46 111.36C221.82 111.2 222.27 110.5 222.18 110.18C221.18 106.34 223.01 102.65 222.99 99.1999C222.97 95.6499 224.43 93.6699 226.15 90.9999C227.61 94.2099 228.11 97.7099 229.6 100.72C231.06 103.69 232.4 106.26 230.58 109.48C230.29 110 230.63 110.97 230.87 111.67C232.9 117.61 232.93 118.36 231.2 124.43C231.16 124.57 231.2 124.78 231.28 124.92C232.93 128.04 234.52 131.19 236.28 134.25C236.83 135.2 237.84 135.87 238.65 136.66C237.48 136.96 236.31 137.53 235.15 137.5C232.85 137.44 232.25 138.35 233.83 139.9C235.44 141.48 237.54 142.56 239.36 143.93C240.3 144.64 241.11 145.51 241.99 146.32C240.45 146.69 238.88 147.43 237.38 147.3C236.13 147.19 234.97 146.04 233.51 145.21C233.84 152.79 240.42 154.18 244.37 158.43C240.7 157.84 237.03 157.25 233.34 156.65C234.22 160.11 236.14 163.33 240.05 165.2C241.2 165.75 243.17 167.17 243.08 167.34C241.38 170.74 244.54 170.74 246.06 171.5C251.27 174.08 256.53 176.59 261.9 178.8C264.28 179.78 266.98 180.41 269.54 180.46C280.53 180.64 291.53 180.63 302.52 180.46C304.92 180.42 307.39 179.7 309.69 178.9C321.59 174.75 333.24 169.69 345.39 166.52C353.53 164.4 361.17 161.63 368.61 157.93C372.44 156.02 376.42 154.33 380.46 152.93C384.99 151.36 389.89 150.72 394.25 148.8C400.9 145.87 407.33 142.47 414.68 141.6C417.09 141.32 419.54 140.99 421.94 141.17C424.3 141.35 425.82 141.1 426.16 138.37C426.34 136.92 427.23 135.56 427.38 134.11C428.03 128.04 431.99 125.73 437.4 124.81C443.79 123.73 450.15 122.35 456.57 121.52C458.65 121.25 461.11 121.91 463.04 122.87C472.88 127.76 480.55 135.38 488.17 143.1C490.03 144.98 492.75 146.27 495.3 147.16C502.95 149.84 511.18 151.28 518.33 154.89C527.82 159.7 537.4 161.3 547.74 160.29C559.93 159.1 571.71 154.48 584.23 156.03C584.97 156.12 586.37 155.75 586.47 155.34C587.49 151.35 591.77 151.26 593.96 148.83C595.75 146.84 596.93 144.3 598.3 142.12C594.03 142.74 590.27 143.28 586.52 143.83C590.91 139.59 597.65 137.92 597.71 130.12C596.19 131.1 595 132.38 593.65 132.59C592.3 132.8 590.78 131.95 589.34 131.56C590.08 130.71 590.67 129.41 591.6 129.1C594.97 127.96 597.3 125.91 598.73 122.61C596.51 122.43 594.45 122.25 591.8 122.03C596.347 118.09 598.01 113.37 596.79 107.87C596.73 107.59 597.24 107.19 597.46 106.83C597.94 106.05 598.87 105.21 598.8 104.47C598.33 99.6899 600.61 95.3499 599.78 90.1299C599.04 85.4499 603.13 80.0099 605.08 74.9099H606.68C607.66 79.0699 608.74 83.1999 609.55 87.3899C609.86 88.9799 609.32 90.7199 609.55 92.3399C609.77 93.9299 608.83 95.9799 611.27 96.9399C612.76 97.5199 612.59 98.3099 611.85 100.08C610.73 102.77 610.02 106.79 611.3 109.02C613.08 112.14 613.5 116.69 617.9 118.08C618.81 118.37 619.61 119.11 620.35 119.76C620.65 120.03 620.65 120.63 620.79 121.08C620.38 121.12 619.96 121.26 619.57 121.19C617.41 120.77 615.27 120.3 613.12 119.85C612.85 119.63 612.58 119.42 612.31 119.2C612.42 119.58 612.52 119.96 612.63 120.35C613.05 124.1 615.21 126.67 618.19 128.78C618.97 129.33 619.39 130.39 619.97 131.22C618.9 131.25 617.59 131.71 616.82 131.25C614.02 129.58 614.93 131.78 615.17 132.8C616.31 137.6 620.82 139.52 625.18 137.33C627.24 136.29 629.48 135.54 631.7 134.92C634.89 134.03 638.56 134.08 641.3 132.49C646.34 129.57 651.45 130.21 656.78 130.19C660.8 130.17 665.5 129.94 668.69 127.9C676.09 123.17 683.08 117.66 689.63 111.78C695.3 106.69 697.61 105.98 704.21 110C706.16 111.19 708.25 112.45 710.44 112.92C718.24 114.58 726.11 115.96 733.97 117.32C735.35 117.56 737.33 117.73 738.19 116.97C743.76 112.07 750.52 108.26 753.92 101.24C756.59 95.7299 761.23 93.1699 766.92 92.5799C770.15 92.2499 772.44 91.0099 774.76 88.8799C776.3 87.4599 778.61 86.2299 780.64 86.1099C791.15 85.4899 801.71 84.9299 811.81 89.0099C812.41 89.2499 813.15 89.1099 813.78 89.2999C816.93 90.2299 820.16 90.9899 823.19 92.2299C827.95 94.1799 832.55 96.5299 837.28 98.5399C838.34 98.9899 839.7 98.7599 840.93 98.8399C840.91 97.7699 840.95 96.6899 840.85 95.6299C840.74 94.5299 839.98 92.7499 840.38 92.4599C844.4 89.5499 843.12 85.0499 844.06 81.2299C844.33 80.1199 845 79.0499 845.05 77.9399C845.24 73.7799 844.61 69.4799 845.49 65.4899C846.75 59.7999 849.07 54.3399 850.94 48.7799C850.18 53.5899 852.52 57.8599 853.51 62.3599C854.77 68.0799 860.09 71.8999 859.57 78.1199C859.46 79.4599 861.47 80.8699 861.66 82.3599C862.05 85.5199 862.18 88.6199 865.15 90.6699C865.36 90.8199 865.31 91.8699 865.03 92.1299C862.28 94.7499 867.27 98.1299 864.14 100.66C867 102.74 869.59 105.84 872.77 106.66C877.5 107.88 881.94 109.08 885.92 112.08C889.75 114.97 893.7 117.88 898.01 119.94C901.95 121.82 906.49 122.41 910.66 123.87C915.6 125.6 920.31 128.34 925.52 124.29C926.83 123.27 929.01 123.34 930.79 122.96C939.91 120.99 948.72 118.42 956.92 113.63C967.68 107.35 978.91 101.87 989.74 95.6999C993.34 93.6499 995.96 93.9899 999.3 96.1099C1002.89 98.3799 1006.83 100.54 1010.91 101.54C1024.04 104.74 1035.91 110.16 1046.43 118.75C1048.59 120.51 1052.03 121.99 1054.64 121.66C1062.49 120.69 1070.32 119.16 1077.95 117.08C1084.13 115.39 1089.99 112.51 1096.04 110.31C1099.27 109.13 1102.7 108.45 1105.89 107.19C1110.52 105.37 1114.86 102.24 1119.61 101.45C1128.14 100.04 1135.9 96.9899 1143.63 93.4499C1147.22 91.8099 1151.01 89.8999 1154.82 89.6299C1162.39 89.0799 1169.01 86.5699 1175.3 82.6199C1177.55 81.2099 1180.14 80.3199 1182.27 78.7799C1186.84 75.4799 1191.84 74.4999 1197.34 74.9199C1198.93 75.0399 1200.93 75.0399 1202.12 74.2099C1206.32 71.2699 1210.32 68.0199 1214.25 64.6999C1215.12 63.9599 1215.38 62.4899 1215.92 61.3599C1214.71 61.5199 1213.51 61.6999 1212.3 61.8199C1212.05 61.8399 1211.78 61.6099 1211.03 61.2899C1213 59.6699 1214.92 58.3599 1216.45 56.6899C1217.01 56.0699 1216.97 53.7999 1216.61 53.6399C1214.41 52.6799 1215.63 52.0699 1216.5 51.0299C1217.15 50.2499 1217.77 48.2499 1217.62 48.1699C1213.54 45.8599 1217.76 44.8099 1218.29 43.2399C1218.81 41.7299 1219.86 40.0699 1219.58 38.6899C1219.07 36.1699 1219.81 34.5299 1221.57 32.9599C1222.05 32.5299 1222.63 31.4599 1222.42 31.1199C1220.88 28.5099 1223.39 27.4499 1224.19 25.6699C1227.56 18.0899 1232.16 10.8399 1231.18 1.92993C1232.81 6.99993 1234.31 12.0599 1235.77 17.1199C1236.14 18.3899 1236.28 19.7299 1236.65 20.9999C1238.36 26.8899 1236 33.3899 1239.32 39.0599C1239.56 39.4599 1239.53 40.2299 1239.3 40.6599C1238.34 42.4399 1238.22 42.4899 1238.57 42.8199C1241.44 45.5699 1243.51 48.4799 1241.14 52.6299C1241.02 52.8399 1241.44 53.4399 1241.73 53.7599C1241.82 53.8499 1242.48 53.6699 1242.56 53.4799C1243.45 51.4999 1244.29 49.5099 1245.1 47.4899C1245.66 46.0899 1246.08 44.6299 1246.66 43.2499C1246.97 42.5199 1247.88 41.8999 1247.88 41.2199C1247.91 32.6599 1250.17 24.6399 1253.31 17.6199C1255.39 21.6899 1257.68 26.2699 1260.05 30.8099C1261.38 33.3699 1263.23 35.7299 1264.14 38.4199C1265.82 43.3999 1265.74 43.7399 1270.1 41.4699C1286.77 32.8199 1303.41 24.1199 1319.89 15.0999C1323.43 13.1599 1326 13.2899 1329.53 14.9199C1339.16 19.3799 1349.04 23.2799 1358.8 27.4699C1367.47 31.1999 1376.25 34.7199 1384.71 38.8799C1391.55 42.2399 1397.65 47.3099 1404.7 49.9999C1416.14 54.3799 1428.09 57.4299 1439.83 61.0499L1439.9 61.0799Z" fill="#019053"/>
</g>
<defs>
<clipPath id="clip0_161_464">
<rect width="1440" height="706" fill="white"/>
</clipPath>
</defs>
</svg>
