<svg width="1512" height="982" viewBox="0 0 1512 982" fill="none" xmlns="http://www.w3.org/2000/svg">
<path d="M861.942 802.045C859.147 801.238 858.916 802.796 858.821 805.273C858.769 806.775 861.753 809.577 857.634 809.958C857.823 810.731 857.792 811.729 858.244 812.222C860.46 814.587 863.833 816.391 864.894 819.204C866.67 823.923 869.717 823.071 872.931 823.026C882.356 822.914 891.79 823.026 901.215 822.679C904.419 822.556 907.602 821.401 910.754 820.583C914.106 819.709 917.384 817.96 920.735 817.826C944.322 816.918 967.93 815.371 991.495 815.932C1010.84 816.391 1030.12 819.474 1049.42 821.435C1052.55 821.749 1055.66 822.242 1058.76 822.769C1062.47 823.408 1065.93 823.307 1069.31 821.009C1071.93 819.216 1074.92 818.039 1077.73 816.559C1078.51 816.156 1079.69 815.808 1079.9 815.158C1080.5 813.264 1080.72 811.236 1081.08 809.252C1079.74 809.095 1078.39 808.826 1077.04 808.792C1072.49 808.703 1067.95 808.725 1063.4 808.635C1062.61 808.624 1061.84 808.266 1061.06 808.064C1061.64 807.503 1062.13 806.752 1062.8 806.416C1069.78 803.043 1076.79 799.759 1083.75 796.396C1084.63 795.97 1085.36 795.186 1086.16 794.558C1085.23 794.334 1084.27 793.785 1083.4 793.942C1079.82 794.592 1076.28 795.511 1072.7 796.217C1071.89 796.374 1071.01 796.06 1070.16 795.97C1070.85 795.511 1071.51 794.995 1072.25 794.614C1075.7 792.843 1079.19 791.14 1082.63 789.347C1083.34 788.977 1083.91 788.293 1084.55 787.755C1083.63 787.318 1082.64 786.41 1081.79 786.545C1078.16 787.094 1074.6 788.114 1070.98 788.629C1067.36 789.145 1063.69 789.302 1060.05 789.537C1059.49 789.571 1058.9 789.19 1058.33 788.999C1058.82 788.551 1059.25 787.979 1059.82 787.665C1066.33 784.09 1072.88 780.582 1079.37 776.962C1080.81 776.155 1083.57 775.807 1081.18 772.77C1080.84 772.355 1081.84 770.215 1082.66 769.363C1087.3 764.566 1092.1 759.948 1096.79 755.196C1097.43 754.546 1097.71 753.503 1098.17 752.652C1097.18 752.786 1096.11 752.719 1095.22 753.111C1093.81 753.739 1092.51 754.692 1091.18 755.499C1091.22 753.492 1091.24 751.486 1091.32 749.48C1091.34 748.931 1091.61 748.381 1091.59 747.832C1091.52 746.106 1091.36 744.391 1091.22 742.677C1089.82 743.618 1088.44 744.56 1087.04 745.501V745.557C1085.7 741.444 1087.33 738.496 1090.44 736.311C1096.12 732.309 1101.92 728.51 1107.56 724.452C1108.71 723.623 1109.83 722.166 1110.2 720.776C1110.57 719.286 1110.04 717.526 1109.91 715.89C1108.48 716.203 1106.98 716.316 1105.64 716.865C1102.22 718.232 1098.88 719.846 1095.48 721.247C1094.9 721.482 1094.12 721.135 1093.43 721.056C1093.88 720.619 1094.3 720.16 1094.77 719.756C1097.65 717.347 1100.47 714.814 1103.47 712.572C1106.35 710.431 1108.32 708.156 1107.88 703.953C1107.74 702.496 1109.12 700.748 1110.05 699.313C1112.12 696.119 1114.43 693.093 1116.45 689.865C1116.91 689.136 1116.56 687.825 1116.58 686.783C1115.84 687.13 1115.08 687.444 1114.36 687.814C1110.89 689.551 1107.45 691.389 1103.93 693.003C1103.06 693.406 1101.91 693.115 1100.89 693.137C1101.51 692.443 1102.05 691.647 1102.75 691.064C1105.63 688.632 1108.43 686.099 1111.48 683.925C1114.61 681.694 1115.24 679.038 1112.96 676.012C1110.17 672.302 1110.84 669.623 1114.16 666.754C1116.69 664.557 1119.03 661.979 1118.32 657.754C1118.03 656.073 1117.99 654.817 1116 655.165C1115.65 655.221 1115.29 655.21 1114.94 655.187C1113.02 655.03 1111.09 654.874 1109.17 654.705C1110.94 653.663 1112.7 652.565 1114.49 651.578C1117.29 650.054 1120.16 648.698 1122.89 647.073C1123.53 646.692 1123.77 645.56 1124.19 644.764C1123.47 644.573 1122.72 644.181 1122.02 644.237C1120.13 644.405 1118.26 644.764 1116.38 645.055C1117.77 643.52 1119.15 641.951 1120.58 640.46C1121.2 639.81 1121.9 639.227 1122.62 638.734C1130.13 633.634 1135.13 626.607 1137.24 617.316C1137.48 616.24 1137.73 614.861 1138.46 614.29C1140.07 613.023 1141.98 612.182 1143.76 611.163C1144.01 612.676 1144.66 614.267 1144.42 615.679C1143.2 622.774 1146 627.649 1151.2 631.718C1154.99 634.677 1158.35 638.252 1161.95 641.502C1163.74 643.116 1163.6 644.047 1161.25 644.517C1160.74 644.618 1160.25 644.842 1159.76 645.055C1159.01 645.392 1158.28 645.773 1157.54 646.143C1158.19 646.916 1158.75 647.835 1159.51 648.451C1162.74 650.996 1166.05 653.428 1169.28 655.949C1170.08 656.577 1170.76 657.373 1171.49 658.09C1170.58 658.258 1169.66 658.449 1168.75 658.583C1168.41 658.628 1168.04 658.471 1167.71 658.527C1167.1 658.639 1166.49 658.841 1165.89 658.998C1166.25 659.592 1166.5 660.321 1166.98 660.769C1170.79 664.322 1175.5 667.202 1178.27 671.506C1182.13 677.547 1187.76 677.267 1193.11 678.567C1193.96 678.769 1194.87 678.735 1195.71 678.959C1196.31 679.128 1196.84 679.565 1197.41 679.878C1196.73 680.215 1196.07 680.741 1195.36 680.865C1192.43 681.38 1189.48 681.728 1186.56 682.243C1185.78 682.378 1185.06 682.927 1184.32 683.286C1184.95 683.689 1185.54 684.238 1186.22 684.474C1195.14 687.522 1194.93 687.197 1202.58 681.347C1211.6 674.431 1216.93 665.375 1218.71 653.798C1218.9 652.509 1219.2 651.209 1219.13 649.92C1219.06 648.743 1218.58 647.588 1218.27 646.423C1217.38 646.893 1216.4 647.241 1215.62 647.869C1211.29 651.332 1207.01 654.851 1202.71 658.359C1202.46 657.978 1202.22 657.608 1201.97 657.227C1202.99 655.266 1204.02 653.304 1205.04 651.343C1205.1 650.884 1205.17 650.413 1205.24 649.953C1204.85 650.144 1204.47 650.323 1204.08 650.514C1200.63 652.072 1197.19 653.629 1193.74 655.187L1193.86 655.288C1194.17 654.47 1194.51 653.663 1194.8 652.845C1195.02 652.251 1195.19 651.634 1195.38 651.029C1194.73 651.007 1193.99 650.783 1193.43 651.007C1191.84 651.657 1190.32 652.497 1188.77 653.26C1188.47 652.935 1188.16 652.621 1187.86 652.296C1197.54 644.405 1207.31 636.638 1216.82 628.546C1219.01 626.697 1220.82 623.973 1222.01 621.25C1224.99 614.559 1227.5 607.643 1230.2 600.818C1230.6 599.798 1231.14 598.789 1231.31 597.713C1231.76 594.799 1232.06 591.862 1232.42 588.926C1230.82 590.966 1229.22 593.006 1227.64 595.057C1227.41 595.337 1227.3 595.729 1227.05 595.976C1226.45 596.592 1225.81 597.153 1225.18 597.724C1224.88 596.962 1224.5 596.222 1224.32 595.438C1224.06 594.395 1223.95 593.319 1223.77 592.266C1222.91 593.073 1221.91 593.779 1221.22 594.72C1219.92 596.469 1218.88 598.419 1217.58 600.156C1217.11 600.784 1216.2 601.042 1215.5 601.468C1215.61 600.706 1215.68 599.943 1215.83 599.192C1216.01 598.285 1216.26 597.399 1216.48 596.503C1216.54 596.043 1216.59 595.595 1216.66 595.135C1216.28 595.292 1215.91 595.449 1215.53 595.617C1212.4 599.327 1209.27 603.059 1206.11 606.735C1205.68 607.24 1205.03 607.542 1204.48 607.946C1204.41 607.262 1204.21 606.556 1204.27 605.884C1204.45 604.068 1204.74 602.275 1204.99 600.47C1203.18 601.322 1201.29 602.028 1199.56 603.059C1195.76 605.323 1192.06 607.778 1188.29 610.087C1187.26 610.714 1186.13 611.185 1184.99 611.577C1184.59 611.712 1184.06 611.375 1183.58 611.252C1183.77 610.961 1183.93 610.647 1184.16 610.4C1186.49 607.923 1188.85 605.446 1191.19 602.981C1191.12 602.667 1191.04 602.364 1190.98 602.05C1190.88 602.084 1190.78 602.118 1190.68 602.14C1190.88 602.42 1191.09 602.712 1191.29 602.992C1189.99 602.88 1188.69 602.779 1187.39 602.644C1186.48 602.555 1185.59 602.42 1184.69 602.308C1185.44 601.669 1186.15 600.93 1186.98 600.425C1201.43 591.605 1215.7 582.481 1228.25 570.657C1229.27 569.682 1230.2 568.572 1231.18 567.53C1231.53 567.037 1231.89 566.544 1232.25 566.062C1231.62 566.252 1231 566.454 1230.37 566.645C1227.53 568.012 1224.7 569.424 1221.84 570.735C1221.3 570.982 1220.61 570.848 1219.99 570.881C1220.26 569.491 1221.07 567.9 1220.69 566.745C1220.14 565.053 1219.8 565.188 1220.69 564.268C1225.29 559.46 1230.57 555.156 1234.29 549.653C1237.2 545.338 1238.21 539.555 1239.96 534.399C1240.01 534.254 1238.82 533.278 1238.56 533.424C1237.02 534.254 1235.56 535.273 1234.09 536.271C1232.45 537.369 1231.51 537.19 1231.68 534.859C1231.86 532.359 1231 531.866 1229.06 533.245C1228.49 533.648 1227.86 534.041 1227.2 534.231C1225.98 534.59 1224.69 534.814 1223.44 535.083C1224.21 534.097 1224.93 533.043 1225.77 532.135C1230.2 527.394 1234.69 522.698 1239.1 517.935C1239.64 517.341 1239.89 516.433 1240.26 515.66C1239.47 515.57 1238.65 515.29 1237.89 515.424C1236.7 515.637 1235.56 516.164 1234.38 516.478C1233.05 516.814 1231.91 516.87 1232.31 514.718C1232.4 514.236 1231.87 513.127 1231.64 513.138C1224.6 513.295 1230.37 510.28 1231 509.394C1233.2 506.29 1235.78 503.488 1238.12 500.484C1238.42 500.114 1238.15 499.251 1238.15 498.612C1237.69 498.668 1237.13 498.567 1236.79 498.814C1235.05 500.047 1233.39 501.403 1231.65 502.647C1231.28 502.916 1230.69 502.849 1230.21 502.939C1230.3 502.367 1230.35 501.773 1230.5 501.224C1230.85 500.081 1231.26 498.949 1231.65 497.817C1230.49 498.029 1229.33 498.198 1228.19 498.478C1226 499.016 1223.81 499.621 1221.63 500.193C1221.46 500.024 1221.29 499.868 1221.11 499.711C1228.27 493.524 1235.48 487.427 1242.52 481.094C1244.89 478.965 1246.81 476.264 1248.86 473.753C1249.26 473.271 1249.33 472.498 1249.55 471.848C1248.8 471.971 1247.92 471.87 1247.29 472.24C1244.09 474.134 1240.99 476.219 1237.77 478.079C1237.11 478.46 1236.11 478.203 1235.27 478.247C1235.64 477.553 1235.94 476.813 1236.38 476.174C1239.68 471.377 1243.02 466.602 1246.31 461.794C1246.7 461.223 1246.91 460.505 1247.22 459.844C1246.42 459.844 1245.57 459.642 1244.83 459.866C1243.33 460.326 1241.91 461.088 1240.42 461.581C1239.34 461.94 1238.18 462.052 1237.07 462.276C1237.46 461.256 1237.87 460.247 1238.17 459.205C1238.19 459.115 1237.48 458.79 1237.11 458.577C1236.9 458.353 1236.7 458.14 1236.49 457.916C1239 454.744 1241.57 451.606 1244 448.367C1244.8 447.302 1245.3 445.991 1245.94 444.78C1244.83 444.702 1243.72 444.624 1242.62 444.545L1242.73 444.59C1242.99 444.052 1243.23 443.514 1243.48 442.965C1243.64 442.561 1243.79 442.147 1243.96 441.743C1243.53 441.822 1243.09 441.889 1242.66 441.967C1240.89 442.483 1239.12 442.998 1237.35 443.503C1238.24 442.046 1239.07 440.555 1240.02 439.154C1244.23 433.001 1248.48 426.881 1252.66 420.706C1253.18 419.932 1253.31 418.879 1253.63 417.949C1252.74 418.319 1251.83 418.644 1250.96 419.069C1250.49 419.294 1250.12 419.753 1249.65 419.966C1248.97 420.257 1248.25 420.403 1247.55 420.616C1247.69 419.932 1247.81 419.226 1248 418.554C1248.34 417.343 1248.73 416.155 1249.11 414.967C1247.82 415.203 1246.54 415.517 1245.23 415.662C1244.18 415.786 1243.11 415.707 1242.04 415.707L1242.17 415.797C1246.21 407.817 1250.25 399.825 1254.31 391.857C1255.89 388.752 1257.51 385.67 1259.19 382.632C1259.69 381.725 1260.5 381.007 1261.17 380.2C1261.67 381.074 1262.23 381.904 1262.64 382.823C1266.1 390.523 1269.45 398.29 1272.99 405.934C1274.06 408.254 1275.84 410.193 1276.93 412.502C1277.31 413.297 1282.57 416.077 1276.33 415.853C1276.19 415.853 1275.84 416.705 1275.89 417.13C1276.02 418.15 1276.31 419.159 1276.54 420.168C1275.4 419.484 1274.25 418.8 1273.11 418.117C1272.36 417.668 1271.63 417.22 1270.88 416.772C1271.01 417.781 1270.88 418.913 1271.29 419.764C1275.1 427.969 1279.57 435.702 1285.76 442.191C1286.31 442.774 1286.4 443.884 1286.69 444.758C1285.84 444.803 1284.98 444.859 1284.13 444.904C1283.94 444.702 1283.75 444.5 1283.56 444.299C1283.54 444.455 1283.53 444.612 1283.51 444.769C1283.74 444.769 1283.97 444.769 1284.2 444.769C1284.18 445.61 1284.4 447.067 1284.11 447.201C1279.44 449.286 1283.46 450.788 1284.57 451.752C1288.08 454.778 1291.86 457.434 1295.5 460.292C1295.99 460.673 1296.26 461.368 1296.63 461.917C1295.94 462.03 1295.21 462.332 1294.55 462.22C1289.64 461.357 1284.76 460.416 1279.86 459.497C1279.81 459.228 1279.75 458.97 1279.69 458.701C1279.54 458.768 1279.39 458.846 1279.23 458.914C1279.47 459.082 1279.72 459.239 1279.96 459.407C1282.64 462.836 1285.32 466.266 1287.99 469.707C1288.64 470.536 1289.27 471.377 1289.91 472.206C1288.86 472.442 1287.78 472.587 1286.77 472.935C1286.19 473.125 1285.69 473.641 1285.17 474L1285.27 473.91C1283.62 473.114 1281.98 472.296 1280.32 471.511C1279.63 471.186 1278.9 470.951 1278.18 470.682C1278.35 471.534 1278.34 472.498 1278.73 473.226C1283.2 481.812 1287.73 490.352 1292.24 498.915C1292.52 499.464 1292.74 500.047 1293 500.618C1292.48 500.63 1291.97 500.663 1291.46 500.652C1291.29 500.652 1291.13 500.562 1290.95 500.529C1288.47 500.047 1285.99 499.554 1283.51 499.072C1284.7 501.347 1285.86 503.622 1287.06 505.886C1289.62 510.739 1292.22 515.592 1294.77 520.457C1295.11 521.084 1295.32 521.79 1295.58 522.463C1294.95 522.485 1294.31 522.608 1293.7 522.519C1292.06 522.272 1290.42 521.936 1288.79 521.633C1289.22 523.74 1289.22 526.117 1290.2 527.899C1291.38 530.051 1293.15 532.012 1295.05 533.48C1298.44 536.08 1302.14 538.232 1305.68 540.608C1306.09 540.889 1306.4 541.326 1306.76 541.696C1306.19 541.819 1305.61 542.11 1305.08 542.032C1302.83 541.718 1300.6 541.27 1298.35 540.956C1297.92 540.9 1297.45 541.18 1297 541.303C1297.22 541.774 1297.36 542.312 1297.67 542.682C1298.95 544.206 1300.29 545.674 1301.6 547.154C1301.31 547.468 1301.02 547.77 1300.73 548.084C1293.13 546.806 1287.34 542.021 1281.66 536.999C1281.19 536.607 1280.71 536.215 1280.25 535.811C1280.44 536.529 1280.62 537.235 1280.81 537.952C1284.64 547.019 1287.5 556.647 1294.24 564.033C1294.93 564.795 1295.13 566.051 1295.56 567.07L1295.64 566.925C1294.79 566.925 1293.95 566.925 1293.1 566.925C1293.43 567.62 1293.69 568.348 1294.09 568.987C1294.37 569.447 1294.9 569.727 1295.17 570.186C1296.12 571.834 1296.99 573.515 1297.89 575.185C1296.34 574.826 1294.79 574.434 1293.24 574.131C1292.43 573.975 1291.6 573.975 1290.78 573.907C1291.2 574.681 1291.54 575.544 1292.06 576.227C1300.65 587.536 1310.2 597.724 1322.09 605.166C1323.01 605.738 1325.34 606.175 1322.07 607.441C1319.81 608.316 1323.46 609.145 1323 610.501L1323.12 610.4C1320.11 609.705 1317.1 609.022 1314.09 608.316C1312.78 608.013 1311.47 607.666 1310.15 607.341C1310.6 608.742 1311.07 610.143 1311.52 611.544C1311.36 611.7 1311.19 611.857 1311.03 612.014C1309.03 611.073 1307.05 610.053 1305 609.212C1303.95 608.775 1302.8 608.652 1301.69 608.383C1302 609.638 1302.31 610.882 1302.62 612.138C1302.39 612.328 1302.18 612.53 1301.99 612.765C1298.42 610.535 1294.84 608.282 1291.25 606.074C1290.73 605.749 1290.1 605.615 1289.51 605.379C1289.51 606.074 1289.32 606.847 1289.55 607.441C1295.2 622.292 1303.92 633.959 1318.64 639.496C1324.53 641.704 1330.37 644.069 1336.18 646.501C1337.14 646.905 1337.86 648.003 1338.7 648.776C1337.63 649.057 1336.55 649.426 1335.47 649.583C1335.01 649.651 1334.5 649.27 1334 649.101C1333.58 649.057 1333.17 649.012 1332.75 648.967C1332.93 649.281 1333.11 649.595 1333.29 649.897C1334.29 651.164 1335.13 652.632 1336.32 653.607C1337.03 654.179 1338.61 654.47 1339.28 654.01C1344.26 650.592 1349.11 646.972 1354 643.374C1354.37 643.094 1354.63 642.612 1354.94 642.22C1354.5 642.096 1354.05 641.839 1353.63 641.872C1350.5 642.186 1347.38 642.578 1344.25 642.87C1343.66 642.926 1343.04 642.623 1342.43 642.489C1342.8 641.917 1343.07 641.222 1343.56 640.808C1348.6 636.481 1353.67 632.222 1358.69 627.874C1359.45 627.224 1359.95 626.26 1360.57 625.441C1359.6 625.385 1358.6 625.15 1357.65 625.296C1349.19 626.573 1342.34 623.032 1336.07 617.45C1334.3 615.87 1334.62 615.04 1336.45 613.908C1343.99 609.246 1351.48 604.483 1359 599.764C1359.74 599.293 1360.57 598.923 1361.21 598.318C1361.92 597.668 1362.44 596.794 1363.04 596.021C1362.04 596.043 1360.97 595.819 1360.05 596.121C1356.03 597.388 1352.07 598.823 1348.08 600.156C1347.62 600.313 1347.07 600.201 1346.56 600.201C1346.83 599.663 1346.99 598.979 1347.41 598.621C1353.02 593.88 1358.64 589.139 1364.31 584.488C1366.11 583.008 1366.48 581.843 1363.84 581.529C1359.57 581.024 1361.18 579.063 1362.59 576.9C1364.58 573.84 1366.42 570.668 1368.41 567.608C1369.65 565.703 1369.64 564.706 1367.12 564.537C1364.15 564.336 1361.21 563.876 1358.26 563.495C1357.64 563.417 1357.04 563.136 1356.43 562.946C1356.77 562.341 1356.99 561.601 1357.45 561.141C1362.42 556.176 1367.43 551.245 1372.44 546.313C1373.09 545.686 1373.84 545.148 1374.38 544.43C1374.84 543.814 1375.07 543.007 1375.4 542.29C1374.72 542.312 1374 542.155 1373.4 542.379C1369.45 543.825 1365.52 545.361 1361.58 546.851C1360.6 547.221 1359.61 547.569 1358.6 547.793C1358.11 547.894 1357.58 547.681 1357.06 547.602C1357.49 547.165 1357.91 546.728 1358.34 546.291C1367.34 537.179 1376.34 528.078 1385.29 518.921C1385.97 518.237 1386.32 517.206 1386.84 516.332C1386.06 516.018 1385.29 515.592 1384.5 515.413C1381.26 514.662 1377.99 514.001 1374.75 513.261C1374.16 513.127 1373.61 512.824 1373.04 512.6C1373.58 512.163 1374.07 511.613 1374.67 511.322C1378.15 509.607 1381.67 507.982 1385.14 506.234C1386.19 505.707 1387.09 504.878 1388.07 504.183C1387.07 503.689 1386.12 503.028 1385.08 502.714C1379.55 501.044 1373.99 499.475 1368.45 497.839C1367.79 497.648 1367.19 497.256 1366.56 496.953C1367.18 496.673 1367.79 496.315 1368.43 496.113C1375.45 493.894 1382.48 491.708 1389.46 489.399C1389.65 489.343 1394.6 488.973 1389.93 487.079C1389.6 486.945 1389.57 484.569 1390.1 483.694C1394.13 476.958 1398.32 470.335 1402.47 463.688C1404.69 460.135 1406.94 456.582 1409.13 453.007C1409.5 452.413 1409.69 451.696 1409.95 451.023C1409.19 450.855 1408.43 450.653 1407.66 450.519C1407.33 450.463 1406.97 450.575 1406.62 450.597C1404.67 450.687 1402.72 450.777 1400.77 450.866C1401.96 449.084 1403.07 447.235 1404.35 445.531C1409.15 439.143 1413.9 432.71 1418.91 426.512C1420.76 424.225 1420.31 423.441 1418.02 422.32C1415.74 421.199 1413.67 419.596 1411.51 418.206C1412.82 416.021 1414.12 413.824 1415.45 411.65C1421.51 401.652 1427.64 391.711 1433.56 381.624C1434.68 379.696 1435.38 377.197 1435.48 374.933C1436.13 360.788 1436.47 346.632 1437.13 332.499C1437.3 328.991 1436.68 327.994 1433.65 329.944C1433.11 330.302 1432.4 330.392 1431.76 330.594C1431.86 329.776 1431.78 328.879 1432.07 328.151C1434.37 322.334 1436.72 316.55 1439.09 310.767C1439.35 310.117 1439.76 309.545 1440.11 308.94C1440.34 309.702 1440.69 310.453 1440.79 311.238C1442.49 324.889 1444.17 338.552 1445.84 352.214C1447.24 363.657 1448.53 375.123 1450.04 386.544C1450.3 388.449 1451.2 390.4 1452.25 392.013C1458.09 401.058 1464.09 409.98 1469.97 419.002C1470.61 419.966 1470.8 421.244 1471.2 422.376C1470.06 422.174 1468.89 422.051 1467.78 421.737C1466.78 421.446 1465.86 420.818 1464.86 420.56C1463.47 420.201 1462.03 420.056 1460.61 419.809C1460.91 421.423 1460.93 423.194 1461.59 424.617C1462.25 426.03 1463.45 427.24 1464.61 428.305C1469.78 433.035 1475.02 437.663 1480.2 442.371C1480.81 442.931 1481.15 443.817 1481.63 444.545C1480.93 444.523 1480.24 444.534 1479.56 444.478C1475.91 444.186 1472.28 443.884 1468.63 443.581C1468.45 447.639 1467.84 451.741 1468.24 455.742C1468.54 458.734 1469.58 462.018 1471.24 464.417C1477.07 472.879 1478.66 481.386 1474.06 491.193C1471.88 495.855 1472.83 500.641 1476.21 505.113C1482.2 513.071 1487.63 521.51 1493.29 529.748C1493.06 530.095 1492.83 530.454 1492.59 530.801C1485.95 525.108 1479.28 519.437 1472.69 513.676C1471.73 512.846 1471.06 511.636 1470.26 510.605C1470.12 512.073 1469.61 513.653 1469.92 515.009C1471.01 519.638 1472.33 524.222 1473.7 528.773C1474.18 530.342 1474.94 531.855 1475.8 533.245C1480.2 540.44 1482.44 548.118 1481.52 556.849C1481.32 558.754 1482.45 561.108 1483.56 562.811C1489.03 571.173 1494.71 579.377 1500.31 587.637C1499.92 587.895 1499.52 588.153 1499.13 588.422C1492.96 583.602 1486.75 578.828 1480.63 573.918C1478.71 572.372 1478.04 572.641 1478.09 575.23C1478.15 579.13 1477.85 583.064 1478.21 586.942C1478.38 588.758 1479.4 590.73 1480.55 592.154C1486.6 599.607 1492.38 607.385 1499.07 614.133C1505.41 620.544 1507.6 628.221 1508.2 636.93C1508.03 637.109 1507.86 637.288 1507.69 637.479C1504.26 633.556 1500.86 629.611 1497.36 625.755C1496.92 625.262 1495.99 625.285 1495.27 625.06C1495.45 625.699 1495.45 626.517 1495.84 626.943C1504.42 636.291 1500.39 648.53 1502.39 659.368C1502.47 659.839 1502.26 660.365 1502.18 660.87C1501.65 660.478 1501.06 660.141 1500.6 659.671C1498.59 657.653 1496.71 655.49 1494.59 653.641C1493.93 653.058 1492.66 653.271 1491.66 653.114C1491.97 653.988 1492.16 654.93 1492.62 655.714C1499.06 666.765 1505.53 677.805 1512 688.834V976.878C1512 980.293 1510.45 982 1507.36 982C1005 982 502.646 982 0.286178 982C0.286178 929.648 0.286178 877.306 0.286178 824.954C0.286178 823.833 0.391241 822.701 0.265165 821.603C-0.0185058 819.126 0.979595 818.084 3.21744 818.577C7.27289 819.473 10.1201 817.478 12.8833 814.609C17.38 809.936 22.1183 805.508 26.7306 800.947C27.34 800.342 27.7812 799.546 28.2961 798.828C27.34 798.772 26.3419 798.481 25.4488 798.705C18.1469 800.51 10.803 802.18 3.60618 804.388C0.370228 805.385 0.590861 804.051 0.160102 801.451C-0.72243 796.116 2.18782 793.224 5.35023 790.232C5.79149 789.817 6.00162 789.122 6.31681 788.551C5.66542 788.584 4.99301 788.517 4.37314 788.685C3.70074 788.853 3.05985 789.19 2.43998 789.526C1.05314 790.277 0.244153 790.266 0.275671 788.192C0.338709 782.229 0.412254 776.267 0.244153 770.315C0.170608 767.794 1.72555 767.267 3.28048 766.449C14.018 760.789 23.5157 753.291 32.1414 744.481C32.8978 743.708 33.6858 742.957 34.3477 742.105C34.6104 741.769 34.5473 741.164 34.6419 740.682C34.1586 740.603 33.5912 740.289 33.2025 740.469C30.6285 741.612 28.1805 743.147 25.5329 743.999C18.0419 746.42 10.4668 748.505 2.95479 750.858C0.779975 751.542 0.233646 750.847 0.275671 748.606C0.380735 743.999 0.548836 739.37 0.212633 734.786C-0.0605312 731.11 1.33681 729.44 4.44668 728.487C12.5891 726.01 20.0171 722.054 26.4469 716.058C38.4452 704.872 46.2409 690.761 51.5676 674.969C51.9248 673.927 51.473 672.571 51.389 671.36L52.2925 671.73C51.9983 671.641 51.7042 671.54 51.4205 671.45C40.7145 679.15 30.0086 686.861 19.3026 694.561C19.0715 694.314 18.8193 694.079 18.5567 693.866C19.8595 691.49 21.1623 689.103 22.465 686.727C22.8433 686.413 23.211 686.11 23.5892 685.796C23.5892 685.639 23.6312 685.482 23.6102 685.337C23.5892 685.247 23.4842 685.169 23.4211 685.079C23.5052 685.37 23.5892 685.662 23.6733 685.964C23.0639 685.897 22.444 685.819 21.8347 685.751C15.804 689.842 9.7839 693.944 3.73225 697.991C3.09137 698.416 2.27187 698.551 1.52592 698.831C1.76757 698.047 1.86213 697.15 2.28238 696.489C4.44668 693.115 6.72656 689.82 8.91188 686.469C9.24808 685.953 9.30061 685.236 9.47922 684.608C8.82783 684.631 8.14491 684.541 7.51453 684.709C5.15061 685.314 2.79719 686.009 0.443773 686.67C0.391241 684.126 0.611874 681.537 0.22314 679.049C-0.669898 673.255 1.09517 669.769 6.632 667.976C10.7505 666.631 14.6168 664.299 18.4516 662.136C36.0392 652.184 46.0833 636.56 48.8675 615.612C49.0145 614.491 48.4787 613.258 48.2686 612.082C48.5312 612.317 48.8044 612.541 49.0671 612.776C49.1091 612.653 49.1511 612.53 49.1826 612.418C48.878 612.351 48.5733 612.272 48.2791 612.205C44.6019 615.298 41.3029 619.199 37.1844 621.317C26.0687 627.044 14.6273 632.043 3.28048 637.243C2.49251 637.602 1.43137 637.322 0.496304 637.333C0.769469 636.492 0.916558 635.573 1.34732 634.834C2.6396 632.626 4.05795 630.507 5.38175 628.322C5.74947 627.717 5.98061 627.011 6.28529 626.36C5.61289 626.349 4.79339 626.058 4.3101 626.36C0.580355 628.725 -0.0920501 626.82 0.254659 623.233C0.359722 622.124 0.275671 621.003 0.275671 619.882C0.275671 611.286 0.265166 611.219 8.43909 609.425C28.8739 604.953 44.5388 593.353 55.1187 574.109C55.644 573.145 56.2639 572.226 56.6421 571.206C56.8628 570.601 56.7052 569.839 56.7262 569.155C56.1063 569.222 55.4024 569.133 54.8666 569.402C48.7204 572.484 42.6057 575.633 36.47 578.76C36.2283 578.469 35.9972 578.178 35.7556 577.886C36.3649 576.16 36.9743 574.423 37.5837 572.697C35.9342 573.033 34.2216 573.19 32.6457 573.762C29.3467 574.938 26.1212 576.362 22.8433 577.628C22.4125 577.796 21.8767 577.684 21.3934 577.696C21.5615 577.247 21.6561 576.743 21.9082 576.351C22.9273 574.737 23.9885 573.145 25.0286 571.542C23.169 571.856 21.2778 572.069 19.4392 572.517C15.1947 573.571 10.9816 574.759 6.73706 575.835C6.09618 575.992 5.38175 575.824 4.69884 575.801C5.15061 575.151 5.56036 574.445 6.07517 573.851C6.42187 573.459 6.9577 573.257 7.36744 572.91C7.76669 572.585 8.11339 572.181 8.48112 571.811C7.87175 571.688 7.25188 571.464 6.632 571.464C5.9596 571.464 5.26618 571.8 4.60428 571.722C3.93187 571.632 3.312 571.206 2.66061 570.926C3.16491 570.646 3.65871 570.332 4.18403 570.097C22.5701 561.758 38.5712 549.664 52.9964 535.072C53.6899 534.366 54.1311 533.357 54.6775 532.494C53.6688 532.64 52.6497 532.696 51.6726 532.953C49.1301 533.626 46.6401 534.466 44.0871 535.072C42.8473 535.363 41.5235 535.251 40.2313 535.318C41.0507 534.422 41.7862 533.402 42.7002 532.64C45.1692 530.577 47.7538 528.65 50.2228 526.576C50.8216 526.072 51.1473 525.175 51.5991 524.469C50.9162 524.469 50.2228 524.525 49.5399 524.447C48.7729 524.357 48.0059 524.133 47.2495 523.976C47.7118 523.259 48.0269 522.34 48.6468 521.846C59.1532 513.609 64.0806 501.033 70.7101 489.769C70.9938 489.085 71.2669 488.391 71.5506 487.707C71.0253 488.077 70.5 488.435 69.9747 488.805C60.2353 496.438 49.4558 501.493 37.5416 503.79C37.363 503.51 37.1529 503.252 36.9323 503.017C39.6114 500.686 42.301 498.377 44.9381 496.001C45.3794 495.609 45.579 494.925 45.8942 494.376C45.3688 494.342 44.8435 494.23 44.3287 494.297C40.3468 494.858 36.3754 495.485 32.383 496.034C31.3639 496.169 30.3238 496.113 29.2942 496.135C30.0926 495.496 30.8176 494.678 31.7001 494.241C37.2264 491.484 42.7738 488.772 48.3421 486.115C52.9019 483.941 56.0853 480.545 57.4616 475.311C58.1025 472.879 58.4387 471.13 55.0767 472.296C53.2591 472.924 51.3469 473.237 49.4558 473.607C48.6258 473.764 47.7643 473.708 46.9133 473.753C47.2495 472.968 47.4806 472.083 47.9534 471.411C52.5867 464.888 57.2935 458.409 61.9163 451.875C63.1561 450.127 64.1647 448.199 65.2783 446.35C63.1245 446.563 60.9707 446.764 58.8275 446.988C56.1904 447.269 53.5533 447.56 50.9162 447.851C52.5867 446.002 54.2992 444.186 55.9172 442.281C63.1771 433.685 69.3968 424.326 73.9251 413.768C74.1037 413.443 74.2823 413.118 74.4714 412.793C74.1037 412.916 73.7254 413.04 73.3577 413.163C72.2335 413.656 71.0883 414.104 70.0062 414.665C65.7826 416.861 61.363 417.272 56.7472 415.898C56.4425 415.808 56.1588 415.651 55.8647 415.517C56.2219 414.945 56.4845 414.25 56.9573 413.824C61.2544 410.025 65.5935 406.304 69.8906 402.504C70.521 401.955 70.9518 401.148 71.4771 400.464C70.5735 400.33 69.6385 399.96 68.7769 400.094C61.7062 401.193 54.6564 402.426 47.5857 403.524C46.7242 403.658 45.7996 403.289 44.9066 403.154C45.579 402.639 46.1988 402.045 46.9133 401.607C53.2381 397.763 59.6259 394.031 65.8772 390.063C67.9785 388.73 67.8314 388.472 65.499 387.048C65.3624 386.97 65.1207 386.869 65.1313 386.779C65.4254 379.528 61.1599 385.535 59.3002 384.527C58.7539 384.224 58.029 384.28 57.3881 384.179C57.8714 383.753 58.3126 383.271 58.838 382.913C69.9432 375.336 78.1591 364.845 85.1983 353.189C85.6816 352.382 85.7552 351.295 86.0283 350.331C85.2719 350.656 84.5049 350.936 83.78 351.317C81.1429 352.674 78.5268 354.052 75.9107 355.419L75.7216 355.173C76.0053 354.321 76.2575 353.458 76.5937 352.64C76.9299 351.799 77.3606 351.004 77.7494 350.197C76.7513 350.096 75.7532 349.995 74.7551 349.905C73.904 349.827 73.0425 349.771 72.181 349.703C72.7799 349.065 73.4523 348.493 73.9566 347.787C80.1343 339.067 86.4066 330.415 92.4057 321.56C94.528 318.422 96.0409 314.802 97.7639 311.372C99.7286 307.449 99.7496 307.393 102.145 310.789C109.689 321.493 117.19 332.23 124.713 342.956C126.173 345.041 127.686 347.081 129.125 349.188C129.398 349.591 129.409 350.197 129.535 350.712C129.031 350.791 128.484 351.048 128.033 350.925C125.501 350.241 123.011 349.412 120.479 348.773C119.733 348.583 118.882 348.852 118.073 348.908C118.335 349.58 118.545 350.275 118.85 350.925C119.47 352.259 120.142 353.559 120.783 354.882C120.458 355.128 120.132 355.375 119.796 355.632C117.253 354.433 114.742 353.155 112.158 352.113C111.527 351.855 110.634 352.371 109.857 352.528C110.308 353.055 110.75 353.581 111.212 354.097C119.375 363.052 127.549 371.996 135.681 380.974C136.228 381.579 136.49 382.475 136.889 383.238L136.763 383.417C133.769 382.296 130.785 381.119 127.749 380.122C127.15 379.92 126.341 380.447 125.637 380.626C126.121 381.321 126.614 382.027 127.098 382.722C126.761 383.013 126.425 383.316 126.089 383.607C125.406 383.495 124.723 383.294 124.04 383.282C123.441 383.26 122.843 383.439 122.244 383.529C122.506 383.989 122.685 384.549 123.042 384.885C126.698 388.281 130.397 391.644 134.074 395.017C135.387 396.216 137.205 397.214 137.835 398.749C138.949 401.439 136.69 399.713 135.923 399.971C135.545 399.781 135.166 399.59 134.788 399.388C134.872 399.837 134.956 400.285 135.04 400.733C135.534 401.675 136.038 402.616 136.532 403.558C135.566 403.558 134.547 403.726 133.633 403.49C130.428 402.65 127.266 401.619 124.072 400.756C122.927 400.453 121.718 400.442 120.531 400.296C121.172 401.271 121.708 402.37 122.475 403.21C126.856 407.996 131.29 412.726 135.702 417.478C136.564 418.397 137.467 419.282 138.203 420.314C138.539 420.795 138.497 421.58 138.623 422.23C137.972 422.342 137.257 422.712 136.69 422.533C135.366 422.107 134.116 421.434 132.855 420.84C128.096 418.599 123.368 416.279 118.566 414.138C117.631 413.723 116.434 413.947 115.362 413.88C115.457 413.544 115.541 413.219 115.635 412.883C115.509 412.883 115.373 412.883 115.246 412.883C115.341 413.196 115.425 413.499 115.52 413.813C121.582 421.737 129.703 426.713 137.856 431.69C145.673 436.475 153.384 441.463 161.117 446.406C161.726 446.798 162.126 447.56 162.63 448.154C161.947 448.154 161.233 448.266 160.581 448.109C156.179 447.056 151.798 445.912 147.385 444.904C146.629 444.736 145.788 445.038 144.979 445.128C145.295 445.935 145.557 446.764 145.925 447.538C146.387 448.513 146.934 449.454 147.438 450.407C147.228 450.721 147.007 451.046 146.797 451.36C141.428 448.401 136.059 445.453 130.701 442.494C130.008 442.281 129.325 442.068 128.632 441.855C129.052 442.36 129.472 442.864 129.892 443.368C136.144 449.028 142.405 454.666 148.625 460.348C149.224 460.898 149.581 461.738 150.054 462.444C149.266 462.523 148.478 462.702 147.701 462.668C145.851 462.579 143.162 460.954 144.212 465.358C144.738 467.577 143.204 467.129 141.975 466.815C138.592 465.952 135.198 465.078 131.804 464.26C131.143 464.103 130.439 464.193 129.745 464.17C130.207 464.843 130.544 465.672 131.143 466.154C138.634 472.218 146.167 478.236 153.689 484.255C153.973 484.479 154.277 484.681 154.509 484.95C155.486 486.059 156.442 487.203 157.408 488.335C156.095 488.077 154.74 487.942 153.458 487.539C151.787 487.012 150.159 486.351 148.562 485.6C146.072 484.434 144.601 484.647 145.021 488.122C145.305 490.565 144.465 491.024 142.395 489.87C139.464 488.245 136.427 486.833 133.37 485.488C133.118 485.376 131.92 486.575 132.015 486.855C134.557 494.925 136.616 503.219 144.139 508.251C149.445 511.793 154.383 515.973 159.415 519.986C160.476 520.826 161.191 522.16 162.073 523.259C161.107 523.348 160.14 523.449 159.173 523.539C159.415 524.009 159.646 524.48 159.909 524.94C160.833 526.52 161.768 528.1 162.704 529.681C160.928 529.154 159.131 528.706 157.387 528.089C154.918 527.215 152.481 526.195 150.033 525.254C148.236 524.57 146.45 523.875 144.633 523.247C144.349 523.146 143.971 523.371 143.635 523.438C143.813 523.819 143.908 524.357 144.191 524.547C152.26 530.006 160.329 535.464 168.451 540.844C169.858 541.774 170.814 541.158 170.762 539.331C170.636 535.083 170.457 530.846 170.3 526.599C171.466 522.788 172.558 518.955 173.809 515.178C176.624 506.66 179.566 498.186 182.308 489.635C182.792 488.122 182.75 486.34 182.624 484.714C182.508 483.28 181.92 481.879 181.541 480.467C181.279 481.632 181.111 482.843 180.711 483.952C180.48 484.602 179.934 485.174 179.44 485.667C172.695 492.336 165.929 498.982 159.173 505.64C158.806 505.359 158.448 505.079 158.081 504.799C164.09 494.779 169.848 484.58 176.194 474.807C179.524 469.673 179.629 464.484 178.61 458.914C178.148 456.369 177.591 453.758 176.561 451.427C173.882 445.33 174.471 439.647 177.759 434.088C178.316 433.158 178.558 431.992 179.146 431.096C184.599 422.779 184.473 413.342 184.231 403.793C184.157 401.002 183.075 400.834 181.037 401.182C178.284 401.652 175.5 402.011 172.727 402.291C172.023 402.358 171.277 401.932 170.541 401.731C170.919 401.137 171.214 400.464 171.686 399.971C176.94 394.513 182.214 389.077 187.477 383.63C188.476 382.588 189.883 381.691 190.325 380.413C191.207 377.903 191.564 375.168 192.132 372.534C190.251 373.15 188.371 373.767 186.49 374.372C184.41 375.045 182.34 375.728 180.26 376.401C181.268 374.305 182.172 372.142 183.317 370.124C189.169 359.779 195.137 349.524 200.915 339.123C202.018 337.128 202.848 334.741 203.09 332.443C206.294 302.305 209.383 272.144 212.504 241.995C212.577 241.323 212.745 240.661 212.871 240C213.239 240.336 213.806 240.594 213.953 241.02C216.748 249.213 219.501 257.417 222.222 265.633C222.274 265.812 221.812 266.171 221.602 266.451L221.634 266.316C220.121 265.498 218.608 264.669 217.084 263.851C216.906 265.599 216.548 267.359 216.591 269.107C216.969 285.874 217.315 302.63 217.946 319.386C218.051 322.199 219.049 325.203 220.331 327.713C227.191 341.085 234.126 354.422 241.375 367.558C243.256 370.954 242.51 372.119 239.683 373.778C233.17 377.622 233.254 377.735 237.467 384.112C242.499 391.722 247.5 399.343 252.459 406.987C253.016 407.85 253.226 408.971 253.604 409.98C252.617 410.058 251.629 410.26 250.652 410.204C248.446 410.058 246.239 409.789 244.044 409.565C245.147 411.863 246.166 414.216 247.364 416.458C253.247 427.431 259.194 438.358 265.077 449.32C265.939 450.934 267.599 452.48 264.489 454.061C262.556 455.036 264.468 455.787 265.518 456.168C270.625 458.028 275.731 459.9 280.837 461.772C283.306 462.68 285.775 463.576 288.223 464.551C288.674 464.731 289.011 465.246 289.399 465.616C288.927 465.818 288.475 466.042 287.992 466.21C281.677 468.317 275.352 470.413 269.038 472.531C268.261 472.789 267.525 473.215 266.769 473.562C267.473 474.269 268.072 475.176 268.881 475.658C272.852 477.99 276.886 480.186 280.879 482.473C281.436 482.798 281.887 483.347 282.381 483.784C281.835 484.188 281.331 484.793 280.732 484.95C277.349 485.835 273.955 486.743 270.52 487.382C267.693 487.909 267.273 488.76 269.322 491.125C276.088 498.915 282.738 506.816 289.441 514.684C292.142 517.856 294.852 521.017 297.51 524.234C297.92 524.727 298.036 525.478 298.288 526.117C297.647 526.105 296.953 526.273 296.386 526.049C291.185 523.953 286.016 521.779 280.837 519.638C280.164 519.425 279.481 519.212 278.809 519.011C279.187 519.515 279.555 520.031 279.933 520.535C286.069 527.674 292.163 534.848 298.361 541.909C300.263 544.083 299.696 544.89 297.237 545.204C294.295 545.585 291.354 546.067 288.401 546.392C286.353 546.616 285.575 547.131 286.909 549.395C289.315 553.486 291.396 557.801 293.791 561.892C295.262 564.392 295.588 566.107 292.236 566.656C288.349 567.295 290.25 568.841 291.742 570.287C297.279 575.689 302.837 581.08 308.363 586.505C308.973 587.11 309.393 587.928 309.897 588.657C308.962 588.556 307.975 588.657 307.113 588.343C302.343 586.606 297.615 584.701 292.824 583.008C291.784 582.638 290.545 582.907 289.399 582.874C290.208 583.49 290.996 584.129 291.816 584.723C301.03 591.448 310.191 598.262 319.5 604.83C322.2 606.735 322.694 608.047 320.088 610.49C313.102 617.024 305.674 621.709 295.871 618.436C295.251 618.224 294.505 618.436 293.823 618.436C294.285 619.008 294.684 619.647 295.199 620.151C301.219 626.103 307.271 632.021 313.259 637.994C313.858 638.588 314.163 639.507 314.615 640.27C313.774 640.258 312.923 640.27 312.083 640.214C308.636 639.978 305.18 639.72 301.734 639.463C301.587 639.238 301.45 639.025 301.303 638.801C301.145 638.958 300.977 639.115 300.82 639.261C301.082 639.362 301.356 639.474 301.618 639.575C303.678 641.435 305.821 643.206 307.775 645.19C314.562 652.083 321.37 658.976 327.968 666.081C329.071 667.27 329.187 669.511 329.765 671.271L329.838 671.114C325.552 669.063 321.318 666.844 316.936 665.062C315.592 664.512 313.827 665.151 312.251 665.275C312.104 665.275 311.967 665.476 311.83 665.6C309.351 667.886 305.369 669.791 304.76 672.548C303.856 676.628 305.117 681.369 305.957 685.707C306.262 687.298 307.901 688.699 309.12 689.966C320.141 701.398 330.994 713.043 342.383 724.038C346.113 727.636 346.449 731.413 346.312 735.929C346.239 738.362 345.293 738.216 343.675 737.286C337.224 733.587 330.742 729.967 324.27 726.324C320.414 724.161 316.558 722.009 312.681 719.88C311.946 719.476 311.126 719.241 310.349 718.927C310.307 719.801 310.023 720.743 310.244 721.527C312.534 729.53 314.846 737.521 317.315 745.456C317.777 746.958 318.849 748.325 319.868 749.536C328.189 759.354 336.31 769.374 345.009 778.789C349.622 783.787 355.274 787.699 360.454 792.104C361.137 792.687 361.893 793.18 362.513 793.83C363.438 794.816 364.257 795.914 365.129 796.968C363.921 796.789 362.713 796.576 361.504 796.43C357.68 795.97 353.866 795.533 350.042 795.119C349.527 795.063 349.002 795.197 348.477 795.242C348.939 795.657 349.349 796.139 349.853 796.464C357.743 801.597 365.57 806.831 373.597 811.718C375.73 813.018 378.43 813.657 380.91 813.802C386.142 814.116 391.395 813.881 396.638 813.914C397.436 813.914 398.234 814.217 399.033 814.385C398.623 815.125 398.382 816.077 397.793 816.571C392.876 820.662 389.808 827.779 382.202 827.577C381.771 827.566 381.34 827.992 380.899 828.216C381.351 828.35 381.792 828.586 382.244 828.619C386.772 828.978 391.3 829.404 395.839 829.605C414.519 830.446 433.21 831.074 451.88 832.049C466.893 832.822 481.875 834.313 496.889 834.862C512.953 835.456 529.049 835.266 545.124 835.579C548.811 835.647 549.673 832.643 551.102 830.244C552.184 828.417 552.919 826.355 553.812 824.405C551.784 824.708 549.725 824.842 547.75 825.358C541.825 826.904 535.941 828.653 530.015 830.188C528.87 830.48 526.706 830.502 526.517 829.998C525.739 827.902 527.011 826.77 528.86 825.896C533.325 823.8 537.696 821.468 542.087 819.204C546.479 816.94 550.786 814.441 555.283 812.457C557.889 811.314 558.813 809.162 558.593 806.865C558.488 805.744 556.323 804.724 554.957 803.894C550.24 801.014 545.817 804.029 541.268 804.769C540.606 804.881 539.912 804.791 539.24 804.791C539.681 804.231 540.007 803.435 540.564 803.155C546.521 800.129 552.52 797.181 558.498 794.188C559.034 793.919 559.486 793.449 559.979 793.079C559.465 793.023 558.95 792.944 558.424 792.899C556.607 792.765 554.8 792.642 552.982 792.518C554.747 791.454 556.481 790.344 558.277 789.335C560.547 788.046 562.858 786.836 565.149 785.592C562.69 785.413 560.232 785.233 557.773 785.054C557.08 784.998 556.334 785.088 555.693 784.852C552.425 783.642 549.189 782.342 545.943 781.064C548.832 779.685 551.7 778.228 554.632 776.962C557.048 775.919 559.57 775.135 562.018 774.171C562.595 773.947 563.1 773.476 563.625 773.129C563.068 772.882 562.511 772.456 561.934 772.411C560.316 772.288 558.687 772.322 557.069 772.288C558.54 771.447 559.99 770.562 561.482 769.777C563.194 768.87 564.949 768.04 566.693 767.188C568.542 766.281 568.479 766.337 567.145 764.599C566.914 764.297 567.292 763.165 567.681 762.683C569.12 760.923 570.685 759.276 572.198 757.583C570.034 757.292 567.859 757.023 565.695 756.698C565.054 756.597 564.424 756.35 563.793 756.171C564.298 755.555 564.707 754.759 565.338 754.367C568.511 752.428 571.768 750.634 574.951 748.718C575.497 748.393 575.865 747.731 576.327 747.227C575.644 747.182 574.94 747.003 574.279 747.115C571.694 747.541 569.13 748.045 566.567 748.527C566.378 748.314 566.199 748.101 566.01 747.888C572.188 744.145 578.376 740.401 584.543 736.636C585.268 736.187 585.878 735.526 586.539 734.966C585.72 734.685 584.921 734.271 584.081 734.147C581.664 733.777 579.238 733.52 576.811 733.217C579.217 732.264 581.622 731.323 584.018 730.37C584.806 730.056 585.573 729.709 586.35 729.384C585.51 728.936 584.722 728.263 583.839 728.095C580.919 727.535 577.956 727.221 575.035 726.66C574.331 726.526 573.711 725.853 573.06 725.428C573.669 725.192 574.268 724.856 574.909 724.733C578.691 724.027 582.463 722.984 586.277 722.816C588.935 722.693 588.735 720.575 589.87 719.274C592.476 716.293 595.596 713.827 598.517 711.16C599.714 710.073 600.986 709.064 602.11 707.898C603.066 706.912 603.854 705.735 604.715 704.648C603.528 704.592 602.351 704.536 601.164 704.457C600.471 704.413 599.777 704.357 599.084 704.301C599.567 703.606 599.925 702.731 600.544 702.25C604.222 699.403 607.972 696.69 611.65 693.832C612.269 693.35 612.595 692.443 613.047 691.725C612.427 691.467 611.807 691.198 611.177 690.963C610.357 690.66 609.538 690.302 608.687 690.111C606.491 689.607 607.226 688.665 608.319 687.634C613.026 683.185 617.586 678.533 622.503 674.364C625.266 672.022 626.516 669.466 626.064 665.801C625.907 664.524 625.928 663.179 626.064 661.89C626.243 660.208 626.611 658.55 626.905 656.88C628.764 658.314 631.233 659.334 632.358 661.262C634.165 664.378 634.869 668.2 636.455 671.495C637.684 674.039 639.25 676.583 641.193 678.511C645.018 682.311 649.22 685.673 653.255 689.237C653.633 689.562 653.853 690.089 654.148 690.515C653.58 690.672 653.013 690.986 652.456 690.952C651.595 690.907 650.744 690.492 649.893 690.47C648.695 690.436 647.497 690.638 646.299 690.728C647.245 691.703 648.043 692.958 649.157 693.608C652.677 695.659 656.375 697.363 659.874 699.436C661.838 700.602 663.393 700.781 664.885 698.809C665.211 698.372 665.631 698.024 666.009 697.643C672.429 691.255 672.534 691.199 668.846 682.725C667.816 680.349 667.827 678.634 669.434 676.707C671.063 674.768 673.091 672.885 673.879 670.565C674.898 667.572 674.908 664.176 675.16 660.948C675.181 660.735 673.532 660.13 672.66 660.13C670.285 660.108 667.911 660.298 665.547 660.41C667.617 658.852 669.634 657.205 671.777 655.748C674.425 653.954 677.262 652.464 679.825 650.547C680.697 649.897 680.97 648.362 681.527 647.23C680.487 647.23 679.447 647.263 678.396 647.263C676.841 647.263 675.276 647.263 673.721 647.252C674.603 646.053 675.486 644.842 676.39 643.654C676.715 643.228 677.094 642.814 677.503 642.466C686.36 635.181 692.496 626.08 694.471 614.088C694.923 611.342 695.963 608.943 698.758 607.576C700.88 606.545 701.804 606.063 701.678 609.201C701.531 612.732 701.815 616.296 701.594 619.826C701.416 622.695 702.34 624.691 704.2 626.708C709.096 632.021 713.782 637.557 718.541 643.015C720.313 645.048 720.033 646.542 717.7 647.499C713.571 649.18 713.55 649.213 716.892 652.329C720.443 655.636 724.046 658.875 727.597 662.192C728.07 662.641 728.333 663.347 728.69 663.941C728.06 664.064 727.44 664.266 726.809 664.299C726.116 664.344 725.412 664.165 724.719 664.21C724.078 664.243 723.447 664.423 722.807 664.546C723.101 665.162 723.279 665.891 723.71 666.384C727.293 670.464 731.044 674.387 734.5 678.59C736.076 680.495 736.99 683.005 738.419 685.068C738.944 685.819 740.058 686.289 740.983 686.514C745.406 687.59 749.86 688.52 754.294 689.562C754.945 689.719 755.544 690.156 756.164 690.459C755.586 690.649 755.019 690.896 754.431 691.008C750.659 691.781 746.877 692.521 743.105 693.317C742.317 693.485 741.571 693.844 740.804 694.113C741.581 694.662 742.296 695.368 743.136 695.715C745.08 696.522 747.108 697.116 749.072 697.878C749.44 698.024 749.671 698.585 749.976 698.943C749.587 699.212 749.219 699.537 748.799 699.739C748.495 699.885 748.106 699.829 747.77 699.907C745.49 700.456 743.21 701.028 740.93 701.588C742.748 702.989 744.523 704.435 746.372 705.78C751.279 709.333 756.238 712.796 761.123 716.383C761.711 716.82 761.985 717.75 762.405 718.445C761.638 718.389 760.86 718.4 760.094 718.288C757.215 717.851 754.336 717.369 751.468 716.91C753.611 718.591 755.765 720.272 757.908 721.953C758.045 722.065 758.223 722.121 758.36 722.233C760.409 723.881 762.457 725.528 764.506 727.176C762.205 727.49 759.883 727.759 757.593 728.151C756.816 728.286 756.101 728.745 755.345 729.048C755.796 729.787 756.185 730.606 756.721 731.267C757.74 732.533 758.833 733.755 759.936 734.943C761.533 736.658 761.533 737.599 758.99 737.969C756.7 738.306 758.129 739.079 758.98 739.583C762.163 741.511 765.399 743.338 768.541 745.355C769.139 745.736 769.381 746.756 769.791 747.474C769.034 747.474 768.278 747.485 767.532 747.462C765.651 747.395 763.781 747.305 761.901 747.227C763.403 747.989 764.884 748.819 766.418 749.513C770.747 751.464 775.107 753.347 779.446 755.297C780.36 755.711 781.19 756.317 782.062 756.832C781.19 757.639 780.423 758.648 779.425 759.197C774.855 761.741 769.98 763.008 764.779 762.604C764.17 762.56 763.55 762.817 762.93 762.941C763.34 763.456 763.645 764.151 764.159 764.465C767.648 766.572 771.188 768.589 774.676 770.685C775.086 770.932 775.328 771.503 775.643 771.918C775.118 772.053 774.582 772.322 774.067 772.299C771.798 772.21 769.539 772.03 767.28 771.873C769.339 773.14 771.388 774.451 773.468 775.673C774.54 776.3 775.695 776.749 776.778 777.332C779.446 778.777 785.288 777.477 786.895 774.978C786.948 774.899 786.212 774.014 785.739 773.857C784.846 773.566 783.89 773.532 782.955 773.398C783.796 772.77 784.584 772.064 785.477 771.526C788.366 769.8 791.308 768.175 794.176 766.415C794.817 766.023 795.248 765.249 795.773 764.655C795.153 764.431 794.554 764.129 793.913 763.983C793.23 763.837 792.516 763.893 791.833 763.748C791.423 763.669 791.056 763.378 790.677 763.176C790.961 762.985 791.224 762.784 791.518 762.616C791.665 762.537 791.865 762.548 792.022 762.492C793.504 761.977 794.975 761.461 796.456 760.946C794.88 760.452 793.315 759.903 791.718 759.489C790.877 759.276 789.984 759.309 789.112 759.186C788.597 759.119 788.093 758.962 787.578 758.838C787.988 758.536 788.377 758.2 788.818 757.942C789.122 757.763 789.48 757.561 789.805 757.572C798.515 757.908 802.234 749.794 808.086 745.31C809.599 744.145 808.864 743.685 807.361 743.719C806.794 743.73 806.227 743.327 805.649 743.114C806.017 742.721 806.342 742.284 806.752 741.959C808.864 740.312 811.007 738.709 813.129 737.073C814.59 735.952 815.262 735.01 812.709 734.551C810.545 734.17 810.503 733.15 812.142 731.76C813.644 730.471 815.052 729.07 816.534 727.77C820.747 724.083 824.981 720.53 823.489 713.547C822.911 710.846 824.813 711.496 825.905 712.393C826.945 713.245 828.112 714.477 828.374 715.744C829.793 722.57 833.879 727.142 838.996 730.998C840.204 731.917 841.108 733.284 842.158 734.45C840.803 734.528 839.448 734.596 838.082 734.674C837.956 734.45 837.83 734.226 837.704 734.002C837.63 734.147 837.567 734.282 837.494 734.428C837.714 734.472 837.945 734.517 838.166 734.562C838.691 738.339 842.39 737.431 844.26 739.225C844.859 739.796 845.52 740.312 846.151 740.85C845.415 741.074 844.69 741.377 843.945 741.5C841.381 741.926 840.362 744.347 841.896 746.88C842.631 748.101 843.745 749.11 844.785 750.085C846.266 751.486 846.949 752.82 845.478 754.781C843.209 757.807 844.144 760.038 847.002 762.089C848.672 763.288 849.912 765.182 851.341 766.762C849.45 766.045 847.538 765.362 845.657 764.611C845.006 764.353 844.428 763.904 843.797 763.613C843.43 763.445 843.009 763.423 842.61 763.333C842.558 763.871 842.295 764.521 842.484 764.924C843.209 766.393 843.924 767.928 844.943 769.15C846.897 771.492 848.83 773.487 848.82 777.186C848.82 778.71 851.404 780.291 852.885 781.77C853.768 782.655 854.84 783.339 855.722 784.224C856.111 784.617 856.247 785.289 856.5 785.827C855.995 785.838 855.428 786.029 854.987 785.85C853.526 785.256 852.16 784.415 850.679 783.899C849.502 783.496 848.21 783.451 846.97 783.249C847.433 785.031 847.349 787.531 848.452 788.484C851.677 791.274 855.491 793.269 858.811 795.948C860.471 797.293 861.564 799.434 862.919 801.216C862.646 801.429 862.394 801.664 862.152 801.933L861.942 802.045ZM1241.16 496.472C1240.6 496.595 1240.04 496.718 1239.49 496.841C1239.3 497.379 1239.11 497.917 1238.92 498.455C1239.34 498.198 1239.76 497.94 1240.17 497.682C1240.45 497.245 1240.75 496.808 1241.03 496.371C1241.28 496.124 1241.55 495.878 1241.8 495.62C1241.66 495.564 1241.51 495.496 1241.38 495.44C1241.3 495.788 1241.23 496.124 1241.16 496.472ZM1493.54 623.547C1494.02 623.693 1494.51 623.827 1495 623.973C1494.76 623.525 1494.53 623.065 1494.3 622.617C1493.6 622.438 1492.9 622.247 1492.21 622.068C1492.66 622.561 1493.1 623.054 1493.55 623.547H1493.54ZM855.417 808.96C855.764 809.263 856.111 809.566 856.458 809.857C856.626 809.622 856.804 809.386 856.972 809.14C856.605 808.927 856.226 808.714 855.859 808.512C855.386 808.288 854.924 808.053 854.451 807.828C854.766 808.21 855.092 808.579 855.407 808.96H855.417ZM658.403 706.822C658.96 705.702 659.621 704.626 660.031 703.46C660.241 702.844 660.031 701.443 660.01 701.443C657.468 701.431 653.717 700.479 652.677 701.857C651.3 703.662 651.08 707.495 653.801 709.792C654.337 710.241 654.789 710.79 655.272 711.294C659.201 714.836 660.378 718.557 656.711 723.332C655.997 724.251 656.669 726.795 657.3 728.308C657.657 729.16 659.916 730.124 660.157 729.855C661.859 727.949 664.601 725.663 664.496 723.634C664.234 718.266 666.419 714.556 669.235 710.633C671.21 707.887 672.481 704.536 673.889 701.364C674.204 700.669 673.774 699.604 673.689 698.708C673.017 699.033 672.324 699.335 671.662 699.694C667.239 702.07 662.826 704.458 658.403 706.845V706.822ZM168.556 565.49C166.864 563.338 165.162 562.598 163.103 565.109C162.084 566.353 160.76 567.328 159.573 568.415C152.775 574.658 152.733 574.681 157.23 583.277C158.732 586.158 160.487 588.881 162.136 591.672C164.143 589.184 165.982 586.494 168.198 584.241C173.798 578.581 174.954 571.542 173.914 563.91C173.683 562.184 172.159 560.626 171.077 559.113C170.941 558.911 169.407 559.415 169.407 559.584C169.407 561.108 169.627 562.621 169.774 564.145C169.365 564.593 168.965 565.042 168.556 565.49ZM1210.77 725.685C1208.01 725.517 1205.25 725.338 1202.49 725.192C1201.75 725.147 1201 725.192 1200.26 725.192C1200.98 725.618 1201.67 726.167 1202.45 726.459C1205.04 727.445 1207.77 728.106 1210.24 729.339C1213.65 731.043 1216.16 730.258 1218.21 727.064C1222.87 722.065 1225.97 716.282 1226.34 709.086C1226.56 705.007 1226.84 700.938 1227.03 696.859C1227.06 696.085 1226.78 695.301 1226.66 694.516C1226.12 694.942 1225.51 695.289 1225.07 695.816C1220.64 701.05 1216.26 706.329 1211.78 711.519C1210.99 712.438 1209.08 716.047 1209.45 710.902C1209.46 710.745 1208.6 710.252 1208.43 710.375C1206.55 711.709 1204.61 712.998 1202.98 714.634C1202.59 715.027 1203.41 716.641 1203.43 717.705C1203.43 718.131 1202.83 718.882 1202.42 718.949C1199.42 719.465 1201.33 720.149 1202.35 720.754C1205.15 722.413 1207.97 724.049 1210.78 725.697L1210.77 725.685ZM1328.57 667.998C1328.18 667.684 1327.78 667.37 1327.39 667.057C1328.16 665.824 1328.72 664.322 1329.74 663.403C1332.25 661.139 1332.31 659.525 1329.1 658.157C1327.07 657.294 1325.08 656.331 1323.08 655.411C1323.79 657.563 1324.52 659.704 1325.2 661.867C1325.44 662.663 1325.51 663.515 1325.67 664.333C1324.88 664.165 1324.02 664.154 1323.32 663.795C1313.68 658.92 1304.21 653.764 1296.69 645.38C1296.18 644.809 1295.31 644.607 1294.6 644.237C1294.55 644.966 1294.38 645.717 1294.46 646.434C1296.22 661.946 1301.32 675.72 1313.56 685.269C1318.75 689.316 1324.51 692.532 1329.94 696.264C1331.71 697.486 1332.92 697.307 1334.5 695.85C1339.12 691.58 1343.91 687.522 1348.57 683.297C1350.63 681.425 1353.03 670.755 1351.49 669.309C1349.04 666.989 1346.28 664.781 1343.29 663.459C1341.73 662.775 1339.34 663.93 1337.43 664.568C1334.44 665.566 1331.53 666.844 1328.59 667.998H1328.57ZM1292.44 696.399C1292.16 696.545 1291.88 696.702 1291.6 696.847C1295.39 705.78 1298.78 714.937 1303.08 723.589C1307.6 732.69 1314.4 739.628 1323.63 743.394C1324.68 743.82 1326.42 744.481 1326.91 743.988C1331.24 739.706 1336.17 735.739 1339.31 730.572C1342.26 725.719 1343.31 719.543 1345.02 713.895C1345.25 713.121 1344.67 711.608 1344 711.104C1342.97 710.319 1341.44 709.4 1340.79 711.866C1340.65 712.37 1340.12 713.032 1339.66 713.132C1337.76 713.547 1335.67 713.39 1333.93 714.164C1328.15 716.73 1322.52 719.644 1316.79 722.345C1315.13 723.13 1313.34 723.612 1311.6 724.228C1311.52 722.009 1311.33 719.779 1311.41 717.571C1311.44 716.775 1312.26 716.047 1312.47 715.217C1312.65 714.522 1312.76 713.39 1312.4 713.032C1306.33 707.136 1300.18 701.33 1294.04 695.525C1293.67 695.177 1293.14 695.032 1292.69 694.785C1292.6 695.323 1292.51 695.861 1292.42 696.399H1292.44ZM143.918 553.24C143.74 560.054 147.963 564.963 150.579 570.556C150.716 570.848 152.46 570.847 152.712 570.444C155.255 566.454 157.766 562.419 160.014 558.239C161.39 555.694 158.827 554.91 157.629 553.587C157.146 554.574 156.61 555.549 156.2 556.569C155.927 557.241 155.717 557.992 155.685 558.721C155.58 561.287 154.834 561.713 153.122 559.752C150.39 556.613 147.637 553.498 144.853 550.404C144.517 550.023 143.96 549.877 143.498 549.62C143.466 550.113 143.361 550.606 143.424 551.077C143.519 551.805 143.74 552.523 143.897 553.24H143.918ZM768.677 788.551C768.751 794.087 770.117 795.152 774.34 793.662C776.231 793 776.126 792.855 778.311 789.19C778.921 788.181 780.696 788.002 781.873 787.318C782.43 786.993 782.808 786.343 783.27 785.838C782.703 785.547 782.115 785.289 781.558 784.964C777.313 782.521 773.542 784.236 769.927 786.601C769.213 787.071 768.887 788.226 768.688 788.562L768.677 788.551ZM660.819 736.075C659.18 737.084 657.373 737.711 656.428 739.034C656.07 739.538 657.499 741.802 658.424 743.002C661.523 747.025 664.055 746.936 666.671 742.654C667.176 741.836 667.228 739.729 666.724 739.359C664.948 738.014 662.857 737.162 660.819 736.086V736.075ZM1232.65 749.323C1232.62 748.807 1232.59 748.281 1232.56 747.765C1231.08 747.249 1229.43 746.039 1228.15 746.386C1226.62 746.801 1225.32 748.46 1224.06 749.726C1223.29 750.511 1222.76 751.565 1222.12 752.495C1223.32 753.235 1224.97 754.916 1225.62 754.546C1228.13 753.156 1230.33 751.116 1232.64 749.312L1232.65 749.323ZM1222.12 757.74C1221.66 757.426 1221.22 756.888 1220.93 756.978C1217.9 757.886 1214.86 758.816 1211.92 760.015C1211.71 760.105 1212.18 762.324 1212.55 763.467C1212.6 763.613 1214.09 763.501 1214.7 763.12C1216.77 761.797 1218.76 760.318 1220.75 758.872C1221.18 758.57 1221.57 758.2 1222.12 757.74ZM1312.38 758.67C1312.15 758.267 1312.09 758.043 1311.96 757.964C1309.36 756.541 1306.76 755.117 1304.13 753.75C1303.93 753.649 1303.52 753.985 1303.22 754.12C1304.83 756.283 1306.43 758.446 1308.05 760.609C1308.16 760.755 1308.33 761.002 1308.42 760.968C1309.33 760.699 1310.29 760.486 1311.12 760.038C1311.64 759.758 1312 759.096 1312.38 758.659V758.67ZM1241.37 514.628C1241.3 514.741 1241.17 514.886 1241.2 514.965C1241.26 515.11 1241.41 515.211 1241.51 515.335C1241.58 515.11 1241.65 514.875 1241.71 514.651C1241.6 514.651 1241.48 514.651 1241.37 514.628ZM1364.48 595.09C1364.3 595.202 1364.09 595.337 1363.89 595.46C1364 595.572 1364.13 595.808 1364.21 595.785C1364.43 595.729 1364.64 595.572 1364.85 595.449C1364.73 595.337 1364.63 595.225 1364.49 595.09H1364.48Z" fill="#101E24"/>
</svg>
