<svg width="1440" height="663" viewBox="0 0 1440 663" fill="none" xmlns="http://www.w3.org/2000/svg">
<path d="M820.402 501.47C817.742 500.75 817.522 502.14 817.432 504.35C817.382 505.69 820.222 508.19 816.302 508.53C816.482 509.22 816.452 510.11 816.882 510.55C818.992 512.66 822.202 514.27 823.212 516.78C824.902 520.99 827.802 520.23 830.862 520.19C839.832 520.09 848.812 520.19 857.782 519.88C860.832 519.77 863.862 518.74 866.862 518.01C870.052 517.23 873.172 515.67 876.362 515.55C898.812 514.74 921.282 513.36 943.712 513.86C962.122 514.27 980.472 517.02 998.842 518.77C1001.82 519.05 1004.78 519.49 1007.73 519.96C1011.26 520.53 1014.56 520.44 1017.77 518.39C1020.27 516.79 1023.11 515.74 1025.79 514.42C1026.53 514.06 1027.65 513.75 1027.85 513.17C1028.43 511.48 1028.63 509.67 1028.98 507.9C1027.7 507.76 1026.42 507.52 1025.13 507.49C1020.8 507.41 1016.48 507.43 1012.15 507.35C1011.4 507.34 1010.66 507.02 1009.92 506.84C1010.47 506.34 1010.94 505.67 1011.58 505.37C1018.22 502.36 1024.89 499.43 1031.52 496.43C1032.36 496.05 1033.05 495.35 1033.81 494.79C1032.93 494.59 1032.01 494.1 1031.19 494.24C1027.78 494.82 1024.41 495.64 1021 496.27C1020.23 496.41 1019.39 496.13 1018.58 496.05C1019.24 495.64 1019.87 495.18 1020.57 494.84C1023.86 493.26 1027.18 491.74 1030.45 490.14C1031.13 489.81 1031.67 489.2 1032.28 488.72C1031.4 488.33 1030.46 487.52 1029.65 487.64C1026.2 488.13 1022.81 489.04 1019.36 489.5C1015.92 489.96 1012.43 490.1 1008.96 490.31C1008.43 490.34 1007.87 490 1007.32 489.83C1007.79 489.43 1008.2 488.92 1008.74 488.64C1014.94 485.45 1021.17 482.32 1027.35 479.09C1028.72 478.37 1031.35 478.06 1029.07 475.35C1028.75 474.98 1029.7 473.07 1030.48 472.31C1034.9 468.03 1039.47 463.91 1043.93 459.67C1044.54 459.09 1044.81 458.16 1045.24 457.4C1044.3 457.52 1043.28 457.46 1042.44 457.81C1041.09 458.37 1039.86 459.22 1038.59 459.94C1038.63 458.15 1038.65 456.36 1038.72 454.57C1038.74 454.08 1039 453.59 1038.98 453.1C1038.91 451.56 1038.76 450.03 1038.63 448.5C1037.3 449.34 1035.98 450.18 1034.65 451.02V451.07C1033.37 447.4 1034.93 444.77 1037.89 442.82C1043.29 439.25 1048.81 435.86 1054.18 432.24C1055.28 431.5 1056.34 430.2 1056.69 428.96C1057.05 427.63 1056.54 426.06 1056.42 424.6C1055.06 424.88 1053.63 424.98 1052.35 425.47C1049.1 426.69 1045.92 428.13 1042.68 429.38C1042.13 429.59 1041.39 429.28 1040.73 429.21C1041.16 428.82 1041.56 428.41 1042.01 428.05C1044.75 425.9 1047.43 423.64 1050.29 421.64C1053.03 419.73 1054.9 417.7 1054.49 413.95C1054.35 412.65 1055.67 411.09 1056.55 409.81C1058.52 406.96 1060.72 404.26 1062.64 401.38C1063.08 400.73 1062.75 399.56 1062.77 398.63C1062.06 398.94 1061.34 399.22 1060.65 399.55C1057.35 401.1 1054.08 402.74 1050.73 404.18C1049.9 404.54 1048.8 404.28 1047.83 404.3C1048.42 403.68 1048.94 402.97 1049.6 402.45C1052.34 400.28 1055.01 398.02 1057.91 396.08C1060.89 394.09 1061.49 391.72 1059.32 389.02C1056.67 385.71 1057.3 383.32 1060.46 380.76C1062.87 378.8 1065.1 376.5 1064.42 372.73C1064.15 371.23 1064.11 370.11 1062.21 370.42C1061.88 370.47 1061.54 370.46 1061.21 370.44C1059.38 370.3 1057.54 370.16 1055.71 370.01C1057.4 369.08 1059.07 368.1 1060.78 367.22C1063.44 365.86 1066.17 364.65 1068.77 363.2C1069.38 362.86 1069.61 361.85 1070.01 361.14C1069.32 360.97 1068.61 360.62 1067.94 360.67C1066.15 360.82 1064.37 361.14 1062.58 361.4C1063.9 360.03 1065.21 358.63 1066.57 357.3C1067.16 356.72 1067.83 356.2 1068.52 355.76C1075.66 351.21 1080.42 344.94 1082.43 336.65C1082.66 335.69 1082.9 334.46 1083.59 333.95C1085.12 332.82 1086.94 332.07 1088.64 331.16C1088.87 332.51 1089.49 333.93 1089.26 335.19C1088.1 341.52 1090.77 345.87 1095.72 349.5C1099.33 352.14 1102.52 355.33 1105.95 358.23C1107.65 359.67 1107.52 360.5 1105.28 360.92C1104.8 361.01 1104.33 361.21 1103.87 361.4C1103.15 361.7 1102.46 362.04 1101.75 362.37C1102.37 363.06 1102.9 363.88 1103.63 364.43C1106.7 366.7 1109.85 368.87 1112.93 371.12C1113.69 371.68 1114.34 372.39 1115.03 373.03C1114.16 373.18 1113.29 373.35 1112.42 373.47C1112.1 373.51 1111.75 373.37 1111.43 373.42C1110.85 373.52 1110.27 373.7 1109.7 373.84C1110.04 374.37 1110.28 375.02 1110.74 375.42C1114.36 378.59 1118.85 381.16 1121.48 385C1125.16 390.39 1130.52 390.14 1135.61 391.3C1136.42 391.48 1137.28 391.45 1138.08 391.65C1138.65 391.8 1139.16 392.19 1139.7 392.47C1139.05 392.77 1138.43 393.24 1137.75 393.35C1134.96 393.81 1132.15 394.12 1129.37 394.58C1128.63 394.7 1127.95 395.19 1127.24 395.51C1127.84 395.87 1128.4 396.36 1129.05 396.57C1137.54 399.29 1137.34 399 1144.62 393.78C1153.21 387.61 1158.28 379.53 1159.97 369.2C1160.16 368.05 1160.44 366.89 1160.37 365.74C1160.31 364.69 1159.85 363.66 1159.56 362.62C1158.71 363.04 1157.78 363.35 1157.03 363.91C1152.91 367 1148.84 370.14 1144.75 373.27C1144.51 372.93 1144.28 372.6 1144.04 372.26C1145.01 370.51 1145.99 368.76 1146.96 367.01C1147.02 366.6 1147.09 366.18 1147.15 365.77C1146.78 365.94 1146.42 366.1 1146.05 366.27C1142.77 367.66 1139.49 369.05 1136.21 370.44L1136.32 370.53C1136.62 369.8 1136.94 369.08 1137.22 368.35C1137.43 367.82 1137.59 367.27 1137.77 366.73C1137.15 366.71 1136.45 366.51 1135.91 366.71C1134.4 367.29 1132.95 368.04 1131.48 368.72C1131.19 368.43 1130.9 368.15 1130.61 367.86C1139.82 360.82 1149.12 353.89 1158.18 346.67C1160.26 345.02 1161.98 342.59 1163.12 340.16C1165.95 334.19 1168.34 328.02 1170.91 321.93C1171.29 321.02 1171.81 320.12 1171.97 319.16C1172.4 316.56 1172.68 313.94 1173.02 311.32C1171.5 313.14 1169.98 314.96 1168.47 316.79C1168.26 317.04 1168.15 317.39 1167.91 317.61C1167.34 318.16 1166.73 318.66 1166.13 319.17C1165.85 318.49 1165.49 317.83 1165.31 317.13C1165.07 316.2 1164.96 315.24 1164.79 314.3C1163.97 315.02 1163.02 315.65 1162.36 316.49C1161.13 318.05 1160.14 319.79 1158.9 321.34C1158.45 321.9 1157.59 322.13 1156.92 322.51C1157.02 321.83 1157.09 321.15 1157.23 320.48C1157.4 319.67 1157.64 318.88 1157.85 318.08C1157.91 317.67 1157.96 317.27 1158.02 316.86C1157.66 317 1157.31 317.14 1156.95 317.29C1153.97 320.6 1150.99 323.93 1147.98 327.21C1147.57 327.66 1146.95 327.93 1146.43 328.29C1146.36 327.68 1146.17 327.05 1146.23 326.45C1146.4 324.83 1146.68 323.23 1146.92 321.62C1145.19 322.38 1143.39 323.01 1141.75 323.93C1138.13 325.95 1134.61 328.14 1131.02 330.2C1130.04 330.76 1128.96 331.18 1127.88 331.53C1127.5 331.65 1126.99 331.35 1126.54 331.24C1126.72 330.98 1126.87 330.7 1127.09 330.48C1129.31 328.27 1131.55 326.06 1133.78 323.86C1133.71 323.58 1133.64 323.31 1133.58 323.03C1133.49 323.06 1133.39 323.09 1133.3 323.11C1133.49 323.36 1133.69 323.62 1133.88 323.87C1132.64 323.77 1131.4 323.68 1130.16 323.56C1129.3 323.48 1128.45 323.36 1127.59 323.26C1128.31 322.69 1128.98 322.03 1129.77 321.58C1143.53 313.71 1157.11 305.57 1169.05 295.02C1170.03 294.15 1170.91 293.16 1171.84 292.23C1172.18 291.79 1172.52 291.35 1172.86 290.92C1172.26 291.09 1171.67 291.27 1171.07 291.44C1168.37 292.66 1165.68 293.92 1162.95 295.09C1162.44 295.31 1161.78 295.19 1161.19 295.22C1161.45 293.98 1162.22 292.56 1161.86 291.53C1161.34 290.02 1161.01 290.14 1161.86 289.32C1166.24 285.03 1171.26 281.19 1174.8 276.28C1177.57 272.43 1178.53 267.27 1180.2 262.67C1180.25 262.54 1179.12 261.67 1178.87 261.8C1177.4 262.54 1176.01 263.45 1174.61 264.34C1173.05 265.32 1172.16 265.16 1172.32 263.08C1172.49 260.85 1171.67 260.41 1169.83 261.64C1169.28 262 1168.68 262.35 1168.06 262.52C1166.89 262.84 1165.67 263.04 1164.48 263.28C1165.21 262.4 1165.89 261.46 1166.69 260.65C1170.91 256.42 1175.18 252.23 1179.38 247.98C1179.9 247.45 1180.13 246.64 1180.49 245.95C1179.73 245.87 1178.95 245.62 1178.23 245.74C1177.1 245.93 1176.01 246.4 1174.89 246.68C1173.62 246.98 1172.54 247.03 1172.92 245.11C1173 244.68 1172.5 243.69 1172.28 243.7C1165.58 243.84 1171.07 241.15 1171.67 240.36C1173.77 237.59 1176.22 235.09 1178.45 232.41C1178.73 232.08 1178.48 231.31 1178.48 230.74C1178.04 230.79 1177.51 230.7 1177.18 230.92C1175.53 232.02 1173.95 233.23 1172.29 234.34C1171.94 234.58 1171.38 234.52 1170.92 234.6C1171.01 234.09 1171.05 233.56 1171.2 233.07C1171.53 232.05 1171.92 231.04 1172.29 230.03C1171.19 230.22 1170.08 230.37 1169 230.62C1166.91 231.1 1164.83 231.64 1162.75 232.15C1162.59 232 1162.43 231.86 1162.26 231.72C1169.07 226.2 1175.94 220.76 1182.64 215.11C1184.89 213.21 1186.72 210.8 1188.67 208.56C1189.05 208.13 1189.12 207.44 1189.33 206.86C1188.61 206.97 1187.78 206.88 1187.18 207.21C1184.13 208.9 1181.18 210.76 1178.12 212.42C1177.49 212.76 1176.54 212.53 1175.74 212.57C1176.09 211.95 1176.37 211.29 1176.79 210.72C1179.93 206.44 1183.11 202.18 1186.24 197.89C1186.62 197.38 1186.82 196.74 1187.11 196.15C1186.35 196.15 1185.54 195.97 1184.84 196.17C1183.41 196.58 1182.06 197.26 1180.64 197.7C1179.61 198.02 1178.51 198.12 1177.45 198.32C1177.82 197.41 1178.21 196.51 1178.5 195.58C1178.52 195.5 1177.84 195.21 1177.49 195.02C1177.29 194.82 1177.1 194.63 1176.9 194.43C1179.29 191.6 1181.73 188.8 1184.05 185.91C1184.81 184.96 1185.28 183.79 1185.89 182.71C1184.84 182.64 1183.78 182.57 1182.73 182.5L1182.84 182.54C1183.08 182.06 1183.31 181.58 1183.55 181.09C1183.7 180.73 1183.85 180.36 1184.01 180C1183.6 180.07 1183.18 180.13 1182.77 180.2C1181.09 180.66 1179.4 181.12 1177.72 181.57C1178.56 180.27 1179.35 178.94 1180.26 177.69C1184.26 172.2 1188.31 166.74 1192.29 161.23C1192.78 160.54 1192.91 159.6 1193.21 158.77C1192.36 159.1 1191.5 159.39 1190.67 159.77C1190.22 159.97 1189.87 160.38 1189.42 160.57C1188.78 160.83 1188.09 160.96 1187.42 161.15C1187.56 160.54 1187.67 159.91 1187.85 159.31C1188.18 158.23 1188.55 157.17 1188.91 156.11C1187.68 156.32 1186.46 156.6 1185.22 156.73C1184.22 156.84 1183.2 156.77 1182.18 156.77L1182.3 156.85C1186.15 149.73 1189.99 142.6 1193.86 135.49C1195.36 132.72 1196.9 129.97 1198.5 127.26C1198.98 126.45 1199.75 125.81 1200.39 125.09C1200.86 125.87 1201.4 126.61 1201.79 127.43C1205.08 134.3 1208.27 141.23 1211.64 148.05C1212.66 150.12 1214.35 151.85 1215.39 153.91C1215.75 154.62 1220.76 157.1 1214.82 156.9C1214.68 156.9 1214.35 157.66 1214.4 158.04C1214.52 158.95 1214.8 159.85 1215.02 160.75C1213.93 160.14 1212.84 159.53 1211.75 158.92C1211.04 158.52 1210.34 158.12 1209.63 157.72C1209.75 158.62 1209.63 159.63 1210.02 160.39C1213.65 167.71 1217.9 174.61 1223.79 180.4C1224.32 180.92 1224.4 181.91 1224.68 182.69C1223.87 182.73 1223.05 182.78 1222.24 182.82C1222.06 182.64 1221.88 182.46 1221.7 182.28C1221.68 182.42 1221.67 182.56 1221.65 182.7C1221.87 182.7 1222.09 182.7 1222.31 182.7C1222.29 183.45 1222.5 184.75 1222.22 184.87C1217.78 186.73 1221.6 188.07 1222.66 188.93C1226 191.63 1229.6 194 1233.06 196.55C1233.53 196.89 1233.79 197.51 1234.14 198C1233.48 198.1 1232.79 198.37 1232.16 198.27C1227.49 197.5 1222.84 196.66 1218.18 195.84C1218.13 195.6 1218.07 195.37 1218.02 195.13C1217.87 195.19 1217.73 195.26 1217.58 195.32C1217.81 195.47 1218.04 195.61 1218.27 195.76C1220.82 198.82 1223.37 201.88 1225.92 204.95C1226.53 205.69 1227.13 206.44 1227.74 207.18C1226.74 207.39 1225.72 207.52 1224.75 207.83C1224.2 208 1223.73 208.46 1223.23 208.78L1223.33 208.7C1221.76 207.99 1220.2 207.26 1218.62 206.56C1217.96 206.27 1217.26 206.06 1216.58 205.82C1216.74 206.58 1216.73 207.44 1217.1 208.09C1221.36 215.75 1225.67 223.37 1229.96 231.01C1230.23 231.5 1230.44 232.02 1230.68 232.53C1230.19 232.54 1229.7 232.57 1229.22 232.56C1229.06 232.56 1228.9 232.48 1228.73 232.45C1226.37 232.02 1224.01 231.58 1221.65 231.15C1222.78 233.18 1223.89 235.21 1225.03 237.23C1227.47 241.56 1229.94 245.89 1232.37 250.23C1232.69 250.79 1232.89 251.42 1233.14 252.02C1232.54 252.04 1231.93 252.15 1231.35 252.07C1229.79 251.85 1228.23 251.55 1226.68 251.28C1227.09 253.16 1227.09 255.28 1228.02 256.87C1229.14 258.79 1230.83 260.54 1232.64 261.85C1235.86 264.17 1239.38 266.09 1242.75 268.21C1243.14 268.46 1243.44 268.85 1243.78 269.18C1243.24 269.29 1242.69 269.55 1242.18 269.48C1240.04 269.2 1237.92 268.8 1235.78 268.52C1235.37 268.47 1234.92 268.72 1234.49 268.83C1234.7 269.25 1234.83 269.73 1235.13 270.06C1236.35 271.42 1237.62 272.73 1238.87 274.05C1238.59 274.33 1238.32 274.6 1238.04 274.88C1230.81 273.74 1225.3 269.47 1219.89 264.99C1219.44 264.64 1218.99 264.29 1218.55 263.93C1218.73 264.57 1218.9 265.2 1219.08 265.84C1222.73 273.93 1225.45 282.52 1231.86 289.11C1232.52 289.79 1232.71 290.91 1233.12 291.82L1233.2 291.69C1232.39 291.69 1231.59 291.69 1230.78 291.69C1231.09 292.31 1231.34 292.96 1231.72 293.53C1231.99 293.94 1232.49 294.19 1232.75 294.6C1233.65 296.07 1234.48 297.57 1235.34 299.06C1233.86 298.74 1232.39 298.39 1230.91 298.12C1230.14 297.98 1229.35 297.98 1228.57 297.92C1228.97 298.61 1229.29 299.38 1229.79 299.99C1237.97 310.08 1247.06 319.17 1258.37 325.81C1259.25 326.32 1261.47 326.71 1258.35 327.84C1256.2 328.62 1259.68 329.36 1259.24 330.57L1259.35 330.48C1256.49 329.86 1253.62 329.25 1250.76 328.62C1249.51 328.35 1248.26 328.04 1247.01 327.75C1247.44 329 1247.88 330.25 1248.31 331.5C1248.16 331.64 1248 331.78 1247.85 331.92C1245.94 331.08 1244.06 330.17 1242.11 329.42C1241.11 329.03 1240.01 328.92 1238.96 328.68C1239.25 329.8 1239.55 330.91 1239.84 332.03C1239.62 332.2 1239.42 332.38 1239.24 332.59C1235.84 330.6 1232.44 328.59 1229.02 326.62C1228.52 326.33 1227.92 326.21 1227.36 326C1227.36 326.62 1227.18 327.31 1227.4 327.84C1232.78 341.09 1241.08 351.5 1255.09 356.44C1260.69 358.41 1266.25 360.52 1271.78 362.69C1272.7 363.05 1273.38 364.03 1274.18 364.72C1273.16 364.97 1272.14 365.3 1271.11 365.44C1270.67 365.5 1270.18 365.16 1269.71 365.01C1269.31 364.97 1268.92 364.93 1268.52 364.89C1268.69 365.17 1268.86 365.45 1269.03 365.72C1269.98 366.85 1270.78 368.16 1271.92 369.03C1272.59 369.54 1274.1 369.8 1274.73 369.39C1279.47 366.34 1284.09 363.11 1288.74 359.9C1289.1 359.65 1289.34 359.22 1289.64 358.87C1289.22 358.76 1288.79 358.53 1288.39 358.56C1285.41 358.84 1282.44 359.19 1279.46 359.45C1278.9 359.5 1278.31 359.23 1277.73 359.11C1278.08 358.6 1278.34 357.98 1278.81 357.61C1283.6 353.75 1288.43 349.95 1293.21 346.07C1293.93 345.49 1294.41 344.63 1295 343.9C1294.07 343.85 1293.12 343.64 1292.22 343.77C1284.17 344.91 1277.65 341.75 1271.68 336.77C1269.99 335.36 1270.3 334.62 1272.04 333.61C1279.22 329.45 1286.35 325.2 1293.5 320.99C1294.21 320.57 1295 320.24 1295.61 319.7C1296.28 319.12 1296.78 318.34 1297.35 317.65C1296.4 317.67 1295.38 317.47 1294.5 317.74C1290.68 318.87 1286.91 320.15 1283.11 321.34C1282.67 321.48 1282.15 321.38 1281.66 321.38C1281.92 320.9 1282.07 320.29 1282.47 319.97C1287.81 315.74 1293.16 311.51 1298.56 307.36C1300.27 306.04 1300.62 305 1298.11 304.72C1294.05 304.27 1295.58 302.52 1296.92 300.59C1298.81 297.86 1300.57 295.03 1302.46 292.3C1303.64 290.6 1303.63 289.71 1301.23 289.56C1298.41 289.38 1295.61 288.97 1292.8 288.63C1292.21 288.56 1291.64 288.31 1291.06 288.14C1291.38 287.6 1291.59 286.94 1292.03 286.53C1296.76 282.1 1301.53 277.7 1306.3 273.3C1306.91 272.74 1307.63 272.26 1308.14 271.62C1308.58 271.07 1308.8 270.35 1309.11 269.71C1308.47 269.73 1307.78 269.59 1307.21 269.79C1303.45 271.08 1299.71 272.45 1295.96 273.78C1295.03 274.11 1294.08 274.42 1293.12 274.62C1292.66 274.71 1292.15 274.52 1291.66 274.45C1292.07 274.06 1292.47 273.67 1292.88 273.28C1301.44 265.15 1310.01 257.03 1318.53 248.86C1319.17 248.25 1319.51 247.33 1320 246.55C1319.26 246.27 1318.53 245.89 1317.77 245.73C1314.69 245.06 1311.58 244.47 1308.49 243.81C1307.93 243.69 1307.41 243.42 1306.87 243.22C1307.38 242.83 1307.85 242.34 1308.42 242.08C1311.73 240.55 1315.08 239.1 1318.38 237.54C1319.38 237.07 1320.24 236.33 1321.17 235.71C1320.22 235.27 1319.32 234.68 1318.33 234.4C1313.06 232.91 1307.77 231.51 1302.5 230.05C1301.87 229.88 1301.3 229.53 1300.7 229.26C1301.29 229.01 1301.87 228.69 1302.48 228.51C1309.16 226.53 1315.85 224.58 1322.5 222.52C1322.68 222.47 1327.39 222.14 1322.94 220.45C1322.63 220.33 1322.6 218.21 1323.1 217.43C1326.94 211.42 1330.93 205.51 1334.88 199.58C1336.99 196.41 1339.13 193.24 1341.22 190.05C1341.57 189.52 1341.75 188.88 1342 188.28C1341.27 188.13 1340.55 187.95 1339.82 187.83C1339.5 187.78 1339.16 187.88 1338.83 187.9C1336.97 187.98 1335.12 188.06 1333.26 188.14C1334.39 186.55 1335.45 184.9 1336.67 183.38C1341.24 177.68 1345.76 171.94 1350.53 166.41C1352.29 164.37 1351.86 163.67 1349.68 162.67C1347.51 161.67 1345.54 160.24 1343.48 159C1344.73 157.05 1345.97 155.09 1347.23 153.15C1353 144.23 1358.84 135.36 1364.47 126.36C1365.54 124.64 1366.2 122.41 1366.3 120.39C1366.92 107.77 1367.24 95.14 1367.87 82.53C1368.03 79.4 1367.44 78.51 1364.56 80.25C1364.04 80.57 1363.37 80.65 1362.76 80.83C1362.85 80.1 1362.78 79.3 1363.05 78.65C1365.24 73.46 1367.48 68.3 1369.73 63.14C1369.98 62.56 1370.37 62.05 1370.7 61.51C1370.92 62.19 1371.26 62.86 1371.35 63.56C1372.97 75.74 1374.57 87.93 1376.16 100.12C1377.49 110.33 1378.72 120.56 1380.16 130.75C1380.4 132.45 1381.26 134.19 1382.26 135.63C1387.82 143.7 1393.53 151.66 1399.13 159.71C1399.73 160.57 1399.92 161.71 1400.3 162.72C1399.21 162.54 1398.1 162.43 1397.04 162.15C1396.09 161.89 1395.21 161.33 1394.26 161.1C1392.94 160.78 1391.57 160.65 1390.22 160.43C1390.5 161.87 1390.52 163.45 1391.15 164.72C1391.78 165.98 1392.92 167.06 1394.02 168.01C1398.94 172.23 1403.93 176.36 1408.86 180.56C1409.44 181.06 1409.77 181.85 1410.22 182.5C1409.56 182.48 1408.9 182.49 1408.25 182.44C1404.78 182.18 1401.32 181.91 1397.85 181.64C1397.68 185.26 1397.1 188.92 1397.48 192.49C1397.76 195.16 1398.75 198.09 1400.33 200.23C1405.88 207.78 1407.4 215.37 1403.02 224.12C1400.94 228.28 1401.85 232.55 1405.06 236.54C1410.77 243.64 1415.93 251.17 1421.32 258.52C1421.1 258.83 1420.88 259.15 1420.66 259.46C1414.34 254.38 1407.99 249.32 1401.71 244.18C1400.8 243.44 1400.16 242.36 1399.4 241.44C1399.27 242.75 1398.78 244.16 1399.08 245.37C1400.12 249.5 1401.37 253.59 1402.68 257.65C1403.13 259.05 1403.86 260.4 1404.67 261.64C1408.86 268.06 1410.99 274.91 1410.12 282.7C1409.93 284.4 1411 286.5 1412.06 288.02C1417.27 295.48 1422.67 302.8 1428 310.17C1427.63 310.4 1427.25 310.63 1426.88 310.87C1421.01 306.57 1415.1 302.31 1409.27 297.93C1407.44 296.55 1406.81 296.79 1406.85 299.1C1406.91 302.58 1406.63 306.09 1406.97 309.55C1407.13 311.17 1408.1 312.93 1409.2 314.2C1414.95 320.85 1420.46 327.79 1426.82 333.81C1432.86 339.53 1434.94 346.38 1435.51 354.15C1435.35 354.31 1435.19 354.47 1435.03 354.64C1431.76 351.14 1428.53 347.62 1425.2 344.18C1424.78 343.74 1423.89 343.76 1423.21 343.56C1423.38 344.13 1423.38 344.86 1423.75 345.24C1431.92 353.58 1428.08 364.5 1429.98 374.17C1430.06 374.59 1429.86 375.06 1429.78 375.51C1429.28 375.16 1428.72 374.86 1428.28 374.44C1426.37 372.64 1424.58 370.71 1422.56 369.06C1421.93 368.54 1420.72 368.73 1419.77 368.59C1420.07 369.37 1420.25 370.21 1420.68 370.91C1426.81 380.77 1432.97 390.62 1439.13 400.46V657.46C1439.13 660.507 1437.66 662.03 1434.71 662.03C956.562 662.03 478.422 662.03 0.272386 662.03C0.272386 615.32 0.272386 568.62 0.272386 521.91C0.272386 520.91 0.372386 519.9 0.252386 518.92C-0.0176139 516.71 0.932386 515.78 3.06239 516.22C6.92239 517.02 9.63239 515.24 12.2624 512.68C16.5424 508.51 21.0524 504.56 25.4424 500.49C26.0224 499.95 26.4424 499.24 26.9324 498.6C26.0224 498.55 25.0724 498.29 24.2224 498.49C17.2724 500.1 10.2824 501.59 3.43239 503.56C0.352386 504.45 0.562386 503.26 0.152386 500.94C-0.687614 496.18 2.08239 493.6 5.09239 490.93C5.51239 490.56 5.71239 489.94 6.01239 489.43C5.39239 489.46 4.75239 489.4 4.16239 489.55C3.52239 489.7 2.91239 490 2.32239 490.3C1.00239 490.97 0.232386 490.96 0.262386 489.11C0.322386 483.79 0.392386 478.47 0.232386 473.16C0.162386 470.91 1.64239 470.44 3.12239 469.71C13.3424 464.66 22.3824 457.97 30.5924 450.11C31.3124 449.42 32.0624 448.75 32.6924 447.99C32.9424 447.69 32.8824 447.15 32.9724 446.72C32.5124 446.65 31.9724 446.37 31.6024 446.53C29.1524 447.55 26.8224 448.92 24.3024 449.68C17.1724 451.84 9.96239 453.7 2.81239 455.8C0.742386 456.41 0.222386 455.79 0.262386 453.79C0.362386 449.68 0.522386 445.55 0.202386 441.46C-0.057614 438.18 1.27239 436.69 4.23239 435.84C11.9824 433.63 19.0524 430.1 25.1724 424.75C36.5924 414.77 44.0124 402.18 49.0824 388.09C49.4224 387.16 48.9924 385.95 48.9124 384.87L49.7724 385.2C49.4924 385.12 49.2124 385.03 48.9424 384.95C38.7524 391.82 28.5624 398.7 18.3724 405.57C18.1524 405.35 17.9124 405.14 17.6624 404.95C18.9024 402.83 20.1424 400.7 21.3824 398.58C21.7424 398.3 22.0924 398.03 22.4524 397.75C22.4524 397.61 22.4924 397.47 22.4724 397.34C22.4524 397.26 22.3524 397.19 22.2924 397.11C22.3724 397.37 22.4524 397.63 22.5324 397.9C21.9524 397.84 21.3624 397.77 20.7824 397.71C15.0424 401.36 9.31239 405.02 3.55239 408.63C2.94239 409.01 2.16239 409.13 1.45239 409.38C1.68239 408.68 1.77239 407.88 2.17239 407.29C4.23239 404.28 6.40239 401.34 8.48239 398.35C8.80239 397.89 8.85239 397.25 9.02239 396.69C8.40239 396.71 7.75239 396.63 7.15239 396.78C4.90239 397.32 2.66239 397.94 0.422386 398.53C0.372386 396.26 0.582386 393.95 0.212386 391.73C-0.637614 386.56 1.04239 383.45 6.31239 381.85C10.2324 380.65 13.9124 378.57 17.5624 376.64C34.3024 367.76 43.8624 353.82 46.5124 335.13C46.6524 334.13 46.1424 333.03 45.9424 331.98C46.1924 332.19 46.4524 332.39 46.7024 332.6C46.7424 332.49 46.7824 332.38 46.8124 332.28C46.5224 332.22 46.2324 332.15 45.9524 332.09C42.4524 334.85 39.3124 338.33 35.3924 340.22C24.8124 345.33 13.9224 349.79 3.12239 354.43C2.37239 354.75 1.36239 354.5 0.472386 354.51C0.732386 353.76 0.872386 352.94 1.28239 352.28C2.51239 350.31 3.86239 348.42 5.12239 346.47C5.47239 345.93 5.69239 345.3 5.98239 344.72C5.34239 344.71 4.56239 344.45 4.10239 344.72C0.552386 346.83 -0.0876139 345.13 0.242386 341.93C0.342386 340.94 0.262386 339.94 0.262386 338.94C0.262386 331.27 0.252387 331.21 8.03239 329.61C27.4824 325.62 42.3924 315.27 52.4624 298.1C52.9624 297.24 53.5524 296.42 53.9124 295.51C54.1224 294.97 53.9724 294.29 53.9924 293.68C53.4024 293.74 52.7324 293.66 52.2224 293.9C46.3724 296.65 40.5524 299.46 34.7124 302.25C34.4824 301.99 34.2624 301.73 34.0324 301.47C34.6124 299.93 35.1924 298.38 35.7724 296.84C34.2024 297.14 32.5724 297.28 31.0724 297.79C27.9324 298.84 24.8624 300.11 21.7424 301.24C21.3324 301.39 20.8224 301.29 20.3624 301.3C20.5224 300.9 20.6124 300.45 20.8524 300.1C21.8224 298.66 22.8324 297.24 23.8224 295.81C22.0524 296.09 20.2524 296.28 18.5024 296.68C14.4624 297.62 10.4524 298.68 6.41239 299.64C5.80239 299.78 5.12239 299.63 4.47239 299.61C4.90239 299.03 5.29239 298.4 5.78239 297.87C6.11239 297.52 6.62239 297.34 7.01239 297.03C7.39239 296.74 7.72239 296.38 8.07239 296.05C7.49239 295.94 6.90239 295.74 6.31239 295.74C5.67239 295.74 5.01239 296.04 4.38239 295.97C3.74239 295.89 3.15239 295.51 2.53239 295.26C3.01239 295.01 3.48239 294.73 3.98239 294.52C21.4824 287.08 36.7124 276.29 50.4424 263.27C51.1024 262.64 51.5224 261.74 52.0424 260.97C51.0824 261.1 50.1124 261.15 49.1824 261.38C46.7624 261.98 44.3924 262.73 41.9624 263.27C40.7824 263.53 39.5224 263.43 38.2924 263.49C39.0724 262.69 39.7724 261.78 40.6424 261.1C42.9924 259.26 45.4524 257.54 47.8024 255.69C48.3724 255.24 48.6824 254.44 49.1124 253.81C48.4624 253.81 47.8024 253.86 47.1524 253.79C46.4224 253.71 45.6924 253.51 44.9724 253.37C45.4124 252.73 45.7124 251.91 46.3024 251.47C56.3024 244.12 60.9924 232.9 67.3024 222.85C67.5724 222.24 67.8324 221.62 68.1024 221.01C67.6024 221.34 67.1024 221.66 66.6024 221.99C57.3324 228.8 47.0724 233.31 35.7324 235.36C35.5624 235.11 35.3624 234.88 35.1524 234.67C37.7024 232.59 40.2624 230.53 42.7724 228.41C43.1924 228.06 43.3824 227.45 43.6824 226.96C43.1824 226.93 42.6824 226.83 42.1924 226.89C38.4024 227.39 34.6224 227.95 30.8224 228.44C29.8524 228.56 28.8624 228.51 27.8824 228.53C28.6424 227.96 29.3324 227.23 30.1724 226.84C35.4324 224.38 40.7124 221.96 46.0124 219.59C50.3524 217.65 53.3824 214.62 54.6924 209.95C55.3024 207.78 55.6224 206.22 52.4224 207.26C50.6924 207.82 48.8724 208.1 47.0724 208.43C46.2824 208.57 45.4624 208.52 44.6524 208.56C44.9724 207.86 45.1924 207.07 45.6424 206.47C50.0524 200.65 54.5324 194.87 58.9324 189.04C60.1124 187.48 61.0724 185.76 62.1324 184.11C60.0824 184.3 58.0324 184.48 55.9924 184.68C53.4824 184.93 50.9724 185.19 48.4624 185.45C50.0524 183.8 51.6824 182.18 53.2224 180.48C60.1324 172.81 66.0524 164.46 70.3624 155.04C70.5324 154.75 70.7024 154.46 70.8824 154.17C70.5324 154.28 70.1724 154.39 69.8224 154.5C68.7524 154.94 67.6624 155.34 66.6324 155.84C62.6124 157.8 58.4057 158.167 54.0124 156.94C53.7224 156.86 53.4524 156.72 53.1724 156.6C53.5124 156.09 53.7624 155.47 54.2124 155.09C58.3024 151.7 62.4324 148.38 66.5224 144.99C67.1224 144.5 67.5324 143.78 68.0324 143.17C67.1724 143.05 66.2824 142.72 65.4624 142.84C58.7324 143.82 52.0224 144.92 45.2924 145.9C44.4724 146.02 43.5924 145.69 42.7424 145.57C43.3824 145.11 43.9724 144.58 44.6524 144.19C50.6724 140.76 56.7524 137.43 62.7024 133.89C64.7024 132.7 64.5624 132.47 62.3424 131.2C62.2124 131.13 61.9824 131.04 61.9924 130.96C62.2724 124.49 58.2124 129.85 56.4424 128.95C55.9224 128.68 55.2324 128.73 54.6224 128.64C55.0824 128.26 55.5024 127.83 56.0024 127.51C66.5724 120.75 74.3924 111.39 81.0924 100.99C81.5524 100.27 81.6224 99.3 81.8824 98.44C81.1624 98.73 80.4324 98.98 79.7424 99.32C77.2324 100.53 74.7424 101.76 72.2524 102.98L72.0724 102.76C72.3424 102 72.5824 101.23 72.9024 100.5C73.2224 99.75 73.6324 99.04 74.0024 98.32C73.0524 98.23 72.1024 98.14 71.1524 98.06C70.3424 97.99 69.5224 97.94 68.7024 97.88C69.2724 97.31 69.9124 96.8 70.3924 96.17C76.2724 88.39 82.2424 80.67 87.9524 72.77C89.9724 69.97 91.4124 66.74 93.0524 63.68C94.9224 60.18 94.9424 60.13 97.2224 63.16C104.402 72.71 111.542 82.29 118.702 91.86C120.092 93.72 121.532 95.54 122.902 97.42C123.162 97.78 123.172 98.32 123.292 98.78C122.812 98.85 122.292 99.08 121.862 98.97C119.452 98.36 117.082 97.62 114.672 97.05C113.962 96.88 113.152 97.12 112.382 97.17C112.632 97.77 112.832 98.39 113.122 98.97C113.712 100.16 114.352 101.32 114.962 102.5C114.652 102.72 114.342 102.94 114.022 103.17C111.602 102.1 109.212 100.96 106.752 100.03C106.152 99.8 105.302 100.26 104.562 100.4C104.992 100.87 105.412 101.34 105.852 101.8C113.622 109.79 121.402 117.77 129.142 125.78C129.662 126.32 129.912 127.12 130.292 127.8L130.172 127.96C127.322 126.96 124.482 125.91 121.592 125.02C121.022 124.84 120.252 125.31 119.582 125.47C120.042 126.09 120.512 126.72 120.972 127.34C120.652 127.6 120.332 127.87 120.012 128.13C119.362 128.03 118.712 127.85 118.062 127.84C117.492 127.82 116.922 127.98 116.352 128.06C116.602 128.47 116.772 128.97 117.112 129.27C120.592 132.3 124.112 135.3 127.612 138.31C128.862 139.38 130.592 140.27 131.192 141.64C132.252 144.04 130.102 142.5 129.372 142.73C129.012 142.56 128.652 142.39 128.292 142.21C128.372 142.61 128.452 143.01 128.532 143.41C129.002 144.25 129.482 145.09 129.952 145.93C129.032 145.93 128.062 146.08 127.192 145.87C124.142 145.12 121.132 144.2 118.092 143.43C117.002 143.16 115.852 143.15 114.722 143.02C115.332 143.89 115.842 144.87 116.572 145.62C120.742 149.89 124.962 154.11 129.162 158.35C129.982 159.17 130.842 159.96 131.542 160.88C131.862 161.31 131.822 162.01 131.942 162.59C131.322 162.69 130.642 163.02 130.102 162.86C128.842 162.48 127.652 161.88 126.452 161.35C121.922 159.35 117.422 157.28 112.852 155.37C111.962 155 110.822 155.2 109.802 155.14C109.892 154.84 109.972 154.55 110.062 154.25C109.942 154.25 109.812 154.25 109.692 154.25C109.782 154.53 109.862 154.8 109.952 155.08C115.722 162.15 123.452 166.59 131.212 171.03C138.652 175.3 145.992 179.75 153.352 184.16C153.932 184.51 154.312 185.19 154.792 185.72C154.142 185.72 153.462 185.82 152.842 185.68C148.652 184.74 144.482 183.72 140.282 182.82C139.562 182.67 138.762 182.94 137.992 183.02C138.292 183.74 138.542 184.48 138.892 185.17C139.332 186.04 139.852 186.88 140.332 187.73C140.132 188.01 139.922 188.3 139.722 188.58C134.612 185.94 129.502 183.31 124.402 180.67C123.742 180.48 123.092 180.29 122.432 180.1C122.832 180.55 123.232 181 123.632 181.45C129.582 186.5 135.542 191.53 141.462 196.6C142.032 197.09 142.372 197.84 142.822 198.47C142.072 198.54 141.322 198.7 140.582 198.67C138.822 198.59 136.262 197.14 137.262 201.07C137.762 203.05 136.302 202.65 135.132 202.37C131.912 201.6 128.682 200.82 125.452 200.09C124.822 199.95 124.152 200.03 123.492 200.01C123.932 200.61 124.252 201.35 124.822 201.78C131.952 207.19 139.122 212.56 146.282 217.93C146.552 218.13 146.842 218.31 147.062 218.55C147.992 219.54 148.902 220.56 149.822 221.57C148.572 221.34 147.282 221.22 146.062 220.86C144.472 220.39 142.922 219.8 141.402 219.13C139.032 218.09 137.632 218.28 138.032 221.38C138.302 223.56 137.502 223.97 135.532 222.94C132.742 221.49 129.852 220.23 126.942 219.03C126.702 218.93 125.562 220 125.652 220.25C128.072 227.45 130.032 234.85 137.192 239.34C142.242 242.5 146.942 246.23 151.732 249.81C152.742 250.56 153.422 251.75 154.262 252.73C153.342 252.81 152.422 252.9 151.502 252.98C151.732 253.4 151.952 253.82 152.202 254.23C153.082 255.64 153.972 257.05 154.862 258.46C153.172 257.99 151.462 257.59 149.802 257.04C147.452 256.26 145.132 255.35 142.802 254.51C141.092 253.9 139.392 253.28 137.662 252.72C137.392 252.63 137.032 252.83 136.712 252.89C136.882 253.23 136.972 253.71 137.242 253.88C144.922 258.75 152.602 263.62 160.332 268.42C161.672 269.25 162.582 268.7 162.532 267.07C162.412 263.28 162.242 259.5 162.092 255.71C163.202 252.31 164.242 248.89 165.432 245.52C168.112 237.92 170.912 230.36 173.522 222.73C173.982 221.38 173.942 219.79 173.822 218.34C173.712 217.06 173.152 215.81 172.792 214.55C172.542 215.59 172.382 216.67 172.002 217.66C171.782 218.24 171.262 218.75 170.792 219.19C164.372 225.14 157.932 231.07 151.502 237.01C151.152 236.76 150.812 236.51 150.462 236.26C156.182 227.32 161.662 218.22 167.702 209.5C170.872 204.92 170.972 200.29 170.002 195.32C169.562 193.05 169.032 190.72 168.052 188.64C165.502 183.2 166.062 178.13 169.192 173.17C169.722 172.34 169.952 171.3 170.512 170.5C175.702 163.08 175.582 154.66 175.352 146.14C175.282 143.65 174.252 143.5 172.312 143.81C169.692 144.23 167.042 144.55 164.402 144.8C163.732 144.86 163.022 144.48 162.322 144.3C162.682 143.77 162.962 143.17 163.412 142.73C168.412 137.86 173.432 133.01 178.442 128.15C179.392 127.22 180.732 126.42 181.152 125.28C181.992 123.04 182.332 120.6 182.872 118.25C181.082 118.8 179.292 119.35 177.502 119.89C175.522 120.49 173.552 121.1 171.572 121.7C172.532 119.83 173.392 117.9 174.482 116.1C180.052 106.87 185.732 97.72 191.232 88.44C192.282 86.66 193.072 84.53 193.302 82.48C196.352 55.59 199.292 28.68 202.262 1.78C202.332 1.18 202.492 0.59 202.612 0C202.962 0.3 203.502 0.53 203.642 0.91C206.302 8.22 208.922 15.54 211.512 22.87C211.562 23.03 211.122 23.35 210.922 23.6L210.952 23.48C209.512 22.75 208.072 22.01 206.622 21.28C206.452 22.84 206.112 24.41 206.152 25.97C206.512 40.93 206.842 55.88 207.442 70.83C207.542 73.34 208.492 76.02 209.712 78.26C216.242 90.19 222.842 102.09 229.742 113.81C231.532 116.84 230.822 117.88 228.132 119.36C221.932 122.79 222.012 122.89 226.022 128.58C230.812 135.37 235.572 142.17 240.292 148.99C240.822 149.76 241.022 150.76 241.382 151.66C240.442 151.73 239.502 151.91 238.572 151.86C236.472 151.73 234.372 151.49 232.282 151.29C233.332 153.34 234.302 155.44 235.442 157.44C241.042 167.23 246.702 176.98 252.302 186.76C253.122 188.2 254.702 189.58 251.742 190.99C249.902 191.86 251.722 192.53 252.722 192.87C257.582 194.53 262.442 196.2 267.302 197.87C269.652 198.68 272.002 199.48 274.332 200.35C274.762 200.51 275.082 200.97 275.452 201.3C275.002 201.48 274.572 201.68 274.112 201.83C268.102 203.71 262.082 205.58 256.072 207.47C255.332 207.7 254.632 208.08 253.912 208.39C254.582 209.02 255.152 209.83 255.922 210.26C259.702 212.34 263.542 214.3 267.342 216.34C267.872 216.63 268.302 217.12 268.772 217.51C268.252 217.87 267.772 218.41 267.202 218.55C263.982 219.34 260.752 220.15 257.482 220.72C254.792 221.19 254.392 221.95 256.342 224.06C262.782 231.01 269.112 238.06 275.492 245.08C278.062 247.91 280.642 250.73 283.172 253.6C283.562 254.04 283.672 254.71 283.912 255.28C283.302 255.27 282.642 255.42 282.102 255.22C277.152 253.35 272.232 251.41 267.302 249.5C266.662 249.31 266.012 249.12 265.372 248.94C265.732 249.39 266.082 249.85 266.442 250.3C272.282 256.67 278.082 263.07 283.982 269.37C285.792 271.31 285.252 272.03 282.912 272.31C280.112 272.65 277.312 273.08 274.502 273.37C272.552 273.57 271.812 274.03 273.082 276.05C275.372 279.7 277.352 283.55 279.632 287.2C281.032 289.43 281.342 290.96 278.152 291.45C274.452 292.02 276.262 293.4 277.682 294.69C282.952 299.51 288.242 304.32 293.502 309.16C294.082 309.7 294.482 310.43 294.962 311.08C294.072 310.99 293.132 311.08 292.312 310.8C287.772 309.25 283.272 307.55 278.712 306.04C277.722 305.71 276.542 305.95 275.452 305.92C276.222 306.47 276.972 307.04 277.752 307.57C286.522 313.57 295.242 319.65 304.102 325.51C306.672 327.21 307.142 328.38 304.662 330.56C298.012 336.39 290.942 340.57 281.612 337.65C281.022 337.46 280.312 337.65 279.662 337.65C280.102 338.16 280.482 338.73 280.972 339.18C286.702 344.49 292.462 349.77 298.162 355.1C298.732 355.63 299.022 356.45 299.452 357.13C298.652 357.12 297.842 357.13 297.042 357.08C293.762 356.87 290.472 356.64 287.192 356.41C287.052 356.21 286.922 356.02 286.782 355.82C286.632 355.96 286.472 356.1 286.322 356.23C286.572 356.32 286.832 356.42 287.082 356.51C289.042 358.17 291.082 359.75 292.942 361.52C299.402 367.67 305.882 373.82 312.162 380.16C313.212 381.22 313.322 383.22 313.872 384.79L313.942 384.65C309.862 382.82 305.832 380.84 301.662 379.25C300.382 378.76 298.702 379.33 297.202 379.44C297.062 379.44 296.932 379.62 296.802 379.73C294.442 381.77 290.652 383.47 290.072 385.93C289.212 389.57 290.412 393.8 291.212 397.67C291.502 399.09 293.062 400.34 294.222 401.47C304.712 411.67 315.042 422.06 325.882 431.87C329.432 435.08 329.752 438.45 329.622 442.48C329.552 444.65 328.652 444.52 327.112 443.69C320.972 440.39 314.802 437.16 308.642 433.91C304.972 431.98 301.302 430.06 297.612 428.16C296.912 427.8 296.132 427.59 295.392 427.31C295.352 428.09 295.082 428.93 295.292 429.63C297.472 436.77 299.672 443.9 302.022 450.98C302.462 452.32 303.482 453.54 304.452 454.62C312.372 463.38 320.102 472.32 328.382 480.72C332.772 485.18 338.152 488.67 343.082 492.6C343.732 493.12 344.452 493.56 345.042 494.14C345.922 495.02 346.702 496 347.532 496.94C346.382 496.78 345.232 496.59 344.082 496.46C340.442 496.05 336.812 495.66 333.172 495.29C332.682 495.24 332.182 495.36 331.682 495.4C332.122 495.77 332.512 496.2 332.992 496.49C340.502 501.07 347.952 505.74 355.592 510.1C357.622 511.26 360.192 511.83 362.552 511.96C367.532 512.24 372.532 512.03 377.522 512.06C378.282 512.06 379.042 512.33 379.802 512.48C379.412 513.14 379.182 513.99 378.622 514.43C373.942 518.08 371.022 524.43 363.782 524.25C363.372 524.24 362.962 524.62 362.542 524.82C362.972 524.94 363.392 525.15 363.822 525.18C368.132 525.5 372.442 525.88 376.762 526.06C394.542 526.81 412.332 527.37 430.102 528.24C444.392 528.93 458.652 530.26 472.942 530.75C488.232 531.28 503.552 531.11 518.852 531.39C522.362 531.45 523.182 528.77 524.542 526.63C525.572 525 526.272 523.16 527.122 521.42C525.192 521.69 523.232 521.81 521.352 522.27C515.712 523.65 510.112 525.21 504.472 526.58C503.382 526.84 501.322 526.86 501.142 526.41C500.402 524.54 501.612 523.53 503.372 522.75C507.622 520.88 511.782 518.8 515.962 516.78C520.142 514.76 524.242 512.53 528.522 510.76C531.002 509.74 531.882 507.82 531.672 505.77C531.572 504.77 529.512 503.86 528.212 503.12C523.722 500.55 519.512 503.24 515.182 503.9C514.552 504 513.892 503.92 513.252 503.92C513.672 503.42 513.982 502.71 514.512 502.46C520.182 499.76 525.892 497.13 531.582 494.46C532.092 494.22 532.522 493.8 532.992 493.47C532.502 493.42 532.012 493.35 531.512 493.31C529.782 493.19 528.062 493.08 526.332 492.97C528.012 492.02 529.662 491.03 531.372 490.13C533.532 488.98 535.732 487.9 537.912 486.79C535.572 486.63 533.232 486.47 530.892 486.31C530.232 486.26 529.522 486.34 528.912 486.13C525.802 485.05 522.722 483.89 519.632 482.75C522.382 481.52 525.112 480.22 527.902 479.09C530.202 478.16 532.602 477.46 534.932 476.6C535.482 476.4 535.962 475.98 536.462 475.67C535.932 475.45 535.402 475.07 534.852 475.03C533.312 474.92 531.762 474.95 530.222 474.92C531.622 474.17 533.002 473.38 534.422 472.68C536.052 471.87 537.722 471.13 539.382 470.37C541.142 469.56 541.082 469.61 539.812 468.06C539.592 467.79 539.952 466.78 540.322 466.35C541.692 464.78 543.182 463.31 544.622 461.8C542.562 461.54 540.492 461.3 538.432 461.01C537.822 460.92 537.222 460.7 536.622 460.54C537.102 459.99 537.492 459.28 538.092 458.93C541.112 457.2 544.212 455.6 547.242 453.89C547.762 453.6 548.112 453.01 548.552 452.56C547.902 452.52 547.232 452.36 546.602 452.46C544.142 452.84 541.702 453.29 539.262 453.72C539.082 453.53 538.912 453.34 538.732 453.15C544.612 449.81 550.502 446.47 556.372 443.11C557.062 442.71 557.642 442.12 558.272 441.62C557.492 441.37 556.732 441 555.932 440.89C553.632 440.56 551.322 440.33 549.012 440.06C551.302 439.21 553.592 438.37 555.872 437.52C556.622 437.24 557.352 436.93 558.092 436.64C557.292 436.24 556.542 435.64 555.702 435.49C552.922 434.99 550.102 434.71 547.322 434.21C546.652 434.09 546.062 433.49 545.442 433.11C546.022 432.9 546.592 432.6 547.202 432.49C550.802 431.86 554.392 430.93 558.022 430.78C560.552 430.67 560.362 428.78 561.442 427.62C563.922 424.96 566.892 422.76 569.672 420.38C570.812 419.41 572.022 418.51 573.092 417.47C574.002 416.59 574.752 415.54 575.572 414.57C574.442 414.52 573.322 414.47 572.192 414.4C571.532 414.36 570.872 414.31 570.212 414.26C570.672 413.64 571.012 412.86 571.602 412.43C575.102 409.89 578.672 407.47 582.172 404.92C582.762 404.49 583.072 403.68 583.502 403.04C582.912 402.81 582.322 402.57 581.722 402.36C580.942 402.09 580.162 401.77 579.352 401.6C577.262 401.15 577.962 400.31 579.002 399.39C583.482 395.42 587.822 391.27 592.502 387.55C595.132 385.46 596.322 383.18 595.892 379.91C595.742 378.77 595.762 377.57 595.892 376.42C596.062 374.92 596.412 373.44 596.692 371.95C598.462 373.23 600.812 374.14 601.882 375.86C603.602 378.64 604.272 382.05 605.782 384.99C606.952 387.26 608.442 389.53 610.292 391.25C613.932 394.64 617.932 397.64 621.772 400.82C622.132 401.11 622.342 401.58 622.622 401.96C622.082 402.1 621.542 402.38 621.012 402.35C620.192 402.31 619.382 401.94 618.572 401.92C617.432 401.89 616.292 402.07 615.152 402.15C616.052 403.02 616.812 404.14 617.872 404.72C621.222 406.55 624.742 408.07 628.072 409.92C629.942 410.96 631.422 411.12 632.842 409.36C633.152 408.97 633.552 408.66 633.912 408.32C640.022 402.62 640.122 402.57 636.612 395.01C635.632 392.89 635.642 391.36 637.172 389.64C638.722 387.91 640.652 386.23 641.402 384.16C642.372 381.49 642.382 378.46 642.622 375.58C642.642 375.39 641.072 374.85 640.242 374.85C637.982 374.83 635.722 375 633.472 375.1C635.442 373.71 637.362 372.24 639.402 370.94C641.922 369.34 644.622 368.01 647.062 366.3C647.892 365.72 648.152 364.35 648.682 363.34C647.692 363.34 646.702 363.37 645.702 363.37C644.222 363.37 642.732 363.37 641.252 363.36C642.092 362.29 642.932 361.21 643.792 360.15C644.102 359.77 644.462 359.4 644.852 359.09C653.282 352.59 659.122 344.47 661.002 333.77C661.432 331.32 662.422 329.18 665.082 327.96C667.102 327.04 667.982 326.61 667.862 329.41C667.722 332.56 667.992 335.74 667.782 338.89C667.612 341.45 668.492 343.23 670.262 345.03C674.922 349.77 679.382 354.71 683.912 359.58C685.599 361.393 685.332 362.727 683.112 363.58C679.182 365.08 679.162 365.11 682.342 367.89C685.722 370.84 689.152 373.73 692.532 376.69C692.982 377.09 693.232 377.72 693.572 378.25C692.972 378.36 692.382 378.54 691.782 378.57C691.122 378.61 690.452 378.45 689.792 378.49C689.182 378.52 688.582 378.68 687.972 378.79C688.252 379.34 688.422 379.99 688.832 380.43C692.242 384.07 695.812 387.57 699.102 391.32C700.602 393.02 701.472 395.26 702.832 397.1C703.332 397.77 704.392 398.19 705.272 398.39C709.482 399.35 713.722 400.18 717.942 401.11C718.562 401.25 719.132 401.64 719.722 401.91C719.172 402.08 718.632 402.3 718.072 402.4C714.482 403.09 710.882 403.75 707.292 404.46C706.542 404.61 705.832 404.93 705.102 405.17C705.842 405.66 706.522 406.29 707.322 406.6C709.172 407.32 711.102 407.85 712.972 408.53C713.322 408.66 713.542 409.16 713.832 409.48C713.462 409.72 713.112 410.01 712.712 410.19C712.422 410.32 712.052 410.27 711.732 410.34C709.562 410.83 707.392 411.34 705.222 411.84C706.952 413.09 708.642 414.38 710.402 415.58C715.072 418.75 719.792 421.84 724.442 425.04C725.002 425.43 725.262 426.26 725.662 426.88C724.932 426.83 724.192 426.84 723.462 426.74C720.722 426.35 717.982 425.92 715.252 425.51C717.292 427.01 719.342 428.51 721.382 430.01C721.512 430.11 721.682 430.16 721.812 430.26C723.762 431.73 725.712 433.2 727.662 434.67C725.472 434.95 723.262 435.19 721.082 435.54C720.342 435.66 719.662 436.07 718.942 436.34C719.372 437 719.742 437.73 720.252 438.32C721.222 439.45 722.262 440.54 723.312 441.6C724.832 443.13 724.832 443.97 722.412 444.3C720.232 444.6 721.592 445.29 722.402 445.74C725.432 447.46 728.512 449.09 731.502 450.89C732.072 451.23 732.302 452.14 732.692 452.78C731.972 452.78 731.252 452.79 730.542 452.77C728.752 452.71 726.972 452.63 725.182 452.56C726.612 453.24 728.022 453.98 729.482 454.6C733.602 456.34 737.752 458.02 741.882 459.76C742.752 460.13 743.542 460.67 744.372 461.13C743.542 461.85 742.812 462.75 741.862 463.24C737.512 465.51 732.872 466.64 727.922 466.28C727.342 466.24 726.752 466.47 726.162 466.58C726.552 467.04 726.842 467.66 727.332 467.94C730.652 469.82 734.022 471.62 737.342 473.49C737.732 473.71 737.962 474.22 738.262 474.59C737.762 474.71 737.252 474.95 736.762 474.93C734.602 474.85 732.452 474.69 730.302 474.55C732.262 475.68 734.212 476.85 736.192 477.94C737.212 478.5 738.312 478.9 739.342 479.42C741.882 480.71 747.442 479.55 748.972 477.32C749.022 477.25 748.322 476.46 747.872 476.32C747.022 476.06 746.112 476.03 745.222 475.91C746.022 475.35 746.772 474.72 747.622 474.24C750.372 472.7 753.172 471.25 755.902 469.68C756.512 469.33 756.922 468.64 757.422 468.11C756.832 467.91 756.262 467.64 755.652 467.51C755.002 467.38 754.322 467.43 753.672 467.3C753.282 467.23 752.932 466.97 752.572 466.79C752.842 466.62 753.092 466.44 753.372 466.29C753.512 466.22 753.702 466.23 753.852 466.18C755.262 465.72 756.662 465.26 758.072 464.8C756.572 464.36 755.082 463.87 753.562 463.5C752.762 463.31 751.912 463.34 751.082 463.23C750.592 463.17 750.112 463.03 749.622 462.92C750.012 462.65 750.382 462.35 750.802 462.12C751.092 461.96 751.432 461.78 751.742 461.79C760.032 462.09 763.572 454.85 769.142 450.85C770.582 449.81 769.882 449.4 768.452 449.43C767.912 449.44 767.372 449.08 766.822 448.89C767.172 448.54 767.482 448.15 767.872 447.86C769.882 446.39 771.922 444.96 773.942 443.5C775.332 442.5 775.972 441.66 773.542 441.25C771.482 440.91 771.442 440 773.002 438.76C774.432 437.61 775.772 436.36 777.182 435.2C781.192 431.91 785.222 428.74 783.802 422.51C783.252 420.1 785.062 420.68 786.102 421.48C787.092 422.24 788.202 423.34 788.452 424.47C789.802 430.56 793.692 434.64 798.562 438.08C799.712 438.9 800.572 440.12 801.572 441.16C800.282 441.23 798.992 441.29 797.692 441.36C797.572 441.16 797.452 440.96 797.332 440.76C797.262 440.89 797.202 441.01 797.132 441.14C797.342 441.18 797.562 441.22 797.772 441.26C798.272 444.63 801.792 443.82 803.572 445.42C804.142 445.93 804.772 446.39 805.372 446.87C804.672 447.07 803.982 447.34 803.272 447.45C800.832 447.83 799.862 449.99 801.322 452.25C802.022 453.34 803.082 454.24 804.072 455.11C805.482 456.36 806.132 457.55 804.732 459.3C802.572 462 803.462 463.99 806.182 465.82C807.772 466.89 808.952 468.58 810.312 469.99C808.512 469.35 806.692 468.74 804.902 468.07C804.282 467.84 803.732 467.44 803.132 467.18C802.782 467.03 802.382 467.01 802.002 466.93C801.952 467.41 801.702 467.99 801.882 468.35C802.572 469.66 803.252 471.03 804.222 472.12C806.082 474.21 807.922 475.99 807.912 479.29C807.912 480.65 810.372 482.06 811.782 483.38C812.622 484.17 813.642 484.78 814.482 485.57C814.852 485.92 814.982 486.52 815.222 487C814.742 487.01 814.202 487.18 813.782 487.02C812.392 486.49 811.092 485.74 809.682 485.28C808.562 484.92 807.332 484.88 806.152 484.7C806.592 486.29 806.512 488.52 807.562 489.37C810.632 491.86 814.262 493.64 817.422 496.03C819.002 497.23 820.042 499.14 821.332 500.73C821.072 500.92 820.832 501.13 820.602 501.37L820.402 501.47ZM1181.34 228.83C1180.81 228.94 1180.28 229.05 1179.75 229.16C1179.57 229.64 1179.39 230.12 1179.21 230.6C1179.61 230.37 1180.01 230.14 1180.4 229.91C1180.67 229.52 1180.95 229.13 1181.22 228.74C1181.46 228.52 1181.71 228.3 1181.95 228.07C1181.82 228.02 1181.68 227.96 1181.55 227.91C1181.48 228.22 1181.41 228.52 1181.34 228.83ZM1421.56 342.21C1422.02 342.34 1422.48 342.46 1422.95 342.59C1422.72 342.19 1422.5 341.78 1422.28 341.38C1421.62 341.22 1420.95 341.05 1420.29 340.89C1420.72 341.33 1421.14 341.77 1421.57 342.21H1421.56ZM814.192 507.64C814.522 507.91 814.852 508.18 815.182 508.44C815.342 508.23 815.512 508.02 815.672 507.8C815.322 507.61 814.962 507.42 814.612 507.24C814.162 507.04 813.722 506.83 813.272 506.63C813.572 506.97 813.882 507.3 814.182 507.64H814.192ZM626.672 416.51C627.202 415.51 627.832 414.55 628.222 413.51C628.422 412.96 628.222 411.71 628.202 411.71C625.782 411.7 622.212 410.85 621.222 412.08C619.912 413.69 619.702 417.11 622.292 419.16C622.802 419.56 623.232 420.05 623.692 420.5C627.432 423.66 628.552 426.98 625.062 431.24C624.382 432.06 625.022 434.33 625.622 435.68C625.962 436.44 628.112 437.3 628.342 437.06C629.962 435.36 632.572 433.32 632.472 431.51C632.222 426.72 634.302 423.41 636.982 419.91C638.862 417.46 640.072 414.47 641.412 411.64C641.712 411.02 641.302 410.07 641.222 409.27C640.582 409.56 639.922 409.83 639.292 410.15C635.082 412.27 630.882 414.4 626.672 416.53V416.51ZM160.432 290.41C158.822 288.49 157.202 287.83 155.242 290.07C154.272 291.18 153.012 292.05 151.882 293.02C145.412 298.59 145.372 298.61 149.652 306.28C151.082 308.85 152.752 311.28 154.322 313.77C156.232 311.55 157.982 309.15 160.092 307.14C165.422 302.09 166.522 295.81 165.532 289C165.312 287.46 163.862 286.07 162.832 284.72C162.702 284.54 161.242 284.99 161.242 285.14C161.242 286.5 161.452 287.85 161.592 289.21C161.202 289.61 160.822 290.01 160.432 290.41ZM1152.42 433.34C1149.79 433.19 1147.16 433.03 1144.54 432.9C1143.83 432.86 1143.12 432.9 1142.41 432.9C1143.1 433.28 1143.76 433.77 1144.5 434.03C1146.96 434.91 1149.56 435.5 1151.91 436.6C1155.16 438.12 1157.55 437.42 1159.5 434.57C1163.93 430.11 1166.88 424.95 1167.24 418.53C1167.45 414.89 1167.71 411.26 1167.89 407.62C1167.92 406.93 1167.66 406.23 1167.54 405.53C1167.03 405.91 1166.45 406.22 1166.03 406.69C1161.81 411.36 1157.64 416.07 1153.38 420.7C1152.63 421.52 1150.81 424.74 1151.16 420.15C1151.17 420.01 1150.35 419.57 1150.19 419.68C1148.4 420.87 1146.55 422.02 1145 423.48C1144.63 423.83 1145.41 425.27 1145.43 426.22C1145.43 426.6 1144.86 427.27 1144.47 427.33C1141.61 427.79 1143.43 428.4 1144.4 428.94C1147.07 430.42 1149.75 431.88 1152.43 433.35L1152.42 433.34ZM1264.54 381.87C1264.17 381.59 1263.79 381.31 1263.42 381.03C1264.15 379.93 1264.68 378.59 1265.65 377.77C1268.04 375.75 1268.1 374.31 1265.04 373.09C1263.11 372.32 1261.22 371.46 1259.31 370.64C1259.99 372.56 1260.69 374.47 1261.33 376.4C1261.56 377.11 1261.63 377.87 1261.78 378.6C1261.03 378.45 1260.21 378.44 1259.54 378.12C1250.37 373.77 1241.35 369.17 1234.2 361.69C1233.71 361.18 1232.88 361 1232.21 360.67C1232.16 361.32 1232 361.99 1232.07 362.63C1233.75 376.47 1238.6 388.76 1250.25 397.28C1255.19 400.89 1260.68 403.76 1265.84 407.09C1267.53 408.18 1268.68 408.02 1270.18 406.72C1274.58 402.91 1279.14 399.29 1283.58 395.52C1285.54 393.85 1287.82 384.33 1286.36 383.04C1284.02 380.97 1281.4 379 1278.55 377.82C1277.07 377.21 1274.79 378.24 1272.97 378.81C1270.13 379.7 1267.36 380.84 1264.56 381.87H1264.54ZM1230.15 407.21C1229.88 407.34 1229.62 407.48 1229.35 407.61C1232.96 415.58 1236.19 423.75 1240.28 431.47C1244.58 439.59 1251.05 445.78 1259.84 449.14C1260.84 449.52 1262.49 450.11 1262.96 449.67C1267.08 445.85 1271.77 442.31 1274.76 437.7C1277.57 433.37 1278.57 427.86 1280.2 422.82C1280.42 422.13 1279.86 420.78 1279.23 420.33C1278.25 419.63 1276.79 418.81 1276.17 421.01C1276.04 421.46 1275.53 422.05 1275.1 422.14C1273.29 422.51 1271.3 422.37 1269.64 423.06C1264.14 425.35 1258.78 427.95 1253.33 430.36C1251.75 431.06 1250.04 431.49 1248.39 432.04C1248.31 430.06 1248.13 428.07 1248.21 426.1C1248.24 425.39 1249.02 424.74 1249.22 424C1249.39 423.38 1249.49 422.37 1249.15 422.05C1243.37 416.79 1237.52 411.61 1231.67 406.43C1231.32 406.12 1230.82 405.99 1230.39 405.77C1230.3 406.25 1230.22 406.73 1230.13 407.21H1230.15ZM136.982 279.48C136.812 285.56 140.832 289.94 143.322 294.93C143.452 295.19 145.112 295.19 145.352 294.83C147.772 291.27 150.162 287.67 152.302 283.94C153.612 281.67 151.172 280.97 150.032 279.79C149.572 280.67 149.062 281.54 148.672 282.45C148.412 283.05 148.212 283.72 148.182 284.37C148.082 286.66 147.372 287.04 145.742 285.29C143.142 282.49 140.522 279.71 137.872 276.95C137.552 276.61 137.022 276.48 136.582 276.25C136.552 276.69 136.452 277.13 136.512 277.55C136.602 278.2 136.812 278.84 136.962 279.48H136.982ZM731.632 489.43C731.702 494.37 733.002 495.32 737.022 493.99C738.822 493.4 738.722 493.27 740.802 490C741.382 489.1 743.072 488.94 744.192 488.33C744.722 488.04 745.082 487.46 745.522 487.01C744.982 486.75 744.422 486.52 743.892 486.23C739.852 484.05 736.262 485.58 732.822 487.69C732.142 488.11 731.832 489.14 731.642 489.44L731.632 489.43ZM628.972 442.61C627.412 443.51 625.692 444.07 624.792 445.25C624.452 445.7 625.812 447.72 626.692 448.79C629.642 452.38 632.052 452.3 634.542 448.48C635.022 447.75 635.072 445.87 634.592 445.54C632.902 444.34 630.912 443.58 628.972 442.62V442.61ZM1173.24 454.43C1173.21 453.97 1173.19 453.5 1173.16 453.04C1171.75 452.58 1170.18 451.5 1168.96 451.81C1167.5 452.18 1166.27 453.66 1165.07 454.79C1164.33 455.49 1163.83 456.43 1163.22 457.26C1164.36 457.92 1165.93 459.42 1166.55 459.09C1168.94 457.85 1171.03 456.03 1173.23 454.42L1173.24 454.43ZM1163.22 461.94C1162.78 461.66 1162.36 461.18 1162.09 461.26C1159.2 462.07 1156.31 462.9 1153.51 463.97C1153.31 464.05 1153.76 466.03 1154.11 467.05C1154.16 467.18 1155.58 467.08 1156.16 466.74C1158.13 465.56 1160.02 464.24 1161.92 462.95C1162.33 462.68 1162.7 462.35 1163.22 461.94ZM1249.13 462.77C1248.91 462.41 1248.85 462.21 1248.73 462.14C1246.26 460.87 1243.78 459.6 1241.28 458.38C1241.09 458.29 1240.7 458.59 1240.41 458.71C1241.94 460.64 1243.47 462.57 1245.01 464.5C1245.11 464.63 1245.28 464.85 1245.36 464.82C1246.23 464.58 1247.14 464.39 1247.93 463.99C1248.43 463.74 1248.77 463.15 1249.13 462.76V462.77ZM1181.54 245.03C1181.48 245.13 1181.35 245.26 1181.38 245.33C1181.44 245.46 1181.58 245.55 1181.68 245.66C1181.74 245.46 1181.81 245.25 1181.87 245.05C1181.76 245.05 1181.65 245.05 1181.54 245.03ZM1298.72 316.82C1298.55 316.92 1298.35 317.04 1298.16 317.15C1298.26 317.25 1298.39 317.46 1298.46 317.44C1298.67 317.39 1298.87 317.25 1299.07 317.14C1298.96 317.04 1298.86 316.94 1298.73 316.82H1298.72Z" fill="#101E24"/>
</svg>
