<svg width="1512" height="982" viewBox="0 0 1512 982" fill="none" xmlns="http://www.w3.org/2000/svg">
<path d="M1511.91 305.085C1511.91 529.114 1511.89 753.153 1512 977.182C1512 981.118 1511.12 982 1507.18 982C1006.4 981.895 505.603 981.895 4.81966 982C0.882103 982 -0.010409 981.118 9.11544e-05 977.182C0.105093 775.531 0.0945925 573.89 0.0945925 372.239C3.68564 373.75 7.16119 375.671 10.8782 376.721C25.8094 380.929 41.1502 380.132 56.1234 378.096C63.988 377.025 70.2881 378.169 77.0502 381.391C88.2118 386.702 99.447 391.982 112.173 392.549C118.967 392.853 125.813 393.084 132.533 394.06C137.111 394.721 142.141 395.687 145.816 398.196C149.606 400.788 153.113 401.764 157.418 401.586C161.429 401.418 165.461 401.691 169.472 401.512C175.951 401.229 181.023 397.492 186.504 394.784C185.979 394.239 185.643 394.092 185.317 394.102C183.931 394.165 182.556 394.27 181.17 394.364C182.251 393.609 183.322 392.832 184.425 392.097C185.884 391.142 187.459 390.344 188.814 389.263C191.439 387.164 193.182 384.561 192.951 380.772C191.365 381.79 190.116 383.134 188.698 383.344C187.281 383.553 185.706 382.619 184.194 382.179C185.002 381.297 185.664 379.953 186.661 379.638C190.252 378.494 192.531 376.164 194.169 372.837C191.754 372.638 189.58 372.459 186.756 372.228C191.439 368.24 193.189 363.278 192.006 357.345C191.953 357.103 192.226 356.809 192.331 356.536C193.266 354.269 194.557 352.086 195.03 349.725C195.607 346.849 196.09 343.721 195.534 340.908C194.935 337.895 195.775 335.691 197.266 333.393C197.644 332.815 198.411 332.018 198.253 331.629C196.657 327.746 200.038 325.772 201.739 322.844C203.461 327.158 204.585 331.503 205.425 335.891C205.74 337.56 205.246 339.375 205.425 341.086C205.614 342.776 204.742 344.886 207.252 345.893C208.858 346.544 208.564 347.373 207.84 349.2C206.706 352.055 205.929 356.253 207.262 358.594C209.205 362.005 209.898 366.865 214.644 368.355C215.442 368.607 216.156 369.247 216.765 369.856C217.07 370.16 217.08 370.769 217.217 371.242C216.786 371.284 216.345 371.43 215.936 371.347C213.668 370.906 211.421 370.412 209.163 369.94C208.879 369.709 208.596 369.489 208.312 369.258C208.428 369.657 208.533 370.055 208.648 370.465C209.152 375.503 212.607 378.221 216.576 380.552C215.757 381.15 215.001 382.063 214.088 382.262C213.185 382.462 212.124 381.937 211.127 381.727C211.452 383.05 211.463 384.582 212.177 385.642C213.122 387.038 214.529 388.193 215.894 389.221C218.162 390.932 220.577 392.475 222.918 394.081C221.532 394.648 219.999 395.907 218.781 395.645C215.537 394.963 212.429 393.64 209.247 392.559C209.278 392.475 209.194 392.633 209.152 392.801C207.493 399.571 216.692 399.077 217.049 404.525C217.049 404.609 217.805 404.829 217.994 404.693C220.629 402.814 223.422 401.092 225.743 398.888C226.866 397.818 227.076 395.802 227.706 394.207C226.373 394.354 225.05 394.532 223.716 394.616C223.422 394.637 223.097 394.343 222.792 394.197C223.286 393.367 223.664 392.423 224.315 391.73C225.585 390.355 227.318 389.305 228.284 387.762C229.302 386.125 229.638 384.068 230.279 382.189C228.578 382.672 226.877 383.197 225.165 383.637C224.01 383.931 222.813 384.152 221.627 384.257C221.522 384.257 221.322 383.186 221.165 382.609C224.273 380.531 228.536 379.733 229.029 374.821C229.145 373.698 230.909 372.816 231.612 371.651C232.988 369.363 231.119 369.121 229.565 368.764C229.89 368.198 230.352 367.652 230.52 367.043C230.72 366.266 230.814 365.416 230.709 364.618C230.384 362.099 229.124 359.402 232.526 357.859C232.904 357.691 233.376 356.956 233.282 356.62C232.232 352.59 234.153 348.717 234.132 345.096C234.111 341.37 235.644 339.291 237.45 336.489C238.983 339.858 239.508 343.532 241.073 346.691C242.606 349.808 244.013 352.506 242.102 355.886C241.797 356.432 242.154 357.45 242.406 358.184C244.538 364.419 244.569 365.206 242.753 371.577C242.711 371.724 242.753 371.945 242.837 372.092C244.569 375.367 246.239 378.673 248.087 381.885C248.665 382.882 249.725 383.585 250.576 384.414C249.347 384.729 248.119 385.327 246.9 385.296C244.485 385.233 243.855 386.188 245.514 387.815C247.205 389.473 249.41 390.607 251.321 392.045C252.308 392.79 253.159 393.703 254.083 394.553C252.466 394.942 250.817 395.718 249.242 395.582C247.93 395.467 246.711 394.26 245.178 393.388C245.525 401.344 252.434 402.803 256.582 407.264C252.728 406.645 248.875 406.026 245 405.396C245.924 409.028 247.94 412.407 252.046 414.37C253.253 414.947 255.322 416.438 255.227 416.616C253.442 420.185 256.76 420.185 258.356 420.983C263.827 423.691 269.35 426.325 274.988 428.645C277.487 429.673 280.322 430.335 283.011 430.387C294.55 430.576 306.1 430.566 317.64 430.387C320.16 430.345 322.754 429.589 325.169 428.75C337.664 424.394 349.896 419.083 362.654 415.756C371.201 413.53 379.223 410.623 387.035 406.739C391.057 404.735 395.236 402.961 399.478 401.491C404.235 399.843 409.38 399.172 413.958 397.156C420.94 394.081 427.692 390.512 435.41 389.599C437.94 389.305 440.513 388.959 443.033 389.148C445.511 389.337 447.107 389.074 447.464 386.209C447.653 384.687 448.587 383.26 448.745 381.738C449.427 375.367 453.585 372.942 459.266 371.976C465.976 370.843 472.654 369.394 479.395 368.523C481.579 368.24 484.162 368.932 486.188 369.94C496.52 375.073 504.574 383.071 512.575 391.174C514.528 393.147 517.384 394.501 520.062 395.435C528.094 398.248 536.736 399.759 544.244 403.549C554.208 408.597 564.267 410.277 575.125 409.216C587.924 407.967 600.293 403.118 613.44 404.745C614.217 404.84 615.687 404.451 615.792 404.021C616.863 399.833 621.357 399.739 623.656 397.188C625.536 395.099 626.775 392.433 628.213 390.145C623.73 390.796 619.782 391.363 615.844 391.94C620.454 387.49 627.531 385.737 627.594 377.55C625.998 378.578 624.748 379.922 623.331 380.142C621.913 380.363 620.317 379.471 618.805 379.061C619.582 378.169 620.202 376.804 621.178 376.479C624.717 375.283 627.163 373.131 628.665 369.667C626.334 369.478 624.171 369.289 621.388 369.058C626.162 364.923 627.909 359.969 626.628 354.196C626.565 353.902 627.1 353.482 627.331 353.104C627.835 352.286 628.812 351.404 628.738 350.627C628.245 345.61 630.639 341.055 629.767 335.576C628.99 330.664 633.285 324.954 635.332 319.601H637.012C638.041 323.967 639.175 328.302 640.026 332.7C640.351 334.369 639.784 336.195 640.026 337.895C640.257 339.564 639.27 341.716 641.832 342.724C643.397 343.332 643.218 344.162 642.441 346.019C641.265 348.843 640.519 353.062 641.863 355.403C643.732 358.678 644.174 363.453 648.794 364.912C649.749 365.217 650.589 365.993 651.366 366.676C651.681 366.959 651.681 367.589 651.828 368.061C651.398 368.103 650.957 368.25 650.547 368.177C648.279 367.736 646.032 367.243 643.775 366.77C643.491 366.539 643.207 366.319 642.924 366.088C643.039 366.487 643.145 366.886 643.26 367.295C643.701 371.231 645.969 373.929 649.098 376.143C649.917 376.721 650.358 377.833 650.967 378.704C649.844 378.736 648.468 379.219 647.66 378.736C644.72 376.983 645.675 379.292 645.927 380.363C647.124 385.401 651.86 387.416 656.438 385.117C658.601 384.026 660.953 383.239 663.284 382.588C666.633 381.654 670.487 381.706 673.364 380.037C678.656 376.972 684.022 377.644 689.618 377.623C693.839 377.602 698.774 377.361 702.124 375.22C709.894 370.255 717.234 364.472 724.111 358.3C730.065 352.957 732.49 352.212 739.42 356.432C741.468 357.681 743.662 359.003 745.962 359.496C754.152 361.239 762.416 362.687 770.669 364.115C772.118 364.367 774.197 364.545 775.1 363.747C780.948 358.604 788.046 354.605 791.617 347.237C794.42 341.454 799.292 338.767 805.267 338.147C808.658 337.801 811.063 336.499 813.499 334.264C815.116 332.773 817.541 331.482 819.673 331.356C830.709 330.706 841.797 330.118 852.402 334.4C853.032 334.652 853.809 334.505 854.47 334.705C857.778 335.681 861.17 336.478 864.351 337.78C869.349 339.827 874.179 342.293 879.146 344.403C880.259 344.875 881.687 344.634 882.978 344.718C882.957 343.595 882.999 342.461 882.894 341.349C882.779 340.194 881.981 338.326 882.401 338.021C886.622 334.967 885.278 330.244 886.265 326.234C886.548 325.069 887.252 323.946 887.304 322.781C887.504 318.415 886.842 313.901 887.766 309.713C889.089 303.741 891.525 298.01 893.489 292.174C892.691 297.223 895.148 301.705 896.188 306.428C897.511 312.432 903.097 316.441 902.551 322.97C902.435 324.376 904.546 325.856 904.745 327.42C905.155 330.737 905.291 333.991 908.41 336.143C908.63 336.3 908.578 337.402 908.284 337.675C905.396 340.425 910.636 343.973 907.349 346.628C910.352 348.811 913.072 352.065 916.411 352.926C921.377 354.206 926.039 355.466 930.218 358.615C934.24 361.648 938.388 364.702 942.913 366.865C947.05 368.838 951.817 369.457 956.196 370.99C961.383 372.805 966.328 375.681 971.799 371.43C973.175 370.36 975.464 370.433 977.333 370.034C986.909 367.967 996.159 365.269 1004.77 360.242C1016.07 353.65 1027.86 347.898 1039.23 341.422C1043.01 339.27 1045.76 339.627 1049.27 341.852C1053.04 344.235 1057.18 346.502 1061.46 347.552C1075.25 350.911 1087.71 356.599 1098.76 365.616C1101.02 367.463 1104.64 369.016 1107.38 368.67C1115.62 367.652 1123.84 366.046 1131.85 363.863C1138.34 362.089 1144.49 359.066 1150.85 356.757C1154.24 355.518 1157.84 354.805 1161.19 353.482C1166.05 351.572 1170.61 348.287 1175.6 347.457C1184.55 345.977 1192.7 342.776 1200.82 339.06C1204.59 337.339 1208.57 335.334 1212.57 335.051C1220.52 334.474 1227.47 331.839 1234.07 327.693C1236.43 326.213 1239.15 325.279 1241.39 323.663C1246.19 320.199 1251.44 319.17 1257.21 319.611C1258.88 319.737 1260.98 319.737 1262.23 318.866C1266.64 315.78 1270.84 312.369 1274.97 308.884C1275.88 308.107 1276.16 306.564 1276.72 305.378C1275.45 305.546 1274.19 305.735 1272.92 305.861C1272.66 305.882 1272.38 305.641 1271.59 305.305C1273.66 303.605 1275.67 302.23 1277.28 300.477C1277.87 299.826 1277.83 297.443 1277.45 297.275C1275.14 296.268 1276.42 295.628 1277.33 294.536C1278.01 293.717 1278.67 291.618 1278.51 291.534C1274.22 289.109 1278.66 288.007 1279.21 286.359C1279.76 284.775 1280.86 283.032 1280.57 281.584C1280.03 278.939 1280.81 277.217 1282.66 275.569C1283.16 275.118 1283.77 273.995 1283.55 273.638C1281.93 270.899 1284.57 269.786 1285.41 267.918C1288.95 259.962 1293.78 252.352 1292.75 243C1294.46 248.322 1296.03 253.633 1297.57 258.944C1297.95 260.277 1298.1 261.683 1298.49 263.016C1300.29 269.198 1297.81 276.021 1301.29 281.972C1301.55 282.392 1301.51 283.2 1301.27 283.651C1300.26 285.52 1300.14 285.572 1300.51 285.919C1303.52 288.805 1305.69 291.859 1303.2 296.215C1303.08 296.436 1303.52 297.065 1303.82 297.401C1303.92 297.496 1304.61 297.307 1304.7 297.107C1305.63 295.029 1306.51 292.941 1307.36 290.82C1307.95 289.351 1308.39 287.818 1309 286.37C1309.33 285.604 1310.28 284.953 1310.28 284.239C1310.31 275.255 1312.69 266.837 1315.98 259.468C1318.17 263.74 1320.57 268.548 1323.06 273.313C1324.46 276 1326.4 278.477 1327.35 281.3C1329.12 286.527 1329.03 286.884 1333.61 284.502C1351.12 275.423 1368.59 266.291 1385.89 256.823C1389.61 254.787 1392.31 254.924 1396.02 256.634C1406.13 261.316 1416.5 265.409 1426.75 269.807C1435.85 273.722 1445.07 277.417 1453.96 281.783C1461.14 285.31 1467.54 290.631 1474.94 293.455C1486.96 298.052 1499.5 301.253 1511.83 305.053L1511.91 305.085Z" fill="#019053"/>
</svg>
