<svg width="1728" height="1117" viewBox="0 0 1728 1117" fill="none" xmlns="http://www.w3.org/2000/svg">
<g clip-path="url(#clip0_299_2224)">
<path fill-rule="evenodd" clip-rule="evenodd" d="M1728 372.523V1146.2H0V447.928L9.98764 453.58C10.3744 453.799 10.7948 453.952 11.2318 454.033L28.1441 457.154C28.4095 457.203 28.6791 457.225 28.9491 457.219L61.735 456.572C62.0057 456.567 62.275 456.534 62.5392 456.474L72.7618 454.16C73.4815 453.997 74.2323 454.036 74.931 454.274L81.6761 456.564L95.7407 463.197L114.042 470.318C114.342 470.435 114.655 470.515 114.974 470.556L134.809 473.147L153.753 473.79C154.144 473.803 154.532 473.874 154.903 474L165.342 477.545C165.819 477.707 166.261 477.957 166.645 478.283L170.413 481.483C171.136 482.096 172.054 482.433 173.002 482.433H195.876C196.314 482.433 196.748 482.361 197.163 482.221L200.444 481.107L211.538 476.084C211.953 475.896 212.396 475.78 212.849 475.742L212.982 475.731L214.317 473.253L211.89 474.465L212.8 472.949L207.642 476.284L209.159 474.465L205.517 475.678L207.338 473.859L204 474.162L209.159 472.646L215.531 468.705C219.901 465.795 220.993 460.015 220.993 457.488C219.779 459.914 214.621 462.541 212.193 463.552L213.711 460.52L209.462 462.945L211.89 460.217L208.855 461.429L210.979 459.307L207.642 459.611L213.711 457.185C219.051 455.973 221.802 450.617 222.511 448.091L218.262 450.819L219.476 448.697L215.835 450.516L217.048 448.697L212.497 450.213L214.317 448.697L210.515 449.71C215.585 448.164 220.375 442.809 222.207 440.208L218.869 441.421L221.904 438.389L220.083 438.996L222.207 436.571L225.242 430.204L223.724 431.72L221.6 433.236L218.262 434.448L220.69 432.023L217.048 432.629L220.993 430.204C222.207 429.477 222.511 427.88 222.511 427.173L220.386 427.779L224.028 421.413L220.69 422.322C222.389 421.352 224.635 416.461 225.545 414.137L222.814 415.956L223.421 415.046H221.904L225.242 411.408L223.724 411.712L219.476 412.621L222.814 410.499L224.938 408.377L223.421 408.983L224.028 407.771L221.089 408.838C224.081 407.586 226.701 402.817 227.669 400.495L225.242 402.314L226.152 400.495L224.331 401.101C226.273 399.888 228.782 394.128 229.793 391.4L235.255 401.101L232.828 400.192L233.738 402.314L231.007 400.495L236.773 408.377L234.042 406.861L234.952 408.377L233.131 407.467L237.683 412.621L235.559 411.105L236.469 412.621L233.131 411.408L237.379 417.168L232.221 414.137L234.042 416.562L241.324 422.322L237.379 421.109L238.593 423.232L234.042 419.897L238.897 425.354L237.379 425.051L237.683 426.263L234.648 425.354L240.717 431.417L237.683 429.901V431.417L235.255 429.901L236.166 433.236C236.408 434.448 240.92 438.389 243.145 440.208L239.807 438.086L241.324 440.208L237.076 438.086C239.746 441.482 247.697 446.171 251.338 448.091L248.304 447.484L251.338 450.819L244.662 446.878L245.269 449.606L241.324 445.059L242.538 448.697L239.807 444.756L239.504 446.878L237.379 443.846L237.683 446.272L240.717 453.547L244.966 456.882L251.548 461.743C255.448 459.57 261.772 455.649 264.076 452.714L259.924 454.792L261.407 452.714L258.145 454.792C260.32 453.011 264.728 449.152 264.966 447.964L265.855 444.699L263.483 446.183V444.699L260.517 446.183L266.448 440.246L263.483 441.137L263.779 439.949L262.297 440.246L267.042 434.903L262.593 438.168L263.779 436.091L259.924 437.278L267.042 431.638L268.821 429.263L263.779 432.232L267.931 426.592L264.669 427.779L265.559 426.295L263.483 427.779L267.931 422.733L266.152 423.623L267.042 422.139L264.373 423.623L270.007 415.905L267.338 417.686L268.228 415.608L265.855 416.499L271.193 407C272.182 409.672 274.633 415.312 276.531 416.499L274.752 415.905L275.642 417.686L273.269 415.905C274.216 418.179 276.776 422.849 279.699 424.075L276.828 423.029L277.421 424.217L275.938 423.623L278.014 425.701L281.276 427.779L277.124 426.888L275.642 426.592L278.904 430.154H277.421L278.014 431.044L275.345 429.263C276.235 431.539 278.429 436.328 280.09 437.278L276.828 436.387L280.386 442.621L278.311 442.027C278.311 442.72 278.607 444.283 279.793 444.996L283.648 447.371L280.09 446.777L282.462 449.152L279.2 447.964L277.124 446.48L275.642 444.996L278.607 451.229L280.683 453.604L278.904 453.011L281.869 455.979L278.607 454.792C280.397 457.338 285.079 462.581 290.033 464.095L286.317 463.103L288.097 464.587L283.648 463.103L284.835 464.884L281.276 463.103L282.462 465.181L278.311 462.509C279.002 464.983 281.691 470.227 286.911 471.415L292.842 473.789L289.579 473.493L291.655 475.571L288.69 474.383L291.062 477.055L286.911 474.68L288.393 477.648C286.021 476.659 280.979 474.086 279.793 471.712C279.793 474.185 280.861 479.845 285.131 482.695L291.359 486.554L296.4 488.038L293.138 487.741L294.917 489.522L291.359 488.335L292.842 490.116L287.8 486.851L288.69 488.335L286.317 487.147L288.393 491.006L283.945 487.147L285.428 490.116L279.2 484.476C279.892 487.84 282.462 494.984 287.207 496.646L290.469 498.427L294.324 499.912L291.655 499.615L292.842 501.693L289.876 499.912L291.952 501.989L287.504 500.208L289.876 501.989C289.764 501.973 289.644 501.955 289.517 501.933L294.208 504.323L317.627 515.225C318.156 515.471 318.732 515.599 319.316 515.599H366.746C367.345 515.599 367.942 515.461 368.483 515.204C395.945 502.135 417.39 497.324 425.509 496.437C426.004 496.383 426.488 496.249 426.934 496.029L453.549 482.849C454.101 482.575 454.708 482.439 455.323 482.413C465.411 481.997 479.468 475.067 486.246 471.069C486.88 470.695 487.595 470.494 488.331 470.494H491.339C491.707 470.494 492.073 470.443 492.428 470.342L502.259 467.561C503.136 467.312 504.071 467.371 504.911 467.727L506.633 468.459C507.678 468.902 508.874 468.803 509.832 468.193C510.826 467.56 511.428 466.463 511.428 465.285V463.559C511.428 462.909 511.713 462.291 512.209 461.87C512.705 461.45 512.99 460.832 512.99 460.182V458.735C512.99 458.178 513.107 457.628 513.332 457.118L514.775 453.852C515.137 453.031 515.766 452.355 516.559 451.935L521.024 449.566C521.396 449.368 521.797 449.231 522.212 449.158L550.547 444.224C551.52 444.055 552.522 444.252 553.359 444.777L569.661 455.005C569.906 455.16 570.134 455.34 570.341 455.544L588.797 473.718C589.3 474.213 589.924 474.566 590.607 474.742L614.935 481C615.211 481.071 615.478 481.171 615.732 481.298L632.167 489.543C632.415 489.667 632.673 489.766 632.942 489.834C650.574 494.325 671.954 489.711 681.13 486.631C681.556 486.488 681.995 486.413 682.445 486.413H701.49C702.379 486.413 703.244 486.116 703.946 485.57L706.867 483.297L707.476 482.688L704.442 484.507L705.655 482.385L702.924 482.688L706.869 481.173L710.207 479.354C715.062 477.656 717.692 470.36 718.4 466.924L712.028 472.684L713.545 469.653L708.993 473.594L711.117 469.653L708.69 470.865L709.6 469.349L704.442 472.684L705.959 470.865L702.317 472.078L704.138 470.259L700.8 470.562L705.959 469.046L712.331 465.105C716.701 462.195 717.793 456.415 717.793 453.888C716.58 456.314 711.421 458.941 708.993 459.952L710.511 456.92L706.262 459.345L708.69 456.617L705.655 457.829L707.78 455.707L704.442 456.011L710.511 453.585C715.851 452.373 718.603 447.017 719.311 444.491L715.062 447.219L716.276 445.097L712.635 446.916L713.849 445.097L709.297 446.613L711.117 445.097L707.315 446.11C712.385 444.564 717.175 439.209 719.007 436.608L715.669 437.821L718.704 434.789L716.883 435.396L719.007 432.971L722.042 426.604L720.524 428.12L718.4 429.636L715.062 430.848L717.49 428.423L713.849 429.029L717.793 426.604C719.007 425.877 719.311 424.28 719.311 423.573L717.186 424.179L720.828 417.813L717.49 418.722C719.189 417.752 721.435 412.861 722.345 410.537L719.614 412.356L720.221 411.446H718.704L722.042 407.808L720.524 408.112L716.276 409.021L719.614 406.899L721.738 404.777L720.221 405.383L720.828 404.171L717.889 405.238C720.881 403.986 723.501 399.217 724.469 396.895L722.042 398.714L722.952 396.895L721.131 397.501C723.073 396.288 725.582 390.528 726.593 387.8L732.055 397.501L729.628 396.592L730.538 398.714L727.807 396.895L733.573 404.777L730.842 403.261L731.752 404.777L729.931 403.867L734.483 409.021L732.359 407.505L733.269 409.021L729.931 407.808L734.18 413.568L729.021 410.537L730.842 412.962L738.124 418.722L734.18 417.509L735.393 419.632L730.842 416.297L735.697 421.754L734.18 421.451L734.483 422.663L731.448 421.754L737.517 427.817L734.483 426.301V427.817L732.055 426.301L732.966 429.636C733.208 430.848 737.72 434.789 739.945 436.608L736.607 434.486L738.124 436.608L733.876 434.486C736.546 437.882 744.497 442.571 748.138 444.491L745.104 443.884L748.138 447.219L741.462 443.278L742.069 446.006L738.124 441.459L739.338 445.097L736.607 441.156L736.304 443.278L734.18 440.246L734.483 442.672L737.517 449.947L741.766 453.282L748.745 458.436L743.586 455.707L745.104 457.829L741.159 455.707L743.283 459.042L737.517 454.495L738.124 457.829L739.035 460.558C739.99 462.228 742.551 464.26 745.389 466.135L745.94 466.057C746.882 465.924 747.728 465.437 748.479 464.851C752.854 461.438 762.772 459.408 768.308 458.675C768.947 458.59 769.557 458.365 770.091 458.002L772.466 456.39C772.94 456.067 773.478 455.851 774.043 455.755L780.426 454.671C780.806 454.607 781.194 454.598 781.577 454.644L791.182 455.809C791.682 455.87 792.188 455.835 792.675 455.708L801.308 453.453C801.828 453.317 802.315 453.078 802.741 452.75L827.347 433.76C827.701 433.487 828.006 433.157 828.25 432.784L830.354 429.57C831.225 428.239 832.802 427.55 834.37 427.817L835.362 427.985C835.584 428.023 835.808 428.042 836.032 428.042H839.218C839.979 428.042 840.724 428.259 841.366 428.667L849.109 433.598C849.539 433.871 850.016 434.06 850.516 434.154L882.992 440.281C884.209 440.51 885.463 440.163 886.389 439.342L901.594 425.847C901.936 425.544 902.224 425.183 902.444 424.782L907.034 416.434C907.391 415.783 907.923 415.245 908.569 414.879L916.138 410.596C916.677 410.291 917.278 410.115 917.896 410.082L924.404 409.737C926.723 409.614 928.477 407.298 929.956 405.346L929.973 405.324C930.051 405.221 930.128 405.119 930.204 405.019C930.285 404.913 930.364 404.809 930.443 404.707C931.277 403.628 932.422 402.78 933.479 402.19C934.378 401.688 935.449 401.757 936.441 402.029C942.021 403.56 950.364 402.128 955.47 400.787C956.797 400.439 958.208 400.747 959.4 401.425C965.049 404.642 975.823 406.252 981.696 406.746C982.289 406.796 982.85 406.964 983.372 407.25C989.095 410.387 998.738 414.682 1008.63 418.839L1011.3 414.5L1009.8 415.4L1008.9 416.6L1009.2 411.8L1012.2 407.6L1007.7 412.7L1008.3 409.7L1013.4 404V401L1008.6 404.6L1012.8 398.9V396.2C1013.6 394.9 1015.14 392 1014.9 390.8C1014.66 389.6 1014.6 390.3 1014.6 390.8L1009.8 394.7L1014.3 388.7V387.5L1013.4 384.8L1015.2 381.5V378.8L1012.5 379.1L1016.4 375.8L1016.7 374.6L1014.3 375.5L1014.9 374.6L1018.5 369.5L1020.3 355.4L1022.1 359.6L1020.9 359L1021.2 367.7L1023.9 371.9L1025.7 374.6L1023.9 375.5L1027.8 380.3L1025.7 380L1029.9 386.3L1029 386.6L1034.1 388.1L1029.6 389.3L1032.9 390.8L1029.9 391.4L1035.9 397.1L1031.7 395.6L1035.9 399.5L1033.2 399.8L1035 402.5L1033.8 402.8L1038 406.1L1033.2 404.6L1039.8 408.5C1038.9 409.5 1036.5 411.14 1034.1 409.7L1038.6 413.3L1035.6 413C1037.2 413.9 1040.58 416.12 1041.3 417.8L1038.3 416.6L1036.5 417.8L1036.8 419.9L1044 425.9V427.14L1044.05 427.12C1044.74 426.855 1045.48 426.785 1046.21 426.916L1055.22 428.555C1055.76 428.654 1056.28 428.864 1056.73 429.172L1077.75 443.319C1078.31 443.699 1079.06 443.657 1079.58 443.217C1080 442.858 1080.58 442.758 1081.1 442.957L1102.27 451.072C1103.64 451.595 1105.18 451.333 1106.29 450.387L1107.67 449.218C1108.14 448.815 1108.71 448.528 1109.31 448.381L1135.24 442.093C1135.57 442.012 1135.89 441.889 1136.19 441.726L1191.49 411.91C1192.77 411.222 1194.32 411.278 1195.54 412.056L1205.6 418.462C1205.91 418.657 1206.24 418.809 1206.58 418.914L1235.92 427.855C1236.33 427.979 1236.71 428.165 1237.06 428.409L1258.49 443.464C1258.95 443.792 1259.49 444.016 1260.05 444.121L1265.57 445.164C1266.01 445.246 1266.45 445.255 1266.89 445.191L1288.3 442.057C1288.69 442 1289.07 441.886 1289.43 441.717L1309.4 432.297C1309.79 432.114 1310.2 431.995 1310.62 431.944L1320.28 430.773C1320.71 430.721 1321.12 430.602 1321.51 430.419L1341.47 421.003C1341.84 420.832 1342.22 420.717 1342.62 420.66L1351.05 419.468C1351.28 419.435 1351.51 419.382 1351.73 419.31L1361.55 416.102L1381.31 407.074C1381.68 406.903 1382.08 406.79 1382.49 406.741L1397.51 404.919C1398.02 404.857 1398.51 404.699 1398.96 404.452L1426.29 389.402C1426.88 389.077 1427.54 388.906 1428.22 388.906H1440.57C1441.51 388.906 1442.43 388.569 1443.15 387.956L1445.03 386.367C1445.04 386.353 1445.06 386.339 1445.08 386.326L1443.6 385.068H1447.99L1454.58 381.638L1453.01 382.262L1449.87 382.574L1453.64 380.079L1458.97 375.089L1460.54 370.724L1453.64 373.842V372.283L1461.16 366.046L1461.48 363.863L1459.6 362.616L1456.46 363.863C1457.21 362.117 1460.75 359.809 1462.42 358.874L1459.28 359.186L1463.99 355.443C1461.48 356.94 1458.97 355.236 1458.03 354.196L1464.93 350.142L1459.91 351.701L1464.3 348.271L1463.05 347.959L1464.93 345.153L1462.11 344.841L1466.5 340.787L1462.11 342.346L1468.38 336.421L1465.24 335.797L1468.69 334.238L1463.99 332.991L1469.32 331.432L1468.38 331.12L1472.77 324.571L1470.57 324.883L1474.65 319.893L1472.77 318.958L1474.65 316.151L1477.47 311.786L1477.79 302.742L1476.53 303.366L1478.41 299L1480.3 313.657L1484.06 318.958L1484.69 319.893L1482.18 318.958L1482.49 320.205L1486.57 323.636L1483.75 323.324V326.13L1485.63 329.561L1484.69 332.367V333.614L1489.39 339.851L1484.37 335.797C1484.37 335.278 1484.31 334.55 1484.06 335.797C1483.81 337.045 1485.42 340.059 1486.26 341.411V344.217L1490.65 350.142L1485.63 346.4V349.518L1490.96 355.443L1491.59 358.562L1486.88 353.261L1490.02 357.626L1490.33 362.616L1489.39 361.368L1487.82 360.433L1490.07 364.061L1492.53 362.395L1491.98 361.574L1496.35 356.237L1494.98 356.853L1494.16 357.674L1494.44 354.389L1497.16 351.516L1493.07 355.005L1493.62 352.953L1498.26 349.053V347L1493.89 349.463L1497.71 345.563V343.716C1498.44 342.826 1499.84 340.842 1499.62 340.021C1499.4 339.2 1499.35 339.679 1499.35 340.021L1494.98 342.689L1499.07 338.584V337.763L1498.26 335.916L1499.89 333.658V331.811L1497.44 332.016L1500.98 329.758L1501.26 328.937L1499.07 329.553L1499.62 328.937L1502.89 325.447L1504.53 315.8L1506.16 318.674L1505.07 318.263L1505.35 324.216L1507.8 327.089L1509.44 328.937L1507.8 329.553L1511.35 332.837L1509.44 332.632L1513.26 336.942L1512.44 337.147L1517.07 338.174L1512.98 338.995L1515.98 340.021L1513.26 340.432L1518.71 344.332L1514.89 343.305L1518.71 345.974L1516.26 346.179L1517.89 348.026L1516.8 348.232L1520.58 350.469C1539.12 342.27 1570.05 325.217 1587.86 315.019C1589.02 314.351 1590.44 314.314 1591.64 314.917L1606.9 322.575C1612.89 325.228 1627.38 331.198 1637.38 333.851C1647.26 336.473 1672.71 351.401 1684.62 358.794C1684.9 358.972 1685.2 359.108 1685.53 359.209L1728 372.523ZM717.49 405.383C717.624 405.342 717.757 405.293 717.889 405.238L717.49 405.383ZM706.566 446.309C706.816 446.253 707.066 446.186 707.315 446.11L706.566 446.309ZM290.766 464.291L290.033 464.095C290.277 464.169 290.521 464.235 290.766 464.291ZM280.09 424.217L279.699 424.075C279.829 424.129 279.959 424.177 280.09 424.217ZM220.69 408.983C220.824 408.942 220.957 408.893 221.089 408.838L220.69 408.983ZM209.766 449.909C210.016 449.853 210.266 449.786 210.515 449.71L209.766 449.909ZM1516.26 349.463L1520.57 350.477C1520.22 350.63 1519.88 350.779 1519.54 350.926L1516.26 349.463ZM215.617 475.507L213.981 475.646L216.745 473.253L215.617 475.507ZM219.329 475.192L216.136 475.463L221.6 470.524C221.35 471.74 220.858 473.439 220.113 475.202C219.853 475.173 219.591 475.17 219.329 475.192ZM283.686 500.014L282.472 499.867C281.992 499.235 281.589 498.642 281.276 498.131C281.868 498.871 282.724 499.496 283.686 500.014ZM255.474 490.064L260.521 492.325C260.647 492.177 260.745 492.034 260.814 491.897L262 489.522L262.297 484.476L257.255 490.116L257.848 488.335L255.474 490.064ZM258.738 485.96L255.242 489.96L253.649 489.246L258.738 485.96ZM250.138 486.554L249.134 487.223L248.706 487.031L249.168 486.877L249.214 486.895L249.189 486.87L250.138 486.554ZM247.326 486.413L247.916 486.678C248.011 486.624 248.107 486.571 248.203 486.516L246.786 485.985L242.842 482.651L244.122 484.73L247.326 486.413ZM736.783 471.82H735.985L735.697 466.924L739.29 470.937C738.588 471.502 737.705 471.82 736.783 471.82ZM740.665 469.295L740.401 469.653L739.338 468.44L740.665 469.295ZM1043.69 427.259L1039.28 428.96L1038.9 428.6L1037.4 424.4L1043.69 427.259ZM248.606 486.288C249.113 485.998 249.634 485.694 250.159 485.379H250.124L245.876 483.56L248.606 486.288ZM250.75 485.021C251.046 484.84 251.343 484.656 251.638 484.469H248.911L250.75 485.021ZM251.64 484.469C254.861 482.436 257.969 480.108 259.035 478.242L259.924 475.571L260.517 472.305L256.085 475.808L256.8 476.284L255.897 475.956L254.883 476.758L255.487 475.807L253.801 475.195L253.569 475.32L254.373 477.194L250.785 475.507L250.111 475.864L251.945 478.103L242.538 472.04L246.786 476.891L243.448 474.465L244.055 476.284L238.897 470.524L239.2 475.678L240.414 478.103C241.385 480.043 248.301 483.155 251.64 484.469ZM250.051 475.79L250.57 475.406L249.214 474.768L250.051 475.79ZM253.485 474.076L253.949 474.385L254.451 473.683L254.314 473.637L253.485 474.076ZM253.381 473.326L252.897 473.684L251.338 472.646L253.381 473.326ZM255.783 474.126L254.555 474.789L255.665 475.528L256.421 474.339L255.783 474.126ZM256.132 474.126C256.073 474.096 256.014 474.065 255.954 474.034L256.959 473.493L256.452 474.29C256.348 474.237 256.241 474.182 256.132 474.126ZM253.907 472.937C249.579 470.541 243.787 466.872 242.235 464.158L241.324 461.429L240.717 458.095L246.483 462.642L244.359 459.307L248.304 461.429L246.786 459.307L251.472 461.785C250.984 462.057 250.535 462.3 250.138 462.509L253.104 461.916L250.138 465.181L256.662 461.322L256.069 463.994L259.924 459.541L258.738 463.103L261.407 459.244L261.704 461.322L263.779 458.354L263.483 460.728L260.517 467.853L256.366 471.118L253.907 472.937Z" fill="#019153"/>
</g>
<defs>
<clipPath id="clip0_299_2224">
<rect width="1728" height="1117" fill="white"/>
</clipPath>
</defs>
</svg>
