<svg width="1728" height="1117" viewBox="0 0 1728 1117" fill="none" xmlns="http://www.w3.org/2000/svg">
<g clip-path="url(#clip0_299_1815)">
<path fill-rule="evenodd" clip-rule="evenodd" d="M0 483.364V479L10.8 470L11.4 465.8L7.80002 463.4L1.80002 465.8C3.24001 462.44 10 458 13.2 456.2L7.20001 456.8L16.2 449.6C11.4 452.48 6.60001 449.2 4.80002 447.2L18 439.4L8.40002 442.4L16.8 435.8L14.4 435.2L18 429.8L12.6 429.2L21 421.4L12.6 424.4L24.6 413L18.6 411.8L25.2 408.8L16.2 406.4L26.4 403.4L24.6 402.8L33 390.2L28.8 390.8L36.6 381.2L33 379.4L36.6 374L42 365.6L42.6 348.2L40.2 349.4L43.8 341L47.4 369.2L54.6 379.4L55.8 381.2L51 379.4L51.6 381.8L59.4 388.4L54 387.8V393.2L57.6 399.8L55.8 405.2V407.6L64.8 419.6L55.2 411.8C55.2 410.8 55.08 409.4 54.6 411.8C54.12 414.2 57.2 420 58.8 422.6V428L67.2 439.4L57.6 432.2V438.2L67.8 449.6L69 455.6L60 445.4L66 453.8L66.6 463.4L64.8 461L61.8 459.2L71.4 474.8L70.2 477.2L82.2 488H77.4L70.2 485.6L69 486.8L79.2 495.2L70.8 491L67.8 491.6L81 501.8L78.6 502.4H70.8L71.4 507.2L78.2422 512.962L93.2413 505.39C93.6016 505.208 93.9835 505.072 94.3778 504.986L131.668 496.82C132.002 496.747 132.327 496.638 132.638 496.496L146.076 490.348C147.254 489.809 148.6 489.769 149.807 490.237L220.312 517.553C220.606 517.667 220.911 517.752 221.222 517.806L254.306 523.572C254.899 523.676 255.467 523.89 255.981 524.203L258.352 525.65C259.483 526.34 260.849 526.531 262.127 526.179L289.653 518.596C290.281 518.423 290.952 518.517 291.508 518.856C292.192 519.274 293.041 519.315 293.763 518.966L320.451 506.054C320.913 505.83 321.409 505.682 321.919 505.616L333.963 504.041C334.6 503.958 335.248 504.003 335.868 504.175L344.478 506.563C345.314 506.795 346.188 506.798 347.024 506.567C363.992 501.877 398.616 491.88 412.931 486.199C413.431 486.001 413.943 485.889 414.48 485.858C421.996 485.423 436.408 483.899 443.446 480.784C444.585 480.28 445.843 480.056 447.065 480.297C453.567 481.581 465.076 483.09 472.376 481.449C473.257 481.251 474.177 481.209 475.026 481.52C475.89 481.836 476.833 482.257 477.704 482.777C478.614 483.32 479.594 484.089 480.615 484.89C482.808 486.611 485.189 488.479 487.463 488.566L495.505 488.872C496.063 488.894 496.613 489.012 497.13 489.222L506.949 493.216C507.742 493.538 508.434 494.066 508.953 494.746L514.534 502.04C514.875 502.486 515.292 502.869 515.765 503.171L535.22 515.578C536.178 516.189 537.321 516.44 538.446 516.288L580.29 510.615C580.758 510.552 581.213 510.42 581.642 510.224L591.426 505.747L592.201 504.8L582.001 509.6L583.801 505.4L577.201 507.8L588.001 500.6L577.201 504.2C585.201 500.2 602.161 490.52 606.001 483.8L607.801 478.4L609.001 471.8L597.601 480.8L601.801 474.2L594.001 478.4L597.001 474.2L586.801 479.6L600.601 469.4L609.001 462.8L615.001 448.4L615.601 443.6L611.401 449.6L610.801 445.4L605.401 453.2L607.801 446L600.001 455L601.201 449.6L588.001 457.4L594.001 450.8L588.001 452C595.201 448.2 610.921 438.92 616.201 432.2L607.801 436.4L610.801 432.2L604.201 436.4C608.601 432.8 617.521 425 618.001 422.6L619.801 416L615.001 419V416L609.001 419L621.001 407L615.001 408.8L615.601 406.4L612.601 407L622.201 396.2L613.201 402.8L615.601 398.6L607.801 401L622.201 389.6L625.801 384.8L615.601 390.8L624.001 379.4L617.401 381.8L619.201 378.8L615.001 381.8L624.001 371.6L620.401 373.4L622.201 370.4L616.801 373.4L628.201 357.8L622.801 361.4L624.601 357.2L619.801 359L630.601 339.8C632.601 345.2 637.561 356.6 641.401 359L637.801 357.8L639.601 361.4L634.801 357.8C636.716 362.397 641.896 371.835 647.811 374.313L642.001 372.2L643.201 374.6L640.201 373.4L644.401 377.6L651.001 381.8L642.601 380L639.601 379.4L646.201 386.6H643.201L644.401 388.4L639.001 384.8C640.801 389.4 645.241 399.08 648.601 401L642.001 399.2L649.201 411.8L645.001 410.6C645.001 412 645.601 415.16 648.001 416.6L655.801 421.4L648.601 420.2L653.401 425L646.801 422.6L642.601 419.6L639.601 416.6L645.601 429.2L649.801 434L646.201 432.8L652.201 438.8L645.601 436.4C649.223 441.547 658.695 452.145 668.719 455.205L661.201 453.2L664.801 456.2L655.801 453.2L658.201 456.8L651.001 453.2L653.401 457.4L645.001 452C646.401 457 651.841 467.6 662.401 470L674.401 474.8L667.801 474.2L672.001 478.4L666.001 476L670.801 481.4L662.401 476.6L665.401 482.6C660.601 480.6 650.401 475.4 648.001 470.6C648.001 475.6 650.161 487.04 658.801 492.8L671.401 500.6L681.601 503.6L675.001 503L678.601 506.6L671.401 504.2L674.401 507.8L664.201 501.2L666.001 504.2L661.201 501.8L665.401 509.6L656.401 501.8L659.401 507.8L646.801 496.4C648.201 503.2 653.401 517.64 663.001 521L669.601 524.6L677.401 527.6L672.001 527L673.64 529.868L676.653 530.236C677.183 530.3 677.698 530.453 678.177 530.687L681.565 532.34C682.1 532.601 682.675 532.759 683.267 532.814C690.243 533.457 703.248 535.336 708.751 538.535C709.561 539.007 710.431 539.39 711.363 539.485L714.172 539.771C715.252 539.88 716.262 540.353 717.039 541.111L719.362 543.379C720.259 544.254 721.462 544.743 722.715 544.743H728.647C729.289 544.743 729.922 544.874 730.517 545.113C735.096 546.954 744.64 550.197 753.238 551.238C753.889 551.317 754.521 551.513 755.094 551.833L764.945 557.342C765.316 557.549 765.711 557.706 766.119 557.808L772.201 552.8L771.001 551.6L763.801 554H759.001L771.001 543.2L769.801 540.8L779.401 525.2L776.401 527L774.601 529.4L775.201 519.8L781.201 511.4L772.201 521.6L773.401 515.6L783.601 504.2V498.2L774.001 505.4L782.401 494V488.6C784.001 486 787.081 480.2 786.601 477.8C786.121 475.4 786.001 476.8 786.001 477.8L776.401 485.6L785.401 473.6V471.2L783.601 465.8L787.201 459.2V453.8L781.801 454.4L789.601 447.8L790.201 445.4L785.401 447.2L786.601 445.4L793.801 435.2L797.401 407L801.001 415.4L798.601 414.2L799.201 431.6L804.601 440L808.201 445.4L804.601 447.2L812.401 456.8L808.201 456.2L816.601 468.8L814.801 469.4L825.001 472.4L816.001 474.8L822.601 477.8L816.601 479L828.601 490.4L820.201 487.4L828.601 495.2L823.201 495.8L826.801 501.2L824.401 501.8L832.801 508.4L823.201 505.4L836.401 513.2C834.601 515.2 829.801 518.48 825.001 515.6L834.001 522.8L828.001 522.2C831.201 524 837.961 528.44 839.401 531.8L833.401 529.4L829.801 531.8L830.401 536L844.801 548V551L831.601 545L834.601 553.4L844.096 562.337C847.54 562.061 850.946 561.634 854.247 561.025C854.497 560.979 854.741 560.911 854.98 560.825L875.905 553.282C876.151 553.194 876.404 553.125 876.661 553.078L907.717 547.337C908.401 547.211 909.049 546.937 909.617 546.535L932.984 530C933.236 529.823 933.503 529.669 933.784 529.543L954.77 520.08C955.575 519.718 956.463 519.584 957.339 519.693L993.813 524.257C994.194 524.305 994.568 524.398 994.927 524.535L1000.74 526.75C1001.72 527.127 1002.56 527.82 1003.11 528.721L1004.69 531.278C1005.03 531.838 1005.21 532.483 1005.21 533.14V533.984C1005.21 534.7 1005.59 535.364 1006.2 535.737C1006.81 536.11 1007.18 536.774 1007.18 537.491V538.298C1007.18 539.664 1007.98 540.905 1009.22 541.474L1009.66 541.673C1010.6 542.104 1011.67 542.175 1012.66 541.873L1015.86 540.896C1016.62 540.663 1017.43 540.624 1018.22 540.783L1031.32 543.446C1031.63 543.51 1031.95 543.543 1032.27 543.543H1036.69C1037.35 543.543 1038 543.68 1038.62 543.941C1047.11 547.572 1065.34 554.069 1078.21 554.341C1078.76 554.353 1079.3 554.444 1079.81 554.628L1113.83 566.733C1114.25 566.883 1114.68 566.971 1115.13 567.005C1125.16 567.75 1152.47 572.096 1187.52 584.108C1188.02 584.281 1188.56 584.371 1189.09 584.371H1249.51C1250.03 584.371 1250.55 584.287 1251.04 584.123L1280.81 574.164L1290.05 570.781C1290.45 570.635 1290.86 570.543 1291.28 570.506L1303.89 569.408C1304.25 569.376 1304.6 569.305 1304.95 569.195L1320.73 564.112L1322.4 563L1332.6 553.4L1335.6 545L1322.4 551V548L1336.8 536L1337.4 531.8L1333.8 529.4L1327.8 531.8C1329.24 528.44 1336 524 1339.2 522.2L1333.2 522.8L1342.2 515.6C1337.4 518.48 1332.6 515.2 1330.8 513.2L1344 505.4L1334.4 508.4L1342.8 501.8L1340.4 501.2L1344 495.8L1338.6 495.2L1347 487.4L1338.6 490.4L1350.6 479L1344.6 477.8L1351.2 474.8L1342.2 472.4L1352.4 469.4L1350.6 468.8L1359 456.2L1354.8 456.8L1362.6 447.2L1359 445.4L1362.6 440L1368 431.6L1368.6 414.2L1366.2 415.4L1369.8 407L1373.4 435.2L1380.6 445.4L1381.8 447.2L1377 445.4L1377.6 447.8L1385.4 454.4L1380 453.8V459.2L1383.6 465.8L1381.8 471.2V473.6L1390.8 485.6L1381.2 477.8C1381.2 476.8 1381.08 475.4 1380.6 477.8C1380.12 480.2 1383.2 486 1384.8 488.6V494L1385.6 495.089C1393.8 490.39 1403.6 483.906 1406.4 479L1408.2 473.6L1409.4 467L1398 476L1402.2 469.4L1394.4 473.6L1397.4 469.4L1387.2 474.8L1401 464.6L1409.4 458L1415.4 443.6L1416 438.8L1411.8 444.8L1411.2 440.6L1405.8 448.4L1408.2 441.2L1400.4 450.2L1401.6 444.8L1388.4 452.6L1394.4 446L1388.4 447.2C1395.6 443.4 1411.32 434.12 1416.6 427.4L1408.2 431.6L1411.2 427.4L1404.6 431.6C1409 428 1417.92 420.2 1418.4 417.8L1420.2 411.2L1415.4 414.2V411.2L1409.4 414.2L1421.4 402.2L1415.4 404L1416 401.6L1413 402.2L1422.6 391.4L1413.6 398L1416 393.8L1408.2 396.2L1422.6 384.8L1426.2 380L1416 386L1424.4 374.6L1417.8 377L1419.6 374L1415.4 377L1424.4 366.8L1420.8 368.6L1422.6 365.6L1417.2 368.6L1428.6 353L1423.2 356.6L1425 352.4L1420.2 354.2L1431 335C1433 340.4 1437.96 351.8 1441.8 354.2L1438.2 353L1440 356.6L1435.2 353C1437.12 357.596 1442.3 367.035 1448.21 369.513L1442.4 367.4L1443.6 369.8L1440.6 368.6L1444.8 372.8L1451.4 377L1443 375.2L1440 374.6L1446.6 381.8H1443.6L1444.8 383.6L1439.4 380C1441.2 384.6 1445.64 394.28 1449 396.2L1442.4 394.4L1449.6 407L1445.4 405.8C1445.4 407.2 1446 410.36 1448.4 411.8L1456.2 416.6L1449 415.4L1453.8 420.2L1447.2 417.8L1443 414.8L1440 411.8L1446 424.4L1450.2 429.2L1446.6 428L1452.6 434L1446 431.6C1448.68 435.406 1454.56 442.193 1461.49 446.709L1465.8 442.4L1462.2 443.6L1466.4 438.8L1472.4 426.2L1469.4 429.2L1465.2 432.2L1458.6 434.6L1463.4 429.8L1456.2 431L1464 426.2C1466.4 424.76 1467 421.6 1467 420.2L1462.8 421.4L1470 408.8L1463.4 410.6C1466.76 408.68 1471.2 399 1473 394.4L1467.6 398L1468.8 396.2H1465.8L1472.4 389L1469.4 389.6L1461 391.4L1467.6 387.2L1471.8 383L1468.8 384.2L1470 381.8L1464.19 383.913C1470.11 381.435 1475.29 371.996 1477.2 367.4L1472.4 371L1474.2 367.4L1470.6 368.6C1474.44 366.2 1479.4 354.8 1481.4 349.4L1492.2 368.6L1487.4 366.8L1489.2 371L1483.8 367.4L1495.2 383L1489.8 380L1491.6 383L1488 381.2L1497 391.4L1492.8 388.4L1494.6 391.4L1488 389L1496.4 400.4L1486.2 394.4L1489.8 399.2L1504.2 410.6L1496.4 408.2L1498.8 412.4L1489.8 405.8L1499.4 416.6L1496.4 416L1497 418.4L1491 416.6L1503 428.6L1497 425.6V428.6L1492.2 425.6L1494 432.2C1494.48 434.6 1503.4 442.4 1507.8 446L1501.2 441.8L1504.2 446L1495.8 441.8C1501.08 448.52 1516.8 457.8 1524 461.6L1518 460.4L1524 467L1510.8 459.2L1512 464.6L1504.2 455.6L1506.6 462.8L1501.2 455L1500.6 459.2L1496.4 453.2L1497 458L1503 472.4L1511.4 479L1525.2 489.2L1515 483.8L1518 488L1510.2 483.8L1514.4 490.4L1503 481.4L1504.2 488L1506 493.4C1509.84 500.12 1526.8 509.8 1534.8 513.8L1524 510.2L1534.8 517.4L1528.2 515L1530 519.2L1519.8 514.4L1525.2 521L1506.6 509L1515 518.6L1508.4 513.8L1509.6 517.4L1499.4 506L1500 516.2L1502.4 521C1504.32 524.84 1518 531 1524.6 533.6H1519.2L1525.2 535.4H1521.6L1513.2 531.8L1519.8 538.4L1515 536.6L1507.2 530L1512 537.8L1504.2 532.4L1505.4 537.8L1498.2 531.8L1496.4 533.6L1498.8 536L1507.8 542H1503L1504.27 543.816L1506.76 543.583C1507.05 543.556 1507.33 543.504 1507.6 543.427L1530.81 536.938L1548.53 530.934L1557.42 528.763C1558.05 528.611 1558.7 528.585 1559.33 528.689L1572.79 530.877C1573.02 530.915 1573.25 530.936 1573.49 530.939L1615.11 531.529C1615.34 531.533 1615.57 531.519 1615.81 531.488L1637.49 528.613C1637.89 528.559 1638.29 528.454 1638.66 528.301L1651.8 522.958C1652.5 522.675 1653.25 522.56 1654 522.621L1667.62 523.729H1692.31C1692.91 523.729 1693.5 523.616 1694.06 523.397L1706.46 518.533C1706.82 518.395 1707.18 518.299 1707.56 518.247L1728 515.413V1117.4H0V493.612L6.60001 487.4L9.60001 479L0 483.364ZM1464.19 383.913L1463.4 384.2C1463.67 384.119 1463.93 384.022 1464.19 383.913ZM1448.21 369.513C1448.47 369.622 1448.74 369.719 1449 369.8L1448.21 369.513ZM668.719 455.205C669.212 455.355 669.706 455.488 670.201 455.6L668.719 455.205ZM647.811 374.313C648.073 374.423 648.336 374.519 648.601 374.6L647.811 374.313ZM1398.92 553.149L1400.36 553.501L1400.87 553.155L1396.2 551.6L1395.7 552.102L1398.92 553.149ZM773.401 557.6L772.944 557.953H768.495L770.401 557L773.401 557.6ZM668.401 527.6L671.809 529.645L670.256 529.455L668.401 527.6ZM663.601 528.2L666.232 529.253L665.132 529.349L663.601 528.2ZM651.001 524C653.071 526.588 656.746 528.478 660.352 529.765L655.597 530.18C653.638 527.932 652.063 525.733 651.001 524ZM612.001 506.6L609.953 510.695L609.244 510.302C608.788 510.048 608.375 509.722 608.023 509.336L605.303 506.348C605.03 506.049 604.725 505.789 604.394 505.572L612.601 496.4L612.001 506.6ZM603.601 504.2L603.32 505.043C603.111 504.971 602.897 504.913 602.679 504.87L603.601 504.2ZM605.401 499.4L600.601 504.885L598.712 505.116H596.542L605.401 499.4ZM72.6 515.6L72.9377 515.64L72.7923 515.713L72.6 515.6ZM1404.25 550.447L1407 544.4L1401.6 548L1401.55 548.015L1404.25 550.447ZM1397.8 544.643L1398.6 544.4L1401 539.6L1397 541.6L1396.2 543.2L1397.8 544.643ZM1396.04 538.581L1397.4 537.8L1405.2 533.6L1409.4 527.6H1404.6L1413.6 521.6L1416 519.2L1414.2 517.4L1407 523.4L1408.2 518L1400.4 523.4L1405.2 515.6L1397.4 522.2L1392.6 524L1395 521.6L1399.2 517.4L1394.56 519.39L1395 521.6L1393.46 519.859L1392.04 520.468L1392.6 529.4L1390.8 527L1387.8 525.2L1396.04 538.581ZM1391.86 519.602L1392.95 519.275L1392.88 519.2H1391.57L1391.86 519.602ZM1391.11 517.843C1391.25 517.784 1391.39 517.724 1391.53 517.663L1386 511.4L1390.72 518.007C1390.85 517.953 1390.98 517.898 1391.11 517.843ZM1394 516.579C1400.67 513.577 1408.58 509.45 1410 506.6L1412.4 501.8L1413 491.6L1402.8 503L1404 499.4L1397.4 504.2L1405.8 494.6L1391.87 503.59L1393.2 505.4L1391.29 503.964L1387.2 506.6L1390.09 503.068L1388.55 501.909L1383.62 504.225L1393.8 515.6L1394 516.579ZM1383.6 502L1384.2 500.6L1383.6 500.818V502ZM1383.6 499L1384.17 498.624L1383.6 498.2V499ZM1390.09 501.181L1390.82 502.173L1392.6 500L1390.09 501.181ZM1386.88 496.817L1386.58 496.409L1388.4 495.8L1386.88 496.817ZM1457.59 523.668C1457.12 524.307 1456.62 524.922 1456.11 525.508C1454.1 523.216 1452.48 520.966 1451.4 519.2C1452.86 521.025 1455.12 522.504 1457.59 523.668ZM1465.2 506C1464.69 508.498 1463.66 512.028 1462.09 515.661C1460.54 514.928 1459.12 513.906 1457.81 512.683L1465.2 506ZM1453.2 502.4L1451.37 503.536C1449.27 499.295 1447.92 494.93 1447.27 491.916L1447.46 491.833L1456.31 499.838C1455.38 500.773 1454.35 501.636 1453.2 502.4ZM1459.2 488C1458.53 487.55 1457.89 487.065 1457.29 486.551C1460.3 484.568 1462.93 482.344 1464 480.2C1464 482.476 1463.55 486.086 1462.25 489.888L1459.2 488ZM1456.8 497L1457.94 497.988C1457.81 498.154 1457.68 498.318 1457.54 498.481L1456.8 497ZM1448.4 465.8C1448.4 468.778 1449.17 474.04 1451.61 479.026C1454.51 478.027 1456.97 476.404 1459.02 474.503C1454.59 472.055 1449.92 468.847 1448.4 465.8ZM1467 461.6C1466.65 462.843 1466.05 464.432 1465.19 466.156L1462.8 465.2C1462.58 465.151 1462.37 465.098 1462.16 465.042C1462.04 465.011 1461.92 464.978 1461.8 464.944L1467 461.6ZM1461 462.8L1460.1 464.374C1459.69 464.213 1459.28 464.04 1458.89 463.855L1461 462.8ZM1462.75 450.584C1460.16 453.543 1456.76 456.902 1452.95 459.696C1448.7 455.576 1446.27 450.307 1445.4 447.2L1453.8 452.6L1451.4 448.4L1458.6 452L1456.2 448.4L1462.75 450.584ZM1463.64 449.55C1463.55 449.657 1463.46 449.765 1463.37 449.873L1461.6 448.4L1464.06 449.054C1463.92 449.218 1463.78 449.383 1463.64 449.55ZM1462.58 447.391C1463.22 447.778 1463.86 448.145 1464.52 448.487C1465.25 447.573 1465.89 446.731 1466.4 446L1462.58 447.391Z" fill="#006138"/>
</g>
<defs>
<clipPath id="clip0_299_1815">
<rect width="1728" height="1117" fill="white"/>
</clipPath>
</defs>
</svg>
