<svg width="1728" height="1117" viewBox="0 0 1728 1117" fill="none" xmlns="http://www.w3.org/2000/svg">
<path d="M443.452 83.5031L459.157 55L474.862 83.5031V134.056H443.452V83.5031Z" fill="#019153"/>
<path d="M443.452 83.3106V134.056H453.922V83.3106L459.157 55L443.452 83.3106Z" fill="#06292E"/>
<path d="M364.927 208.838C364.927 158.097 406.061 116.963 456.803 116.963H462.558C513.3 116.963 554.434 158.097 554.434 208.838V208.838H364.927V208.838Z" fill="#06292E"/>
<path fill-rule="evenodd" clip-rule="evenodd" d="M364.91 206.702C364.893 207.412 364.885 208.125 364.885 208.839H554.392C554.392 158.097 513.258 116.963 462.516 116.963H456.761C456.233 116.963 455.707 116.967 455.181 116.976C492.842 125.624 520.93 159.349 520.93 199.633V206.702H364.91Z" fill="#019153"/>
<path d="M357.598 214.18L430.888 208.839V419.298H357.598V214.18Z" fill="#06292E"/>
<path d="M357.598 205.634L430.888 200.292V410.752H357.598V205.634Z" fill="#06292E"/>
<path d="M563.857 205.634L510.46 200.292V410.752H563.857V205.634Z" fill="#06292E"/>
<rect x="430.888" y="200.292" width="79.5719" height="210.46" fill="#06292E"/>
<path d="M563.857 214.18L510.46 208.839V419.298H563.857V214.18Z" fill="#019153"/>
<rect x="430.888" y="208.839" width="79.5719" height="210.46" fill="#064928"/>
<path d="M443.452 261.743C443.452 247.865 454.702 236.615 468.58 236.615V236.615C482.458 236.615 493.708 247.865 493.708 261.743V439.596H443.452V261.743Z" fill="#06292E"/>
<path d="M379.585 259.275C379.585 250.89 386.382 244.093 394.766 244.093V244.093C403.151 244.093 409.948 250.89 409.948 259.275V439.596H379.585V259.275Z" fill="#06292E"/>
<path d="M450.781 286.464C450.781 276.633 458.75 268.665 468.58 268.665V268.665C478.41 268.665 486.379 276.633 486.379 286.464V396.863H450.781V286.464Z" fill="#FCF8B8"/>
<path d="M383.773 286.068C383.773 279.996 388.695 275.074 394.766 275.074V275.074C400.838 275.074 405.76 279.996 405.76 286.068V397.932H383.773V286.068Z" fill="#FCF8B8"/>
<path d="M547.105 286.068C547.105 279.996 542.183 275.074 536.111 275.074V275.074C530.04 275.074 525.118 279.996 525.118 286.068V397.932H547.105V286.068Z" fill="#FCF8B8"/>
<rect x="430.888" y="365.882" width="79.5719" height="63.0311" fill="#019153"/>
<rect x="430.888" y="365.882" width="79.5719" height="63.0311" fill="#064928"/>
<path d="M322 400.298L472.768 392.59V1087H322V400.298Z" fill="#06292E"/>
<path d="M350.269 369.478L424.606 365.882V404.342H350.269V369.478Z" fill="#06292E"/>
<path d="M399.478 429.293L408.901 428.913V463.099H399.478V429.293Z" fill="#FCF8B8"/>
<path d="M386.914 430.349L396.337 429.717V463.1H386.914V430.349Z" fill="#FCF8B8"/>
<path d="M399.478 510.737C399.478 508.209 401.473 506.131 404 506.03V506.03C406.674 505.922 408.901 508.061 408.901 510.737V540.019H399.478V510.737Z" fill="#FCF8B8"/>
<path d="M386.914 510.737C386.914 508.209 388.91 506.131 391.436 506.03V506.03C394.11 505.922 396.337 508.061 396.337 510.737V540.019H386.914V510.737Z" fill="#FCF8B8"/>
<path d="M439.264 510.737C439.264 508.209 441.26 506.131 443.786 506.03V506.03C446.46 505.922 448.687 508.061 448.687 510.737V540.019H439.264V510.737Z" fill="#FCF8B8"/>
<path d="M426.7 510.737C426.7 508.209 428.696 506.131 431.222 506.03V506.03C433.896 505.922 436.123 508.061 436.123 510.737V540.019H426.7V510.737Z" fill="#FCF8B8"/>
<path d="M359.692 510.737C359.692 508.209 361.688 506.131 364.214 506.03V506.03C366.888 505.922 369.115 508.061 369.115 510.737V540.019H359.692V510.737Z" fill="#FCF8B8"/>
<path d="M347.128 510.737C347.128 508.209 349.124 506.131 351.65 506.03V506.03C354.324 505.922 356.551 508.061 356.551 510.737V540.019H347.128V510.737Z" fill="#FCF8B8"/>
<path d="M472.768 392.59L598.408 403.504V1087H472.768V392.59Z" fill="#019153"/>
<path d="M526.165 427.845L534.541 428.416V464.168H526.165V427.845Z" fill="#FCF8B8"/>
<path d="M537.682 428.913L546.058 429.467V464.168H537.682V428.913Z" fill="#FCF8B8"/>
<path d="M526.165 509.247C526.165 506.822 528.218 504.904 530.638 505.069V505.069C532.835 505.219 534.541 507.045 534.541 509.247V541.087H526.165V509.247Z" fill="#FCF8B8"/>
<path d="M537.682 509.247C537.682 506.822 539.735 504.904 542.155 505.069V505.069C544.352 505.219 546.058 507.045 546.058 509.247V541.087H537.682V509.247Z" fill="#FCF8B8"/>
<path d="M563.857 509.247C563.857 506.822 565.91 504.904 568.33 505.069V505.069C570.527 505.219 572.233 507.045 572.233 509.247V541.087H563.857V509.247Z" fill="#FCF8B8"/>
<path d="M575.374 509.247C575.374 506.822 577.427 504.904 579.847 505.069V505.069C582.044 505.219 583.75 507.045 583.75 509.247V541.087H575.374V509.247Z" fill="#FCF8B8"/>
<path d="M488.473 509.247C488.473 506.822 490.526 504.904 492.946 505.069V505.069C495.143 505.219 496.849 507.045 496.849 509.247V541.087H488.473V509.247Z" fill="#FCF8B8"/>
<path d="M499.99 509.247C499.99 506.822 502.043 504.904 504.463 505.069V505.069C506.66 505.219 508.366 507.045 508.366 509.247V541.087H499.99V509.247Z" fill="#FCF8B8"/>
<path d="M329.329 354.857L345.034 326.354L360.739 354.857V405.41H329.329V354.857Z" fill="#06292E"/>
<path d="M560.716 354.857L576.421 326.354L592.126 354.857V405.41H560.716V354.857Z" fill="#019153"/>
<path d="M448.687 347.343L468.58 314.603L488.473 347.343V405.41H448.687V347.343Z" fill="#06292E"/>
<path d="M472.768 347.361V405.41H488.473V347.361L468.58 314.603L472.768 347.361Z" fill="#019153"/>
<rect x="353.41" y="256.913" width="8.37599" height="108.969" fill="#06292E"/>
<rect x="559.669" y="260.118" width="8.37599" height="108.969" fill="#019153"/>
<path d="M518.836 365.882L559.669 369.087V416.093H518.836V365.882Z" fill="#019153"/>
<path d="M379.585 277.29V368.019H372.256V285.343C373.172 278.901 377.142 276.753 379.585 277.29Z" fill="#019153"/>
<path d="M558.622 264.917C557.575 256.883 550.246 254.776 547.105 254.776C536.111 254.776 532.97 263.323 532.97 267.062C537.682 263.857 543.165 264.181 545.534 265.994C547.628 267.596 549.408 270.374 550.246 275.075V368.019H558.622V264.917Z" fill="#06292E"/>
<rect x="454.969" y="505.832" width="3.141" height="581.168" fill="#019153"/>
<rect x="414.136" y="505.832" width="3.141" height="581.168" fill="#019153"/>
<rect x="374.35" y="505.832" width="3.141" height="581.168" fill="#019153"/>
<mask id="path-49-inside-1_299_588" fill="white">
<path d="M339.799 506.517C339.799 496.109 348.237 487.671 358.645 487.671V487.671C369.053 487.671 377.491 496.109 377.491 506.517V511.174H339.799V506.517Z"/>
</mask>
<path d="M339.799 505.017C339.799 493.78 348.908 484.671 360.145 484.671C371.382 484.671 380.491 493.78 380.491 505.017L374.491 506.517C374.491 497.765 367.396 490.671 358.645 490.671C348.237 490.671 339.799 497.765 339.799 506.517V505.017ZM377.491 511.174H339.799H377.491ZM339.799 511.174V487.671V511.174ZM360.145 484.671C371.382 484.671 380.491 493.78 380.491 505.017V511.174H374.491V506.517C374.491 497.765 367.396 490.671 358.645 490.671L360.145 484.671Z" fill="#019153" mask="url(#path-49-inside-1_299_588)"/>
<rect width="3.141" height="581.168" transform="matrix(-1 0 0 1 484.285 505.832)" fill="#06292E"/>
<mask id="path-52-inside-2_299_588" fill="white">
<path d="M511.507 502.852C511.507 494.468 504.71 487.671 496.325 487.671V487.671C487.941 487.671 481.144 494.468 481.144 502.852V511.174H511.507V502.852Z"/>
</mask>
<path d="M511.507 501.352C511.507 492.139 504.038 484.671 494.825 484.671H494.825C485.613 484.671 478.144 492.139 478.144 501.352L484.144 502.852C484.144 496.125 489.598 490.671 496.325 490.671C504.71 490.671 511.507 496.125 511.507 502.852V501.352ZM481.144 511.174H511.507H481.144ZM511.507 511.174V487.671V511.174ZM494.825 484.671C485.613 484.671 478.144 492.139 478.144 501.352V511.174H484.144V502.852C484.144 496.125 489.598 490.671 496.325 490.671L494.825 484.671Z" fill="#06292E" mask="url(#path-52-inside-2_299_588)"/>
<rect width="3.141" height="581.168" transform="matrix(-1 0 0 1 521.977 505.832)" fill="#06292E"/>
<mask id="path-55-inside-3_299_588" fill="white">
<path d="M549.199 502.852C549.199 494.468 542.402 487.671 534.017 487.671V487.671C525.633 487.671 518.836 494.468 518.836 502.852V511.174H549.199V502.852Z"/>
</mask>
<path d="M549.199 501.352C549.199 492.139 541.73 484.671 532.517 484.671H532.517C523.304 484.671 515.836 492.139 515.836 501.352L521.836 502.852C521.836 496.125 527.29 490.671 534.017 490.671C542.402 490.671 549.199 496.125 549.199 502.852V501.352ZM518.836 511.174H549.199H518.836ZM549.199 511.174V487.671V511.174ZM532.517 484.671C523.304 484.671 515.836 492.139 515.836 501.352V511.174H521.836V502.852C521.836 496.125 527.29 490.671 534.017 490.671L532.517 484.671Z" fill="#06292E" mask="url(#path-55-inside-3_299_588)"/>
<rect width="3.141" height="581.168" transform="matrix(-1 0 0 1 559.669 505.832)" fill="#06292E"/>
<mask id="path-58-inside-4_299_588" fill="white">
<path d="M586.891 502.852C586.891 494.468 580.094 487.671 571.709 487.671V487.671C563.325 487.671 556.528 494.468 556.528 502.852V511.174H586.891V502.852Z"/>
</mask>
<path d="M586.891 501.352C586.891 492.139 579.422 484.671 570.209 484.671H570.209C560.996 484.671 553.528 492.139 553.528 501.352L559.528 502.852C559.528 496.125 564.982 490.671 571.709 490.671C580.094 490.671 586.891 496.125 586.891 502.852V501.352ZM556.528 511.174H586.891H556.528ZM586.891 511.174V487.671V511.174ZM570.209 484.671C560.996 484.671 553.528 492.139 553.528 501.352V511.174H559.528V502.852C559.528 496.125 564.982 490.671 571.709 490.671L570.209 484.671Z" fill="#06292E" mask="url(#path-58-inside-4_299_588)"/>
<mask id="path-60-inside-5_299_588" fill="white">
<path d="M379.585 506.517C379.585 496.109 388.023 487.671 398.431 487.671V487.671C408.839 487.671 417.277 496.109 417.277 506.517V511.174H379.585V506.517Z"/>
</mask>
<path d="M379.585 505.017C379.585 493.78 388.694 484.671 399.931 484.671C411.168 484.671 420.277 493.78 420.277 505.017L414.277 506.517C414.277 497.765 407.182 490.671 398.431 490.671C388.023 490.671 379.585 497.765 379.585 506.517V505.017ZM417.277 511.174H379.585H417.277ZM379.585 511.174V487.671V511.174ZM399.931 484.671C411.168 484.671 420.277 493.78 420.277 505.017V511.174H414.277V506.517C414.277 497.765 407.182 490.671 398.431 490.671L399.931 484.671Z" fill="#019153" mask="url(#path-60-inside-5_299_588)"/>
<mask id="path-62-inside-6_299_588" fill="white">
<path d="M420.418 506.517C420.418 496.109 428.856 487.671 439.264 487.671V487.671C449.672 487.671 458.11 496.109 458.11 506.517V511.174H420.418V506.517Z"/>
</mask>
<path d="M420.418 505.017C420.418 493.78 429.527 484.671 440.764 484.671C452.001 484.671 461.11 493.78 461.11 505.017L455.11 506.517C455.11 497.765 448.015 490.671 439.264 490.671C428.856 490.671 420.418 497.765 420.418 506.517V505.017ZM458.11 511.174H420.418H458.11ZM420.418 511.174V487.671V511.174ZM440.764 484.671C452.001 484.671 461.11 493.78 461.11 505.017V511.174H455.11V506.517C455.11 497.765 448.015 490.671 439.264 490.671L440.764 484.671Z" fill="#019153" mask="url(#path-62-inside-6_299_588)"/>
<path d="M560.716 354.665V405.41H571.186V354.665L576.421 326.354L560.716 354.665Z" fill="#06292E"/>
<rect x="1188.87" y="697.304" width="283.395" height="255.895" fill="#019153"/>
<rect x="593.431" y="697.304" width="595.436" height="255.895" fill="#064928"/>
<rect x="1216.78" y="738.337" width="10.9129" height="44.0169" fill="#FCF8B8"/>
<rect x="1216.78" y="721.178" width="10.9129" height="10.4447" fill="#FCF8B8"/>
<rect x="1230.21" y="721.178" width="10.9129" height="10.4447" fill="#FCF8B8"/>
<rect x="1230.21" y="738.337" width="10.9129" height="44.0169" fill="#FCF8B8"/>
<rect x="1251.2" y="738.337" width="10.9129" height="44.0169" fill="#FCF8B8"/>
<rect x="1251.2" y="721.178" width="10.9129" height="10.4447" fill="#FCF8B8"/>
<rect x="1264.63" y="721.178" width="10.9129" height="10.4447" fill="#FCF8B8"/>
<rect x="1264.63" y="738.337" width="10.9129" height="44.0169" fill="#FCF8B8"/>
<rect x="1214.26" y="718.194" width="64.638" height="2.98419" fill="#06292E"/>
<rect x="1213.42" y="718.194" width="3.35782" height="64.1602" fill="#06292E"/>
<rect x="1300.67" y="738.337" width="10.9129" height="44.0169" fill="#FCF8B8"/>
<rect x="1300.67" y="721.178" width="10.9129" height="10.4447" fill="#FCF8B8"/>
<rect x="1314.1" y="721.178" width="10.9129" height="10.4447" fill="#FCF8B8"/>
<rect x="1314.1" y="738.337" width="10.9129" height="44.0169" fill="#FCF8B8"/>
<rect x="1335.09" y="738.337" width="10.9129" height="44.0169" fill="#FCF8B8"/>
<rect x="1335.09" y="721.178" width="10.9129" height="10.4447" fill="#FCF8B8"/>
<rect x="1348.52" y="721.178" width="10.9129" height="10.4447" fill="#FCF8B8"/>
<rect x="1348.52" y="738.337" width="10.9129" height="44.0169" fill="#FCF8B8"/>
<rect x="1298.15" y="718.194" width="64.638" height="2.98419" fill="#06292E"/>
<rect x="1297.31" y="718.194" width="3.35782" height="64.1602" fill="#06292E"/>
<rect x="1384.56" y="738.337" width="10.9129" height="44.0169" fill="#FCF8B8"/>
<rect x="1384.56" y="721.178" width="10.9129" height="10.4447" fill="#FCF8B8"/>
<rect x="1397.99" y="721.178" width="10.9129" height="10.4447" fill="#FCF8B8"/>
<rect x="1397.99" y="738.337" width="10.9129" height="44.0169" fill="#FCF8B8"/>
<rect x="1418.98" y="738.337" width="10.9129" height="44.0169" fill="#FCF8B8"/>
<rect x="1418.98" y="721.178" width="10.9129" height="10.4447" fill="#FCF8B8"/>
<rect x="1432.41" y="721.178" width="10.9129" height="10.4447" fill="#FCF8B8"/>
<rect x="1432.41" y="738.337" width="10.9129" height="44.0169" fill="#FCF8B8"/>
<rect x="1382.05" y="718.194" width="64.638" height="2.98419" fill="#06292E"/>
<rect x="1381.21" y="718.194" width="3.35782" height="64.1602" fill="#06292E"/>
<rect width="10.9129" height="44.0169" transform="matrix(-1 0 0 1 1135.38 738.337)" fill="#FCF8B8"/>
<rect width="10.9129" height="10.4447" transform="matrix(-1 0 0 1 1135.38 721.178)" fill="#FCF8B8"/>
<rect width="10.9129" height="10.4447" transform="matrix(-1 0 0 1 1121.95 721.178)" fill="#FCF8B8"/>
<rect width="10.9129" height="44.0169" transform="matrix(-1 0 0 1 1121.95 738.337)" fill="#FCF8B8"/>
<rect width="10.9129" height="44.0169" transform="matrix(-1 0 0 1 1100.96 738.337)" fill="#FCF8B8"/>
<rect width="10.9129" height="10.4447" transform="matrix(-1 0 0 1 1100.96 721.178)" fill="#FCF8B8"/>
<rect width="10.9129" height="10.4447" transform="matrix(-1 0 0 1 1087.53 721.178)" fill="#FCF8B8"/>
<rect width="10.9129" height="44.0169" transform="matrix(-1 0 0 1 1087.53 738.337)" fill="#FCF8B8"/>
<rect width="64.638" height="2.98419" transform="matrix(-1 0 0 1 1137.9 718.194)" fill="#06292E"/>
<rect width="3.35782" height="64.1602" transform="matrix(-1 0 0 1 1138.74 718.194)" fill="#06292E"/>
<rect width="10.9129" height="44.0169" transform="matrix(-1 0 0 1 1049.44 738.337)" fill="#FCF8B8"/>
<rect width="10.9129" height="10.4447" transform="matrix(-1 0 0 1 1049.44 721.178)" fill="#FCF8B8"/>
<rect width="10.9129" height="10.4447" transform="matrix(-1 0 0 1 1036.01 721.178)" fill="#FCF8B8"/>
<rect width="10.9129" height="44.0169" transform="matrix(-1 0 0 1 1036.01 738.337)" fill="#FCF8B8"/>
<rect width="10.9129" height="44.0169" transform="matrix(-1 0 0 1 1015.02 738.337)" fill="#FCF8B8"/>
<rect width="10.9129" height="10.4447" transform="matrix(-1 0 0 1 1015.02 721.178)" fill="#FCF8B8"/>
<rect width="10.9129" height="10.4447" transform="matrix(-1 0 0 1 1001.59 721.178)" fill="#FCF8B8"/>
<rect width="10.9129" height="44.0169" transform="matrix(-1 0 0 1 1001.59 738.337)" fill="#FCF8B8"/>
<rect width="64.638" height="2.98419" transform="matrix(-1 0 0 1 1051.96 718.194)" fill="#06292E"/>
<rect width="3.35782" height="64.1602" transform="matrix(-1 0 0 1 1052.8 718.194)" fill="#06292E"/>
<rect width="10.9129" height="44.0169" transform="matrix(-1 0 0 1 963.499 738.337)" fill="#FCF8B8"/>
<rect width="10.9129" height="10.4447" transform="matrix(-1 0 0 1 963.498 721.178)" fill="#FCF8B8"/>
<rect width="10.9129" height="10.4447" transform="matrix(-1 0 0 1 950.067 721.178)" fill="#FCF8B8"/>
<rect width="10.9129" height="44.0169" transform="matrix(-1 0 0 1 950.067 738.337)" fill="#FCF8B8"/>
<rect width="10.9129" height="44.0169" transform="matrix(-1 0 0 1 929.082 738.337)" fill="#FCF8B8"/>
<rect width="10.9129" height="10.4447" transform="matrix(-1 0 0 1 929.082 721.178)" fill="#FCF8B8"/>
<rect width="10.9129" height="10.4447" transform="matrix(-1 0 0 1 915.651 721.178)" fill="#FCF8B8"/>
<rect width="10.9129" height="44.0169" transform="matrix(-1 0 0 1 915.651 738.337)" fill="#FCF8B8"/>
<rect width="64.638" height="2.98419" transform="matrix(-1 0 0 1 966.018 718.194)" fill="#06292E"/>
<rect width="3.35782" height="64.1602" transform="matrix(-1 0 0 1 966.857 718.194)" fill="#06292E"/>
<rect width="10.9129" height="44.0169" transform="matrix(-1 0 0 1 877.561 738.337)" fill="#FCF8B8"/>
<rect width="10.9129" height="10.4447" transform="matrix(-1 0 0 1 877.561 721.178)" fill="#FCF8B8"/>
<rect width="10.9129" height="10.4447" transform="matrix(-1 0 0 1 864.13 721.178)" fill="#FCF8B8"/>
<rect width="10.9129" height="44.0169" transform="matrix(-1 0 0 1 864.13 738.337)" fill="#FCF8B8"/>
<rect width="10.9129" height="44.0169" transform="matrix(-1 0 0 1 843.143 738.337)" fill="#FCF8B8"/>
<rect width="10.9129" height="10.4447" transform="matrix(-1 0 0 1 843.143 721.178)" fill="#FCF8B8"/>
<rect width="10.9129" height="10.4447" transform="matrix(-1 0 0 1 829.712 721.178)" fill="#FCF8B8"/>
<rect width="10.9129" height="44.0169" transform="matrix(-1 0 0 1 829.712 738.337)" fill="#FCF8B8"/>
<rect width="64.638" height="2.98419" transform="matrix(-1 0 0 1 880.078 718.194)" fill="#06292E"/>
<rect width="3.35782" height="64.1602" transform="matrix(-1 0 0 1 880.918 718.194)" fill="#06292E"/>
<rect width="10.9129" height="44.0169" transform="matrix(-1 0 0 1 791.621 738.337)" fill="#FCF8B8"/>
<rect width="10.9129" height="10.4447" transform="matrix(-1 0 0 1 791.62 721.178)" fill="#FCF8B8"/>
<rect width="10.9129" height="10.4447" transform="matrix(-1 0 0 1 778.19 721.178)" fill="#FCF8B8"/>
<rect width="10.9129" height="44.0169" transform="matrix(-1 0 0 1 778.19 738.337)" fill="#FCF8B8"/>
<rect width="10.9129" height="44.0169" transform="matrix(-1 0 0 1 757.203 738.337)" fill="#FCF8B8"/>
<rect width="10.9129" height="10.4447" transform="matrix(-1 0 0 1 757.203 721.178)" fill="#FCF8B8"/>
<rect width="10.9129" height="10.4447" transform="matrix(-1 0 0 1 743.772 721.178)" fill="#FCF8B8"/>
<rect width="10.9129" height="44.0169" transform="matrix(-1 0 0 1 743.772 738.337)" fill="#FCF8B8"/>
<rect width="64.638" height="2.98419" transform="matrix(-1 0 0 1 794.139 718.194)" fill="#06292E"/>
<rect width="3.35782" height="64.1602" transform="matrix(-1 0 0 1 794.978 718.194)" fill="#06292E"/>
<rect width="10.9129" height="44.0169" transform="matrix(-1 0 0 1 705.682 738.337)" fill="#FCF8B8"/>
<rect width="10.9129" height="10.4447" transform="matrix(-1 0 0 1 705.682 721.178)" fill="#FCF8B8"/>
<rect width="10.9129" height="10.4447" transform="matrix(-1 0 0 1 692.251 721.178)" fill="#FCF8B8"/>
<rect width="10.9129" height="44.0169" transform="matrix(-1 0 0 1 692.251 738.337)" fill="#FCF8B8"/>
<rect width="10.9129" height="44.0169" transform="matrix(-1 0 0 1 671.264 738.337)" fill="#FCF8B8"/>
<rect width="10.9129" height="10.4447" transform="matrix(-1 0 0 1 671.264 721.178)" fill="#FCF8B8"/>
<rect width="10.9129" height="10.4447" transform="matrix(-1 0 0 1 657.833 721.178)" fill="#FCF8B8"/>
<rect width="10.9129" height="44.0169" transform="matrix(-1 0 0 1 657.833 738.337)" fill="#FCF8B8"/>
<rect width="64.638" height="2.98419" transform="matrix(-1 0 0 1 708.2 718.194)" fill="#06292E"/>
<rect width="3.35782" height="64.1602" transform="matrix(-1 0 0 1 709.039 718.194)" fill="#06292E"/>
<rect x="593.431" y="795.783" width="878.83" height="8.20653" fill="#06292E"/>
<path d="M560.692 681.638H1505L1472.26 697.305H593.431L560.692 681.638Z" fill="#06292E"/>
<path d="M559.669 681.725H1503.98L1329.58 611.596H788.84L559.669 681.725Z" fill="#06292E"/>
<path d="M1329.58 611.596L1505 681.725H1187.84L1329.58 611.596Z" fill="#019153"/>
<rect x="593.431" y="686.114" width="9.20777" height="6.71443" fill="#064928"/>
<rect x="777.587" y="686.114" width="9.20777" height="6.71443" fill="#064928"/>
<rect x="961.741" y="686.114" width="9.20777" height="6.71443" fill="#064928"/>
<rect x="1145.9" y="686.114" width="9.20777" height="6.71443" fill="#064928"/>
<rect x="1330.05" y="686.114" width="9.20777" height="6.71443" fill="#019153"/>
<rect x="685.508" y="686.114" width="9.20777" height="6.71443" fill="#064928"/>
<rect x="869.664" y="686.114" width="9.20777" height="6.71443" fill="#064928"/>
<rect x="1053.82" y="686.114" width="9.20777" height="6.71443" fill="#064928"/>
<rect x="1237.97" y="686.114" width="9.20777" height="6.71443" fill="#019153"/>
<rect x="1422.13" y="686.114" width="9.20777" height="6.71443" fill="#019153"/>
<rect x="611.847" y="686.114" width="9.20777" height="6.71443" fill="#064928"/>
<rect x="796.002" y="686.114" width="9.20777" height="6.71443" fill="#064928"/>
<rect x="980.157" y="686.114" width="9.20777" height="6.71443" fill="#064928"/>
<rect x="1164.31" y="686.114" width="9.20777" height="6.71443" fill="#064928"/>
<rect x="1348.47" y="686.114" width="9.20777" height="6.71443" fill="#019153"/>
<rect x="703.924" y="686.114" width="9.20777" height="6.71443" fill="#064928"/>
<rect x="888.079" y="686.114" width="9.20777" height="6.71443" fill="#064928"/>
<rect x="1072.23" y="686.114" width="9.20777" height="6.71443" fill="#064928"/>
<rect x="1256.39" y="686.114" width="9.20777" height="6.71443" fill="#019153"/>
<rect x="1440.54" y="686.114" width="9.20777" height="6.71443" fill="#019153"/>
<rect x="630.262" y="686.114" width="9.20777" height="6.71443" fill="#064928"/>
<rect x="814.417" y="686.114" width="9.20777" height="6.71443" fill="#064928"/>
<rect x="998.572" y="686.114" width="9.20777" height="6.71443" fill="#064928"/>
<rect x="1182.73" y="686.114" width="9.20777" height="6.71443" fill="#064928"/>
<rect x="1366.88" y="686.114" width="9.20777" height="6.71443" fill="#019153"/>
<rect x="722.339" y="686.114" width="9.20777" height="6.71443" fill="#064928"/>
<rect x="906.495" y="686.114" width="9.20777" height="6.71443" fill="#064928"/>
<rect x="1090.65" y="686.114" width="9.20777" height="6.71443" fill="#064928"/>
<rect x="1274.81" y="686.114" width="9.20777" height="6.71443" fill="#019153"/>
<rect x="1458.96" y="686.114" width="9.20777" height="6.71443" fill="#019153"/>
<rect x="648.677" y="686.114" width="9.20777" height="6.71443" fill="#064928"/>
<rect x="832.833" y="686.114" width="9.20777" height="6.71443" fill="#064928"/>
<rect x="1016.99" y="686.114" width="9.20777" height="6.71443" fill="#064928"/>
<rect x="1201.14" y="686.114" width="9.20777" height="6.71443" fill="#019153"/>
<rect x="1385.3" y="686.114" width="9.20777" height="6.71443" fill="#019153"/>
<rect x="740.756" y="686.114" width="9.20777" height="6.71443" fill="#064928"/>
<rect x="924.91" y="686.114" width="9.20777" height="6.71443" fill="#064928"/>
<rect x="1109.07" y="686.114" width="9.20777" height="6.71443" fill="#064928"/>
<rect x="1293.22" y="686.114" width="9.20777" height="6.71443" fill="#019153"/>
<rect x="667.093" y="686.114" width="9.20777" height="6.71443" fill="#064928"/>
<rect x="851.248" y="686.114" width="9.20777" height="6.71443" fill="#064928"/>
<rect x="1035.4" y="686.114" width="9.20777" height="6.71443" fill="#064928"/>
<rect x="1219.56" y="686.114" width="9.20777" height="6.71443" fill="#019153"/>
<rect x="1403.71" y="686.114" width="9.20777" height="6.71443" fill="#019153"/>
<rect x="759.171" y="686.114" width="9.20777" height="6.71443" fill="#064928"/>
<rect x="943.326" y="686.114" width="9.20777" height="6.71443" fill="#064928"/>
<rect x="1127.48" y="686.114" width="9.20777" height="6.71443" fill="#064928"/>
<rect x="1311.64" y="686.114" width="9.20777" height="6.71443" fill="#019153"/>
<ellipse cx="1266.11" cy="882.746" rx="51.666" ry="50.389" fill="#FCF8B8"/>
<rect x="1214.44" y="881.54" width="103.332" height="71.8465" fill="#FCF8B8"/>
<path fill-rule="evenodd" clip-rule="evenodd" d="M1317.79 882.746V953.387H1285.35V895.889V894.683H1285.33C1284.68 867.411 1261.8 845.5 1233.68 845.5C1232.87 845.5 1232.07 845.518 1231.26 845.554C1240.45 837.358 1252.69 832.357 1266.12 832.357C1294.24 832.357 1317.12 854.269 1317.77 881.541H1317.79V882.746Z" fill="#064928"/>
<path fill-rule="evenodd" clip-rule="evenodd" d="M1317.13 874.748C1313.21 850.711 1291.86 832.34 1266.11 832.34C1258.57 832.34 1251.4 833.916 1244.94 836.75C1281.07 837.14 1301.77 847.519 1317.13 874.748Z" fill="#06292E"/>
<ellipse cx="51.666" cy="50.389" rx="51.666" ry="50.389" transform="matrix(-1 0 0 1 863.54 832.357)" fill="#FCF8B8"/>
<rect width="103.332" height="71.8465" transform="matrix(-1 0 0 1 863.54 881.54)" fill="#FCF8B8"/>
<path fill-rule="evenodd" clip-rule="evenodd" d="M760.193 882.746V953.387H792.635V895.888V894.683H792.649C793.306 867.411 816.179 845.499 844.301 845.499C845.111 845.499 845.917 845.517 846.718 845.553C837.529 837.357 825.293 832.357 811.859 832.357C783.738 832.357 760.864 854.268 760.208 881.54H760.193V882.746Z" fill="#019153"/>
<path fill-rule="evenodd" clip-rule="evenodd" d="M760.854 874.746C764.776 850.71 786.126 832.34 811.875 832.34C819.418 832.34 826.583 833.916 833.044 836.75C796.911 837.14 776.218 847.518 760.854 874.746Z" fill="#019153"/>
<ellipse cx="51.666" cy="50.389" rx="51.666" ry="50.389" transform="matrix(-1 0 0 1 1147.96 832.357)" fill="#FCF8B8"/>
<rect width="103.332" height="71.8465" transform="matrix(-1 0 0 1 1147.96 881.54)" fill="#FCF8B8"/>
<path fill-rule="evenodd" clip-rule="evenodd" d="M1044.61 882.745V953.387H1077.05V895.888V894.683H1077.07C1077.72 867.411 1100.6 845.499 1128.72 845.499C1129.53 845.499 1130.34 845.518 1131.14 845.554C1121.95 837.357 1109.71 832.356 1096.28 832.356C1068.16 832.356 1045.28 854.268 1044.63 881.54H1044.61V882.745Z" fill="#019153"/>
<path fill-rule="evenodd" clip-rule="evenodd" d="M1045.27 874.747C1049.19 850.711 1070.54 832.34 1096.29 832.34C1103.83 832.34 1111 833.916 1117.46 836.75C1081.33 837.14 1060.63 847.519 1045.27 874.747Z" fill="#019153"/>
<ellipse cx="1392.97" cy="882.818" rx="51.666" ry="50.389" fill="#FCF8B8"/>
<rect x="1341.31" y="881.612" width="103.332" height="71.8465" fill="#FCF8B8"/>
<path fill-rule="evenodd" clip-rule="evenodd" d="M1444.65 882.819V953.46H1412.21V895.961V894.755H1412.2C1411.54 867.483 1388.67 845.572 1360.54 845.572C1359.73 845.572 1358.93 845.59 1358.13 845.626C1367.32 837.43 1379.55 832.43 1392.99 832.43C1421.11 832.43 1443.98 854.341 1444.64 881.613H1444.65V882.819Z" fill="#064928"/>
<path fill-rule="evenodd" clip-rule="evenodd" d="M1443.99 874.815C1440.07 850.781 1418.72 832.412 1392.97 832.412C1385.43 832.412 1378.26 833.988 1371.8 836.822C1407.93 837.212 1428.63 847.589 1443.99 874.815Z" fill="#06292E"/>
<ellipse cx="51.666" cy="50.389" rx="51.666" ry="50.389" transform="matrix(-1 0 0 1 736.677 832.43)" fill="#FCF8B8"/>
<rect width="103.332" height="71.8465" transform="matrix(-1 0 0 1 736.677 881.613)" fill="#FCF8B8"/>
<path fill-rule="evenodd" clip-rule="evenodd" d="M633.331 882.819V953.46H665.773V895.962V894.756H665.788C666.444 867.484 689.318 845.573 717.439 845.573C718.249 845.573 719.055 845.591 719.856 845.627C710.667 837.43 698.431 832.43 684.997 832.43C656.876 832.43 634.002 854.341 633.346 881.613H633.331V882.819Z" fill="#019153"/>
<path fill-rule="evenodd" clip-rule="evenodd" d="M633.99 874.821C637.911 850.784 659.261 832.413 685.011 832.413C692.554 832.413 699.72 833.989 706.18 836.823C670.047 837.213 649.354 847.592 633.99 874.821Z" fill="#019153"/>
<ellipse cx="51.666" cy="50.389" rx="51.666" ry="50.389" transform="matrix(-1 0 0 1 1021.1 832.43)" fill="#FCF8B8"/>
<rect width="103.332" height="71.8465" transform="matrix(-1 0 0 1 1021.1 881.613)" fill="#FCF8B8"/>
<path fill-rule="evenodd" clip-rule="evenodd" d="M917.749 882.819V953.46H950.191V895.962V894.756H950.206C950.862 867.484 973.736 845.573 1001.86 845.573C1002.67 845.573 1003.47 845.591 1004.27 845.627C995.085 837.43 982.849 832.43 969.415 832.43C941.294 832.43 918.42 854.341 917.763 881.613H917.749V882.819Z" fill="#019153"/>
<path fill-rule="evenodd" clip-rule="evenodd" d="M918.407 874.822C922.328 850.785 943.679 832.413 969.429 832.413C976.971 832.413 984.136 833.989 990.596 836.822C954.464 837.213 933.771 847.593 918.407 874.822Z" fill="#019153"/>
</svg>
