<svg width="1728" height="1117" viewBox="0 0 1728 1117" fill="none" xmlns="http://www.w3.org/2000/svg">
<g clip-path="url(#clip0_299_997)">
<path fill-rule="evenodd" clip-rule="evenodd" d="M231.443 424.193L208.288 462.242L204.429 468.957L219.866 462.242L217.936 471.195L192.852 495.814L210.218 493.576V513.72L198.641 538.339L204.429 558.483V567.436L175.486 612.199L206.359 583.103C206.359 579.372 206.745 574.15 208.288 583.103C209.832 592.055 199.927 613.691 194.782 623.389V629.977C179.353 620.17 156.724 604.738 155.338 599.528L149.38 583.098L165.269 590.566V583.098L185.131 590.566L145.407 560.693L165.269 565.174L163.283 559.199L173.214 560.693L141.435 533.806L171.228 550.237L163.283 539.781L189.104 545.756L141.435 517.376L129.518 505.426L163.283 520.363L135.476 491.983L157.324 497.958L151.366 490.489L165.269 497.958L135.476 472.565L147.393 477.046L141.435 469.578L159.311 477.046L121.573 438.211L139.449 447.173L133.49 436.717L149.38 441.198L113.628 393.4C107.007 406.843 90.5879 435.223 77.8761 441.198L89.7934 438.211L83.8348 447.173L99.7244 438.211C93.3845 449.653 76.238 473.149 56.6567 479.319L54.0417 480.034C54.9176 479.831 55.7895 479.592 56.6567 479.319L75.8899 474.059L71.9175 480.034L81.8486 477.046L67.9451 487.502L46.0968 497.958L73.9037 493.477L83.8348 491.983L61.9865 509.907H71.9175L67.9451 514.388L85.821 505.426C79.8624 516.878 65.1644 540.976 54.0417 545.756L75.8899 541.275L52.0555 572.642L65.9589 569.655C65.9589 573.14 63.9727 581.007 56.0279 584.592L30.2072 596.541L54.0417 593.554L38.152 605.503L60.0003 599.528L73.9037 592.06L83.8348 584.592L63.9727 615.959L50.0692 627.908L61.9865 624.921L42.1244 639.858L63.9727 633.883C51.9829 646.696 20.6259 673.079 -12.556 680.697L-17.4618 681.681C-15.8235 681.401 -14.1876 681.072 -12.556 680.697L12.3313 675.706L0.414093 683.175L30.2072 675.706L22.2624 684.668L46.0968 675.706L38.152 686.162L65.9589 672.719C61.3244 685.166 43.3161 711.555 8.35892 717.529L-31.3652 729.479L-9.51697 727.985L-23.4204 738.441L-3.55832 732.466L-19.448 745.909L8.35892 733.96L-1.57211 748.897C14.3175 743.918 48.083 730.973 56.0279 719.023C56.0279 731.471 48.8775 759.95 20.2762 774.289L-21.4342 793.707L-55.1997 801.176L-33.3514 799.682L-45.2687 808.644L-21.4342 802.669L-31.3652 811.632L2.4003 795.201L-3.55832 802.669L12.3313 796.695L-1.57211 816.113L28.221 796.695L18.2899 811.632L60.0003 783.252C55.3658 800.18 38.152 836.128 6.37271 844.493L-15.4756 853.455L-41.2963 860.923L-23.4204 859.429L-31.3652 869.885L-11.5032 860.923L-25.4066 871.379L4.38651 862.417L-11.5032 871.379C2.4003 869.885 33.3851 863.911 46.0968 851.961C33.5175 867.396 -0.777649 897.668 -37.3239 895.278L-11.5032 898.265L-33.3514 911.708L-5.54453 905.734L-17.4618 919.177L10.3451 907.227L-15.4756 931.126L34.1796 919.177L9.40786 941.946L1.45544 941.604L-19.2003 942.196V1184.2L1784.4 1184.2V935.8L1764.38 937.754L1732.11 910.588L1730.24 895.651H1754.52L1762 893.784L1720.9 862.043L1730.24 860.176L1756.39 873.246L1724.63 847.107L1728.37 843.372L1750.79 850.841H1765.73L1728.37 817.233L1732.11 809.764L1702.21 761.22L1711.56 766.821L1717.16 774.289L1715.29 744.416L1696.61 718.276L1724.63 750.017L1720.9 731.346L1689.14 695.871V677.2L1719.03 699.605L1692.87 664.13V647.326C1687.89 639.236 1678.3 621.187 1679.8 613.718C1681.29 606.25 1681.66 610.607 1681.66 613.718L1711.56 637.991L1683.53 600.649V593.18L1689.14 576.376L1677.93 555.838V539.034L1694.74 540.901L1670.46 520.363L1668.59 512.895L1683.53 518.496L1679.8 512.895L1657.38 481.154L1646.17 393.4L1634.96 419.539L1642.43 415.805L1640.56 469.951L1623.75 496.091L1612.54 512.895L1623.75 518.496L1599.46 548.37L1612.54 546.503L1586.39 585.712L1591.99 587.579L1560.23 596.914L1588.26 604.383L1567.71 613.718L1586.39 617.453L1549.02 652.928L1575.18 643.592L1549.02 667.864L1565.84 669.732L1554.63 686.535L1562.1 688.403L1535.95 708.941L1565.84 699.605L1524.74 723.878C1530.34 730.101 1545.29 740.308 1560.23 731.346L1532.21 753.751L1550.89 751.884C1545.41 754.968 1536.56 760.542 1528.97 766.675L1521.78 759.514L1536.04 760.805L1510.11 750.473C1487.29 745.306 1475.54 722.488 1472.51 711.725L1490.66 723.349L1485.48 714.308L1501.04 722.058L1495.85 714.308L1515.3 720.766L1507.52 714.308L1523.76 718.624C1524.83 718.948 1525.9 719.233 1526.97 719.475L1523.76 718.624C1502.1 712.037 1481.63 689.224 1473.81 678.144L1488.07 683.31L1475.1 670.395L1482.88 672.978L1473.81 662.645L1460.84 635.522L1467.32 641.98L1476.4 648.438L1490.66 653.604L1480.29 643.271L1495.85 645.855L1478.99 635.522C1473.81 632.422 1472.51 625.62 1472.51 622.606L1481.59 625.189L1466.03 598.066L1480.29 601.941C1473.03 597.808 1463.44 576.97 1459.55 567.068L1471.21 574.818L1468.62 570.943H1475.1L1460.84 555.444L1467.32 556.736L1485.48 560.61L1471.21 551.569L1462.14 542.528L1468.62 545.111L1466.03 539.945L1478.58 544.493C1479.15 544.729 1479.72 544.936 1480.29 545.111L1478.58 544.493C1465.8 539.159 1454.61 518.842 1450.47 508.947L1460.84 516.697L1456.95 508.947L1464.73 511.53C1456.43 506.364 1445.72 481.824 1441.39 470.2L1418.06 511.53L1428.43 507.656L1424.54 516.697L1436.21 508.947L1411.57 542.528L1423.24 536.07L1419.35 542.528L1427.13 538.654L1407.68 560.61L1416.76 554.153L1412.87 560.61L1427.13 555.444L1408.98 579.984L1431.02 567.068L1423.24 577.401L1392.12 601.941L1408.98 596.775L1403.79 605.816L1423.24 591.608L1402.5 614.857L1408.98 613.565L1407.68 618.732L1420.65 614.857L1394.72 640.688L1407.68 634.23V640.688L1418.06 634.23L1414.17 648.438C1413.13 653.604 1393.85 670.395 1384.35 678.144L1398.61 669.103L1392.12 678.144L1410.28 669.103C1398.87 683.569 1364.9 703.545 1349.34 711.725L1362.3 709.142L1349.34 723.349L1377.86 706.559L1375.27 718.183L1392.12 698.809L1386.94 714.308L1398.61 697.518L1399.9 706.559L1408.98 693.643L1407.68 703.976L1394.72 734.974L1376.57 749.181L1346.75 771.138L1368.79 759.514L1362.3 768.555L1379.16 759.514L1370.08 773.721L1394.72 754.347L1392.12 768.555L1388.24 780.179C1384.71 786.331 1376.05 793.634 1365.94 800.66L1350 796.486L1372.5 793.028L1347 788.705L1351.5 787.841L1330.5 769.687L1341 770.551L1321.5 756.72L1330.5 754.126L1321.5 746.346L1308 734.243V721.6V718.6L1301.4 721.6L1294.5 739.43L1276.5 754.126L1273.5 756.72L1285.5 754.126L1284 757.584L1264.5 767.093L1278 766.229V774.009L1269 783.518L1273.5 791.299V794.757L1251 812.046L1275 800.808C1275 799.367 1275.3 797.35 1276.5 800.808C1277.7 804.266 1270 812.622 1266 816.368V824.149L1245 840.574L1269 830.2V838.845L1243.5 855.27L1240.5 863.914L1263 849.218L1248 861.321L1246.5 875.153L1251 871.695L1258.5 869.101L1234.5 891.578L1237.5 895.036L1207.5 910.596H1219.5L1237.5 907.138L1240.5 908.867L1215 920.97L1236 914.918L1243.5 915.783L1210.5 930.479L1216.5 931.343H1236L1234.5 938.259L1216.64 946.926L1177.12 942.002L1134.53 938.621L1062.33 940.212L1047.94 941.178C1047.66 941.197 1047.38 941.246 1047.11 941.323L1042.4 942.672C1042.14 942.746 1041.96 942.982 1041.96 943.251C1041.96 943.558 1041.73 943.816 1041.42 943.849L1038.94 944.116C1038.55 944.157 1038.26 944.485 1038.26 944.876C1038.26 945.274 1037.95 945.606 1037.56 945.638L1030.85 946.178L1019.75 945.581L991.974 946.575H989.151L990.969 944.481L974.605 929.164L979.719 930.931L982.787 933.288L981.764 923.862L971.537 915.614L986.878 925.629L984.832 919.738L967.446 908.544V902.653L983.81 909.723L969.492 898.529V893.227C966.764 890.674 961.514 884.98 962.332 882.623C963.151 880.267 963.355 881.641 963.355 882.623L979.719 890.282L964.378 878.499V876.143L967.446 870.841L961.31 864.36V859.058L970.514 859.647L957.219 853.167L956.196 850.81L964.378 852.578L962.332 850.81L950.06 840.795L945.355 828.644L940.855 826.6V828.644V837.261L931.651 845.508L925.514 850.81L931.651 852.578L918.355 862.004L925.514 861.415L911.196 873.786L914.264 874.375L896.878 877.321L912.219 879.677L900.969 882.623L911.196 883.801L890.742 894.995L905.06 892.049L890.986 899.577C884.94 896.176 877.954 893.094 873.602 891.38L888.602 892.431L866.102 879.829C878.102 884.869 890.102 879.128 894.602 875.628L861.602 861.976L885.602 867.226L864.602 855.674L870.602 854.624L861.602 845.173L875.102 844.123L854.102 830.47L875.102 835.721L845.102 815.768L860.102 813.667L843.602 808.417L866.102 804.216L840.602 798.965L845.102 797.915L824.102 775.861L834.602 776.911L815.102 760.109L824.102 756.958L815.102 747.506L801.602 732.804V717.445V713.8L795.002 717.445L788.102 739.105L770.102 756.958L767.102 760.109L779.102 756.958L777.602 761.159L758.102 772.711L771.602 771.66V781.112L762.602 792.664L767.102 802.116V806.316L757.199 815.56L739.202 806.784L737.702 803.326L749.702 805.92L746.702 803.326L728.702 788.63L721.802 770.8L715.202 767.8V770.8V783.443L701.702 795.546L692.702 803.326L701.702 805.92L682.202 819.751L692.702 818.887L671.702 837.041L676.202 837.905L650.702 842.227L673.202 845.685L656.702 850.008L671.702 851.737L641.702 868.162L662.702 863.839L641.702 875.077L655.202 875.942L646.202 883.722L652.202 884.587L631.202 894.096L655.202 889.773L622.202 901.012C626.702 903.893 638.702 908.619 650.702 904.47L628.202 914.843L643.202 913.979C635.202 916.572 618.302 922.969 614.702 927.81L629.702 924.352L638.702 927.81L637.202 933.862L601.202 951.151V955.474L634.202 946.829L626.702 958.931L624.553 960.097H580.955L523.56 956.717L505.046 955.523L479.126 955.126L432.643 952.491L443.693 950.161L457.2 936.732H430.186L389.666 912.112L399.313 916.588L418.609 918.826L395.454 900.921L362.652 865.111L353.004 833.776L395.454 856.158V844.967L349.145 800.204L347.216 784.537L358.793 775.584L378.088 784.537C373.458 772.003 351.718 755.441 341.427 748.726L360.723 750.964L331.779 724.107C347.216 734.85 362.652 722.615 368.441 715.154L325.991 686.058L356.863 697.249L329.85 672.629L337.568 670.391L325.991 650.247L343.357 648.009L316.343 618.913L343.357 630.104L304.766 587.579L324.061 583.103L302.836 571.912L331.779 562.959L298.977 551.768L304.766 549.53L277.752 502.529L291.259 504.767L266.175 468.957L277.752 462.242L266.175 442.099L248.809 410.764L246.879 345.858L254.598 350.334L243.02 319L231.443 424.193ZM58.0141 944.62V941.582L50.9277 944.247L53.2958 944.388L58.0141 944.62ZM1477.97 951.348H1477.7V944.209L1480.52 945.613L1477.97 951.348ZM1741.4 939.998L1753.56 938.811L1735.84 936.728L1741.4 939.998ZM179.173 623.427L194.782 630.897V643.533L193.968 644.814C180.29 637.509 168.143 629.98 161.297 623.427L189.104 633.883L179.173 623.427ZM198.641 666.058L194.694 662.633L192.211 664.793L197.049 675.706L189.319 667.31L174.419 680.272L184.967 699.308L198.641 681.582V666.058ZM179.173 656.288L183.614 661.113L173.033 677.77L165.269 663.757L163.283 651.807L177.186 666.744L179.173 656.288ZM1509.54 944.668L1511.82 947.437L1515.4 942.329L1509.54 944.668ZM1503.66 888.46L1503.61 888.414L1504.19 888.183L1503.66 888.46ZM1495.93 880.613L1498.58 878.847L1500.47 877.069C1494.51 874.459 1488.95 871.039 1485.48 866.715C1487.87 870.598 1491.46 875.568 1495.93 880.613ZM1515.81 862.647L1530.34 848.974L1538.21 826.964L1533.81 825.503L1531.58 826.513L1536.04 831.842L1529.35 827.528L1515.56 833.795L1516.59 835.717L1514.78 834.148L1498.58 841.505V832.17L1501.39 829.828L1476.4 807.302C1479.43 821.94 1490.66 853.024 1511.41 860.257L1515.81 862.647ZM1502.26 829.11L1505.66 826.276L1497.15 818.926L1502.26 829.11ZM1509.68 822.927L1511.88 821.097L1507.52 818.926L1509.68 822.927ZM1514.68 818.763L1515.15 818.374L1514 817.635L1514.68 818.763ZM1538.99 823.151L1539.42 823.579L1539.68 822.834L1538.99 823.151ZM1522.68 812.1L1502.33 799.553C1483.66 787.153 1478.99 762.527 1478.99 751.764C1484.18 762.097 1506.22 773.29 1516.59 777.596L1510.11 764.68L1522.93 771.975C1519.46 775.33 1516.71 778.689 1515.4 781.758L1534.08 774.289L1545.29 781.758L1543.42 794.828L1522.68 812.1ZM1524.35 770.632C1525.53 769.558 1526.76 768.488 1528.04 767.433L1517.89 763.388L1524.35 770.632ZM1365.57 800.915L1351.5 802.537L1357.87 806.025C1360.49 804.354 1363.07 802.643 1365.57 800.915ZM1379.49 818.548L1381.5 818.962L1380.07 818.177L1386.94 813.76L1377.96 823.983L1374.18 821.96L1379.49 818.548ZM1380.5 825.942L1381.5 825.878L1380.97 825.596L1383.05 824.093L1380.46 831.842L1402.5 807.302L1401.2 829.259L1396.01 839.591C1395.25 841.12 1393.61 842.819 1391.36 844.608L1371 835.387L1377 834.522L1373.19 831.232L1380.5 825.942ZM1375.98 826.231L1368 826.742L1372.28 830.445L1375.98 826.231ZM1391.19 844.75L1368 840.574L1387.68 847.276C1388.96 846.42 1390.14 845.576 1391.19 844.75ZM1373.19 855.5C1373.09 855.467 1372.99 855.433 1372.88 855.399C1372.75 855.357 1372.63 855.314 1372.5 855.27L1373.1 855.546L1373.19 855.5ZM1383.83 860.493L1384.51 860.805L1385.64 858.965L1383.83 860.493ZM1381.98 864.893L1380 864.779C1380.53 864.951 1381.1 865.14 1381.7 865.343L1381.98 864.893ZM1387.41 867.385L1390.32 865.374L1391.83 865.461L1391.08 868.815C1389.84 868.314 1388.6 867.836 1387.41 867.385ZM1395.6 870.719C1397.63 871.616 1399.59 872.55 1401.37 873.491L1403.79 871.881L1408.98 866.715L1405.09 862.84L1395.6 870.719ZM1397.48 876.071L1393.5 875.153L1384.5 878.611L1385.8 883.834L1397.48 876.071ZM1386.28 884.797L1392.59 887.826L1394.72 884.797H1386.28ZM1392.09 864.3L1391.96 864.243L1392.12 864.131L1392.09 864.3ZM745.202 815.429L756.561 816.156L746.986 825.094L745.202 823.209V815.429ZM754.202 832.718L747.521 825.659L768.602 813.667C768.602 811.917 768.902 809.467 770.102 813.667C771.302 817.868 763.602 828.02 759.602 832.571V842.022L754.05 847.297L749.702 843.956V840.498L754.202 832.718ZM748.202 850.008L750.209 850.947L747.394 853.622C746.692 852.19 746.383 850.926 746.702 850.008C747.902 846.55 748.202 848.567 748.202 850.008ZM755.175 853.273L749.109 856.458C751.184 859.427 754.131 862.595 756.357 864.761L762.602 859.875V856.751L755.175 853.273ZM759.126 851.198L762.602 853.869V849.373L759.126 851.198ZM896.685 903.114C895.069 901.982 893.226 900.846 891.279 899.742L899.946 900.297L896.685 903.114ZM887.102 903.983L896.783 906.694L883.582 912.668L899.946 909.723L880.807 916.237L879.602 915.535L878.102 908.183L887.102 903.983ZM891.251 922.331L888.637 920.806C891.245 920.968 894.061 920.711 896.878 919.738L891.251 922.331ZM887.075 940.055L883.881 933.795L888.696 935.644L887.673 939.768L887.075 940.055Z" fill="#0F1E24"/>
</g>
<defs>
<clipPath id="clip0_299_997">
<rect width="1728" height="1120" fill="white"/>
</clipPath>
</defs>
</svg>
