<svg width="1512" height="982" viewBox="0 0 1512 982" fill="none" xmlns="http://www.w3.org/2000/svg">
<path d="M0 426.941C0 425.546 0 424.14 0 422.744C2.58325 420.961 5.156 419.166 7.74975 417.393C9.55593 416.165 10.1965 414.34 9.45092 412.493C8.64234 410.51 6.77316 410.048 4.72546 410.793C4.44193 410.479 4.1584 410.164 3.88538 409.839C5.92258 408.002 7.95977 406.166 9.96547 404.362C9.2829 404.11 8.50583 403.826 7.64474 403.512C9.14639 402.137 10.5325 400.878 12.0027 399.525C9.80795 398.801 7.86527 398.318 6.06959 397.531C4.51544 396.838 4.62045 395.768 6.03809 394.887C7.95977 393.701 9.92346 392.568 11.8347 391.351C11.9922 391.246 11.8872 390.711 11.8977 390.386C10.5325 390.449 9.59793 390.102 11.1626 388.917C12.7692 387.7 13.2418 386.241 13.6618 384.311C14.0714 382.411 16.1296 380.691 12.4332 380.219C13.1473 379.148 13.7668 377.994 14.5859 377.018C15.5625 375.854 15.5835 375.99 14.2079 374.679C13.9454 374.427 14.1449 373.231 14.5229 372.853C16.5916 370.744 18.7758 368.74 20.9705 366.652C19.7419 365.97 18.7233 365.414 17.5787 364.784C18.8283 363.903 19.8259 363.2 21.0125 362.36C19.0068 361.668 17.3792 361.112 15.636 360.514C17.9042 359.265 20.4035 358.552 21.8841 356.915C24.0578 354.512 25.528 351.448 27.2607 348.647C27.6177 348.07 27.8592 347.409 28.1532 346.779C24.2574 345.352 27.8277 344.125 28.3213 342.928C29.1823 340.84 33.3302 339.424 29.5499 336.402C29.4134 336.287 29.9384 335.185 30.2954 334.629C31.3245 333.013 32.2906 331.334 33.5193 329.876C38.3077 324.168 37.2996 317.254 36.6801 310.885C36.3965 308.041 36.9111 306.667 38.4232 304.421C39.2213 310.339 40.3239 315.659 40.5549 321.02C40.7755 326.036 42.6131 330.075 45.6899 333.811C46.9396 335.321 46.8136 335.395 45.4904 337.588C45.2804 337.945 45.2699 338.711 45.5114 338.973C46.3305 339.865 47.5066 340.473 48.1577 341.46C48.6512 342.205 53.1877 343.883 47.8952 344.303C47.6326 344.324 47.1811 345.531 47.2966 346.076C47.7481 348.059 48.4202 349.99 48.9663 351.952C49.3233 353.222 50.2999 354.879 49.8378 355.74C47.6641 359.758 49.7118 362.717 51.7595 365.791C51.476 366.169 51.182 366.547 50.8984 366.925C50.1109 366.578 49.3233 366.232 48.5357 365.886C48.4832 366.694 48.1682 367.596 48.4202 368.31C49.3233 370.912 50.9825 373.388 51.2765 376.032C51.56 378.634 52.3581 380.67 53.9122 382.621C54.6893 383.597 55.2564 384.741 56.569 386.85C53.8492 385.391 52.3266 384.583 50.7619 383.744C49.8168 386.797 50.7829 388.833 52.6311 390.732C54.6998 392.862 56.779 395.023 58.4907 397.437C59.2573 398.528 59.5408 401.434 59.3623 401.497C56.863 402.347 58.1442 404.288 57.9026 405.747C57.7661 406.554 57.5876 408.055 57.4196 408.055C54.3953 408.055 55.9914 409.471 56.611 410.563C56.9575 411.171 57.3671 411.738 57.6821 412.367C59.3413 415.704 61.284 418.778 62.4496 422.524C63.4682 425.798 67.7841 428.053 70.6509 430.76C70.5039 431.086 70.3673 431.411 70.2203 431.726C67.175 431.201 64.1297 430.676 60.6329 430.068C62.9431 432.922 62.9011 432.88 61.0739 434.517C60.8114 434.748 60.9899 435.986 61.3575 436.3C64.2032 438.693 67.154 440.97 70.0628 443.288C67.8051 444.275 65.9044 444.317 64.0037 444.275C62.3341 444.233 61.914 445.072 62.145 446.583C62.7751 450.78 68.1831 453.917 71.785 451.808C79.2932 447.401 87.4945 445.376 95.9163 443.614C105.787 441.547 115.984 440.319 124.91 435.094C128.154 433.195 130.979 433.52 134.287 434.831C150.175 441.116 166.168 447.108 182.046 453.424C189.386 456.351 196.789 458.691 204.675 459.667C210.556 460.391 216.846 460.632 222.086 463.014C227.788 465.606 232.493 464.336 237.649 462.762C239.98 462.049 242.322 461.304 244.705 460.821C248.591 460.034 252.529 459.489 256.424 458.754C257.433 458.565 258.399 458.093 259.333 457.652C265.151 454.851 270.905 451.924 276.775 449.238C283.769 446.037 291.004 444.894 298.628 447.024C300.707 447.601 303.206 447.999 305.202 447.412C323.106 442.113 340.937 436.563 358.788 431.128C360.616 430.572 362.474 430.047 364.354 429.816C372.492 428.788 380.704 428.337 388.496 425.294C389.966 424.717 391.909 425.336 393.631 425.399C399.889 425.63 406.148 425.745 412.396 426.154C414.549 426.291 417.185 426.553 418.686 427.823C422.824 431.317 427.423 432.051 432.621 432.628C438.386 433.268 444.067 435.283 447.837 440.665C449.57 443.141 452.1 445.187 454.589 447.003C458.254 449.668 462.307 451.798 466.004 454.421C468.65 456.299 471.338 456.561 474.405 456.121C484.265 454.694 494.147 453.393 504.018 452.091C508.407 451.514 508.407 451.567 509.352 446.698C509.405 446.405 509.657 446.142 509.825 445.869C511.736 442.617 512.366 442.134 515.023 440.35C518.939 437.727 522.846 435.073 526.553 432.187C530.879 428.819 531.992 423.972 532.412 417.981C530.218 419.691 528.737 421.254 526.931 422.136C525.387 422.891 523.78 419.89 521.775 421.695C521.586 421.863 520.116 421.16 519.948 420.625C519.78 420.111 520.357 419.145 520.872 418.652C521.607 417.949 522.573 417.467 523.476 416.942C531.667 412.21 536.445 405.148 537.936 395.831C537.988 395.307 538.041 394.782 538.093 394.268C537.904 394.656 537.715 395.044 537.516 395.432C535.447 396.755 532.129 395.758 531.058 398.926C528.684 396.429 528.401 399.86 527.067 400.301C526.7 400.427 525.902 400.332 525.891 400.269C525.545 397.615 524.169 399.472 523.392 399.787C522.111 400.311 520.998 401.235 519.717 401.738C519.339 401.885 518.614 401.172 518.057 400.847C519.58 400.049 515.548 399.399 518.057 398.307C520.431 397.279 522.678 395.831 524.768 394.289C528.789 391.319 532.654 388.151 536.581 385.056C536.833 384.877 537.085 384.699 537.337 384.531C537.096 384.478 536.854 384.426 536.623 384.384C536.655 384.646 536.686 384.909 536.718 385.16L533.2 384.332C533.798 383.272 534.25 382.107 535.017 381.194C536.245 379.725 537.925 378.603 538.944 377.029C540.131 375.182 540.866 373.031 541.674 370.975C541.779 370.712 541.16 370.167 540.876 369.747C538.765 371.499 537.495 369.128 534.47 369.139C537.106 366.809 538.828 365.34 540.477 363.798C541.328 363 542.64 362.339 539.984 361.846C536.77 361.248 536.76 360.587 538.545 358.101C539.038 357.408 539.49 356.674 539.963 355.96C540.246 355.677 540.53 355.383 540.813 355.1C540.393 355.247 539.973 355.393 539.553 355.54C537.631 355.089 535.72 354.638 534.124 354.271C537.652 351.029 541.349 347.64 545.045 344.24C545.244 343.936 545.455 343.631 545.654 343.327C545.245 343.39 544.824 343.464 544.415 343.527C543.627 343.82 542.84 344.114 542.052 344.408C541.737 344.146 541.422 343.873 541.097 343.61C542.336 341.785 543.564 339.959 544.803 338.123C543.333 337.903 542.084 337.714 540.824 337.525C541.359 336.371 541.874 335.217 542.43 334.083C542.577 333.79 542.871 333.559 543.102 333.307C545.161 331.093 544.226 329.949 541.685 329.393L541.811 329.488C543.102 327.463 544.226 325.312 545.717 323.444C547.502 321.22 546.998 319.216 544.929 318.135C543.648 317.463 543.354 317.17 543.974 316.089C546.484 311.619 549.025 307.17 551.545 302.732C553.96 307.37 556.05 311.766 558.518 315.953C559.683 317.936 559.284 318.995 557.562 320.024C557.289 319.814 557.016 319.604 556.743 319.405C556.859 319.803 556.964 320.202 557.079 320.601C557.552 325.448 564.388 327.704 562.435 333.622C562.33 333.936 563.264 334.66 563.789 335.112C564.755 335.93 565.785 336.675 567.664 338.144C564.713 337.798 562.876 337.588 560.524 337.315C561.763 338.878 562.634 340.158 563.684 341.271C565.144 342.824 564.241 343.285 562.76 343.411C562.109 343.474 561.416 343.201 560.744 343.086C560.481 342.876 560.229 342.677 559.967 342.467C560.019 342.866 560.061 343.264 560.114 343.673C561.416 346.328 562.834 348.941 563.968 351.658C564.367 352.623 568.084 354.9 563.212 354.743C563.254 355.467 563.086 356.296 563.38 356.883C564.482 359.055 565.785 361.122 566.908 363.273C567.097 363.63 566.772 364.7 566.656 364.7C562.918 364.826 564.923 366.988 565.753 367.932C566.992 369.317 568.788 370.209 570.268 371.394C570.51 371.594 570.373 372.276 570.405 372.727C566.436 372.748 570.531 374.616 569.365 375.791C566.803 374.689 564.031 373.503 560.177 371.846C562.928 376.305 565.018 379.495 566.866 382.81C567.538 384.006 568.21 386.577 567.916 386.734C564.335 388.686 567.58 390.05 568.431 390.963C570.909 393.638 573.723 395.999 576.433 398.454C577.661 399.566 580.202 401.056 580.003 401.602C579.121 404.047 577.189 402.274 575.624 402.043C575.33 402.001 574.973 402.148 574.689 402.295C571.686 403.9 568.809 403.312 565.974 401.822C565.69 401.623 565.406 401.413 565.123 401.214L565.333 402.42C567.675 408.81 571.907 413.343 578.386 415.662C580.181 416.302 581.977 416.963 583.752 417.676C585.862 418.516 585.327 418.306 584.403 420.383C583.395 422.66 580.276 423.416 580.465 426.333L580.538 426.154C576.065 423.573 571.592 421.002 567.066 418.39C567.801 424.528 569.596 430.676 574.878 434.601C579.719 438.2 585.337 440.749 590.64 443.719C591.355 444.117 592.751 443.603 591.743 445.408C591.355 446.121 592.037 446.898 590.399 447.055C587.742 447.317 585.799 446.237 583.668 445.062C581.893 444.086 579.772 443.393 579.751 446.814C579.467 447.087 579.194 447.37 578.911 447.643L576.065 445.46C574.637 447.821 573.597 446.037 572.558 445.093C570.783 443.498 569.05 441.84 567.307 440.204C567.15 440.246 566.971 440.246 566.845 440.329C566.751 440.382 566.719 440.539 566.656 440.644C566.887 440.466 567.129 440.277 567.36 440.099C567.16 440.55 566.709 441.074 566.803 441.452C568.851 449.626 572.19 456.897 580.381 460.79C582.261 461.682 584.025 462.857 585.946 463.654C587.858 464.441 589.391 465.301 589.202 467.704C589.191 467.883 589.685 468.197 589.989 468.281C593.308 469.247 596.594 470.348 599.976 471.062C604.229 471.964 608.639 472.205 612.819 473.37C617.954 474.797 623.183 476.36 627.846 478.868C630.366 480.222 632.466 481.596 635.417 481.449C636.95 481.376 638.557 481.596 640.037 482.016C648.029 484.314 655.988 486.737 663.98 489.046C664.568 489.214 665.313 488.846 665.985 488.731C665.933 489.214 665.639 489.927 665.859 490.158C668.863 493.316 671.267 493.127 674.481 489.528C674.785 489.182 674.932 488.689 675.153 488.259C674.565 488.049 673.945 487.608 673.388 487.671C670.858 487.976 668.337 488.427 665.817 488.825C668.421 486.16 672.055 483.915 673.357 480.725C674.775 477.273 675.961 473.779 678.072 470.653C678.755 469.645 679.364 468.586 679.92 467.505C680.141 467.075 680.141 466.529 680.246 466.036C675.184 465.753 681.044 459.373 676.276 458.922C676.801 457.506 677.022 455.858 677.904 454.715C680.025 451.955 682.671 449.594 684.646 446.751C685.486 445.534 685.192 443.53 685.412 441.893C684.362 442.166 683.322 442.501 682.251 442.69C681.768 442.774 681.233 442.575 681.401 442.596C683.511 436.972 685.675 431.285 687.743 425.567C687.943 425.032 687.575 424.287 687.481 423.636C686.693 423.982 685.906 424.329 685.118 424.664C684.845 424.287 684.562 423.909 684.289 423.531C685.213 421.359 687.376 418.799 686.819 417.099C685.591 413.301 686.63 410.5 688.184 407.278C688.877 405.851 688.279 402.2 688.09 402.179C683.932 401.885 686.536 400.458 687.565 399.409C688.415 398.538 689.487 397.867 690.264 396.954C690.579 396.587 690.652 395.558 690.358 395.202C688.982 393.47 688.835 393.439 689.833 392.243C693.267 388.119 695.388 383.65 695.567 378.068C695.735 372.884 696.869 367.722 697.583 362.476C699.557 365.193 698.99 365.193 699.042 368.813C699.147 375.623 697.94 382.705 703.148 388.738C704.524 390.323 709.281 392.736 704.64 396.177C704.556 396.24 705.039 397.059 705.249 397.531C706.372 400.081 710.982 401.319 708.178 405.337C711.812 409.629 712.862 416.354 719.73 417.624C719.856 417.645 719.908 418.065 720.013 418.369C718.385 418.935 716.81 419.471 714.931 420.121C716.159 421.023 717.136 421.726 718.238 422.534C716.968 423.248 716.096 423.741 714.983 424.36C716.915 426.165 718.711 427.812 720.475 429.48C721.872 430.802 721.84 430.781 720.202 432.355C719.992 432.555 720.087 433.415 720.339 433.688C721.168 434.58 722.166 435.304 723.048 436.154C724.423 437.465 723.982 438.231 722.239 438.388C720.549 438.546 720.664 439.406 721.504 440.35C723.247 442.313 722.187 445.869 725.316 447.055C725.337 447.055 725.137 447.737 725.001 448.083C724.843 448.482 721.872 447.485 724.423 449.206C726.723 450.759 729.128 452.165 732.436 454.232C729.285 455.439 726.86 456.372 724.161 457.411C725.169 458.303 726.324 459.289 727.416 460.328C727.7 460.601 727.815 461.042 728.015 461.409C723.657 462.951 728.162 463.486 728.508 463.979C729.464 465.364 730.913 466.403 732.173 467.589C731.89 467.935 731.606 468.271 731.323 468.617C729.191 467.599 727.217 468.323 726.66 470.296C726.293 471.597 727.28 473.475 728.067 474.86C728.634 475.846 729.873 476.455 730.819 477.231C733.381 479.34 735.996 481.376 738.453 483.59C738.946 484.03 738.841 485.132 739.009 485.93C738.285 485.867 737.476 485.982 736.836 485.72C734.189 484.628 731.585 483.422 728.634 482.11C730.409 493.106 737.707 498.08 747.505 495.436C750.361 494.67 753.081 493.421 755.916 492.582C762.595 490.62 769.263 488.616 776.025 486.958C780.593 485.835 785.277 485.164 789.929 484.461C793.646 483.894 796.88 482.488 799.852 480.159C810.059 472.163 820.97 465.333 833.204 460.842C835.251 460.087 837.593 459.499 839.714 459.719C848.745 460.632 857.755 461.881 866.765 463.004C873.38 463.832 878.977 465.973 880.458 473.506C880.584 474.168 881.078 474.766 881.183 475.427C881.75 478.69 883.902 478.952 886.654 478.637C889.027 478.364 891.495 478.113 893.815 478.49C903.056 479.991 912.234 481.628 921.087 485.027C926.558 487.126 932.575 487.839 938.329 489.224C943.212 490.41 948.137 491.459 952.926 492.959C959.237 494.932 965.422 497.314 971.691 499.444C973.487 500.052 975.356 500.608 977.236 500.85C997.387 503.399 1016.97 508.331 1036.19 514.826C1038.45 515.592 1040.96 515.927 1043.35 515.938C1058.91 516.032 1074.47 516.043 1090.04 515.938C1092.6 515.917 1095.26 515.455 1097.69 514.658C1107.3 511.52 1116.83 508.152 1126.41 504.931C1128.21 504.323 1130.12 503.725 1131.99 503.683C1138.73 503.536 1145 501.553 1151.39 499.685C1157.72 497.838 1161.49 493.054 1165.78 488.825C1166.8 487.829 1167.06 486.013 1167.53 484.524C1168.06 482.876 1167.44 482.11 1165.74 482.824C1162.98 483.978 1160.26 485.247 1157.53 486.465L1156.75 485.562C1157.47 484.576 1158.06 483.422 1158.97 482.624C1161.85 480.096 1164.79 477.609 1167.85 475.28C1169.6 473.937 1170.44 472.237 1169.73 470.327C1168.96 468.271 1167.07 467.778 1164.97 468.533C1164.69 468.218 1164.41 467.904 1164.13 467.578C1166.17 465.742 1168.21 463.906 1170.21 462.101C1169.53 461.849 1168.75 461.566 1167.9 461.251C1169.4 459.877 1170.79 458.618 1172.26 457.264C1170.07 456.54 1168.12 456.058 1166.33 455.271C1164.77 454.589 1164.88 453.508 1166.3 452.627C1168.22 451.441 1170.18 450.308 1172.09 449.091C1172.25 448.986 1172.14 448.451 1172.16 448.125C1170.79 448.188 1169.86 447.842 1171.42 446.656C1173.03 445.439 1173.51 443.981 1173.92 442.05C1174.33 440.162 1176.39 438.43 1172.69 437.958C1173.41 436.888 1174.02 435.734 1174.84 434.758C1175.82 433.593 1175.84 433.73 1174.47 432.418C1174.2 432.166 1174.4 430.97 1174.78 430.593C1176.85 428.484 1179.03 426.48 1181.23 424.392C1180 423.71 1178.98 423.153 1177.84 422.524C1179.09 421.643 1180.08 420.94 1181.27 420.1C1179.26 419.408 1177.64 418.852 1175.89 418.253C1178.16 417.005 1180.66 416.291 1182.14 414.655C1184.32 412.252 1185.79 409.188 1187.52 406.387C1187.88 405.809 1188.12 405.148 1188.41 404.519C1184.52 403.092 1188.09 401.864 1188.58 400.668C1189.44 398.58 1193.59 397.164 1189.81 394.142C1189.67 394.027 1190.2 392.925 1190.55 392.369C1191.58 390.753 1192.55 389.074 1193.78 387.616C1198.57 381.908 1197.56 374.993 1196.94 368.624C1196.65 365.781 1197.17 364.406 1198.68 362.161C1199.48 368.079 1200.58 373.398 1200.81 378.76C1201.03 383.775 1202.87 387.815 1205.95 391.55C1207.2 393.061 1207.07 393.135 1205.75 395.328C1205.54 395.684 1205.53 396.45 1205.77 396.713C1206.59 397.604 1207.76 398.213 1208.42 399.199C1208.91 399.955 1213.43 401.623 1208.15 402.043C1207.89 402.064 1207.44 403.27 1207.55 403.816C1208.01 405.799 1208.68 407.73 1209.22 409.692C1209.58 410.961 1210.56 412.619 1210.1 413.479C1207.92 417.498 1209.97 420.457 1212.02 423.531C1211.73 423.909 1211.44 424.276 1211.16 424.654C1210.37 424.308 1209.58 423.961 1208.79 423.615C1208.74 424.423 1208.43 425.325 1208.68 426.039C1209.95 429.732 1211.37 433.384 1212.88 437.413C1218.03 434.936 1223.16 431.474 1227.76 427.214C1231.44 423.804 1232.42 419.355 1232.69 414.466C1232.05 414.665 1231.68 414.686 1231.4 414.864C1227.56 417.571 1227.56 417.613 1222.13 417.519C1221.47 417.509 1220.44 416.91 1220.28 416.386C1220.13 415.861 1220.71 414.875 1221.25 414.445C1223.02 413.049 1224.85 411.706 1226.79 410.563C1234.03 406.292 1236.5 399.189 1238.26 391.645C1238.31 391.12 1238.36 390.595 1238.42 390.081C1238.23 390.47 1238.04 390.858 1237.84 391.246C1235.77 392.568 1232.45 391.571 1231.38 394.74C1229.01 392.243 1228.72 395.674 1227.39 396.115C1227.02 396.24 1226.23 396.146 1226.21 396.083C1225.87 393.428 1224.49 395.286 1223.72 395.6C1222.43 396.125 1221.32 397.048 1220.04 397.552C1219.66 397.699 1218.94 396.985 1218.38 396.66C1219.9 395.863 1215.87 395.212 1218.38 394.121C1220.75 393.093 1223 391.645 1225.09 390.102C1229.11 387.133 1232.98 383.964 1236.9 380.869C1237.16 380.691 1237.41 380.512 1237.66 380.344C1237.42 380.292 1237.18 380.239 1236.95 380.198C1236.98 380.46 1237.01 380.722 1237.04 380.974C1235.87 380.701 1234.7 380.428 1233.52 380.145C1234.12 379.085 1234.57 377.921 1235.34 377.008C1236.57 375.539 1238.25 374.416 1239.27 372.842C1240.45 370.996 1241.19 368.845 1242 366.788C1242.1 366.526 1241.48 365.98 1241.2 365.561C1239.09 367.313 1237.82 364.942 1234.79 364.942C1237.43 362.612 1239.15 361.143 1240.8 359.601C1241.65 358.803 1242.96 358.142 1240.31 357.649C1237.09 357.051 1237.08 356.39 1238.87 353.904C1239.36 353.211 1239.81 352.477 1240.29 351.763C1240.57 351.48 1240.85 351.186 1241.14 350.903C1240.72 351.05 1240.3 351.197 1239.88 351.343C1237.95 350.892 1236.04 350.441 1234.45 350.074C1237.98 346.832 1241.67 343.443 1245.37 340.043C1245.57 339.739 1245.78 339.435 1245.98 339.13C1245.57 339.193 1245.15 339.267 1244.74 339.33C1243.95 339.623 1243.16 339.917 1242.38 340.211C1242.06 339.949 1241.75 339.676 1241.42 339.414C1242.65 337.588 1243.89 335.762 1245.13 333.936C1243.66 333.716 1242.41 333.527 1241.15 333.338C1241.68 332.184 1242.2 331.03 1242.76 329.897C1242.91 329.603 1243.21 329.372 1243.44 329.12C1245.49 326.907 1244.56 325.763 1242.02 325.207L1242.14 325.301C1243.51 323.15 1244.64 320.8 1246.3 318.911C1248.04 316.939 1246.69 314.526 1245.87 314.284C1243 313.413 1244.17 312.207 1244.96 310.706C1247.2 306.488 1249.37 302.239 1251.57 298C1251.92 298 1252.28 298 1252.62 298C1254.6 302.48 1256.36 307.065 1258.64 311.388C1259.7 313.413 1259.98 314.641 1257.89 315.827C1257.61 315.617 1257.34 315.407 1257.06 315.197C1257.16 315.596 1257.27 316.005 1257.36 316.404C1257.91 321.23 1264.67 323.507 1262.74 329.414C1262.63 329.729 1263.57 330.453 1264.09 330.904C1265.06 331.723 1266.09 332.468 1267.96 333.936C1265.01 333.59 1263.17 333.38 1260.82 333.108C1262.05 334.671 1262.93 335.951 1263.98 337.063C1265.43 338.616 1264.54 339.078 1263.05 339.204C1262.4 339.267 1261.71 338.994 1261.04 338.878C1260.77 338.669 1260.52 338.469 1260.26 338.259C1260.3 338.658 1260.35 339.057 1260.4 339.466C1261.98 342.551 1263.59 345.625 1265.14 348.731C1265.39 349.234 1265.71 350.158 1265.51 350.347C1264.84 350.955 1263.93 351.312 1263.12 351.763C1263.81 352.97 1264.49 354.166 1265.18 355.372C1266.43 357.565 1266.33 357.523 1265.25 360.902C1264.99 361.699 1265.43 363.084 1266.05 363.703C1267.38 365.025 1269.07 365.991 1270.53 367.187C1270.79 367.407 1270.69 368.079 1270.75 368.54C1266.78 368.068 1271.22 370.88 1269.06 371.583C1267.49 370.712 1265.59 369.579 1263.62 368.603C1263.07 368.331 1262.3 368.519 1261.63 368.498C1261.81 369.013 1261.93 369.558 1262.19 370.02C1263.75 372.716 1265.43 375.329 1266.86 378.078C1267.59 379.474 1268.59 382.244 1268.27 382.432C1264.48 384.72 1268.12 385.979 1269.02 387.07C1270.76 389.2 1272.92 391.015 1275.04 392.809C1276.18 393.775 1277.58 394.446 1278.86 395.244C1279.6 393.869 1280.32 392.474 1281.12 391.141C1281.57 390.407 1282.29 389.83 1282.69 389.074C1283.99 386.566 1285.21 384.006 1286.93 380.491C1283.89 381.771 1282.05 382.537 1280.22 383.314C1279.87 382.988 1279.53 382.653 1279.19 382.327C1277.16 380.292 1277.2 380.355 1279.64 378.519C1280.85 377.616 1281.95 376.494 1282.84 375.277C1283.17 374.815 1282.88 373.189 1282.65 373.136C1279.72 372.486 1281.41 371.069 1282.05 369.883C1282.78 368.519 1283.48 367.103 1284.39 365.854C1286.69 362.707 1283.62 363.399 1282.2 362.864C1283.3 361.028 1284.55 359.328 1285.37 357.45C1286.2 355.54 1286.61 353.442 1287.2 351.427C1287.45 351.459 1287.7 351.48 1287.94 351.511C1287.88 351.291 1287.82 351.071 1287.76 350.85C1287.6 351.081 1287.45 351.312 1287.28 351.543C1286.11 351.501 1284.95 351.459 1283.78 351.417C1284.29 350.462 1284.73 349.476 1285.31 348.573C1285.92 347.629 1286.67 346.779 1287.54 345.636C1285.19 345.908 1283.25 346.129 1280.24 346.475C1282.37 344.838 1283.72 344.009 1284.77 342.908C1285.38 342.278 1286.07 340.757 1285.78 340.4C1284.11 338.354 1285.84 337.368 1286.8 336.056C1288.01 334.377 1289.16 332.635 1290.29 330.883C1290.99 329.813 1290.82 329.771 1289.43 327.704C1288.98 327.032 1288.79 325.731 1289.14 325.06C1291.43 320.559 1293.89 316.152 1296.54 311.283C1299.21 316.036 1301.69 320.401 1304.08 324.798C1304.31 325.217 1304.04 325.899 1304 326.466L1304.08 326.329C1300.14 328.176 1300.02 328.575 1301.97 331.397C1303.44 333.517 1304.78 335.72 1306.18 337.882L1305.82 338.154C1304.05 338.291 1303.19 339.078 1304.2 340.82C1304.71 341.711 1305.53 342.414 1306.18 343.222C1307.92 345.363 1307.23 346.276 1304.65 346.265C1304.23 346.265 1303.81 346.443 1303.05 346.622C1304.12 348.122 1305.22 349.276 1305.82 350.661C1306.21 351.564 1307.51 354.145 1304.26 352.623C1304.04 352.519 1303.64 352.802 1303.32 352.907C1303.54 353.442 1303.63 354.155 1304.02 354.491C1307.22 357.156 1310.49 359.748 1313.64 362.276C1311.56 362.969 1309.96 363.494 1308.36 364.029C1308.03 363.829 1307.69 363.641 1307.36 363.441C1307.59 363.745 1307.81 364.06 1308.04 364.364C1308.49 365.088 1308.91 365.833 1309.4 366.526C1311.25 369.118 1311.2 369.327 1308.01 370.377C1307.51 370.545 1306.97 370.576 1306.44 370.66C1306.16 371.101 1305.88 371.552 1305.59 371.992C1307.91 373.713 1310.24 375.434 1312.65 377.218C1310.96 378.005 1309.61 379.159 1308.9 378.854C1305.78 377.532 1305.71 378.875 1306.69 381.1C1307.52 382.978 1308.5 384.856 1309.77 386.441C1311.06 388.056 1312.82 389.284 1314.31 390.753C1315.35 391.781 1315.21 393.544 1313.98 393.502C1309.09 393.345 1312.61 395.265 1313.42 395.842C1317.36 398.696 1321.47 401.34 1325.48 404.131C1326.58 404.897 1327.73 405.768 1328.45 406.859C1328.85 407.446 1328.41 408.59 1328.35 409.482C1327.69 409.398 1326.98 409.429 1326.37 409.188C1325.1 408.684 1323.88 408.023 1322.64 407.436C1321.4 410.772 1320.49 408.013 1319.4 407.299C1318.61 406.785 1317.67 406.502 1316.83 406.061C1315.75 405.505 1314.7 404.897 1313.64 404.309C1312.14 407.467 1311.59 403.449 1310.44 403.889C1310.2 403.491 1309.96 403.081 1309.72 402.683C1309.81 403.218 1309.91 403.763 1310.01 404.299C1311.71 411.454 1313.94 418.306 1320.62 422.597C1321.93 423.447 1323.27 424.339 1324.37 425.43C1325.35 426.406 1326.81 427.781 1326.7 428.819C1326.44 431.107 1324.75 429.806 1323.54 429.396C1323.42 429.354 1323.1 429.501 1323.09 429.606C1322.17 434.81 1320.71 429.869 1319.86 429.606C1318.48 429.166 1317.34 427.927 1315.47 426.563C1315.81 433.09 1317.64 438.084 1322.46 441.673C1325.39 443.855 1328.43 445.88 1331.48 447.926C1332.93 448.891 1334.64 449.531 1335.9 450.685C1336.78 451.493 1336.82 453.351 1337.76 453.97C1339.79 455.344 1337.02 456.372 1337.8 457.506C1336.99 457.506 1336.18 457.61 1335.38 457.506C1333.8 457.317 1332.22 457.023 1330.65 456.761C1330.9 456.488 1331.14 456.225 1331.39 455.953C1331.28 455.921 1331.08 455.848 1331.08 455.858C1330.95 456.152 1330.86 456.446 1330.75 456.75L1331.38 457.474C1331.2 457.61 1331.03 457.747 1330.84 457.873C1328.16 456.267 1325.5 454.62 1322.77 453.099C1322.36 452.868 1321.28 453.004 1321.12 453.298C1319.73 455.827 1319.72 455.9 1317.99 454.19C1316.26 452.48 1314.65 450.644 1312.59 448.419C1311.27 457.453 1314.65 462.857 1321.94 466.078C1324.17 467.064 1326.36 468.155 1328.53 469.289C1329.4 469.74 1330.13 470.453 1330.93 471.041C1329.92 471.408 1328.95 471.891 1327.91 472.121C1324.77 472.824 1324.39 472.793 1323.28 472.31C1322.98 472.184 1322.4 471.964 1322.4 471.975C1320.88 475.406 1319.5 472.415 1318.03 471.943C1317.65 471.817 1316.72 472.142 1316.72 472.268C1316.7 475.217 1315.58 473.727 1314.34 473.003C1313.04 472.237 1311.51 471.817 1310.1 471.251C1311.16 472.499 1312.17 473.8 1313.3 474.965C1313.9 475.573 1314.82 475.857 1315.43 476.465C1316.19 477.231 1319.36 477.525 1316.19 479.361C1316.54 479.739 1316.93 480.442 1317.25 480.421C1318.45 480.316 1319.64 480.043 1320.81 479.687C1331.66 476.434 1342.53 473.265 1353.33 469.845C1359.42 467.914 1365.43 466.739 1371.78 468.554C1373.76 469.121 1375.93 469.121 1378.02 469.184C1385.7 469.425 1393.39 469.614 1401.08 469.75C1415.99 470.013 1430.74 469.289 1444.56 462.689C1445.74 462.122 1447.27 462.122 1448.64 462.154C1458.07 462.364 1467.51 462.825 1476.94 462.804C1480.14 462.804 1483.5 462.07 1486.5 460.916C1494.75 457.747 1503.22 456.362 1512 456.435V982H0C0 800.167 0 618.333 0 436.5C4.00089 433.53 7.50823 430.257 7.58174 424.58C4.83047 425.483 2.41523 426.27 0 427.057V426.941ZM1235.74 435.702C1233.72 437.832 1231.82 439.773 1230 441.788C1228.63 443.299 1227.32 443.058 1227.29 441.19C1227.25 439.417 1226.96 439.448 1225.76 440.214C1223.41 441.704 1221.04 443.162 1218.75 444.757C1217.55 445.597 1216.71 446.562 1215.46 444.652C1215.19 444.243 1213.1 445.02 1211.85 445.25C1212.15 446.247 1212.25 447.401 1212.82 448.22C1213.7 449.5 1214.91 450.549 1215.96 451.714C1220.42 456.656 1220.38 456.603 1226.37 453.508C1232.92 450.129 1237.36 446.531 1235.75 435.713L1235.74 435.702ZM1238.78 458.324C1237.79 458.251 1237.08 457.978 1236.68 458.219C1235.5 458.943 1234.47 459.919 1233.29 460.664C1232.91 460.905 1232.27 460.727 1231.76 460.737C1231.84 457.138 1230.17 459.615 1229.05 459.908C1228.57 460.034 1227.93 459.982 1227.49 459.761C1225.61 458.828 1220.25 458.754 1219.04 459.772C1218.67 460.076 1218.42 460.527 1218.14 460.926C1217.16 462.332 1220.49 466.33 1215.48 465.312C1215.59 465.742 1215.6 466.214 1215.81 466.592C1216.4 467.662 1216.99 468.732 1217.71 469.708C1219.12 471.628 1220.6 473.475 1222.05 475.353C1224.74 473.811 1227.5 472.352 1230.1 470.674C1230.92 470.149 1231.39 469.047 1231.95 468.166C1232.2 467.767 1232.52 466.928 1232.42 466.865C1229.55 464.934 1232.16 464.41 1233.26 463.57C1234.65 462.51 1236.12 461.566 1237.46 460.464C1237.94 460.066 1238.16 459.342 1238.76 458.324H1238.78ZM1265.2 397.332C1265.58 398.286 1265.89 399.273 1266.35 400.175C1270.13 407.625 1271.41 407.845 1277.21 401.98C1278.05 401.13 1278.75 400.154 1279.53 399.21C1275.2 395.821 1269.67 401.004 1265.2 397.321V397.332ZM1276.2 419.932C1273.4 417.834 1270.59 415.735 1267.06 413.091C1267.58 415.452 1267.85 416.952 1268.23 418.432C1269.79 424.58 1270.34 424.769 1275.43 420.929C1275.7 420.73 1275.85 420.394 1276.2 419.932ZM536.151 440.602C535.804 440.455 535.468 440.309 535.122 440.162C533.851 441.515 532.57 442.858 531.32 444.222C528.8 446.971 528.957 447.8 532.003 450.245C533.347 451.315 534.281 451.168 534.628 449.594C535.269 446.625 535.668 443.603 536.161 440.602H536.151ZM1267.08 435.681C1266.89 435.807 1266.69 435.944 1266.49 436.07C1267.23 438.304 1267.87 440.581 1268.78 442.764C1269.1 443.54 1270.2 444.705 1270.65 444.579C1271.73 444.296 1272.84 443.498 1273.47 442.585C1273.72 442.218 1272.94 440.823 1272.32 440.225C1270.67 438.619 1268.84 437.192 1267.08 435.692V435.681Z" fill="#006138"/>
</svg>
