<svg width="1728" height="1117" viewBox="0 0 1728 1117" fill="none" xmlns="http://www.w3.org/2000/svg">
<g clip-path="url(#clip0_299_2633)">
<rect width="1728" height="1117" fill="url(#paint0_linear_299_2633)"/>
<path fill-rule="evenodd" clip-rule="evenodd" d="M-3 326.517V1169.24H1728V325.236L1724.44 324.473C1724.01 324.381 1723.57 324.36 1723.14 324.411L1711.29 325.796C1710.81 325.852 1710.33 325.822 1709.87 325.706L1696.56 322.415C1695.53 322.159 1694.43 322.327 1693.52 322.882L1683.97 328.698C1683.67 328.881 1683.35 329.023 1683.02 329.122L1671.09 332.608C1670.57 332.76 1670.08 333.018 1669.66 333.364L1662.99 338.88C1662.28 339.473 1661.38 339.798 1660.45 339.798H1646.6C1646.37 339.798 1646.15 339.778 1645.92 339.74L1639.1 338.569C1637.92 338.368 1636.72 338.7 1635.82 339.475L1628.9 345.406C1628.46 345.786 1627.94 346.064 1627.37 346.222L1614.99 349.684C1614.6 349.793 1614.2 349.843 1613.79 349.83L1589.16 349.094C1588.76 349.082 1588.37 349.009 1587.99 348.879L1581.16 346.536C1580.12 346.183 1579 346.265 1578.03 346.763L1573.79 348.942C1573.62 349.031 1573.45 349.132 1573.3 349.245L1562.71 356.807L1548.88 364.966C1548.49 365.195 1548.06 365.357 1547.62 365.444L1532.94 368.349C1532.76 368.386 1532.57 368.41 1532.37 368.42L1518.49 369.134C1517.93 369.163 1517.37 369.312 1516.87 369.572L1509.41 373.413C1508.89 373.679 1508.43 374.055 1508.08 374.514L1505.61 377.684C1504.86 378.659 1503.69 379.229 1502.46 379.229H1486.15C1485.51 379.229 1484.88 379.077 1484.32 378.786L1482.17 377.683L1473.95 372.043C1473.43 371.684 1472.83 371.455 1472.2 371.374L1468.12 370.849C1467.48 370.767 1466.83 370.84 1466.23 371.062L1459.34 373.594C1458.94 373.742 1458.56 373.953 1458.23 374.219L1446.11 383.868L1425.17 398.085C1424.71 398.397 1424.19 398.61 1423.65 398.71L1417.01 399.929C1416.39 400.044 1415.8 400.308 1415.29 400.697L1410.05 404.743L1392.45 417.156C1391.78 417.632 1390.97 417.887 1390.15 417.887H1354.85C1354.01 417.887 1353.18 417.614 1352.49 417.122C1332.06 402.468 1316.01 396.841 1309.5 395.631C1308.82 395.506 1308.18 395.249 1307.64 394.838L1287.9 380.03C1287.21 379.51 1286.37 379.248 1285.51 379.153C1278.01 378.327 1267.97 370.938 1262.75 366.359C1262 365.694 1261.03 365.312 1260.02 365.312H1258.81C1258.26 365.312 1257.73 365.202 1257.23 364.988L1250.55 362.125C1249.56 361.7 1248.43 361.795 1247.52 362.378L1247.19 362.59C1246.12 363.279 1244.72 363.141 1243.8 362.256C1243.26 361.739 1242.96 361.025 1242.96 360.28V357.013C1242.96 356.379 1242.75 355.762 1242.36 355.261C1241.97 354.76 1241.76 354.143 1241.76 353.508V351.193C1241.76 350.814 1241.7 350.437 1241.6 350.074L1240.31 345.645C1240.08 344.859 1239.61 344.161 1238.97 343.648L1235.81 341.104C1235.37 340.752 1234.87 340.497 1234.32 340.354L1213.86 334.955C1212.52 334.601 1211.09 334.968 1210.09 335.924L1198.2 347.225C1197.99 347.427 1197.8 347.652 1197.64 347.897L1183.55 368.907C1183.1 369.587 1182.45 370.11 1181.68 370.407L1163.54 377.479C1163.2 377.614 1162.87 377.797 1162.57 378.022L1150.23 387.405C1149.94 387.623 1149.63 387.803 1149.29 387.931C1136.01 392.945 1120.04 387.885 1112.81 384.318C1112.23 384.029 1111.59 383.868 1110.94 383.868H1097.56C1096.38 383.868 1095.27 383.351 1094.51 382.455L1089.37 376.402C1088.8 375.728 1088.02 375.276 1087.17 375.023C1082.48 373.616 1077.46 370.144 1074.63 367.843C1073.87 367.224 1072.92 366.858 1071.94 366.858H1070.56C1069.03 366.858 1067.63 365.984 1066.96 364.606L1065.9 362.414C1065.36 361.315 1064.35 360.523 1063.16 360.267C1062.07 360.033 1061.15 359.322 1060.4 358.494C1057.08 354.816 1050.13 352.561 1045.88 351.645C1045.06 351.467 1044.3 351.07 1043.71 350.466L1042.39 349.109C1041.88 348.581 1041.23 348.205 1040.52 348.022L1036.45 346.976C1035.89 346.831 1035.3 346.81 1034.73 346.915L1028.31 348.095C1027.58 348.231 1026.82 348.156 1026.12 347.88L1020.29 345.575C1019.69 345.335 1019.15 344.951 1018.73 344.455L999.93 322.474C999.67 322.17 999.457 321.828 999.298 321.46L997.604 317.538C996.987 316.109 995.422 315.342 993.915 315.73C993.657 315.796 993.393 315.829 993.127 315.829H991.536C990.5 315.829 989.504 316.231 988.759 316.951L983.427 322.095C982.955 322.55 982.379 322.882 981.749 323.062L958.321 329.759C956.72 330.217 955.004 329.636 954.011 328.3L942.789 313.208C942.557 312.895 942.371 312.551 942.238 312.185L938.59 302.127C938.355 301.48 937.956 300.904 937.433 300.455L932.006 295.801C931.364 295.25 930.565 294.917 929.723 294.85L925.862 294.539C923.484 294.348 921.896 292.024 921.126 289.766C920.659 288.396 919.881 287.271 919.077 286.422C918.051 285.339 916.417 285.474 914.978 285.868C911.235 286.896 906.324 285.82 902.736 284.563C900.966 283.943 898.952 284.447 897.431 285.545C893.102 288.669 886.045 290.33 881.76 290.935C880.959 291.048 880.208 291.37 879.582 291.882C870.911 298.972 851.59 310.802 841.07 316.975C839.828 317.704 838.291 317.7 837.048 316.973L833.904 315.134C832.973 314.59 831.862 314.445 830.822 314.731L825.072 316.316C824.392 316.504 823.773 316.868 823.279 317.372L807.381 333.592C806.969 334.012 806.282 333.972 805.921 333.509C805.623 333.125 805.088 333.021 804.668 333.265L789.791 341.908C788.06 342.913 785.852 342.484 784.624 340.904L784.467 340.702C784.007 340.111 783.391 339.661 782.688 339.402L763.358 332.298C762.94 332.144 762.551 331.922 762.207 331.641L721.001 297.975C719.432 296.693 717.152 296.787 715.693 298.194L709.12 304.536C708.798 304.846 708.426 305.101 708.02 305.289L685.899 315.503C685.432 315.719 685.012 316.022 684.66 316.396L668.518 333.581C668.023 334.108 667.396 334.49 666.702 334.689L663.328 335.653C662.688 335.836 662.013 335.856 661.363 335.712L645.719 332.242C645.194 332.126 644.697 331.905 644.259 331.592L629.42 320.987C628.943 320.645 628.395 320.413 627.818 320.307L621.157 319.083C620.58 318.977 620.032 318.745 619.555 318.404L604.728 307.807C604.282 307.489 603.776 307.265 603.24 307.151L597.328 305.883C597.003 305.813 596.689 305.704 596.392 305.557L589.289 302.042C589.114 301.956 588.945 301.857 588.785 301.745L574.107 291.578C573.64 291.255 573.11 291.035 572.552 290.932L561.81 288.958C561.133 288.834 560.499 288.537 559.971 288.096L539.652 271.141C538.932 270.541 538.026 270.213 537.089 270.213H529.076C527.841 270.213 526.675 269.642 525.918 268.668L525.049 267.55C524.447 266.775 523.576 266.269 522.641 265.967C516.472 263.972 507.176 256.518 501.808 251.703C501.098 251.066 500.166 250.601 499.255 250.147C498.777 249.908 498.305 249.673 497.874 249.417C495.238 247.852 491.269 244.121 488.755 241.559C488.289 241.084 487.714 240.741 487.113 240.454C483.859 238.901 479.864 234.699 477.545 231.914C476.943 231.191 476.142 230.694 475.267 230.347C465.122 226.326 433.328 199.993 415.97 184.972C414.535 183.73 412.438 183.669 410.927 184.817L400.299 192.896C395.691 195.989 384.552 202.947 376.858 206.04C369.291 209.082 349.861 226.336 340.647 234.995C340.342 235.281 340.003 235.512 339.625 235.691L301.986 253.568C301.421 253.837 300.927 254.233 300.544 254.727L295.213 261.584C294.757 262.17 294.147 262.618 293.451 262.878L272.673 270.615C272.02 270.858 271.441 271.268 270.995 271.803L263.86 280.37C263.1 281.283 261.974 281.81 260.786 281.81H254.151C253.815 281.81 253.48 281.853 253.154 281.936L240.172 285.276C239.175 285.533 238.315 286.164 237.772 287.038L234.45 292.379C234.033 293.05 233.427 293.582 232.707 293.909L224.491 297.639C223.901 297.907 223.388 298.316 222.976 298.817C217.878 305.02 210.361 310.124 205.986 312.623C204.964 313.207 203.733 313.25 202.646 312.799L186.272 306.004C185.911 305.854 185.573 305.652 185.271 305.405L180.221 301.271C179.506 300.686 178.611 300.366 177.687 300.366H173.888C172.992 300.366 172.121 300.667 171.416 301.221L162.773 308.016C162.069 308.57 161.198 308.871 160.301 308.871H156.302C155.887 308.871 155.473 308.936 155.078 309.063L152.467 309.903C151.443 310.232 150.331 310.135 149.379 309.635L138.518 303.919C137.944 303.617 137.305 303.459 136.656 303.459H128.228C127.32 303.459 126.439 303.15 125.73 302.583L105.323 286.265C104.839 285.878 104.271 285.608 103.664 285.478L98.5719 284.386C97.7912 284.219 97.0784 283.822 96.5253 283.246L84.7521 270.986L84.1374 270.353C82.762 268.938 80.5597 268.737 78.9511 269.881L59.57 283.658C59.1327 283.969 58.7627 284.369 58.4727 284.821C49.6731 298.518 35.0888 303.785 27.9712 304.881C27.3643 304.975 26.7834 305.178 26.2669 305.51L-1.16382 323.153C-2.30826 323.889 -3 325.157 -3 326.517Z" fill="#84C87F"/>
<path d="M1595.79 153C1591.94 147.971 1586.99 145.952 1585 145.571L1586.16 145C1588.16 143.933 1593.8 148.111 1596.37 150.333C1600.53 140.276 1604.52 139.413 1606 140.238V142.143C1603.53 141.381 1599.71 149.063 1598.1 153H1595.79Z" fill="#019153"/>
<path d="M1666.39 163C1661.25 157.969 1654.65 155.949 1652 155.567H1656.67C1660.67 156.497 1663.73 158.108 1667.16 160.332C1672.7 150.269 1680 152.137 1680 152.137C1676.71 151.375 1671.61 159.061 1669.47 163H1666.39Z" fill="#019153"/>
<path d="M1626.81 165C1624.85 164.2 1620.12 156.667 1618 153L1626.81 160C1631.7 152 1638.31 153.333 1641 155C1636.5 154.6 1629.66 161.5 1626.81 165Z" fill="#019153"/>
<path d="M1643.15 172L1631 188L1641.71 176.861C1644.01 182.532 1649.53 182.329 1652 181.519C1646.24 180.223 1643.7 174.633 1643.15 172Z" fill="#019153"/>
<path d="M201.385 208C196.248 202.969 189.654 200.949 187 200.567H191.667C195.667 201.497 198.731 203.108 202.156 205.332C207.705 195.269 215 197.137 215 197.137C211.712 196.375 206.609 204.061 204.468 208H201.385Z" fill="#019153"/>
<path d="M242.147 239L230 255L240.706 243.861C243.012 249.532 248.529 249.329 251 248.519C245.235 247.223 242.696 241.633 242.147 239Z" fill="#019153"/>
</g>
<defs>
<linearGradient id="paint0_linear_299_2633" x1="864" y1="0" x2="864" y2="1117" gradientUnits="userSpaceOnUse">
<stop stop-color="#96CE96"/>
<stop offset="0.28" stop-color="#FCF8B8"/>
</linearGradient>
<clipPath id="clip0_299_2633">
<rect width="1728" height="1117" fill="white"/>
</clipPath>
</defs>
</svg>
