<svg width="1512" height="982" viewBox="0 0 1512 982" fill="none" xmlns="http://www.w3.org/2000/svg">
<path d="M1512 241.252V982H0C0 735.08 0 488.171 0 241.252C7.182 236.601 14.2905 231.824 21.5775 227.352C24.339 225.658 27.4365 224.385 30.5235 223.386C38.346 220.85 45.549 217.209 50.547 210.57C55.986 203.341 63.819 199.322 70.77 194.113C73.164 192.314 75.2745 192.872 77.238 195.008C79.7265 197.712 82.2465 200.395 84.903 202.941C86.2575 204.246 87.8115 205.888 89.502 206.193C93.345 206.908 96.201 208.981 99.0465 211.359C102.805 214.495 106.753 217.43 110.481 220.597C112.864 222.628 115.342 223.891 118.545 223.375C122.188 222.786 125.464 223.922 128.499 225.806C135.492 230.13 141.981 228.699 148.218 224.185C149.205 223.47 150.108 222.617 151.105 221.913C154.549 219.461 157.752 219.566 161.249 221.891C163.989 223.712 166.782 225.564 169.764 226.9C182.364 232.54 183.519 232.35 193.557 222.681C196.612 219.734 199.668 217.104 203.626 215.368C205.705 214.452 207.207 212.253 208.981 210.643C210.483 209.286 211.827 207.234 213.58 206.761C217.917 205.593 222.432 204.804 226.915 204.551C230.181 204.362 232.848 203.489 234.549 200.848C237.867 195.681 242.571 192.767 248.356 191.23C250.372 190.694 252.241 189.599 254.257 189.052C258.163 188.011 261.051 185.801 263.434 182.529C264.715 180.772 266.574 179.214 268.495 178.194C272.968 175.816 277.599 173.732 282.229 171.67C292.635 167.019 302.83 162.063 310.663 153.393C311.367 152.615 312.144 151.878 312.973 151.257C319.137 146.67 324.912 141.346 331.611 137.737C340.567 132.918 349.461 128.151 357.546 121.943C362.796 117.913 364.759 118.018 369.873 122.28C377.538 128.667 385.381 134.843 392.836 141.451C403.189 150.626 415.863 156.581 425.985 166.114C431.676 171.47 438.196 175.995 444.549 180.593C449.2 183.96 454.545 186.422 458.934 190.062C462.735 193.219 466.578 194.208 471.303 194.071C473.088 194.019 475.135 195.544 476.7 196.797C481.614 200.732 486.328 204.909 491.211 208.897C492.219 209.718 493.584 210.633 494.77 210.622C500.902 210.591 505.827 213.295 510.52 216.841C515.991 220.966 521.682 224.638 528.622 225.932C530.092 226.206 531.478 227.226 532.759 228.11C536.214 230.498 539.585 233.013 543.008 235.444C543.827 236.023 544.761 236.98 545.59 236.917C551.04 236.528 554.641 240.042 558.736 242.672C562.38 245.008 566.065 247.428 570.055 249.017C578.812 252.489 586.792 251.837 592.431 243.041C592.525 242.893 592.662 242.778 592.777 242.641C597.534 236.633 603.288 232.14 610.522 229.257C615.646 227.216 620.918 225.259 625.044 221.092C629.36 216.736 630.882 216.851 635.712 220.776C646.033 229.162 656.281 237.643 666.603 246.018C667.926 247.092 669.459 247.997 671.034 248.68C677.04 251.343 683.067 254.005 689.188 256.383C690.406 256.856 692.265 256.456 693.556 255.867C698.439 253.647 703.605 251.753 707.899 248.67C712.246 245.545 715.68 241.147 719.512 237.306C720.132 236.685 720.657 235.896 721.392 235.486C724.909 233.497 728.5 231.403 732.574 234.034C735.063 235.633 737.226 234.844 739.399 233.455C747.663 228.194 756.052 223.112 764.158 217.62C768.81 214.463 773.199 211.18 779.037 210.444C781.2 210.17 783.331 208.949 785.284 207.834C787.909 206.34 790.482 206.235 793.359 206.856C795.721 207.371 798.22 207.697 800.604 207.508C803.754 207.266 805.98 207.908 807.397 211.001C808.447 213.295 810.243 214.737 813.036 215.126C817.939 215.799 821.614 218.924 822.937 223.396C825.216 231.088 830.361 236.791 834.76 243.072C836.398 245.419 838.561 246.366 841.102 245.45C849.45 242.409 859.12 242.662 865.83 235.37C866.827 234.286 869.011 233.844 870.607 233.908C871.878 233.96 873.421 234.981 874.282 236.033C880.246 243.314 885.843 250.922 892.048 258.003C894.778 261.117 898.59 262.875 903.304 261.538C906.916 260.507 910.602 260.875 913.689 263.569C914.466 264.243 915.432 264.905 916.398 265.105C922.057 266.231 927.328 268.609 931.003 272.828C934.783 277.174 939.697 279.057 944.401 281.604C946.239 282.603 947.95 283.961 949.903 284.624C952.885 285.634 955.164 287.401 956.781 289.979C958.765 293.146 961.464 294.135 965.149 293.978C968.94 293.809 972.856 293.957 976.552 294.735C980.962 295.672 985.099 297.913 989.52 298.713C996.523 299.986 1003.63 299.554 1009.4 294.819C1015.58 289.727 1022.31 285.844 1029.92 283.529C1034.17 282.246 1037.15 279.805 1039.47 275.964C1044.53 267.557 1050.1 259.518 1057.66 253.037C1059.68 251.311 1061.59 250.154 1064.25 250.848C1069.66 252.268 1075.14 253.468 1080.43 255.246C1083.62 256.319 1086.19 258.582 1086.7 262.359C1087.04 264.926 1087.46 267.494 1087.79 270.061C1088.38 274.775 1088.38 274.554 1093.15 274.996C1098.88 275.533 1104.2 277.006 1109.04 280.688C1113.58 284.14 1118.7 287.107 1124 289.169C1127.16 290.39 1129.9 291.884 1132.57 293.809C1139.7 298.934 1146.48 304.079 1155.34 306.878C1164.47 309.771 1172.69 315.727 1181.12 320.651C1183.78 322.208 1186.23 323.376 1189.38 323.323C1197.6 323.187 1205.82 323.197 1214.04 323.323C1216.82 323.366 1219.08 322.597 1221.3 320.935C1226.47 317.042 1231.72 313.243 1237.08 309.624C1239.05 308.298 1241.4 307.519 1243.63 306.583C1245.82 305.657 1248.33 305.236 1250.23 303.91C1258.41 298.207 1266.36 292.189 1274.5 286.433C1282.11 281.046 1288.22 280.573 1294.08 285.728C1295.76 287.212 1297.86 289.358 1299.72 289.316C1306.84 289.127 1314.95 292.757 1320.48 284.876C1320.94 284.213 1321.93 283.929 1322.63 283.424C1327.02 280.278 1332.06 280.383 1337.16 280.068C1345.46 279.563 1353.75 278.7 1360.94 273.691C1365.81 270.293 1370.89 267.189 1375.76 263.78C1379.32 261.296 1382.99 260.749 1387.18 261.759C1390.51 262.57 1393.96 263.085 1397.39 263.317C1401.4 263.59 1405.45 263.559 1409.46 263.39C1416.9 263.075 1424.04 261.665 1429.56 256.067C1431.64 253.963 1434 253.689 1436.77 253.984C1441.25 254.457 1445.78 255.015 1450.26 254.815C1452.67 254.71 1455.47 253.657 1457.29 252.09C1460.34 249.48 1463.72 248.081 1467.41 246.85C1471.01 245.64 1474.63 244.209 1477.85 242.241C1481.8 239.831 1485.91 239.284 1489.86 240.978C1493.97 242.746 1498.06 242.294 1502.19 242.22C1505.47 242.157 1508.73 241.61 1512 241.284V241.252Z" fill="#84C77F"/>
<path d="M1372.55 35C1372.53 35.5171 1372.64 36.4064 1372.46 36.4891C1368.44 38.0403 1367.66 42.0732 1365.86 45.2273C1363.48 49.3843 1363.08 49.5188 1359.66 46.4992C1357.16 44.2966 1354.37 42.4248 1352.06 40.6669C1355.34 40.0878 1356.35 40.5118 1361.82 45.1962C1364.37 41.794 1366.92 38.4022 1369.46 35C1370.49 35 1371.53 35 1372.56 35H1372.55Z" fill="#10975D"/>
<path d="M1424.17 51.6797C1428.51 50.7903 1431.71 53.9237 1435.53 55.5058C1438.32 52.9413 1439.94 48.8876 1445 48.3188C1443.12 51.1419 1441.57 53.4583 1440.03 55.7954C1437.63 59.4458 1435.87 59.6526 1432.23 57.0156C1429.65 55.1439 1426.91 53.479 1424.18 51.69L1424.17 51.6797Z" fill="#169A61"/>
<path d="M1388.18 51.4216C1390.07 52.7349 1391.96 54.0379 1393.89 55.3719C1397.17 50.5426 1401.38 48.5158 1406.78 49.5913C1402.36 53.2106 1397.97 56.83 1393.14 60.7802C1391.3 58.0502 1389.32 55.134 1387.35 52.2179C1387.62 51.949 1387.9 51.6905 1388.17 51.4216H1388.18Z" fill="#0A9459"/>
<path d="M111 144.729C115.198 143.87 118.404 146.993 122.344 148.637C124.847 145.804 126.853 142.247 131.878 141.068C129.728 144.356 128.104 146.838 126.47 149.31C124.454 152.36 122.51 152.65 119.304 150.426C116.543 148.513 113.771 146.621 111 144.729Z" fill="#169A61"/>
<path d="M1418.36 78.2982C1414.44 78.8256 1411.5 77.2745 1409.24 73.8413C1407.96 74.8443 1406.67 75.8578 1405.38 76.8608C1405.36 76.7988 1405.34 76.7471 1405 75.8991C1406.49 73.893 1408.26 71.5145 1409.96 69.2085C1412.91 72.4039 1415.62 75.3407 1418.36 78.2982Z" fill="#179A62"/>
<path d="M162.064 189.639C160.689 190.756 159.469 191.749 158.259 192.741C158.01 192.566 157.762 192.39 157.524 192.224C159.282 189.815 161.04 187.416 162.809 185.006C165.766 188.171 168.476 191.087 171.268 194.075C167.39 194.706 164.536 193.072 162.085 189.639H162.064Z" fill="#179A62"/>
<path d="M1387.35 52.2176C1387.02 51.7625 1386.69 51.3075 1386.36 50.8525C1386.96 51.0387 1387.57 51.2352 1388.17 51.4213C1387.9 51.6902 1387.62 51.9487 1387.35 52.2176Z" fill="#0A9459"/>
</svg>
