<svg width="1728" height="1117" viewBox="0 0 1728 1117" fill="none" xmlns="http://www.w3.org/2000/svg">
<g clip-path="url(#clip0_299_997)">
<path fill-rule="evenodd" clip-rule="evenodd" d="M0 678.179V676.939C28.3009 666.578 53.5106 645.064 63.973 633.883L42.1247 639.858L61.9868 624.921L50.0695 627.908L63.973 615.959L83.8351 584.592L73.904 592.06L60.0006 599.528L38.1523 605.503L54.0419 593.554L30.2075 596.541L56.0282 584.592C63.973 581.007 65.9592 573.14 65.9592 569.655L52.0557 572.642L75.8902 541.275L54.0419 545.756C65.1647 540.976 79.8626 516.878 85.8213 505.426L67.9454 514.388L71.9178 509.907H61.9868L83.8351 491.983L73.904 493.477L46.0971 497.958L67.9454 487.502L81.8488 477.046L71.9178 480.034L75.8902 474.059L56.657 479.319C76.2383 473.149 93.3848 449.653 99.7247 438.211L83.8351 447.173L89.7937 438.211L77.8764 441.198C90.5882 435.223 107.007 406.843 113.628 393.4L149.38 441.198L133.49 436.717L139.449 447.173L121.573 438.211L159.311 477.046L141.435 469.578L147.394 477.046L135.476 472.565L165.27 497.958L151.366 490.489L157.325 497.958L135.476 491.983L163.283 520.363L129.518 505.426L141.435 517.376L189.104 545.756L163.283 539.781L171.228 550.237L141.435 533.806L173.214 560.693L163.283 559.199L165.27 565.174L145.407 560.693L185.132 590.566L165.27 583.098V590.566L149.38 583.098L155.339 599.528C156.724 604.738 179.354 620.17 194.782 629.977V623.389C199.927 613.691 209.832 592.055 208.289 583.103C206.745 574.15 206.359 579.372 206.359 583.103L175.486 612.199L204.43 567.436V558.483L198.641 538.339L210.218 513.72V493.576L192.852 495.814L217.936 471.195L219.866 462.242L204.43 468.957L208.289 462.242L231.443 424.193L243.021 319L254.598 350.334L246.88 345.858L248.809 410.764L266.175 442.099L277.752 462.242L266.175 468.957L291.259 504.767L277.752 502.529L304.766 549.53L298.977 551.768L331.78 562.959L302.836 571.912L324.061 583.103L304.766 587.579L343.357 630.104L316.343 618.913L343.357 648.009L325.991 650.247L337.568 670.391L329.85 672.629L356.864 697.249L325.991 686.058L368.441 715.154C362.652 722.615 347.216 734.85 331.78 724.107L360.723 750.964L341.427 748.726C351.718 755.441 373.458 772.003 378.089 784.537L358.793 775.584L347.216 784.537L349.146 800.204L395.455 844.967V856.158L353.005 833.776L362.652 865.111L395.455 900.921L418.609 918.826L399.314 916.588L389.666 912.112L430.186 936.732H457.2L443.693 950.161L432.644 952.491L479.126 955.126L505.047 955.523L523.561 956.716L580.955 960.097H624.552L626.701 958.931L634.201 946.829L601.201 955.474V951.151L637.201 933.862L638.701 927.81L629.701 924.352L614.701 927.81C618.301 922.969 635.201 916.572 643.201 913.979L628.201 914.843L650.701 904.47C638.701 908.619 626.701 903.893 622.201 901.012L655.201 889.773L631.201 894.096L652.201 884.587L646.201 883.722L655.201 875.942L641.701 875.077L662.701 863.839L641.701 868.162L671.701 851.737L656.701 850.008L673.201 845.685L650.701 842.227L676.201 837.905L671.701 837.041L692.701 818.887L682.201 819.751L701.701 805.92L692.701 803.326L701.701 795.546L715.201 783.443V770.8V767.8L721.801 770.8L728.701 788.63L746.701 803.326L749.701 805.92L737.701 803.326L739.201 806.784L757.198 815.56L767.101 806.316V802.116L762.601 792.664L771.601 781.112V771.66L758.101 772.711L777.601 761.159L779.101 756.958L767.101 760.109L770.101 756.958L788.101 739.105L795.001 717.445L801.601 713.8V717.445V732.804L815.101 747.506L824.101 756.958L815.101 760.109L834.601 776.911L824.101 775.861L845.101 797.915L840.601 798.965L866.101 804.216L843.601 808.417L860.101 813.667L845.101 815.768L875.101 835.721L854.101 830.47L875.101 844.123L861.601 845.173L870.601 854.624L864.601 855.674L885.601 867.226L861.601 861.976L894.601 875.628C890.101 879.128 878.101 884.869 866.101 879.829L888.601 892.431L873.601 891.38C877.953 893.094 884.94 896.176 890.986 899.577L905.06 892.049L890.742 894.995L911.196 883.801L900.969 882.623L912.219 879.677L896.878 877.321L914.265 874.375L911.196 873.786L925.515 861.415L918.355 862.004L931.651 852.578L925.515 850.81L931.651 845.508L940.855 837.261V828.644V826.6L945.355 828.644L950.06 840.795L962.333 850.81L964.378 852.578L956.196 850.81L957.219 853.167L970.515 859.647L961.31 859.058V864.36L967.446 870.841L964.378 876.143V878.499L979.719 890.282L963.355 882.623C963.355 881.641 963.151 880.267 962.333 882.623C961.515 884.98 966.765 890.674 969.492 893.227V898.529L983.81 909.723L967.446 902.653V908.544L984.833 919.738L986.878 925.629L971.537 915.614L981.765 923.862L982.787 933.288L979.719 930.931L974.605 929.164L990.969 944.481L989.151 946.575H991.974L1019.75 945.581L1030.85 946.177L1037.56 945.638C1037.95 945.606 1038.26 945.274 1038.26 944.876C1038.26 944.485 1038.55 944.157 1038.94 944.116L1041.43 943.849C1041.73 943.816 1041.96 943.558 1041.96 943.251C1041.96 942.982 1042.14 942.746 1042.4 942.672L1047.11 941.323C1047.38 941.245 1047.66 941.197 1047.94 941.178L1062.33 940.212L1134.53 938.621L1177.12 942.002L1216.64 946.926L1234.5 938.259L1236 931.343H1216.5L1210.5 930.479L1243.5 915.783L1236 914.918L1215 920.97L1240.5 908.867L1237.5 907.138L1219.5 910.596H1207.5L1237.5 895.036L1234.5 891.578L1258.5 869.101L1251 871.695L1246.5 875.153L1248 861.321L1263 849.218L1240.5 863.914L1243.5 855.27L1269 838.845V830.2L1245 840.574L1266 824.149V816.368C1270 812.622 1277.7 804.266 1276.5 800.808C1275.3 797.35 1275 799.367 1275 800.808L1251 812.046L1273.5 794.757V791.299L1269 783.518L1278 774.009V766.229L1264.5 767.093L1284 757.584L1285.5 754.126L1273.5 756.72L1276.5 754.126L1294.5 739.43L1301.4 721.6L1308 718.6V721.6V734.243L1321.5 746.346L1330.5 754.126L1321.5 756.72L1341 770.551L1330.5 769.687L1351.5 787.841L1347 788.705L1372.5 793.028L1350 796.486L1365.94 800.66C1376.05 793.634 1384.71 786.331 1388.24 780.179L1392.13 768.555L1394.72 754.347L1370.08 773.721L1379.16 759.514L1362.3 768.555L1368.79 759.514L1346.75 771.138L1376.57 749.181L1394.72 734.974L1407.68 703.976L1408.98 693.643L1399.9 706.559L1398.61 697.518L1386.94 714.308L1392.13 698.809L1375.27 718.183L1377.86 706.559L1349.34 723.349L1362.3 709.142L1349.34 711.725C1364.9 703.545 1398.87 683.569 1410.28 669.103L1392.13 678.144L1398.61 669.103L1384.35 678.144C1393.85 670.395 1413.13 653.604 1414.17 648.438L1418.06 634.23L1407.68 640.688V634.23L1394.72 640.688L1420.65 614.857L1407.68 618.732L1408.98 613.565L1402.5 614.857L1423.24 591.608L1403.79 605.816L1408.98 596.775L1392.13 601.941L1423.24 577.401L1431.02 567.068L1408.98 579.984L1427.13 555.444L1412.87 560.61L1416.76 554.153L1407.68 560.61L1427.13 538.654L1419.35 542.528L1423.24 536.07L1411.57 542.528L1436.21 508.947L1424.54 516.697L1428.43 507.656L1418.06 511.53L1441.39 470.2C1445.72 481.824 1456.43 506.364 1464.73 511.53L1456.95 508.947L1460.84 516.697L1450.47 508.947C1454.61 518.842 1465.8 539.159 1478.58 544.493L1466.03 539.945L1468.62 545.111L1462.14 542.528L1471.21 551.569L1485.48 560.61L1467.33 556.736L1460.84 555.444L1475.1 570.943H1468.62L1471.21 574.818L1459.55 567.068C1463.44 576.97 1473.03 597.808 1480.29 601.941L1466.03 598.066L1481.59 625.189L1472.51 622.606C1472.51 625.62 1473.81 632.422 1478.99 635.522L1495.85 645.855L1480.29 643.271L1490.66 653.604L1476.4 648.438L1467.33 641.98L1460.84 635.522L1473.81 662.645L1482.88 672.978L1475.1 670.395L1488.07 683.31L1473.81 678.144C1481.63 689.224 1502.1 712.037 1523.76 718.624L1507.52 714.308L1515.3 720.766L1495.85 714.308L1501.04 722.058L1485.48 714.308L1490.66 723.349L1472.51 711.725C1475.54 722.488 1487.29 745.306 1510.11 750.473L1536.04 760.805L1521.78 759.514L1528.97 766.675C1536.56 760.542 1545.41 754.968 1550.89 751.884L1532.21 753.751L1560.23 731.346C1545.29 740.308 1530.34 730.101 1524.74 723.878L1565.84 699.605L1535.95 708.941L1562.1 688.403L1554.63 686.535L1565.84 669.732L1549.02 667.864L1575.18 643.592L1549.02 652.928L1586.39 617.453L1567.71 613.718L1588.26 604.383L1560.23 596.914L1591.99 587.579L1586.39 585.712L1612.54 546.503L1599.46 548.37L1623.75 518.496L1612.54 512.895L1623.75 496.091L1640.56 469.951L1642.43 415.805L1634.96 419.539L1646.17 393.4L1657.38 481.154L1679.8 512.895L1683.53 518.496L1668.59 512.895L1670.46 520.363L1694.74 540.901L1677.93 539.034V555.838L1689.14 576.376L1683.53 593.18V600.649L1711.56 637.991L1681.66 613.718C1681.66 610.607 1681.29 606.25 1679.8 613.718C1678.3 621.187 1687.89 639.236 1692.87 647.326V664.13L1719.03 699.605L1689.14 677.2V695.871L1720.9 731.346L1724.63 750.017L1696.61 718.276L1715.29 744.416L1717.16 774.289L1711.56 766.821L1702.21 761.22L1728 803.097V843.741L1724.63 847.107L1728 849.878V860.623L1720.9 862.043L1728 867.529V1117H0V941.646L1.45573 941.604L9.40821 941.946L34.1799 919.177L0 927.402V916.803L10.3454 907.227L0 911.673V887.543C20.903 877.981 37.9994 861.897 46.0971 851.961C36.2298 861.237 15.3521 866.912 0 869.686V864.891L4.3868 862.417L0 863.736V847.107L6.373 844.493C38.1523 836.128 55.3661 800.18 60.0006 783.252L18.2902 811.632L28.2213 796.695L0 815.088V813.917L12.3316 796.695L0 801.332V798.21L2.40059 795.201L0 796.369V783.729L20.2764 774.289C48.8778 759.95 56.0282 731.471 56.0282 719.023C48.3365 730.592 16.4432 743.094 0 748.397V746.533L8.35921 733.96L0 737.552V720.044L8.35921 717.529C43.3164 711.555 61.3247 685.166 65.9592 672.719L38.1523 686.162L46.0971 675.706L22.2626 684.668L30.2075 675.706L0.414383 683.175L12.3316 675.706L0 678.179ZM1526.97 719.475L1523.76 718.624C1524.83 718.948 1525.9 719.233 1526.97 719.475ZM1480.29 545.111L1478.58 544.493C1479.15 544.729 1479.72 544.936 1480.29 545.111ZM54.0419 480.034C54.9179 479.831 55.7898 479.592 56.657 479.319L54.0419 480.034ZM58.0144 941.582V944.62L53.2961 944.388L50.9282 944.247L58.0144 941.582ZM1477.7 951.348H1477.97L1480.52 945.613L1477.7 944.209V951.348ZM194.782 630.897L179.173 623.427L189.104 633.883L161.297 623.427C168.143 629.98 180.29 637.509 193.968 644.814L194.782 643.533V630.897ZM194.695 662.633L198.641 666.058V681.582L184.967 699.308L174.42 680.272L189.319 667.31L197.049 675.706L192.212 664.793L194.695 662.633ZM183.614 661.113L179.173 656.288L177.187 666.744L163.283 651.807L165.27 663.757L173.033 677.77L183.614 661.113ZM1511.82 947.437L1509.55 944.668L1515.4 942.329L1511.82 947.437ZM1503.61 888.414L1503.66 888.46L1504.19 888.183L1503.61 888.414ZM1498.58 878.847L1495.93 880.613C1491.46 875.568 1487.87 870.598 1485.48 866.715C1488.95 871.039 1494.51 874.459 1500.47 877.069L1498.58 878.847ZM1530.34 848.974L1515.81 862.647L1511.41 860.257C1490.66 853.024 1479.43 821.94 1476.4 807.302L1501.39 829.828L1498.58 832.17V841.505L1514.78 834.148L1516.59 835.717L1515.56 833.795L1529.35 827.528L1536.04 831.842L1531.58 826.513L1533.81 825.503L1538.21 826.964L1530.34 848.974ZM1505.66 826.276L1502.26 829.11L1497.15 818.926L1505.66 826.276ZM1511.88 821.097L1509.68 822.927L1507.52 818.926L1511.88 821.097ZM1515.15 818.374L1514.68 818.763L1514 817.635L1515.15 818.374ZM1539.42 823.579L1538.99 823.151L1539.68 822.834L1539.42 823.579ZM1502.33 799.553L1522.68 812.1L1543.42 794.828L1545.29 781.758L1534.08 774.289L1515.4 781.758C1516.71 778.689 1519.46 775.33 1522.93 771.975L1510.11 764.68L1516.59 777.596C1506.22 773.29 1484.18 762.097 1478.99 751.764C1478.99 762.527 1483.66 787.153 1502.33 799.553ZM1528.04 767.433C1526.76 768.488 1525.53 769.558 1524.35 770.632L1517.89 763.388L1528.04 767.433ZM1351.5 802.537L1365.57 800.915C1363.07 802.643 1360.49 804.354 1357.87 806.025L1351.5 802.537ZM1381.5 818.962L1379.49 818.548L1374.18 821.96L1377.96 823.983L1386.94 813.76L1380.07 818.177L1381.5 818.962ZM1381.5 825.878L1380.5 825.942L1373.19 831.232L1377 834.522L1371 835.387L1391.37 844.608C1393.61 842.819 1395.25 841.12 1396.01 839.591L1401.2 829.259L1402.5 807.302L1380.46 831.842L1383.05 824.093L1380.97 825.596L1381.5 825.878ZM1368 826.742L1375.98 826.231L1372.28 830.445L1368 826.742ZM1368 840.574L1391.19 844.75C1390.14 845.576 1388.96 846.42 1387.68 847.276L1368 840.574ZM1372.88 855.399C1372.99 855.433 1373.09 855.467 1373.19 855.5L1373.1 855.546L1372.5 855.27C1372.57 855.294 1372.64 855.318 1372.71 855.341C1372.77 855.361 1372.82 855.38 1372.88 855.399ZM1384.51 860.805L1383.83 860.493L1385.64 858.965L1384.51 860.805ZM1380 864.779L1381.98 864.893L1381.7 865.343C1381.1 865.14 1380.53 864.951 1380 864.779ZM1390.32 865.374L1387.41 867.385C1388.6 867.836 1389.84 868.314 1391.08 868.815L1391.83 865.461L1390.32 865.374ZM1401.37 873.491C1399.59 872.55 1397.63 871.616 1395.6 870.719L1405.09 862.84L1408.98 866.715L1403.79 871.881L1401.37 873.491ZM1393.5 875.153L1397.48 876.071L1385.8 883.834L1384.5 878.611L1393.5 875.153ZM1392.59 887.826L1386.28 884.797H1394.72L1392.59 887.826ZM1391.96 864.243L1392.09 864.3L1392.13 864.131L1391.96 864.243ZM756.56 816.156L745.201 815.429V823.209L746.985 825.094L756.56 816.156ZM747.52 825.659L754.201 832.718L749.701 840.498V843.956L754.049 847.297L759.601 842.022V832.571C763.601 828.02 771.301 817.868 770.101 813.667C768.901 809.467 768.601 811.917 768.601 813.667L747.52 825.659ZM750.208 850.947L748.201 850.008C748.201 848.567 747.901 846.55 746.701 850.008C746.383 850.926 746.692 852.19 747.393 853.622L750.208 850.947ZM749.108 856.458L755.175 853.273L762.601 856.751V859.875L756.357 864.761C754.13 862.595 751.184 859.427 749.108 856.458ZM762.601 853.869L759.126 851.198L762.601 849.373V853.869ZM891.278 899.742C893.226 900.846 895.068 901.982 896.685 903.115L899.946 900.297L891.278 899.742ZM896.783 906.694L887.101 903.983L878.101 908.183L879.601 915.535L880.806 916.238L899.946 909.723L883.583 912.668L896.783 906.694ZM888.636 920.806L891.251 922.331L896.878 919.738C894.061 920.711 891.244 920.968 888.636 920.806ZM883.88 933.795L887.074 940.056L887.674 939.768L888.696 935.644L883.88 933.795Z" fill="#0F1E24"/>
</g>
<defs>
<clipPath id="clip0_299_997">
<rect width="1728" height="1117" fill="white"/>
</clipPath>
</defs>
</svg>
