<svg width="681" height="114" viewBox="0 0 681 114" fill="none" xmlns="http://www.w3.org/2000/svg">
<path d="M168.704 23.568C169.92 23.568 171.072 23.664 172.16 23.856C173.248 24.048 174.144 24.656 174.848 25.68C175.616 26.704 176 28.464 176 30.96C176 33.392 175.616 35.152 174.848 36.24C174.144 37.264 173.216 37.872 172.064 38.064C170.976 38.256 169.824 38.352 168.608 38.352H155.36V82.32C155.36 83.728 155.232 85.104 154.976 86.448C154.72 87.728 153.984 88.784 152.768 89.616C151.616 90.448 149.568 90.864 146.624 90.864C143.808 90.864 141.792 90.448 140.576 89.616C139.36 88.72 138.624 87.632 138.368 86.352C138.176 85.008 138.08 83.632 138.08 82.224V38.352H124.736C123.584 38.352 122.432 38.256 121.28 38.064C120.192 37.808 119.264 37.168 118.496 36.144C117.792 35.12 117.44 33.36 117.44 30.864C117.44 28.432 117.792 26.704 118.496 25.68C119.264 24.656 120.224 24.048 121.376 23.856C122.528 23.664 123.68 23.568 124.832 23.568H168.704ZM193.342 90.768C190.462 90.768 188.414 90.352 187.198 89.52C185.982 88.624 185.246 87.504 184.99 86.16C184.734 84.752 184.606 83.344 184.606 81.936V32.4C184.606 30.992 184.734 29.616 184.99 28.272C185.246 26.928 185.982 25.84 187.198 25.008C188.414 24.112 190.494 23.664 193.438 23.664H212.734C215.166 23.664 217.79 24.176 220.606 25.2C223.422 26.16 226.078 27.664 228.574 29.712C231.07 31.76 233.118 34.32 234.718 37.392C236.318 40.464 237.118 44.112 237.118 48.336C237.118 51.28 236.67 54.032 235.774 56.592C234.942 59.152 233.662 61.488 231.934 63.6C230.27 65.648 228.222 67.472 225.79 69.072C223.422 70.608 220.702 71.824 217.63 72.72H202.174V82.032C202.174 83.44 202.046 84.816 201.79 86.16C201.534 87.504 200.798 88.624 199.582 89.52C198.366 90.352 196.286 90.768 193.342 90.768ZM233.566 88.464C230.686 90.64 228.414 91.504 226.75 91.056C225.086 90.672 223.294 89.2 221.374 86.64L203.71 62.64L223.678 60.144L235.582 76.176C236.862 78.032 237.662 79.6 237.982 80.88C238.366 82.16 238.206 83.376 237.502 84.528C236.798 85.68 235.486 86.992 233.566 88.464ZM202.174 55.248H212.734C213.31 55.248 213.982 55.152 214.75 54.96C215.582 54.704 216.35 54.32 217.054 53.808C217.758 53.232 218.334 52.496 218.782 51.6C219.294 50.704 219.55 49.584 219.55 48.24C219.55 46.896 219.23 45.712 218.59 44.688C217.95 43.6 217.086 42.768 215.998 42.192C214.974 41.552 213.822 41.232 212.542 41.232H202.174V55.248ZM255.408 90.864C252.528 90.864 250.48 90.448 249.264 89.616C248.048 88.72 247.312 87.6 247.056 86.256C246.8 84.848 246.672 83.44 246.672 82.032V32.4C246.672 29.072 247.312 26.8 248.592 25.584C249.936 24.304 252.304 23.664 255.696 23.664H290.832C292.304 23.664 293.68 23.792 294.96 24.048C296.304 24.304 297.392 25.04 298.224 26.256C299.12 27.472 299.568 29.552 299.568 32.496C299.568 35.376 299.12 37.424 298.224 38.64C297.392 39.856 296.304 40.592 294.96 40.848C293.616 41.104 292.208 41.232 290.736 41.232H264.24V49.776H282C283.472 49.776 284.784 49.904 285.936 50.16C287.088 50.352 288.016 50.96 288.72 51.984C289.424 53.008 289.776 54.8 289.776 57.36C289.776 59.792 289.424 61.552 288.72 62.64C288.016 63.664 287.056 64.272 285.84 64.464C284.624 64.656 283.28 64.752 281.808 64.752H264.24V73.296H290.832C292.304 73.296 293.68 73.424 294.96 73.68C296.304 73.936 297.392 74.672 298.224 75.888C299.12 77.104 299.568 79.184 299.568 82.128C299.568 85.008 299.12 87.056 298.224 88.272C297.392 89.488 296.304 90.224 294.96 90.48C293.616 90.736 292.208 90.864 290.736 90.864H255.408ZM317.092 90.864C314.212 90.864 312.164 90.448 310.948 89.616C309.732 88.72 308.996 87.6 308.74 86.256C308.484 84.848 308.356 83.44 308.356 82.032V32.4C308.356 29.072 308.996 26.8 310.276 25.584C311.62 24.304 313.988 23.664 317.38 23.664H352.516C353.988 23.664 355.364 23.792 356.644 24.048C357.988 24.304 359.076 25.04 359.908 26.256C360.804 27.472 361.252 29.552 361.252 32.496C361.252 35.376 360.804 37.424 359.908 38.64C359.076 39.856 357.988 40.592 356.644 40.848C355.3 41.104 353.892 41.232 352.42 41.232H325.924V49.776H343.684C345.156 49.776 346.468 49.904 347.62 50.16C348.772 50.352 349.7 50.96 350.404 51.984C351.108 53.008 351.46 54.8 351.46 57.36C351.46 59.792 351.108 61.552 350.404 62.64C349.7 63.664 348.74 64.272 347.524 64.464C346.308 64.656 344.964 64.752 343.492 64.752H325.924V73.296H352.516C353.988 73.296 355.364 73.424 356.644 73.68C357.988 73.936 359.076 74.672 359.908 75.888C360.804 77.104 361.252 79.184 361.252 82.128C361.252 85.008 360.804 87.056 359.908 88.272C359.076 89.488 357.988 90.224 356.644 90.48C355.3 90.736 353.892 90.864 352.42 90.864H317.092ZM417.271 90.768C414.391 90.768 412.343 90.352 411.127 89.52C409.911 88.624 409.175 87.504 408.919 86.16C408.663 84.752 408.535 83.344 408.535 81.936V32.4C408.535 30.992 408.663 29.616 408.919 28.272C409.175 26.928 409.911 25.84 411.127 25.008C412.343 24.112 414.423 23.664 417.367 23.664C420.311 23.664 422.359 24.112 423.511 25.008C424.727 25.84 425.463 26.928 425.719 28.272C425.975 29.616 426.103 31.024 426.103 32.496V82.032C426.103 83.44 425.975 84.816 425.719 86.16C425.463 87.504 424.727 88.624 423.511 89.52C422.295 90.352 420.215 90.768 417.271 90.768ZM377.815 90.768C374.935 90.768 372.887 90.352 371.671 89.52C370.455 88.624 369.719 87.504 369.463 86.16C369.207 84.752 369.079 83.344 369.079 81.936V32.4C369.079 30.992 369.207 29.616 369.463 28.272C369.719 26.928 370.455 25.84 371.671 25.008C372.887 24.112 374.967 23.664 377.911 23.664C380.855 23.664 382.903 24.112 384.055 25.008C385.271 25.84 386.007 26.928 386.263 28.272C386.519 29.616 386.647 31.024 386.647 32.496V82.032C386.647 83.44 386.519 84.816 386.263 86.16C386.007 87.504 385.271 88.624 384.055 89.52C382.839 90.352 380.759 90.768 377.815 90.768ZM385.111 64.752V49.776H410.071V64.752H385.111ZM498.909 78.672C499.869 80.592 500.381 82.224 500.445 83.568C500.509 84.912 500.093 86.096 499.197 87.12C498.301 88.144 496.861 89.168 494.877 90.192C491.805 91.664 489.437 92.112 487.773 91.536C486.109 91.024 484.541 89.2 483.069 86.064L466.749 52.656L450.621 86.16C449.085 89.168 447.485 90.928 445.821 91.44C444.157 92.016 441.821 91.568 438.813 90.096C436.829 89.136 435.357 88.144 434.397 87.12C433.501 86.096 433.085 84.912 433.149 83.568C433.213 82.224 433.725 80.592 434.685 78.672L458.781 28.752C459.549 27.216 460.669 26 462.141 25.104C463.677 24.144 465.245 23.664 466.845 23.664C467.997 23.664 469.053 23.888 470.013 24.336C471.037 24.72 471.965 25.296 472.797 26.064C473.629 26.832 474.301 27.76 474.813 28.848L498.909 78.672ZM451.581 76.944L458.877 61.968H474.717L482.013 76.944H451.581ZM540.855 91.824C538.359 91.824 535.575 91.408 532.503 90.576C529.431 89.808 526.327 88.56 523.191 86.832C520.119 85.104 517.271 82.864 514.647 80.112C512.087 77.36 510.007 74.064 508.407 70.224C506.871 66.384 506.103 61.936 506.103 56.88C506.103 52.016 506.871 47.728 508.407 44.016C510.007 40.304 512.087 37.104 514.647 34.416C517.207 31.728 520.023 29.552 523.095 27.888C526.231 26.224 529.367 25.008 532.503 24.24C535.639 23.408 538.519 22.992 541.143 22.992C544.407 22.992 547.287 23.408 549.783 24.24C552.279 25.008 554.295 25.84 555.831 26.736C557.431 27.568 558.423 28.112 558.807 28.368C560.087 29.2 561.271 30.128 562.359 31.152C563.511 32.112 564.087 33.424 564.087 35.088C564.087 35.92 563.895 36.784 563.511 37.68C563.191 38.576 562.679 39.504 561.975 40.464C560.695 42.256 559.479 43.568 558.327 44.4C557.239 45.232 556.151 45.648 555.063 45.648C554.231 45.648 553.431 45.456 552.663 45.072C551.895 44.688 550.967 44.144 549.879 43.44C549.431 43.12 548.855 42.768 548.151 42.384C547.447 41.936 546.487 41.552 545.271 41.232C544.055 40.848 542.455 40.656 540.471 40.656C538.807 40.656 536.983 40.976 534.999 41.616C533.079 42.192 531.255 43.152 529.527 44.496C527.799 45.776 526.391 47.504 525.303 49.68C524.215 51.792 523.671 54.352 523.671 57.36C523.671 60.432 524.215 63.024 525.303 65.136C526.455 67.248 527.895 68.976 529.623 70.32C531.351 71.6 533.175 72.56 535.095 73.2C537.079 73.776 538.871 74.064 540.471 74.064C542.135 74.064 543.543 73.936 544.695 73.68C545.847 73.36 546.871 72.944 547.767 72.432C548.727 71.92 549.591 71.408 550.359 70.896C551.063 70.384 551.831 69.936 552.663 69.552C553.495 69.168 554.327 68.976 555.159 68.976C556.247 68.976 557.335 69.424 558.423 70.32C559.511 71.216 560.663 72.592 561.879 74.448C562.583 75.536 563.095 76.56 563.415 77.52C563.799 78.416 563.991 79.248 563.991 80.016C563.991 81.616 563.415 82.896 562.263 83.856C561.175 84.816 559.991 85.68 558.711 86.448C558.263 86.704 557.303 87.28 555.831 88.176C554.359 89.072 552.375 89.904 549.879 90.672C547.383 91.44 544.375 91.824 540.855 91.824ZM581.737 90.864C578.857 90.864 576.809 90.448 575.593 89.616C574.377 88.72 573.641 87.6 573.385 86.256C573.129 84.848 573.001 83.44 573.001 82.032V32.4C573.001 30.992 573.129 29.616 573.385 28.272C573.641 26.928 574.377 25.84 575.593 25.008C576.809 24.112 578.889 23.664 581.833 23.664C584.777 23.664 586.825 24.112 587.977 25.008C589.193 25.84 589.929 26.928 590.185 28.272C590.441 29.616 590.569 31.024 590.569 32.496V45.744L607.273 26.64C608.745 25.04 610.121 23.92 611.401 23.28C612.681 22.64 613.993 22.512 615.337 22.896C616.681 23.28 618.153 24.24 619.753 25.776C622.377 28.144 623.721 30.224 623.785 32.016C623.849 33.808 622.793 35.856 620.617 38.16L601.801 57.36L620.713 76.272C623.081 78.64 624.169 80.784 623.977 82.704C623.849 84.56 622.473 86.576 619.849 88.752C617.929 90.288 616.297 91.248 614.953 91.632C613.609 92.016 612.361 91.856 611.209 91.152C610.057 90.512 608.777 89.36 607.369 87.696L590.569 68.592V82.128C590.569 83.536 590.441 84.912 590.185 86.256C589.929 87.6 589.193 88.72 587.977 89.616C586.761 90.448 584.681 90.864 581.737 90.864ZM656.298 91.824C652.394 91.824 649.066 91.344 646.314 90.384C643.626 89.424 641.418 88.304 639.69 87.024C637.962 85.68 636.65 84.464 635.754 83.376C634.858 82.288 634.314 81.616 634.122 81.36C632.842 79.76 632.042 78.32 631.722 77.04C631.466 75.76 631.658 74.48 632.298 73.2C633.002 71.92 634.154 70.512 635.754 68.976C637.226 67.568 638.666 66.8 640.074 66.672C641.482 66.48 642.858 66.768 644.202 67.536C645.61 68.304 646.954 69.424 648.234 70.896C649.77 72.624 651.082 73.808 652.17 74.448C653.258 75.024 654.506 75.312 655.914 75.312C657.642 75.312 659.05 75.12 660.138 74.736C661.226 74.288 662.026 73.648 662.538 72.816C663.05 71.92 663.306 70.8 663.306 69.456C663.306 68.368 662.762 67.536 661.674 66.96C660.586 66.32 659.146 65.776 657.354 65.328C655.626 64.88 653.674 64.4 651.498 63.888C649.322 63.312 647.178 62.576 645.066 61.68C643.786 61.168 642.538 60.528 641.322 59.76C640.106 58.992 638.954 58.128 637.866 57.168C636.842 56.144 635.946 54.96 635.178 53.616C634.41 52.208 633.802 50.64 633.354 48.912C632.97 47.184 632.778 45.232 632.778 43.056C632.778 39.152 633.738 35.664 635.658 32.592C637.642 29.52 640.33 27.088 643.722 25.296C647.178 23.504 651.082 22.608 655.434 22.608C658.57 22.608 661.258 22.864 663.498 23.376C665.738 23.888 667.562 24.496 668.97 25.2C670.442 25.904 671.562 26.576 672.33 27.216C673.098 27.792 673.578 28.176 673.77 28.368C675.882 30.288 677.034 31.952 677.226 33.36C677.418 34.704 676.65 36.656 674.922 39.216C673.002 41.968 671.114 43.536 669.258 43.92C667.402 44.24 665.258 43.632 662.826 42.096C662.314 41.712 661.802 41.296 661.29 40.848C660.778 40.336 660.074 39.92 659.178 39.6C658.346 39.216 657.066 39.024 655.338 39.024C654.698 39.024 654.058 39.152 653.418 39.408C652.778 39.6 652.234 39.888 651.786 40.272C651.338 40.592 650.954 41.008 650.634 41.52C650.378 42.032 650.25 42.576 650.25 43.152C650.25 44.496 650.762 45.552 651.786 46.32C652.81 47.024 654.154 47.568 655.818 47.952C657.546 48.336 659.434 48.72 661.482 49.104C663.53 49.488 665.61 50 667.722 50.64C669.45 51.216 671.114 51.952 672.714 52.848C674.314 53.744 675.722 54.896 676.938 56.304C678.154 57.712 679.114 59.472 679.818 61.584C680.586 63.632 680.97 66.16 680.97 69.168C680.97 73.328 680.17 76.88 678.57 79.824C676.97 82.704 674.89 85.04 672.33 86.832C669.834 88.56 667.146 89.808 664.266 90.576C661.45 91.408 658.794 91.824 656.298 91.824Z" fill="#05502F"/>
<path d="M53.499 74.8039C57.3636 64.1095 72.5499 64.2875 76.1629 75.0695L80.8308 88.9998C83.4357 96.7736 77.6513 104.813 69.4526 104.813H59.7506C51.4332 104.813 45.6382 96.5565 48.4649 88.7342L53.499 74.8039Z" fill="#0F1E24"/>
<path d="M52.2294 28.4295C57.0219 21.8459 66.8404 21.8459 71.6329 28.4295L101.689 69.7183C107.462 77.6493 101.797 88.7806 91.9871 88.7806H31.8752C22.0654 88.7806 16.4001 77.6493 22.1735 69.7183L52.2294 28.4295Z" fill="#006138"/>
<path d="M52.7261 19.7923C57.5252 13.3652 67.1574 13.3652 71.9565 19.7923L93.4844 48.6229C99.3938 56.5369 93.746 67.8026 83.8692 67.8026H40.8135C30.9366 67.8026 25.2889 56.5369 31.1982 48.6229L52.7261 19.7923Z" fill="#019153"/>
<path d="M51.9773 12.4189C56.7806 6.15478 66.2194 6.15477 71.0227 12.4189L83.5055 28.6981C89.5585 36.592 83.9304 48 73.9828 48H49.0172C39.0696 48 33.4415 36.592 39.4945 28.6981L51.9773 12.4189Z" fill="#84C87F"/>
</svg>
