<svg width="1728" height="1117" viewBox="0 0 1728 1117" fill="none" xmlns="http://www.w3.org/2000/svg">
<rect x="626" y="249" width="476" height="620" fill="url(#paint0_radial_272_1642)"/>
<circle cx="863.5" cy="495.5" r="122.5" fill="url(#paint1_radial_272_1642)"/>
<circle cx="863.5" cy="495.5" r="79.5" fill="#FCF8B8"/>
<rect x="675" y="618" width="67" height="251" fill="#0F1E24" fill-opacity="0.5"/>
<path d="M1007 570H1102V869H1007V570Z" fill="url(#paint2_linear_272_1642)"/>
<path d="M954 665H1007V869H954V665Z" fill="url(#paint3_linear_272_1642)"/>
<rect x="1065" y="635" width="386" height="16" transform="rotate(-90 1065 635)" fill="#0F1E24"/>
<rect x="1060" y="632" width="26" height="33" rx="8" fill="#0F1E24"/>
<path d="M690.636 450.876L697.313 439L703.99 450.876V471.94H690.636V450.876Z" fill="#0B382A"/>
<path d="M690.636 450.796V471.94H695.087V450.796L697.313 439L690.636 450.796Z" fill="#0B382A"/>
<path d="M657.251 503.099C657.251 481.957 674.39 464.818 695.532 464.818H699.538C720.681 464.818 737.82 481.957 737.82 503.099H657.251Z" fill="#0B382A"/>
<path d="M657.243 502.209C657.236 502.505 657.233 502.802 657.233 503.1H737.802C737.802 481.958 720.663 464.818 699.52 464.818H695.519C711.582 468.457 723.575 482.82 723.575 499.984V502.209H657.243Z" fill="#0B382A"/>
<path d="M654.135 505.325L685.294 503.099V590.79H654.135V505.325Z" fill="#0B382A"/>
<path d="M654.135 501.764L685.294 499.538V587.23H654.135V501.764Z" fill="#0B382A"/>
<path d="M741.826 501.764L719.124 499.538V587.23H741.826V501.764Z" fill="#0B382A"/>
<path d="M685.294 499.538L719.124 499.538V587.23L685.294 587.23V499.538Z" fill="#0B382A"/>
<path d="M741.826 505.325L719.124 503.099V590.79H741.826V505.325Z" fill="#0B382A"/>
<path d="M685.294 503.099H719.124V590.79H685.294V503.099Z" fill="#0B382A"/>
<path d="M690.636 525.356C690.636 519.456 695.419 514.672 701.319 514.672C707.219 514.672 712.002 519.456 712.002 525.356V599.248H690.636V525.356Z" fill="#0B382A"/>
<path d="M663.482 524.243C663.482 520.678 666.372 517.789 669.937 517.789C673.502 517.789 676.391 520.678 676.391 524.243V599.248H663.482V524.243Z" fill="#0B382A"/>
<path d="M693.752 535.594C693.752 531.415 697.14 528.027 701.319 528.027C705.498 528.027 708.886 531.415 708.886 535.594V581.443H693.752V535.594Z" fill="#0B382A"/>
<path d="M665.263 535.372C665.263 532.791 667.356 530.698 669.937 530.698C672.518 530.698 674.611 532.791 674.611 535.372V581.888H665.263V535.372Z" fill="#0B382A"/>
<path d="M734.704 535.372C734.704 532.791 732.611 530.698 730.03 530.698C727.449 530.698 725.356 532.791 725.356 535.372V581.888H734.704V535.372Z" fill="#0B382A"/>
<path d="M685.294 568.534H719.124V594.797H685.294V568.534Z" fill="#0B382A"/>
<path d="M685.294 568.534H719.124V594.797H685.294V568.534Z" fill="#0B382A"/>
<path d="M639 582.874L703.099 579.663V869H639V582.874Z" fill="#0B382A"/>
<path d="M651.019 570.032L682.623 568.534V584.559H651.019V570.032Z" fill="#0B382A"/>
<path d="M671.94 594.955L675.946 594.797V609.041H671.94V594.955Z" fill="#0B382A"/>
<path d="M666.598 595.396L670.605 595.132V609.042H666.598V595.396Z" fill="#0B382A"/>
<path d="M671.94 628.93C671.94 627.854 672.789 626.971 673.864 626.928C675 626.884 675.946 627.793 675.946 628.93V641.091H671.94V628.93Z" fill="#0B382A"/>
<path d="M666.598 628.93C666.598 627.855 667.448 626.971 668.522 626.929C669.659 626.884 670.604 627.793 670.604 628.93V641.091H666.598V628.93Z" fill="#0B382A"/>
<path d="M688.855 628.93C688.855 627.854 689.704 626.971 690.779 626.928C691.915 626.884 692.861 627.793 692.861 628.93V641.091H688.855V628.93Z" fill="#0B382A"/>
<path d="M683.513 628.93C683.513 627.855 684.363 626.971 685.437 626.929C686.574 626.884 687.52 627.793 687.52 628.93V641.091H683.513V628.93Z" fill="#0B382A"/>
<path d="M655.025 628.93C655.025 627.854 655.874 626.971 656.949 626.928C658.085 626.884 659.031 627.793 659.031 628.93V641.091H655.025V628.93Z" fill="#0B382A"/>
<path d="M649.683 628.93C649.683 627.855 650.533 626.971 651.607 626.929C652.744 626.884 653.689 627.793 653.689 628.93V641.091H649.683V628.93Z" fill="#0B382A"/>
<path d="M703.099 579.663L756.515 584.21V869H703.099V579.663Z" fill="#0B382A"/>
<path d="M725.801 594.352L729.362 594.59V609.486H725.801V594.352Z" fill="#0B382A"/>
<path d="M730.698 594.797L734.259 595.028V609.486H730.698V594.797Z" fill="#0B382A"/>
<path d="M725.801 628.305C725.801 627.275 726.673 626.46 727.7 626.528C728.636 626.591 729.362 627.368 729.362 628.305V641.536H725.801V628.305Z" fill="#0B382A"/>
<path d="M730.698 628.305C730.698 627.275 731.569 626.46 732.597 626.528C733.532 626.591 734.259 627.368 734.259 628.305V641.536H730.698V628.305Z" fill="#0B382A"/>
<path d="M741.826 628.305C741.826 627.275 742.697 626.46 743.725 626.528C744.66 626.591 745.387 627.368 745.387 628.305V641.536H741.826V628.305Z" fill="#0B382A"/>
<path d="M746.722 628.305C746.722 627.275 747.594 626.46 748.622 626.528C749.557 626.591 750.284 627.368 750.284 628.305V641.536H746.722V628.305Z" fill="#0B382A"/>
<path d="M709.776 628.305C709.776 627.275 710.648 626.46 711.675 626.528C712.611 626.591 713.337 627.368 713.337 628.305V641.536H709.776V628.305Z" fill="#0B382A"/>
<path d="M714.673 628.305C714.673 627.275 715.544 626.46 716.572 626.528C717.507 626.591 718.234 627.368 718.234 628.305V641.536H714.673V628.305Z" fill="#0B382A"/>
<path d="M642.116 563.94L648.793 552.064L655.47 563.94V585.004H642.116V563.94Z" fill="#0B382A"/>
<path d="M740.491 563.94L747.168 552.064L753.845 563.94V585.004H740.491V563.94Z" fill="#0B382A"/>
<path d="M692.861 560.81L701.319 547.168L709.776 560.81V585.004H692.861V560.81Z" fill="#0B382A"/>
<path d="M703.099 560.817V585.004L709.776 585.004L709.776 560.817L701.319 547.168L703.099 560.817Z" fill="#0B382A"/>
<path d="M652.354 523.131H655.915V568.534H652.354V523.131Z" fill="#0B382A"/>
<path d="M740.045 524.466H743.607V569.869H740.045V524.466Z" fill="#0B382A"/>
<path d="M722.685 568.534L740.045 569.869L740.045 589.455H722.685V568.534Z" fill="#0B382A"/>
<path d="M663.482 531.621V569.424H660.366V534.976C660.756 532.292 662.444 531.397 663.482 531.621Z" fill="#0B382A"/>
<path d="M739.6 526.465C739.155 523.118 736.039 522.24 734.704 522.24C730.03 522.24 728.695 525.801 728.695 527.359C730.698 526.024 733.029 526.158 734.036 526.914C734.926 527.582 735.683 528.739 736.039 530.698V569.424H739.6V526.465Z" fill="#0B382A"/>
<path d="M695.532 626.846H696.867V869H695.532V626.846Z" fill="#0B382A"/>
<path d="M678.172 626.846H679.507V869H678.172V626.846Z" fill="#0B382A"/>
<path d="M661.257 626.846H662.592V869H661.257V626.846Z" fill="#0B382A"/>
<path d="M646.567 627.292C646.567 622.867 650.155 619.28 654.58 619.28C659.005 619.28 662.592 622.867 662.592 627.292V629.073H646.567V627.292Z" fill="#0B382A"/>
<path d="M707.996 626.848H706.66V869.001H707.996V626.848Z" fill="#0B382A"/>
<path d="M719.569 625.735C719.569 622.17 716.679 619.28 713.115 619.28C709.55 619.28 706.66 622.17 706.66 625.735V629.073H719.569V625.735Z" fill="#0B382A"/>
<path d="M724.021 626.848H722.685V869.001H724.021V626.848Z" fill="#0B382A"/>
<path d="M735.594 625.735C735.594 622.17 732.704 619.28 729.14 619.28C725.575 619.28 722.685 622.17 722.685 625.735V629.073H735.594V625.735Z" fill="#0B382A"/>
<path d="M740.046 626.848H738.71V869.001H740.046V626.848Z" fill="#0B382A"/>
<path d="M751.619 625.735C751.619 622.17 748.729 619.28 745.165 619.28C741.6 619.28 738.71 622.17 738.71 625.735V629.073H751.619V625.735Z" fill="#0B382A"/>
<path d="M663.482 627.292C663.482 622.867 667.07 619.28 671.495 619.28C675.92 619.28 679.507 622.867 679.507 627.292V629.073H663.482V627.292Z" fill="#0B382A"/>
<path d="M680.843 627.292C680.843 622.867 684.43 619.28 688.855 619.28C693.28 619.28 696.867 622.867 696.867 627.292V629.073H680.843V627.292Z" fill="#0B382A"/>
<path d="M740.491 563.86V585.004H744.942V563.86L747.168 552.064L740.491 563.86Z" fill="#0B382A"/>
<rect x="626" y="265" width="476" height="16" fill="#0F1E24"/>
<rect x="626" y="297" width="476" height="16" fill="#0F1E24"/>
<rect x="626" y="329" width="476" height="16" fill="#0F1E24"/>
<rect x="626" y="361" width="476" height="16" fill="#0F1E24"/>
<rect x="626" y="393" width="476" height="16" fill="#0F1E24"/>
<rect x="626" y="425" width="476" height="16" fill="#0F1E24"/>
<rect x="626" y="457" width="476" height="16" fill="#0F1E24"/>
<rect x="626" y="489" width="476" height="16" fill="#0F1E24"/>
<rect x="626" y="521" width="476" height="16" fill="#0F1E24"/>
<rect x="626" y="678" width="228" height="191" fill="url(#paint4_linear_272_1642)"/>
<circle cx="525" cy="382" r="22" fill="url(#paint5_radial_272_1642)"/>
<circle cx="1166" cy="774" r="22" fill="url(#paint6_radial_272_1642)"/>
<circle cx="586.5" cy="408.5" r="11.5" fill="url(#paint7_radial_272_1642)"/>
<defs>
<radialGradient id="paint0_radial_272_1642" cx="0" cy="0" r="1" gradientUnits="userSpaceOnUse" gradientTransform="translate(864 476) rotate(90) scale(282 287.093)">
<stop stop-color="#417951"/>
<stop offset="1" stop-color="#05502F"/>
</radialGradient>
<radialGradient id="paint1_radial_272_1642" cx="0" cy="0" r="1" gradientUnits="userSpaceOnUse" gradientTransform="translate(863.5 495.5) rotate(90) scale(122.5)">
<stop stop-color="#FCF8B8"/>
<stop offset="1" stop-color="#96946E" stop-opacity="0"/>
</radialGradient>
<linearGradient id="paint2_linear_272_1642" x1="1028" y1="720" x2="1028" y2="869" gradientUnits="userSpaceOnUse">
<stop stop-color="#0B382A"/>
<stop offset="1" stop-color="#0F1E24"/>
</linearGradient>
<linearGradient id="paint3_linear_272_1642" x1="1028" y1="720" x2="1028" y2="869" gradientUnits="userSpaceOnUse">
<stop stop-color="#0B382A"/>
<stop offset="1" stop-color="#0F1E24"/>
</linearGradient>
<linearGradient id="paint4_linear_272_1642" x1="740" y1="678" x2="740" y2="869" gradientUnits="userSpaceOnUse">
<stop stop-color="#0B382A"/>
<stop offset="1" stop-color="#0F1E24"/>
</linearGradient>
<radialGradient id="paint5_radial_272_1642" cx="0" cy="0" r="1" gradientUnits="userSpaceOnUse" gradientTransform="translate(525 382) rotate(90) scale(22)">
<stop stop-color="#FCF8B8"/>
<stop offset="1" stop-color="#96946E" stop-opacity="0"/>
</radialGradient>
<radialGradient id="paint6_radial_272_1642" cx="0" cy="0" r="1" gradientUnits="userSpaceOnUse" gradientTransform="translate(1166 774) rotate(90) scale(22)">
<stop stop-color="#FCF8B8"/>
<stop offset="1" stop-color="#96946E" stop-opacity="0"/>
</radialGradient>
<radialGradient id="paint7_radial_272_1642" cx="0" cy="0" r="1" gradientUnits="userSpaceOnUse" gradientTransform="translate(586.5 408.5) rotate(90) scale(11.5)">
<stop stop-color="#FCF8B8"/>
<stop offset="1" stop-color="#96946E" stop-opacity="0"/>
</radialGradient>
</defs>
</svg>
