<svg width="1728" height="1663" viewBox="0 0 1728 1663" fill="none" xmlns="http://www.w3.org/2000/svg">
<g clip-path="url(#clip0_278_3699)">
<rect width="1728" height="1663" fill="url(#paint0_linear_278_3699)"/>
<path fill-rule="evenodd" clip-rule="evenodd" d="M0 677.208V1161H1728V704.588L1721.21 705.14L1692.33 705.75C1692.01 705.757 1691.69 705.793 1691.38 705.859L1674.92 709.335C1674.47 709.431 1674.03 709.59 1673.62 709.805L1667.11 713.24C1666.39 713.621 1665.58 713.82 1664.75 713.82H1628.97C1628.61 713.82 1628.26 713.783 1627.91 713.71L1622.56 712.58L1605.49 707.774C1605.13 707.672 1604.76 707.61 1604.38 707.59L1600.4 707.38C1597.33 704.278 1594.88 701.144 1593.31 698.757C1598.17 704.424 1610 707.258 1615.31 707.967L1609.24 703.716L1620.62 707.967L1615.31 703.008L1622.9 707.258L1619.86 702.299L1626.69 703.008L1616.83 699.466L1608.48 695.215C1596.35 691.248 1589.77 674.199 1588 666.17L1603.93 679.63L1600.14 672.546L1611.52 681.755L1606.21 672.546L1612.28 675.379L1610 671.837L1622.9 679.63L1619.1 675.379L1628.21 678.213L1623.66 673.963L1632 674.671L1619.1 671.129L1603.17 661.919C1592.25 655.119 1589.52 641.611 1589.52 635.708C1592.55 641.375 1605.45 647.515 1611.52 649.876L1607.73 642.792L1618.35 648.459L1612.28 642.084L1619.86 644.917L1614.55 639.958L1622.9 640.667L1607.73 635C1594.37 632.166 1587.5 619.65 1585.73 613.747L1596.35 620.123L1593.31 615.164L1602.42 619.414L1599.38 615.164L1610.76 618.706L1606.21 615.164L1615.71 617.531C1603.04 613.918 1591.06 601.405 1586.48 595.328L1594.83 598.162L1587.24 591.078L1591.79 592.494L1586.48 586.827L1578.9 571.95L1582.69 575.492L1588 579.034L1596.35 581.868L1590.28 576.201L1599.38 577.618L1589.52 571.95C1586.48 570.25 1585.73 566.519 1585.73 564.866L1591.04 566.283L1581.93 551.406L1590.28 553.531C1586.03 551.264 1580.42 539.835 1578.14 534.404L1584.97 538.655L1583.45 536.529H1587.24L1578.9 528.028L1582.69 528.737L1593.31 530.862L1584.97 525.903L1579.66 520.944L1583.45 522.361L1581.93 519.527L1589.28 522.022C1581.8 519.096 1575.25 507.952 1572.83 502.525L1578.9 506.776L1576.62 502.525L1581.17 503.942C1576.32 501.108 1570.05 487.649 1567.52 481.273L1553.86 503.942L1559.93 501.817L1557.66 506.776L1564.48 502.525L1550.07 520.944L1556.9 517.402L1554.62 520.944L1559.17 518.819L1547.79 530.862L1553.1 527.32L1550.83 530.862L1559.17 528.028L1548.55 541.488L1561.45 534.404L1556.9 540.071L1538.69 553.531L1548.55 550.698L1545.52 555.657L1556.9 547.864L1544.76 560.616L1548.55 559.907L1547.79 562.741L1555.38 560.616L1540.21 574.784L1547.79 571.242V574.784L1553.86 571.242L1551.59 579.034C1550.98 581.868 1539.7 591.078 1534.14 595.328L1542.48 590.369L1538.69 595.328L1549.31 590.369C1544.38 596.233 1532.23 603.748 1522.56 609.082C1518.42 605.497 1514.75 601.928 1514.41 600.346L1512.14 592.553L1518.21 596.096V592.553L1525.79 596.096L1510.62 581.927L1518.21 584.052L1517.45 581.219L1521.24 581.927L1509.1 569.176L1520.48 576.968L1517.45 572.009L1527.31 574.843L1509.1 561.383L1504.55 555.716L1517.45 562.8L1506.83 549.34L1515.17 552.174L1512.9 548.632L1518.21 552.174L1506.83 540.131L1511.38 542.256L1509.1 538.714L1515.93 542.256L1501.52 523.837L1508.35 528.087L1506.07 523.129L1512.14 525.254L1498.48 502.584C1495.95 508.96 1489.68 522.42 1484.83 525.254L1489.38 523.837L1487.1 528.087L1493.17 523.837C1490.75 529.264 1484.2 540.408 1476.72 543.333L1484.07 540.839L1482.55 543.673L1486.35 542.256L1481.03 547.215L1472.69 552.174L1483.31 550.048L1487.1 549.34L1478.76 557.841H1482.55L1481.03 559.966L1487.86 555.716C1485.59 561.147 1479.97 572.576 1475.72 574.843L1484.07 572.718L1474.97 587.595L1480.28 586.178C1480.28 587.831 1479.52 591.562 1476.48 593.262L1466.62 598.929L1475.72 597.512L1469.66 603.18L1478 600.346L1483.31 596.804L1487.1 593.262L1479.52 608.139L1474.21 613.806L1478.76 612.389L1471.17 619.473L1479.52 616.64C1474.94 622.717 1462.96 635.229 1450.29 638.842L1459.79 636.475L1455.24 640.018L1466.62 636.475L1463.59 640.726L1472.69 636.475L1469.66 641.434L1480.28 635.059C1478.51 640.962 1471.63 653.477 1458.28 656.311L1443.1 661.978L1451.45 661.27L1446.14 666.229L1453.72 663.395L1447.66 669.771L1458.28 664.104L1454.48 671.188C1460.55 668.827 1473.45 662.687 1476.48 657.02C1476.48 662.923 1473.75 676.43 1462.83 683.231L1446.9 692.44L1434 695.983L1442.35 695.274L1437.79 699.525L1446.9 696.691L1443.1 700.941L1456 693.149L1453.72 696.691L1459.79 693.857L1454.48 703.067L1465.86 693.857L1462.07 700.941L1478 687.482C1476.23 695.51 1469.66 712.56 1457.52 716.527L1449.17 720.777L1439.31 724.319L1446.14 723.611L1443.1 728.57L1450.69 724.319L1445.38 729.278L1456.76 725.028L1450.69 729.278C1456 728.57 1467.83 725.736 1472.69 720.069C1467.89 727.389 1454.79 741.746 1440.83 740.613L1450.69 742.03L1448.13 743.983L1445.93 744.62C1445.47 744.753 1444.99 744.821 1444.51 744.821H1382.41C1377.32 738.138 1374.31 729.539 1373.2 724.497L1389.13 737.957L1385.34 730.873L1396.72 740.082L1391.41 730.873L1397.48 733.706L1395.2 730.164L1408.1 737.957L1404.3 733.706L1413.41 736.54L1408.86 732.289L1417.2 732.998L1404.3 729.456L1388.37 720.246C1377.45 713.445 1374.72 699.938 1374.72 694.035C1377.75 699.702 1390.65 705.842 1396.72 708.203L1392.92 701.119L1403.55 706.786L1397.48 700.411L1405.06 703.244L1399.75 698.285L1408.1 698.994L1392.92 693.326C1379.57 690.493 1372.7 677.977 1370.92 672.074L1381.55 678.45L1378.51 673.491L1387.61 677.741L1384.58 673.491L1395.96 677.033L1391.41 673.491L1400.91 675.858C1388.24 672.245 1376.26 659.732 1371.68 653.655L1380.03 656.489L1372.44 649.404L1376.99 650.821L1371.68 645.154L1364.1 630.277L1367.89 633.819L1373.2 637.361L1381.55 640.195L1375.48 634.528L1384.58 635.945L1374.72 630.277C1371.68 628.577 1370.92 624.846 1370.92 623.193L1376.24 624.61L1367.13 609.733L1375.48 611.858C1371.23 609.591 1365.61 598.162 1363.34 592.731L1370.17 596.982L1368.65 594.856H1372.44L1364.1 586.355L1367.89 587.064L1378.51 589.189L1370.17 584.23L1364.86 579.271L1368.65 580.688L1367.13 577.854L1374.48 580.349C1367 577.423 1360.45 566.279 1358.03 560.852L1364.1 565.103L1361.82 560.852L1366.37 562.269C1361.52 559.435 1355.25 545.975 1352.72 539.6L1339.06 562.269L1345.13 560.144L1342.86 565.103L1349.68 560.852L1335.27 579.271L1342.1 575.729L1339.82 579.271L1344.37 577.146L1332.99 589.189L1338.3 585.647L1336.03 589.189L1344.37 586.355L1333.75 599.815L1346.65 592.731L1342.1 598.398L1323.89 611.858L1333.75 609.025L1330.72 613.984L1342.1 606.191L1329.96 618.943L1333.75 618.234L1332.99 621.068L1340.58 618.943L1325.41 633.111L1332.99 629.569V633.111L1339.06 629.569L1336.79 637.361C1336.18 640.195 1324.9 649.404 1319.34 653.655L1327.68 648.696L1323.89 653.655L1334.51 648.696C1327.84 656.63 1307.96 667.587 1298.86 672.074L1306.44 670.657L1298.86 678.45L1315.55 669.24L1314.03 675.616L1323.89 664.99L1320.86 673.491L1327.68 664.281L1328.44 669.24L1333.75 662.156L1332.99 667.823L1325.41 684.825L1314.79 692.618L1297.34 704.661L1310.24 698.285L1306.44 703.244L1316.3 698.285L1310.99 706.078L1325.41 695.452L1323.89 703.244L1321.61 709.62C1318.17 715.257 1306.34 722.658 1296.16 728.164C1290.88 727.466 1286.7 727.058 1283.79 726.876C1283.38 726.85 1282.98 726.779 1282.59 726.657L1241.64 714.046C1241.15 713.896 1240.65 713.822 1240.14 713.815C1224.65 713.592 1202.54 706.735 1192.45 702.986C1191.88 702.772 1191.27 702.66 1190.65 702.66H1184.99C1184.69 702.66 1184.39 702.634 1184.1 702.583L1168.03 699.755C1167.3 699.627 1166.55 699.658 1165.84 699.847L1161.5 700.992C1160.45 701.269 1159.33 701.203 1158.32 700.805L1157.45 700.46C1156.08 699.915 1155.18 698.652 1155.18 697.253V696.481C1155.18 695.702 1154.73 694.983 1154.01 694.6C1153.28 694.217 1152.83 693.498 1152.83 692.719V691.936C1152.83 691.247 1152.61 690.574 1152.21 690L1150.2 687.17C1149.62 686.359 1148.78 685.745 1147.8 685.421L1140.42 682.988C1140.09 682.876 1139.73 682.8 1139.38 682.762L1095.36 677.995C1094.54 677.906 1093.72 678.015 1092.96 678.311L1067.52 688.24C1067.24 688.346 1066.98 688.476 1066.73 688.628L1064.13 690.221L1055.65 683.696L1057.25 682.205L1066.82 685.187H1073.2L1057.25 671.771L1058.84 668.79L1046.08 649.411L1050.07 651.647L1052.46 654.629L1051.66 642.704L1043.69 632.269L1055.65 644.94L1054.06 637.486L1040.5 623.325V615.872L1053.26 624.816L1042.09 610.655V603.947C1039.96 600.718 1035.87 593.513 1036.51 590.532C1037.15 587.55 1037.31 589.289 1037.31 590.532L1050.07 600.221L1038.1 585.314V582.333L1040.5 575.625L1035.71 567.427V560.719L1042.89 561.464L1032.52 553.266L1031.72 550.285L1038.1 552.52L1036.51 550.285L1026.93 537.614L1022.15 502.584L1017.36 513.019L1020.55 511.528L1019.76 533.142L1012.58 543.577L1007.79 550.285L1012.58 552.52L1002.21 564.446L1007.79 563.7L996.621 579.352L999.014 580.097L985.453 583.824L997.419 586.805L988.644 590.532L996.621 592.022L980.666 606.183L991.835 602.457L980.666 612.146L987.846 612.891L983.06 619.599L986.251 620.344L975.082 628.543L987.846 624.816L970.296 634.505C972.689 636.99 979.071 641.064 985.453 637.486L973.487 646.43L981.464 645.685C977.21 647.921 968.222 653.436 966.307 657.61L974.285 654.629L979.071 657.61L978.273 662.827L959.128 677.733V681.46L976.678 674.007L972.689 684.441L959.128 696.366L949.555 702.329L957.532 701.583L961.521 700.093L944.769 708.291H933.601L939.185 712.763L947.96 714.254L955.937 713.509L951.682 722.452C930.633 722.844 909.842 719.808 899.701 717.653C899.344 717.577 898.992 717.54 898.626 717.54H868.64C867.871 717.54 867.115 717.368 866.433 717.038L854.207 711.121C853.66 710.856 853.064 710.695 852.451 710.633C841.981 709.572 830.272 706.102 824.861 704.201C824.301 704.004 823.713 703.9 823.115 703.9H815.299C814.11 703.9 812.963 703.488 812.081 702.742L808.762 699.939C807.994 699.29 807.023 698.891 805.993 698.801L801.886 698.439C801.002 698.361 800.169 698.041 799.396 697.631C792.941 694.211 776.874 692.219 768.493 691.563C767.937 691.52 767.393 691.39 766.885 691.176L762.469 689.311C762.013 689.118 761.528 688.993 761.031 688.941L750.5 687.829C750.193 687.796 749.883 687.792 749.575 687.815L734.205 688.974C733.801 689.005 733.395 688.987 732.997 688.922L719.051 686.657C718.574 686.579 718.112 686.435 717.68 686.228L680.266 668.27C679.861 668.076 679.489 667.829 679.159 667.537V664.989L694.332 672.074V668.532L701.918 669.948L688.263 654.363L707.228 660.031L697.366 648.696L707.987 654.363L703.435 647.987L714.056 650.821L705.711 644.445L715.573 643.029C701.614 644.162 688.516 629.805 683.711 622.484C688.566 628.152 700.401 630.985 705.711 631.694L699.642 627.443L711.021 631.694L705.711 626.735L713.297 630.985L710.263 626.026L717.09 626.735L707.228 623.193L698.883 618.942C686.745 614.975 680.171 597.926 678.401 589.897L694.332 603.357L690.538 596.273L701.918 605.482L696.607 596.273L702.676 599.107L700.401 595.564L713.297 603.357L709.504 599.107L718.607 601.94L714.056 597.69L722.4 598.398L709.504 594.856L693.573 585.647C682.649 578.846 679.918 565.339 679.918 559.435C682.952 565.103 695.849 571.242 701.918 573.604L698.125 566.519L708.745 572.187L702.676 565.811L710.263 568.645L704.952 563.686L713.297 564.394L698.125 558.727C684.773 555.893 677.895 543.378 676.125 537.474L686.745 543.85L683.711 538.891L692.814 543.142L689.78 538.891L701.159 542.433L696.607 538.891L706.113 541.258C693.439 537.645 681.463 525.132 676.883 519.055L685.228 521.889L677.642 514.805L682.194 516.222L676.883 510.554L669.297 495.678L673.09 499.22L678.401 502.762L686.745 505.595L680.676 499.928L689.78 501.345L679.918 495.678C676.883 493.977 676.125 490.246 676.125 488.593L681.435 490.01L672.332 475.133L680.676 477.259C676.428 474.992 670.814 463.563 668.538 458.131L675.366 462.382L673.849 460.257H677.642L669.297 451.756L673.09 452.464L683.711 454.589L675.366 449.63L670.056 444.671L673.849 446.088L672.332 443.255L679.678 445.749C672.199 442.823 665.65 431.68 663.228 426.253L669.297 430.503L667.021 426.253L671.573 427.669C666.718 424.836 660.447 411.376 657.918 405L644.263 427.669L650.332 425.544L648.056 430.503L654.883 426.253L640.469 444.671L647.297 441.129L645.021 444.671L649.573 442.546L638.194 454.589L643.504 451.047L641.228 454.589L649.573 451.756L638.952 465.216L651.849 458.131L647.297 463.799L629.09 477.259L638.952 474.425L635.918 479.384L647.297 471.591L635.159 484.343L638.952 483.634L638.194 486.468L645.78 484.343L630.607 498.511L638.194 494.969V498.511L644.263 494.969L641.987 502.762C641.38 505.595 630.102 514.805 624.538 519.055L632.883 514.096L629.09 519.055L639.711 514.096C633.035 522.031 613.159 532.988 604.056 537.474L611.642 536.057L604.056 543.85L620.745 534.641L619.228 541.016L629.09 530.39L626.056 538.891L632.883 529.682L633.642 534.641L638.952 527.556L638.194 533.224L630.607 550.226L619.987 558.018L602.538 570.061L615.435 563.686L611.642 568.645L621.504 563.686L616.194 571.478L630.607 560.852L629.09 568.645L626.814 575.02C621.959 582.955 600.516 594.384 590.401 599.107L604.056 594.856L590.401 603.357L598.745 600.523L596.469 605.482L609.366 599.815L602.538 607.608L626.056 593.439L615.435 604.774L623.78 599.107L622.263 603.357L635.159 589.897L634.401 601.94L631.366 607.608C628.938 612.141 611.642 619.415 603.297 622.484H610.125L602.538 624.61H607.09L617.711 620.359L609.366 628.152L615.435 626.026L625.297 618.234L619.228 627.443L629.09 621.068L627.573 627.443L636.676 620.359L638.952 622.484L635.918 625.318L624.538 632.402H630.607L625.297 639.486L615.435 644.445L604.814 650.113L613.159 647.279L612.401 650.113L619.987 646.571L616.952 652.238L599.504 657.197L610.125 659.322L620.745 656.488L627.573 652.238L623.78 660.031L611.642 667.823L626.814 665.698L619.21 671.785L595.479 674.569C594.424 674.693 593.356 674.486 592.44 673.981L568.741 660.899C568.262 660.635 567.836 660.294 567.482 659.894L560.61 652.12C560.221 651.679 559.746 651.313 559.212 651.041L560.045 650.651L553.664 637.236L561.641 637.981L570.416 636.49L576 632.019H564.832L548.08 623.82L552.068 625.311L560.045 626.056L550.473 620.094L536.911 608.168L532.923 597.734L550.473 605.187V601.461L531.327 586.554L530.53 581.337L535.316 578.356L543.293 581.337C541.379 577.163 532.391 571.648 528.136 569.412L536.114 570.157L524.148 561.214C530.53 564.791 536.911 560.717 539.305 558.232L521.755 548.543L534.518 552.27L523.35 544.071L526.541 543.326L521.755 536.618L528.934 535.873L517.766 526.184L528.934 529.91L512.979 515.749L520.957 514.259L512.182 510.532L524.148 507.551L510.586 503.824L512.979 503.079L501.811 487.427L507.395 488.173L497.025 476.248L501.811 474.012L497.025 467.304L489.845 456.87L489.048 435.255L492.239 436.746L487.452 426.312L482.666 461.341L473.093 474.012L471.498 476.248L477.88 474.012L477.082 476.993L466.711 485.191L473.891 484.446V491.154L469.104 499.352L471.498 506.06V509.042L464.998 517.138C459.107 512.484 450.542 505.221 450.015 502.762L447.739 494.969L453.808 498.511V494.969L461.394 498.511L446.222 484.343L453.808 486.468L453.049 483.634L456.842 484.343L444.704 471.591L456.084 479.384L453.049 474.425L462.911 477.259L444.704 463.799L440.153 458.131L453.049 465.216L442.429 451.756L450.773 454.589L448.498 451.047L453.808 454.589L442.429 442.546L446.98 444.671L444.704 441.129L451.532 444.671L437.118 426.253L443.946 430.503L441.67 425.544L447.739 427.669L434.084 405C431.555 411.376 425.284 424.836 420.428 427.669L424.98 426.253L422.704 430.503L428.773 426.253C426.352 431.68 419.803 442.823 412.324 445.749L419.67 443.255L418.153 446.088L421.946 444.671L416.635 449.63L408.291 454.589L418.911 452.464L422.704 451.756L414.36 460.257H418.153L416.635 462.382L423.463 458.131C421.187 463.563 415.573 474.992 411.325 477.259L419.67 475.133L410.566 490.01L415.877 488.593C415.877 490.246 415.118 493.977 412.084 495.678L402.222 501.345L411.325 499.928L405.256 505.595L413.601 502.762L418.911 499.22L422.704 495.678L415.118 510.554L409.808 516.222L414.36 514.805L406.773 521.889L415.118 519.055C410.539 525.132 398.562 537.645 385.888 541.258L395.394 538.891L390.842 542.433L402.222 538.891L399.187 543.142L408.291 538.891L405.256 543.85L415.877 537.474C414.107 543.378 407.229 555.893 393.877 558.727L387.486 561.114L385.303 558.395V555.413L387.697 548.706L382.91 540.507V533.799L390.09 534.545L379.719 526.346L378.922 523.365L385.303 525.601L383.708 523.365L374.135 510.695L369.349 475.665L364.562 486.099L367.753 484.609L366.956 506.223L359.776 516.657L354.99 523.365L359.776 525.601L349.406 537.526L354.99 536.781L343.822 552.432L346.215 553.178L332.653 556.904L344.619 559.885L335.844 563.612L343.822 565.103L327.867 579.264L339.035 575.537L327.867 585.226L335.047 585.971L330.26 592.679L333.451 593.425L322.283 601.623L335.047 597.896L317.496 607.586C319.89 610.07 326.271 614.144 332.653 610.567L320.687 619.511L328.665 618.765C324.41 621.001 315.422 626.517 313.508 630.69L321.485 627.709L326.271 630.69L325.474 635.908L306.328 650.814V654.54L323.878 647.087L319.89 657.522L306.328 669.447L296.756 675.409L304.733 674.664L308.721 673.173L300.914 676.994C300.342 676.789 299.713 676.753 299.113 676.896L265.735 684.854C264.536 685.14 263.265 684.982 262.188 684.414L258.743 682.595C258.248 682.334 257.708 682.157 257.147 682.072L217.332 676.066C217.04 676.022 216.753 675.953 216.475 675.86L169.151 659.99L168.465 658.547L176.442 659.292L185.217 657.802L190.801 653.33H179.633L162.881 645.131L166.869 646.622L174.846 647.367L165.274 641.405L151.712 629.48L147.724 619.045L165.274 626.498V622.772L146.128 607.865L145.331 602.648L150.117 599.667L158.094 602.648C156.18 598.475 147.192 592.959 142.937 590.723L150.915 591.469L138.949 582.525C145.331 586.102 151.712 582.028 154.106 579.544L136.556 569.854L149.319 573.581L138.151 565.383L141.342 564.637L136.556 557.929L143.735 557.184L132.567 547.495L143.735 551.222L127.781 537.061L135.758 535.57L126.983 531.843L138.949 528.862L125.387 525.136L127.781 524.39L116.612 508.739L122.196 509.484L111.826 497.559L116.612 495.323L111.826 488.615L104.646 478.181L103.849 456.567L107.04 458.057L102.253 447.623L97.4669 482.653L87.8942 495.323L86.2987 497.559L92.6805 495.323L91.8828 498.304L81.5123 506.503L88.6919 505.757V512.465L83.9055 520.664L86.2987 527.371V530.353L81.6813 536.105C76.2266 531.643 70.0594 526.148 69.6151 524.073L67.3392 516.281L73.4082 519.823V516.281L80.9944 519.823L65.822 505.654L73.4082 507.78L72.6495 504.946L76.4426 505.654L64.3047 492.903L75.6841 500.696L72.6495 495.737L82.5116 498.57L64.3047 485.11L59.7531 479.443L72.6495 486.527L62.0289 473.067L70.3737 475.901L68.0979 472.359L73.4082 475.901L62.0289 463.858L66.5806 465.983L64.3047 462.441L71.1323 465.983L56.7185 447.564L63.5461 451.815L61.2703 446.856L67.3392 448.981L53.6841 426.312C51.1553 432.687 44.884 446.147 40.0288 448.981L44.5806 447.564L42.3047 451.815L48.3737 447.564C45.9521 452.991 39.4032 464.135 31.9242 467.061L39.2703 464.566L37.7531 467.4L41.5461 465.983L36.2357 470.942L27.891 475.901L38.5116 473.776L42.3047 473.067L33.96 481.568H37.7531L36.2357 483.693L43.0634 479.443C40.7875 484.874 35.1737 496.303 30.9254 498.57L39.2703 496.445L30.1667 511.322L35.4772 509.905C35.4772 511.558 34.7185 515.289 31.6841 516.989L21.822 522.656L30.9254 521.24L24.8564 526.907L33.2013 524.073L38.5116 520.531L42.3047 516.989L34.7185 531.866L29.4082 537.533L33.96 536.116L26.3737 543.201L34.7185 540.367C30.139 546.444 18.1625 558.957 5.48877 562.57L14.9944 560.203L10.4426 563.745L21.822 560.203L18.7875 564.453L27.891 560.203L24.8564 565.162L35.4772 558.786C33.707 564.689 26.8289 577.205 13.4772 580.038L0 585.072V585.562L6.64954 584.997L1.33923 589.956L8.92542 587.123L2.85645 593.498L13.4772 587.831L9.68408 594.915C15.7531 592.554 28.6495 586.414 31.6841 580.747C31.6841 586.65 28.953 600.157 18.0288 606.958L2.09778 616.168L0 616.744V621.071L2.09778 620.418L0 622.769V623.644L11.2013 616.876L8.92542 620.418L14.9944 617.585L9.68408 626.794L21.0634 617.585L17.2703 624.669L33.2013 611.209C31.4312 619.238 24.8564 636.287 12.7185 640.254L4.37366 644.504L0 646.075V647.477L1.33923 647.338L0 649.527V651.347L5.89087 648.047L0.580566 653.005L11.96 648.755L5.89087 653.005C11.2013 652.297 23.0358 649.463 27.891 643.796C23.5454 650.417 12.4149 662.794 0 664.26V664.911L5.89087 665.757L0 670.258V671.478L8.16675 669.299L3.61511 675.675L14.2357 670.007L7.38562 677.88L0 677.208ZM5.48877 562.57C4.8656 562.747 4.24084 562.904 3.61511 563.036L5.48877 562.57ZM31.9242 467.061C31.593 467.19 31.26 467.304 30.9254 467.4L31.9242 467.061ZM385.888 541.258C385.265 541.436 384.641 541.592 384.015 541.725L385.888 541.258ZM412.324 445.749C411.993 445.879 411.66 445.992 411.325 446.088L412.324 445.749ZM680.676 446.088C680.342 445.992 680.009 445.879 679.678 445.749L680.676 446.088ZM707.987 541.725C707.361 541.592 706.736 541.436 706.113 541.258L707.987 541.725ZM1374.48 580.349L1375.48 580.688C1375.14 580.592 1374.81 580.478 1374.48 580.349ZM1400.91 675.858L1402.79 676.324C1402.16 676.192 1401.54 676.035 1400.91 675.858ZM1448.41 639.309L1450.29 638.842C1449.66 639.02 1449.04 639.176 1448.41 639.309ZM1475.72 543.673L1476.72 543.333C1476.39 543.463 1476.06 543.577 1475.72 543.673ZM1590.28 522.361C1589.94 522.265 1589.61 522.151 1589.28 522.022L1590.28 522.361ZM1617.59 617.997C1616.96 617.865 1616.34 617.709 1615.71 617.531L1617.59 617.997ZM544.919 646.213C545.124 646.22 545.329 646.239 545.531 646.27L543.293 645.434L543.851 646.178L544.919 646.213ZM644.263 667.115L631.449 670.349L644.466 668.821L644.263 667.115ZM1054.06 689.658L1059.1 693.301L1062.71 691.092L1058.05 688.913L1054.06 689.658ZM1320.86 728.039L1315.5 731.269C1316.15 731.39 1316.81 731.514 1317.48 731.641L1320.86 728.039ZM1329.96 724.497L1322.23 732.566C1324.53 733.027 1326.91 733.52 1329.36 734.047L1329.96 724.497ZM1527.36 723.884L1524.43 725.252L1527.88 724.29L1527.36 723.884ZM1528.44 723.381L1528.6 724.088L1528.98 723.985L1529.59 722.843L1528.44 723.381ZM23.3392 675.675L13.9564 678.479L20.2483 679.051C20.2896 679.055 20.3309 679.058 20.3723 679.061L23.3392 675.675ZM461.558 561.694L461.394 560.852L461.91 561.233L461.558 561.694ZM464.138 552.239L461.394 550.226L459.619 546.247L469.104 539.599V547.053L464.138 552.239ZM459.089 545.059L453.808 533.224L453.049 527.556L458.36 534.641L459.118 529.682L464.98 537.589L459.089 545.059ZM465.325 537.152L462.911 530.39L467.099 534.902L465.325 537.152ZM468.264 526.491C466.033 525.093 463.848 523.655 461.81 522.219L466.629 518.56L467.463 519.055L467.183 518.841C467.034 518.727 466.881 518.609 466.724 518.488L472.295 514.259C472.295 513.017 472.455 511.278 473.093 514.259C473.662 516.916 470.471 522.928 468.264 526.491ZM464.752 517.444L461.243 521.816C457.5 519.142 454.298 516.482 452.291 514.096L462.911 519.055L459.118 514.096L464.752 517.444ZM397.52 628.928L399.837 632.445C403.552 628.925 406.498 625.215 408.291 622.484C405.874 625.305 401.729 627.424 397.52 628.928ZM398.865 615.784L398.87 615.863C399.245 615.578 399.613 615.28 399.974 614.971L390.887 605.35L398.865 615.784ZM401.258 610.567L401.826 613.222C408.486 606.343 412.314 595.735 413.601 589.897L397.67 603.357L401.463 596.273L400.069 597.401L400.46 597.896L399.922 597.52L393.636 602.608L401.258 610.567ZM387.697 591.851L389.963 590.541L387.697 588.953V591.851ZM391.601 595.564L388.617 597.367L389.71 598.508L391.601 595.564ZM395.394 596.273L389.987 598.798L392.453 601.373L395.394 596.273ZM398.428 585.647L393.188 588.676L389.292 583.735V577.028C388.314 575.543 386.92 573.218 385.762 570.85L390.623 568.256L392.276 569.51L390.084 573.604C391.426 573.081 393.103 572.374 394.933 571.528L397.269 573.301L395.597 571.218C401.937 568.229 409.801 563.699 412.084 559.435C412.084 565.339 409.353 578.846 398.428 585.647ZM384.384 567.656C384.655 568.407 384.985 569.194 385.351 569.986L388.519 566.658L388.036 566.292L384.384 567.656ZM384.014 566.52L385.952 564.71L384.849 563.872L383.655 563.974C383.595 564.673 383.736 565.547 384.014 566.52ZM384.014 562.411L384.418 562.26C384.345 561.888 384.219 561.798 384.014 562.411ZM393.877 566.519L392.441 567.286L393.056 568.052L393.877 566.519ZM80.9537 571.446L78.0756 564.996L83.9055 560.911V568.364L80.9537 571.446ZM76.9548 562.484L73.4082 554.535L72.6495 548.868L77.96 555.952L78.7185 550.993L82.2549 555.763L76.9548 562.484ZM84.3871 545.563C82.4762 544.296 80.6433 543.015 78.9587 541.747L81.4377 539.866L82.5116 540.367L81.8745 539.534L83.5374 538.272L86.9567 540.304C86.2719 542.034 85.3228 543.901 84.3871 545.563ZM86.9623 540.29C86.08 539.614 85.0598 538.819 83.9647 537.947L87.0964 535.57C87.0964 534.328 87.256 532.589 87.8942 535.57C88.1342 536.691 87.7047 538.41 86.9623 540.29ZM81.1031 536.825L80.437 537.655L78.7185 535.408L81.1031 536.825ZM79.4191 538.923L77.8398 540.89C75.4003 538.985 73.3363 537.126 71.891 535.408L79.4191 538.923ZM1520.25 613.345L1518.98 612.752L1517.86 612.963C1518.3 613.416 1518.77 613.877 1519.28 614.343L1520.25 613.345ZM1525.13 613.791L1527.31 616.64L1523.33 614.783L1521.17 615.979C1525.88 619.879 1532.42 624.06 1538.62 627.664L1540.21 626.498L1547.79 609.496L1548.55 603.829L1543.24 610.913L1542.48 605.954L1535.66 615.164L1538.69 606.663L1530.45 615.546C1530.95 615.938 1531.42 616.304 1531.86 616.64L1530.3 615.709L1528.83 617.289L1529.34 615.141L1526.14 613.237L1525.13 613.791ZM1526.97 612.776L1530.35 610.913L1529.43 614.751C1528.65 614.133 1527.82 613.469 1526.97 612.776ZM1531.72 632.726L1529.59 634.291L1529.57 634.303L1527.31 627.974L1531.72 632.726ZM1529.02 634.685L1522.08 639.476L1518.21 630.808L1517.45 625.141L1522.76 632.225L1523.52 627.266L1529.02 634.685ZM1522.79 641.07L1525.04 639.958L1523.3 642.225L1522.79 641.07ZM1523.91 643.578L1531.1 639.958L1525.79 647.751L1540.21 637.125L1538.69 644.917L1536.42 651.293C1535.88 652.164 1535.15 653.077 1534.25 654.018L1525.79 647.81L1523.91 643.578ZM1544.73 666.197L1544.76 666.17L1544.76 666.226L1544.73 666.197ZM1544.76 666.228L1544.72 666.21L1533.96 677.439C1536.05 679.269 1538.62 681.164 1541.42 683.037L1544 678.213L1544.76 666.228ZM1547.16 697.453L1548.55 698.757L1548.37 698.926L1547.03 697.399L1547.16 697.453ZM1546.45 700.724L1543.39 698.881L1540.1 701.437L1540.97 702.358L1539.87 701.616L1537.17 703.716L1537.98 700.33L1536.07 699.034L1533.95 700.407L1534.14 700.941L1533.75 700.535L1528.83 703.716L1532.08 698.789L1530.96 697.621L1525.04 702.299L1523.73 702.756L1525.03 705.192C1526.25 707.457 1531.17 710.406 1536.84 713.173L1540.21 708.675H1534.14L1545.52 701.591L1546.45 700.724ZM1532.53 716.948L1532.02 717.207L1531.1 715.818L1532.53 716.948ZM1528.11 719.171L1527.51 719.476L1527.31 718.652L1528.11 719.171ZM1522.58 724.21L1521.96 723.823L1522.76 723.552L1522.58 724.21ZM1520.7 723.034L1524 721.271L1519.72 717.944L1517.45 720.069L1520.48 722.902L1520.7 723.034ZM1522.74 700.903L1522 699.525L1521.95 698.776L1527.31 696.632L1522.74 700.903ZM1521.73 695.24L1521.24 687.482L1526.6 693.078C1524.98 693.829 1523.34 694.556 1521.73 695.24ZM1530.51 691.195L1530.35 691.024L1530.57 691.161L1530.51 691.195ZM1534.16 695.092L1534.9 694.507L1534.37 695.314L1534.16 695.092ZM1533.2 697.084L1532.92 697.515L1532.62 696.691L1533.2 697.084ZM1537.18 698.317L1538.69 697.34L1538.2 699.406L1537.18 698.317ZM1532.97 676.537C1532.89 676.468 1532.82 676.398 1532.75 676.329C1532.71 676.294 1532.67 676.259 1532.64 676.224L1532.54 676.13C1532.5 676.094 1532.47 676.059 1532.43 676.024L1533.38 675.379L1532.97 676.537ZM1531.08 674.597C1530.65 674.106 1530.27 673.624 1529.94 673.153L1535.66 669.712L1531.08 674.597ZM1526.22 660.611C1526.65 660.307 1527.08 660.003 1527.51 659.698L1525.79 658.436L1526.22 660.611ZM1517.01 612.05L1517.23 611.934L1516.69 611.681C1516.79 611.803 1516.9 611.926 1517.01 612.05Z" fill="#06292E"/>
<path d="M1493.02 177.112L1506.59 153L1520.17 177.112V219.876H1493.02V177.112Z" fill="#06292E"/>
<path d="M1493.02 176.949V219.876H1502.07V176.949L1506.59 153L1493.02 176.949Z" fill="#06292E"/>
<path d="M1425.12 283.136C1425.12 240.213 1459.97 205.416 1502.97 205.416H1511.12C1554.12 205.416 1588.98 240.213 1588.98 283.136H1425.12Z" fill="#06292E"/>
<path d="M1425.1 281.329C1425.09 281.93 1425.08 282.533 1425.08 283.137H1588.94C1588.94 240.214 1554.08 205.417 1511.08 205.417H1502.95C1535.62 212.805 1560.01 241.964 1560.01 276.811V281.329H1425.1Z" fill="#06292E"/>
<path d="M1418.78 287.654L1482.15 283.136V461.169H1418.78V287.654Z" fill="#06292E"/>
<path d="M1418.78 280.425L1482.15 275.907V453.94H1418.78V280.425Z" fill="#06292E"/>
<path d="M1597.12 280.426L1550.95 275.907V453.941H1597.12V280.426Z" fill="#06292E"/>
<path d="M1482.15 275.907L1550.95 275.907V453.941L1482.15 453.94V275.907Z" fill="#06292E"/>
<path d="M1597.12 287.654L1550.95 283.136V461.169H1597.12V287.654Z" fill="#06292E"/>
<path d="M1482.15 283.136H1550.95V461.169H1482.15V283.136Z" fill="#06292E"/>
<path d="M1493.02 328.322C1493.02 316.343 1502.74 306.632 1514.74 306.632C1526.74 306.632 1536.47 316.343 1536.47 328.322V478.34H1493.02V328.322Z" fill="#06292E"/>
<path d="M1437.79 326.063C1437.79 318.826 1443.67 312.959 1450.92 312.959C1458.17 312.959 1464.05 318.826 1464.05 326.063V478.341H1437.79V326.063Z" fill="#06292E"/>
<path d="M1499.35 349.109C1499.35 340.624 1506.24 333.745 1514.74 333.745C1523.24 333.745 1530.13 340.624 1530.13 349.109V442.192H1499.35V349.109Z" fill="#06292E"/>
<path d="M1441.41 348.657C1441.41 343.416 1445.67 339.168 1450.92 339.168C1456.17 339.168 1460.42 343.416 1460.42 348.657V443.096H1441.41V348.657Z" fill="#06292E"/>
<path d="M1582.64 348.657C1582.64 343.416 1578.38 339.168 1573.13 339.168C1567.88 339.168 1563.63 343.416 1563.63 348.657V443.096H1582.64V348.657Z" fill="#06292E"/>
<path d="M1482.15 415.983H1550.95V469.303H1482.15V415.983Z" fill="#06292E"/>
<path d="M1482.15 415.983H1550.95V469.303H1482.15V415.983Z" fill="#06292E"/>
<path d="M1388 445.098L1518.36 438.578V1026H1388V445.098Z" fill="#06292E"/>
<path d="M1412.44 419.026L1476.72 415.983V448.517H1412.44V419.026Z" fill="#06292E"/>
<path d="M1454.99 469.625L1463.14 469.304V498.223H1454.99V469.625Z" fill="#06292E"/>
<path d="M1444.13 470.519L1452.28 469.984V498.223H1444.13V470.519Z" fill="#06292E"/>
<path d="M1454.99 538.601C1454.99 536.418 1456.72 534.624 1458.91 534.538C1461.22 534.447 1463.14 536.292 1463.14 538.601V563.29H1454.99V538.601Z" fill="#06292E"/>
<path d="M1444.13 538.602C1444.13 536.418 1445.86 534.624 1448.04 534.538C1450.35 534.447 1452.28 536.293 1452.28 538.602V563.291H1444.13V538.602Z" fill="#06292E"/>
<path d="M1489.39 538.601C1489.39 536.418 1491.12 534.624 1493.31 534.538C1495.62 534.447 1497.54 536.292 1497.54 538.601V563.29H1489.39V538.601Z" fill="#06292E"/>
<path d="M1478.53 538.602C1478.53 536.418 1480.26 534.624 1482.44 534.538C1484.75 534.447 1486.68 536.293 1486.68 538.602V563.291H1478.53V538.602Z" fill="#06292E"/>
<path d="M1420.59 538.601C1420.59 536.418 1422.32 534.624 1424.5 534.538C1426.81 534.447 1428.74 536.292 1428.74 538.601V563.29H1420.59V538.601Z" fill="#06292E"/>
<path d="M1409.73 538.602C1409.73 536.418 1411.45 534.624 1413.64 534.538C1415.95 534.447 1417.88 536.293 1417.88 538.602V563.291H1409.73V538.602Z" fill="#06292E"/>
<path d="M1518.36 438.578L1627 447.81V1026H1518.36V438.578Z" fill="#06292E"/>
<path d="M1564.53 468.4L1571.78 468.882V499.126H1564.53V468.4Z" fill="#06292E"/>
<path d="M1574.49 469.304L1581.73 469.772V499.126H1574.49V469.304Z" fill="#06292E"/>
<path d="M1564.53 537.332C1564.53 535.241 1566.31 533.586 1568.4 533.726C1570.3 533.852 1571.78 535.43 1571.78 537.332V564.195H1564.53V537.332Z" fill="#06292E"/>
<path d="M1574.49 537.332C1574.49 535.241 1576.26 533.586 1578.36 533.726C1580.26 533.852 1581.73 535.43 1581.73 537.332V564.195H1574.49V537.332Z" fill="#06292E"/>
<path d="M1597.12 537.332C1597.12 535.241 1598.9 533.586 1600.99 533.726C1602.89 533.852 1604.37 535.43 1604.37 537.332V564.195H1597.12V537.332Z" fill="#06292E"/>
<path d="M1607.08 537.332C1607.08 535.241 1608.86 533.586 1610.95 533.726C1612.85 533.852 1614.33 535.43 1614.33 537.332V564.195H1607.08V537.332Z" fill="#06292E"/>
<path d="M1531.94 537.332C1531.94 535.241 1533.72 533.586 1535.81 533.726C1537.71 533.852 1539.19 535.43 1539.19 537.332V564.195H1531.94V537.332Z" fill="#06292E"/>
<path d="M1541.9 537.332C1541.9 535.241 1543.67 533.586 1545.76 533.726C1547.67 533.852 1549.14 535.43 1549.14 537.332V564.195H1541.9V537.332Z" fill="#06292E"/>
<path d="M1394.34 406.657L1407.92 382.545L1421.5 406.657V449.421H1394.34V406.657Z" fill="#06292E"/>
<path d="M1594.41 406.657L1607.99 382.545L1621.57 406.657V449.421H1594.41V406.657Z" fill="#06292E"/>
<path d="M1497.54 400.302L1514.74 372.606L1531.94 400.302V449.422H1497.54V400.302Z" fill="#06292E"/>
<path d="M1518.36 400.317V449.422L1531.94 449.422L1531.94 400.317L1514.74 372.606L1518.36 400.317Z" fill="#06292E"/>
<path d="M1415.16 323.804H1422.4V415.984H1415.16V323.804Z" fill="#06292E"/>
<path d="M1593.5 326.515H1600.75V418.695H1593.5V326.515Z" fill="#06292E"/>
<path d="M1558.2 415.983L1593.5 418.695L1593.5 458.458H1558.2V415.983Z" fill="#06292E"/>
<path d="M1437.79 341.041V417.791H1431.45V347.853C1432.25 342.404 1435.68 340.587 1437.79 341.041Z" fill="#06292E"/>
<path d="M1592.6 330.575C1591.69 323.778 1585.36 321.996 1582.64 321.996C1573.13 321.996 1570.42 329.226 1570.42 332.389C1574.49 329.678 1579.23 329.952 1581.28 331.485C1583.09 332.841 1584.63 335.191 1585.36 339.167V417.791H1592.6V330.575Z" fill="#06292E"/>
<path d="M1502.97 534.371H1505.69V1026H1502.97V534.371Z" fill="#06292E"/>
<path d="M1467.67 534.371H1470.38V1026H1467.67V534.371Z" fill="#06292E"/>
<path d="M1433.27 534.371H1435.98V1026H1433.27V534.371Z" fill="#06292E"/>
<path d="M1403.39 535.276C1403.39 526.292 1410.69 519.009 1419.69 519.009C1428.69 519.009 1435.98 526.292 1435.98 535.276V538.891H1403.39V535.276Z" fill="#06292E"/>
<path d="M1528.32 534.374H1525.61V1026H1528.32V534.374Z" fill="#06292E"/>
<path d="M1551.86 532.114C1551.86 524.877 1545.98 519.01 1538.73 519.01C1531.48 519.01 1525.61 524.877 1525.61 532.114V538.892H1551.86V532.114Z" fill="#06292E"/>
<path d="M1560.91 534.374H1558.2V1026H1560.91V534.374Z" fill="#06292E"/>
<path d="M1584.45 532.114C1584.45 524.877 1578.57 519.01 1571.32 519.01C1564.07 519.01 1558.2 524.877 1558.2 532.114V538.892H1584.45V532.114Z" fill="#06292E"/>
<path d="M1593.5 534.374H1590.79V1026H1593.5V534.374Z" fill="#06292E"/>
<path d="M1617.04 532.114C1617.04 524.877 1611.16 519.01 1603.91 519.01C1596.67 519.01 1590.79 524.877 1590.79 532.114V538.892H1617.04V532.114Z" fill="#06292E"/>
<path d="M1437.79 535.276C1437.79 526.292 1445.09 519.009 1454.09 519.009C1463.09 519.009 1470.38 526.292 1470.38 535.276V538.891H1437.79V535.276Z" fill="#06292E"/>
<path d="M1473.1 535.276C1473.1 526.292 1480.39 519.009 1489.39 519.009C1498.39 519.009 1505.69 526.292 1505.69 535.276V538.891H1473.1V535.276Z" fill="#06292E"/>
<path d="M1594.41 406.494V449.421H1603.46V406.494L1607.99 382.545L1594.41 406.494Z" fill="#06292E"/>
<rect width="767" height="284" transform="matrix(1 0 0 -1 959 1027)" fill="#06292E"/>
<path fill-rule="evenodd" clip-rule="evenodd" d="M-185 670.091V668.661C-152.373 656.716 -123.309 631.913 -111.247 619.023L-136.436 625.911L-113.537 608.691L-127.276 612.135L-111.247 598.359L-88.3484 562.196L-99.7977 570.806L-115.827 579.416L-141.015 586.304L-122.696 572.528L-150.175 575.972L-120.407 562.196C-111.247 558.063 -108.957 548.993 -108.957 544.975L-124.986 548.419L-97.5079 512.256L-122.696 517.423C-109.873 511.912 -92.9282 484.13 -86.0586 470.927L-106.667 481.26L-102.088 476.094H-113.537L-88.3484 455.429L-99.7977 457.151L-131.856 462.317L-106.667 450.263L-90.6383 438.209L-102.088 441.653L-97.5079 434.765L-119.682 440.828C-97.1066 433.716 -77.3387 406.628 -70.0295 393.436L-88.3484 403.768L-81.4789 393.436L-95.218 396.88C-80.5629 389.991 -61.6334 357.273 -54.0005 341.774L-12.783 396.88L-31.1019 391.714L-24.2323 403.768L-44.841 393.436L-1.33366 438.209L-21.9424 429.598L-15.0728 438.209L-28.812 433.043L5.53592 462.317L-10.4931 453.707L-3.62352 462.317L-28.812 455.429L3.24606 488.148L-35.6816 470.927L-21.9424 484.704L33.0143 517.423L3.24606 510.534L12.4055 522.589L-21.9424 503.646L14.6954 534.643L3.24606 532.921L5.53592 539.809L-17.3627 534.643L28.4346 569.084L5.53592 560.474V569.084L-12.783 560.474L-5.91339 579.416C-4.31601 585.422 21.7732 603.213 39.5603 614.52V606.925C45.4924 595.744 56.9117 570.801 55.1321 560.479C53.3524 550.158 52.9075 556.179 52.9075 560.479L17.3149 594.024L50.683 542.417V532.096L44.0094 508.873L57.3566 480.489V457.266L37.3357 459.846L66.2547 431.463L68.4793 421.141L50.683 428.882L55.1321 421.141L81.8265 377.276L95.1737 256L108.521 292.125L99.6228 286.964L101.847 361.794L121.868 397.918L135.215 421.141L121.868 428.882L150.787 470.168L135.215 467.587L166.359 521.774L159.685 524.355L197.503 537.256L164.134 547.578L188.604 560.479L166.359 565.64L210.85 614.666L179.706 601.765L210.85 635.309L190.829 637.889L204.176 661.112L195.278 663.693L226.421 692.076L190.829 679.175L239.769 712.719C233.095 721.32 215.299 735.426 197.503 723.04L230.871 754.004L208.625 751.424C220.489 759.165 245.553 778.259 250.891 792.709L228.646 782.388L215.299 792.709L217.523 810.771L270.912 862.378V875.28L221.972 849.477L233.095 885.601L270.912 926.886L297.607 947.529L275.361 944.949L264.239 939.788L310.954 968.172H342.098L326.526 983.654L313.788 986.34L367.376 989.378L397.259 989.836L418.604 991.212L484.773 995.109H535.036L537.513 993.766L546.16 979.813L508.115 989.779V984.796L549.618 964.863L551.348 957.887L540.972 953.9L523.678 957.887C527.829 952.305 547.312 944.93 556.536 941.94L539.242 942.937L565.182 930.977C551.348 935.761 537.513 930.313 532.325 926.991L570.37 914.035L542.701 919.018L566.911 908.055L559.994 907.058L570.37 898.088L554.806 897.092L579.017 884.135L554.806 889.119L589.393 870.183L572.099 868.189L591.122 863.206L565.182 859.22L594.581 854.236L589.393 853.24L613.603 832.31L601.498 833.307L623.979 817.361L613.603 814.371L623.979 805.401L639.543 791.448V776.872V773.413L647.152 776.872L655.107 797.428L675.859 814.371L679.318 817.361L665.483 814.371L667.212 818.357L687.961 828.476L699.378 817.818V812.975L694.19 802.079L704.565 788.761V777.864L689.002 779.075L711.483 765.757L713.212 760.914L699.378 764.546L702.836 760.914L723.588 740.332L731.543 715.36L739.152 711.158V715.36V733.067L754.716 750.018L765.092 760.914L754.716 764.546L777.197 783.918L765.092 782.707L789.302 808.133L784.114 809.343L813.513 815.397L787.573 820.24L806.596 826.294L789.302 828.715L823.889 851.719L799.678 845.665L823.889 861.405L808.325 862.615L818.701 873.512L811.784 874.723L835.994 888.041L808.325 881.987L846.37 897.727C841.182 901.762 827.347 908.381 813.513 902.569L839.453 917.098L822.16 915.887C827.177 917.863 835.231 921.416 842.202 925.337L858.427 916.658L841.92 920.054L865.501 907.15L853.711 905.791L866.681 902.395L848.994 899.678L869.039 896.283L865.501 895.603L882.009 881.34L873.755 882.02L889.083 871.153L882.009 869.115L889.083 863.002L899.695 853.494V843.56V841.203L904.883 843.56L910.307 857.569L924.456 869.115L926.814 871.153L917.381 869.115L918.56 871.832L933.888 879.303L923.276 878.624V884.736L930.351 892.207L926.814 898.32V901.037L944.5 914.621L925.635 905.791C925.635 904.659 925.399 903.074 924.456 905.791C923.512 908.508 929.565 915.073 932.709 918.017V924.129L949.216 937.034L930.351 928.884V935.676L950.396 948.58L952.754 955.372L935.067 943.826L946.858 953.334L948.037 964.201L944.5 961.485L938.605 959.447L957.47 977.106L955.375 979.52H958.629L990.646 978.374L1003.45 979.061L1011.18 978.439C1011.64 978.402 1011.99 978.02 1011.99 977.561C1011.99 977.11 1012.33 976.732 1012.78 976.684L1015.64 976.377C1015.99 976.339 1016.26 976.042 1016.26 975.687C1016.26 975.378 1016.47 975.105 1016.76 975.02L1022.25 973.447C1022.53 973.37 1022.81 973.321 1023.09 973.302L1039.74 972.184L1122.98 970.35L1172.08 974.247L1217.65 979.924L1238.23 969.933L1239.96 961.96H1217.48L1210.56 960.963L1248.61 944.02L1239.96 943.024L1215.75 950L1245.15 936.047L1241.69 934.054L1220.94 938.041H1207.11L1241.69 920.101L1238.23 916.115L1265.9 890.202L1257.26 893.192L1252.07 897.179L1253.8 881.232L1271.09 867.279L1245.15 884.222L1248.61 874.256L1278.01 855.32V845.353L1250.34 857.313L1274.55 838.377V829.407C1279.16 825.089 1288.04 815.454 1286.65 811.468C1285.27 807.481 1284.92 809.807 1284.92 811.468L1257.26 824.424L1283.2 804.491V800.505L1278.01 791.535L1288.38 780.572V771.602L1272.82 772.599L1295.3 761.636L1297.03 757.649L1283.2 760.639L1286.65 757.649L1307.41 740.707L1315.36 720.15L1322.97 716.692V720.15V734.727L1338.53 748.68L1348.91 757.649L1338.53 760.639L1361.02 776.586L1348.91 775.589L1373.12 796.518L1367.93 797.515L1397.33 802.498L1371.39 806.485L1389.76 811.298C1401.42 803.197 1411.4 794.777 1415.47 787.685L1419.96 774.283L1422.95 757.904L1394.54 780.239L1405.01 763.86L1385.58 774.283L1393.05 763.86L1367.64 777.261L1402.02 751.948L1422.95 735.568L1437.89 699.831L1439.39 687.919L1428.92 702.809L1427.43 692.386L1413.98 711.744L1419.96 693.875L1400.52 716.211L1403.51 702.809L1370.63 722.167L1385.58 705.788L1370.63 708.766C1388.57 699.335 1427.73 676.305 1440.88 659.627L1419.96 670.051L1427.43 659.627L1410.99 670.051C1421.95 661.116 1444.17 641.759 1445.37 635.803L1449.85 619.423L1437.89 626.868V619.423L1422.95 626.868L1452.84 597.088L1437.89 601.555L1439.39 595.599L1431.91 597.088L1455.83 570.285L1433.41 586.664L1439.39 576.241L1419.96 582.197L1455.83 553.906L1464.8 541.993L1439.39 556.884L1460.31 528.592L1443.87 534.548L1448.36 527.103L1437.89 534.548L1460.31 509.234L1451.35 513.702L1455.83 506.256L1442.38 513.702L1470.78 474.987L1457.33 483.921L1461.81 473.498L1449.85 477.965L1476.76 430.315C1481.74 443.717 1494.1 472.009 1503.66 477.965L1494.69 474.987L1499.18 483.921L1487.22 474.987C1491.99 486.394 1504.9 509.817 1519.63 515.967L1505.16 510.724L1508.15 516.68L1500.67 513.702L1511.14 524.125L1527.58 534.548L1506.65 530.081L1499.18 528.592L1515.62 546.46H1508.15L1511.14 550.928L1497.68 541.993C1502.17 553.409 1513.23 577.432 1521.6 582.197L1505.16 577.73L1523.09 609L1512.63 606.022C1512.63 609.496 1514.13 617.339 1520.11 620.912L1539.54 632.825L1521.6 629.847L1533.56 641.759L1517.12 635.803L1506.65 628.358L1499.18 620.912L1514.13 652.182L1524.59 664.094L1515.62 661.116L1530.57 676.007L1514.13 670.051C1523.15 682.824 1546.75 709.125 1571.72 716.719L1552.99 711.744L1561.96 719.189L1539.54 711.744L1545.52 720.678L1527.58 711.744L1533.56 722.167L1512.63 708.766C1516.12 721.174 1529.67 747.481 1555.98 753.437L1585.88 765.349L1569.43 763.86L1577.72 772.116C1586.47 765.046 1596.67 758.62 1602.99 755.064L1581.46 757.217L1613.76 731.386C1596.53 741.719 1579.3 729.951 1572.84 722.776L1620.23 694.793L1585.76 705.556L1615.92 681.878L1607.3 679.725L1620.23 660.352L1600.84 658.2L1630.99 630.216L1600.84 640.979L1643.92 600.081L1622.38 595.776L1646.07 585.013L1613.76 576.403L1650.38 565.64L1643.92 563.487L1674.07 518.284L1658.99 520.436L1686.99 485.995L1674.07 479.538L1686.99 460.165L1706.38 430.029L1708.53 367.605L1699.92 371.91L1712.84 341.774L1725.76 442.944L1751.61 479.538L1755.91 485.995L1738.68 479.538L1740.84 488.148L1768.84 511.826L1749.45 509.673V529.046L1762.38 552.724L1755.91 572.097V580.708L1788.22 623.759L1753.76 595.776C1753.76 592.188 1753.33 587.165 1751.61 595.776C1749.88 604.386 1760.94 625.194 1766.68 634.521V653.894L1796.84 694.793L1762.38 668.962V690.488L1798.99 731.386L1803.3 752.912L1770.99 716.318L1792.53 746.454L1794.68 780.895L1788.22 772.285L1777.45 765.827L1807.18 814.107V860.964L1803.3 864.845L1807.18 868.04V880.428L1798.99 882.065L1807.18 888.39V1176H-185V973.837L-183.322 973.789L-174.154 974.183L-145.595 947.933L-185 957.416V945.196L-173.073 934.157L-185 939.282V911.463C-160.902 900.439 -141.191 881.896 -131.856 870.441C-143.232 881.135 -167.301 887.678 -185 890.876V885.348L-179.943 882.495L-185 884.017V864.845L-177.653 861.831C-141.015 852.188 -121.17 810.744 -115.827 791.227L-163.914 823.946L-152.465 806.726L-185 827.931V826.581L-170.783 806.726L-185 812.071V808.472L-182.233 805.004L-185 806.35V791.777L-161.624 780.895C-128.65 764.363 -120.407 731.53 -120.407 717.179C-129.274 730.517 -166.043 744.93 -185 751.044V748.894L-175.363 734.4L-185 738.541V718.356L-175.363 715.457C-135.062 708.569 -114.3 678.146 -108.957 663.796L-141.015 679.295L-131.856 667.24L-159.334 677.572L-150.175 667.24L-184.523 675.85L-170.783 667.24L-185 670.091ZM1575.41 717.7L1571.72 716.719C1572.95 717.093 1574.18 717.421 1575.41 717.7ZM1521.6 516.68L1519.63 515.967C1520.28 516.239 1520.94 516.478 1521.6 516.68ZM-122.696 441.653C-121.686 441.419 -120.681 441.143 -119.682 440.828L-122.696 441.653ZM-118.117 973.764V977.266L-123.556 976.998L-126.286 976.835L-118.117 973.764ZM1518.61 985.022H1518.92L1521.86 978.411L1518.61 976.792V985.022ZM39.5603 615.581L21.565 606.969L33.0143 619.023L0.956207 606.969C8.84853 614.523 22.8529 623.204 38.6218 631.626L39.5603 630.148V615.581ZM39.4597 652.169L44.0094 656.116V674.014L28.245 694.451L16.0849 672.504L33.2623 657.56L42.1737 667.24L36.5971 654.659L39.4597 652.169ZM26.6854 650.416L21.565 644.854L19.2751 656.908L3.24606 639.688L5.53592 653.464L14.4868 669.619L26.6854 650.416ZM1557.95 980.513L1555.33 977.321L1562.07 974.625L1557.95 980.513ZM1548.48 912.467L1548.54 912.52L1549.15 912.201L1548.48 912.467ZM1542.69 901.438L1539.63 903.473C1534.47 897.658 1530.33 891.928 1527.58 887.45C1531.58 892.436 1538 896.379 1544.87 899.387L1542.69 901.438ZM1579.3 866.997L1562.55 882.76L1557.47 880.005C1533.56 871.666 1520.6 835.83 1517.12 818.954L1545.93 844.925L1542.69 847.624V858.387L1561.36 849.905L1563.45 851.713L1562.26 849.498L1578.16 842.273L1585.88 847.246L1580.74 841.103L1583.3 839.938L1588.37 841.622L1579.3 866.997ZM1550.85 840.829L1546.92 844.096L1541.03 832.356L1550.85 840.829ZM1558.02 834.859L1555.48 836.968L1552.99 832.356L1558.02 834.859ZM1561.79 831.719L1561.25 832.167L1560.46 830.867L1561.79 831.719ZM1589.77 837.72L1589.27 837.226L1590.07 836.861L1589.77 837.72ZM1547.01 810.02L1570.47 824.487L1594.38 804.573L1596.53 789.505L1583.61 780.895L1562.07 789.505C1563.59 785.967 1566.75 782.095 1570.75 778.227L1555.98 769.816L1563.45 784.707C1551.5 779.743 1526.08 766.838 1520.11 754.926C1520.11 767.334 1525.49 795.725 1547.01 810.02ZM1576.65 772.99C1575.18 774.207 1573.75 775.44 1572.4 776.678L1564.95 768.327L1576.65 772.99ZM1373.12 813.461L1389.34 811.592C1386.46 813.584 1383.48 815.556 1380.46 817.482L1373.12 813.461ZM1407.71 832.397L1405.39 831.92L1399.27 835.854L1403.62 838.186L1413.98 826.4L1406.05 831.492L1407.71 832.397ZM1407.71 840.37L1406.55 840.444L1398.13 846.543L1402.52 850.337L1395.6 851.333L1419.08 861.964C1421.67 859.901 1423.56 857.942 1424.44 856.18L1430.42 844.268L1431.91 818.954L1406.5 847.246L1409.49 838.312L1407.1 840.045L1407.71 840.37ZM1392.14 841.367L1401.35 840.777L1397.08 845.635L1392.14 841.367ZM1392.14 857.313L1418.87 862.127C1417.66 863.079 1416.31 864.053 1414.83 865.04L1392.14 857.313ZM1397.93 874.457C1398 874.478 1398.06 874.5 1398.13 874.521L1398.02 874.575L1397.33 874.256C1397.53 874.325 1397.73 874.392 1397.93 874.457ZM1411.17 880.637L1410.39 880.278L1412.48 878.516L1411.17 880.637ZM1405.98 885.219L1408.26 885.35L1407.94 885.869C1407.25 885.635 1406.59 885.417 1405.98 885.219ZM1417.88 885.905L1414.52 888.224C1415.89 888.743 1417.32 889.295 1418.75 889.872L1419.61 886.005L1417.88 885.905ZM1430.61 895.263C1428.57 894.178 1426.3 893.101 1423.96 892.066L1434.9 882.983L1439.39 887.45L1433.41 893.406L1430.61 895.263ZM1421.54 897.179L1426.13 898.237L1412.66 907.187L1411.17 901.165L1421.54 897.179ZM1420.49 911.79L1413.22 908.297H1422.95L1420.49 911.79ZM1419.77 884.601L1419.91 884.667L1419.96 884.472L1419.77 884.601ZM687.225 829.162L674.13 828.324V837.294L676.187 839.467L687.225 829.162ZM676.803 840.118L684.505 848.257L679.318 857.226V861.213L684.33 865.065L690.731 858.983V848.087C695.342 842.84 704.22 831.136 702.836 826.294C701.453 821.451 701.107 824.276 701.107 826.294L676.803 840.118ZM679.902 869.273L677.588 868.189C677.588 866.528 677.242 864.203 675.859 868.189C675.491 869.248 675.848 870.706 676.656 872.356L679.902 869.273ZM678.634 875.626L685.628 871.954L694.19 875.963V879.566L686.991 885.199C684.424 882.701 681.027 879.048 678.634 875.626ZM694.19 872.641L690.183 869.562L694.19 867.458V872.641ZM842.539 925.527C844.784 926.8 846.908 928.11 848.772 929.415L852.531 926.167L842.539 925.527ZM848.885 933.542L837.723 930.416L827.347 935.259L829.077 943.734L830.466 944.545L852.531 937.034L833.666 940.43L848.885 933.542ZM839.493 949.812L842.507 951.57L848.994 948.58C845.747 949.702 842.5 949.998 839.493 949.812ZM834.01 964.786L837.692 972.004L838.382 971.673L839.562 966.918L834.01 964.786Z" fill="#0F1E24"/>
<path d="M373.5 1200.5L537 231L653 226.5L1478.5 1200.5H373.5Z" fill="url(#paint1_linear_278_3699)" fill-opacity="0.3"/>
<path d="M310.479 842.848C310.56 840.7 312.326 839 314.476 839H355.524C357.674 839 359.44 840.7 359.521 842.848L365 987H305L310.479 842.848Z" fill="#0F1E24"/>
<path d="M320.29 687.913C320.337 685.738 322.114 684 324.289 684H345.711C347.886 684 349.663 685.738 349.71 687.913L353 839H317L320.29 687.913Z" fill="#0F1E24"/>
<path d="M326.86 181.985C326.868 179.782 328.657 178 330.86 178H339.14C341.343 178 343.132 179.782 343.14 181.985L345 684H325L326.86 181.985Z" fill="#0F1E24"/>
<path d="M293 988C293 985.791 294.791 984 297 984H374C376.209 984 378 985.791 378 988V1005H293V988Z" fill="#0F1E24"/>
<path d="M335 206H522V216H335V206Z" fill="#0F1E24"/>
<path d="M515.303 208.871C515.136 204.456 518.579 200.741 522.994 200.573L661.894 195.303C666.309 195.136 670.024 198.579 670.192 202.994L670.609 213.986C670.776 218.401 667.333 222.116 662.918 222.284L524.018 227.554C519.603 227.721 515.888 224.278 515.72 219.863L515.303 208.871Z" fill="#0F1E24"/>
<path d="M535.343 229.082C535.302 227.991 536.152 227.074 537.242 227.033L652.76 222.65C653.85 222.608 654.768 223.459 654.809 224.549C654.85 225.639 654 226.556 652.91 226.598L537.392 230.98C536.302 231.022 535.385 230.172 535.343 229.082Z" fill="#FCF8B8"/>
</g>
<defs>
<linearGradient id="paint0_linear_278_3699" x1="864" y1="108.683" x2="864" y2="1554.32" gradientUnits="userSpaceOnUse">
<stop stop-color="#0F1E24"/>
<stop offset="0.19" stop-color="#06292E"/>
<stop offset="0.38" stop-color="#064928"/>
<stop offset="0.6" stop-color="#0F1E24"/>
</linearGradient>
<linearGradient id="paint1_linear_278_3699" x1="926" y1="226.5" x2="926" y2="1032" gradientUnits="userSpaceOnUse">
<stop stop-color="#FCF8B8"/>
<stop offset="0.817461" stop-color="#96946E" stop-opacity="0"/>
</linearGradient>
<clipPath id="clip0_278_3699">
<rect width="1728" height="1663" fill="white"/>
</clipPath>
</defs>
</svg>
