<svg width="82" height="82" viewBox="0 0 82 82" fill="none" xmlns="http://www.w3.org/2000/svg">
<g clip-path="url(#clip0)">
<path fill-rule="evenodd" clip-rule="evenodd" d="M45.3721 47.882C44.8235 48.308 44.2882 48.6966 43.7756 49.0497C32.1149 57.0813 20.5411 57.8665 11.7485 58.0939C9.73322 58.146 8.05724 56.5545 8.00513 54.5392C7.95302 52.5238 9.54452 50.8479 11.5598 50.7958C19.7194 50.5848 29.0849 49.8704 38.5616 43.7529C38.5449 43.7367 38.5283 43.7205 38.5116 43.7042C34.791 40.0699 33.0887 35.2079 33.2469 31.385C33.5191 24.8103 36.9647 20.2844 40.7392 17.4459C44.4126 14.6833 48.5804 13.3556 51.1044 13.0287C52.9 12.796 54.5948 13.9148 55.0865 15.6574C57.6368 24.6957 56.5991 31.9539 53.8745 37.5902C53.158 39.0725 52.3355 40.4209 51.4528 41.6439C52.5625 41.6967 53.7802 41.641 55.1152 41.4504C57.1109 41.1654 58.9598 42.5522 59.2448 44.548C59.5298 46.5437 58.143 48.3926 56.1472 48.6776C52.0097 49.2685 48.4149 48.9085 45.3721 47.882ZM44.2108 39.0222C44 38.8459 43.8009 38.6653 43.613 38.4818C41.3181 36.2401 40.4718 33.3642 40.5412 31.6869C40.7017 27.812 42.6453 25.147 45.1271 23.2806C46.3581 22.3548 47.6738 21.6679 48.8629 21.183C49.8127 26.829 48.8858 31.1358 47.3017 34.4129C46.4477 36.1795 45.3719 37.7089 44.2108 39.0222Z" fill="#21CE99"/>
</g>
<defs>
<clipPath id="clip0">
<rect width="48" height="66" fill="white" transform="translate(46.3782 0.551514) rotate(43.6011)"/>
</clipPath>
</defs>
</svg>
