<svg width="78" height="82" viewBox="0 0 78 82" fill="none" xmlns="http://www.w3.org/2000/svg">
<g clip-path="url(#clip0)">
<path fill-rule="evenodd" clip-rule="evenodd" d="M46.6004 38.0486C46.9117 38.6695 47.1889 39.2701 47.4356 39.8415C53.048 52.8407 51.5689 64.3465 50.0832 73.0156C49.7426 75.0026 47.8558 76.3374 45.8687 75.9968C43.8817 75.6563 42.547 73.7694 42.8875 71.7824C44.2663 63.7374 45.3857 54.4116 41.2265 43.9267C41.2074 43.9399 41.1882 43.9531 41.1691 43.9663C36.881 46.9097 31.7809 47.6347 28.0615 46.7365C21.6652 45.1917 17.8951 40.9323 15.8443 36.6781C13.8483 32.5379 13.3559 28.1915 13.5257 25.6521C13.6464 23.8455 15.0732 22.4005 16.8781 22.2568C26.2398 21.5116 33.1579 23.9401 38.1573 27.7081C39.472 28.699 40.6349 29.7679 41.663 30.8714C41.9305 29.7932 42.1125 28.5879 42.185 27.2413C42.2933 25.2282 44.013 23.6841 46.0261 23.7924C48.0391 23.9007 49.5833 25.6204 49.475 27.6335C49.2505 31.8069 48.1987 35.2633 46.6004 38.0486ZM37.6839 37.4659C37.47 37.6384 37.2542 37.7986 37.0376 37.9473C34.3927 39.7628 31.4071 40.034 29.7753 39.6399C26.0055 38.7295 23.769 36.305 22.4205 33.5078C21.7516 32.1203 21.3334 30.6962 21.089 29.4355C26.8119 29.6011 30.8564 31.3473 33.7631 33.5381C35.3301 34.7192 36.6213 36.0717 37.6839 37.4659Z" fill="#21CE99"/>
</g>
<defs>
<clipPath id="clip0">
<rect width="48" height="66" fill="white" transform="translate(0.36792 27.8635) rotate(-35.1926)"/>
</clipPath>
</defs>
</svg>
