<svg width="58" height="74" viewBox="0 0 58 74" fill="none" xmlns="http://www.w3.org/2000/svg">
<g clip-path="url(#clip0)">
<g clip-path="url(#clip1)">
<path fill-rule="evenodd" clip-rule="evenodd" d="M20.879 36.275C20.8753 35.5805 20.8931 34.9192 20.9254 34.2976C21.6588 20.1576 28.0862 10.5005 33.2618 3.38903C34.4481 1.75902 36.7312 1.39932 38.3612 2.5856C39.9912 3.77189 40.3509 6.05496 39.1646 7.68496C34.3616 14.2845 29.2232 22.1471 28.3021 33.3891C28.3251 33.3858 28.3481 33.3824 28.3711 33.3791C33.5198 32.6422 38.4126 34.2539 41.348 36.7081C46.3963 40.9288 47.8868 46.4184 47.8387 51.1408C47.7919 55.7368 46.3061 59.8509 45.028 62.0517C44.1187 63.6175 42.1991 64.28 40.5176 63.6085C31.7961 60.1255 26.672 54.8812 23.8618 49.2872C23.1227 47.816 22.5543 46.3423 22.1221 44.8973C21.4043 45.7452 20.7066 46.7448 20.0447 47.9196C19.055 49.676 16.8289 50.2975 15.0725 49.3078C13.3162 48.3182 12.6947 46.0921 13.6843 44.3357C15.7361 40.6945 18.2114 38.0629 20.879 36.275ZM28.6127 40.751C28.8809 40.6911 29.1454 40.6432 29.4055 40.606C32.5811 40.1515 35.3774 41.2322 36.6653 42.309C39.6406 44.7966 40.5702 47.9613 40.5386 51.0665C40.5229 52.6067 40.2663 54.0686 39.9264 55.307C34.8702 52.621 32.0193 49.2624 30.3854 46.0099C29.5045 44.2565 28.947 42.4718 28.6127 40.751Z" fill="#21CE99"/>
</g>
</g>
<defs>
<clipPath id="clip0">
<rect width="48" height="66" fill="white" transform="translate(57.802 65.9041) rotate(171.129)"/>
</clipPath>
<clipPath id="clip1">
<rect width="84.6199" height="84.6199" fill="white" transform="translate(43.5276 87.3621) rotate(-150.6)"/>
</clipPath>
</defs>
</svg>
