<svg width="231" height="216" viewBox="0 0 231 216" fill="none" xmlns="http://www.w3.org/2000/svg">
<g filter="url(#filter0_dd_458_593)">
<path d="M115.5 10C107.17 10 100.429 16.7434 100.429 25.0769C100.429 30.6424 103.461 35.4129 107.964 38.0337V55.2308H70.2857C49.5625 55.2308 32.6071 72.1923 32.6071 92.9231V108H10V168.308H32.6071V206H198.393V168.308H221V108H198.393V92.9231C198.393 72.1923 181.438 55.2308 160.714 55.2308H123.036V38.0337C127.539 35.4129 130.571 30.6424 130.571 25.0769C130.571 16.7434 123.83 10 115.5 10ZM70.2857 70.3077H160.714C173.284 70.3077 183.321 80.3492 183.321 92.9231V190.923H168.25V153.231H62.75V190.923H47.6786V92.9231C47.6786 80.3492 57.7164 70.3077 70.2857 70.3077ZM85.3571 100.462C77.0266 100.462 70.2857 107.205 70.2857 115.538C70.2857 123.872 77.0266 130.615 85.3571 130.615C93.6876 130.615 100.429 123.872 100.429 115.538C100.429 107.205 93.6876 100.462 85.3571 100.462ZM145.643 100.462C137.312 100.462 130.571 107.205 130.571 115.538C130.571 123.872 137.312 130.615 145.643 130.615C153.973 130.615 160.714 123.872 160.714 115.538C160.714 107.205 153.973 100.462 145.643 100.462ZM25.0714 123.077H32.6071V153.231H25.0714V123.077ZM198.393 123.077H205.929V153.231H198.393V123.077ZM77.8214 168.308H92.8929V190.923H77.8214V168.308ZM107.964 168.308H123.036V190.923H107.964V168.308ZM138.107 168.308H153.179V190.923H138.107V168.308Z" fill="#FCF8B8"/>
</g>
<defs>
<filter id="filter0_dd_458_593" x="0.144325" y="0.144325" width="230.711" height="215.711" filterUnits="userSpaceOnUse" color-interpolation-filters="sRGB">
<feFlood flood-opacity="0" result="BackgroundImageFix"/>
<feColorMatrix in="SourceAlpha" type="matrix" values="0 0 0 0 0 0 0 0 0 0 0 0 0 0 0 0 0 0 127 0" result="hardAlpha"/>
<feOffset/>
<feGaussianBlur stdDeviation="4.92784"/>
<feColorMatrix type="matrix" values="0 0 0 0 0.988235 0 0 0 0 0.972549 0 0 0 0 0.721569 0 0 0 1 0"/>
<feBlend mode="normal" in2="BackgroundImageFix" result="effect1_dropShadow_458_593"/>
<feColorMatrix in="SourceAlpha" type="matrix" values="0 0 0 0 0 0 0 0 0 0 0 0 0 0 0 0 0 0 127 0" result="hardAlpha"/>
<feOffset/>
<feGaussianBlur stdDeviation="4.92784"/>
<feColorMatrix type="matrix" values="0 0 0 0 0.988235 0 0 0 0 0.972549 0 0 0 0 0.721569 0 0 0 1 0"/>
<feBlend mode="normal" in2="effect1_dropShadow_458_593" result="effect2_dropShadow_458_593"/>
<feBlend mode="normal" in="SourceGraphic" in2="effect2_dropShadow_458_593" result="shape"/>
</filter>
</defs>
</svg>
