<svg width="208" height="212" viewBox="0 0 208 212" fill="none" xmlns="http://www.w3.org/2000/svg">
<g filter="url(#filter0_dd_458_599)">
<path d="M171.365 10.2709H36.6354C22.0833 10.2709 10.25 22.1042 10.25 36.6459V121.281C10.25 135.833 22.0833 147.667 36.6354 147.667H79.0104L73.9792 162.958H67.6771C52.3646 162.958 39.8958 175.417 39.8958 190.74C39.8958 196.802 44.8333 201.74 50.8958 201.74H157.104C163.167 201.74 168.104 196.802 168.104 190.74C168.104 175.427 155.646 162.958 140.323 162.958H134.135L129.625 147.667H171.365C185.917 147.667 197.75 135.833 197.75 121.281V36.6459C197.75 22.1042 185.917 10.2709 171.365 10.2709ZM157.688 190.74C157.688 191.063 157.427 191.323 157.104 191.323L50.3125 190.74C50.3125 181.167 58.1042 173.375 67.6771 173.375H77.75H130.25H140.323C149.896 173.375 157.688 181.167 157.688 190.74ZM123.281 162.958H84.9479L89.9688 147.667H118.771L123.281 162.958ZM187.333 121.281C187.333 130.094 180.177 137.25 171.365 137.25H122.656H86.1979H36.6354C27.8333 137.25 20.6667 130.094 20.6667 121.281V36.6459C20.6667 27.8438 27.8333 20.6875 36.6354 20.6875H171.375C180.177 20.6875 187.333 27.8438 187.333 36.6459V121.281Z" fill="#FCF8B8"/>
<path d="M164.729 27.5938H43.2707C35.1144 27.5938 28.479 34.2292 28.479 42.3854V112.917C28.479 121.073 35.1144 127.708 43.2707 127.708H164.729C172.885 127.708 179.521 121.073 179.521 112.917V42.3854C179.521 34.2292 172.885 27.5938 164.729 27.5938ZM169.104 112.917C169.104 115.323 167.146 117.292 164.729 117.292H43.2707C40.8644 117.292 38.8957 115.333 38.8957 112.917V42.3854C38.8957 39.9792 40.854 38.0104 43.2707 38.0104H164.729C167.135 38.0104 169.104 39.9688 169.104 42.3854V112.917Z" fill="#FCF8B8"/>
</g>
<defs>
<filter id="filter0_dd_458_599" x="0.394325" y="0.415199" width="207.211" height="211.18" filterUnits="userSpaceOnUse" color-interpolation-filters="sRGB">
<feFlood flood-opacity="0" result="BackgroundImageFix"/>
<feColorMatrix in="SourceAlpha" type="matrix" values="0 0 0 0 0 0 0 0 0 0 0 0 0 0 0 0 0 0 127 0" result="hardAlpha"/>
<feOffset/>
<feGaussianBlur stdDeviation="4.92784"/>
<feColorMatrix type="matrix" values="0 0 0 0 0.988235 0 0 0 0 0.972549 0 0 0 0 0.721569 0 0 0 1 0"/>
<feBlend mode="normal" in2="BackgroundImageFix" result="effect1_dropShadow_458_599"/>
<feColorMatrix in="SourceAlpha" type="matrix" values="0 0 0 0 0 0 0 0 0 0 0 0 0 0 0 0 0 0 127 0" result="hardAlpha"/>
<feOffset/>
<feGaussianBlur stdDeviation="4.92784"/>
<feColorMatrix type="matrix" values="0 0 0 0 0.988235 0 0 0 0 0.972549 0 0 0 0 0.721569 0 0 0 1 0"/>
<feBlend mode="normal" in2="effect1_dropShadow_458_599" result="effect2_dropShadow_458_599"/>
<feBlend mode="normal" in="SourceGraphic" in2="effect2_dropShadow_458_599" result="shape"/>
</filter>
</defs>
</svg>
