<svg width="254" height="226" viewBox="0 0 254 226" fill="none" xmlns="http://www.w3.org/2000/svg">
<g filter="url(#filter0_dddddd_266_941)">
<path d="M127 71.5C133.929 44.1965 160.097 30.2551 217.071 30C217.982 29.9966 218.885 30.1732 219.727 30.5196C220.569 30.8659 221.334 31.3753 221.978 32.0182C222.622 32.6612 223.133 33.4251 223.48 34.2658C223.827 35.1065 224.003 36.0074 224 36.9167V161.417C224 163.251 223.27 165.01 221.971 166.308C220.671 167.605 218.909 168.333 217.071 168.333C161.643 168.333 140.229 179.491 127 196M127 71.5C120.071 44.1965 93.9031 30.2551 36.9286 30C36.0178 29.9966 35.1153 30.1732 34.2731 30.5196C33.4309 30.8659 32.6658 31.3753 32.0217 32.0182C31.3777 32.6612 30.8674 33.4251 30.5205 34.2658C30.1735 35.1065 29.9966 36.0074 30 36.9167V160.582C30 164.853 32.6502 168.333 36.9286 168.333C92.3572 168.333 113.849 179.573 127 196M127 71.5V196" stroke="#FCF8B8" stroke-width="16" stroke-linecap="round" stroke-linejoin="round"/>
</g>
<defs>
<filter id="filter0_dddddd_266_941" x="0.687887" y="0.687887" width="252.624" height="224.624" filterUnits="userSpaceOnUse" color-interpolation-filters="sRGB">
<feFlood flood-opacity="0" result="BackgroundImageFix"/>
<feColorMatrix in="SourceAlpha" type="matrix" values="0 0 0 0 0 0 0 0 0 0 0 0 0 0 0 0 0 0 127 0" result="hardAlpha"/>
<feOffset/>
<feGaussianBlur stdDeviation="0.253716"/>
<feColorMatrix type="matrix" values="0 0 0 0 0.988235 0 0 0 0 0.972549 0 0 0 0 0.721569 0 0 0 1 0"/>
<feBlend mode="normal" in2="BackgroundImageFix" result="effect1_dropShadow_266_941"/>
<feColorMatrix in="SourceAlpha" type="matrix" values="0 0 0 0 0 0 0 0 0 0 0 0 0 0 0 0 0 0 127 0" result="hardAlpha"/>
<feOffset/>
<feGaussianBlur stdDeviation="0.507431"/>
<feColorMatrix type="matrix" values="0 0 0 0 0.988235 0 0 0 0 0.972549 0 0 0 0 0.721569 0 0 0 1 0"/>
<feBlend mode="normal" in2="effect1_dropShadow_266_941" result="effect2_dropShadow_266_941"/>
<feColorMatrix in="SourceAlpha" type="matrix" values="0 0 0 0 0 0 0 0 0 0 0 0 0 0 0 0 0 0 127 0" result="hardAlpha"/>
<feOffset/>
<feGaussianBlur stdDeviation="1.77601"/>
<feColorMatrix type="matrix" values="0 0 0 0 0.988235 0 0 0 0 0.972549 0 0 0 0 0.721569 0 0 0 1 0"/>
<feBlend mode="normal" in2="effect2_dropShadow_266_941" result="effect3_dropShadow_266_941"/>
<feColorMatrix in="SourceAlpha" type="matrix" values="0 0 0 0 0 0 0 0 0 0 0 0 0 0 0 0 0 0 127 0" result="hardAlpha"/>
<feOffset/>
<feGaussianBlur stdDeviation="3.55202"/>
<feColorMatrix type="matrix" values="0 0 0 0 0.988235 0 0 0 0 0.972549 0 0 0 0 0.721569 0 0 0 1 0"/>
<feBlend mode="normal" in2="effect3_dropShadow_266_941" result="effect4_dropShadow_266_941"/>
<feColorMatrix in="SourceAlpha" type="matrix" values="0 0 0 0 0 0 0 0 0 0 0 0 0 0 0 0 0 0 127 0" result="hardAlpha"/>
<feOffset/>
<feGaussianBlur stdDeviation="6.08918"/>
<feColorMatrix type="matrix" values="0 0 0 0 0.988235 0 0 0 0 0.972549 0 0 0 0 0.721569 0 0 0 1 0"/>
<feBlend mode="normal" in2="effect4_dropShadow_266_941" result="effect5_dropShadow_266_941"/>
<feColorMatrix in="SourceAlpha" type="matrix" values="0 0 0 0 0 0 0 0 0 0 0 0 0 0 0 0 0 0 127 0" result="hardAlpha"/>
<feOffset/>
<feGaussianBlur stdDeviation="10.6561"/>
<feColorMatrix type="matrix" values="0 0 0 0 0.988235 0 0 0 0 0.972549 0 0 0 0 0.721569 0 0 0 1 0"/>
<feBlend mode="normal" in2="effect5_dropShadow_266_941" result="effect6_dropShadow_266_941"/>
<feBlend mode="normal" in="SourceGraphic" in2="effect6_dropShadow_266_941" result="shape"/>
</filter>
</defs>
</svg>
