<svg width="220" height="213" viewBox="0 0 220 213" fill="none" xmlns="http://www.w3.org/2000/svg">
<g filter="url(#filter0_dddddd_266_982)">
<path d="M65.2514 193H199.5V20H20.5V193H65.2514ZM166.688 31.931H187.566V46.8448H166.688V31.931ZM166.688 58.7759H187.566V73.6897H166.688V58.7759ZM166.688 85.6207H187.566V100.534H166.688V85.6207ZM166.688 112.466H187.566V127.379H166.688V112.466ZM166.688 139.31H187.566V154.224H166.688V139.31ZM166.688 166.155H187.566V181.069H166.688V166.155ZM65.2514 85.6207V31.931H154.749V100.534H65.2514V85.6207ZM65.2514 166.155V112.466H154.749V181.069H65.2514V166.155ZM32.4337 31.931H53.3177V46.8448H32.4337V31.931ZM32.4337 58.7759H53.3177V73.6897H32.4337V58.7759ZM32.4337 85.6207H53.3177V100.534H32.4337V85.6207ZM32.4337 112.466H53.3177V127.379H32.4337V112.466ZM32.4337 139.31H53.3177V154.224H32.4337V139.31ZM32.4337 166.155H53.3177V181.069H32.4337V166.155Z" fill="#FCF8B8"/>
<path d="M166.688 31.431H166.188V31.931V46.8448V47.3448H166.688H187.566H188.066V46.8448V31.931V31.431H187.566H166.688ZM166.688 58.2759H166.188V58.7759V73.6897V74.1897H166.688H187.566H188.066V73.6897V58.7759V58.2759H187.566H166.688ZM166.688 85.1207H166.188V85.6207V100.534V101.034H166.688H187.566H188.066V100.534V85.6207V85.1207H187.566H166.688ZM166.688 111.966H166.188V112.466V127.379V127.879H166.688H187.566H188.066V127.379V112.466V111.966H187.566H166.688ZM166.688 138.81H166.188V139.31V154.224V154.724H166.688H187.566H188.066V154.224V139.31V138.81H187.566H166.688ZM166.688 165.655H166.188V166.155V181.069V181.569H166.688H187.566H188.066V181.069V166.155V165.655H187.566H166.688ZM65.2514 31.431H64.7514V31.931V85.6207V100.534V101.034H65.2514H154.749H155.249V100.534V31.931V31.431H154.749H65.2514ZM65.2514 111.966H64.7514V112.466V166.155V181.069V181.569H65.2514H154.749H155.249V181.069V112.466V111.966H154.749H65.2514ZM32.4337 31.431H31.9337V31.931V46.8448V47.3448H32.4337H53.3177H53.8177V46.8448V31.931V31.431H53.3177H32.4337ZM32.4337 58.2759H31.9337V58.7759V73.6897V74.1897H32.4337H53.3177H53.8177V73.6897V58.7759V58.2759H53.3177H32.4337ZM32.4337 85.1207H31.9337V85.6207V100.534V101.034H32.4337H53.3177H53.8177V100.534V85.6207V85.1207H53.3177H32.4337ZM32.4337 111.966H31.9337V112.466V127.379V127.879H32.4337H53.3177H53.8177V127.379V112.466V111.966H53.3177H32.4337ZM32.4337 138.81H31.9337V139.31V154.224V154.724H32.4337H53.3177H53.8177V154.224V139.31V138.81H53.3177H32.4337ZM32.4337 165.655H31.9337V166.155V181.069V181.569H32.4337H53.3177H53.8177V181.069V166.155V165.655H53.3177H32.4337ZM199 20.5V192.5H65.2514H21V20.5H199Z" stroke="#FCF8B8"/>
</g>
<defs>
<filter id="filter0_dddddd_266_982" x="0.835732" y="0.335732" width="218.329" height="212.329" filterUnits="userSpaceOnUse" color-interpolation-filters="sRGB">
<feFlood flood-opacity="0" result="BackgroundImageFix"/>
<feColorMatrix in="SourceAlpha" type="matrix" values="0 0 0 0 0 0 0 0 0 0 0 0 0 0 0 0 0 0 127 0" result="hardAlpha"/>
<feOffset/>
<feGaussianBlur stdDeviation="0.234098"/>
<feColorMatrix type="matrix" values="0 0 0 0 0.988235 0 0 0 0 0.972549 0 0 0 0 0.721569 0 0 0 1 0"/>
<feBlend mode="normal" in2="BackgroundImageFix" result="effect1_dropShadow_266_982"/>
<feColorMatrix in="SourceAlpha" type="matrix" values="0 0 0 0 0 0 0 0 0 0 0 0 0 0 0 0 0 0 127 0" result="hardAlpha"/>
<feOffset/>
<feGaussianBlur stdDeviation="0.468197"/>
<feColorMatrix type="matrix" values="0 0 0 0 0.988235 0 0 0 0 0.972549 0 0 0 0 0.721569 0 0 0 1 0"/>
<feBlend mode="normal" in2="effect1_dropShadow_266_982" result="effect2_dropShadow_266_982"/>
<feColorMatrix in="SourceAlpha" type="matrix" values="0 0 0 0 0 0 0 0 0 0 0 0 0 0 0 0 0 0 127 0" result="hardAlpha"/>
<feOffset/>
<feGaussianBlur stdDeviation="1.63869"/>
<feColorMatrix type="matrix" values="0 0 0 0 0.988235 0 0 0 0 0.972549 0 0 0 0 0.721569 0 0 0 1 0"/>
<feBlend mode="normal" in2="effect2_dropShadow_266_982" result="effect3_dropShadow_266_982"/>
<feColorMatrix in="SourceAlpha" type="matrix" values="0 0 0 0 0 0 0 0 0 0 0 0 0 0 0 0 0 0 127 0" result="hardAlpha"/>
<feOffset/>
<feGaussianBlur stdDeviation="3.27738"/>
<feColorMatrix type="matrix" values="0 0 0 0 0.988235 0 0 0 0 0.972549 0 0 0 0 0.721569 0 0 0 1 0"/>
<feBlend mode="normal" in2="effect3_dropShadow_266_982" result="effect4_dropShadow_266_982"/>
<feColorMatrix in="SourceAlpha" type="matrix" values="0 0 0 0 0 0 0 0 0 0 0 0 0 0 0 0 0 0 127 0" result="hardAlpha"/>
<feOffset/>
<feGaussianBlur stdDeviation="5.61836"/>
<feColorMatrix type="matrix" values="0 0 0 0 0.988235 0 0 0 0 0.972549 0 0 0 0 0.721569 0 0 0 1 0"/>
<feBlend mode="normal" in2="effect4_dropShadow_266_982" result="effect5_dropShadow_266_982"/>
<feColorMatrix in="SourceAlpha" type="matrix" values="0 0 0 0 0 0 0 0 0 0 0 0 0 0 0 0 0 0 127 0" result="hardAlpha"/>
<feOffset/>
<feGaussianBlur stdDeviation="9.83213"/>
<feColorMatrix type="matrix" values="0 0 0 0 0.988235 0 0 0 0 0.972549 0 0 0 0 0.721569 0 0 0 1 0"/>
<feBlend mode="normal" in2="effect5_dropShadow_266_982" result="effect6_dropShadow_266_982"/>
<feBlend mode="normal" in="SourceGraphic" in2="effect6_dropShadow_266_982" result="shape"/>
</filter>
</defs>
</svg>
