<svg width="406" height="361" viewBox="0 0 406 361" fill="none" xmlns="http://www.w3.org/2000/svg">
<path opacity="0.8" d="M337.916 147.502C337.916 132.301 337.599 119.976 329.942 106.044C325.291 97.5546 306.718 74.3716 303.016 71.4667H105.041C101.339 74.3716 82.7655 97.5546 78.1144 106.044C70.4573 119.948 70.1409 132.301 70.1409 147.502C70.1409 169.303 70.2358 306.06 70.1093 308.401C69.7612 316.072 75.8995 322.08 85.7081 327.692C117.191 345.686 176.327 349.719 204.012 349.719C231.698 349.719 290.834 345.686 322.317 327.692C332.157 322.08 338.264 316.072 337.916 308.401C337.821 306.06 337.916 169.303 337.916 147.502Z" fill="#84C87F"/>
<path opacity="0.6" d="M203 335.392C265.664 335.392 316.463 324.697 316.463 311.504C316.463 298.311 265.664 287.615 203 287.615C140.336 287.615 89.5366 298.311 89.5366 311.504C89.5366 324.697 140.336 335.392 203 335.392Z" fill="#064928"/>
<path opacity="0.6" d="M105.072 70.7616L95.5801 82.1275C95.5801 82.1275 152.533 119.525 262.484 104.436C324.437 95.947 308.933 79.4764 308.933 79.4764L300.01 67.2644L105.072 70.7616Z" fill="#417F54"/>
<path d="M316.242 34.1257H89.6318C89.6318 34.1257 87.0372 40.274 87.1954 50.7656C87.4169 69.7181 93.3337 71.241 100.991 74.4562C119.627 82.2685 155.16 87.6553 202.779 87.6553C250.398 87.6553 285.93 82.2967 304.567 74.4562C312.224 71.241 318.14 69.7181 318.362 50.7656C318.488 40.274 316.242 34.1257 316.242 34.1257Z" fill="#019153"/>
<path d="M203 59.0573C265.664 59.0573 316.463 48.3623 316.463 35.1693C316.463 21.9763 265.664 11.2812 203 11.2812C140.336 11.2812 89.5366 21.9763 89.5366 35.1693C89.5366 48.3623 140.336 59.0573 203 59.0573Z" fill="#05502F"/>
<path d="M130.037 59.0574C146.965 60.8906 149.749 60.8906 151.299 65.4595C151.995 67.5747 151.457 70.0566 149.622 71.495C140.795 78.4329 119.659 75.105 110.926 69.2387C107.825 67.1517 103.87 61.511 108.679 57.7036C113.204 54.15 122.918 58.2959 130.037 59.0574Z" fill="#FCF8B8"/>
<g filter="url(#filter0_dddddd_275_2953)">
<path d="M159.251 297H293.5V124H114.5V297H159.251ZM260.688 135.931H281.566V150.845H260.688V135.931ZM260.688 162.776H281.566V177.69H260.688V162.776ZM260.688 189.621H281.566V204.534H260.688V189.621ZM260.688 216.466H281.566V231.379H260.688V216.466ZM260.688 243.31H281.566V258.224H260.688V243.31ZM260.688 270.155H281.566V285.069H260.688V270.155ZM159.251 189.621V135.931H248.749V204.534H159.251V189.621ZM159.251 270.155V216.466H248.749V285.069H159.251V270.155ZM126.434 135.931H147.318V150.845H126.434V135.931ZM126.434 162.776H147.318V177.69H126.434V162.776ZM126.434 189.621H147.318V204.534H126.434V189.621ZM126.434 216.466H147.318V231.379H126.434V216.466ZM126.434 243.31H147.318V258.224H126.434V243.31ZM126.434 270.155H147.318V285.069H126.434V270.155Z" fill="#FCF8B8"/>
<path d="M260.688 135.431H260.188V135.931V150.845V151.345H260.688H281.566H282.066V150.845V135.931V135.431H281.566H260.688ZM260.688 162.276H260.188V162.776V177.69V178.19H260.688H281.566H282.066V177.69V162.776V162.276H281.566H260.688ZM260.688 189.121H260.188V189.621V204.534V205.034H260.688H281.566H282.066V204.534V189.621V189.121H281.566H260.688ZM260.688 215.966H260.188V216.466V231.379V231.879H260.688H281.566H282.066V231.379V216.466V215.966H281.566H260.688ZM260.688 242.81H260.188V243.31V258.224V258.724H260.688H281.566H282.066V258.224V243.31V242.81H281.566H260.688ZM260.688 269.655H260.188V270.155V285.069V285.569H260.688H281.566H282.066V285.069V270.155V269.655H281.566H260.688ZM159.251 135.431H158.751V135.931V189.621V204.534V205.034H159.251H248.749H249.249V204.534V135.931V135.431H248.749H159.251ZM159.251 215.966H158.751V216.466V270.155V285.069V285.569H159.251H248.749H249.249V285.069V216.466V215.966H248.749H159.251ZM126.434 135.431H125.934V135.931V150.845V151.345H126.434H147.318H147.818V150.845V135.931V135.431H147.318H126.434ZM126.434 162.276H125.934V162.776V177.69V178.19H126.434H147.318H147.818V177.69V162.776V162.276H147.318H126.434ZM126.434 189.121H125.934V189.621V204.534V205.034H126.434H147.318H147.818V204.534V189.621V189.121H147.318H126.434ZM126.434 215.966H125.934V216.466V231.379V231.879H126.434H147.318H147.818V231.379V216.466V215.966H147.318H126.434ZM126.434 242.81H125.934V243.31V258.224V258.724H126.434H147.318H147.818V258.224V243.31V242.81H147.318H126.434ZM126.434 269.655H125.934V270.155V285.069V285.569H126.434H147.318H147.818V285.069V270.155V269.655H147.318H126.434ZM293 124.5V296.5H159.251H115V124.5H293Z" stroke="#FCF8B8"/>
</g>
<defs>
<filter id="filter0_dddddd_275_2953" x="94.8357" y="104.336" width="218.329" height="212.329" filterUnits="userSpaceOnUse" color-interpolation-filters="sRGB">
<feFlood flood-opacity="0" result="BackgroundImageFix"/>
<feColorMatrix in="SourceAlpha" type="matrix" values="0 0 0 0 0 0 0 0 0 0 0 0 0 0 0 0 0 0 127 0" result="hardAlpha"/>
<feOffset/>
<feGaussianBlur stdDeviation="0.234098"/>
<feColorMatrix type="matrix" values="0 0 0 0 0.988235 0 0 0 0 0.972549 0 0 0 0 0.721569 0 0 0 1 0"/>
<feBlend mode="normal" in2="BackgroundImageFix" result="effect1_dropShadow_275_2953"/>
<feColorMatrix in="SourceAlpha" type="matrix" values="0 0 0 0 0 0 0 0 0 0 0 0 0 0 0 0 0 0 127 0" result="hardAlpha"/>
<feOffset/>
<feGaussianBlur stdDeviation="0.468197"/>
<feColorMatrix type="matrix" values="0 0 0 0 0.988235 0 0 0 0 0.972549 0 0 0 0 0.721569 0 0 0 1 0"/>
<feBlend mode="normal" in2="effect1_dropShadow_275_2953" result="effect2_dropShadow_275_2953"/>
<feColorMatrix in="SourceAlpha" type="matrix" values="0 0 0 0 0 0 0 0 0 0 0 0 0 0 0 0 0 0 127 0" result="hardAlpha"/>
<feOffset/>
<feGaussianBlur stdDeviation="1.63869"/>
<feColorMatrix type="matrix" values="0 0 0 0 0.988235 0 0 0 0 0.972549 0 0 0 0 0.721569 0 0 0 1 0"/>
<feBlend mode="normal" in2="effect2_dropShadow_275_2953" result="effect3_dropShadow_275_2953"/>
<feColorMatrix in="SourceAlpha" type="matrix" values="0 0 0 0 0 0 0 0 0 0 0 0 0 0 0 0 0 0 127 0" result="hardAlpha"/>
<feOffset/>
<feGaussianBlur stdDeviation="3.27738"/>
<feColorMatrix type="matrix" values="0 0 0 0 0.988235 0 0 0 0 0.972549 0 0 0 0 0.721569 0 0 0 1 0"/>
<feBlend mode="normal" in2="effect3_dropShadow_275_2953" result="effect4_dropShadow_275_2953"/>
<feColorMatrix in="SourceAlpha" type="matrix" values="0 0 0 0 0 0 0 0 0 0 0 0 0 0 0 0 0 0 127 0" result="hardAlpha"/>
<feOffset/>
<feGaussianBlur stdDeviation="5.61836"/>
<feColorMatrix type="matrix" values="0 0 0 0 0.988235 0 0 0 0 0.972549 0 0 0 0 0.721569 0 0 0 1 0"/>
<feBlend mode="normal" in2="effect4_dropShadow_275_2953" result="effect5_dropShadow_275_2953"/>
<feColorMatrix in="SourceAlpha" type="matrix" values="0 0 0 0 0 0 0 0 0 0 0 0 0 0 0 0 0 0 127 0" result="hardAlpha"/>
<feOffset/>
<feGaussianBlur stdDeviation="9.83213"/>
<feColorMatrix type="matrix" values="0 0 0 0 0.988235 0 0 0 0 0.972549 0 0 0 0 0.721569 0 0 0 1 0"/>
<feBlend mode="normal" in2="effect5_dropShadow_275_2953" result="effect6_dropShadow_275_2953"/>
<feBlend mode="normal" in="SourceGraphic" in2="effect6_dropShadow_275_2953" result="shape"/>
</filter>
</defs>
</svg>
