<svg width="406" height="361" viewBox="0 0 406 361" fill="none" xmlns="http://www.w3.org/2000/svg">
<path opacity="0.8" d="M337.916 147.502C337.916 132.301 337.599 119.976 329.942 106.044C325.291 97.5546 306.718 74.3716 303.016 71.4667H105.041C101.339 74.3716 82.7655 97.5546 78.1144 106.044C70.4573 119.948 70.1409 132.301 70.1409 147.502C70.1409 169.303 70.2358 306.06 70.1093 308.401C69.7612 316.072 75.8995 322.08 85.7081 327.692C117.191 345.686 176.327 349.719 204.012 349.719C231.698 349.719 290.834 345.686 322.317 327.692C332.157 322.08 338.264 316.072 337.916 308.401C337.821 306.06 337.916 169.303 337.916 147.502Z" fill="#84C87F"/>
<path opacity="0.6" d="M203 335.392C265.664 335.392 316.463 324.697 316.463 311.504C316.463 298.311 265.664 287.615 203 287.615C140.336 287.615 89.5366 298.311 89.5366 311.504C89.5366 324.697 140.336 335.392 203 335.392Z" fill="#064928"/>
<path opacity="0.6" d="M105.072 70.7616L95.5801 82.1275C95.5801 82.1275 152.533 119.525 262.484 104.436C324.437 95.947 308.933 79.4764 308.933 79.4764L300.01 67.2644L105.072 70.7616Z" fill="#417F54"/>
<path d="M316.242 34.1257H89.6318C89.6318 34.1257 87.0372 40.274 87.1954 50.7656C87.4169 69.7181 93.3337 71.241 100.991 74.4562C119.627 82.2685 155.16 87.6553 202.779 87.6553C250.398 87.6553 285.93 82.2967 304.567 74.4562C312.224 71.241 318.14 69.7181 318.362 50.7656C318.488 40.274 316.242 34.1257 316.242 34.1257Z" fill="#019153"/>
<path d="M203 59.0573C265.664 59.0573 316.463 48.3623 316.463 35.1693C316.463 21.9763 265.664 11.2812 203 11.2812C140.336 11.2812 89.5366 21.9763 89.5366 35.1693C89.5366 48.3623 140.336 59.0573 203 59.0573Z" fill="#05502F"/>
<path d="M130.037 59.0574C146.965 60.8906 149.749 60.8906 151.299 65.4595C151.995 67.5747 151.457 70.0566 149.622 71.495C140.795 78.4329 119.659 75.105 110.926 69.2387C107.825 67.1517 103.87 61.511 108.679 57.7036C113.204 54.15 122.918 58.2959 130.037 59.0574Z" fill="#FCF8B8"/>
<g filter="url(#filter0_dddddd_275_2943)">
<path d="M176.833 158.167C176.833 170.509 176.833 176.675 172.996 180.496C169.167 184.333 163.009 184.333 150.667 184.333C138.325 184.333 132.158 184.333 128.338 180.496C124.5 176.667 124.5 170.509 124.5 158.167C124.5 145.825 124.5 139.658 128.338 135.838C132.167 132 138.325 132 150.667 132C163.009 132 169.175 132 172.996 135.838C176.833 139.667 176.833 145.825 176.833 158.167ZM176.833 158.167H203M255.333 184.333C242.991 184.333 236.825 184.333 233.004 180.496C229.167 176.667 229.167 170.509 229.167 158.167C229.167 145.825 229.167 139.658 233.004 135.838C236.833 132 242.991 132 255.333 132C267.675 132 273.842 132 277.662 135.838C281.5 139.667 281.5 145.825 281.5 158.167C281.5 170.509 281.5 176.675 277.662 180.496C273.833 184.333 267.675 184.333 255.333 184.333ZM255.333 184.333V210.5M229.167 262.833C229.167 250.491 229.167 244.325 233.004 240.504C236.833 236.667 242.991 236.667 255.333 236.667C267.675 236.667 273.842 236.667 277.662 240.504C281.5 244.333 281.5 250.5 281.5 262.833C281.5 275.167 281.5 281.333 277.662 285.162C273.833 289 267.667 289 255.333 289C243 289 236.833 289 233.004 285.162C229.167 281.333 229.167 275.175 229.167 262.833ZM229.167 262.833H203M150.667 236.667C163.009 236.667 169.175 236.667 172.996 240.504C176.833 244.333 176.833 250.491 176.833 262.833C176.833 275.175 176.833 281.342 172.996 285.162C169.167 289 163.009 289 150.667 289C138.325 289 132.158 289 128.338 285.162C124.5 281.333 124.5 275.175 124.5 262.833C124.5 250.491 124.5 244.325 128.338 240.504C132.167 236.667 138.325 236.667 150.667 236.667ZM150.667 236.667V210.5" stroke="#FCF8B8" stroke-width="16" stroke-linecap="round" stroke-linejoin="round"/>
</g>
<defs>
<filter id="filter0_dddddd_275_2943" x="99.2526" y="106.753" width="207.495" height="207.495" filterUnits="userSpaceOnUse" color-interpolation-filters="sRGB">
<feFlood flood-opacity="0" result="BackgroundImageFix"/>
<feColorMatrix in="SourceAlpha" type="matrix" values="0 0 0 0 0 0 0 0 0 0 0 0 0 0 0 0 0 0 127 0" result="hardAlpha"/>
<feOffset/>
<feGaussianBlur stdDeviation="0.205327"/>
<feColorMatrix type="matrix" values="0 0 0 0 0.988235 0 0 0 0 0.972549 0 0 0 0 0.721569 0 0 0 1 0"/>
<feBlend mode="normal" in2="BackgroundImageFix" result="effect1_dropShadow_275_2943"/>
<feColorMatrix in="SourceAlpha" type="matrix" values="0 0 0 0 0 0 0 0 0 0 0 0 0 0 0 0 0 0 127 0" result="hardAlpha"/>
<feOffset/>
<feGaussianBlur stdDeviation="0.410653"/>
<feColorMatrix type="matrix" values="0 0 0 0 0.988235 0 0 0 0 0.972549 0 0 0 0 0.721569 0 0 0 1 0"/>
<feBlend mode="normal" in2="effect1_dropShadow_275_2943" result="effect2_dropShadow_275_2943"/>
<feColorMatrix in="SourceAlpha" type="matrix" values="0 0 0 0 0 0 0 0 0 0 0 0 0 0 0 0 0 0 127 0" result="hardAlpha"/>
<feOffset/>
<feGaussianBlur stdDeviation="1.43729"/>
<feColorMatrix type="matrix" values="0 0 0 0 0.988235 0 0 0 0 0.972549 0 0 0 0 0.721569 0 0 0 1 0"/>
<feBlend mode="normal" in2="effect2_dropShadow_275_2943" result="effect3_dropShadow_275_2943"/>
<feColorMatrix in="SourceAlpha" type="matrix" values="0 0 0 0 0 0 0 0 0 0 0 0 0 0 0 0 0 0 127 0" result="hardAlpha"/>
<feOffset/>
<feGaussianBlur stdDeviation="2.87457"/>
<feColorMatrix type="matrix" values="0 0 0 0 0.988235 0 0 0 0 0.972549 0 0 0 0 0.721569 0 0 0 1 0"/>
<feBlend mode="normal" in2="effect3_dropShadow_275_2943" result="effect4_dropShadow_275_2943"/>
<feColorMatrix in="SourceAlpha" type="matrix" values="0 0 0 0 0 0 0 0 0 0 0 0 0 0 0 0 0 0 127 0" result="hardAlpha"/>
<feOffset/>
<feGaussianBlur stdDeviation="4.92784"/>
<feColorMatrix type="matrix" values="0 0 0 0 0.988235 0 0 0 0 0.972549 0 0 0 0 0.721569 0 0 0 1 0"/>
<feBlend mode="normal" in2="effect4_dropShadow_275_2943" result="effect5_dropShadow_275_2943"/>
<feColorMatrix in="SourceAlpha" type="matrix" values="0 0 0 0 0 0 0 0 0 0 0 0 0 0 0 0 0 0 127 0" result="hardAlpha"/>
<feOffset/>
<feGaussianBlur stdDeviation="8.62372"/>
<feColorMatrix type="matrix" values="0 0 0 0 0.988235 0 0 0 0 0.972549 0 0 0 0 0.721569 0 0 0 1 0"/>
<feBlend mode="normal" in2="effect5_dropShadow_275_2943" result="effect6_dropShadow_275_2943"/>
<feBlend mode="normal" in="SourceGraphic" in2="effect6_dropShadow_275_2943" result="shape"/>
</filter>
</defs>
</svg>
