<svg width="405" height="361" viewBox="0 0 405 361" fill="none" xmlns="http://www.w3.org/2000/svg">
<path opacity="0.8" d="M337.416 147.502C337.416 132.301 337.099 119.976 329.442 106.044C324.791 97.5546 306.218 74.3716 302.516 71.4667H104.541C100.839 74.3716 82.2655 97.5546 77.6144 106.044C69.9573 119.948 69.6409 132.301 69.6409 147.502C69.6409 169.303 69.7358 306.06 69.6093 308.401C69.2612 316.072 75.3995 322.08 85.2081 327.692C116.691 345.686 175.827 349.719 203.512 349.719C231.198 349.719 290.334 345.686 321.817 327.692C331.657 322.08 337.764 316.072 337.416 308.401C337.321 306.06 337.416 169.303 337.416 147.502Z" fill="#84C87F"/>
<path opacity="0.6" d="M202.5 335.392C265.164 335.392 315.963 324.697 315.963 311.504C315.963 298.311 265.164 287.615 202.5 287.615C139.836 287.615 89.0366 298.311 89.0366 311.504C89.0366 324.697 139.836 335.392 202.5 335.392Z" fill="#064928"/>
<path opacity="0.6" d="M104.572 70.7616L95.0801 82.1275C95.0801 82.1275 152.033 119.525 261.984 104.436C323.937 95.947 308.433 79.4764 308.433 79.4764L299.51 67.2644L104.572 70.7616Z" fill="#417F54"/>
<path d="M315.742 34.1257H89.1318C89.1318 34.1257 86.5372 40.274 86.6954 50.7656C86.9169 69.7181 92.8337 71.241 100.491 74.4562C119.127 82.2685 154.66 87.6553 202.279 87.6553C249.898 87.6553 285.43 82.2967 304.067 74.4562C311.724 71.241 317.64 69.7181 317.862 50.7656C317.988 40.274 315.742 34.1257 315.742 34.1257Z" fill="#019153"/>
<path d="M202.5 59.0573C265.164 59.0573 315.963 48.3623 315.963 35.1693C315.963 21.9763 265.164 11.2812 202.5 11.2812C139.836 11.2812 89.0366 21.9763 89.0366 35.1693C89.0366 48.3623 139.836 59.0573 202.5 59.0573Z" fill="#05502F"/>
<path d="M129.537 59.0574C146.465 60.8906 149.249 60.8906 150.799 65.4595C151.495 67.5747 150.957 70.0566 149.122 71.495C140.295 78.4329 119.159 75.105 110.426 69.2387C107.325 67.1517 103.37 61.511 108.179 57.7036C112.704 54.15 122.418 58.2959 129.537 59.0574Z" fill="#FCF8B8"/>
<g filter="url(#filter0_dddddd_275_2922)">
<path d="M244.233 129C227.866 129 213.341 135.463 203.5 146.571C193.659 135.463 179.134 129 162.767 129C148.513 129.017 134.847 134.69 124.767 144.773C114.688 154.857 109.017 168.528 109 182.789C109 241.744 195.199 288.85 198.865 290.831C200.289 291.598 201.882 292 203.5 292C205.118 292 206.711 291.598 208.135 290.831C211.801 288.85 298 241.744 298 182.789C297.983 168.528 292.312 154.857 282.233 144.773C272.153 134.69 258.487 129.017 244.233 129ZM239.76 245.021C228.414 254.652 216.286 263.321 203.5 270.937C190.714 263.321 178.586 254.652 167.24 245.021C149.586 229.87 128.552 206.765 128.552 182.789C128.552 173.711 132.157 165.004 138.573 158.585C144.99 152.166 153.693 148.56 162.767 148.56C177.268 148.56 189.406 156.22 194.449 168.559C195.183 170.358 196.436 171.897 198.048 172.981C199.66 174.064 201.558 174.643 203.5 174.643C205.442 174.643 207.34 174.064 208.952 172.981C210.564 171.897 211.817 170.358 212.551 168.559C217.594 156.22 229.732 148.56 244.233 148.56C253.307 148.56 262.01 152.166 268.427 158.585C274.843 165.004 278.448 173.711 278.448 182.789C278.448 206.765 257.414 229.87 239.76 245.021Z" fill="#FCF8B8"/>
<path d="M203.126 146.903L203.5 147.325L203.874 146.903C213.614 135.908 228 129.5 244.232 129.5C258.355 129.517 271.893 135.137 281.879 145.127C291.865 155.117 297.483 168.661 297.5 182.789C297.5 212.035 276.103 238.421 254.112 257.8C232.148 277.155 209.722 289.405 207.898 290.391C206.547 291.119 205.035 291.5 203.5 291.5C201.965 291.5 200.453 291.119 199.102 290.391C197.278 289.405 174.852 277.155 152.888 257.8C130.896 238.421 109.5 212.035 109.5 182.789C109.517 168.661 115.135 155.117 125.121 145.127C135.107 135.137 148.645 129.517 162.768 129.5C179 129.5 193.386 135.908 203.126 146.903ZM240.084 245.402L240.086 245.4C248.93 237.81 258.636 228.215 266.134 217.501C273.629 206.792 278.948 194.921 278.948 182.789C278.948 173.578 275.291 164.745 268.78 158.232C262.27 151.719 253.44 148.06 244.233 148.06C229.552 148.06 217.216 155.823 212.088 168.37L212.088 168.37C211.391 170.077 210.203 171.538 208.673 172.566C207.144 173.594 205.343 174.143 203.5 174.143C201.657 174.143 199.856 173.594 198.327 172.566C196.797 171.538 195.609 170.077 194.912 168.37L194.912 168.37C189.784 155.823 177.448 148.06 162.767 148.06C153.56 148.06 144.73 151.719 138.22 158.232C131.709 164.745 128.052 173.578 128.052 182.789C128.052 194.921 133.371 206.792 140.866 217.501C148.364 228.215 158.07 237.81 166.914 245.4L166.916 245.402C178.283 255.051 190.435 263.736 203.244 271.367L203.5 271.519L203.756 271.367C216.565 263.736 228.717 255.051 240.084 245.402Z" stroke="#FCF8B8"/>
</g>
<defs>
<filter id="filter0_dddddd_275_2922" x="88.2372" y="108.237" width="230.526" height="204.526" filterUnits="userSpaceOnUse" color-interpolation-filters="sRGB">
<feFlood flood-opacity="0" result="BackgroundImageFix"/>
<feColorMatrix in="SourceAlpha" type="matrix" values="0 0 0 0 0 0 0 0 0 0 0 0 0 0 0 0 0 0 127 0" result="hardAlpha"/>
<feOffset/>
<feGaussianBlur stdDeviation="0.247177"/>
<feColorMatrix type="matrix" values="0 0 0 0 0.988235 0 0 0 0 0.972549 0 0 0 0 0.721569 0 0 0 1 0"/>
<feBlend mode="normal" in2="BackgroundImageFix" result="effect1_dropShadow_275_2922"/>
<feColorMatrix in="SourceAlpha" type="matrix" values="0 0 0 0 0 0 0 0 0 0 0 0 0 0 0 0 0 0 127 0" result="hardAlpha"/>
<feOffset/>
<feGaussianBlur stdDeviation="0.494353"/>
<feColorMatrix type="matrix" values="0 0 0 0 0.988235 0 0 0 0 0.972549 0 0 0 0 0.721569 0 0 0 1 0"/>
<feBlend mode="normal" in2="effect1_dropShadow_275_2922" result="effect2_dropShadow_275_2922"/>
<feColorMatrix in="SourceAlpha" type="matrix" values="0 0 0 0 0 0 0 0 0 0 0 0 0 0 0 0 0 0 127 0" result="hardAlpha"/>
<feOffset/>
<feGaussianBlur stdDeviation="1.73024"/>
<feColorMatrix type="matrix" values="0 0 0 0 0.988235 0 0 0 0 0.972549 0 0 0 0 0.721569 0 0 0 1 0"/>
<feBlend mode="normal" in2="effect2_dropShadow_275_2922" result="effect3_dropShadow_275_2922"/>
<feColorMatrix in="SourceAlpha" type="matrix" values="0 0 0 0 0 0 0 0 0 0 0 0 0 0 0 0 0 0 127 0" result="hardAlpha"/>
<feOffset/>
<feGaussianBlur stdDeviation="3.46047"/>
<feColorMatrix type="matrix" values="0 0 0 0 0.988235 0 0 0 0 0.972549 0 0 0 0 0.721569 0 0 0 1 0"/>
<feBlend mode="normal" in2="effect3_dropShadow_275_2922" result="effect4_dropShadow_275_2922"/>
<feColorMatrix in="SourceAlpha" type="matrix" values="0 0 0 0 0 0 0 0 0 0 0 0 0 0 0 0 0 0 127 0" result="hardAlpha"/>
<feOffset/>
<feGaussianBlur stdDeviation="5.93224"/>
<feColorMatrix type="matrix" values="0 0 0 0 0.988235 0 0 0 0 0.972549 0 0 0 0 0.721569 0 0 0 1 0"/>
<feBlend mode="normal" in2="effect4_dropShadow_275_2922" result="effect5_dropShadow_275_2922"/>
<feColorMatrix in="SourceAlpha" type="matrix" values="0 0 0 0 0 0 0 0 0 0 0 0 0 0 0 0 0 0 127 0" result="hardAlpha"/>
<feOffset/>
<feGaussianBlur stdDeviation="10.3814"/>
<feColorMatrix type="matrix" values="0 0 0 0 0.988235 0 0 0 0 0.972549 0 0 0 0 0.721569 0 0 0 1 0"/>
<feBlend mode="normal" in2="effect5_dropShadow_275_2922" result="effect6_dropShadow_275_2922"/>
<feBlend mode="normal" in="SourceGraphic" in2="effect6_dropShadow_275_2922" result="shape"/>
</filter>
</defs>
</svg>
