<svg width="231" height="205" viewBox="0 0 231 205" fill="none" xmlns="http://www.w3.org/2000/svg">
<g filter="url(#filter0_dddddd_266_951)">
<path d="M156.233 21C139.866 21 125.341 27.4628 115.5 38.571C105.659 27.4628 91.1337 21 74.7672 21C60.5126 21.0173 46.8467 26.6898 36.7671 36.7734C26.6875 46.857 21.0172 60.5284 21 74.7887C21 133.744 107.199 180.85 110.865 182.831C112.289 183.598 113.882 184 115.5 184C117.118 184 118.711 183.598 120.135 182.831C123.801 180.85 210 133.744 210 74.7887C209.983 60.5284 204.312 46.857 194.233 36.7734C184.153 26.6898 170.487 21.0173 156.233 21ZM151.76 137.021C140.414 146.652 128.286 155.321 115.5 162.937C102.714 155.321 90.5857 146.652 79.2397 137.021C61.5861 121.87 40.5517 98.7654 40.5517 74.7887C40.5517 65.7106 44.1566 57.0042 50.5732 50.585C56.9899 44.1658 65.6927 40.5595 74.7672 40.5595C89.2681 40.5595 101.406 48.2204 106.449 60.5592C107.183 62.3579 108.436 63.8972 110.048 64.9807C111.66 66.0642 113.558 66.6428 115.5 66.6428C117.442 66.6428 119.34 66.0642 120.952 64.9807C122.564 63.8972 123.817 62.3579 124.551 60.5592C129.594 48.2204 141.732 40.5595 156.233 40.5595C165.307 40.5595 174.01 44.1658 180.427 50.585C186.843 57.0042 190.448 65.7106 190.448 74.7887C190.448 98.7654 169.414 121.87 151.76 137.021Z" fill="#FCF8B8"/>
<path d="M115.126 38.9025L115.5 39.325L115.874 38.9025C125.614 27.9084 140 21.5001 156.232 21.5C170.355 21.5172 183.893 27.137 193.879 37.1269C203.865 47.1169 209.483 60.6613 209.5 74.7893C209.5 104.035 188.103 130.421 166.112 149.8C144.148 169.155 121.722 181.405 119.898 182.391C118.547 183.119 117.035 183.5 115.5 183.5C113.965 183.5 112.453 183.119 111.102 182.391C109.278 181.405 86.8525 169.155 64.8881 149.8C42.8965 130.421 21.5002 104.035 21.5 74.789C21.5172 60.6611 27.1348 47.1168 37.1207 37.1269C47.1066 27.137 60.6455 21.5172 74.7676 21.5C91.0001 21.5001 105.386 27.9084 115.126 38.9025ZM152.084 137.402L152.086 137.4C160.93 129.81 170.636 120.215 178.134 109.501C185.629 98.7918 190.948 86.9209 190.948 74.7887C190.948 65.578 187.291 56.7445 180.78 50.2315C174.27 43.7185 165.44 40.0595 156.233 40.0595C141.552 40.0595 129.216 47.8226 124.088 60.37L124.088 60.3703C123.391 62.077 122.203 63.5376 120.673 64.5657C119.144 65.5938 117.343 66.1428 115.5 66.1428C113.657 66.1428 111.856 65.5938 110.327 64.5657C108.797 63.5376 107.609 62.077 106.912 60.3703L106.912 60.37C101.784 47.8226 89.448 40.0595 74.7672 40.0595C65.5601 40.0595 56.73 43.7185 50.2196 50.2315C43.7092 56.7445 40.0517 65.578 40.0517 74.7887C40.0517 86.9209 45.371 98.7918 52.866 109.501C60.3641 120.215 70.0699 129.81 78.9141 137.4L78.9161 137.402C90.2833 147.051 102.435 155.736 115.244 163.367L115.5 163.519L115.756 163.367C128.565 155.736 140.717 147.051 152.084 137.402Z" stroke="#FCF8B8"/>
</g>
<defs>
<filter id="filter0_dddddd_266_951" x="0.237169" y="0.237169" width="230.526" height="204.526" filterUnits="userSpaceOnUse" color-interpolation-filters="sRGB">
<feFlood flood-opacity="0" result="BackgroundImageFix"/>
<feColorMatrix in="SourceAlpha" type="matrix" values="0 0 0 0 0 0 0 0 0 0 0 0 0 0 0 0 0 0 127 0" result="hardAlpha"/>
<feOffset/>
<feGaussianBlur stdDeviation="0.247177"/>
<feColorMatrix type="matrix" values="0 0 0 0 0.988235 0 0 0 0 0.972549 0 0 0 0 0.721569 0 0 0 1 0"/>
<feBlend mode="normal" in2="BackgroundImageFix" result="effect1_dropShadow_266_951"/>
<feColorMatrix in="SourceAlpha" type="matrix" values="0 0 0 0 0 0 0 0 0 0 0 0 0 0 0 0 0 0 127 0" result="hardAlpha"/>
<feOffset/>
<feGaussianBlur stdDeviation="0.494353"/>
<feColorMatrix type="matrix" values="0 0 0 0 0.988235 0 0 0 0 0.972549 0 0 0 0 0.721569 0 0 0 1 0"/>
<feBlend mode="normal" in2="effect1_dropShadow_266_951" result="effect2_dropShadow_266_951"/>
<feColorMatrix in="SourceAlpha" type="matrix" values="0 0 0 0 0 0 0 0 0 0 0 0 0 0 0 0 0 0 127 0" result="hardAlpha"/>
<feOffset/>
<feGaussianBlur stdDeviation="1.73024"/>
<feColorMatrix type="matrix" values="0 0 0 0 0.988235 0 0 0 0 0.972549 0 0 0 0 0.721569 0 0 0 1 0"/>
<feBlend mode="normal" in2="effect2_dropShadow_266_951" result="effect3_dropShadow_266_951"/>
<feColorMatrix in="SourceAlpha" type="matrix" values="0 0 0 0 0 0 0 0 0 0 0 0 0 0 0 0 0 0 127 0" result="hardAlpha"/>
<feOffset/>
<feGaussianBlur stdDeviation="3.46047"/>
<feColorMatrix type="matrix" values="0 0 0 0 0.988235 0 0 0 0 0.972549 0 0 0 0 0.721569 0 0 0 1 0"/>
<feBlend mode="normal" in2="effect3_dropShadow_266_951" result="effect4_dropShadow_266_951"/>
<feColorMatrix in="SourceAlpha" type="matrix" values="0 0 0 0 0 0 0 0 0 0 0 0 0 0 0 0 0 0 127 0" result="hardAlpha"/>
<feOffset/>
<feGaussianBlur stdDeviation="5.93224"/>
<feColorMatrix type="matrix" values="0 0 0 0 0.988235 0 0 0 0 0.972549 0 0 0 0 0.721569 0 0 0 1 0"/>
<feBlend mode="normal" in2="effect4_dropShadow_266_951" result="effect5_dropShadow_266_951"/>
<feColorMatrix in="SourceAlpha" type="matrix" values="0 0 0 0 0 0 0 0 0 0 0 0 0 0 0 0 0 0 127 0" result="hardAlpha"/>
<feOffset/>
<feGaussianBlur stdDeviation="10.3814"/>
<feColorMatrix type="matrix" values="0 0 0 0 0.988235 0 0 0 0 0.972549 0 0 0 0 0.721569 0 0 0 1 0"/>
<feBlend mode="normal" in2="effect5_dropShadow_266_951" result="effect6_dropShadow_266_951"/>
<feBlend mode="normal" in="SourceGraphic" in2="effect6_dropShadow_266_951" result="shape"/>
</filter>
</defs>
</svg>
