<svg width="405" height="361" viewBox="0 0 405 361" fill="none" xmlns="http://www.w3.org/2000/svg">
<path opacity="0.8" d="M337.416 147.502C337.416 132.301 337.099 119.976 329.442 106.044C324.791 97.5546 306.218 74.3716 302.516 71.4667H104.541C100.839 74.3716 82.2655 97.5546 77.6144 106.044C69.9573 119.948 69.6409 132.301 69.6409 147.502C69.6409 169.303 69.7358 306.06 69.6093 308.401C69.2612 316.072 75.3995 322.08 85.2081 327.692C116.691 345.686 175.827 349.719 203.512 349.719C231.198 349.719 290.334 345.686 321.817 327.692C331.657 322.08 337.764 316.072 337.416 308.401C337.321 306.06 337.416 169.303 337.416 147.502Z" fill="#84C87F"/>
<path opacity="0.6" d="M202.5 335.392C265.164 335.392 315.963 324.697 315.963 311.504C315.963 298.311 265.164 287.615 202.5 287.615C139.836 287.615 89.0366 298.311 89.0366 311.504C89.0366 324.697 139.836 335.392 202.5 335.392Z" fill="#064928"/>
<path opacity="0.6" d="M104.572 70.7616L95.0801 82.1275C95.0801 82.1275 152.033 119.525 261.984 104.436C323.937 95.947 308.433 79.4764 308.433 79.4764L299.51 67.2644L104.572 70.7616Z" fill="#417F54"/>
<path d="M315.742 34.1257H89.1318C89.1318 34.1257 86.5372 40.274 86.6954 50.7656C86.9169 69.7181 92.8337 71.241 100.491 74.4562C119.127 82.2685 154.66 87.6553 202.279 87.6553C249.898 87.6553 285.43 82.2967 304.067 74.4562C311.724 71.241 317.64 69.7181 317.862 50.7656C317.988 40.274 315.742 34.1257 315.742 34.1257Z" fill="#019153"/>
<path d="M202.5 59.0573C265.164 59.0573 315.963 48.3623 315.963 35.1693C315.963 21.9763 265.164 11.2812 202.5 11.2812C139.836 11.2812 89.0366 21.9763 89.0366 35.1693C89.0366 48.3623 139.836 59.0573 202.5 59.0573Z" fill="#05502F"/>
<path d="M129.537 59.0574C146.465 60.8906 149.249 60.8906 150.799 65.4595C151.495 67.5747 150.957 70.0566 149.122 71.495C140.295 78.4329 119.159 75.105 110.426 69.2387C107.325 67.1517 103.37 61.511 108.179 57.7036C112.704 54.15 122.418 58.2959 129.537 59.0574Z" fill="#FCF8B8"/>
</svg>
