<svg width="405" height="361" viewBox="0 0 405 361" fill="none" xmlns="http://www.w3.org/2000/svg">
<path opacity="0.8" d="M337.416 147.502C337.416 132.301 337.099 119.976 329.442 106.044C324.791 97.5546 306.218 74.3716 302.516 71.4667H104.541C100.839 74.3716 82.2655 97.5546 77.6144 106.044C69.9573 119.948 69.6409 132.301 69.6409 147.502C69.6409 169.303 69.7358 306.06 69.6093 308.401C69.2612 316.072 75.3995 322.08 85.2081 327.692C116.691 345.686 175.827 349.719 203.512 349.719C231.198 349.719 290.334 345.686 321.817 327.692C331.657 322.08 337.764 316.072 337.416 308.401C337.321 306.06 337.416 169.303 337.416 147.502Z" fill="#84C87F"/>
<path opacity="0.6" d="M202.5 335.392C265.164 335.392 315.963 324.697 315.963 311.504C315.963 298.311 265.164 287.615 202.5 287.615C139.836 287.615 89.0366 298.311 89.0366 311.504C89.0366 324.697 139.836 335.392 202.5 335.392Z" fill="#064928"/>
<path opacity="0.6" d="M104.572 70.7616L95.0801 82.1275C95.0801 82.1275 152.033 119.525 261.984 104.436C323.937 95.947 308.433 79.4764 308.433 79.4764L299.51 67.2644L104.572 70.7616Z" fill="#417F54"/>
<path d="M315.742 34.1257H89.1318C89.1318 34.1257 86.5372 40.274 86.6954 50.7656C86.9169 69.7181 92.8337 71.241 100.491 74.4562C119.127 82.2685 154.66 87.6553 202.279 87.6553C249.898 87.6553 285.43 82.2967 304.067 74.4562C311.724 71.241 317.64 69.7181 317.862 50.7656C317.988 40.274 315.742 34.1257 315.742 34.1257Z" fill="#019153"/>
<path d="M202.5 59.0573C265.164 59.0573 315.963 48.3623 315.963 35.1693C315.963 21.9763 265.164 11.2812 202.5 11.2812C139.836 11.2812 89.0366 21.9763 89.0366 35.1693C89.0366 48.3623 139.836 59.0573 202.5 59.0573Z" fill="#05502F"/>
<path d="M129.537 59.0574C146.465 60.8906 149.249 60.8906 150.799 65.4595C151.495 67.5747 150.957 70.0566 149.122 71.495C140.295 78.4329 119.159 75.105 110.426 69.2387C107.325 67.1517 103.37 61.511 108.179 57.7036C112.704 54.15 122.418 58.2959 129.537 59.0574Z" fill="#FCF8B8"/>
<g filter="url(#filter0_dddddd_275_2932)">
<path fill-rule="evenodd" clip-rule="evenodd" d="M139.561 261.858C125.51 246.47 121.67 227.003 123.379 209.612C125.263 190.427 134.048 172.026 145.485 162.529C160.771 149.846 176.825 144.637 190.758 142.088C197.544 140.934 204.376 140.074 211.237 139.511C214.93 139.165 218.67 138.819 222.262 137.927C229.832 136.042 237.301 132.983 243.454 128.121C246.27 125.89 249.122 123.632 252.917 124.051C254.28 124.202 255.593 124.657 256.756 125.382C257.919 126.107 258.903 127.083 259.636 128.239C288.891 174.375 284.476 223.352 260.038 254.2C247.833 269.597 230.692 280.341 210.697 283.519C193.254 286.278 174.192 283.191 154.984 273.176C153.297 278.4 152.043 283.754 151.236 289.183C150.893 291.573 149.61 293.73 147.67 295.179C145.73 296.628 143.292 297.25 140.891 296.908C138.491 296.567 136.325 295.289 134.87 293.357C133.416 291.425 132.791 288.997 133.134 286.606C134.268 278.73 136.425 270.344 139.561 261.858ZM194.049 159.998C200.485 158.823 206.529 158.259 212.398 157.685C217.188 157.23 222.016 156.756 226.696 155.591C234.58 153.667 242.129 150.58 249.095 146.431C269.007 183.917 263.448 220.493 245.685 242.928C236.104 255.02 222.93 263.142 207.836 265.527C194.278 267.676 178.581 265.309 161.85 256.185C172.016 235.544 188.637 215.758 210.277 204.987C212.447 203.907 214.098 202.013 214.866 199.722C215.634 197.43 215.456 194.929 214.373 192.768C213.289 190.606 211.387 188.962 209.086 188.197C206.786 187.432 204.274 187.609 202.104 188.688C178.261 200.562 159.994 221.094 148.118 242.992C142.258 233.431 140.503 222.314 141.582 211.379C143.127 195.645 150.358 182.196 157.188 176.515C169.329 166.435 182.128 162.183 194.058 159.998H194.049Z" fill="#FCF8B8"/>
<path d="M140.136 261.746L140.03 262.031C136.906 270.487 134.757 278.839 133.629 286.677C133.305 288.936 133.895 291.23 135.27 293.056C136.645 294.882 138.692 296.09 140.962 296.413C143.232 296.736 145.537 296.148 147.371 294.779C149.205 293.409 150.417 291.37 150.741 289.112L150.741 289.109C151.552 283.653 152.812 278.272 154.509 273.022L154.691 272.459L155.216 272.732C174.339 282.704 193.292 285.766 210.619 283.025C230.48 279.869 247.513 269.196 259.647 253.89C283.937 223.227 288.368 174.484 259.214 128.507L259.636 128.239L259.214 128.507C258.521 127.414 257.591 126.491 256.491 125.806C255.392 125.121 254.151 124.69 252.862 124.548L140.136 261.746ZM140.136 261.746L139.931 261.521C125.997 246.262 122.178 226.948 123.877 209.661L123.877 209.661C125.751 190.572 134.494 172.306 145.805 162.914M140.136 261.746L145.805 162.914M145.805 162.914C161.004 150.303 176.968 145.12 190.845 142.58C197.615 141.429 204.433 140.571 211.278 140.01L211.283 140.009L211.385 139.999C215.039 139.657 218.781 139.307 222.383 138.412L222.383 138.412C229.997 136.516 237.539 133.432 243.764 128.513L243.765 128.512C246.613 126.256 249.304 124.155 252.861 124.547L145.805 162.914ZM211.237 139.511C204.376 140.074 197.544 140.934 190.758 142.088L211.237 139.511ZM211.237 139.511L211.321 139.503M211.237 139.511L211.321 139.503M211.321 139.503C214.987 139.16 218.697 138.812 222.262 137.927L211.321 139.503ZM193.96 159.506L193.96 159.508C181.977 161.703 169.092 165.982 156.868 176.13L156.868 176.13C149.914 181.916 142.639 195.5 141.084 211.329C139.997 222.348 141.763 233.58 147.692 243.253L148.145 243.992L148.558 243.23C160.397 221.4 178.596 200.953 202.326 189.136C204.378 188.116 206.753 187.948 208.929 188.672C211.104 189.395 212.901 190.949 213.926 192.992C214.95 195.034 215.117 197.398 214.392 199.563C213.666 201.728 212.106 203.519 210.054 204.539L210.054 204.539C188.292 215.372 171.603 235.252 161.402 255.964L161.19 256.395L161.611 256.624C178.428 265.795 194.236 268.189 207.914 266.021C223.141 263.614 236.424 255.421 246.077 243.239L246.077 243.239C263.975 220.633 269.533 183.841 249.537 146.197L249.29 145.733L248.839 146.002C241.916 150.125 234.413 153.193 226.578 155.105L226.576 155.106C221.937 156.261 217.146 156.732 212.351 157.187L212.349 157.188C212.092 157.213 211.834 157.238 211.576 157.263C205.951 157.812 200.136 158.379 193.96 159.506Z" stroke="#FCF8B8"/>
</g>
<defs>
<filter id="filter0_dddddd_275_2932" x="103.995" y="104.995" width="195.01" height="211.01" filterUnits="userSpaceOnUse" color-interpolation-filters="sRGB">
<feFlood flood-opacity="0" result="BackgroundImageFix"/>
<feColorMatrix in="SourceAlpha" type="matrix" values="0 0 0 0 0 0 0 0 0 0 0 0 0 0 0 0 0 0 127 0" result="hardAlpha"/>
<feOffset/>
<feGaussianBlur stdDeviation="0.226252"/>
<feColorMatrix type="matrix" values="0 0 0 0 0.988235 0 0 0 0 0.972549 0 0 0 0 0.721569 0 0 0 1 0"/>
<feBlend mode="normal" in2="BackgroundImageFix" result="effect1_dropShadow_275_2932"/>
<feColorMatrix in="SourceAlpha" type="matrix" values="0 0 0 0 0 0 0 0 0 0 0 0 0 0 0 0 0 0 127 0" result="hardAlpha"/>
<feOffset/>
<feGaussianBlur stdDeviation="0.452503"/>
<feColorMatrix type="matrix" values="0 0 0 0 0.988235 0 0 0 0 0.972549 0 0 0 0 0.721569 0 0 0 1 0"/>
<feBlend mode="normal" in2="effect1_dropShadow_275_2932" result="effect2_dropShadow_275_2932"/>
<feColorMatrix in="SourceAlpha" type="matrix" values="0 0 0 0 0 0 0 0 0 0 0 0 0 0 0 0 0 0 127 0" result="hardAlpha"/>
<feOffset/>
<feGaussianBlur stdDeviation="1.58376"/>
<feColorMatrix type="matrix" values="0 0 0 0 0.988235 0 0 0 0 0.972549 0 0 0 0 0.721569 0 0 0 1 0"/>
<feBlend mode="normal" in2="effect2_dropShadow_275_2932" result="effect3_dropShadow_275_2932"/>
<feColorMatrix in="SourceAlpha" type="matrix" values="0 0 0 0 0 0 0 0 0 0 0 0 0 0 0 0 0 0 127 0" result="hardAlpha"/>
<feOffset/>
<feGaussianBlur stdDeviation="3.16752"/>
<feColorMatrix type="matrix" values="0 0 0 0 0.988235 0 0 0 0 0.972549 0 0 0 0 0.721569 0 0 0 1 0"/>
<feBlend mode="normal" in2="effect3_dropShadow_275_2932" result="effect4_dropShadow_275_2932"/>
<feColorMatrix in="SourceAlpha" type="matrix" values="0 0 0 0 0 0 0 0 0 0 0 0 0 0 0 0 0 0 127 0" result="hardAlpha"/>
<feOffset/>
<feGaussianBlur stdDeviation="5.43004"/>
<feColorMatrix type="matrix" values="0 0 0 0 0.988235 0 0 0 0 0.972549 0 0 0 0 0.721569 0 0 0 1 0"/>
<feBlend mode="normal" in2="effect4_dropShadow_275_2932" result="effect5_dropShadow_275_2932"/>
<feColorMatrix in="SourceAlpha" type="matrix" values="0 0 0 0 0 0 0 0 0 0 0 0 0 0 0 0 0 0 127 0" result="hardAlpha"/>
<feOffset/>
<feGaussianBlur stdDeviation="9.50257"/>
<feColorMatrix type="matrix" values="0 0 0 0 0.988235 0 0 0 0 0.972549 0 0 0 0 0.721569 0 0 0 1 0"/>
<feBlend mode="normal" in2="effect5_dropShadow_275_2932" result="effect6_dropShadow_275_2932"/>
<feBlend mode="normal" in="SourceGraphic" in2="effect6_dropShadow_275_2932" result="shape"/>
</filter>
</defs>
</svg>
