<svg width="195" height="211" viewBox="0 0 195 211" fill="none" xmlns="http://www.w3.org/2000/svg">
<g filter="url(#filter0_dddddd_266_961)">
<path fill-rule="evenodd" clip-rule="evenodd" d="M35.5613 156.858C21.5096 141.47 17.6698 122.003 19.3794 104.612C21.2628 85.4275 30.0485 67.0259 41.4855 57.5291C56.7714 44.8456 72.8253 39.6374 86.7581 37.0879C93.5437 35.9341 100.376 35.0744 107.237 34.5112C110.93 34.1652 114.67 33.8192 118.262 32.9269C125.832 31.0421 133.301 27.9827 139.454 23.1206C142.27 20.8898 145.122 18.6317 148.917 19.0505C150.28 19.2016 151.593 19.6566 152.756 20.3817C153.919 21.1067 154.903 22.0833 155.636 23.2389C184.891 69.375 180.476 118.352 156.038 149.2C143.833 164.597 126.692 175.341 106.697 178.519C89.2539 181.278 70.1923 178.191 50.9843 168.176C49.2967 173.4 48.043 178.754 47.236 184.183C46.8929 186.573 45.6103 188.73 43.6703 190.179C41.7303 191.628 39.2919 192.25 36.8915 191.908C34.4911 191.567 32.3252 190.289 30.8705 188.357C29.4157 186.425 28.7912 183.997 29.1343 181.606C30.2679 173.73 32.4255 165.344 35.5613 156.858ZM90.0493 54.9979C96.4855 53.8233 102.529 53.2588 108.398 52.6852C113.188 52.2299 118.016 51.7564 122.696 50.591C130.58 48.6674 138.129 45.5799 145.095 41.4311C165.007 78.9173 159.448 115.493 141.685 137.928C132.104 150.02 118.93 158.142 103.836 160.527C90.2779 162.676 74.5806 160.309 57.8502 151.185C68.0164 130.544 84.6371 110.758 106.277 99.9867C108.447 98.9073 110.098 97.0135 110.866 94.7219C111.634 92.4304 111.456 89.9288 110.373 87.7675C109.289 85.6062 107.387 83.9623 105.086 83.1973C102.786 82.4323 100.274 82.609 98.1037 83.6884C74.2606 95.5616 55.9943 116.094 44.1185 137.992C38.2583 128.431 36.5029 117.314 37.5817 106.379C39.1268 90.6448 46.3583 77.1964 53.1876 71.5147C65.3286 61.4353 78.1278 57.1831 90.0585 54.9979H90.0493Z" fill="#FCF8B8"/>
<path d="M36.1358 156.746L36.0303 157.031C32.9055 165.487 30.7574 173.839 29.6292 181.677C29.305 183.936 29.895 186.23 31.2699 188.056C32.6448 189.882 34.6922 191.09 36.962 191.413C39.2317 191.736 41.5372 191.148 43.3711 189.779C45.205 188.409 46.4169 186.37 46.7411 184.112L46.7414 184.109C47.5525 178.653 48.8124 173.272 50.5085 168.022L50.6905 167.459L51.2155 167.732C70.3385 177.704 89.2924 180.766 106.619 178.025C126.48 174.869 143.513 164.196 155.647 148.89C179.937 118.227 184.368 69.4839 155.214 23.5067L155.636 23.2389L155.214 23.5066C154.521 22.4145 153.591 21.4914 152.491 20.806C151.392 20.1206 150.151 19.6904 148.862 19.5475L36.1358 156.746ZM36.1358 156.746L35.9305 156.521C21.9971 141.262 18.1776 121.948 19.877 104.661L19.877 104.661C21.751 85.5718 30.4937 67.3062 41.8048 57.9139M36.1358 156.746L41.8048 57.9139M41.8048 57.9139C57.0037 45.3025 72.9676 40.12 86.8451 37.5803C93.6154 36.4292 100.433 35.5714 107.278 35.0095L107.283 35.009L107.385 34.9995C111.039 34.6572 114.781 34.3068 118.383 33.4121L118.383 33.4121C125.997 31.5162 133.539 28.4325 139.764 23.5129L139.765 23.5125C142.613 21.2563 145.304 19.1549 148.861 19.5475L41.8048 57.9139ZM107.237 34.5112C100.376 35.0744 93.5437 35.9341 86.7581 37.0879L107.237 34.5112ZM107.237 34.5112L107.321 34.5033M107.237 34.5112L107.321 34.5033M107.321 34.5033C110.987 34.1599 114.697 33.8124 118.262 32.9269L107.321 34.5033ZM89.9596 54.506L89.9597 54.5077C77.9771 56.7034 65.0922 60.9816 52.8682 71.13L52.8678 71.1304C45.9135 76.916 38.6387 90.4996 37.0841 106.329C35.9971 117.348 37.7631 128.58 43.6922 138.253L44.145 138.992L44.558 138.23C56.3971 116.4 74.5961 95.9532 98.3264 84.1361C100.378 83.1155 102.753 82.9484 104.929 83.6718C107.104 84.3951 108.901 85.9492 109.926 87.9917C110.95 90.034 111.117 92.3978 110.392 94.563C109.666 96.7284 108.106 98.5185 106.054 99.539L106.054 99.5391C84.2917 110.372 67.6026 130.252 57.4016 150.964L57.1897 151.395L57.6108 151.624C74.4276 160.795 90.2359 163.189 103.914 161.021C119.141 158.614 132.424 150.421 142.077 138.239L142.077 138.239C159.975 115.633 165.533 78.8413 145.537 41.1966L145.29 40.7329L144.839 41.0016C137.916 45.1249 130.413 48.1934 122.578 50.1052L122.576 50.1058C117.937 51.2608 113.146 51.7317 108.351 52.1874L108.349 52.1875C108.092 52.2127 107.834 52.2378 107.576 52.263C101.951 52.8116 96.1363 53.3788 89.9596 54.506Z" stroke="#FCF8B8"/>
</g>
<defs>
<filter id="filter0_dddddd_266_961" x="-0.00513077" y="-0.00513077" width="195.01" height="211.01" filterUnits="userSpaceOnUse" color-interpolation-filters="sRGB">
<feFlood flood-opacity="0" result="BackgroundImageFix"/>
<feColorMatrix in="SourceAlpha" type="matrix" values="0 0 0 0 0 0 0 0 0 0 0 0 0 0 0 0 0 0 127 0" result="hardAlpha"/>
<feOffset/>
<feGaussianBlur stdDeviation="0.226252"/>
<feColorMatrix type="matrix" values="0 0 0 0 0.988235 0 0 0 0 0.972549 0 0 0 0 0.721569 0 0 0 1 0"/>
<feBlend mode="normal" in2="BackgroundImageFix" result="effect1_dropShadow_266_961"/>
<feColorMatrix in="SourceAlpha" type="matrix" values="0 0 0 0 0 0 0 0 0 0 0 0 0 0 0 0 0 0 127 0" result="hardAlpha"/>
<feOffset/>
<feGaussianBlur stdDeviation="0.452503"/>
<feColorMatrix type="matrix" values="0 0 0 0 0.988235 0 0 0 0 0.972549 0 0 0 0 0.721569 0 0 0 1 0"/>
<feBlend mode="normal" in2="effect1_dropShadow_266_961" result="effect2_dropShadow_266_961"/>
<feColorMatrix in="SourceAlpha" type="matrix" values="0 0 0 0 0 0 0 0 0 0 0 0 0 0 0 0 0 0 127 0" result="hardAlpha"/>
<feOffset/>
<feGaussianBlur stdDeviation="1.58376"/>
<feColorMatrix type="matrix" values="0 0 0 0 0.988235 0 0 0 0 0.972549 0 0 0 0 0.721569 0 0 0 1 0"/>
<feBlend mode="normal" in2="effect2_dropShadow_266_961" result="effect3_dropShadow_266_961"/>
<feColorMatrix in="SourceAlpha" type="matrix" values="0 0 0 0 0 0 0 0 0 0 0 0 0 0 0 0 0 0 127 0" result="hardAlpha"/>
<feOffset/>
<feGaussianBlur stdDeviation="3.16752"/>
<feColorMatrix type="matrix" values="0 0 0 0 0.988235 0 0 0 0 0.972549 0 0 0 0 0.721569 0 0 0 1 0"/>
<feBlend mode="normal" in2="effect3_dropShadow_266_961" result="effect4_dropShadow_266_961"/>
<feColorMatrix in="SourceAlpha" type="matrix" values="0 0 0 0 0 0 0 0 0 0 0 0 0 0 0 0 0 0 127 0" result="hardAlpha"/>
<feOffset/>
<feGaussianBlur stdDeviation="5.43004"/>
<feColorMatrix type="matrix" values="0 0 0 0 0.988235 0 0 0 0 0.972549 0 0 0 0 0.721569 0 0 0 1 0"/>
<feBlend mode="normal" in2="effect4_dropShadow_266_961" result="effect5_dropShadow_266_961"/>
<feColorMatrix in="SourceAlpha" type="matrix" values="0 0 0 0 0 0 0 0 0 0 0 0 0 0 0 0 0 0 127 0" result="hardAlpha"/>
<feOffset/>
<feGaussianBlur stdDeviation="9.50257"/>
<feColorMatrix type="matrix" values="0 0 0 0 0.988235 0 0 0 0 0.972549 0 0 0 0 0.721569 0 0 0 1 0"/>
<feBlend mode="normal" in2="effect5_dropShadow_266_961" result="effect6_dropShadow_266_961"/>
<feBlend mode="normal" in="SourceGraphic" in2="effect6_dropShadow_266_961" result="shape"/>
</filter>
</defs>
</svg>
