<svg width="208" height="209" viewBox="0 0 208 209" fill="none" xmlns="http://www.w3.org/2000/svg">
<g filter="url(#filter0_dddddd_266_972)">
<path d="M77.8333 52.1667C77.8333 64.5086 77.8333 70.6752 73.9956 74.4956C70.1665 78.3333 64.0086 78.3333 51.6667 78.3333C39.3247 78.3333 33.1581 78.3333 29.3378 74.4956C25.5 70.6665 25.5 64.5086 25.5 52.1667C25.5 39.8247 25.5 33.6581 29.3378 29.8378C33.1668 26 39.3247 26 51.6667 26C64.0086 26 70.1752 26 73.9956 29.8378C77.8333 33.6668 77.8333 39.8247 77.8333 52.1667ZM77.8333 52.1667H104M156.333 78.3333C143.991 78.3333 137.825 78.3333 134.004 74.4956C130.167 70.6665 130.167 64.5086 130.167 52.1667C130.167 39.8247 130.167 33.6581 134.004 29.8378C137.833 26 143.991 26 156.333 26C168.675 26 174.842 26 178.662 29.8378C182.5 33.6668 182.5 39.8247 182.5 52.1667C182.5 64.5086 182.5 70.6752 178.662 74.4956C174.833 78.3333 168.675 78.3333 156.333 78.3333ZM156.333 78.3333V104.5M130.167 156.833C130.167 144.491 130.167 138.325 134.004 134.504C137.833 130.667 143.991 130.667 156.333 130.667C168.675 130.667 174.842 130.667 178.662 134.504C182.5 138.333 182.5 144.5 182.5 156.833C182.5 169.167 182.5 175.333 178.662 179.162C174.833 183 168.667 183 156.333 183C144 183 137.833 183 134.004 179.162C130.167 175.333 130.167 169.175 130.167 156.833ZM130.167 156.833H104M51.6667 130.667C64.0086 130.667 70.1752 130.667 73.9956 134.504C77.8333 138.333 77.8333 144.491 77.8333 156.833C77.8333 169.175 77.8333 175.342 73.9956 179.162C70.1665 183 64.0086 183 51.6667 183C39.3247 183 33.1581 183 29.3378 179.162C25.5 175.333 25.5 169.175 25.5 156.833C25.5 144.491 25.5 138.325 29.3378 134.504C33.1668 130.667 39.3247 130.667 51.6667 130.667ZM51.6667 130.667V104.5" stroke="#FCF8B8" stroke-width="16" stroke-linecap="round" stroke-linejoin="round"/>
</g>
<defs>
<filter id="filter0_dddddd_266_972" x="0.252569" y="0.752569" width="207.495" height="207.495" filterUnits="userSpaceOnUse" color-interpolation-filters="sRGB">
<feFlood flood-opacity="0" result="BackgroundImageFix"/>
<feColorMatrix in="SourceAlpha" type="matrix" values="0 0 0 0 0 0 0 0 0 0 0 0 0 0 0 0 0 0 127 0" result="hardAlpha"/>
<feOffset/>
<feGaussianBlur stdDeviation="0.205327"/>
<feColorMatrix type="matrix" values="0 0 0 0 0.988235 0 0 0 0 0.972549 0 0 0 0 0.721569 0 0 0 1 0"/>
<feBlend mode="normal" in2="BackgroundImageFix" result="effect1_dropShadow_266_972"/>
<feColorMatrix in="SourceAlpha" type="matrix" values="0 0 0 0 0 0 0 0 0 0 0 0 0 0 0 0 0 0 127 0" result="hardAlpha"/>
<feOffset/>
<feGaussianBlur stdDeviation="0.410653"/>
<feColorMatrix type="matrix" values="0 0 0 0 0.988235 0 0 0 0 0.972549 0 0 0 0 0.721569 0 0 0 1 0"/>
<feBlend mode="normal" in2="effect1_dropShadow_266_972" result="effect2_dropShadow_266_972"/>
<feColorMatrix in="SourceAlpha" type="matrix" values="0 0 0 0 0 0 0 0 0 0 0 0 0 0 0 0 0 0 127 0" result="hardAlpha"/>
<feOffset/>
<feGaussianBlur stdDeviation="1.43729"/>
<feColorMatrix type="matrix" values="0 0 0 0 0.988235 0 0 0 0 0.972549 0 0 0 0 0.721569 0 0 0 1 0"/>
<feBlend mode="normal" in2="effect2_dropShadow_266_972" result="effect3_dropShadow_266_972"/>
<feColorMatrix in="SourceAlpha" type="matrix" values="0 0 0 0 0 0 0 0 0 0 0 0 0 0 0 0 0 0 127 0" result="hardAlpha"/>
<feOffset/>
<feGaussianBlur stdDeviation="2.87457"/>
<feColorMatrix type="matrix" values="0 0 0 0 0.988235 0 0 0 0 0.972549 0 0 0 0 0.721569 0 0 0 1 0"/>
<feBlend mode="normal" in2="effect3_dropShadow_266_972" result="effect4_dropShadow_266_972"/>
<feColorMatrix in="SourceAlpha" type="matrix" values="0 0 0 0 0 0 0 0 0 0 0 0 0 0 0 0 0 0 127 0" result="hardAlpha"/>
<feOffset/>
<feGaussianBlur stdDeviation="4.92784"/>
<feColorMatrix type="matrix" values="0 0 0 0 0.988235 0 0 0 0 0.972549 0 0 0 0 0.721569 0 0 0 1 0"/>
<feBlend mode="normal" in2="effect4_dropShadow_266_972" result="effect5_dropShadow_266_972"/>
<feColorMatrix in="SourceAlpha" type="matrix" values="0 0 0 0 0 0 0 0 0 0 0 0 0 0 0 0 0 0 127 0" result="hardAlpha"/>
<feOffset/>
<feGaussianBlur stdDeviation="8.62372"/>
<feColorMatrix type="matrix" values="0 0 0 0 0.988235 0 0 0 0 0.972549 0 0 0 0 0.721569 0 0 0 1 0"/>
<feBlend mode="normal" in2="effect5_dropShadow_266_972" result="effect6_dropShadow_266_972"/>
<feBlend mode="normal" in="SourceGraphic" in2="effect6_dropShadow_266_972" result="shape"/>
</filter>
</defs>
</svg>
