<?xml version="1.0" encoding="UTF-8"?>
<svg width="199px" height="103px" viewBox="0 0 199 103" version="1.1" xmlns="http://www.w3.org/2000/svg" xmlns:xlink="http://www.w3.org/1999/xlink">
    <!-- Generator: Sketch 51.3 (57544) - http://www.bohemiancoding.com/sketch -->
    <title>TWDC Stacked Vector</title>
    <desc>Created with Sketch.</desc>
    <defs>
        <polygon id="path-1" points="0.455 0.918 28.353 0.918 28.353 20.94 0.455 20.94"></polygon>
    </defs>
    <g id="TWDC-Stacked-Vector" stroke="none" stroke-width="1" fill="none" fill-rule="evenodd">
        <path d="M40.807,87.461 C40.807,80.794 44.545,77.192 49.544,77.192 C54.17,77.192 56.372,79.745 57.259,83.375 L54.061,84.289 C53.307,81.654 52.152,80.31 49.519,80.31 C46.157,80.31 44.194,82.918 44.194,87.435 C44.194,92.166 46.211,94.773 49.573,94.773 C52.152,94.773 53.604,93.483 54.358,90.499 L57.556,91.224 C56.589,95.177 54.141,97.839 49.544,97.839 C44.436,97.839 40.807,94.317 40.807,87.461" id="Fill-1" fill="#1A1919"></path>
        <path d="M69.981,90.338 C69.981,87.676 68.854,85.74 66.351,85.74 C63.961,85.74 62.725,87.461 62.725,90.338 C62.725,93.053 63.826,94.989 66.351,94.989 C68.746,94.989 69.981,93.268 69.981,90.338 Z M59.389,90.338 C59.389,85.068 62.859,82.918 66.351,82.918 C69.821,82.918 73.317,85.068 73.317,90.338 C73.317,95.553 69.821,97.758 66.351,97.758 C62.885,97.758 59.389,95.553 59.389,90.338 Z" id="Fill-2" fill="#1A1919"></path>
        <path d="M75.642,97.462 L75.642,83.186 L78.95,83.186 L78.95,85.149 C80.054,83.939 81.666,82.918 83.843,82.918 C86.238,82.918 87.176,83.858 87.741,85.257 C88.871,84.02 90.566,82.918 92.743,82.918 C95.645,82.918 96.909,84.665 96.909,87.219 L96.909,97.462 L93.602,97.462 L93.602,88.052 C93.602,86.467 93.145,85.74 91.588,85.74 C90.24,85.74 89.168,86.494 87.929,87.596 L87.929,97.462 L84.622,97.462 L84.622,88.052 C84.622,86.467 84.165,85.74 82.608,85.74 C81.289,85.74 80.188,86.494 78.95,87.596 L78.95,97.462 L75.642,97.462" id="Fill-3" fill="#1A1919"></path>
        <path d="M110.144,90.338 C110.144,87.327 108.855,85.74 106.732,85.74 C105.359,85.74 104.041,86.601 103.262,87.541 L103.262,93.268 C104.15,94.424 105.439,95.042 106.624,95.042 C109.123,95.042 110.144,93.51 110.144,90.338 Z M99.955,102.839 L99.955,83.186 L103.262,83.186 L103.262,85.068 C104.204,83.939 105.682,82.918 107.808,82.918 C111.061,82.918 113.452,85.364 113.452,90.311 C113.452,95.258 111.007,97.677 107.348,97.677 C105.816,97.677 104.313,97.059 103.262,95.875 L103.262,102.839 L99.955,102.839 Z" id="Fill-4" fill="#1A1919"></path>
        <path d="M124.213,93.483 L124.213,90.338 C120.261,90.876 118.168,91.843 118.168,93.402 C118.168,94.531 118.947,95.123 120.157,95.123 C121.848,95.123 123.167,94.478 124.213,93.483 Z M114.915,94.021 C114.915,90.929 117.548,88.859 124.213,88.107 L124.213,87.676 C124.213,86.251 123.464,85.633 121.877,85.633 C119.888,85.633 118.273,86.601 117.063,87.569 L115.451,85.498 C116.983,84.1 119.378,82.918 122.333,82.918 C126.151,82.918 127.47,84.746 127.47,88.079 L127.47,93.967 C127.47,95.688 127.575,96.736 127.872,97.462 L124.539,97.462 C124.351,96.871 124.213,96.44 124.213,95.634 C122.764,97.112 121.069,97.677 118.947,97.677 C116.636,97.677 114.915,96.386 114.915,94.021 Z" id="Fill-5" fill="#1A1919"></path>
        <g id="Group-9" transform="translate(130.000000, 82.000000)">
            <mask id="mask-2" fill="white">
                <use xlink:href="#path-1"></use>
            </mask>
            <g id="Clip-7"></g>
            <path d="M0.455,15.462 L0.455,1.186 L3.762,1.186 L3.762,3.471 C4.838,2.235 6.504,0.918 8.869,0.918 C11.477,0.918 13.089,2.261 13.089,5.085 L13.089,15.462 L9.782,15.462 L9.782,6.026 C9.782,4.467 9.137,3.66 7.63,3.66 C6.181,3.66 4.971,4.386 3.762,5.515 L3.762,15.462 L0.455,15.462" id="Fill-6" fill="#1A1919" mask="url(#mask-2)"></path>
            <path d="M13.89,20.57 L14.643,17.909 C15.045,18.016 15.904,18.204 17.063,18.204 C18.244,18.204 18.863,17.747 19.319,16.591 L19.721,15.543 L14.237,1.186 L17.678,1.186 L21.362,11.591 L21.417,11.591 L25.071,1.186 L28.353,1.186 L22.275,17.021 C21.337,19.522 20.098,21 17.276,21 C15.581,21 14.589,20.758 13.89,20.57" id="Fill-8" fill="#1A1919" mask="url(#mask-2)"></path>
        </g>
        <polyline id="Fill-10" fill="#1A1919" points="82.463 20.749 82.463 3.974 76.334 3.974 76.334 0.855 91.953 0.855 91.953 3.974 85.825 3.974 85.825 20.749 82.463 20.749"></polyline>
        <path d="M93.937,20.749 L93.937,0.855 L97.271,0.855 L97.271,8.409 C98.184,7.442 99.904,6.205 102.487,6.205 C104.986,6.205 106.598,7.684 106.598,10.507 L106.598,20.749 L103.266,20.749 L103.266,11.34 C103.266,9.754 102.594,9.028 101.143,9.028 C99.691,9.028 98.481,9.781 97.271,10.883 L97.271,20.749 L93.937,20.749" id="Fill-11" fill="#1A1919"></path>
        <g id="Group-15" transform="translate(0.000000, 6.000000)" fill="#1A1919">
            <path d="M118.876,6.227 C118.688,4.049 117.614,2.894 115.623,2.894 C114.009,2.894 112.532,3.807 112.209,6.227 L118.876,6.227 Z M108.848,7.625 C108.848,2.195 112.693,0.205 115.65,0.205 C118.849,0.205 121.913,2.114 121.913,7.921 L121.913,8.7 L112.155,8.7 C112.289,11.281 113.875,12.41 115.973,12.41 C117.827,12.41 118.903,11.792 119.979,10.744 L121.725,12.465 C120.247,14.105 118.284,15.046 115.73,15.046 C112.155,15.046 108.848,12.868 108.848,7.625 Z" id="Fill-12"></path>
            <path d="M185.868,63.296 C185.868,63.296 185.515,64.332 185.26,65.142 C184.81,66.543 183.832,70.312 183.6,71.486 C183.26,73.225 182.289,77.778 182.235,77.879 C182.17,78.01 182.124,78.053 181.956,78.155 C181.558,78.394 181.398,78.314 180.911,78.057 C180.283,77.724 179.727,77.383 179.25,76.764 C178.303,75.528 178.529,73.205 178.718,71.839 C179.368,67.074 180.025,64.973 181.842,60.228 C181.873,60.15 181.871,60.132 181.837,60.058 C181.27,58.853 180.965,57.399 180.965,56.225 C180.969,52.504 183.108,48.823 185.502,45.869 C185.683,45.641 186.861,44.234 187.397,44.261 C187.931,44.286 188.02,44.913 187.938,45.433 C187.668,47.155 186.459,48.901 185.633,50.35 C184.704,51.969 184.503,52.637 184.048,54.123 C183.977,54.356 183.793,55.436 183.8,55.581 C183.82,55.975 183.905,56.479 183.905,56.479 C183.905,56.479 185.419,54.364 186.415,53.056 C186.962,52.342 187.353,51.868 187.806,51.353 C188.266,50.832 190.037,48.992 190.55,48.506 C191.62,47.483 192.098,47.057 193.258,46.456 C194.178,45.98 195,45.862 195.898,46.456 C197.318,47.391 197.936,49.361 198.097,50.962 C198.283,52.878 197.894,55.03 197.05,56.667 C196.049,58.616 194.681,60.025 192.823,61.257 C190.921,62.515 188.693,63.376 186.509,63.321 C186.216,63.314 185.868,63.296 185.868,63.296 Z M194.706,49.651 C193.591,50.582 192.156,52.485 191.468,53.469 C190.555,54.776 189.691,56.276 188.867,57.439 C188.686,57.696 188.156,58.629 188.172,58.661 C188.21,58.728 188.746,58.705 189.295,58.612 C190.468,58.413 192.062,57.595 192.913,56.914 C194.21,55.874 195.116,54.447 195.539,52.773 C195.732,52.016 195.826,50.424 195.286,49.718 C195.181,49.578 194.913,49.475 194.706,49.651 Z M167.416,61.646 C167.286,61.546 167.07,61.326 166.913,61.155 C166.891,61.128 166.449,60.467 166.362,60.266 C166.286,60.094 166.228,59.965 166.174,59.822 C165.773,58.786 165.784,57.768 166.004,56.662 C166.212,55.626 166.406,55.582 166.936,54.161 C166.967,54.081 166.989,54.014 167,53.929 C167.021,53.735 166.703,52.426 166.688,52.004 C166.666,51.361 167.163,50.906 167.998,50.817 C168.075,50.81 168.133,50.812 168.186,50.799 C168.521,50.716 168.731,50.078 168.914,49.564 C169.166,48.847 169.564,47.751 169.564,47.751 C169.564,47.751 168.508,47.508 167.945,47.296 C167.315,47.057 166.84,46.749 166.552,46.174 C166.214,45.496 166.438,45.119 167.141,44.899 C167.402,44.817 169.452,44.424 170.097,44.332 C170.904,44.216 171.661,44.112 172.429,44.018 C173.1,43.935 176.158,43.584 177.135,43.609 C178.62,43.651 179.583,44.261 180.453,45.518 C180.92,46.192 181.239,46.992 180.534,47.423 C179.449,48.083 175.945,48.128 175.3,48.135 C174.277,48.148 172.86,48.13 172.86,48.13 L172.147,50.513 C172.147,50.513 174.661,50.491 176.072,50.484 C176.414,50.484 176.758,50.499 176.95,50.542 C177.673,50.705 177.921,51.256 177.952,52.054 C177.99,52.989 177.814,53.422 177.07,53.543 C176.686,53.606 172.368,53.628 171.781,53.697 C171.417,53.741 171.031,53.798 171.031,53.798 C171.031,53.798 170.72,54.61 170.452,55.432 C170.173,56.289 169.941,57.16 169.941,57.16 C169.941,57.16 170.16,57.171 170.341,57.171 C170.645,57.171 170.952,57.131 171.194,57.087 C172.513,56.848 174.469,56.557 176.075,56.301 C176.939,56.167 177.374,56.102 177.827,56.678 C178.222,57.183 178.428,57.609 178.453,58.218 C178.477,58.794 178.04,59.178 177.501,59.587 C175.804,60.885 172.9,62.296 170.738,62.535 C169.738,62.648 169.495,62.539 168.623,62.307 C168.456,62.264 167.849,61.983 167.855,61.952 C167.855,61.952 167.527,61.731 167.416,61.646 Z M150.573,61.934 C149.348,61.489 149.075,59.514 149.019,58.518 C148.827,55.269 149.685,50.749 150.772,47.706 C151.083,46.833 151.536,45.42 152.503,45.5 C153.172,45.558 153.648,46.074 154.021,46.601 C154.981,47.95 156.238,49.785 157.073,51.055 C158.009,52.485 158.902,53.922 159.784,55.226 C159.889,55.381 159.994,55.534 160.114,55.631 C160.27,55.762 160.418,55.767 160.479,55.649 C160.51,55.599 160.454,53.961 160.411,53.628 C160.346,53.11 160.311,52.683 160.255,52.23 C160.088,50.917 159.672,49.07 159.346,47.82 C158.984,46.422 158.538,44.966 158.21,43.613 C158.107,43.174 158.009,42.729 158.013,42.312 C158.013,41.705 158.4,41.372 159.034,41.599 C160.273,42.037 161.921,44.732 162.403,45.67 C162.562,45.985 163.211,47.593 163.359,48.046 C163.87,49.589 164.183,51.055 164.326,52.737 C164.464,54.374 164.35,56.762 163.656,58.373 C163.403,58.971 162.881,59.766 162.446,60.168 C161.767,60.797 160.411,61.293 159.476,60.76 C158.455,60.179 156.776,57.272 156.49,56.772 C155.513,55.07 153.84,51.743 153.579,51.371 C153.517,51.285 153.447,51.208 153.318,51.169 C153.221,51.14 153.179,51.343 153.153,51.48 C152.989,52.447 152.871,56.982 152.869,57.106 C152.844,57.866 152.804,59.743 152.583,60.659 C152.438,61.262 152.297,61.757 151.741,62.01 C151.348,62.186 151.051,62.111 150.573,61.934 Z M141.131,50.616 C141.216,50.625 141.234,50.629 141.316,50.642 C142.696,50.828 144.049,51.078 145.085,51.542 C146.048,51.966 146.61,52.502 147.124,53.458 C147.907,54.91 147.957,56.946 147.253,58.482 C146.726,59.629 145.567,60.588 144.505,61.101 C143.408,61.633 142.325,61.885 141.084,62.025 C138.912,62.264 136.565,61.818 134.613,60.871 C133.457,60.304 132.045,59.333 131.333,58.084 C130.81,57.162 130.826,55.968 131.463,55.099 C132.479,53.708 134.653,53.404 136.29,53.462 C137.542,53.505 139.789,53.894 140.975,54.316 C141.305,54.432 142.517,54.907 142.729,55.122 C142.877,55.273 142.975,55.492 142.908,55.696 C142.636,56.526 140.622,56.964 140.043,57.049 C138.483,57.287 137.675,56.698 135.906,56.001 C135.468,55.827 134.881,55.637 134.432,55.595 C133.629,55.519 132.66,55.744 132.507,56.62 C132.429,57.073 132.961,57.493 133.365,57.673 C134.314,58.084 135.086,58.225 136.022,58.241 C138.782,58.283 141.883,57.832 144.14,56.231 C144.451,56.012 144.752,55.686 144.755,55.284 C144.755,55.226 144.683,54.791 144.542,54.744 C144.522,54.737 144.502,54.747 144.48,54.74 C144.429,54.729 144.346,54.584 144.27,54.494 C144.109,54.295 143.453,54.01 143.328,53.958 C141.807,53.322 138.994,53.016 137.545,52.895 C136.026,52.764 133.637,52.563 133.063,52.484 C132.472,52.397 131.831,52.277 131.317,52.049 C130.804,51.817 130.302,51.297 130.152,50.723 C129.888,49.687 130.226,48.414 130.802,47.586 C132.309,45.417 135.841,44.591 138.483,44.265 C141.039,43.95 145.172,43.953 147.678,45.286 C148.066,45.489 148.265,45.685 148.182,46.098 C148.022,46.876 147.436,47.38 146.728,47.601 C145.985,47.833 144.447,47.927 143.772,47.967 C140.745,48.139 137.087,48.05 134.207,48.836 C133.983,48.901 133.591,49.006 133.465,49.146 C133.014,49.637 134.301,49.776 134.578,49.836 C134.66,49.852 134.678,49.856 134.762,49.865 L141.131,50.616 Z M121.694,49.767 C121.794,50.672 121.56,52.377 121.52,52.603 C121.446,53.117 121.055,54.316 120.991,54.461 C120.675,55.189 120.365,55.785 120.035,56.377 C119.468,57.395 118.126,59.007 117.328,59.696 C114.361,62.264 109.771,63.724 105.83,64.202 C103.157,64.524 100.084,64.477 97.251,63.952 C96.277,63.774 94.828,63.441 94.828,63.441 C94.828,63.441 94.831,64.022 94.784,64.43 C94.763,64.614 94.621,65.107 94.543,65.265 C94.337,65.69 93.998,65.91 93.509,66.005 C92.915,66.116 92.285,66.15 91.736,65.919 C90.836,65.538 90.514,64.694 90.356,63.727 C90.228,62.946 90.097,61.595 90.097,61.595 C90.097,61.595 89.423,61.275 88.862,60.999 C87.136,60.145 85.497,59.119 84.064,58.058 C83.668,57.765 81.961,56.334 81.585,55.975 C80.529,54.979 79.578,53.976 78.857,52.697 C78.294,51.698 78.133,50.81 78.56,49.752 C79.15,48.278 81.266,47.166 82.715,46.53 C83.78,46.061 87.083,44.982 88.458,44.783 C89.106,44.688 90.112,44.509 90.175,44.468 C90.198,44.449 90.218,44.431 90.235,44.409 C90.267,44.368 90.322,42.904 90.311,42.37 C90.298,41.845 90.698,38.393 90.829,37.661 C90.898,37.27 91.195,35.749 91.503,35.347 C91.7,35.079 92.053,35.1 92.343,35.278 C93.917,36.256 94.397,39.655 94.513,41.385 C94.581,42.435 94.618,44.022 94.618,44.022 C94.618,44.022 96.425,43.968 97.537,43.996 C98.617,44.026 99.808,44.196 100.929,44.375 C102.364,44.605 105.164,45.214 106.767,46.029 C108.089,46.699 109.326,47.825 109.726,49.021 C110.097,50.118 110.043,50.875 109.474,51.864 C108.839,52.976 107.631,53.808 106.41,53.876 C106.044,53.896 104.675,53.717 104.255,53.389 C104.088,53.259 104.097,53.027 104.217,52.868 C104.262,52.806 104.901,52.471 105.28,52.27 C105.468,52.168 105.628,52.056 105.772,51.922 C106.088,51.643 106.37,51.341 106.339,50.984 C106.294,50.52 105.805,50.236 105.338,50.049 C103.146,49.182 98.772,48.455 96.657,48.332 C95.829,48.284 94.654,48.246 94.654,48.246 L94.9,59.916 C94.9,59.916 95.875,60.103 96.642,60.228 C97.081,60.295 98.946,60.46 99.442,60.474 C103.215,60.574 107.426,60.239 110.887,58.601 C112.408,57.886 113.803,56.997 114.857,55.791 C116.25,54.197 116.978,52.013 116.786,49.731 C116.574,47.24 114.821,44.286 113.423,42.484 C109.724,37.726 103.385,33.814 97.807,31.521 C92.115,29.185 86.486,27.836 80.444,27.613 C78.886,27.552 75.488,27.635 73.771,28.106 C73.525,28.174 73.279,28.261 73.05,28.312 C72.871,28.352 72.587,28.472 72.511,28.537 C72.467,28.573 72.424,28.616 72.424,28.616 C72.424,28.616 72.529,28.674 72.631,28.721 C72.813,28.797 73.579,28.848 73.976,28.919 C74.329,28.986 74.699,29.172 74.844,29.435 C74.983,29.679 75.001,29.873 74.835,30.08 C74.445,30.554 72.982,30.475 72.337,30.37 C71.667,30.263 70.832,30.058 70.678,29.475 C70.501,28.789 70.826,28.115 71.18,27.493 C71.888,26.244 72.902,25.599 74.391,25.192 C76.499,24.614 79.165,24.208 81.159,24.132 C85.671,23.958 89.941,24.748 94.31,26.075 C96.813,26.832 100.087,28.1 102.485,29.254 C104.204,30.087 106.917,31.608 108.438,32.608 C108.92,32.925 111.731,34.992 112.166,35.352 C113.077,36.1 114.269,37.169 115.131,38.023 C116.799,39.677 118.874,42.213 119.885,44.221 C120.127,44.703 120.316,45.177 120.627,45.739 C120.734,45.929 121.196,47.072 121.272,47.402 C121.348,47.731 121.46,48.209 121.475,48.231 C121.497,48.407 121.71,49.39 121.694,49.767 Z M90.093,48.432 C90.093,48.432 88.369,48.555 87.185,48.686 C85.674,48.847 82.84,49.338 81.203,49.924 C80.712,50.1 79.716,50.517 79.629,51.02 C79.538,51.545 79.86,51.955 80.223,52.377 C80.433,52.621 81.614,53.759 81.945,54.037 C83.334,55.197 86.152,56.986 88.228,57.852 C88.94,58.149 90.119,58.573 90.119,58.573 C90.119,58.573 90.032,55.211 90.046,51.904 C90.057,50.162 90.093,48.432 90.093,48.432 Z M125.972,44.308 C126.041,44.321 126.148,44.352 126.238,44.386 C127.035,44.688 127.361,45.427 127.557,46.233 C128.013,48.11 128.205,52.263 128.281,53.889 C128.336,55.106 128.366,56.312 128.419,57.515 C128.461,58.536 128.542,59.897 128.33,60.851 C128.252,61.197 128.022,61.595 127.693,61.804 C127.314,62.043 126.455,62.061 125.983,61.963 C124.818,61.72 124.44,60.974 124.275,59.824 C123.88,57.073 124.068,51.679 124.302,49.405 C124.38,48.655 124.662,46.25 125.056,45.239 C125.19,44.897 125.474,44.214 125.972,44.308 Z M16.614,56.932 C16.614,56.932 16.804,57.269 16.954,57.519 C17.793,58.915 19.133,59.714 20.749,59.797 C22.406,59.877 24.534,58.918 25.745,58.076 C29.214,55.664 31.036,51.317 32.032,47.153 C33.202,42.267 33.256,37.118 31.858,32.389 C31.05,29.645 29.473,26.211 27.519,24.157 C26.937,23.545 26.048,22.712 25.795,22.375 C25.528,22.024 25.465,21.729 25.867,21.495 C26.294,21.247 27.225,21.752 27.692,22.036 C29.971,23.42 31.461,24.799 32.811,26.784 C33.151,27.287 34.521,29.538 34.77,30.011 C36.303,32.9 37.091,35.421 37.511,38.61 C38.041,42.675 37.701,47.287 36.295,51.361 C35.68,53.148 34.732,54.988 33.743,56.539 C33.51,56.905 32.072,58.837 31.893,59.027 C31.398,59.549 30.177,60.612 29.605,61.07 C26.747,63.363 23.657,64.864 20.269,64.451 C18.405,64.223 16.876,63.604 15.382,62.39 C14.808,61.923 13.841,60.938 13.453,60.242 C13.205,59.797 12.892,59.25 12.85,59.243 C12.805,59.232 12.642,59.348 12.459,59.473 C12.301,59.58 11.631,59.891 11.276,60.025 C8.951,60.895 6.346,60.692 4.213,59.304 C2.663,58.299 1.351,56.392 0.774,54.666 C-0.083,52.107 -0.152,49.448 0.198,46.722 C0.79,42.098 2.456,37.712 4.941,33.836 C6.506,31.391 8.54,28.975 10.965,27.243 C11.237,27.048 12.718,26.186 13.019,26.045 C13.566,25.791 14.294,25.552 14.714,26.001 C14.933,26.235 14.924,26.423 14.765,26.731 C14.506,27.207 13.848,27.854 13.486,28.243 C13.171,28.58 11.383,30.775 11.014,31.284 C10.61,31.833 8.791,34.553 8.552,34.972 C6.261,38.942 4.441,45.233 4.615,50.111 C4.651,51.116 4.801,52.57 5.028,53.516 C5.336,54.791 6.093,56.519 7.232,57.323 C8.433,58.172 9.545,58.127 10.979,57.555 C11.363,57.399 11.903,57.153 11.903,57.153 C11.903,57.153 11.486,56.082 11.213,55.278 C10.459,53.038 10.157,49.47 10.436,47.014 C10.664,44.996 11.113,43.457 12.023,41.852 C12.751,40.573 13.725,39.317 14.948,38.273 C16.123,37.27 18.003,36.393 19.658,36.354 C21.033,36.317 22.455,36.915 23.179,38.165 C24.433,40.34 24.512,43.768 24.157,46.03 C23.626,49.448 21.859,52.657 19.303,54.833 C18.389,55.613 16.614,56.932 16.614,56.932 Z M20.051,42.037 C20.051,42.037 20.01,41.023 19.926,40.456 C19.854,39.979 19.758,39.617 19.53,39.248 C19.282,38.848 19.09,38.594 18.695,38.534 C18.208,38.462 17.941,38.793 17.639,39.271 C17.237,39.914 16.837,41.11 16.599,41.869 C16.257,42.944 16.112,43.607 15.927,44.833 C15.627,46.836 15.319,50.252 15.648,52.574 C15.706,52.976 15.808,53.563 15.808,53.563 C15.808,53.563 16.292,53.02 16.645,52.637 C16.795,52.471 17.514,51.399 17.577,51.285 C17.702,51.067 18.034,50.5 18.079,50.383 C18.152,50.261 18.668,49.149 18.76,48.888 C18.934,48.394 19.186,47.626 19.381,47.014 C19.836,45.601 19.756,45.08 20.051,43.518 C20.086,43.334 20.113,42.039 20.082,42.037 C20.068,42.037 20.051,42.037 20.051,42.037 Z M38.029,52.404 C38.029,52.404 38.462,51.433 38.798,50.701 C39.15,49.928 40.935,46.34 41.673,45.322 C42.489,44.19 44.051,42.053 44.062,41.99 C44.094,41.751 44.147,41.33 44.366,40.997 C44.536,40.733 44.958,40.621 45.366,40.593 C45.82,40.565 46.289,40.903 46.492,41.274 C46.887,41.986 47.557,44.004 47.698,44.486 C48.484,47.17 49.328,52.19 49.604,54.773 C49.678,55.447 49.901,58.978 49.919,59.768 C49.935,60.326 49.919,61.251 49.6,61.709 C49.481,61.882 49.254,62.028 49.035,62.021 C48.738,62.014 48.144,61.601 47.881,61.354 C47.159,60.675 46.681,59.984 46.525,59.138 C46.391,58.397 46.206,56.283 46.206,56.283 L43.058,56.407 L41.305,56.439 C41.305,56.439 41.138,56.845 41.004,57.189 C40.711,57.917 40.447,58.649 40.334,59.058 C40.104,59.88 39.66,61.516 39.557,61.771 C39.336,62.309 39.141,62.619 38.621,62.689 C38.043,62.767 37.646,62.805 37.23,62.579 C36.444,62.148 36.085,61.237 35.951,60.299 C35.718,58.696 36.364,57.406 37.031,55.508 C37.31,54.708 36.926,54.44 36.263,53.404 C36.176,53.269 36.089,53.128 36.071,53.027 C36.049,52.916 36.151,52.643 36.295,52.525 C36.341,52.489 36.353,52.485 36.437,52.48 L38.029,52.404 Z M42.859,52.252 C42.859,52.252 43.134,52.259 43.417,52.252 C44.319,52.241 45.829,52.074 45.829,52.074 C45.829,52.074 45.659,50.745 45.521,49.894 C45.431,49.332 45.355,48.981 45.231,48.532 C45.177,48.329 45.041,47.76 44.896,47.539 C44.869,47.496 44.833,47.447 44.833,47.447 C44.833,47.447 44.105,48.858 43.696,49.834 C43.37,50.611 43.207,51.194 42.982,51.663 C42.928,51.774 42.866,51.922 42.859,52.054 C42.854,52.143 42.859,52.252 42.859,52.252 Z M60.717,53.907 C60.757,53.911 60.818,53.931 60.869,53.954 C61.514,54.235 61.514,55.381 61.358,55.925 C60.941,57.346 59.59,58.815 58.514,59.54 C57.875,59.974 56.558,60.583 55.618,60.762 C54.148,61.043 52.846,60.655 52.06,59.464 C51.35,58.386 51.033,57.055 50.975,55.805 C50.813,52.208 51.947,46.956 53.342,43.957 C53.53,43.555 54.452,41.68 55.312,41.376 C56.165,41.075 56.54,42.073 56.624,42.827 C56.734,43.785 56.424,45.062 56.182,46.094 C55.754,47.894 55.138,50.719 54.994,51.527 C54.838,52.382 54.483,54.211 54.61,55.149 C54.678,55.642 54.769,55.894 55.146,55.863 C55.32,55.845 57.732,54.74 59.05,54.244 C59.547,54.059 60.159,53.862 60.717,53.907 Z M73.958,43.029 C74.507,43.719 74.757,44.527 74.815,45.411 C74.876,46.304 74.594,47.162 74.094,47.845 C73.243,49.006 71.819,49.578 70.392,49.687 C70.196,49.702 69.03,49.734 68.731,49.644 C68.675,49.626 68.642,49.604 68.613,49.607 C68.579,49.611 68.383,50.417 68.347,50.701 C68.22,51.685 68.065,52.382 67.95,53.159 C67.856,53.775 67.787,54.436 67.733,55.095 C67.411,58.931 67.521,60.829 67.84,64.582 C67.86,64.81 67.873,65.075 67.84,65.234 C67.755,65.683 67.479,65.995 67.041,66.107 C65.716,66.458 64.451,65.147 63.799,64.096 C62.285,61.648 62.781,56.646 63.216,54.172 C63.397,53.15 63.861,50.879 64.183,50.057 C64.357,49.615 64.631,48.753 64.611,48.713 C64.593,48.673 63.899,48.407 63.263,48.166 C63.024,48.079 62.224,47.659 61.881,47.445 C61.173,47.005 60.691,46.641 60.202,46.094 C60.054,45.924 59.559,45.186 59.489,45.022 C59.094,44.127 59.07,43.345 59.42,42.39 C59.511,42.146 60.001,41.115 60.329,41.146 C60.798,41.189 60.695,41.972 60.82,42.374 C60.862,42.511 60.992,42.745 61.097,42.866 C61.749,43.636 63.937,44.489 64.832,44.757 C64.959,44.795 66.36,45.225 66.567,45.127 C66.621,45.105 66.887,44.63 67.058,44.341 C67.15,44.181 67.251,44.064 67.364,43.94 C68.217,43.022 69.475,42.157 70.729,41.899 C71.281,41.787 72.362,41.878 72.909,42.189 C73.033,42.261 73.442,42.421 73.958,43.029 Z M69.834,45.467 C70.776,45.413 71.359,45.366 72.096,45.047 C72.502,44.873 72.973,44.478 72.739,44.004 C72.602,43.714 72.102,43.614 71.812,43.634 C70.825,43.703 70.113,44.428 69.776,45.398 C69.765,45.433 69.769,45.471 69.834,45.467 Z M123.945,40.807 C123.793,40.968 123.63,41.363 123.464,41.642 C123.373,41.794 123.206,41.99 123.098,42.066 C122.71,42.35 122.384,42.365 122.011,42.037 C121.488,41.577 121.185,40.856 121.163,40.162 C121.154,39.856 121.203,39.525 121.149,39.268 C121.053,38.835 120.62,38.393 120.388,37.978 C120.113,37.487 119.892,36.643 119.865,36.093 C119.771,34.385 120.671,32.813 121.841,31.569 C123.02,30.319 124.561,29.272 126.238,28.564 C127.821,27.892 130.143,27.443 131.882,28.04 C132.449,28.238 133.236,28.721 133.635,29.221 C133.718,29.33 133.787,29.446 133.874,29.498 C133.95,29.547 134.153,29.567 134.314,29.596 C134.87,29.694 135.671,30.112 135.997,30.395 C136.649,30.958 137.011,31.5 137.174,32.282 C137.509,33.863 136.6,35.595 135.566,36.651 C133.791,38.462 132.039,39.737 129.77,40.628 C128.776,41.019 127.223,41.381 126.093,41.28 C125.742,41.249 125.38,41.157 125.039,41.131 C124.865,41.121 124.228,40.954 124.159,40.907 C124.074,40.845 123.967,40.784 123.945,40.807 Z M127.723,38.034 C129.208,37.933 130.599,37.504 131.891,36.785 C133.16,36.078 135.026,34.695 134.834,33.065 C134.772,32.536 134.43,32.141 133.994,31.952 C133.428,31.708 133.133,31.75 132.411,31.96 C131.885,32.117 131.648,32.21 131.154,32.496 C129.698,33.34 127.633,35.149 126.514,36.594 C126.253,36.933 125.992,37.317 125.787,37.578 C125.657,37.737 125.557,37.882 125.57,37.924 C125.615,38.089 127.144,38.07 127.723,38.034 Z M122.504,36.636 C122.504,36.636 122.996,35.897 123.409,35.338 C124.159,34.314 125.519,32.901 126.542,32.025 C126.856,31.759 127.225,31.455 127.225,31.455 C127.225,31.455 126.648,31.514 126.32,31.579 C125.543,31.732 124.405,32.49 123.835,32.981 C122.895,33.782 121.863,35.091 122.33,36.252 C122.399,36.415 122.504,36.636 122.504,36.636 Z" id="Fill-14"></path>
        </g>
    </g>
</svg>