<?xml version="1.0" encoding="UTF-8"?>
<svg width="1024px" height="1024px" viewBox="0 0 1024 1024" version="1.1" xmlns="http://www.w3.org/2000/svg" xmlns:xlink="http://www.w3.org/1999/xlink">
    <defs>
        <path d="M7.35072151e-14,600.51593 C0.535821462,607.054243 2.83391838,613.611367 8.85611906,622.414417 C15.9987103,632.854687 28.2883921,638.59191 37.2529623,629.387282 C43.3023661,623.1755 108.715748,509.039894 140.240322,465.790227 C144.025266,460.451453 151.844592,460.451453 155.631706,465.790227 C187.15628,509.039894 252.569662,623.1755 258.619065,629.387282 C267.581467,638.59191 279.873317,632.854687 287.015909,622.414417 C294.04788,612.135318 296,604.918459 296,597.218089 C296,591.973331 194.125349,402.730013 183.865872,386.977831 C173.999324,371.826934 170.985304,368.531495 154.300104,368 L141.571393,368 C124.884946,368.531495 121.872486,371.826934 112.003986,386.977831 C101.959746,402.402805 4.06275199,584.186163 0,596.656277 L7.35072151e-14,600.51593 Z M409,594 L409,400 L528,400 L528,434.643976 L445.26427,434.643976 L445.26427,478.153749 L520.47857,478.153749 L520.47857,511.412234 L445.26427,511.412234 L445.26427,559.358262 L528,559.358262 L528,594 L409,594 Z M557,595 L606.804955,519.004602 L559.977411,448 L596.519553,448 L628.728929,497.370352 L629.271071,497.370352 L661.482633,448 L698.022589,448 L651.195045,519.004602 L701,595 L663.375759,595 L629.271071,542.303197 L628.728929,542.303197 L594.624241,595 L557,595 Z M762,505.81643 L762,535.9071 C762,544.375118 764.79624,551.505376 770.386535,557.302334 C775.97683,563.101521 783.458957,566 792.837283,566 C803.115649,566 811.545876,562.133875 818.127962,554.403855 C824.710049,546.673834 828,535.539216 828,521 C828,506.460784 824.755925,495.326166 818.263405,487.596145 C811.770886,479.866125 803.294784,476 792.837283,476 C783.458957,476 775.97683,478.898479 770.386535,484.697666 C764.79624,490.494624 762,497.533469 762,505.81643 Z M728,657 L728,448.150888 L761.214595,448.150888 L761.214595,462.25676 L761.751082,462.25676 L763.090136,460.18355 C763.626622,459.352478 765.008941,457.924912 767.241419,455.896384 C769.473897,453.865621 771.92919,452.022519 774.607297,450.36261 C777.285405,448.702702 780.902365,447.228221 785.456014,445.936932 C790.009663,444.645644 794.87482,444 800.053649,444 C816.840496,444 831.526824,450.961339 844.11696,464.886252 C856.704932,478.80893 863,497.664419 863,521.454952 C863,545.428678 856.927747,564.331082 844.785405,578.162164 C832.643063,591.993245 817.911307,598.909903 800.590136,598.909903 C795.411307,598.909903 790.634843,598.264259 786.258581,596.972971 C781.884482,595.681683 778.358379,594.160286 775.680271,592.408781 C773,590.657276 770.678829,588.905771 768.714595,587.152032 C766.750361,585.400527 765.322613,583.87913 764.42919,582.587842 L763.358379,580.653143 L762.821892,580.653143 L762.821892,657 L728,657 Z M954.498906,566 C964.610795,566 972.555069,562.089283 978.333917,554.26562 C984.110576,546.444186 987,535.356389 987,521 C987,506.643611 984.06683,495.555814 978.198304,487.73438 C972.329778,479.910717 964.431437,476 954.498906,476 C944.568563,476 936.670222,479.866125 930.801696,487.596145 C924.93317,495.326166 922,506.460784 922,521 C922,535.539216 924.889424,546.673834 930.666083,554.403855 C936.444931,562.133875 944.389205,566 954.498906,566 Z M953.498917,599 C934.19264,599 918.284181,592.173204 905.769209,578.517378 C893.256403,564.863787 887,545.856504 887,521.5 C887,497.512331 893.436148,478.598933 906.306277,464.759807 C919.176406,450.920681 934.909452,444 953.498917,444 C972.090548,444 987.821428,450.920681 1000.69372,464.759807 C1013.56385,478.598933 1020,497.512331 1020,521.5 C1020,545.856504 1013.7436,564.863787 1001.23079,578.517378 C988.715819,592.173204 972.80736,599 953.498917,599 Z" id="path-1"></path>
    </defs>
    <g id="Page-1" stroke="none" stroke-width="1" fill="none" fill-rule="evenodd">
        <g id="1024x1024">
            <mask id="mask-2" fill="white">
                <use xlink:href="#path-1"></use>
            </mask>
            <use id="Clip-2" fill="#000020" xlink:href="#path-1"></use>
        </g>
    </g>
</svg>
