<?xml version="1.0" encoding="utf-8"?>
<!-- Generator: Adobe Illustrator 23.0.1, SVG Export Plug-In . SVG Version: 6.00 Build 0)  -->
<svg version="1.1" xmlns="http://www.w3.org/2000/svg" xmlns:xlink="http://www.w3.org/1999/xlink" x="0px" y="0px"
	 viewBox="0 0 1336 522" style="enable-background:new 0 0 1336 522;" xml:space="preserve">
<style type="text/css">
	.st0{fill-rule:evenodd;clip-rule:evenodd;fill:#1769BD;}
</style>
<g id="Layer_1">
	<g>
		<g>
			<path class="st0" d="M698,69c-16.3,17.07-14.09,95.16,2.79,106.98c5.08,3.55,16.27,5.25,23,3c26.2-8.76,34.38-128.69-16-115.99
				C704.9,63.73,700.36,66.54,698,69 M704.79,20c6.2-0.1,15.03-0.61,20,0c14.58,1.8,20.96,4.33,30,9
				c41.17,21.26,54.77,99.82,30,150.98c-16.67,34.45-68.87,59.49-113.98,32c-46.9-28.58-49.21-140.6-8.05-175.48
				C680.45,21.5,687,22.25,704.79,20"/>
			<path class="st0" d="M1220.73,176.98c25.33,2.33,54.99,0.33,81.99,1c-3.68,13.31-6.08,27.91-10,41c-32.4,0-78.59,0-110.99,0
				c-3.28-13.39-5.29-28.04-9-41c13.84-16.69,45.16-36.66,62.99-56.99c10.32-11.77,22.04-40.07,4-52.99
				c-17.31-12.41-48.21-3.65-62.99,6c3.69-13.97,6.4-28.93,10-42.99c53.61-22.91,122.24-5.36,114.98,61.99
				C1296.77,138.94,1247.28,152.68,1220.73,176.98"/>
			<path class="st0" d="M42.88,312.96c29.46-10.88,57.65-23.01,87.99-33c-15.19,32.44-28.6,66.73-42.99,99.98
				c-14.52,33.53-30.88,65.58-42,98.99c50.01-72.54,100.8-146.38,150.98-217.97c16.83-24,35.23-47.38,49-72.99
				c-27.84,11.82-56.59,22.73-85.99,32.99C182,164.45,207.97,106.44,227.85,51C166.73,138.86,103.56,224.66,42.88,312.96
				 M258,504.19H40c-9.9,0-18-8.1-18-18V43.42c0-9.9,8.1-18,18-18h218c9.9,0,18,8.1,18,18v442.77
				C276,496.09,267.9,504.19,258,504.19z"/>
			<path class="st0" d="M382.84,64.99c-4.38-2.65-18.64-6.08-25,0v57C394.01,135.07,404.65,78.21,382.84,64.99 M306.85,24
				c47.53,0.5,98.96-5.67,123.98,20c17.78,18.24,23.22,62.55,7,87.99c-13.73,21.54-40.35,29.54-78.99,28c-2.31,17.69-1,59-1,59
				h-50.99C306.84,158.63,306.85,84.34,306.85,24"/>
		</g>
		<path class="st0" d="M519.82,24v69.99h39V24h51.99v194.98h-51.99v-81.99h-39v81.99h-50.99V24H519.82z M519.82,24"/>
		<path class="st0" d="M863.78,24c17.76,28.57,53.99,85.99,53.99,85.99V24h50v194.98h-40l-55.99-87.99v87.99h-49.99V24H863.78z
			 M863.78,24"/>
		<g>
			<path class="st0" d="M1099.74,24c3.72,13.61,6.29,28.37,10,42h-63.99v33c16.67,2.33,37.66,0.33,55.99,1v39.99
				c-16.69,2.31-37.64,0.35-55.99,1v35c20.35,2.32,44.98,0.35,66.99,1c-2.16,15.18-6.05,28.61-10,42H994.76V24H1099.74z M1099.74,24
				"/>
			<path class="st0" d="M627.81,280.97c3.63,15.7,7.32,31.34,11,46.99c-6.24,0.69-13.75-5.85-24-7c-7.72-0.87-20.07-0.68-27,1
				c-44.54,10.78-52.36,97.15-19,124.98c17.43,14.55,53.67,14.37,76.99,1c-0.73,16.6-9.92,33.41-13,51
				c-42.25,17.84-93.86,8.52-117.99-17c-40.55-42.89-36.71-142.27,4-182.98C541.4,276.38,590.12,263.48,627.81,280.97"/>
			<path class="st0" d="M975.76,391.95c0.32,31.28,4.13,59.24,22,64.99c33.1,10.66,40.88-24.85,41.99-56.99
				c1.3-37.49-0.32-80.2-33-78.99C975.22,322.13,975.43,360.24,975.76,391.95 M993.76,273.97c67.33-7.75,103.1,34.2,107.98,93.99
				c4.69,57.38-13.76,113.08-52.99,131.98c-41.91,20.2-94.18,3.08-113.98-24c-26.86-36.72-29.58-112.22-9-154.98
				C938.14,295.25,960.87,277.76,993.76,273.97"/>
		</g>
		<path class="st0" d="M374.84,422.95h33l-17-77.99C390.83,344.96,380.31,397.1,374.84,422.95 M361.84,276.97h58.99
			c21.5,75.82,65.99,226.97,65.99,226.97h-62.99l-8-36.99h-47.99l-10,36.99h-60.99C296.85,503.94,339.3,351.09,361.84,276.97"/>
		<path class="st0" d="M663.8,276.97h144.98l-10,48.99h-38l-1,177.98h-58.99V325.96H652.8C652.8,325.96,658.83,292,663.8,276.97"/>
		<path class="st0" d="M825.78,276.97h59.99l-1,226.97h-59.99V279.97C824.78,279.97,824.61,277.14,825.78,276.97"/>
		<path class="st0" d="M1180.73,276.97c20.77,33.55,61.99,100.98,61.99,100.98V276.97h58.99v226.97h-48l-62.99-101.99l-1,101.99
			h-57.99l1-226.97H1180.73z M1180.73,276.97"/>
	</g>
</g>
<g id="Layer_2">
</g>
</svg>
