<?xml version="1.0" encoding="UTF-8"?>
<svg width="1327px" height="428px" viewBox="0 0 1327 428" version="1.1" xmlns="http://www.w3.org/2000/svg" xmlns:xlink="http://www.w3.org/1999/xlink">
    <!-- Generator: Sketch 51.2 (57519) - http://www.bohemiancoding.com/sketch -->
    <title>Circuit</title>
    <desc>Created with Sketch.</desc>
    <defs></defs>
    <g id="Circuit" stroke="none" stroke-width="1" fill="none" fill-rule="evenodd">
        <g transform="translate(3.000000, 3.000000)" stroke="#6D727C" stroke-width="3">
            <path d="M27,1.974 L27,144.5" id="Stroke-1" stroke-linecap="round"></path>
            <path d="M47,147.5 L47,244.5" id="Stroke-3" stroke-linecap="round"></path>
            <path d="M47,17.5 L47,95.5" id="Stroke-4" stroke-linecap="round"></path>
            <path d="M68,1.5 L68,71.5" id="Stroke-5" stroke-linecap="round"></path>
            <path d="M67,121.5 L67,176.5" id="Stroke-6" stroke-linecap="round"></path>
            <path d="M103.5,141 L180,141" id="Stroke-19" stroke-linecap="round"></path>
            <path d="M180,141 L193,155" id="Stroke-21" stroke-linecap="round"></path>
            <path d="M103.5,163 L173,163" id="Stroke-22" stroke-linecap="round"></path>
            <path d="M173,163 L186,177" id="Stroke-24" stroke-linecap="round"></path>
            <path d="M103.5,184 L166,184" id="Stroke-25" stroke-linecap="round"></path>
            <path d="M166,184 L179,198" id="Stroke-27" stroke-linecap="round"></path>
            <path d="M103.5,204 L156,204" id="Stroke-28" stroke-linecap="round"></path>
            <path d="M168,218 L156,204" id="Stroke-29" stroke-linecap="round"></path>
            <path d="M168,218 L180,218" id="Stroke-30" stroke-linecap="round"></path>
            <path d="M180,353.5 L180,218" id="Stroke-31" stroke-linecap="round"></path>
            <path d="M53.075,11.038 C53.075,14.372 50.372,17.075 47.038,17.075 C43.703,17.075 41,14.372 41,11.038 C41,7.703 43.703,5 47.038,5 C50.372,5 53.075,7.703 53.075,11.038 Z" id="Stroke-210"></path>
            <path d="M53.075,102.037 C53.075,105.372 50.372,108.074 47.038,108.074 C43.703,108.074 41,105.372 41,102.037 C41,98.703 43.703,96 47.038,96 C50.372,96 53.075,98.703 53.075,102.037 Z" id="Stroke-214"></path>
            <path d="M33.075,151.037 C33.075,154.371 30.372,157.074 27.038,157.074 C23.703,157.074 21,154.371 21,151.037 C21,147.703 23.703,145 27.038,145 C30.372,145 33.075,147.703 33.075,151.037 Z" id="Stroke-218"></path>
            <path d="M73.075,78.037 C73.075,81.371 70.372,84.074 67.038,84.074 C63.703,84.074 61,81.371 61,78.037 C61,74.702 63.703,72 67.038,72 C70.372,72 73.075,74.702 73.075,78.037 Z" id="Stroke-222"></path>
            <path d="M53.075,141.037 C53.075,144.371 50.372,147.074 47.038,147.074 C43.703,147.074 41,144.371 41,141.037 C41,137.703 43.703,135 47.038,135 C50.372,135 53.075,137.703 53.075,141.037 Z" id="Stroke-226"></path>
            <path d="M53.075,251.038 C53.075,254.372 50.372,257.075 47.038,257.075 C43.703,257.075 41,254.372 41,251.038 C41,247.703 43.703,245 47.038,245 C50.372,245 53.075,247.703 53.075,251.038 Z" id="Stroke-230"></path>
            <path d="M73.075,115.037 C73.075,118.371 70.372,121.074 67.038,121.074 C63.703,121.074 61,118.371 61,115.037 C61,111.703 63.703,109 67.038,109 C70.372,109 73.075,111.703 73.075,115.037 Z" id="Stroke-234"></path>
            <path d="M73.075,183.038 C73.075,186.372 70.372,189.075 67.038,189.075 C63.703,189.075 61,186.372 61,183.038 C61,179.703 63.703,177 67.038,177 C70.372,177 73.075,179.703 73.075,183.038 Z" id="Stroke-238"></path>
            <path d="M206.075,398.037 C206.075,401.371 203.372,404.074 200.038,404.074 C196.703,404.074 194,401.371 194,398.037 C194,394.702 196.703,392 200.038,392 C203.372,392 206.075,394.702 206.075,398.037 Z" id="Stroke-242"></path>
            <path d="M103.075,141.037 C103.075,144.371 100.372,147.074 97.038,147.074 C93.703,147.074 91,144.371 91,141.037 C91,137.703 93.703,135 97.038,135 C100.372,135 103.075,137.703 103.075,141.037 Z" id="Stroke-246"></path>
            <path d="M103.075,163.037 C103.075,166.372 100.372,169.075 97.038,169.075 C93.703,169.075 91,166.372 91,163.037 C91,159.703 93.703,157 97.038,157 C100.372,157 103.075,159.703 103.075,163.037 Z" id="Stroke-250"></path>
            <path d="M103.075,183.038 C103.075,186.372 100.372,189.075 97.038,189.075 C93.703,189.075 91,186.372 91,183.038 C91,179.703 93.703,177 97.038,177 C100.372,177 103.075,179.703 103.075,183.038 Z" id="Stroke-254"></path>
            <path d="M103.075,204.037 C103.075,207.371 100.372,210.074 97.038,210.074 C93.703,210.074 91,207.371 91,204.037 C91,200.703 93.703,198 97.038,198 C100.372,198 103.075,200.703 103.075,204.037 Z" id="Stroke-258"></path>
            <path d="M185.075,360.038 C185.075,363.372 182.372,366.075 179.038,366.075 C175.703,366.075 173,363.372 173,360.038 C173,356.703 175.703,354 179.038,354 C182.372,354 185.075,356.703 185.075,360.038 Z" id="Stroke-286"></path>
            <polygon id="Stroke-324" points="96 121.077 128.078 121.077 128.078 89 96 89"></polygon>
            <polygon id="Stroke-326" points="105 112.327 119.327 112.327 119.327 98 105 98"></polygon>
            <polygon id="Stroke-327" points="89 118.296 95.519 118.296 95.519 109 89 109"></polygon>
            <polygon id="Stroke-328" points="129 102.297 135.519 102.297 135.519 93 129 93"></polygon>
            <polygon id="Stroke-329" points="89 102.297 95.519 102.297 95.519 93 89 93"></polygon>
            <polygon id="Stroke-330" points="129 118.296 135.519 118.296 135.519 109 129 109"></polygon>
            <polygon id="Stroke-331" points="162 121.078 194.078 121.078 194.078 89 162 89"></polygon>
            <polygon id="Stroke-332" points="171 112.327 185.327 112.327 185.327 98 171 98"></polygon>
            <polygon id="Stroke-333" points="155 118.296 161.519 118.296 161.519 109 155 109"></polygon>
            <polygon id="Stroke-335" points="155 102.297 161.519 102.297 161.519 93 155 93"></polygon>
            <polygon id="Stroke-337" points="96 69.077 128.078 69.077 128.078 37 96 37"></polygon>
            <polygon id="Stroke-338" points="105 60.327 119.327 60.327 119.327 46 105 46"></polygon>
            <polygon id="Stroke-339" points="89 66.296 95.519 66.296 95.519 57 89 57"></polygon>
            <polygon id="Stroke-340" points="129 50.297 135.519 50.297 135.519 41 129 41"></polygon>
            <polygon id="Stroke-341" points="89 50.297 95.519 50.297 95.519 41 89 41"></polygon>
            <polygon id="Stroke-342" points="129 66.296 135.519 66.296 135.519 57 129 57"></polygon>
            <polygon id="Stroke-343" points="162 69.077 194.078 69.077 194.078 37 162 37"></polygon>
            <polygon id="Stroke-344" points="170 60.327 184.327 60.327 184.327 46 170 46"></polygon>
            <polygon id="Stroke-345" points="155 66.296 161.519 66.296 161.519 57 155 57"></polygon>
            <polygon id="Stroke-347" points="155 50.297 161.519 50.297 161.519 41 155 41"></polygon>
            <polygon id="Stroke-349" points="96 17 128.078 17 128.078 0 96 0"></polygon>
            <polygon id="Stroke-350" points="104 8 118.327 8 118.327 1 104 1"></polygon>
            <polygon id="Stroke-351" points="89 14.297 95.519 14.297 95.519 5 89 5"></polygon>
            <polygon id="Stroke-354" points="128 14.297 134.519 14.297 134.519 5 128 5"></polygon>
            <polygon id="Stroke-355" points="162 17 194.078 17 194.078 0 162 0"></polygon>
            <polygon id="Stroke-356" points="170 8 184.327 8 184.327 1 170 1"></polygon>
            <polygon id="Stroke-357" points="155 14.297 161.519 14.297 161.519 5 155 5"></polygon>
            <path d="M221,1.6683 L221,75.5" id="Stroke-11" stroke-linecap="round"></path>
            <path d="M242,1.6683 L242,135.5" id="Stroke-13" stroke-linecap="round"></path>
            <path d="M263,1.6683 L263,134.5" id="Stroke-15" stroke-linecap="round"></path>
            <path d="M221,128.5 L221,206.5" id="Stroke-18" stroke-linecap="round"></path>
            <path d="M193,155 L221,155" id="Stroke-20" stroke-linecap="round"></path>
            <path d="M186,177 L221,177" id="Stroke-23" stroke-linecap="round"></path>
            <path d="M179,198 L221,198" id="Stroke-26" stroke-linecap="round"></path>
            <path d="M200,234.5 L200,391.5" id="Stroke-32" stroke-linecap="round"></path>
            <path d="M221,261.5 L221,335.5" id="Stroke-34" stroke-linecap="round"></path>
            <path d="M242,189.5 L242,268.5" id="Stroke-35" stroke-linecap="round"></path>
            <path d="M263,189.5 L263,268.5" id="Stroke-36" stroke-linecap="round"></path>
            <path d="M283.5,189.5 L283.5,269.5" id="Stroke-37" stroke-linecap="round"></path>
            <path d="M263,42 L334.5,42" id="Stroke-38" stroke-linecap="round"></path>
            <path d="M263,64 L335.5,64" id="Stroke-39" stroke-linecap="round"></path>
            <path d="M388.5,42 L488.5,42" id="Stroke-40" stroke-linecap="round"></path>
            <path d="M387.5,64 L489.5,64" id="Stroke-41" stroke-linecap="round"></path>
            <path d="M283,134.5 L283,86" id="Stroke-42" stroke-linecap="round"></path>
            <path d="M505,86 L283,86" id="Stroke-43" stroke-linecap="round"></path>
            <path d="M505,203.5 L505,86" id="Stroke-44" stroke-linecap="round"></path>
            <path d="M304.667,147.5 L304.667,222.5" id="Stroke-45" stroke-linecap="round"></path>
            <path d="M319.5,104 L464,104" id="Stroke-46" stroke-linecap="round"></path>
            <path d="M464,364.5 L464,102" id="Stroke-47" stroke-linecap="round"></path>
            <path d="M326.667,189.5 L326.667,378.5" id="Stroke-48" stroke-linecap="round"></path>
            <path d="M346,190.5 L346,377.5" id="Stroke-49" stroke-linecap="round"></path>
            <path d="M305,155 L333,155" id="Stroke-50" stroke-linecap="round"></path>
            <path d="M358,126 L440,126.666" id="Stroke-51" stroke-linecap="round"></path>
            <path d="M333,155 L358,126" id="Stroke-52" stroke-linecap="round"></path>
            <path d="M379.5,330 L422,330" id="Stroke-53" stroke-linecap="round"></path>
            <path d="M441,126 L442,308" id="Stroke-54" stroke-linecap="round"></path>
            <path d="M423,329 L441.5,308.5" id="Stroke-55" stroke-linecap="round"></path>
            <path d="M378.5,351 L422,351" id="Stroke-56" stroke-linecap="round"></path>
            <path d="M444,373 L422,351" id="Stroke-57" stroke-linecap="round"></path>
            <path d="M444,395.5 L444,373" id="Stroke-58" stroke-linecap="round"></path>
            <path d="M505,86 L486,105" id="Stroke-59" stroke-linecap="round"></path>
            <path d="M486,104 L486,395.5" id="Stroke-60" stroke-linecap="round"></path>
            <path d="M505,253.5 L505,330.5" id="Stroke-61" stroke-linecap="round"></path>
            <path d="M546,154.5 L546,419.5" id="Stroke-62" stroke-linecap="round"></path>
            <path d="M567,1.6683 L567,405.5" id="Stroke-63" stroke-linecap="round"></path>
            <path d="M524,2.6683 L524,304.5" id="Stroke-65" stroke-linecap="round"></path>
            <path d="M587,1.6683 L587,56.5" id="Stroke-67" stroke-linecap="round"></path>
            <path d="M587,110.5 L587,372.5" id="Stroke-70" stroke-linecap="round"></path>
            <path d="M606,1.6683 L606,338.5" id="Stroke-71" stroke-linecap="round"></path>
            <path d="M630,1.1273 L630,308.5" id="Stroke-73" stroke-linecap="round"></path>
            <path d="M650,1.1273 L650,286.5" id="Stroke-75" stroke-linecap="round"></path>
            <path d="M524,42 L546,24" id="Stroke-78" stroke-linecap="round"></path>
            <path d="M546,1.974 L546,24" id="Stroke-79" stroke-linecap="round"></path>
            <path d="M546,54 L567,33" id="Stroke-81" stroke-linecap="round"></path>
            <path d="M546,97.5 L546,54" id="Stroke-82" stroke-linecap="round"></path>
            <path d="M672,1.974 L672,147.5" id="Stroke-83" stroke-linecap="round"></path>
            <path d="M672,202.5 L672,312.5" id="Stroke-85" stroke-linecap="round"></path>
            <path d="M690,1.974 L691.5,172.5" id="Stroke-86" stroke-linecap="round"></path>
            <path d="M726.5,17.5 L932,16" id="Stroke-88" stroke-linecap="round"></path>
            <path d="M716,133.5 L716,38" id="Stroke-89" stroke-linecap="round"></path>
            <path d="M931.667,16 L931.667,106.5" id="Stroke-90" stroke-linecap="round"></path>
            <path d="M821,38 L716,38" id="Stroke-91" stroke-linecap="round"></path>
            <path d="M847,63 L821,38" id="Stroke-92" stroke-linecap="round"></path>
            <path d="M847,130 L847.667,64" id="Stroke-93" stroke-linecap="round"></path>
            <path d="M862,141 L983,141" id="Stroke-94" stroke-linecap="round"></path>
            <path d="M847,130 L862,141" id="Stroke-95" stroke-linecap="round"></path>
            <path d="M867.007,17 L867.007,84.5" id="Stroke-96" stroke-linecap="round"></path>
            <path d="M889.002,17 L889.002,107.5" id="Stroke-97" stroke-linecap="round"></path>
            <path d="M909,17 L909,88.5" id="Stroke-98" stroke-linecap="round"></path>
            <path d="M983,1.974 L983,92" id="Stroke-99" stroke-linecap="round"></path>
            <path d="M998,109.667 L1160,109" id="Stroke-101" stroke-linecap="round"></path>
            <path d="M983,92 L998,109" id="Stroke-102" stroke-linecap="round"></path>
            <path d="M1160,109 L1187,80" id="Stroke-103" stroke-linecap="round"></path>
            <path d="M1251.5,80 L1187,80" id="Stroke-104" stroke-linecap="round"></path>
            <path d="M752.5,164.666 L855.5,164.666" id="Stroke-105" stroke-linecap="round"></path>
            <path d="M907.5,164 L983,164" id="Stroke-106" stroke-linecap="round"></path>
            <path d="M983,130 L983,185" id="Stroke-107" stroke-linecap="round"></path>
            <path d="M924.5,185 L983,185" id="Stroke-108" stroke-linecap="round"></path>
            <path d="M732,184 L872.5,184" id="Stroke-109" stroke-linecap="round"></path>
            <path d="M673,246 L699.5,216.5" id="Stroke-110" stroke-linecap="round"></path>
            <path d="M721.5,227.5 L694,259" id="Stroke-111" stroke-linecap="round"></path>
            <path d="M742.5,239.5 L716,268" id="Stroke-112" stroke-linecap="round"></path>
            <path d="M763.5,249.5 L736,280" id="Stroke-113" stroke-linecap="round"></path>
            <path d="M796,184 L796,335.5" id="Stroke-114" stroke-linecap="round"></path>
            <path d="M694.29,259 L694.29,352.5" id="Stroke-115" stroke-linecap="round"></path>
            <path d="M716,268 L716,386.5" id="Stroke-116" stroke-linecap="round"></path>
            <path d="M736,280 L736,421.5" id="Stroke-117" stroke-linecap="round"></path>
            <path d="M755,315.5 L755,384" id="Stroke-118" stroke-linecap="round"></path>
            <path d="M776,355 L776,383.5" id="Stroke-119" stroke-linecap="round"></path>
            <path d="M755,336 L776,355" id="Stroke-120" stroke-linecap="round"></path>
            <path d="M818,184 L818,399.5" id="Stroke-122" stroke-linecap="round"></path>
            <path d="M837,206 L837,386.5" id="Stroke-123" stroke-linecap="round"></path>
            <path d="M1008,206 L837,206" id="Stroke-124" stroke-linecap="round"></path>
            <path d="M1008,242.5 L1008,206" id="Stroke-125" stroke-linecap="round"></path>
            <path d="M858,350.5 L858,228" id="Stroke-126" stroke-linecap="round"></path>
            <path d="M878,301.5 L878,228" id="Stroke-127" stroke-linecap="round"></path>
            <path d="M900,228 L900,338.5" id="Stroke-128" stroke-linecap="round"></path>
            <path d="M922,228 L922,401.5" id="Stroke-129" stroke-linecap="round"></path>
            <path d="M942,228 L942,347.5" id="Stroke-130" stroke-linecap="round"></path>
            <path d="M964,228 L964,372.5" id="Stroke-131" stroke-linecap="round"></path>
            <path d="M987,250 L987,312.5" id="Stroke-132" stroke-linecap="round"></path>
            <path d="M858,228.583 L964,228" id="Stroke-133" stroke-linecap="round"></path>
            <path d="M987,250 L964,228" id="Stroke-134" stroke-linecap="round"></path>
            <path d="M1030,296.5 L1030,373.5" id="Stroke-137" stroke-linecap="round"></path>
            <path d="M1048.5,191.5 L1050.5,392.5" id="Stroke-138" stroke-linecap="round"></path>
            <path d="M1029,191.5 L1029,221" id="Stroke-139" stroke-linecap="round"></path>
            <path d="M1049,242 L1029,222" id="Stroke-140" stroke-linecap="round"></path>
            <path d="M1070,190.5 L1070,265.5" id="Stroke-141" stroke-linecap="round"></path>
            <path d="M1026.5,130 L983,130" id="Stroke-142" stroke-linecap="round"></path>
            <path d="M1025.5,152 L983,152" id="Stroke-143" stroke-linecap="round"></path>
            <path d="M1077.5,130 L1158,130" id="Stroke-144" stroke-linecap="round"></path>
            <path d="M1076.5,152 L1174,152" id="Stroke-145" stroke-linecap="round"></path>
            <path d="M1108.5,179 L1155,179" id="Stroke-146" stroke-linecap="round"></path>
            <path d="M1091,289.5 L1091,200" id="Stroke-147" stroke-linecap="round"></path>
            <path d="M1114,302.5 L1114,199.5" id="Stroke-148" stroke-linecap="round"></path>
            <path d="M1133.5,200.5 L1133.5,248.5" id="Stroke-149" stroke-linecap="round"></path>
            <path d="M1143,262 L1143,302.5" id="Stroke-150" stroke-linecap="round"></path>
            <path d="M1134,249 L1143,262" id="Stroke-151" stroke-linecap="round"></path>
            <path d="M1165,219 L1165,325.5" id="Stroke-152" stroke-linecap="round"></path>
            <path d="M1184,203 L1184,378.5" id="Stroke-153" stroke-linecap="round"></path>
            <path d="M1206,203 L1206,316.5" id="Stroke-154" stroke-linecap="round"></path>
            <path d="M1260,254 L1260,347.5" id="Stroke-155" stroke-linecap="round"></path>
            <path d="M1293,271 L1293,322.5" id="Stroke-156" stroke-linecap="round"></path>
            <path d="M1091,199.5 L1143,199" id="Stroke-157" stroke-linecap="round"></path>
            <path d="M1165,219 L1143,199" id="Stroke-158" stroke-linecap="round"></path>
            <path d="M1184,203 L1154,179" id="Stroke-159" stroke-linecap="round"></path>
            <path d="M1227,203 L1184,203" id="Stroke-160" stroke-linecap="round"></path>
            <path d="M1314,149.5 L1314,273.5" id="Stroke-161" stroke-linecap="round"></path>
            <path d="M1227,231 L1313,231" id="Stroke-162" stroke-linecap="round"></path>
            <path d="M1227,203 L1227,231" id="Stroke-163" stroke-linecap="round"></path>
            <path d="M1206,254 L1275,254" id="Stroke-164" stroke-linecap="round"></path>
            <path d="M1293,271 L1275,254" id="Stroke-165" stroke-linecap="round"></path>
            <path d="M1272,195.5 L1272,58" id="Stroke-174" stroke-linecap="round"></path>
            <path d="M1293,195.5 L1293,55" id="Stroke-175" stroke-linecap="round"></path>
            <path d="M1169,7 L1197,37" id="Stroke-176" stroke-linecap="round"></path>
            <path d="M1278,38 L1197,37" id="Stroke-177" stroke-linecap="round"></path>
            <path d="M1293,55 L1278,38" id="Stroke-178" stroke-linecap="round"></path>
            <path d="M1158,130 L1174,152" id="Stroke-179" stroke-linecap="round"></path>
            <path d="M1174,170 L1174,152" id="Stroke-180" stroke-linecap="round"></path>
            <path d="M1188,184 L1173.5,169.5" id="Stroke-181" stroke-linecap="round"></path>
            <path d="M1234,184 L1188,184" id="Stroke-182" stroke-linecap="round"></path>
            <path d="M1251,197 L1234,184" id="Stroke-183" stroke-linecap="round"></path>
            <path d="M1251.167,80 L1251.167,204.5" id="Stroke-184" stroke-linecap="round"></path>
            <path d="M1208.5,160 L1234,160" id="Stroke-185" stroke-linecap="round"></path>
            <path d="M1209.5,140 L1234,140" id="Stroke-186" stroke-linecap="round"></path>
            <path d="M1209.5,120 L1231,120" id="Stroke-187" stroke-linecap="round"></path>
            <path d="M1209.5,99 L1234,99" id="Stroke-188" stroke-linecap="round"></path>
            <path d="M1251,174 L1234,160" id="Stroke-189" stroke-linecap="round"></path>
            <path d="M1251,154 L1234,140" id="Stroke-190" stroke-linecap="round"></path>
            <path d="M1251,135 L1231,120" id="Stroke-191" stroke-linecap="round"></path>
            <path d="M1251,112 L1234,99" id="Stroke-192" stroke-linecap="round"></path>
            <path d="M1188,58.5 L1272,58" id="Stroke-193" stroke-linecap="round"></path>
            <path d="M1146,16 L1187,58" id="Stroke-194" stroke-linecap="round"></path>
            <path d="M1145.5,0.6683 L1145.5,15.248" id="Stroke-195" stroke-linecap="round"></path>
            <path d="M1169,6.248 L1169,0.6683" id="Stroke-197" stroke-linecap="round"></path>
            <path d="M1208,17 L1288,17.5" id="Stroke-200" stroke-linecap="round"></path>
            <path d="M1306.5,33.5 L1289,18" id="Stroke-201" stroke-linecap="round"></path>
            <path d="M1208,17 L1190,1.974" id="Stroke-202" stroke-linecap="round"></path>
            <path d="M1119.507,37.5 L1119.507,109" id="Stroke-203" stroke-linecap="round"></path>
            <path d="M1141.002,52.5 L1141.002,109" id="Stroke-204" stroke-linecap="round"></path>
            <path d="M1160,76.5 L1160,109" id="Stroke-205" stroke-linecap="round"></path>
            <path d="M227.075,81.038 C227.075,84.372 224.372,87.075 221.038,87.075 C217.703,87.075 215,84.372 215,81.038 C215,77.703 217.703,75 221.038,75 C224.372,75 227.075,77.703 227.075,81.038 Z" id="Stroke-262"></path>
            <path d="M227.075,122.037 C227.075,125.372 224.372,128.074 221.038,128.074 C217.703,128.074 215,125.372 215,122.037 C215,118.703 217.703,116 221.038,116 C224.372,116 227.075,118.703 227.075,122.037 Z" id="Stroke-266"></path>
            <path d="M227.075,213.037 C227.075,216.371 224.372,219.074 221.038,219.074 C217.703,219.074 215,216.371 215,213.037 C215,209.703 217.703,207 221.038,207 C224.372,207 227.075,209.703 227.075,213.037 Z" id="Stroke-270"></path>
            <path d="M206.075,229.037 C206.075,232.372 203.372,235.074 200.038,235.074 C196.703,235.074 194,232.372 194,229.037 C194,225.703 196.703,223 200.038,223 C203.372,223 206.075,225.703 206.075,229.037 Z" id="Stroke-274"></path>
            <path d="M227.075,255.037 C227.075,258.371 224.372,261.074 221.038,261.074 C217.703,261.074 215,258.371 215,255.037 C215,251.702 217.703,249 221.038,249 C224.372,249 227.075,251.702 227.075,255.037 Z" id="Stroke-278"></path>
            <path d="M227.075,342.037 C227.075,345.372 224.372,348.074 221.038,348.074 C217.703,348.074 215,345.372 215,342.037 C215,338.703 217.703,336 221.038,336 C224.372,336 227.075,338.703 227.075,342.037 Z" id="Stroke-282"></path>
            <path d="M248.075,276.037 C248.075,279.371 245.372,282.074 242.038,282.074 C238.703,282.074 236,279.371 236,276.037 C236,272.703 238.703,270 242.038,270 C245.372,270 248.075,272.703 248.075,276.037 Z" id="Stroke-290"></path>
            <path d="M269.075,276.038 C269.075,279.372 266.372,282.075 263.038,282.075 C259.703,282.075 257,279.372 257,276.038 C257,272.703 259.703,270 263.038,270 C266.372,270 269.075,272.703 269.075,276.038 Z" id="Stroke-294"></path>
            <path d="M290.075,276.037 C290.075,279.371 287.372,282.074 284.038,282.074 C280.703,282.074 278,279.371 278,276.037 C278,272.703 280.703,270 284.038,270 C287.372,270 290.075,272.703 290.075,276.037 Z" id="Stroke-298"></path>
            <path d="M248.075,183.038 C248.075,186.372 245.372,189.075 242.038,189.075 C238.703,189.075 236,186.372 236,183.038 C236,179.703 238.703,177 242.038,177 C245.372,177 248.075,179.703 248.075,183.038 Z" id="Stroke-302"></path>
            <path d="M268.075,183.038 C268.075,186.372 265.372,189.075 262.038,189.075 C258.703,189.075 256,186.372 256,183.038 C256,179.703 258.703,177 262.038,177 C265.372,177 268.075,179.703 268.075,183.038 Z" id="Stroke-306"></path>
            <path d="M290.075,183.038 C290.075,186.372 287.372,189.075 284.038,189.075 C280.703,189.075 278,186.372 278,183.038 C278,179.703 280.703,177 284.038,177 C287.372,177 290.075,179.703 290.075,183.038 Z" id="Stroke-310"></path>
            <path d="M247.075,141.037 C247.075,144.372 244.372,147.074 241.038,147.074 C237.703,147.074 235,144.372 235,141.037 C235,137.703 237.703,135 241.038,135 C244.372,135 247.075,137.703 247.075,141.037 Z" id="Stroke-314"></path>
            <path d="M268.075,141.037 C268.075,144.371 265.372,147.074 262.038,147.074 C258.703,147.074 256,144.371 256,141.037 C256,137.703 258.703,135 262.038,135 C265.372,135 268.075,137.703 268.075,141.037 Z" id="Stroke-318"></path>
            <path d="M289.075,141.037 C289.075,144.372 286.372,147.074 283.038,147.074 C279.703,147.074 277,144.372 277,141.037 C277,137.703 279.703,135 283.038,135 C286.372,135 289.075,137.703 289.075,141.037 Z" id="Stroke-322"></path>
            <polygon id="Stroke-334" points="194 102.297 200.519 102.297 200.519 93 194 93"></polygon>
            <polygon id="Stroke-336" points="195 118.296 201.519 118.296 201.519 109 195 109"></polygon>
            <polygon id="Stroke-346" points="194 50.297 200.519 50.297 200.519 41 194 41"></polygon>
            <polygon id="Stroke-348" points="194 66.296 200.519 66.296 200.519 57 194 57"></polygon>
            <polygon id="Stroke-360" points="194 14.297 200.519 14.297 200.519 5 194 5"></polygon>
            <path d="M347.075,42.037 C347.075,45.372 344.372,48.074 341.038,48.074 C337.703,48.074 335,45.372 335,42.037 C335,38.703 337.703,36 341.038,36 C344.372,36 347.075,38.703 347.075,42.037 Z" id="Stroke-362"></path>
            <path d="M347.075,64.037 C347.075,67.371 344.372,70.074 341.038,70.074 C337.703,70.074 335,67.371 335,64.037 C335,60.703 337.703,58 341.038,58 C344.372,58 347.075,60.703 347.075,64.037 Z" id="Stroke-364"></path>
            <path d="M388.075,42.037 C388.075,45.372 385.372,48.074 382.038,48.074 C378.703,48.074 376,45.372 376,42.037 C376,38.703 378.703,36 382.038,36 C385.372,36 388.075,38.703 388.075,42.037 Z" id="Stroke-366"></path>
            <path d="M388.075,64.037 C388.075,67.371 385.372,70.074 382.038,70.074 C378.703,70.074 376,67.371 376,64.037 C376,60.703 378.703,58 382.038,58 C385.372,58 388.075,60.703 388.075,64.037 Z" id="Stroke-368"></path>
            <path d="M319.075,104.037 C319.075,107.372 316.372,110.074 313.038,110.074 C309.703,110.074 307,107.372 307,104.037 C307,100.703 309.703,98 313.038,98 C316.372,98 319.075,100.703 319.075,104.037 Z" id="Stroke-370"></path>
            <path d="M311.075,141.037 C311.075,144.371 308.372,147.074 305.038,147.074 C301.703,147.074 299,144.371 299,141.037 C299,137.703 301.703,135 305.038,135 C308.372,135 311.075,137.703 311.075,141.037 Z" id="Stroke-372"></path>
            <path d="M311.075,229.037 C311.075,232.372 308.372,235.074 305.038,235.074 C301.703,235.074 299,232.372 299,229.037 C299,225.703 301.703,223 305.038,223 C308.372,223 311.075,225.703 311.075,229.037 Z" id="Stroke-374"></path>
            <path d="M332.075,183.038 C332.075,186.372 329.372,189.075 326.038,189.075 C322.703,189.075 320,186.372 320,183.038 C320,179.703 322.703,177 326.038,177 C329.372,177 332.075,179.703 332.075,183.038 Z" id="Stroke-376"></path>
            <path d="M352.075,184.037 C352.075,187.371 349.372,190.074 346.038,190.074 C342.703,190.074 340,187.371 340,184.037 C340,180.702 342.703,178 346.038,178 C349.372,178 352.075,180.702 352.075,184.037 Z" id="Stroke-378"></path>
            <path d="M332.075,384.037 C332.075,387.371 329.372,390.074 326.038,390.074 C322.703,390.074 320,387.371 320,384.037 C320,380.703 322.703,378 326.038,378 C329.372,378 332.075,380.703 332.075,384.037 Z" id="Stroke-380"></path>
            <path d="M352.075,384.037 C352.075,387.372 349.372,390.074 346.038,390.074 C342.703,390.074 340,387.372 340,384.037 C340,380.703 342.703,378 346.038,378 C349.372,378 352.075,380.703 352.075,384.037 Z" id="Stroke-382"></path>
            <path d="M379.075,349.038 C379.075,352.372 376.372,355.075 373.038,355.075 C369.703,355.075 367,352.372 367,349.038 C367,345.703 369.703,343 373.038,343 C376.372,343 379.075,345.703 379.075,349.038 Z" id="Stroke-384"></path>
            <path d="M379.075,329.038 C379.075,332.372 376.372,335.075 373.038,335.075 C369.703,335.075 367,332.372 367,329.038 C367,325.703 369.703,323 373.038,323 C376.372,323 379.075,325.703 379.075,329.038 Z" id="Stroke-386"></path>
            <path d="M511.075,337.038 C511.075,340.372 508.372,343.075 505.038,343.075 C501.703,343.075 499,340.372 499,337.038 C499,333.703 501.703,331 505.038,331 C508.372,331 511.075,333.703 511.075,337.038 Z" id="Stroke-388"></path>
            <path d="M470.075,371.038 C470.075,374.372 467.372,377.075 464.038,377.075 C460.703,377.075 458,374.372 458,371.038 C458,367.703 460.703,365 464.038,365 C467.372,365 470.075,367.703 470.075,371.038 Z" id="Stroke-390"></path>
            <path d="M492.075,402.038 C492.075,405.372 489.372,408.075 486.038,408.075 C482.703,408.075 480,405.372 480,402.038 C480,398.703 482.703,396 486.038,396 C489.372,396 492.075,398.703 492.075,402.038 Z" id="Stroke-390"></path>
            <path d="M451.075,402.038 C451.075,405.372 448.372,408.075 445.038,408.075 C441.703,408.075 439,405.372 439,402.038 C439,398.703 441.703,396 445.038,396 C448.372,396 451.075,398.703 451.075,402.038 Z" id="Stroke-392"></path>
            <path d="M511.075,248.037 C511.075,251.372 508.372,254.074 505.038,254.074 C501.703,254.074 499,251.372 499,248.037 C499,244.703 501.703,242 505.038,242 C508.372,242 511.075,244.703 511.075,248.037 Z" id="Stroke-396"></path>
            <path d="M511.075,211.037 C511.075,214.371 508.372,217.074 505.038,217.074 C501.703,217.074 499,214.371 499,211.037 C499,207.703 501.703,205 505.038,205 C508.372,205 511.075,207.703 511.075,211.037 Z" id="Stroke-398"></path>
            <path d="M501.075,63.038 C501.075,66.372 498.372,69.075 495.038,69.075 C491.703,69.075 489,66.372 489,63.038 C489,59.703 491.703,57 495.038,57 C498.372,57 501.075,59.703 501.075,63.038 Z" id="Stroke-400"></path>
            <path d="M501.075,42.037 C501.075,45.372 498.372,48.074 495.038,48.074 C491.703,48.074 489,45.372 489,42.037 C489,38.703 491.703,36 495.038,36 C498.372,36 501.075,38.703 501.075,42.037 Z" id="Stroke-402"></path>
            <polygon id="Stroke-403" points="372 162.713 413.75 162.713 413.75 147 372 147"></polygon>
            <polygon id="Stroke-404" points="365 159.5 372.25 159.5 372.25 150 365 150"></polygon>
            <polygon id="Stroke-405" points="414 159.5 421.25 159.5 421.25 150 414 150"></polygon>
            <polygon id="Stroke-406" points="372 198.713 413.75 198.713 413.75 183 372 183"></polygon>
            <polygon id="Stroke-407" points="365 195.5 372.25 195.5 372.25 186 365 186"></polygon>
            <polygon id="Stroke-408" points="414 195.5 421.25 195.5 421.25 186 414 186"></polygon>
            <polygon id="Stroke-409" points="372 235.713 413.75 235.713 413.75 220 372 220"></polygon>
            <polygon id="Stroke-410" points="365 232.5 372.25 232.5 372.25 223 365 223"></polygon>
            <polygon id="Stroke-411" points="414 232.5 421.25 232.5 421.25 223 414 223"></polygon>
            <polygon id="Stroke-412" points="372 271.713 413.75 271.713 413.75 256 372 256"></polygon>
            <polygon id="Stroke-413" points="365 268.5 372.25 268.5 372.25 259 365 259"></polygon>
            <polygon id="Stroke-414" points="414 268.5 421.25 268.5 421.25 259 414 259"></polygon>
            <polygon id="Stroke-415" points="373 308.713 414.75 308.713 414.75 293 373 293"></polygon>
            <polygon id="Stroke-416" points="366 305.5 373.25 305.5 373.25 296 366 296"></polygon>
            <polygon id="Stroke-417" points="415 305.5 422.25 305.5 422.25 296 415 296"></polygon>
            <path d="M552.075,104.037 C552.075,107.372 549.372,110.074 546.038,110.074 C542.703,110.074 540,107.372 540,104.037 C540,100.703 542.703,98 546.038,98 C549.372,98 552.075,100.703 552.075,104.037 Z" id="Stroke-419"></path>
            <path d="M552.075,148.037 C552.075,151.372 549.372,154.074 546.038,154.074 C542.703,154.074 540,151.372 540,148.037 C540,144.703 542.703,142 546.038,142 C549.372,142 552.075,144.703 552.075,148.037 Z" id="Stroke-421"></path>
            <path d="M593.075,63.038 C593.075,66.372 590.372,69.075 587.038,69.075 C583.703,69.075 581,66.372 581,63.038 C581,59.703 583.703,57 587.038,57 C590.372,57 593.075,59.703 593.075,63.038 Z" id="Stroke-423"></path>
            <path d="M593.075,104.037 C593.075,107.372 590.372,110.074 587.038,110.074 C583.703,110.074 581,107.372 581,104.037 C581,100.703 583.703,98 587.038,98 C590.372,98 593.075,100.703 593.075,104.037 Z" id="Stroke-425"></path>
            <path d="M677.074,154.037 C677.074,157.372 674.371,160.075 671.037,160.075 C667.702,160.075 665,157.372 665,154.037 C665,150.703 667.702,148 671.037,148 C674.371,148 677.074,150.703 677.074,154.037 Z" id="Stroke-427"></path>
            <path d="M678.075,196.037 C678.075,199.372 675.372,202.074 672.038,202.074 C668.703,202.074 666,199.372 666,196.037 C666,192.703 668.703,190 672.038,190 C675.372,190 678.075,192.703 678.075,196.037 Z" id="Stroke-429"></path>
            <path d="M697.074,179.038 C697.074,182.372 694.371,185.075 691.037,185.075 C687.702,185.075 685,182.372 685,179.038 C685,175.703 687.702,173 691.037,173 C694.371,173 697.074,175.703 697.074,179.038 Z" id="Stroke-431"></path>
            <path d="M722.074,140.037 C722.074,143.372 719.371,146.074 716.037,146.074 C712.702,146.074 710,143.372 710,140.037 C710,136.703 712.702,134 716.037,134 C719.371,134 722.074,136.703 722.074,140.037 Z" id="Stroke-433"></path>
            <path d="M752.074,163.037 C752.074,166.372 749.371,169.074 746.037,169.074 C742.702,169.074 740,166.372 740,163.037 C740,159.703 742.702,157 746.037,157 C749.371,157 752.074,159.703 752.074,163.037 Z" id="Stroke-435"></path>
            <path d="M731.296,183.583 L725.5,178.5" id="Stroke-436" stroke-linecap="round"></path>
            <path d="M727.075,174.038 C727.075,177.372 724.372,180.075 721.038,180.075 C717.703,180.075 715,177.372 715,174.038 C715,170.703 717.703,168 721.038,168 C724.372,168 727.075,170.703 727.075,174.038 Z" id="Stroke-438"></path>
            <path d="M709.075,211.037 C709.075,214.371 706.372,217.074 703.038,217.074 C699.703,217.074 697,214.371 697,211.037 C697,207.702 699.703,205 703.038,205 C706.372,205 709.075,207.702 709.075,211.037 Z" id="Stroke-440"></path>
            <path d="M731.075,223.037 C731.075,226.371 728.372,229.074 725.038,229.074 C721.703,229.074 719,226.371 719,223.037 C719,219.703 721.703,217 725.038,217 C728.372,217 731.075,219.703 731.075,223.037 Z" id="Stroke-442"></path>
            <path d="M752.074,235.037 C752.074,238.372 749.371,241.074 746.037,241.074 C742.702,241.074 740,238.372 740,235.037 C740,231.703 742.702,229 746.037,229 C749.371,229 752.074,231.703 752.074,235.037 Z" id="Stroke-444"></path>
            <path d="M774.075,245.037 C774.075,248.371 771.372,251.074 768.038,251.074 C764.703,251.074 762,248.371 762,245.037 C762,241.703 764.703,239 768.038,239 C771.372,239 774.075,241.703 774.075,245.037 Z" id="Stroke-446"></path>
            <path d="M761.074,309.037 C761.074,312.371 758.371,315.074 755.037,315.074 C751.702,315.074 749,312.371 749,309.037 C749,305.703 751.702,303 755.037,303 C758.371,303 761.074,305.703 761.074,309.037 Z" id="Stroke-448"></path>
            <path d="M802.074,344.037 C802.074,347.372 799.371,350.074 796.037,350.074 C792.702,350.074 790,347.372 790,344.037 C790,340.703 792.702,338 796.037,338 C799.371,338 802.074,340.703 802.074,344.037 Z" id="Stroke-452"></path>
            <path d="M825.074,407.037 C825.074,410.372 822.371,413.075 819.037,413.075 C815.702,413.075 813,410.372 813,407.037 C813,403.703 815.702,401 819.037,401 C822.371,401 825.074,403.703 825.074,407.037 Z" id="Stroke-454"></path>
            <path d="M843.074,393.037 C843.074,396.371 840.371,399.074 837.037,399.074 C833.702,399.074 831,396.371 831,393.037 C831,389.703 833.702,387 837.037,387 C840.371,387 843.074,389.703 843.074,393.037 Z" id="Stroke-456"></path>
            <path d="M864.074,358.037 C864.074,361.371 861.371,364.074 858.037,364.074 C854.702,364.074 852,361.371 852,358.037 C852,354.703 854.702,352 858.037,352 C861.371,352 864.074,354.703 864.074,358.037 Z" id="Stroke-458"></path>
            <path d="M885.074,310.037 C885.074,313.371 882.371,316.074 879.037,316.074 C875.702,316.074 873,313.371 873,310.037 C873,306.703 875.702,304 879.037,304 C882.371,304 885.074,306.703 885.074,310.037 Z" id="Stroke-460"></path>
            <path d="M928.074,410.037 C928.074,413.371 925.371,416.074 922.037,416.074 C918.702,416.074 916,413.371 916,410.037 C916,406.703 918.702,404 922.037,404 C925.371,404 928.074,406.703 928.074,410.037 Z" id="Stroke-462"></path>
            <path d="M947.075,353.037 C947.075,356.372 944.372,359.074 941.038,359.074 C937.703,359.074 935,356.372 935,353.037 C935,349.703 937.703,347 941.038,347 C944.372,347 947.075,349.703 947.075,353.037 Z" id="Stroke-468"></path>
            <path d="M906.074,345.037 C906.074,348.371 903.371,351.074 900.037,351.074 C896.702,351.074 894,348.371 894,345.037 C894,341.703 896.702,339 900.037,339 C903.371,339 906.074,341.703 906.074,345.037 Z" id="Stroke-470"></path>
            <path d="M970.074,379.037 C970.074,382.372 967.371,385.074 964.037,385.074 C960.702,385.074 958,382.372 958,379.037 C958,375.703 960.702,373 964.037,373 C967.371,373 970.074,375.703 970.074,379.037 Z" id="Stroke-472"></path>
            <path d="M994.075,320.037 C994.075,323.371 991.372,326.074 988.038,326.074 C984.703,326.074 982,323.371 982,320.037 C982,316.702 984.703,314 988.038,314 C991.372,314 994.075,316.702 994.075,320.037 Z" id="Stroke-474"></path>
            <path d="M1056.074,398.038 C1056.074,401.372 1053.371,404.075 1050.037,404.075 C1046.702,404.075 1044,401.372 1044,398.038 C1044,394.703 1046.702,392 1050.037,392 C1053.371,392 1056.074,394.703 1056.074,398.038 Z" id="Stroke-478"></path>
            <path d="M1036.075,380.037 C1036.075,383.372 1033.372,386.074 1030.038,386.074 C1026.703,386.074 1024,383.372 1024,380.037 C1024,376.703 1026.703,374 1030.038,374 C1033.372,374 1036.075,376.703 1036.075,380.037 Z" id="Stroke-480"></path>
            <path d="M1035.075,290.037 C1035.075,293.372 1032.372,296.075 1029.038,296.075 C1025.703,296.075 1023,293.372 1023,290.037 C1023,286.703 1025.703,284 1029.038,284 C1032.372,284 1035.075,286.703 1035.075,290.037 Z" id="Stroke-482"></path>
            <path d="M1014.074,249.037 C1014.074,252.371 1011.371,255.074 1008.037,255.074 C1004.702,255.074 1002,252.371 1002,249.037 C1002,245.703 1004.702,243 1008.037,243 C1011.371,243 1014.074,245.703 1014.074,249.037 Z" id="Stroke-486"></path>
            <path d="M867.075,164.037 C867.075,167.372 864.372,170.074 861.038,170.074 C857.703,170.074 855,167.372 855,164.037 C855,160.703 857.703,158 861.038,158 C864.372,158 867.075,160.703 867.075,164.037 Z" id="Stroke-488"></path>
            <path d="M884.074,185.037 C884.074,188.372 881.371,191.074 878.037,191.074 C874.702,191.074 872,188.372 872,185.037 C872,181.703 874.702,179 878.037,179 C881.371,179 884.074,181.703 884.074,185.037 Z" id="Stroke-490"></path>
            <path d="M907.075,163.037 C907.075,166.371 904.372,169.074 901.038,169.074 C897.703,169.074 895,166.371 895,163.037 C895,159.703 897.703,157 901.038,157 C904.372,157 907.075,159.703 907.075,163.037 Z" id="Stroke-492"></path>
            <path d="M924.074,185.037 C924.074,188.372 921.371,191.074 918.037,191.074 C914.702,191.074 912,188.372 912,185.037 C912,181.703 914.702,179 918.037,179 C921.371,179 924.074,181.703 924.074,185.037 Z" id="Stroke-494"></path>
            <path d="M895.074,114.037 C895.074,117.371 892.371,120.074 889.037,120.074 C885.702,120.074 883,117.371 883,114.037 C883,110.703 885.702,108 889.037,108 C892.371,108 895.074,110.703 895.074,114.037 Z" id="Stroke-496"></path>
            <path d="M915.075,95.037 C915.075,98.372 912.372,101.075 909.038,101.075 C905.703,101.075 903,98.372 903,95.037 C903,91.703 905.703,89 909.038,89 C912.372,89 915.075,91.703 915.075,95.037 Z" id="Stroke-498"></path>
            <path d="M937.074,114.037 C937.074,117.371 934.371,120.074 931.037,120.074 C927.702,120.074 925,117.371 925,114.037 C925,110.703 927.702,108 931.037,108 C934.371,108 937.074,110.703 937.074,114.037 Z" id="Stroke-500"></path>
            <path d="M867,85 L888.333,100.333" id="Stroke-501" stroke-linecap="round"></path>
            <polygon id="Stroke-502" stroke-linecap="round" points="744 143 819 143 819 58 744 58"></polygon>
            <polygon id="Stroke-503" stroke-linecap="round" points="752 133 811.796 133 811.796 68 752 68"></polygon>
            <polygon id="Stroke-504" stroke-linecap="round" points="819 77.25 826.5 77.25 826.5 62 819 62"></polygon>
            <polygon id="Stroke-505" stroke-linecap="round" points="819 97 826.5 97 826.5 84 819 84"></polygon>
            <polygon id="Stroke-506" stroke-linecap="round" points="819 120.37 826.5 120.37 826.5 107 819 107"></polygon>
            <polygon id="Stroke-507" stroke-linecap="round" points="819 140.083 826.5 140.083 826.5 127 819 127"></polygon>
            <polygon id="Stroke-508" stroke-linecap="round" points="736 138.75 743.5 138.75 743.5 127 736 127"></polygon>
            <polygon id="Stroke-509" stroke-linecap="round" points="736 118 743.5 118 743.5 105 736 105"></polygon>
            <polygon id="Stroke-510" stroke-linecap="round" points="736 97 743.5 97 743.5 84 736 84"></polygon>
            <polygon id="Stroke-511" stroke-linecap="round" points="736 76 743.5 76 743.5 62 736 62"></polygon>
            <path d="M726.075,17.037 C726.075,20.372 723.372,23.075 720.038,23.075 C716.703,23.075 714,20.372 714,17.037 C714,13.703 716.703,11 720.038,11 C723.372,11 726.075,13.703 726.075,17.037 Z" id="Stroke-513"></path>
            <path d="M1039.074,129.038 C1039.074,132.372 1036.371,135.075 1033.037,135.075 C1029.702,135.075 1027,132.372 1027,129.038 C1027,125.703 1029.702,123 1033.037,123 C1036.371,123 1039.074,125.703 1039.074,129.038 Z" id="Stroke-515"></path>
            <path d="M1077.074,129.038 C1077.074,132.372 1074.371,135.075 1071.037,135.075 C1067.702,135.075 1065,132.372 1065,129.038 C1065,125.703 1067.702,123 1071.037,123 C1074.371,123 1077.074,125.703 1077.074,129.038 Z" id="Stroke-517"></path>
            <path d="M1038.075,151.037 C1038.075,154.371 1035.372,157.074 1032.038,157.074 C1028.703,157.074 1026,154.371 1026,151.037 C1026,147.703 1028.703,145 1032.038,145 C1035.372,145 1038.075,147.703 1038.075,151.037 Z" id="Stroke-519"></path>
            <path d="M1076.074,151.037 C1076.074,154.371 1073.371,157.074 1070.037,157.074 C1066.702,157.074 1064,154.371 1064,151.037 C1064,147.703 1066.702,145 1070.037,145 C1073.371,145 1076.074,147.703 1076.074,151.037 Z" id="Stroke-521"></path>
            <path d="M1035.074,184.037 C1035.074,187.372 1032.371,190.074 1029.037,190.074 C1025.702,190.074 1023,187.372 1023,184.037 C1023,180.703 1025.702,178 1029.037,178 C1032.371,178 1035.074,180.703 1035.074,184.037 Z" id="Stroke-523"></path>
            <path d="M1055.075,184.037 C1055.075,187.372 1052.372,190.074 1049.038,190.074 C1045.703,190.074 1043,187.372 1043,184.037 C1043,180.703 1045.703,178 1049.038,178 C1052.372,178 1055.075,180.703 1055.075,184.037 Z" id="Stroke-525"></path>
            <path d="M1076.075,184.037 C1076.075,187.372 1073.372,190.074 1070.038,190.074 C1066.703,190.074 1064,187.372 1064,184.037 C1064,180.703 1066.703,178 1070.038,178 C1073.372,178 1076.075,180.703 1076.075,184.037 Z" id="Stroke-527"></path>
            <path d="M1108.074,178.037 C1108.074,181.371 1105.371,184.074 1102.037,184.074 C1098.702,184.074 1096,181.371 1096,178.037 C1096,174.703 1098.702,172 1102.037,172 C1105.371,172 1108.074,174.703 1108.074,178.037 Z" id="Stroke-529"></path>
            <path d="M1076.075,272.037 C1076.075,275.371 1073.372,278.074 1070.038,278.074 C1066.703,278.074 1064,275.371 1064,272.037 C1064,268.702 1066.703,266 1070.038,266 C1073.372,266 1076.075,268.702 1076.075,272.037 Z" id="Stroke-531"></path>
            <path d="M1098.074,296.038 C1098.074,299.372 1095.371,302.075 1092.037,302.075 C1088.702,302.075 1086,299.372 1086,296.038 C1086,292.703 1088.702,290 1092.037,290 C1095.371,290 1098.074,292.703 1098.074,296.038 Z" id="Stroke-533"></path>
            <path d="M1120.074,309.037 C1120.074,312.371 1117.371,315.074 1114.037,315.074 C1110.702,315.074 1108,312.371 1108,309.037 C1108,305.703 1110.702,303 1114.037,303 C1117.371,303 1120.074,305.703 1120.074,309.037 Z" id="Stroke-535"></path>
            <path d="M1149.075,309.037 C1149.075,312.371 1146.372,315.074 1143.038,315.074 C1139.703,315.074 1137,312.371 1137,309.037 C1137,305.703 1139.703,303 1143.038,303 C1146.372,303 1149.075,305.703 1149.075,309.037 Z" id="Stroke-537"></path>
            <path d="M1170.075,332.037 C1170.075,335.371 1167.372,338.074 1164.038,338.074 C1160.703,338.074 1158,335.371 1158,332.037 C1158,328.703 1160.703,326 1164.038,326 C1167.372,326 1170.075,328.703 1170.075,332.037 Z" id="Stroke-539"></path>
            <path d="M1190.074,385.037 C1190.074,388.371 1187.371,391.074 1184.037,391.074 C1180.702,391.074 1178,388.371 1178,385.037 C1178,381.703 1180.702,379 1184.037,379 C1187.371,379 1190.074,381.703 1190.074,385.037 Z" id="Stroke-541"></path>
            <path d="M1212.074,323.037 C1212.074,326.372 1209.371,329.074 1206.037,329.074 C1202.702,329.074 1200,326.372 1200,323.037 C1200,319.703 1202.702,317 1206.037,317 C1209.371,317 1212.074,319.703 1212.074,323.037 Z" id="Stroke-543"></path>
            <path d="M1266.074,354.037 C1266.074,357.371 1263.371,360.074 1260.037,360.074 C1256.702,360.074 1254,357.371 1254,354.037 C1254,350.703 1256.702,348 1260.037,348 C1263.371,348 1266.074,350.703 1266.074,354.037 Z" id="Stroke-545"></path>
            <path d="M1298.074,329.037 C1298.074,332.372 1295.371,335.075 1292.037,335.075 C1288.702,335.075 1286,332.372 1286,329.037 C1286,325.703 1288.702,323 1292.037,323 C1295.371,323 1298.074,325.703 1298.074,329.037 Z" id="Stroke-547"></path>
            <path d="M1319.074,280.037 C1319.074,283.371 1316.371,286.074 1313.037,286.074 C1309.702,286.074 1307,283.371 1307,280.037 C1307,276.703 1309.702,274 1313.037,274 C1316.371,274 1319.074,276.703 1319.074,280.037 Z" id="Stroke-551"></path>
            <path d="M1257.074,211.037 C1257.074,214.372 1254.371,217.074 1251.037,217.074 C1247.702,217.074 1245,214.372 1245,211.037 C1245,207.703 1247.702,205 1251.037,205 C1254.371,205 1257.074,207.703 1257.074,211.037 Z" id="Stroke-553"></path>
            <path d="M1278.074,202.037 C1278.074,205.371 1275.371,208.074 1272.037,208.074 C1268.702,208.074 1266,205.371 1266,202.037 C1266,198.702 1268.702,196 1272.037,196 C1275.371,196 1278.074,198.702 1278.074,202.037 Z" id="Stroke-555"></path>
            <path d="M1299.074,202.037 C1299.074,205.371 1296.371,208.074 1293.037,208.074 C1289.702,208.074 1287,205.371 1287,202.037 C1287,198.702 1289.702,196 1293.037,196 C1296.371,196 1299.074,198.702 1299.074,202.037 Z" id="Stroke-557"></path>
            <path d="M1320.075,143.037 C1320.075,146.371 1317.372,149.074 1314.038,149.074 C1310.703,149.074 1308,146.371 1308,143.037 C1308,139.703 1310.703,137 1314.038,137 C1317.372,137 1320.075,139.703 1320.075,143.037 Z" id="Stroke-559"></path>
            <path d="M1318.074,37.037 C1318.074,40.371 1315.371,43.074 1312.037,43.074 C1308.702,43.074 1306,40.371 1306,37.037 C1306,33.703 1308.702,31 1312.037,31 C1315.371,31 1318.074,33.703 1318.074,37.037 Z" id="Stroke-565"></path>
            <path d="M1209.074,98.037 C1209.074,101.371 1206.371,104.074 1203.037,104.074 C1199.702,104.074 1197,101.371 1197,98.037 C1197,94.703 1199.702,92 1203.037,92 C1206.371,92 1209.074,94.703 1209.074,98.037 Z" id="Stroke-567"></path>
            <path d="M1209.074,120.037 C1209.074,123.371 1206.371,126.074 1203.037,126.074 C1199.702,126.074 1197,123.371 1197,120.037 C1197,116.703 1199.702,114 1203.037,114 C1206.371,114 1209.074,116.703 1209.074,120.037 Z" id="Stroke-569"></path>
            <path d="M1209.074,140.037 C1209.074,143.372 1206.371,146.074 1203.037,146.074 C1199.702,146.074 1197,143.372 1197,140.037 C1197,136.703 1199.702,134 1203.037,134 C1206.371,134 1209.074,136.703 1209.074,140.037 Z" id="Stroke-571"></path>
            <path d="M1208.075,160.037 C1208.075,163.371 1205.372,166.074 1202.038,166.074 C1198.703,166.074 1196,163.371 1196,160.037 C1196,156.703 1198.703,154 1202.038,154 C1205.372,154 1208.075,156.703 1208.075,160.037 Z" id="Stroke-573"></path>
            <path d="M1166.074,69.037 C1166.074,72.372 1163.371,75.074 1160.037,75.074 C1156.702,75.074 1154,72.372 1154,69.037 C1154,65.703 1156.702,63 1160.037,63 C1163.371,63 1166.074,65.703 1166.074,69.037 Z" id="Stroke-575"></path>
            <path d="M1148.075,47.037 C1148.075,50.371 1145.372,53.074 1142.038,53.074 C1138.703,53.074 1136,50.371 1136,47.037 C1136,43.703 1138.703,41 1142.038,41 C1145.372,41 1148.075,43.703 1148.075,47.037 Z" id="Stroke-577"></path>
            <path d="M1125.074,31.037 C1125.074,34.371 1122.371,37.074 1119.037,37.074 C1115.702,37.074 1113,34.371 1113,31.037 C1113,27.702 1115.702,25 1119.037,25 C1122.371,25 1125.074,27.702 1125.074,31.037 Z" id="Stroke-579"></path>
            <polygon id="Stroke-580" points="1005 80.75 1020.713 80.75 1020.713 39 1005 39"></polygon>
            <polygon id="Stroke-581" points="1008 88.25 1017.5 88.25 1017.5 81 1008 81"></polygon>
            <polygon id="Stroke-582" points="1008 38.25 1017.5 38.25 1017.5 31 1008 31"></polygon>
            <polygon id="Stroke-583" points="1041 80.75 1056.713 80.75 1056.713 39 1041 39"></polygon>
            <polygon id="Stroke-584" points="1044 87.25 1053.5 87.25 1053.5 80 1044 80"></polygon>
            <polygon id="Stroke-585" points="1044 38.25 1053.5 38.25 1053.5 31 1044 31"></polygon>
            <polygon id="Stroke-586" points="1077 80.75 1092.713 80.75 1092.713 39 1077 39"></polygon>
            <polygon id="Stroke-587" points="1080 87.25 1089.5 87.25 1089.5 80 1080 80"></polygon>
            <polygon id="Stroke-588" points="1080 38.25 1089.5 38.25 1089.5 31 1080 31"></polygon>
            <path d="M6,2 L6,97.5" id="Stroke-171" stroke-linecap="round"></path>
            <path d="M12.074,104.037 C12.074,107.371 9.371,110.074 6.037,110.074 C2.702,110.074 0,107.371 0,104.037 C0,100.703 2.702,98 6.037,98 C9.371,98 12.074,100.703 12.074,104.037 Z" id="Stroke-561"></path>
        </g>
    </g>
</svg>