<?xml version="1.0" encoding="UTF-8"?>
<svg width="208px" height="181px" viewBox="0 0 208 181" version="1.1" xmlns="http://www.w3.org/2000/svg" xmlns:xlink="http://www.w3.org/1999/xlink">
    <!-- Generator: Sketch 51.2 (57519) - http://www.bohemiancoding.com/sketch -->
    <title>Large Logo</title>
    <desc>Created with Sketch.</desc>
    <defs></defs>
    <g id="Large-Logo" stroke="none" stroke-width="1" fill="none" fill-rule="evenodd" stroke-linecap="round">
        <g id="Group-2" transform="translate(14.000000, 11.000000)" stroke="#00E174" stroke-width="10">
            <path d="M154,158 L168,133" id="Stroke-1"></path>
            <path d="M176,158 L180,151" id="Stroke-3"></path>
            <path d="M0,158 L29,110" id="Stroke-5"></path>
            <path d="M80.6761762,17.8123152 L91.3238238,0.187684759" id="Stroke-7"></path>
            <path d="M58.8298476,54.9033434 L69.1701524,37.0966566" id="Stroke-10"></path>
            <path d="M38,91 L48,73" id="Stroke-11"></path>
            <path d="M76.4210662,65.2494046 L104.578934,16.7505954" id="Stroke-12"></path>
            <path d="M64,85 L67,80" id="Stroke-13"></path>
            <path d="M43,121 L53,103" id="Stroke-14"></path>
            <path d="M22,157 L34,137" id="Stroke-15"></path>
            <path d="M44,158 L47,153" id="Stroke-17"></path>
            <path d="M56,136 L59,131" id="Stroke-20"></path>
            <path d="M69,115 L72,110" id="Stroke-21"></path>
            <path d="M82,93 L113,38" id="Stroke-22"></path>
            <path d="M121,61 L124,56" id="Stroke-23"></path>
            <path d="M85,125 L114,77" id="Stroke-24"></path>
            <path d="M67,158 L76,142" id="Stroke-25"></path>
            <path d="M87,157 L112,114" id="Stroke-27"></path>
            <path d="M123,98 L136,76" id="Stroke-30"></path>
            <path d="M110,158 L113,153" id="Stroke-31"></path>
            <path d="M122.322048,135.614255 L146.677952,94.3857455" id="Stroke-33"></path>
            <path d="M132,158 L140,145" id="Stroke-34"></path>
            <path d="M150,127 L158,114" id="Stroke-36"></path>
        </g>
    </g>
</svg>