<svg width="1080" height="1080" viewBox="0 0 1080 1080" fill="none" xmlns="http://www.w3.org/2000/svg">
<rect width="1080" height="1080" fill="white"/>
<path d="M538.389 660.799L485.279 669.497C482.389 669.975 479.301 670.43 476.598 669.264C470.877 666.792 470.038 659.085 468.022 653.056C464.294 641.862 454.04 633.945 442.994 630.552C431.947 627.159 420.167 627.66 408.725 628.884C398.809 629.934 388.625 631.485 379.024 628.756C361.65 623.847 350.779 606.602 341.551 590.72L313.784 542.913C307.348 531.883 299.287 521.886 289.874 513.261C279.713 503.862 266.966 493.764 253.752 497.507C243.079 500.527 235.493 512.13 224.436 512.666C221.709 495.479 232.347 479.504 240.62 464.31C250.454 446.224 257.483 426.746 261.466 406.545C265.16 387.889 267.362 366.504 282.043 354.843C295.385 320.107 310.812 286.047 330.143 254.39C345.49 229.291 364.176 206.398 385.689 186.34C393.088 179.46 403.982 174.68 412.488 169.339C434.476 155.731 457.78 141.634 483.415 142.007C519.21 142.509 551.381 176.324 550.997 213.135C550.833 232.13 543.225 250.81 545.497 269.653C546.254 275.88 548.084 282.013 547.967 288.309C547.851 294.606 545.206 301.404 539.613 303.934C542.281 338.81 554.9 374.141 548.561 408.516C546.802 418.066 543.528 427.429 543.574 437.154C543.574 445.071 545.905 452.778 546.977 460.614C549.47 477.813 546.639 495.304 543.796 512.444C536.233 558.211 544.704 608.059 545.171 654.409C545.264 656.916 540.09 662.653 538.389 660.799Z" fill="#EE3670"/>
<path d="M225.174 517.803C236.46 502.634 259.393 498.41 275.126 508.468C286.797 515.959 293.473 529.18 300.067 541.56C311.095 562.269 323.331 582.312 336.714 601.584C347.463 617.044 359.881 632.704 377.306 639.075C395.128 645.598 414.654 641.198 433.619 640.242C437.319 639.88 441.054 640.156 444.66 641.058C456.331 644.559 461.618 657.99 465.376 669.81C469.543 682.914 491.368 677.721 504.358 674.232L543.538 663.731C552.431 707.383 533.699 753.24 542.511 796.916C544.063 804.617 546.42 812.878 543.351 820.078C539.476 829.121 528.015 832.622 518.62 830.288C509.225 827.954 501.522 821.222 494.449 814.465C487.376 807.709 480.292 800.463 471.317 796.846C455.864 790.545 438.346 795.947 423.104 802.762C407.861 809.576 392.432 817.931 375.812 817.604C362.974 817.324 348.735 812.038 338.01 819.355C331.275 823.952 327.797 832.587 320.76 836.671C313.722 840.755 304.315 839.098 297.418 834.57C290.52 830.043 285.373 823.159 280.436 816.414C275.184 809.261 271.414 801.245 265.497 794.699C255.787 783.87 246.042 772.167 242.669 757.861C240.708 749.541 241.035 740.79 238.992 732.505C236.296 721.583 229.725 712.19 224.45 702.319C219.175 692.447 215.043 680.965 217.832 670.078C224.182 645.294 222.501 618.398 219.84 592.914C218.568 580.837 215.872 568.935 215.101 556.823C214.331 544.711 217.973 527.441 225.174 517.803Z" fill="#F68632"/>
<path d="M538.873 905.557C529.083 912.951 524.596 926.632 513.766 932.301C505.109 936.838 494.582 935.007 485.458 931.566C476.333 928.125 467.641 923.192 458.049 921.594C446.623 919.693 434.777 922.76 423.421 920.427C399.774 915.762 385.416 890.277 363.195 880.772C350.951 875.535 339.396 869.855 329.851 860.408C326.066 856.652 322 852.243 322 846.866C322.075 844.538 322.721 842.263 323.881 840.242C328.145 832.334 336.732 827.832 345.366 825.942C354 824.053 362.891 824.321 371.653 823.435C390.463 821.545 408.326 814.384 426.68 809.823C445.034 805.263 465.176 803.49 482.187 811.923C498.543 820.087 511.126 837.127 529.211 839.239C532.424 839.612 535.847 839.518 538.651 841.175C542.156 843.274 543.803 847.589 544.82 851.672C549.306 869.575 553.418 894.558 538.873 905.557Z" fill="#A7DDE8"/>
<path d="M572.611 660.799L625.721 669.497C628.611 669.975 631.699 670.43 634.402 669.264C640.123 666.792 640.962 659.085 642.978 653.056C646.706 641.862 656.96 633.945 668.006 630.552C679.053 627.159 690.833 627.66 702.275 628.884C712.191 629.934 722.375 631.485 731.976 628.756C749.35 623.847 760.221 606.602 769.449 590.72L797.216 542.913C803.652 531.883 811.713 521.886 821.126 513.261C831.287 503.862 844.034 493.764 857.248 497.507C867.921 500.527 875.507 512.13 886.564 512.666C889.291 495.479 878.653 479.504 870.38 464.31C860.546 446.224 853.517 426.746 849.534 406.545C845.84 387.889 843.638 366.504 828.957 354.843C815.615 320.107 800.188 286.047 780.857 254.39C765.51 229.291 746.824 206.398 725.311 186.34C717.912 179.46 707.018 174.68 698.512 169.339C676.524 155.731 653.22 141.634 627.585 142.007C591.79 142.509 559.619 176.324 560.003 213.135C560.167 232.13 567.775 250.81 565.503 269.653C564.746 275.88 562.916 282.013 563.033 288.309C563.149 294.606 565.794 301.404 571.387 303.934C568.719 338.81 556.1 374.141 562.439 408.516C564.198 418.066 567.472 427.429 567.426 437.154C567.426 445.071 565.095 452.778 564.023 460.614C561.53 477.813 564.361 495.304 567.204 512.444C574.767 558.211 566.296 608.059 565.829 654.409C565.736 656.916 570.91 662.653 572.611 660.799Z" fill="#F68632"/>
<path d="M885.826 517.803C874.54 502.634 851.607 498.41 835.874 508.468C824.203 515.959 817.527 529.18 810.933 541.56C799.905 562.269 787.669 582.312 774.286 601.584C763.537 617.044 751.119 632.704 733.694 639.075C715.872 645.598 696.346 641.198 677.381 640.242C673.681 639.88 669.946 640.156 666.34 641.058C654.669 644.559 649.382 657.99 645.624 669.81C641.457 682.914 619.632 677.721 606.642 674.232L567.462 663.731C558.569 707.383 577.301 753.24 568.489 796.916C566.937 804.617 564.58 812.878 567.649 820.078C571.524 829.121 582.985 832.622 592.38 830.288C601.775 827.954 609.478 821.222 616.551 814.465C623.624 807.709 630.708 800.463 639.683 796.846C655.136 790.545 672.654 795.947 687.896 802.762C703.139 809.576 718.568 817.931 735.188 817.604C748.026 817.324 762.265 812.038 772.99 819.355C779.725 823.952 783.203 832.587 790.24 836.671C797.278 840.755 806.685 839.098 813.582 834.57C820.48 830.043 825.627 823.159 830.564 816.414C835.816 809.261 839.586 801.245 845.503 794.699C855.213 783.87 864.958 772.167 868.331 757.861C870.292 749.541 869.965 740.79 872.008 732.505C874.704 721.583 881.275 712.19 886.55 702.319C891.825 692.447 895.957 680.965 893.168 670.078C886.818 645.294 888.499 618.398 891.16 592.914C892.432 580.837 895.128 568.935 895.899 556.823C896.669 544.711 893.027 527.441 885.826 517.803Z" fill="#A7DDE8"/>
<path d="M572.127 905.557C581.917 912.951 586.404 926.632 597.234 932.301C605.891 936.838 616.418 935.007 625.542 931.566C634.667 928.125 643.359 923.192 652.951 921.594C664.377 919.693 676.223 922.76 687.579 920.427C711.226 915.762 725.584 890.277 747.805 880.772C760.049 875.535 771.604 869.855 781.149 860.408C784.934 856.652 789 852.243 789 846.866C788.925 844.538 788.279 842.263 787.119 840.242C782.855 832.334 774.268 827.832 765.634 825.942C757 824.053 748.109 824.321 739.347 823.435C720.537 821.545 702.674 814.384 684.32 809.823C665.966 805.263 645.824 803.49 628.813 811.923C612.457 820.087 599.874 837.127 581.789 839.239C578.576 839.612 575.153 839.518 572.349 841.175C568.844 843.274 567.197 847.589 566.18 851.672C561.694 869.575 557.582 894.558 572.127 905.557Z" fill="#EE3670"/>
</svg>
