<svg width="1080" height="1080" viewBox="0 0 1080 1080" fill="none" xmlns="http://www.w3.org/2000/svg">
<rect width="1080" height="1080" fill="none"/>
<path d="M700.655 186.322L593.631 107.048L572.128 136.047L679.153 215.321L700.655 186.322Z" fill="#EE3670"/>
<path d="M579.29 104.725L510.831 218.937L541.81 237.486L610.268 123.274L579.29 104.725Z" fill="#EE3670"/>
<path d="M526.999 262.991C546.766 262.991 562.79 246.975 562.79 227.218C562.79 207.462 546.766 191.446 526.999 191.446C507.233 191.446 491.208 207.462 491.208 227.218C491.208 246.975 507.233 262.991 526.999 262.991Z" fill="#EE3670"/>
<path d="M585.466 175.303C610.692 175.303 631.142 154.864 631.142 129.652C631.142 104.439 610.692 84 585.466 84C560.241 84 539.791 104.439 539.791 129.652C539.791 154.864 560.241 175.303 585.466 175.303Z" fill="#EE3670"/>
<path d="M721.135 231.093C711.122 248.075 689.221 253.757 672.165 243.749C655.174 233.74 649.489 211.85 659.503 194.804" fill="#EE3670"/>
<path d="M675.46 172.269C685.474 155.286 707.375 149.604 724.43 159.613C741.486 169.621 747.106 191.511 737.093 208.557" fill="#EE3670"/>
<path d="M440.752 242.78C460.65 218.566 496.377 215.079 520.603 234.967C544.83 254.855 548.318 290.562 528.42 314.777" fill="#EE3670"/>
<path d="M652.406 826.76L787.421 967.896L815.719 940.853L680.704 799.717L652.406 826.76Z" fill="#ECAB4B"/>
<path d="M794.608 930.789L600.788 955.217L605.686 994.038L799.506 969.61L794.608 930.789Z" fill="#ECAB4B"/>
<path d="M626.507 959.95L580.497 931.68L559.994 965.015L606.004 993.285L626.507 959.95Z" fill="#ECAB4B"/>
<path d="M793.104 996C814.512 996 831.867 978.654 831.867 957.257C831.867 935.86 814.512 918.515 793.104 918.515C771.696 918.515 754.342 935.86 754.342 957.257C754.342 978.654 771.696 996 793.104 996Z" fill="#ECAB4B"/>
<path d="M677.527 867.181C698.935 867.181 716.29 849.835 716.29 828.438C716.29 807.042 698.935 789.696 677.527 789.696C656.119 789.696 638.765 807.042 638.765 828.438C638.765 849.835 656.119 867.181 677.527 867.181Z" fill="#ECAB4B"/>
<path d="M575.581 904.374C590.505 919.742 590.117 944.214 574.742 959.13C559.366 974.046 534.881 973.658 519.957 958.29" fill="#ECAB4B"/>
<path d="M569.108 916.382L548.011 884.109L536.923 891.349L558.02 923.622L569.108 916.382Z" fill="#ECAB4B"/>
<path d="M548.255 884.567L509.991 889.39L511.648 902.522L549.912 897.7L548.255 884.567Z" fill="#ECAB4B"/>
<path d="M497.874 949.621L535.849 956.363L538.165 943.33L500.19 936.588L497.874 949.621Z" fill="#ECAB4B"/>
<path d="M603.243 779.797L744.063 772.03L740.496 707.427L599.676 715.194L603.243 779.797Z" fill="#ECAB4B"/>
<path d="M666.065 749.127L655.154 829.234L693.948 834.513L704.859 754.406L666.065 749.127Z" fill="#ECAB4B"/>
<path d="M494.477 909.351L489.274 947.549L502.397 949.335L507.6 911.136L494.477 909.351Z" fill="#ECAB4B"/>
<path d="M396.628 244.652C455.159 229.026 522.671 261.247 547.285 316.584C573.579 303.218 606.01 302.766 632.692 315.293C659.374 327.82 679.659 353.132 686.12 381.866C721.265 367.079 763.257 369.597 796.335 388.517C829.412 407.436 852.928 442.304 858.032 480.014C884.52 494.671 910.684 511.33 929.42 535.093C948.155 558.855 958.556 591.011 949.899 620.003C940.984 649.964 913.333 671.466 883.615 681.346C853.897 691.225 821.983 691.354 790.65 691.354C620.934 691.548 451.154 691.742 281.438 691.935C246.358 692 209.469 691.548 178.782 674.437C144.736 655.453 123.416 615.806 126.259 576.935C129.101 538.063 156.106 501.968 192.543 488.149C179.816 457.995 187.568 420.35 211.149 397.686C236.344 373.472 268.647 372.826 300.367 381.026C307.022 350.807 305.665 324.914 324.465 297.278C341.585 272.224 367.104 252.53 396.628 244.652Z" fill="#A7DDE8"/>
<path d="M511.946 412.279C552.582 401.431 599.485 423.837 616.605 462.192C634.824 452.958 657.371 452.571 675.912 461.288C694.454 470.005 708.537 487.568 712.995 507.521C737.415 497.254 766.552 498.997 789.551 512.17C812.55 525.278 828.831 549.492 832.384 575.708C850.796 585.845 868.95 597.468 882 613.934C895.05 630.399 902.221 652.741 896.213 672.887C890.011 693.679 870.823 708.595 850.215 715.504C829.606 722.348 807.382 722.477 785.675 722.477C667.772 722.607 549.934 722.736 432.031 722.865C407.675 722.865 382.027 722.607 360.772 710.726C337.127 697.489 322.268 669.981 324.271 642.991C326.273 616 345.009 590.946 370.334 581.325C361.483 560.404 366.91 534.253 383.254 518.498C400.762 501.645 423.18 501.257 445.21 506.94C449.862 485.954 448.892 467.939 461.943 448.761C473.701 431.392 491.402 417.767 511.946 412.279Z" fill="#F68632"/>
<path d="M359.739 525.73C391.395 517.271 427.896 534.705 441.205 564.602C455.418 557.37 472.925 557.111 487.397 563.891C501.804 570.671 512.786 584.36 516.275 599.922C535.269 591.915 557.945 593.271 575.84 603.538C593.736 613.74 606.463 632.595 609.176 652.999C623.518 660.941 637.666 669.917 647.809 682.766C657.952 695.616 663.573 712.986 658.857 728.676C654.011 744.884 639.088 756.506 623.001 761.866C606.915 767.225 589.665 767.29 572.739 767.29C480.936 767.419 389.198 767.483 297.396 767.613C278.402 767.613 258.504 767.419 241.9 758.185C223.488 747.918 211.924 726.481 213.474 705.431C215.025 684.381 229.626 664.88 249.33 657.39C242.482 641.054 246.617 620.778 259.408 608.51C273.04 595.402 290.483 595.079 307.603 599.534C311.221 583.198 310.446 569.186 320.653 554.27C329.956 540.581 343.781 529.992 359.739 525.73Z" fill="#EE3670"/>
</svg>
