<svg width="1080" height="1080" viewBox="0 0 1080 1080" fill="none" xmlns="http://www.w3.org/2000/svg">
<rect width="1080" height="1080" fill="white"/>
<path d="M229.906 406.827C290.705 406.827 339.992 392.402 339.992 374.608C339.992 356.814 290.705 342.389 229.906 342.389C169.108 342.389 119.821 356.814 119.821 374.608C119.821 392.402 169.108 406.827 229.906 406.827Z" fill="#A7DDE8"/>
<path d="M551.657 353.769C612.455 353.769 661.742 339.344 661.742 321.55C661.742 303.756 612.455 289.331 551.657 289.331C490.859 289.331 441.572 303.756 441.572 321.55C441.572 339.344 490.859 353.769 551.657 353.769Z" fill="#A7DDE8"/>
<path d="M501.011 181.438C561.809 181.438 611.096 167.013 611.096 149.219C611.096 131.425 561.809 117 501.011 117C440.213 117 390.926 131.425 390.926 149.219C390.926 167.013 440.213 181.438 501.011 181.438Z" fill="#A7DDE8"/>
<path d="M165.085 236.417C225.884 236.417 275.17 221.992 275.17 204.198C275.17 186.404 225.884 171.979 165.085 171.979C104.287 171.979 55 186.404 55 204.198C55 221.992 104.287 236.417 165.085 236.417Z" fill="#A7DDE8"/>
<path d="M500.05 170.49C502.02 168.474 504.663 167.225 507.402 166.409C512.591 164.776 518.502 164.536 523.355 166.937C528.208 169.338 531.62 174.86 530.322 179.997C520.904 181.438 511.486 182.83 502.068 184.271C494.188 185.423 496.59 174.043 500.05 170.49Z" fill="#DD4A72"/>
<path d="M846.595 400.441L846.403 400.873C822.906 443.943 788.405 480.916 747.129 507.421C745.784 508.285 744.438 509.101 743.093 509.966C745.88 499.882 747.85 489.127 749.051 478.131C751.598 454.891 750.781 430.547 747.562 408.651C766.782 397.992 788.165 391.173 810.076 391.702C822.618 391.99 835.303 394.967 846.595 400.441Z" fill="#ECAB4B"/>
<path d="M985.511 608.015C911.849 669.38 824.78 732.906 738.816 775.448C744.534 764.74 750.925 754.129 757.748 743.709C835.255 707.841 909.83 658.384 974.603 602.781C978.351 604.27 981.955 605.998 985.511 608.015Z" fill="#A7DDE8"/>
<path d="M865.095 587.752C873.792 562.496 880.519 536.519 885.18 510.206C890.081 482.548 892.244 452.298 877.828 428.194C870.573 415.998 859.473 406.635 846.595 400.44C835.255 394.967 822.569 391.99 810.028 391.701C788.165 391.173 766.734 397.992 747.513 408.651C743.141 411.052 738.912 413.645 734.78 416.43C723.68 423.92 713.445 432.515 703.691 441.638C700.039 445 694.369 452.394 688.507 458.108C688.459 458.156 688.411 458.156 688.411 458.204C686.873 459.5 685.335 460.893 683.846 462.189C680.866 464.446 678.032 465.839 675.485 465.599C675.533 462.622 675.725 459.693 676.061 456.668C677.791 438.805 683.221 419.839 689.756 403.802C698.694 381.858 713.782 361.499 735.068 350.984C753.616 341.764 775.191 340.804 795.901 341.86C836.36 343.877 876.771 352.856 912.954 371.054C949.136 389.253 980.946 416.958 1001.32 451.914C1015.69 476.546 1024.34 505.116 1022.56 533.638C1020.78 562.111 1007.95 590.393 985.463 608.063C981.955 605.998 978.303 604.27 974.555 602.829C957.209 596.107 937.7 595.099 919.152 597.836C902.19 600.284 885.901 605.566 869.756 611.52C864.422 613.489 859.136 615.506 853.851 617.57C857.935 607.727 861.683 597.836 865.095 587.752Z" fill="#EE3670"/>
<path d="M561.604 670.676C564.198 664.002 566.745 657.424 569.196 650.99C570.589 647.244 571.935 643.547 573.28 639.946C596.393 576.276 626.232 502.571 676.109 456.668C675.773 459.693 675.629 462.67 675.533 465.599C678.08 465.839 680.915 464.446 683.894 462.189C640.167 501.899 615.853 563.84 598.267 620.211C597.161 623.716 596.104 627.27 594.951 630.823C593.173 636.441 591.395 642.107 589.569 647.869C579.719 678.503 568.619 710.338 554.492 739.724C548.582 737.371 542.671 735.162 536.713 733.002C545.026 712.163 553.675 690.987 561.604 670.676Z" fill="#F68632"/>
<path d="M747.321 507.613C707.727 562.256 649.537 615.65 590.242 648.061L589.569 647.821C591.395 642.059 593.221 636.441 594.951 630.775L595.528 630.967C654.006 592.65 710.514 536.423 749.051 478.083C747.85 489.079 745.88 499.834 743.093 509.918C744.486 509.054 745.784 508.285 747.129 507.373L747.321 507.613Z" fill="#A7DDE8"/>
<path d="M660.445 804.018C677.022 793.838 697.925 782.218 714.839 771.943C710.851 778.665 707.102 785.483 703.691 792.446C692.879 800.032 677.743 810.74 668.373 817.366L667.652 817.798C665.01 813.429 662.031 809.252 658.811 805.362L660.445 804.018Z" fill="#A7DDE8"/>
<path d="M732.137 788.509C716.04 821.928 706.19 847.665 680.002 873.93C680.674 872.921 681.395 871.961 682.068 870.953C682.308 866.919 682.212 862.886 681.876 858.9C685.191 836.285 693.12 813.813 703.643 792.446C707.054 785.483 710.802 778.617 714.791 771.943C721.854 759.843 729.735 748.223 737.759 737.371C776.921 684.793 839.676 648.061 865.047 587.752C861.635 597.788 857.887 607.727 853.851 617.522C859.136 615.506 864.422 613.441 869.756 611.472C830.93 651.23 789.174 695.693 757.7 743.709C750.877 754.129 744.486 764.692 738.768 775.448L738.72 775.496C736.462 779.818 734.251 784.139 732.137 788.509Z" fill="#F68632"/>
<path d="M682.116 870.953C651.507 854.579 619.553 840.27 587.743 825.673C565.4 815.494 543.2 805.17 521.577 793.838C534.262 777.561 545.074 759.171 554.492 739.676C586.926 752.448 618.064 767.958 644.396 790.573C649.585 794.991 654.486 800.032 658.811 805.41C662.03 809.348 665.01 813.477 667.652 817.847C675.389 830.427 680.578 844.496 681.924 858.901C682.26 862.886 682.356 866.919 682.116 870.953Z" fill="#ECAB4B"/>
<path d="M584.62 831.531C592.885 835.901 601.102 840.222 609.366 844.592C604.225 851.938 599.084 859.285 593.942 866.631C601.774 869.944 609.559 873.257 617.439 876.522C613.307 883.869 609.27 891.215 605.186 898.514C598.219 895.921 591.299 893.28 584.332 890.687C580.632 898.034 576.98 905.332 573.28 912.727C566.072 910.758 558.913 908.789 551.705 906.821C554.348 898.37 556.991 889.967 559.73 881.564C551.705 877.051 543.68 872.489 535.704 867.975C538.923 858.468 542.191 849.009 545.41 839.502C546.035 838.589 566.793 854.435 570.157 853.571C576.163 852.034 581.016 836.045 583.611 831.003C583.947 831.195 584.284 831.387 584.62 831.531Z" fill="#A7DDE8"/>
<path d="M609.366 844.592C601.102 840.222 592.885 835.901 584.62 831.531L587.695 825.673C619.505 840.27 651.459 854.579 682.068 870.953C681.395 871.961 680.674 872.921 680.002 873.93C659.532 903.219 639.158 932.509 618.736 961.799C594.038 947.587 569.292 933.326 544.641 919.065L551.705 906.821C558.913 908.789 566.072 910.758 573.28 912.727C576.932 905.332 580.632 898.034 584.332 890.687C591.299 893.28 598.219 895.921 605.186 898.514C609.27 891.215 613.307 883.869 617.439 876.522C609.607 873.209 601.822 869.896 593.942 866.631C599.083 859.285 604.225 851.938 609.366 844.592Z" fill="#EE3670"/>
<path d="M502.885 721.094C503.029 721.19 503.125 721.19 503.317 721.286C514.417 725.079 525.613 728.92 536.713 732.954C528.785 752.688 521.144 772.135 514.561 790.141C510.621 767.141 506.729 744.093 502.885 721.094Z" fill="#ECAB4B"/>
<path d="M502.885 721.094C506.777 744.093 510.669 767.141 514.561 790.141C516.916 793.502 468.913 867.976 461.849 868.408C459.783 868.552 458.005 868.264 456.323 867.592C438.4 860.533 442.773 811.124 445.56 799.36C452.239 770.983 472.036 748.223 492.89 727.384C495.966 724.263 499.185 721.19 502.308 718.117C502.501 719.077 502.693 720.085 502.885 721.094Z" fill="#F68632"/>
<path d="M503.269 721.286C503.125 721.238 502.981 721.19 502.837 721.093C502.645 720.085 502.501 719.077 502.308 718.068C499.185 721.142 495.966 724.215 492.89 727.336L492.554 727.048C509.084 700.062 540.893 665.202 569.148 650.99C566.697 657.376 564.198 663.954 561.555 670.676C544.401 685.513 520.328 706.352 503.365 720.997L503.269 721.286Z" fill="#A7DDE8"/>
<path d="M514.561 790.141C521.096 772.135 528.737 752.688 536.713 732.954C542.671 735.114 548.582 737.323 554.492 739.676C545.074 759.17 534.262 777.609 521.577 793.838C519.222 792.638 516.82 791.389 514.561 790.141Z" fill="#F68632"/>
<path d="M544.641 919.113C515.138 902.115 485.635 885.117 456.083 868.12L456.323 867.592C458.005 868.264 459.783 868.552 461.849 868.408C468.913 867.976 516.916 793.502 514.561 790.141C516.868 791.39 519.222 792.638 521.577 793.838C543.248 805.122 565.4 815.494 587.743 825.673L584.668 831.531C584.332 831.387 583.995 831.147 583.659 831.003C581.064 836.045 576.211 852.034 570.205 853.571C566.889 854.435 546.083 838.59 545.458 839.502C542.191 849.009 538.923 858.516 535.752 867.976C543.777 872.537 551.753 877.051 559.778 881.564C557.087 889.967 554.396 898.37 551.753 906.821L544.641 919.113Z" fill="#EE3670"/>
<path d="M571.406 339.604C574.818 343.397 575.49 348.919 574.097 353.865L573.809 353.769C572.271 347.719 566.216 343.781 560.162 342.437C554.059 341.092 547.765 341.765 541.518 341.717C523.547 341.621 505.672 335.474 491.449 324.527L489.142 324.623C488.998 320.685 488.614 316.748 487.941 312.859L488.902 312.715C500.963 322.846 515.715 329.712 531.187 332.545C536.665 333.602 542.287 334.082 547.861 334.082C552.041 334.082 556.222 333.794 560.354 334.37C560.498 334.37 560.642 334.418 560.787 334.466C564.727 335.042 568.715 336.579 571.406 339.604Z" fill="#ECAB4B"/>
<path d="M536.665 321.358C538.058 321.022 539.5 320.829 540.941 320.733C545.699 320.397 550.504 320.541 555.261 321.214C556.462 321.358 557.615 321.55 558.817 321.79C559.489 326.015 560.162 330.193 560.835 334.37V334.466C560.691 334.418 560.546 334.418 560.402 334.37C556.27 333.794 552.089 334.082 547.909 334.082C542.335 334.082 536.713 333.602 531.235 332.545L531.427 331.585C529.217 329.424 530.082 325.487 532.388 323.47C533.542 322.366 535.031 321.742 536.665 321.358Z" fill="#EE3670"/>
<path d="M555.213 321.165C550.456 320.493 545.651 320.349 540.893 320.685C539.452 320.781 538.01 320.973 536.617 321.309C535.32 317.612 536.425 313.147 539.404 310.554C542.575 307.769 547.669 307.433 551.224 309.738C554.78 312.042 556.51 316.844 555.213 320.877V321.165Z" fill="#EE3670"/>
<path d="M525.133 167.225C529.649 172.795 531.187 180.814 528.112 187.2C525.709 192.193 520.904 195.699 515.955 198.196C511.006 200.692 505.672 202.421 500.819 205.158C493.131 209.479 487.028 216.106 481.022 222.588C467.663 237.137 454.257 251.686 440.899 266.235L439.121 266.379C438.544 264.362 437.631 262.489 436.19 260.953C431.241 255.623 422.063 256.823 416.537 261.481C411.011 266.139 405.149 273.533 403.419 280.544C401.641 287.698 403.467 295.573 408.032 301.335L406.014 302.871C372.426 309.545 334.754 317.516 301.166 324.19C306.26 316.412 304.145 305.368 297.995 298.406C291.844 291.443 282.763 285.441 273.441 285.921C268.635 286.161 264.743 290.291 263.254 294.9C262.821 296.245 262.533 297.637 262.389 299.03L261.62 298.886C253.019 291.155 242.063 286.69 231.348 282.368C218.038 277.038 204.727 271.661 191.417 266.331C185.747 264.074 180.029 261.769 173.975 261.193C168.353 260.617 162.731 261.529 157.061 261.865C151.439 262.153 145.48 261.721 140.675 258.744C134.669 255.047 131.546 247.652 132.17 240.642L132.651 240.69C133.996 232.671 142.645 227.966 150.718 226.813C164.989 224.797 178.876 230.078 192.378 235.6C194.973 236.657 197.568 237.713 200.163 238.769C246.436 257.304 297.61 263.546 347.007 256.679C399.527 249.333 448.203 218.891 484.241 179.949C494.524 168.858 510.429 163.816 525.133 167.321V167.225Z" fill="#F68632"/>
<path d="M488.085 342.389C488.998 336.531 489.335 330.577 489.142 324.623L491.449 324.527C505.672 335.522 523.499 341.668 541.518 341.716C547.765 341.716 554.06 341.044 560.162 342.437C566.216 343.781 572.223 347.766 573.809 353.769L574.097 353.865C573.616 355.737 572.799 357.514 571.742 359.098C567.85 364.908 561.315 368.462 554.684 370.67C548.197 372.783 541.038 373.839 534.599 371.631C529.746 369.95 525.709 366.541 521.481 363.564C511.342 356.361 499.666 351.368 487.413 348.967L486.932 348.679C487.941 346.758 488.085 344.549 488.085 342.389Z" fill="#F68632"/>
<path d="M488.422 150.467C487.124 146.098 485.923 141.392 487.461 137.119C488.806 133.422 492.314 130.589 496.206 130.012C500.146 129.436 504.278 131.117 506.681 134.238C509.036 137.359 509.564 143.457 507.93 147.01V147.106C501.492 146.578 495.005 148.643 488.95 151.092C488.854 151.092 488.806 151.14 488.71 151.188L488.422 150.467Z" fill="#EE3670"/>
<path d="M487.941 340.804C486.692 325.727 479.965 311.13 469.249 300.422L468.769 300.278C470.066 299.078 470.162 297.061 470.114 295.333C470.066 289.283 470.018 283.28 469.97 277.23C469.97 275.214 469.826 272.957 468.625 271.468L469.874 270.508C479.292 282.848 485.442 297.541 487.941 312.811C488.566 316.7 488.95 320.637 489.142 324.575C489.335 330.529 488.998 336.483 488.085 342.341H488.037C487.989 341.86 487.941 341.332 487.941 340.804Z" fill="#EE3670"/>
<path d="M488.037 342.389C488.133 344.549 487.941 346.758 486.884 348.679C484.914 352.28 480.541 353.721 476.601 354.825C471.892 356.121 467.183 357.466 462.474 358.762C457.381 360.203 452.287 361.595 447.242 363.036C445.656 342.677 444.118 322.366 442.533 302.007C449.836 301.815 457.092 301.671 464.396 301.479C465.982 301.431 467.712 301.335 468.817 300.278L469.297 300.422C479.965 311.178 486.692 325.727 487.989 340.804C487.941 341.332 487.989 341.86 488.037 342.389Z" fill="#ECAB4B"/>
<path d="M485.971 163.864C484.433 164.824 483.088 165.977 481.79 167.273L481.55 167.033C478.955 163.528 479.244 158.198 482.271 155.029C484.001 153.204 486.355 152.1 488.71 151.188C488.806 151.188 488.854 151.14 488.95 151.092C495.005 148.691 501.491 146.578 507.93 147.106C508.555 147.154 509.18 147.25 509.804 147.346C512.207 147.779 514.658 148.691 516.051 150.612C517.781 153.108 517.3 157.862 516.724 160.839C512.303 158.822 507.21 158.006 502.308 158.39C496.542 158.822 490.872 160.695 485.971 163.864Z" fill="#EE3670"/>
<path d="M478.571 486.15C479.148 490.999 479.724 496.329 477.033 500.458C473.958 505.308 467.615 506.797 461.945 507.901C420.429 515.728 378.961 523.506 337.445 531.333C329.276 532.869 319.81 534.07 313.515 528.644C307.941 523.794 307.076 515.632 306.644 508.237C305.154 483.605 303.617 458.924 302.127 434.292L301.839 433.62C305.25 432.179 308.71 430.883 312.218 429.826L312.458 430.547C315.149 455.947 317.792 481.348 320.435 506.749C320.819 510.638 321.396 514.911 324.231 517.6C328.123 521.346 334.321 520.577 339.607 519.617C376.03 512.703 412.501 505.788 448.924 498.874C454.257 497.866 460.071 496.569 463.483 492.296C466.943 487.926 466.75 481.732 466.27 476.162C463.771 446.872 458.486 417.822 450.605 389.493L449.308 389.589C448.635 380.706 447.962 371.871 447.29 363.036C452.383 361.595 457.477 360.203 462.522 358.762L462.57 358.954C467.856 401.353 473.189 443.751 478.571 486.15Z" fill="#EE3670"/>
<path d="M470.162 295.333C470.162 297.109 470.114 299.078 468.817 300.278C467.663 301.335 465.982 301.431 464.396 301.479C457.092 301.671 449.836 301.815 442.533 302.007C441.812 292.788 441.091 283.617 440.418 274.446C440.274 272.669 440.13 270.796 439.794 269.02L440.947 268.636C448.443 268.972 455.939 269.356 463.435 269.692C465.069 269.788 466.847 269.884 468.096 270.892C468.336 271.085 468.528 271.277 468.673 271.469C469.874 272.957 470.018 275.214 470.018 277.231C470.066 283.233 470.114 289.283 470.162 295.333Z" fill="#A7DDE8"/>
<path d="M442.485 302.007C444.07 322.366 445.608 342.677 447.194 363.036C447.866 371.871 448.539 380.754 449.212 389.589C449.308 390.645 449.356 391.653 449.452 392.662C449.884 397.992 450.173 403.706 447.338 408.171C443.446 414.221 435.469 415.71 428.358 416.67C404.14 419.935 378.625 419.647 353.926 421.952L353.398 416.334C375.838 412.781 398.181 408.843 420.429 404.426C426.051 403.321 432.25 401.833 435.469 397.031C438.352 392.71 437.872 387.044 437.247 381.858C436.478 375.52 435.709 369.182 434.989 362.844C434.076 355.305 433.163 347.766 432.25 340.276C431.097 330.913 429.703 320.925 423.264 314.059C419.228 309.786 413.702 307.241 409.57 303.063C408.993 302.487 408.512 301.911 408.032 301.287C403.419 295.573 401.641 287.65 403.419 280.496C405.197 273.485 411.011 266.091 416.537 261.433C422.063 256.776 431.289 255.575 436.19 260.905C437.631 262.441 438.544 264.314 439.121 266.331C439.361 267.195 439.602 268.059 439.746 268.972C440.082 270.748 440.226 272.621 440.37 274.398C441.091 283.665 441.812 292.836 442.485 302.007Z" fill="#EE3670"/>
<path d="M406.014 302.871L408.032 301.335C408.512 301.959 409.041 302.535 409.57 303.111C413.702 307.289 419.228 309.834 423.264 314.107C429.703 320.973 431.097 330.961 432.25 340.324C433.163 347.863 434.028 355.401 434.989 362.892L432.634 363.18C396.788 370.718 360.894 378.209 325.048 385.748C323.414 386.084 321.732 386.468 320.05 386.804C316.11 387.62 311.785 388.388 308.23 386.516C303.569 384.019 302.175 378.113 301.262 372.927L301.406 372.879C297.13 357.274 296.938 340.564 300.734 324.815C300.878 324.623 301.07 324.383 301.214 324.191C334.754 317.516 372.378 309.546 406.014 302.871Z" fill="#ECAB4B"/>
<path d="M353.398 416.382L353.926 422C349.121 422.432 344.364 422.96 339.655 423.632L338.886 418.591C343.74 417.87 348.545 417.15 353.398 416.382Z" fill="#EE3670"/>
<path d="M325.288 387.14C327.162 392.47 326.537 398.52 323.654 403.369C322.02 406.106 319.762 408.363 318.128 411.052C316.494 413.741 315.485 417.15 316.687 420.079L316.927 421.712C311.401 422.48 305.875 423.2 300.349 423.872L300.253 423.296C299.1 415.517 295.592 408.315 293.19 400.824C290.787 393.382 289.538 384.931 292.949 377.825L292.325 376.864C295.064 375.04 298.091 373.647 301.262 372.831C302.175 378.017 303.569 383.923 308.23 386.42C311.785 388.292 316.11 387.524 320.05 386.708C321.684 386.372 323.366 385.987 325.048 385.651L325.288 387.14Z" fill="#EE3670"/>
<path d="M301.358 372.879L301.214 372.927C298.043 373.743 294.968 375.136 292.277 376.96C288.433 379.505 285.165 383.01 282.859 386.996C282.33 380.754 281.85 374.464 281.321 368.221C280.504 357.85 279.976 346.326 286.463 338.211C290.547 333.121 296.89 330.096 300.686 324.815C296.89 340.564 297.13 357.274 301.358 372.879Z" fill="#F68632"/>
<path d="M301.166 324.19C301.022 324.431 300.878 324.623 300.686 324.815C296.89 330.096 290.547 333.121 286.462 338.211C279.976 346.374 280.504 357.85 281.321 368.221C281.802 374.464 282.33 380.754 282.859 386.996C283.916 399.864 284.925 412.781 285.982 425.697C290.739 425.121 295.544 424.545 300.301 423.92C305.827 423.248 311.353 422.48 316.879 421.76C324.231 420.751 331.583 419.695 338.886 418.591L339.655 423.632C330.285 424.977 321.059 426.897 312.17 429.778C308.662 430.883 305.202 432.131 301.791 433.572C299.821 434.388 297.899 435.204 295.977 436.165C288.433 439.814 278.246 436.309 274.546 428.77C272.816 425.265 272.48 421.231 272.095 417.342C271.422 409.612 270.75 401.833 270.029 394.102C269.068 383.01 268.059 371.871 267.098 360.779C266.762 356.746 266.377 352.664 266.041 348.583C266.041 348.343 265.993 348.103 265.993 347.862C264.839 334.946 263.734 322.03 262.581 309.113C262.293 305.752 262.004 302.295 262.341 298.934C262.485 297.541 262.773 296.149 263.206 294.804C264.695 290.195 268.587 286.065 273.393 285.825C282.714 285.345 291.796 291.347 297.947 298.31C304.097 305.368 306.26 316.412 301.166 324.19Z" fill="#EE3670"/>
<path d="M267.146 360.779C268.107 371.871 269.116 383.011 270.077 394.102L269.549 394.15C263.638 397.464 258.737 402.649 255.854 408.795C254.124 412.541 253.019 416.622 250.424 419.839C246.868 424.209 241.054 426.129 235.528 426.994C227.456 428.194 218.71 427.474 212.031 422.864C207.514 419.743 204.247 414.605 203.526 409.276C204.968 405.962 207.995 403.225 211.359 401.593C215.779 399.432 220.825 398.76 225.678 397.848C230.531 396.983 235.576 395.735 239.468 392.71C241.439 391.173 243.024 389.253 244.658 387.332C252.01 378.497 259.314 369.662 266.617 360.827L267.146 360.779Z" fill="#F68632"/>
<path d="M241.054 378.401C243.072 376.288 244.898 373.936 246.724 371.631C252.827 363.756 258.929 355.881 265.032 347.959L265.993 347.863C265.993 348.103 266.041 348.343 266.041 348.583C266.377 352.616 266.762 356.698 267.098 360.779L266.521 360.827C259.217 369.662 251.866 378.497 244.562 387.332C242.976 389.253 241.39 391.173 239.372 392.71C235.48 395.735 230.483 396.983 225.582 397.848C220.728 398.76 215.683 399.384 211.262 401.593C207.947 403.226 204.92 405.962 203.43 409.276C203.094 406.683 203.382 404.042 204.391 401.593C205.833 398.136 208.523 395.447 211.743 393.334C214.097 391.798 216.644 390.597 219.191 389.589C225.293 387.236 231.828 385.652 237.114 381.81C238.555 380.754 239.853 379.649 241.054 378.401Z" fill="#ECAB4B"/>
<path d="M238.411 371.151C239.709 371.727 240.574 373.023 240.91 374.416C241.246 375.712 241.15 377.105 241.054 378.449C239.853 379.649 238.555 380.802 237.21 381.81C231.924 385.651 225.389 387.236 219.287 389.589C216.74 390.597 214.145 391.798 211.839 393.334C210.638 390.021 208.764 383.827 210.638 380.898C211.791 379.121 213.857 378.113 215.827 377.249C216.98 376.768 218.134 376.288 219.287 375.808C224.14 373.935 229.089 372.399 234.183 371.199C234.856 371.054 235.528 370.862 236.201 370.862C236.97 370.766 237.691 370.814 238.411 371.151Z" fill="#EE3670"/>
<path d="M236.201 370.814C235.528 370.862 234.807 371.006 234.183 371.15C229.089 372.351 224.14 373.887 219.287 375.76C218.71 372.207 218.23 368.51 219.239 365.052C220.344 361.355 223.708 357.994 227.552 358.282C230.387 358.474 232.885 360.587 234.183 363.132C235.432 365.485 235.913 368.173 236.201 370.814Z" fill="#EE3670"/>
<path d="M525.037 167.321C510.333 163.768 494.428 168.858 484.145 179.949C448.107 218.843 399.479 249.333 346.911 256.68C297.514 263.546 246.388 257.304 200.066 238.77C197.472 237.713 194.925 236.657 192.282 235.6L194.06 231.231C194.541 231.375 195.021 231.519 195.55 231.615C222.891 237.713 250.376 243.859 278.342 245.732C343.788 250.149 410.627 230.223 463.051 190.753C470.835 184.895 474.871 174.284 481.742 167.321C483.04 166.025 484.385 164.872 485.923 163.912C490.776 160.743 496.446 158.87 502.26 158.486C507.162 158.15 512.207 158.918 516.676 160.935C519.27 162.135 521.721 163.72 523.739 165.785C524.22 166.265 524.652 166.745 525.085 167.321H525.037Z" fill="#ECAB4B"/>
<path d="M173.254 220.043C165.422 217.594 156.772 217.21 149.084 220.043C146.441 221.003 143.895 222.396 141.684 224.172L141.3 223.644C140.387 219.419 142.741 215.001 146.057 212.216C147.258 211.208 148.556 210.392 149.949 209.671C152.4 208.423 155.043 207.511 157.685 206.598C160.04 205.782 162.394 205.014 164.893 204.774C166.431 204.63 168.064 204.726 169.554 205.254C170.419 205.494 171.236 205.926 171.957 206.454C173.975 207.895 175.224 210.248 175.753 212.696C176.329 215.145 176.281 217.642 176.233 220.139L174.695 220.571C174.215 220.379 173.734 220.235 173.254 220.043Z" fill="#EE3670"/>
<path d="M169.554 205.254C168.064 204.774 166.431 204.63 164.893 204.774C162.394 205.014 160.04 205.782 157.685 206.599C155.043 207.511 152.4 208.423 149.949 209.672L149.565 208.951C149.421 205.302 149.228 201.509 150.334 198.004C151.439 194.498 154.13 191.281 157.685 190.513C161.097 189.793 164.797 191.521 166.911 194.306C169.025 197.091 169.89 200.693 169.89 204.198L169.554 205.254Z" fill="#EE3670"/>
<path d="M150.718 226.765C142.693 227.918 134.044 232.623 132.651 240.642L132.17 240.594C132.218 239.442 132.41 238.289 132.699 237.185C134.044 231.999 137.36 227.438 141.636 224.172C143.895 222.396 146.393 221.051 149.036 220.043C156.724 217.21 165.374 217.594 173.206 220.043C173.686 220.187 174.167 220.379 174.647 220.571C181.375 223.164 187.237 229.022 194.108 231.135L192.33 235.504C178.876 229.982 164.941 224.701 150.718 226.765Z" fill="#ECAB4B"/>
</svg>
