<svg width="1080" height="1080" viewBox="0 0 1080 1080" fill="none" xmlns="http://www.w3.org/2000/svg">
<g clip-path="url(#clip0)">
<rect width="1080" height="1080" fill="none"/>
<path d="M456.87 990.55C437.187 1002.62 416.508 1012.99 395.06 1021.55C366.32 1032.99 324.06 1049.67 303.85 1015.15C297.3 1003.95 295.53 990.45 296.66 977.53C298.29 958.82 287.23 949.97 276.18 935.83C274.85 934.14 273.47 932.28 273.4 930.13C273.31 927.56 275.12 925.36 276.8 923.41C295.332 901.87 310.743 877.832 322.58 852C342.26 809 300.46 797.06 267.34 784.33C256.95 780.33 230.69 773.18 224.34 763.76C215.81 751.21 227.28 741.48 221.26 727.14C216.26 715.14 201.72 711.14 189.79 705.94C171.64 698.05 146.56 681.34 150.39 658.2C152.29 646.74 161.34 637.99 169.89 630.12C182.389 618.711 193.869 606.233 204.2 592.83C218.31 574.35 232.48 555.83 243.73 535.44C239.04 484.81 235 429.96 249.73 381.28C260.73 344.75 280.02 308.28 298.14 274.86C301.66 268.37 305.49 261.55 311.92 257.92C316.81 255.16 322.63 254.6 328.24 254.48C360.856 253.904 392.492 265.632 416.85 287.33C448.02 315.33 463.39 356.33 481.5 394.1C494.5 421.16 509.38 447.26 521.67 474.64C529.41 491.9 535.42 536.69 560.01 538.12C566.32 538.49 572.29 535.56 578.1 533.12C607.5 520.55 641.93 518.07 671.45 530.36C700.97 542.65 724.34 570.84 727.01 602.71C729.17 628.61 718.25 653.8 705.3 676.33C698.39 688.33 690.56 701.15 692.06 714.91C694.54 737.64 712.06 749.49 704.45 772.52C696.26 797.38 679.15 819.98 662.04 839.47C651.45 851.53 640.55 863.33 628.91 874.38C603.56 898.44 574.91 918.75 546.44 938.97C517.66 959.26 486.39 972.46 456.87 990.55Z" fill="#A7DDE8"/>
<path d="M577.08 524.37C588.36 513.28 603.76 504.59 615.94 498.76C635.32 489.48 661.72 485.76 681.37 496.14C704.93 508.54 718 535 723.59 560C729.18 585 731.74 612.81 725.71 637.79C712 694.62 673.87 730.19 618.16 745.88C610.1 748.15 601.61 750 593.41 748.3C566.15 742.65 561.87 691.38 562.77 669.64C563.21 659.27 564.77 649.86 568.6 640.35C572.43 630.84 577.6 621.91 575.98 611.06C574.55 601.57 570.78 592.58 567.53 583.61C563.05 571.26 559.33 557.67 563.32 545.15C565.76 537.52 570.77 530.57 577.08 524.37Z" fill="#A7DDE8" stroke="#A7DDE8" stroke-width="2" stroke-miterlimit="10"/>
<path d="M585 687.07C582 678.84 588.71 670.63 589.35 662.15C590.08 652.31 574.68 628.02 591.18 623.01C595.75 621.63 615.63 624.01 607.28 612.26C605.1 609.2 601.4 607.71 598.12 605.89C554.78 581.8 587.19 530.12 622.44 519.51C639.74 514.31 663.26 515.72 678.25 526.86C692.61 537.54 700.44 558.23 706.25 574.54C713.67 595.54 716.25 618.38 711.08 640.17C706.08 661.17 694.45 680 680.56 696.47C668.19 711.15 643.66 734.12 623.63 718.93C618.23 714.84 614.89 708.51 609.53 704.36C602.47 698.9 591.45 697.61 586.37 689.72C585.818 688.889 585.359 688.001 585 687.07Z" fill="#F68632" stroke="#A7DDE8" stroke-width="2" stroke-miterlimit="10"/>
<path d="M628.8 533.36C637.539 533.649 646.094 535.948 653.8 540.08C667.97 547.6 678.9 560.26 686.88 574.18C689.46 578.69 713.81 630.94 707.45 633.18C708.84 632.7 710.88 631.65 711.68 630.29C712.98 628.07 711.68 622.09 711.48 619.58C711.031 612.168 710.149 604.789 708.84 597.48C703.68 568.65 692.84 535.64 665.29 520.84C648.9 512 631.7 513.14 616 522.18C613.11 523.85 590.28 536.18 602.45 538.08C610.01 539.29 618.96 533.38 627.16 533.34C627.69 533.34 628.24 533.34 628.8 533.36Z" fill="#EE3670"/>
<path d="M594.28 602C588.6 598.52 579.21 593.28 578.28 586C585.28 582.29 593.99 589.75 599.93 592.88C618.5 602.67 642 596.54 659.6 608.88C675.06 619.7 678.35 641.37 669.92 657.61C665.227 666.504 657.467 673.393 648.08 677C637.19 681.13 637.34 673.93 635.88 665C633.67 651.65 619.08 647.26 615.15 635.08C626.96 637.34 635.62 641.68 645.6 647.98C653.1 652.71 665.6 651.98 664.53 640.34C662.93 622.77 641.92 620.86 628.72 617.44C618.993 614.936 609.663 611.085 601 606C599.28 605 596.88 603.62 594.28 602Z" fill="#EE3670"/>
<path d="M296.92 860.86C296.15 864.52 295.08 868.25 295.76 871.93C296.44 875.61 299.6 879.16 303.31 878.76C305.96 878.47 307.99 876.34 309.77 874.35L328 853.91C332.07 849.35 336.24 844.6 338 838.75C341.32 827.88 335.22 815.95 326.37 808.75C317.52 801.55 306.37 798.12 295.66 794.31C291.07 792.68 271.31 781.56 270.13 789.1C269.48 793.25 283.54 804.61 286.23 808.68C296.26 823.88 300.69 843 296.92 860.86Z" fill="#ECAB4B"/>
<path d="M260.9 759.89L285.5 770.89C295.67 775.42 305.97 780.03 314.66 786.99C323.35 793.95 330.41 803.64 331.83 814.69C301.34 791.38 253.83 802.55 223.93 778.48C214.83 771.15 208.19 756.48 221.25 750.33C231.76 745.31 251.66 755.77 260.9 759.89Z" fill="#EE3670"/>
<path d="M275.77 885.88C273.23 887.88 270.63 889.88 268.88 892.61C267.557 894.782 266.633 897.173 266.15 899.67C264.65 906.828 265.062 914.254 267.344 921.203C269.626 928.151 273.698 934.375 279.15 939.25C279.963 940.068 280.967 940.673 282.07 941.01C284.86 941.65 287.31 939.19 289.07 936.94C309.14 911.4 334 874.12 337.1 841C322 836 287.53 876.63 275.77 885.88Z" fill="#F68632"/>
<path d="M759.32 814.11C783.6 742.23 856.32 700.85 891.15 635.11C925.84 569.65 932.89 492.96 929.15 420.05C925.79 354.57 913.48 287.59 878.01 232.45C827.13 153.35 732.27 108.48 638.29 105.82C582.07 104.22 526.45 116.76 474.73 138.35C447.96 149.53 420.73 159.82 395.21 173.73C382.31 180.73 369.76 188.63 358.5 198.12C352.76 202.96 326.5 223.9 345.35 225.88C402.54 231.88 455.92 260.09 485.99 308.12C507.58 342.63 514.6 360.76 527.07 399.35C532.91 417.35 554.07 457.35 573.9 464.44C627.9 483.78 667.16 417.34 716 473.75C746.11 508.53 760.83 554.24 759 599.99C756.93 651.63 731.63 698.8 728.14 750.2C726.39 775.7 741.11 796.18 759.32 814.11Z" fill="#F68632"/>
</g>
<defs>
<clipPath id="clip0">
<rect width="1080" height="1080" fill="white"/>
</clipPath>
</defs>
</svg>
