<svg width="1080" height="1080" viewBox="0 0 1080 1080" fill="none" xmlns="http://www.w3.org/2000/svg">
<rect width="1080" height="1080" fill="white"/>
<path d="M285.87 170.67C285.57 170.6 269.13 247.95 267.87 255C262.65 283.92 259.18 313.36 260.78 342.79C263.4 390.74 278.2 443.3 327.06 462.79C330.58 464.316 334.302 465.326 338.11 465.79C343.53 466.28 348.93 465.01 354.2 463.68C386.2 455.59 416.1 441.22 447.92 433.21C468.26 428.08 488.4 421.55 508.92 417.21C529.66 412.84 551.54 410.38 569.86 398.84C581.53 391.48 590.81 380.97 601.19 371.84C627.52 348.77 694.79 312.36 721.62 351.23C727.7 360.03 730.62 370.46 731.81 380.98C732.81 390.26 728.67 401.74 738.28 407.52C742.86 410.28 748.38 410.9 753.67 411.72C785.079 416.606 814.468 430.267 838.45 451.13C852.65 463.53 863.15 468.76 876.98 453.82C888.51 441.36 895.09 425.16 903.44 410.61C915.553 389.51 927.31 368.213 938.71 346.72C940.95 342.48 943.26 337.82 942.37 333.1C941.48 328.38 937.37 324.65 932.81 322.91C920.17 318.07 904.03 316.7 890.7 313.55L793.7 290.65L535.08 229.53L323.81 179.63C311.16 176.64 298.53 173.6 285.87 170.67Z" fill="#F68632" stroke="#F68632" stroke-miterlimit="10"/>
<path d="M352.38 319.12C388.22 337.12 429.2 331.66 466.82 323.47C508.66 314.37 552.27 309.89 595.11 306.47C647.11 302.33 699.55 301.53 751.51 306.77C803.47 312.01 853.89 332.09 906.1 332C996.85 331.86 969.26 245.26 936.53 194C925.97 177.46 915.87 160.43 902.47 146.09C875.89 117.63 847.87 117.21 811.79 117.21H745.71C630.08 117.21 512.71 102.32 397.36 94.53C375.07 93.02 351.55 91.75 331.61 101.82C284.04 125.82 275.53 193.43 290.61 237.89C296.79 256.06 303.69 274.43 315.83 289.29C327 302.89 339.24 312.54 352.38 319.12Z" fill="#EE3670" stroke="#EE3670" stroke-width="3" stroke-miterlimit="10"/>
<path d="M622.37 431.65C622.37 431.65 622.37 431.58 622.37 431.53C622.15 428.31 611.04 428.53 600.32 429.47C598.546 429.617 596.767 429.258 595.19 428.434C593.612 427.611 592.301 426.356 591.409 424.816C590.516 423.276 590.079 421.515 590.148 419.736C590.218 417.958 590.79 416.236 591.8 414.77C599.871 403.198 608.55 392.063 617.8 381.41C626.21 371.7 658.37 336.41 673.57 343.66C683.04 348.2 685.34 373.84 687.66 382.94C692.76 403 690.6 427.62 710.23 437.66C731.978 448.788 753.054 461.183 773.35 474.78C809.03 498.68 827.05 541.11 824.89 583.88C823.737 605.916 817.738 627.427 807.32 646.88C795.32 669.18 773.11 681.88 759.84 703.39C744.32 728.59 736.76 758 732 787C724.21 834 716.83 879.5 704.91 925.69C702.7 934.24 700.36 942.9 695.85 950.49C683.78 970.86 661.14 975.12 639.36 975.24C638.696 975.246 638.046 975.047 637.5 974.67L516.5 891.13L516.15 890.92C479.62 872 442.84 853.5 406.64 834C406.117 833.714 405.683 833.287 405.388 832.769C405.092 832.25 404.947 831.66 404.968 831.063C404.989 830.467 405.175 829.888 405.505 829.391C405.836 828.895 406.298 828.499 406.84 828.25C422.391 820.964 437.237 812.261 451.19 802.25C469.77 789 487 773 498.32 753.18C512.55 728.27 516.61 698.99 516.58 670.18C516.575 669.57 516.746 668.971 517.071 668.454C517.397 667.938 517.864 667.526 518.416 667.267C518.969 667.008 519.585 666.913 520.19 666.993C520.795 667.074 521.364 667.326 521.83 667.72C531.75 675.65 552.39 681.01 559.72 683.43C581.953 690.635 605.646 692.108 628.6 687.71C646.6 684.39 665.13 675.55 681.45 667.71C693.8 661.78 739.27 635.71 701.53 628.52C663.79 621.33 624.19 616.58 585.67 617.96C548.89 619.29 509.61 625.31 475.05 609.01C452.76 598.49 435.51 578.54 426.89 555.58C415.67 525.68 423.99 505.37 451.64 489.9C481.2 473.419 513.573 462.59 547.1 457.97C564.07 455.59 623.6 460 622.37 431.65Z" fill="#EE3670"/>
<path d="M144.23 397.51L157.84 358.9L151.04 348.79L188.51 302.13H208.18L260.38 263.33L266.75 261.3L260.77 342.79L225.05 375.21L171.64 421.87H166.58L160.94 431.43" fill="#231F20"/>
<path d="M516.29 986.49C516.29 905.06 499.06 824.73 467.46 749.77C414.92 625.08 333.79 515.83 296.82 384C289.04 356.24 281.31 312.41 289.14 277.42C302.37 218.29 358.22 223.67 405.89 225.01" stroke="#231F20" stroke-width="5" stroke-miterlimit="10"/>
<path d="M468.19 276.22C534.24 281 600.33 278.56 666.51 279.42C712.51 280.01 758.51 281.1 804.51 281.79C827.39 282.13 850.65 281.03 873.51 282.43C895.62 283.79 909.38 280.99 913.12 256.69C894.86 215.85 876.24 175.14 858.43 134.09C858.101 132.698 857.271 131.475 856.097 130.656C854.924 129.837 853.49 129.479 852.07 129.65C767.603 123.65 683.107 118.027 598.58 112.78C555.913 110.06 513.227 107.367 470.52 104.7C450.52 103.45 430.52 101.59 410.52 101.02C400.44 100.73 385.43 99.85 378.93 109.49C375.24 114.96 376.07 122.07 377.78 128.08C381.48 141.03 385.29 153.94 389.05 166.87L405.89 225C410.39 240.51 414.82 259 429.2 268.63C436.07 273.22 444.67 274.2 452.91 274.95C457.997 275.417 463.09 275.84 468.19 276.22Z" fill="#A7DDE8" stroke="#A7DDE8" stroke-width="2" stroke-miterlimit="10"/>
<path d="M576.35 528.87C576.25 528.933 576.175 529.029 576.14 529.142C576.104 529.255 576.11 529.377 576.155 529.486C576.201 529.595 576.283 529.684 576.389 529.738C576.494 529.792 576.615 529.807 576.73 529.78C599.91 524.61 623.18 518.08 646.91 516.21C675.28 513.98 703.38 519.02 730.56 526.64C730.72 526.686 730.891 526.679 731.047 526.62C731.203 526.561 731.335 526.452 731.424 526.311C731.513 526.171 731.554 526.005 731.541 525.838C731.527 525.672 731.46 525.515 731.35 525.39C729.28 523.05 726.55 519.48 725.75 518.55C718.45 510 711.34 501.43 700.55 497.24C690.63 493.39 680.23 494.29 669.86 494C658.86 493.69 647.78 492.85 636.99 495.65C633.516 496.637 630.137 497.929 626.89 499.51C609 507.69 592.72 518.12 576.35 528.87Z" fill="#F68632" stroke="#F68632" stroke-width="2" stroke-miterlimit="10"/>
<path d="M563.24 532.78C563.249 532.848 563.281 532.912 563.33 532.96C563.67 533.35 564.83 532.96 565.22 532.91C566.756 532.395 568.196 531.628 569.48 530.64C570.16 530.19 570.81 529.71 571.48 529.27C575.58 526.68 579.3 523.52 583.27 520.75C587.24 517.98 591.6 515.14 595.86 512.48C604.39 507.15 613.1 502.11 621.65 496.82C623.11 495.92 624.55 495.01 626 494.1C639.58 485.47 657.14 489.1 672.47 488.1C684.47 487.25 697.38 484.1 707.04 493.27C710.04 496.15 712.62 499.51 715.63 502.42C718.86 505.54 722.63 508.13 725.63 511.49C726.87 512.87 728.06 514.72 729.19 516.14C732.28 510 729.42 497.21 726.19 491.35C723.19 486.06 718.86 481.72 714.99 477.06C711.47 472.82 708.25 468.19 703.73 465.06C696.78 460.23 685.73 458.06 677.35 458.47C672.91 458.68 668.81 460.72 664.35 460.62C656.13 460.43 649.1 457.23 640.65 459.27C633.65 460.97 627.53 465.27 622.26 470.17C613.54 478.28 605.15 486.74 597 495.42C589.81 503.09 582.75 510.88 575.72 518.7C572.2 522.6 568.687 526.51 565.18 530.43C564.66 530.84 563.12 532.1 563.24 532.78Z" fill="#A7DDE8" stroke="#A7DDE8" stroke-width="2" stroke-miterlimit="10"/>
<path d="M167.33 443.78C184.16 434.71 192.63 409.89 213.66 409.36C245.46 408.55 272.09 461.94 284.54 485.6C312.17 538.1 348.3 613.11 325.75 672.93C313.19 706.27 266.75 766.17 227.11 736.66C201.47 717.57 194.58 688.12 191.24 658.18L167.33 443.78Z" fill="#F68632"/>
<path d="M173.72 460.64L174.14 460.59C179.85 460.15 193.21 480.49 196.36 484.74C210.36 503.74 220.61 525.4 227.79 547.83C238.49 581.24 242.73 616.34 245.79 651.29C247.32 669.05 251.29 707.35 230.7 717C223.12 720.55 214.26 716.23 207.56 711.22C165.07 679.41 164.38 629.62 162.17 581.32C161.21 560.08 160.243 538.84 159.27 517.6C158.97 511.02 154.77 493.36 157.89 487.3C160.82 481.52 166.54 461.91 173.72 460.64Z" fill="#EE3670" stroke="#EE3670" stroke-width="2" stroke-miterlimit="10"/>
<path d="M144.23 397.51L173.5 456.91L158.87 499.09L203.31 586.04V662.66L152.84 647.17L112.38 500.81L144.23 397.51Z" fill="#231F20"/>
</svg>
