<?xml version="1.0" standalone="no"?>
<!DOCTYPE svg PUBLIC "-//W3C//DTD SVG 20010904//EN"
 "http://www.w3.org/TR/2001/REC-SVG-20010904/DTD/svg10.dtd">
<svg version="1.0" xmlns="http://www.w3.org/2000/svg"
 width="700.000000pt" height="700.000000pt" viewBox="0 0 700.000000 700.000000"
 preserveAspectRatio="xMidYMid meet">
<metadata>
Created by potrace 1.14, written by Peter Selinger 2001-2017
</metadata>
<g transform="translate(0.000000,700.000000) scale(0.100000,-0.100000)"
fill="#000000" stroke="none">
<path d="M5724 6879 c-63 -48 -244 -222 -309 -299 -474 -556 -719 -1230 -718
-1970 0 -106 10 -303 17 -350 4 -25 17 -127 21 -165 2 -11 5 -31 8 -45 3 -14
8 -43 12 -65 15 -88 80 -327 118 -435 171 -491 504 -974 864 -1257 97 -76 83
-79 214 54 122 126 317 375 406 519 73 119 108 180 168 299 40 77 88 178 107
225 35 83 125 338 132 376 2 10 12 48 21 84 9 36 19 74 21 85 2 11 7 34 11 50
9 39 8 33 17 88 4 27 9 56 11 65 1 10 6 44 10 77 3 33 8 75 11 93 15 117 20
385 10 528 -29 426 -144 836 -333 1194 -67 126 -67 126 -159 265 -155 234
-386 489 -546 602 l-46 33 -68 -51z"/>
<path d="M1580 5564 c-14 -2 -62 -9 -107 -15 l-82 -11 -8 -56 c-15 -107 -7
-486 12 -577 3 -11 7 -36 10 -55 2 -19 7 -46 10 -60 2 -14 12 -61 21 -105 8
-44 20 -94 25 -111 5 -17 11 -40 13 -50 9 -41 70 -224 108 -319 262 -662 818
-1263 1479 -1603 269 -138 507 -219 839 -286 8 -2 37 -7 63 -10 27 -4 57 -9
68 -11 134 -26 628 -26 702 0 6 2 25 7 41 9 16 3 31 7 34 10 11 12 3 315 -12
391 -2 11 -7 47 -11 80 -4 32 -8 67 -10 76 -2 9 -6 32 -9 50 -37 217 -103 452
-193 679 -235 597 -645 1113 -1170 1471 -56 38 -104 69 -107 69 -3 0 -24 13
-48 29 -51 34 -275 148 -368 186 -180 76 -460 157 -617 180 -21 4 -45 8 -53
10 -8 2 -44 7 -80 10 -36 4 -76 9 -90 12 -29 6 -422 12 -460 7z"/>
<path d="M2139 2256 c-2 -2 -40 -6 -84 -10 -83 -6 -98 -8 -225 -27 -500 -74
-1032 -319 -1430 -657 -128 -109 -340 -335 -340 -362 0 -33 285 -339 415 -446
132 -108 302 -224 440 -301 146 -82 420 -204 490 -219 11 -2 31 -8 45 -13 35
-14 169 -52 200 -58 14 -2 50 -10 80 -18 58 -14 67 -16 220 -39 229 -36 659
-41 845 -11 17 3 46 7 65 10 314 37 707 162 1007 320 329 174 664 445 846 684
l47 61 -38 42 c-222 253 -582 518 -952 703 -268 135 -611 251 -850 290 -19 3
-57 10 -85 15 -27 5 -77 12 -110 16 -33 4 -69 9 -80 11 -24 5 -500 14 -506 9z"/>
</g>
</svg>
