<?xml version="1.0" standalone="no"?>
<!DOCTYPE svg PUBLIC "-//W3C//DTD SVG 20010904//EN"
 "http://www.w3.org/TR/2001/REC-SVG-20010904/DTD/svg10.dtd">
<svg version="1.0" xmlns="http://www.w3.org/2000/svg"
 width="208.000000pt" height="208.000000pt" viewBox="0 0 208.000000 208.000000"
 preserveAspectRatio="xMidYMid meet">
<metadata>
Created by potrace 1.11, written by Peter Selinger 2001-2013
</metadata>
<g transform="translate(0.000000,208.000000) scale(0.100000,-0.100000)"
fill="#000000" stroke="none">
<path d="M1022 1863 c-31 -28 -122 -188 -122 -215 0 -32 39 -55 67 -39 27 14
133 193 133 224 0 16 -8 28 -25 35 -32 15 -29 15 -53 -5z"/>
<path d="M1148 1693 c-17 -20 -281 -479 -291 -504 -15 -42 54 -78 83 -44 11
13 116 190 192 325 11 19 39 67 61 105 22 39 40 78 39 88 -3 45 -55 63 -84 30z"/>
<path d="M798 1493 c-29 -34 -118 -194 -118 -213 0 -21 25 -50 45 -50 23 0 52
34 104 123 55 95 60 117 35 141 -20 21 -47 20 -66 -1z"/>
<path d="M1233 1478 c-30 -34 -323 -563 -323 -583 0 -21 28 -44 52 -45 9 0 28
15 41 33 38 50 317 552 317 569 0 19 -31 48 -52 48 -8 0 -24 -10 -35 -22z"/>
<path d="M1345 1304 c-47 -47 -55 -116 -15 -129 32 -10 55 3 78 44 27 47 27
63 4 84 -23 21 -46 22 -67 1z"/>
<path d="M594 1142 c-16 -10 -124 -205 -124 -223 1 -37 46 -61 76 -41 17 11
124 204 124 224 0 35 -47 60 -76 40z"/>
<path d="M1454 1087 c-54 -81 -134 -224 -134 -238 0 -20 31 -49 52 -49 8 0 22
8 32 18 26 26 146 235 146 254 0 19 -36 48 -60 48 -8 0 -25 -15 -36 -33z"/>
<path d="M1246 1091 c-30 -33 -306 -495 -306 -512 0 -19 31 -49 51 -49 8 0 21
6 29 13 22 17 310 500 310 518 0 20 -31 49 -52 49 -8 0 -23 -9 -32 -19z"/>
<path d="M775 1064 c-47 -47 -55 -116 -15 -129 32 -10 55 3 78 44 27 47 27 63
4 84 -23 21 -46 22 -67 1z"/>
<path d="M1589 933 c-12 -3 -108 -157 -246 -393 -33 -57 -34 -94 -2 -110 41
-23 58 0 271 368 39 67 46 86 39 106 -10 24 -33 35 -62 29z"/>
<path d="M639 837 c-9 -7 -18 -16 -20 -22 -2 -5 -26 -50 -52 -98 -36 -64 -47
-94 -43 -112 7 -26 35 -40 64 -31 18 6 132 202 132 228 0 18 -32 48 -51 48 -8
0 -21 -6 -30 -13z"/>
<path d="M400 767 c-8 -7 -20 -21 -27 -32 -6 -11 -72 -122 -147 -246 -75 -125
-136 -233 -136 -241 0 -8 9 -23 20 -33 41 -37 57 -19 218 248 83 139 152 260
152 268 0 19 -31 49 -51 49 -8 0 -21 -6 -29 -13z"/>
<path d="M816 749 c-36 -42 -43 -75 -21 -99 32 -35 69 -21 98 37 22 41 21 56
-1 76 -27 25 -47 21 -76 -14z"/>
<path d="M1223 718 c-16 -19 -104 -166 -200 -338 -11 -19 -30 -51 -41 -70 -27
-43 -27 -62 -2 -85 41 -37 57 -19 198 223 72 126 132 236 132 245 0 21 -27 47
-49 47 -10 0 -27 -10 -38 -22z"/>
<path d="M1685 720 c-29 -32 -95 -144 -95 -161 0 -20 31 -49 52 -49 20 0 43
26 90 103 43 70 46 87 20 110 -25 22 -45 21 -67 -3z"/>
<path d="M686 539 c-36 -42 -43 -75 -21 -99 29 -32 57 -25 88 22 31 48 34 70
11 92 -24 24 -50 19 -78 -15z"/>
<path d="M1783 528 c-26 -30 -153 -261 -153 -280 0 -19 32 -48 52 -48 8 0 24
10 35 22 27 31 153 262 153 281 0 21 -27 47 -49 47 -10 0 -27 -10 -38 -22z"/>
<path d="M443 488 c-29 -33 -133 -211 -133 -228 1 -24 26 -50 47 -50 27 0 51
29 117 140 60 103 65 120 40 144 -22 22 -47 20 -71 -6z"/>
<path d="M874 452 c-16 -10 -114 -187 -114 -204 0 -8 9 -23 20 -33 28 -25 62
-13 87 32 95 173 94 171 67 197 -16 17 -42 20 -60 8z"/>
<path d="M1505 410 c-29 -32 -95 -144 -95 -161 0 -19 31 -49 51 -49 23 1 42
22 87 96 45 76 49 89 28 117 -18 23 -49 22 -71 -3z"/>
<path d="M1908 356 c-8 -7 -25 -34 -38 -59 -22 -41 -23 -48 -10 -71 13 -25 43
-34 66 -18 16 11 64 96 64 115 0 38 -55 61 -82 33z"/>
<path d="M575 334 c-47 -47 -55 -116 -15 -129 32 -10 55 3 78 44 26 46 27 64
6 85 -20 20 -48 20 -69 0z"/>
<path d="M1239 337 c-19 -15 -49 -70 -49 -91 0 -21 45 -49 67 -42 19 6 63 75
63 100 0 20 -28 46 -48 46 -9 0 -24 -6 -33 -13z"/>
</g>
</svg>
