<?xml version="1.0" standalone="no"?>
<!DOCTYPE svg PUBLIC "-//W3C//DTD SVG 20010904//EN"
 "http://www.w3.org/TR/2001/REC-SVG-20010904/DTD/svg10.dtd">
<svg version="1.0" xmlns="http://www.w3.org/2000/svg"
 width="1080.000000pt" height="1080.000000pt" viewBox="0 0 1080.000000 1080.000000"
 preserveAspectRatio="xMidYMid meet">
<metadata>
Created by potrace 1.11, written by Peter Selinger 2001-2013
</metadata>
<g transform="translate(0.000000,1080.000000) scale(0.100000,-0.100000)"
fill="#000000" stroke="none">
<path d="M4590 9995 c0 -6 38 -105 50 -130 5 -11 53 -128 105 -260 53 -132
100 -249 105 -260 20 -45 70 -170 70 -177 0 -3 13 -35 28 -70 16 -35 35 -79
42 -98 7 -19 18 -48 25 -65 8 -16 23 -55 34 -85 12 -30 26 -64 31 -75 15 -32
151 -369 153 -380 2 -5 5 -14 9 -20 3 -5 22 -52 42 -103 20 -52 42 -108 50
-125 8 -18 26 -63 41 -102 15 -38 33 -83 40 -100 8 -16 28 -66 45 -110 17 -44
34 -87 38 -95 5 -13 4 -13 -9 0 -8 8 -133 168 -279 355 -145 187 -282 363
-304 391 -23 28 -52 65 -66 84 -14 18 -86 111 -160 206 -74 95 -193 247 -264
338 -114 146 -139 171 -167 168 -4 -1 -172 -4 -375 -7 -203 -4 -457 -8 -564
-10 -107 -2 -375 -6 -595 -10 -220 -4 -462 -8 -538 -9 -76 -2 -142 -7 -145
-12 -4 -5 -54 -47 -112 -94 -58 -46 -110 -89 -117 -95 -6 -5 -112 -92 -235
-192 -122 -100 -327 -266 -454 -370 -127 -103 -250 -204 -274 -223 -24 -19
-58 -48 -75 -63 l-30 -28 40 5 c22 3 69 8 105 11 36 4 81 8 100 10 19 3 67 7
105 10 39 3 81 8 95 10 14 2 59 7 100 11 41 3 86 8 100 9 14 2 59 6 100 10 41
4 86 8 100 10 44 5 153 16 205 21 28 2 66 6 85 9 19 2 69 7 110 10 41 3 86 8
100 10 14 2 57 7 95 10 39 3 86 8 105 10 19 2 64 7 100 10 36 3 76 8 90 10 14
2 63 7 110 10 47 4 92 8 100 10 8 2 51 6 95 10 44 4 91 8 105 10 14 1 54 6 90
9 36 4 78 8 94 10 19 2 60 -11 115 -36 116 -53 128 -59 421 -191 140 -63 284
-129 320 -145 36 -17 110 -50 165 -75 55 -25 129 -58 165 -75 90 -41 138 -63
260 -117 58 -26 128 -57 155 -70 136 -64 276 -125 287 -125 24 0 -16 -27 -127
-85 -125 -66 -233 -123 -320 -170 -33 -18 -105 -56 -160 -85 -55 -29 -122 -65
-150 -80 -27 -15 -95 -51 -150 -80 -55 -29 -122 -65 -150 -80 -77 -41 -228
-122 -351 -187 -61 -32 -121 -65 -134 -74 l-23 -15 308 -610 c1021 -2022 1015
-2009 1016 -1998 0 5 2 16 3 24 2 8 7 74 11 145 4 72 8 137 10 145 2 9 6 67
10 130 4 63 8 131 10 150 2 19 6 82 10 140 4 58 9 128 11 155 2 28 6 91 9 140
3 50 7 119 10 155 9 126 15 206 19 275 3 39 8 106 11 150 8 116 14 208 20 310
3 50 8 108 10 130 4 35 10 121 19 286 3 44 39 123 146 324 20 39 90 174 156
300 65 127 135 262 157 300 21 39 41 78 44 88 3 9 8 17 12 17 3 0 21 -73 40
-162 40 -196 35 -171 61 -292 26 -119 24 -108 50 -231 12 -55 23 -107 25 -115
2 -8 12 -60 24 -115 18 -92 73 -350 107 -505 8 -36 16 -75 18 -86 5 -25 43
-203 86 -404 16 -74 54 -254 85 -400 31 -146 69 -328 86 -405 17 -77 33 -151
35 -165 3 -14 25 -119 50 -234 l44 -209 0 -1669 0 -1668 212 2 212 3 26 45
c14 25 40 70 56 100 17 30 51 91 76 135 25 44 159 281 297 527 138 246 261
465 272 485 12 21 35 63 51 93 17 30 34 60 38 65 7 9 27 46 98 175 16 30 86
155 156 278 69 122 126 224 126 227 0 2 15 28 33 57 31 49 32 55 21 88 -7 19
-72 188 -144 375 -73 187 -172 445 -221 573 -121 316 -159 413 -169 437 -5 11
-32 81 -60 155 -67 177 -118 306 -139 353 l-17 39 -59 -58 c-33 -31 -86 -82
-117 -112 -32 -31 -60 -53 -63 -50 -5 5 -184 493 -305 828 -20 58 -200 553
-399 1100 -200 547 -363 999 -364 1004 -2 12 97 34 278 62 17 2 41 6 55 9 14
3 39 7 55 10 119 19 486 85 505 90 3 0 26 4 51 8 70 12 97 16 184 32 44 8 96
17 115 20 19 3 42 8 50 10 9 3 92 -71 220 -197 113 -110 398 -391 634 -622
235 -232 484 -476 552 -543 68 -68 124 -118 124 -112 0 6 -14 71 -31 143 -17
72 -33 142 -35 155 -3 13 -21 92 -40 175 -19 83 -36 160 -38 171 -3 11 -12 52
-21 90 -8 39 -24 108 -35 155 -10 47 -26 117 -35 155 -9 39 -18 77 -20 85 -3
15 -58 256 -120 530 -20 85 -37 164 -40 175 -2 11 -22 100 -44 197 -23 98 -41
179 -41 180 0 2 -279 3 -620 3 -341 0 -620 1 -620 3 0 2 143 71 305 147 113
53 241 113 375 177 69 33 159 76 200 95 41 19 127 60 190 90 l114 54 61 -22
c33 -12 98 -36 145 -54 47 -18 452 -171 900 -340 448 -169 829 -313 845 -320
45 -19 115 -45 121 -45 5 0 -49 106 -151 295 -18 33 -51 95 -74 138 -76 142
-121 227 -160 300 -21 39 -62 117 -91 172 -29 55 -65 123 -80 150 -15 28 -53
100 -85 160 -32 61 -61 115 -66 120 -5 7 -337 10 -962 10 l-955 -1 -72 -59
c-40 -33 -87 -71 -105 -85 -18 -14 -99 -80 -181 -146 -82 -67 -191 -156 -243
-198 -65 -53 -121 -110 -185 -192 -143 -183 -176 -226 -245 -316 -36 -45 -67
-85 -71 -88 -3 -3 -49 -61 -102 -130 -53 -69 -134 -173 -180 -231 -46 -59 -94
-121 -108 -139 -14 -18 -32 -41 -40 -51 -8 -10 -49 -61 -90 -114 -41 -53 -106
-136 -143 -183 -38 -48 -80 -102 -95 -121 -15 -19 -35 -44 -45 -55 -18 -21
-18 -21 -13 -1 8 34 45 208 51 244 3 19 19 98 35 175 16 78 31 152 34 166 42
219 189 930 196 946 7 17 264 188 496 329 18 11 63 39 101 63 37 24 75 47 83
52 8 6 105 51 215 101 110 50 238 109 283 130 46 21 88 39 92 39 5 0 12 5 15
10 4 7 -418 10 -1259 10 -696 0 -1266 -2 -1266 -5z"/>
</g>
</svg>
