<?xml version="1.0" standalone="no"?>
<!DOCTYPE svg PUBLIC "-//W3C//DTD SVG 20010904//EN"
 "http://www.w3.org/TR/2001/REC-SVG-20010904/DTD/svg10.dtd">
<svg version="1.0" xmlns="http://www.w3.org/2000/svg"
 width="1694.000000pt" height="1694.000000pt" viewBox="0 0 1694.000000 1694.000000"
 preserveAspectRatio="xMidYMid meet">
<metadata>
Created by potrace 1.11, written by Peter Selinger 2001-2013
</metadata>
<g transform="translate(0.000000,1694.000000) scale(0.100000,-0.100000)"
fill="#000000" stroke="none">
<path d="M8207 16724 c-1 -1 -67 -5 -147 -8 -80 -4 -161 -8 -180 -10 -19 -2
-71 -7 -115 -10 -44 -4 -93 -8 -110 -10 -16 -2 -57 -7 -90 -11 -33 -3 -71 -8
-85 -10 -47 -7 -105 -15 -150 -20 -52 -7 -56 -8 -220 -34 -69 -11 -183 -32
-255 -46 -71 -15 -141 -29 -155 -31 -183 -36 -599 -150 -820 -226 -63 -22
-122 -41 -130 -43 -17 -4 -272 -100 -370 -140 -67 -27 -83 -34 -183 -79 -32
-14 -60 -26 -62 -26 -7 0 -445 -216 -475 -234 -14 -8 -79 -45 -145 -82 -193
-107 -285 -164 -517 -316 -132 -87 -435 -301 -448 -317 -3 -3 -43 -35 -90 -70
-366 -278 -821 -709 -1131 -1071 -40 -47 -75 -87 -78 -90 -14 -11 -205 -255
-305 -390 -59 -79 -154 -214 -211 -300 -99 -150 -265 -416 -265 -426 0 -2 -11
-21 -24 -42 -52 -79 -307 -580 -386 -756 -100 -224 -228 -558 -301 -781 -23
-71 -45 -139 -49 -150 -18 -46 -135 -487 -146 -550 -3 -16 -11 -58 -19 -93 -8
-34 -17 -77 -20 -95 -4 -17 -10 -50 -15 -72 -26 -119 -69 -396 -85 -550 -3
-27 -7 -63 -10 -80 -2 -16 -7 -59 -10 -95 -3 -36 -8 -83 -10 -105 -30 -312
-26 -1010 10 -1510 10 -147 32 -319 62 -505 8 -52 17 -106 19 -120 17 -127
134 -599 212 -860 86 -283 239 -711 317 -885 7 -16 43 -97 80 -180 119 -268
422 -838 481 -906 8 -8 14 -19 14 -23 0 -13 225 -348 332 -493 92 -126 288
-374 353 -448 15 -16 40 -46 57 -65 196 -230 493 -525 793 -790 180 -158 497
-403 750 -578 137 -95 444 -292 509 -328 12 -6 55 -31 96 -54 41 -24 107 -61
145 -82 75 -42 510 -258 519 -258 3 0 29 -11 58 -24 227 -103 629 -251 903
-332 109 -32 328 -92 365 -99 8 -2 35 -8 60 -15 25 -7 52 -14 60 -15 8 -2 60
-13 115 -25 55 -12 109 -23 120 -26 11 -2 36 -7 55 -10 19 -4 44 -9 55 -11 82
-17 418 -71 495 -79 25 -2 60 -6 78 -9 19 -3 60 -8 93 -11 32 -3 68 -7 79 -9
11 -2 66 -7 123 -11 89 -5 105 -4 120 11 9 9 17 26 18 38 0 12 1 542 1 1177 1
1203 2 1187 -40 1209 -14 8 -217 58 -309 77 -12 2 -88 24 -170 48 -521 156
-933 351 -1392 658 -247 164 -300 180 -456 136 -22 -6 -44 -13 -50 -14 -22 -6
-52 -12 -95 -19 -25 -3 -58 -9 -75 -11 -45 -8 -214 -7 -265 0 -88 14 -106 17
-170 32 -79 19 -231 79 -282 111 -21 13 -40 23 -44 23 -16 0 -166 112 -228
170 -204 192 -331 423 -387 705 -14 71 -17 283 -6 375 23 185 98 383 210 550
52 78 67 96 157 187 140 143 397 287 564 317 16 3 55 11 85 18 88 19 378 16
479 -6 109 -23 237 -67 314 -107 363 -189 612 -527 684 -926 15 -84 22 -302
10 -340 -3 -10 -8 -38 -11 -63 -8 -61 -44 -196 -67 -248 -23 -55 -23 -93 0
-119 74 -84 508 -338 764 -446 179 -76 500 -178 633 -202 98 -17 100 -17 125
3 l24 20 0 1203 c-1 1131 -2 1206 -18 1241 -14 28 -42 53 -119 104 -355 233
-541 500 -605 869 -10 55 -9 368 1 430 70 441 391 826 815 979 249 89 579 93
829 10 114 -38 320 -143 370 -188 6 -6 40 -36 75 -66 35 -30 84 -79 108 -108
25 -29 50 -59 57 -66 6 -7 30 -42 52 -76 94 -145 161 -322 186 -493 14 -92 21
-302 11 -357 -2 -14 -7 -43 -10 -65 -24 -165 -92 -336 -194 -490 -45 -67 -200
-231 -272 -288 -19 -15 -82 -55 -138 -89 -57 -35 -114 -76 -125 -93 l-22 -30
-3 -1214 c-2 -1129 -1 -1215 15 -1233 21 -23 61 -19 222 22 306 78 562 173
804 299 114 59 161 85 272 154 103 63 206 144 219 172 18 37 17 45 -18 145
-15 41 -29 86 -31 100 -3 14 -7 36 -10 50 -3 14 -8 40 -11 59 -3 18 -8 43 -10
55 -2 11 -4 77 -5 146 -1 323 124 634 350 872 187 197 419 323 686 372 53 10
149 18 216 18 95 0 183 -9 269 -27 14 -3 35 -7 47 -9 100 -19 281 -101 403
-181 128 -85 305 -274 379 -405 122 -215 181 -440 176 -668 -4 -190 -41 -342
-125 -517 -174 -363 -491 -612 -891 -701 -83 -19 -329 -27 -399 -14 -25 4 -61
11 -80 14 -19 3 -73 17 -120 31 -132 40 -159 44 -204 31 -23 -7 -190 -102
-371 -211 -344 -207 -623 -356 -785 -420 -139 -55 -480 -164 -590 -190 -64
-14 -323 -91 -353 -104 -29 -12 -40 -24 -47 -51 -13 -47 -14 -2319 -1 -2353 8
-21 43 -44 61 -40 3 1 30 4 60 8 30 3 62 8 70 10 8 2 36 6 62 9 73 9 141 18
158 21 8 1 40 6 70 10 30 3 66 8 80 10 14 2 43 6 65 9 57 8 245 35 275 40 14
3 70 12 125 21 195 33 511 107 760 180 483 141 889 301 1337 526 101 51 193
97 205 103 13 6 23 14 23 19 0 4 5 7 11 7 7 0 75 37 153 82 406 235 815 523
1176 827 68 58 70 60 225 197 187 165 500 486 703 719 264 303 617 795 815
1135 254 435 481 909 622 1295 20 55 40 109 45 120 29 67 130 388 176 560 13
50 28 104 34 120 5 17 11 41 14 55 2 14 18 81 34 150 17 69 33 139 35 155 3
17 15 75 26 130 11 55 30 161 41 235 12 74 23 145 25 156 2 12 7 48 10 80 4
33 9 67 11 76 1 9 6 48 9 85 4 37 8 78 10 91 2 12 7 62 10 110 4 48 8 103 10
122 24 206 24 953 0 1160 -2 19 -6 71 -10 116 -3 45 -7 90 -9 100 -2 10 -7 54
-11 97 -3 43 -8 88 -10 100 -2 12 -7 43 -9 69 -18 152 -94 584 -131 738 -62
262 -106 428 -160 600 -15 47 -33 107 -42 135 -107 349 -369 953 -570 1315
-14 25 -41 74 -61 110 -117 214 -348 574 -520 810 -91 126 -284 375 -301 390
-3 3 -23 26 -44 52 -21 26 -43 53 -50 60 -7 7 -30 33 -51 58 -141 163 -420
451 -562 580 -33 30 -80 73 -105 96 -112 103 -319 273 -504 417 -5 4 -28 21
-50 37 -22 16 -45 34 -50 38 -87 71 -531 364 -707 467 -319 186 -675 368 -902
461 -33 14 -74 31 -91 39 -16 7 -55 23 -85 35 -30 12 -75 30 -100 41 -184 76
-735 254 -853 275 -17 2 -34 7 -39 10 -4 3 -16 7 -25 9 -10 2 -49 11 -88 20
-150 35 -285 64 -395 84 -63 12 -126 23 -140 26 -14 3 -41 7 -60 10 -19 3 -44
7 -55 9 -11 2 -42 7 -70 10 -27 4 -61 9 -75 11 -92 15 -320 40 -455 50 -38 3
-90 7 -115 10 -132 12 -774 28 -783 19z"/>
<path d="M8326 8078 c-59 -13 -156 -63 -207 -108 -195 -168 -224 -490 -61
-689 137 -168 337 -235 533 -178 159 47 304 205 345 377 14 58 11 194 -4 245
-52 171 -180 302 -342 349 -58 18 -193 20 -264 4z"/>
<path d="M5160 5622 c-105 -9 -242 -76 -311 -153 -123 -135 -162 -329 -103
-510 18 -56 76 -155 107 -182 126 -110 216 -148 356 -148 88 0 134 8 205 37
375 152 405 703 48 897 -80 44 -203 68 -302 59z"/>
<path d="M11525 5612 c-376 -110 -486 -593 -195 -855 98 -88 213 -127 355
-122 190 7 343 105 424 270 141 289 -11 629 -315 709 -73 19 -199 18 -269 -2z"/>
</g>
</svg>
