<?xml version="1.0" standalone="no"?>
<!DOCTYPE svg PUBLIC "-//W3C//DTD SVG 20010904//EN"
 "http://www.w3.org/TR/2001/REC-SVG-20010904/DTD/svg10.dtd">
<svg version="1.0" xmlns="http://www.w3.org/2000/svg"
 width="746.000000pt" height="746.000000pt" viewBox="0 0 746.000000 746.000000"
 preserveAspectRatio="xMidYMid meet">
<metadata>
Created by potrace 1.11, written by Peter Selinger 2001-2013
</metadata>
<g transform="translate(0.000000,746.000000) scale(0.100000,-0.100000)"
fill="#000000" stroke="none">
<path d="M6769 7196 c-88 -23 -369 -120 -466 -161 -59 -25 -111 -45 -115 -46
-8 -1 -223 -110 -283 -144 -100 -56 -122 -69 -174 -102 -67 -43 -237 -163
-268 -189 -11 -11 -41 -35 -65 -54 -145 -118 -304 -281 -428 -440 -19 -25 -38
-46 -42 -48 -5 -2 -8 -10 -8 -17 0 -7 -3 -15 -7 -17 -11 -4 -73 -95 -73 -106
0 -5 -9 -17 -20 -27 -11 -10 -20 -22 -20 -26 0 -5 -18 -38 -40 -74 -22 -36
-38 -65 -35 -65 2 0 -6 -19 -19 -42 -24 -44 -86 -183 -91 -202 -2 -11 -6 -21
-28 -81 -6 -16 -13 -34 -14 -40 -1 -5 -13 -53 -27 -105 -50 -193 -57 -281 -32
-400 9 -42 54 -124 91 -168 54 -63 217 -165 375 -236 36 -16 147 -58 165 -62
6 -2 35 -10 65 -19 30 -9 62 -18 70 -19 8 -1 29 -6 45 -9 17 -4 44 -9 60 -12
17 -3 41 -7 54 -10 110 -22 367 -22 513 0 24 4 56 9 72 11 15 2 36 6 46 9 10
3 29 8 42 10 44 9 86 19 108 27 8 3 50 18 94 33 88 31 269 120 313 154 15 12
51 39 79 59 142 103 259 219 370 367 94 125 147 217 222 385 18 40 80 231 86
263 1 7 5 21 9 32 3 11 8 36 11 55 3 19 8 45 10 56 36 174 40 418 12 684 -5
41 -27 157 -51 260 -19 80 -62 203 -98 278 -89 187 -310 290 -508 238z m-205
-1124 c-4 -100 -5 -113 -19 -197 -4 -27 -7 -50 -5 -50 2 0 -2 -9 -8 -21 -6
-11 -13 -32 -16 -46 -7 -38 -76 -196 -92 -209 -8 -6 -14 -16 -14 -21 0 -29
-146 -182 -238 -250 -165 -122 -413 -169 -652 -123 -19 4 -41 8 -48 8 -45 2
158 336 282 464 17 17 38 39 47 50 62 72 313 276 386 313 15 8 30 18 33 21 24
27 333 180 341 168 3 -6 4 -54 3 -107z"/>
<path d="M1000 6583 c0 -4 -42 -8 -93 -9 -88 0 -247 -10 -332 -19 -22 -2 -62
-7 -90 -10 -27 -2 -70 -7 -94 -10 -68 -8 -181 -50 -181 -67 0 -4 -4 -7 -8 -6
-15 5 -91 -68 -127 -121 -61 -91 -76 -161 -70 -325 5 -142 8 -182 20 -246 4
-19 7 -42 7 -50 0 -8 4 -31 9 -50 4 -19 11 -51 14 -70 16 -95 100 -384 126
-435 5 -12 11 -27 13 -35 4 -21 30 -79 88 -200 28 -58 50 -108 50 -112 -1 -5
2 -8 8 -8 5 0 10 -5 10 -10 0 -6 18 -40 40 -76 22 -36 40 -70 40 -75 0 -5 4
-9 8 -9 5 0 13 -10 19 -22 6 -13 28 -46 49 -75 22 -28 48 -64 58 -78 54 -73
212 -244 269 -290 27 -22 56 -47 65 -56 25 -24 151 -119 157 -119 3 0 14 -8
25 -17 10 -10 36 -27 57 -38 21 -11 40 -23 43 -26 9 -11 253 -127 320 -152 36
-14 92 -32 125 -42 33 -9 71 -21 85 -25 23 -8 94 -24 150 -35 69 -14 88 -17
126 -19 23 -2 45 -5 50 -8 23 -11 403 4 424 17 3 2 26 6 50 10 25 3 70 13 101
20 30 8 64 16 75 18 10 2 26 7 34 10 21 8 93 31 105 33 25 5 148 55 225 92 47
23 89 41 93 41 4 0 15 7 23 16 9 8 22 15 30 15 8 0 14 4 14 8 0 5 12 14 28 21
32 15 158 98 186 123 11 10 23 18 26 18 7 0 73 -154 126 -292 19 -51 38 -102
43 -113 13 -31 42 -118 46 -135 2 -8 4 -15 5 -15 1 0 3 -7 5 -15 2 -8 13 -46
25 -85 20 -66 68 -242 75 -275 4 -18 36 -168 40 -190 2 -8 4 -15 5 -15 1 0 3
-13 5 -30 2 -16 6 -41 9 -55 2 -14 7 -43 10 -65 3 -22 8 -56 11 -75 6 -36 13
-94 20 -165 2 -22 5 -40 5 -40 4 0 14 -125 25 -320 5 -73 5 -513 1 -610 -3
-76 -16 -269 -21 -325 -2 -19 -6 -69 -10 -110 -3 -41 -8 -91 -10 -110 -2 -19
-7 -64 -10 -100 -4 -36 -9 -78 -11 -95 -11 -70 -12 -225 -2 -256 31 -97 65
-156 127 -216 35 -34 68 -60 72 -57 5 3 9 2 9 -3 0 -11 75 -40 138 -54 30 -6
79 -9 110 -6 50 4 69 8 117 21 24 7 73 32 105 55 103 74 168 179 184 297 3 21
8 59 12 84 3 25 7 61 9 80 2 19 6 69 9 110 4 41 9 86 11 100 2 14 7 57 10 95
3 39 8 95 10 125 18 226 25 393 25 665 0 299 -5 426 -27 650 -4 39 -7 82 -7
98 -1 15 -3 27 -6 27 -3 0 -5 15 -6 33 0 28 -13 146 -19 172 -5 27 -15 84 -20
115 -2 19 -7 46 -10 60 -3 14 -7 39 -10 55 -2 17 -14 73 -25 125 -12 52 -23
103 -25 113 -35 168 -130 485 -212 702 -19 50 -36 95 -37 100 -4 14 -12 34
-77 185 -66 156 -204 437 -225 461 -9 9 -16 25 -16 35 -1 17 25 84 53 136 18
34 79 203 79 219 0 9 3 19 7 23 5 4 9 12 9 17 1 5 3 11 4 14 1 3 3 8 4 13 1 4
15 59 30 122 35 143 35 142 51 245 27 175 40 525 23 598 -10 42 -53 131 -76
158 -12 13 -29 33 -39 45 -33 38 -125 94 -181 110 -66 20 -155 25 -220 13 -52
-10 -172 -65 -172 -80 0 -5 -4 -9 -10 -9 -17 0 -80 -70 -109 -123 -41 -72 -58
-139 -60 -232 -5 -165 -12 -258 -27 -349 -4 -23 -7 -49 -8 -58 0 -13 -4 -14
-19 -7 -10 6 -21 17 -24 25 -3 8 -9 14 -13 14 -5 0 -21 12 -37 28 -38 36 -138
120 -198 165 -99 74 -95 72 -216 151 -68 44 -88 56 -94 57 -8 0 -119 67 -135
81 -8 7 -16 12 -17 10 -2 -1 -47 18 -101 44 -119 55 -124 58 -192 84 -30 12
-64 26 -75 32 -12 5 -28 10 -38 12 -9 1 -20 5 -23 9 -4 4 -16 7 -26 7 -10 0
-26 4 -36 9 -21 12 -124 43 -216 66 -104 25 -132 31 -211 46 -69 13 -88 17
-95 19 -3 1 -9 2 -13 1 -4 -1 -36 3 -70 8 -143 22 -262 32 -423 35 -72 1 -136
6 -142 10 -7 4 -12 4 -12 -1z m315 -898 c33 -3 71 -7 85 -9 14 -2 49 -7 79
-11 30 -4 63 -9 75 -11 12 -3 35 -7 51 -9 17 -2 73 -16 125 -30 52 -14 105
-27 117 -30 145 -33 595 -244 611 -286 2 -5 8 -9 14 -9 9 0 132 -86 164 -115
7 -5 31 -26 55 -45 53 -41 289 -277 289 -288 0 -25 -186 -151 -306 -208 -81
-39 -225 -87 -293 -99 -83 -14 -134 -19 -201 -19 -74 1 -178 11 -193 21 -4 2
-20 7 -35 9 -46 8 -174 55 -247 92 -250 124 -448 323 -596 602 -29 55 -56 114
-109 245 -5 11 -14 38 -20 60 -6 22 -14 47 -17 55 -8 19 -10 28 -18 67 l-7 31
158 -4 c88 -2 186 -6 219 -9z"/>
</g>
</svg>
