<svg width="1728" height="1117" viewBox="0 0 1728 1117" fill="none" xmlns="http://www.w3.org/2000/svg">
<g clip-path="url(#clip0_262_820)">
<rect width="1728" height="1117" fill="url(#paint0_radial_262_820)"/>
<path d="M1728.4 69.9505C1579.72 51.4745 1533.33 306.838 1533.33 445.41L1528.71 521.294C1520.28 637.429 1476.43 793.596 1455.56 857.162C1414.44 963.795 1428.76 1082.39 1441.07 1128.36L1418 1230.64L1539.26 1519L1903.04 1302.57C1892.93 1151.02 1878.79 767.421 1903.04 445.41C1927.29 123.399 1796.72 60.9324 1728.4 69.9505Z" fill="#094329" fill-opacity="0.7"/>
<path d="M164.31 430.926C119.991 330.596 -30.0234 340.717 -99.4909 358.319H-114C-109.164 661.288 -99.4909 1278.84 -99.4909 1325.31C-99.4909 1371.78 34.6078 1543.13 101.657 1623C224.105 1592.42 469 1495.48 469 1352.37C469 1209.27 455.81 1140.93 449.215 1124.65C429.87 1081.09 372.317 979.967 296.87 923.993C202.561 854.026 215.092 807.822 209.816 769.538C204.54 731.255 219.708 556.338 164.31 430.926Z" fill="#094329" fill-opacity="0.7"/>
<path d="M419.523 32.3491L299 1058.28L359.636 1117L495.13 1084.01L564 56.7604V2L419.523 32.3491Z" fill="#094329" fill-opacity="0.7"/>
<path d="M914.088 246.289C1002.4 246.289 1073.98 175.261 1073.98 87.6443C1073.98 0.0274811 1002.4 -71 914.088 -71C825.78 -71 754.192 0.0274811 754.192 87.6443C754.192 175.261 825.78 246.289 914.088 246.289Z" fill="#073923"/>
<path d="M1567.16 195.078C1566.68 107.865 1495.28 37.3114 1407.26 37.3114C1400.46 37.3114 1393.77 37.7322 1387.19 38.549C1360.08 -10.7756 1307.34 -44.2407 1246.72 -44.2407C1158.42 -44.2407 1086.83 26.7868 1086.83 114.404C1086.83 202.02 1158.42 273.048 1246.72 273.048C1253.52 273.048 1260.22 272.627 1266.79 271.81C1282.75 300.841 1307.59 324.377 1337.68 338.831C1309.61 367.415 1292.32 406.47 1292.32 449.532C1292.32 537.149 1363.9 608.176 1452.21 608.176C1489.29 608.176 1523.43 595.652 1550.55 574.634C1562.08 607.479 1591.52 631.999 1627.26 636.675C1626.59 641.521 1626.24 646.47 1626.24 651.501C1626.24 686.371 1643.04 717.347 1669.06 736.89C1635.55 751.271 1612.11 784.363 1612.11 822.887C1612.11 874.613 1654.37 916.545 1706.51 916.545C1758.64 916.545 1800.9 874.613 1800.9 822.887C1800.9 794.99 1788.61 769.942 1769.1 752.784C1811.51 738.367 1842 698.466 1842 651.501C1842 592.386 1793.7 544.464 1734.12 544.464H1734.12L1734.12 544.166C1734.12 544.053 1734.12 543.94 1734.12 543.826C1734.12 518.442 1723.94 495.416 1707.41 478.547C1752.75 450.546 1782.92 400.654 1782.92 343.769C1782.92 256.152 1711.33 185.125 1623.03 185.125C1603.37 185.125 1584.55 188.642 1567.16 195.078Z" fill="#073923"/>
<path d="M605.854 276.871C641.674 276.871 670.712 248.06 670.712 212.521C670.712 177.194 642.02 148.516 606.496 148.174V148.171C606.496 98.205 565.671 57.6994 515.311 57.6994C464.95 57.6994 424.125 98.205 424.125 148.171C424.125 198.138 464.95 238.643 515.311 238.643C525.574 238.643 535.441 236.961 544.647 233.859C553.519 258.911 577.573 276.871 605.854 276.871Z" fill="#073923"/>
<path d="M338.048 460.629C395.425 436.541 435.683 380.165 435.683 314.461C435.683 226.844 364.095 155.817 275.787 155.817C232.158 155.817 192.611 173.154 163.761 201.263C142.533 190.928 118.657 185.125 93.4156 185.125C5.10736 185.125 -66.4806 256.152 -66.4806 343.769C-66.4806 402.869 -33.9084 454.422 14.3965 481.719C-32.9458 500.078 -66.4806 545.782 -66.4806 599.256C-66.4806 639.076 -47.886 674.586 -18.8421 697.706C-74.7268 720.864 -114 775.608 -114 839.453C-114 924.255 -44.712 993 40.759 993C126.23 993 195.518 924.255 195.518 839.453C195.518 784.589 166.517 736.446 122.895 709.291C146.247 696.263 165.032 676.129 176.272 651.843C195.677 663.745 218.548 670.614 243.037 670.614C313.258 670.614 370.184 614.135 370.184 544.464C370.184 512.282 358.039 482.916 338.048 460.629Z" fill="#073923"/>
<path d="M593 772.5L566.5 823.5L590 832.5L597 815L607.5 791L624 756.5L633 740.5L640 730V720L631.5 698H624L614.5 714.5V738.5L593 772.5Z" fill="#12240F" fill-opacity="0.9"/>
<path d="M631.5 818.5L616 861.5L614.5 874L636 880L640 864L650.5 816.5L656.5 789L661.5 764L664 750L661.5 740.5L655 736.5L648.5 738.5L643 745.5L642 760.5L640 783.5L637 798.5L631.5 818.5Z" fill="#12240F" fill-opacity="0.9"/>
<path d="M530 897.639C527.2 970.439 503.5 1029.31 492 1049.64H618C622.418 1049.64 626 1046.06 626 1041.64L625 967.139V952.615C625 946.65 625.667 940.703 626.989 934.885L630 921.639L637.948 885.244C638.951 880.654 638.454 875.74 635.653 871.967C628.87 862.83 620.882 859.932 615.653 859.546C613.637 859.398 611.845 860.574 610.686 862.23C607.305 867.06 602.565 870.775 597.067 872.903L590 875.639L530 897.639Z" fill="url(#paint1_linear_262_820)"/>
<path d="M523.198 870.356C515.998 892.356 528.198 900.856 535.198 902.356C569.998 909.956 596.032 900.856 604.698 895.356C616.298 890.956 615.532 876.856 613.698 870.356C613.365 867.689 612.098 860.656 609.698 853.856C607.298 847.056 600.698 834.689 597.698 829.356C576.498 803.356 552.865 818.523 543.698 829.356C539.865 833.856 530.398 848.356 523.198 870.356Z" fill="#0F2412"/>
<path d="M536.659 558.698C541.059 545.498 563.493 541.198 574.159 540.698L581.659 551.198L587.159 568.198V590.198C586.493 593.532 584.659 600.898 582.659 603.698C580.659 606.498 570.493 604.865 565.659 603.698C555.259 601.698 541.993 607.532 536.659 610.698L520.659 615.698C499.859 619.298 501.659 606.198 505.159 599.198C508.326 593.532 516.259 581.298 522.659 577.698C529.059 574.098 534.659 563.532 536.659 558.698Z" fill="#0F2411" fill-opacity="0.5"/>
<path d="M654.659 755.198C633.659 726.532 589.759 656.298 582.159 604.698" stroke="black" stroke-width="5" stroke-linecap="round"/>
<path d="M586.791 571.536C587.678 580.316 587.32 588.301 586.075 594.089C585.451 596.994 584.626 599.232 583.707 600.726C582.767 602.253 581.943 602.681 581.399 602.736C580.855 602.791 579.962 602.536 578.737 601.228C577.537 599.948 576.282 597.92 575.088 595.198C572.711 589.776 570.764 582.025 569.877 573.245C568.99 564.465 569.348 556.481 570.593 550.693C571.218 547.787 572.042 545.549 572.962 544.055C573.901 542.529 574.725 542.1 575.269 542.045C575.813 541.99 576.706 542.245 577.932 543.553C579.131 544.833 580.387 546.861 581.58 549.583C583.957 555.005 585.904 562.757 586.791 571.536Z" fill="#0F2411" fill-opacity="0.5" stroke="black" stroke-width="4"/>
<path d="M135.881 341.59C106.786 336.715 86.0746 365.667 78.7546 381.984C78.4774 382.602 78.8478 383.309 79.5164 383.497C117.278 394.122 133.27 361.626 136.821 342.874C136.936 342.267 136.509 341.696 135.881 341.59Z" fill="#0F1E24"/>
<path d="M665.26 203.274C728.74 203.274 785.435 175.173 822.771 131.131C824.724 128.828 828.764 129.704 829.818 132.503C834.391 144.651 844.505 155.108 864.334 157.492C865.025 157.575 865.655 157.068 865.653 156.394C865.632 148.506 864.208 137.326 860.125 126.746C859.159 124.243 861.171 121.461 863.93 121.59C866.344 121.702 868.773 121.76 871.216 121.76C895.347 121.76 918.132 116.189 938.272 106.304C939.943 105.484 941.992 106.011 943.022 107.525C959.06 131.109 982.095 149.846 1009.27 160.975C1012.13 162.145 1012.45 166.238 1010.05 168.133C1002.25 174.273 996.618 183.759 995.933 198.012C995.9 198.685 996.472 199.253 997.166 199.199C1007.52 198.399 1023.2 194.993 1035.73 187.097C1038.14 185.577 1041.67 186.969 1042.44 189.651C1043.39 192.91 1044.83 196.127 1046.87 199.253C1047.21 199.775 1047.92 199.938 1048.46 199.604C1056.56 194.545 1066.68 185.567 1072.01 174.235C1072.6 172.992 1073.84 172.136 1075.25 172.062C1103.95 170.557 1130.48 161.164 1152.56 146.085C1154.32 144.886 1156.77 145.388 1157.89 147.165C1161.17 152.414 1164.86 157.406 1168.89 162.105C1169.97 163.368 1170.03 165.187 1169.03 166.514C1157.26 182.163 1150.6 200.759 1157.95 220.186C1158.16 220.749 1158.78 221.064 1159.37 220.885C1173.55 216.586 1192.31 207.766 1205.84 194.494C1206.97 193.381 1208.72 193.085 1210.17 193.784C1227.31 202.061 1246.64 206.718 1267.1 206.718C1279.54 206.718 1291.57 204.997 1302.93 201.787C1306.6 200.751 1310.73 206.04 1309.01 209.343C1302.27 222.344 1301.11 238.531 1316.35 254.682C1316.82 255.179 1317.64 255.189 1318.09 254.676C1324.29 247.621 1332.08 235.904 1335.66 223.03C1336.55 219.845 1341.46 218.738 1343.48 221.398C1375.77 264.009 1427.9 291.677 1486.71 291.677C1510.34 291.677 1532.9 287.209 1553.52 279.1C1557.05 277.711 1562.21 282.975 1561.28 286.551C1560.48 289.643 1559.97 293.034 1559.79 296.748C1559.76 297.421 1560.33 297.988 1561.02 297.935C1572.05 297.083 1589.1 293.279 1601.97 284.25C1603.29 283.318 1605.1 283.287 1606.43 284.22C1627.47 299.02 1653.38 307.75 1681.39 307.75C1751.87 307.75 1809 252.493 1809 184.33C1809 135.555 1779.75 93.3887 1737.28 73.3475C1735.59 72.5514 1734.79 70.6516 1735.41 68.9379C1740.02 56.1812 1742.52 42.4689 1742.52 28.1903C1742.52 -39.9725 1685.39 -95.2293 1614.91 -95.2293C1575.55 -95.2293 1540.34 -77.9868 1516.93 -50.884C1516.11 -49.9338 1514.84 -49.4628 1513.57 -49.6486C1504.81 -50.9349 1495.84 -51.6019 1486.71 -51.6019C1465.76 -51.6019 1445.67 -48.0923 1427.01 -41.6479C1424.79 -40.8805 1422.38 -42.3198 1422.07 -44.5812C1413.73 -104.935 1360.28 -151.486 1295.59 -151.486C1242.17 -151.486 1196.42 -119.737 1177.4 -74.6852C1176.39 -72.2977 1173.14 -71.6394 1171.24 -73.4496C1144.45 -98.987 1107.67 -114.747 1067.08 -114.747C1042.95 -114.747 1020.17 -109.176 1000.03 -99.2914C998.355 -98.4712 996.306 -98.9984 995.276 -100.513C968.751 -139.515 923.093 -165.263 871.216 -165.263C844.386 -165.263 819.22 -158.376 797.503 -146.33C796.194 -145.604 794.555 -145.727 793.382 -146.646C758.395 -174.082 713.812 -190.521 665.26 -190.521C595.007 -190.521 533.065 -156.104 496.476 -103.753C495.24 -101.985 492.664 -101.668 490.979 -103.047C473.301 -117.508 450.439 -126.228 425.472 -126.228C387.544 -126.228 354.475 -106.107 337.055 -76.2994C336.242 -74.909 334.574 -74.196 332.969 -74.5723C320.191 -77.5683 306.844 -79.1561 293.114 -79.1561C283.049 -79.1561 273.19 -78.3029 263.61 -76.6673C262.103 -76.41 260.589 -77.0905 259.804 -78.3611C242.084 -107.031 209.673 -126.228 172.626 -126.228C127.043 -126.228 88.4785 -97.1646 75.6615 -57.1526C74.976 -55.0127 72.4422 -53.9528 70.3587 -54.9317C57.6787 -60.8893 43.4415 -64.2309 28.3974 -64.2309C-24.7062 -64.2309 -67.7552 -22.5955 -67.7552 28.7643C-67.7552 62.9899 -59.0576 95.8387 -32.5153 112.528C-29.7168 114.288 -30.1309 118.938 -33.2348 120.126C-67.3265 133.169 -82 163.846 -82 203.274C-82 254.634 -38.951 296.269 14.1525 296.269C58.0186 296.269 95.0238 267.859 106.571 229.026C107.089 227.284 108.867 226.171 110.721 226.429C115.237 227.058 119.854 227.384 124.55 227.384C145.759 227.384 165.364 220.742 181.264 209.493C182.629 208.526 184.505 208.566 185.81 209.608C214.959 232.904 252.346 246.901 293.114 246.901C333.063 246.901 369.767 233.46 398.654 210.999C400.116 209.862 402.233 209.979 403.583 211.24C414.702 221.623 429.596 229.503 446.512 225.414C447.13 225.264 447.513 224.664 447.352 224.068C445.76 218.152 442.787 210.919 438.266 204.258C436.375 201.472 438.879 196.904 442.324 196.863C452.597 196.74 462.734 193.797 470.873 185.962C471.325 185.527 471.335 184.823 470.881 184.39C466.686 180.392 460.854 176.005 454.081 172.611C453.909 172.525 453.974 172.269 454.168 172.271C454.494 172.274 454.821 172.275 455.148 172.275C480.006 172.275 502.776 163.633 520.422 149.285C521.859 148.117 523.983 148.158 525.346 149.406C561.825 182.797 611.07 203.274 665.26 203.274Z" fill="#0F1E24"/>
<path d="M925.645 -7.59573C924.941 -9.73047 922.389 -10.7501 920.333 -9.71806C903.497 -1.26807 884.372 3.50636 864.094 3.50636C843.553 3.50636 824.196 -1.39227 807.203 -10.0475C805.32 -11.0065 802.97 -10.2396 802.083 -8.36893C778.828 40.6466 727.638 74.6879 668.227 74.6879C629.503 74.6879 594.272 60.2257 567.992 36.5812C566.484 35.2237 564.104 35.3248 562.724 36.805C555.774 44.2612 548.02 51.0029 539.594 56.9026C538.269 57.8299 537.751 59.4947 538.212 61.0119C543.285 77.7124 534.818 95.9236 527.116 106.137C526.74 106.636 526.018 106.73 525.507 106.361C521.323 103.351 518.111 99.7967 515.697 95.8954C514.178 93.4406 510.181 93.0486 508.175 95.1518C497.933 105.894 481.867 110.629 470.7 111.795C470.066 111.862 469.508 111.408 469.446 110.794C468.636 102.829 470.518 95.6936 474.028 89.4201C475.61 86.5938 473.165 82.6326 469.863 82.9888C464.448 83.5728 458.944 83.8726 453.368 83.8726C402.751 83.8726 358.102 59.1632 331.612 21.5358C330.097 19.3844 326.728 19.4418 325.273 21.631C304.051 53.5471 267.007 74.6879 224.857 74.6879C214.225 74.6879 203.918 73.3427 194.107 70.8187C190.929 70.0012 187.746 73.5197 188.554 76.6025C192.707 92.4466 185.345 109.626 178.401 119.576C178.044 120.087 177.326 120.206 176.801 119.856C167.142 113.419 162.29 104.063 160.362 94.0815C159.715 90.7283 154.557 89.2686 152.327 91.9113C130.451 117.836 97.1514 134.389 59.8547 134.389C54.958 134.389 50.1302 134.103 45.3881 133.549C42.4602 133.206 40.1454 136.199 41.2177 138.857C41.8739 140.483 42.4351 142.058 42.9029 143.551C43.0879 144.141 42.7306 144.755 42.1185 144.928C13.7776 152.948 -10.1787 126.44 -19.3555 111.027C-19.703 110.443 -19.4174 109.7 -18.775 109.44C-17.4436 108.902 -17.1333 107.161 -18.2241 106.247C-43.4738 85.0909 -59.4457 53.8522 -59.4457 19.0056C-59.4457 -44.7187 -6.0331 -96.3774 59.8547 -96.3774C78.0196 -96.3774 95.2364 -92.4509 110.647 -85.4277C112.541 -84.5645 114.816 -85.387 115.661 -87.2396C134.163 -127.782 176.093 -156.078 224.857 -156.078C260.118 -156.078 291.806 -141.283 313.646 -117.761C315.445 -115.824 318.782 -116.29 319.921 -118.65C343.362 -167.207 394.302 -200.854 453.368 -200.854C492.092 -200.854 527.323 -186.391 553.603 -162.747C555.111 -161.389 557.491 -161.49 558.871 -162.971C585.812 -191.871 624.826 -210.038 668.227 -210.038C701.932 -210.038 732.991 -199.082 757.805 -180.651C759.492 -179.397 761.938 -179.781 763.14 -181.479C785.166 -212.588 822.165 -233 864.094 -233C918.652 -233 964.865 -198.438 980.602 -150.718C981.306 -148.583 983.858 -147.562 985.914 -148.594C1002.75 -157.044 1021.88 -161.818 1042.15 -161.818C1060 -161.818 1076.95 -158.121 1092.24 -151.474C1093.83 -150.782 1095.71 -151.26 1096.74 -152.619C1119 -181.872 1154.85 -200.854 1195.29 -200.854C1256.59 -200.854 1307.35 -157.22 1316.19 -100.312C1316.64 -97.4238 1320.37 -96.1039 1322.61 -98.0639C1351.56 -123.415 1389.97 -138.857 1432.11 -138.857C1492.46 -138.857 1545.17 -107.172 1573.41 -60.0623C1574.49 -58.2663 1576.93 -57.7341 1578.7 -58.9076C1602.35 -74.5797 1630.97 -83.7484 1661.8 -83.7484C1743.1 -83.7484 1809 -20.0103 1809 58.6147C1809 137.24 1743.1 200.978 1661.8 200.978C1628.64 200.978 1598.03 190.367 1573.42 172.465C1570.6 170.42 1565.72 173.129 1565.49 176.523C1565 183.576 1562.24 191.137 1556.19 199.011C1555.77 199.551 1554.96 199.641 1554.46 199.174C1544.76 190.163 1531.01 172.307 1530.13 153.711C1529.98 150.558 1525.93 148.237 1523.22 150.001C1497.2 166.965 1465.85 176.868 1432.11 176.868C1341.96 176.868 1268.88 106.19 1268.88 19.0056C1268.88 16.1066 1265.4 14.3316 1262.91 15.937C1243.54 28.3943 1220.29 35.6529 1195.29 35.6529C1177.44 35.6529 1160.49 31.955 1145.2 25.3084C1143.61 24.6165 1141.73 25.0944 1140.69 26.4533C1135.01 33.9282 1128.43 40.7324 1121.12 46.7206C1120.12 47.5432 1119.65 48.8224 1119.83 50.0828C1122.04 65.2688 1114.51 80.8915 1107.59 90.0641C1107.22 90.5625 1106.49 90.6565 1105.98 90.2882C1098.26 84.7296 1093.85 77.3203 1091.65 69.2907C1091.07 67.1307 1088.65 65.8592 1086.5 66.6697C1072.75 71.847 1057.8 74.6879 1042.15 74.6879C1018.39 74.6879 996.214 68.1324 977.447 56.7894C974.78 55.1777 970.98 57.3258 970.688 60.3538C970.032 67.1382 967.25 74.3788 961.467 81.9056C961.052 82.4461 960.238 82.5355 959.735 82.0689C951.229 74.1648 939.604 59.454 936.284 43.4082C935.767 40.9095 932.829 39.4314 930.441 40.5077C922.93 43.8925 915.045 45.6943 908.728 46.3543C908.094 46.4206 907.537 45.9671 907.474 45.3532C905.772 28.6057 915.967 15.5293 928.181 6.41325C929.522 5.41275 930.013 3.66232 929.358 2.15215C927.978 -1.02887 926.738 -4.28053 925.645 -7.59573Z" fill="#0F1E24"/>
<path d="M325.24 265.126C347.831 246.734 380.806 261.648 395.63 272.174C396.191 272.572 396.239 273.363 395.76 273.852C368.68 301.433 337.935 281.159 325.097 266.692C324.682 266.224 324.753 265.523 325.24 265.126Z" fill="#0F1E24"/>
<path d="M1330.68 314.416C1352.49 333.672 1386.06 320.055 1401.31 310.115C1401.89 309.739 1401.97 308.95 1401.51 308.443C1375.6 279.83 1344.04 298.89 1330.6 312.845C1330.17 313.297 1330.21 314 1330.68 314.416Z" fill="#0F1E24"/>
<path d="M1490.23 388.737C1460.85 385.835 1442.28 416.113 1436.15 432.883C1435.92 433.518 1436.34 434.198 1437.02 434.341C1475.45 442.395 1489.06 408.9 1491.26 389.954C1491.33 389.341 1490.86 388.8 1490.23 388.737Z" fill="#0F1E24"/>
<path d="M1495.69 349.095C1517.75 330.109 1551.13 344.139 1566.25 354.266C1566.82 354.65 1566.89 355.439 1566.43 355.94C1540.14 384.232 1508.83 364.784 1495.59 350.664C1495.16 350.208 1495.21 349.505 1495.69 349.095Z" fill="#0F1E24"/>
<path fill-rule="evenodd" clip-rule="evenodd" d="M1310.77 991.382C1159.91 1027.68 981.29 1026.1 861.703 1025.04L861.685 1025.04C843.395 1024.88 826.486 1024.73 811.269 1024.73L672.976 1021.29L538.243 1012.1L438.193 998.946C414.734 995.861 391.652 990.522 369.289 983.007L264.572 947.817C217.297 931.93 174.172 906.265 138.201 872.61L114.851 847.272C98.1351 829.134 85.2791 807.987 77.0177 785.041C69.9783 765.489 66.3836 744.932 66.3836 724.229V540.122C66.3836 529.649 69.0799 519.34 74.2293 510.127C76.9014 505.346 80.2011 500.919 84.0465 496.956L114.46 465.612L152.446 423.133L164.928 411.723C185.222 393.17 200.85 370.367 210.612 345.063L234.947 291.103H265.141C274.999 291.103 284.771 289.334 293.962 285.888C303.977 282.132 313.103 276.458 320.794 269.205L332.88 257.808L391.859 209.951C398.043 204.933 399.044 196.096 394.13 189.903C388.47 182.77 377.55 182.243 371.184 188.794L317.042 244.509C311.8 249.904 305.796 254.555 299.208 258.326C286.671 265.503 272.369 269.289 257.801 269.289H247.411C250.538 261.729 255.361 254.936 261.533 249.398L301.423 213.607H214.767L78.2542 312.342V-114.747H-59.4457V1209H1737.18V-90.0629H1596.51V341.619L1550.72 316.25C1540.51 310.594 1530.84 304.087 1521.8 296.803C1504.85 283.145 1485.71 272.263 1465.13 264.588L1462.05 263.44C1451.99 259.691 1441.67 256.654 1431.15 254.354L1397.09 246.901L1390.61 246.074C1374.01 243.953 1357.7 240.053 1341.99 234.445L1330.76 230.438C1320.81 226.885 1311.34 222.158 1302.58 216.365L1256.87 186.133C1250.27 181.772 1246.33 174.543 1246.33 166.817V158.325C1246.33 154.241 1243.84 150.541 1239.99 148.883C1232.92 145.846 1224.96 150.847 1224.96 158.325V181.413C1224.96 189.713 1229.17 197.487 1236.21 202.223L1282.48 233.309C1295.86 242.295 1310.82 248.847 1326.62 252.642L1388.78 267.567L1391.07 279.919C1394.97 300.918 1406.08 320.029 1422.61 334.156L1442.68 354.975C1451.02 363.627 1460.63 371.04 1471.21 376.973L1481.57 382.777C1491.2 388.178 1499.42 395.646 1505.6 404.605C1508.04 408.148 1510.78 411.493 1514.01 414.384C1521.65 421.228 1534.07 430.983 1545.47 435.762C1549.85 437.596 1554.05 438.91 1558.16 440.199C1570.79 444.152 1582.64 447.862 1596.51 465.612C1597.99 467.498 1599.62 469.523 1601.36 471.692C1621.41 496.594 1656.65 540.384 1645.18 607.975C1643.74 616.467 1642.55 623.777 1641.5 630.212C1638.6 647.97 1636.78 659.057 1633.91 669.88C1629.12 687.871 1621.39 705.129 1600.81 751.077L1600.81 751.082L1600.58 751.599C1599.28 754.506 1597.92 757.528 1596.51 760.671C1562.8 835.986 1484.93 897.294 1451.69 920.256C1419.57 942.443 1410.51 947.822 1380.36 963.971C1358.36 975.754 1335.17 985.51 1310.77 991.382ZM78.2542 386.968V460.446C90.5998 453.557 103.578 442.65 108.524 438.058C115.647 429.83 131.197 407.404 136.421 383.524C141.644 359.644 141.762 313.108 141.169 292.825C129.892 301.053 104.845 321.412 94.8732 337.026C84.9018 352.64 79.6391 376.827 78.2542 386.968ZM153.04 376.635C154.424 358.649 157.194 312.687 157.194 272.733L175 257.234H234.947C224.264 288.232 192.925 355.511 153.04 376.635ZM241.476 230.828C226.282 232.206 209.425 239.056 202.896 242.309V245.179H239.102L241.476 230.828ZM1577.16 415.67H1602.68C1603.28 405.72 1602.74 377.803 1578.94 364.58C1568.97 359.041 1565.75 354.235 1562.17 348.904C1555.75 339.319 1548.18 328.038 1498.22 307.75C1497.54 321.851 1498.08 343.826 1503.52 363.272C1506.04 372.288 1511.94 379.936 1518.6 386.706C1533.09 401.448 1548.26 416.851 1577.16 415.67ZM1440.42 325.281C1419.05 309.208 1405.79 281.079 1401.84 269.024C1427.48 263.973 1458.81 322.028 1471.28 351.687L1464 350.807C1462.54 350.63 1461.13 350.147 1459.88 349.391C1458.03 348.272 1456.62 346.595 1455.74 344.666C1450.56 333.383 1444.06 327.22 1440.42 325.281ZM1436.26 268.715C1441.61 274.837 1451.47 287.922 1458.77 302.401C1459.16 303.172 1459.55 303.944 1459.94 304.716C1465.32 315.403 1470.74 326.18 1478.4 335.446L1487.3 346.211L1484.93 307.176C1484.34 300.479 1480.3 286.051 1468.9 281.918C1463.49 279.953 1460.99 278.153 1458.63 276.457C1454.8 273.694 1451.34 271.205 1436.26 268.715Z" fill="#0F1E24"/>
</g>
<defs>
<radialGradient id="paint0_radial_262_820" cx="0" cy="0" r="1" gradientUnits="userSpaceOnUse" gradientTransform="translate(1066.5 629) rotate(179.8) scale(516.558 489.86)">
<stop stop-color="#68B663"/>
<stop offset="0.923094" stop-color="#095F3A"/>
</radialGradient>
<linearGradient id="paint1_linear_262_820" x1="564.5" y1="948.5" x2="565.75" y2="1049.64" gradientUnits="userSpaceOnUse">
<stop stop-color="#07220D" stop-opacity="0.3"/>
<stop offset="0.845" stop-color="#0F240F"/>
</linearGradient>
<clipPath id="clip0_262_820">
<rect width="1728" height="1117" fill="white"/>
</clipPath>
</defs>
</svg>
