<svg width="124" height="114" viewBox="0 0 124 114" fill="none" xmlns="http://www.w3.org/2000/svg">
    <path d="M50.8443 74.4136C54.709 63.7192 69.8952 63.8972 73.5082 74.6792L78.1761 88.6095C80.7811 96.3833 74.9966 104.422 66.798 104.422H57.096C48.7786 104.422 42.9835 96.1662 45.8103 88.3439L50.8443 74.4136Z" fill="#0F1E24"/>
    <path d="M52.2294 28.3276C57.0219 21.744 66.8404 21.744 71.6329 28.3276L101.689 69.6164C107.462 77.5474 101.797 88.6787 91.9871 88.6787H31.8752C22.0654 88.6787 16.4001 77.5474 22.1735 69.6164L52.2294 28.3276Z" fill="#006138"/>
    <path d="M52.8827 20.8769C57.6818 14.4498 67.314 14.4498 72.1131 20.8769L93.641 49.7076C99.5504 57.6216 93.9026 68.8873 84.0258 68.8873H40.9701C31.0933 68.8873 25.4455 57.6216 31.3549 49.7076L52.8827 20.8769Z" fill="#019153"/>
    <path d="M51.9773 12.4189C56.7806 6.15478 66.2194 6.15477 71.0227 12.4189L83.5055 28.6981C89.5585 36.592 83.9304 48 73.9828 48H49.0172C39.0696 48 33.4415 36.592 39.4945 28.6981L51.9773 12.4189Z" fill="#84C87F"/>
</svg>
