<svg id="Capa_1" data-name="Capa 1" xmlns="http://www.w3.org/2000/svg" viewBox="0 0 322.5 279.43"><defs><style>.cls-1{fill:#24588d;}.cls-2{fill:#0093d7;}.cls-3{fill:#fff;}</style></defs><title>Docker-R-Logo-08-2018-Color-RGB</title><path class="cls-1" d="M292.13,71.54c-.65-.52-6.74-5.12-19.59-5.12a62.44,62.44,0,0,0-10.12.87c-2.48-17-16.55-25.34-17.2-25.72l-3.46-2-2.27,3.27a46.06,46.06,0,0,0-6.13,14.35c-2.3,9.72-.9,18.85,4,26.66-4.82,2.69-12,3.77-15.58,4.1V65.85a5.19,5.19,0,0,0-5.19-5.19H192.21V11.41A5.2,5.2,0,0,0,187,6.22H163.38a5.2,5.2,0,0,0-5.2,5.19v22H104.31a5.19,5.19,0,0,0-5.2,5.19v22H75.05a5.19,5.19,0,0,0-5.2,5.19V88.08H63.44A9.48,9.48,0,0,0,54,97.68a112.84,112.84,0,0,0,7.32,39.61c5.47,13.81,13.46,24,23.76,30.32C96.87,174.86,116.15,179,137.92,179a157.89,157.89,0,0,0,29.36-2.66,122.82,122.82,0,0,0,38.36-13.92A105.51,105.51,0,0,0,231.79,141c12.56-14.2,20-30.06,25.6-44.1.75,0,1.49,0,2.21,0,13.75,0,22.2-5.5,26.87-10.11a29.47,29.47,0,0,0,7-10.54l1-2.87Z"/><rect class="cls-2" x="74.39" y="65.19" width="24.95" height="22.63" rx="2.32" ry="2.32"/><rect class="cls-1" x="78.93" y="69.76" width="2.27" height="13.54" rx="0.58" ry="0.58"/><rect class="cls-1" x="85.73" y="69.76" width="2.27" height="13.54" rx="0.58" ry="0.58"/><rect class="cls-1" x="92.54" y="69.76" width="2.27" height="13.54" rx="0.58" ry="0.58"/><rect class="cls-2" x="103.65" y="65.19" width="24.95" height="22.63" rx="2.32" ry="2.32"/><rect class="cls-1" x="108.19" y="69.76" width="2.27" height="13.54" rx="0.58" ry="0.58"/><rect class="cls-1" x="114.99" y="69.76" width="2.27" height="13.54" rx="0.58" ry="0.58"/><rect class="cls-1" x="121.8" y="69.76" width="2.27" height="13.54" rx="0.58" ry="0.58"/><rect class="cls-2" x="133.36" y="65.19" width="24.95" height="22.63" rx="2.32" ry="2.32"/><rect class="cls-1" x="137.9" y="69.76" width="2.27" height="13.54" rx="0.58" ry="0.58"/><rect class="cls-1" x="144.7" y="69.76" width="2.27" height="13.54" rx="0.58" ry="0.58"/><rect class="cls-1" x="151.51" y="69.76" width="2.27" height="13.54" rx="0.58" ry="0.58"/><rect class="cls-2" x="162.72" y="65.19" width="24.95" height="22.63" rx="2.32" ry="2.32"/><rect class="cls-1" x="167.26" y="69.76" width="2.27" height="13.54" rx="0.58" ry="0.58"/><rect class="cls-1" x="174.06" y="69.76" width="2.27" height="13.54" rx="0.58" ry="0.58"/><rect class="cls-1" x="180.87" y="69.76" width="2.27" height="13.54" rx="0.58" ry="0.58"/><rect class="cls-2" x="103.65" y="37.98" width="24.95" height="22.64" rx="2.32" ry="2.32"/><rect class="cls-1" x="108.19" y="42.55" width="2.27" height="13.54" rx="0.58" ry="0.58"/><rect class="cls-1" x="114.99" y="42.55" width="2.27" height="13.54" rx="0.58" ry="0.58"/><rect class="cls-1" x="121.8" y="42.55" width="2.27" height="13.54" rx="0.58" ry="0.58"/><rect class="cls-2" x="133.36" y="37.98" width="24.95" height="22.64" rx="2.32" ry="2.32"/><rect class="cls-1" x="137.9" y="42.55" width="2.27" height="13.54" rx="0.58" ry="0.58"/><rect class="cls-1" x="144.7" y="42.55" width="2.27" height="13.54" rx="0.58" ry="0.58"/><rect class="cls-1" x="151.51" y="42.55" width="2.27" height="13.54" rx="0.58" ry="0.58"/><rect class="cls-2" x="162.72" y="37.98" width="24.95" height="22.64" rx="2.32" ry="2.32"/><rect class="cls-1" x="167.26" y="42.55" width="2.27" height="13.54" rx="0.58" ry="0.58"/><rect class="cls-1" x="174.06" y="42.55" width="2.27" height="13.54" rx="0.58" ry="0.58"/><rect class="cls-1" x="180.87" y="42.55" width="2.27" height="13.54" rx="0.58" ry="0.58"/><rect class="cls-2" x="162.72" y="10.76" width="24.95" height="22.64" rx="2.32" ry="2.32"/><rect class="cls-1" x="167.26" y="15.33" width="2.27" height="13.54" rx="0.58" ry="0.58"/><rect class="cls-1" x="174.06" y="15.33" width="2.27" height="13.54" rx="0.58" ry="0.58"/><rect class="cls-1" x="180.87" y="15.33" width="2.27" height="13.54" rx="0.58" ry="0.58"/><rect class="cls-2" x="192.34" y="65.19" width="24.95" height="22.63" rx="2.32" ry="2.32"/><rect class="cls-1" x="196.87" y="69.76" width="2.27" height="13.54" rx="0.58" ry="0.58"/><rect class="cls-1" x="203.68" y="69.76" width="2.27" height="13.54" rx="0.58" ry="0.58"/><rect class="cls-1" x="210.48" y="69.76" width="2.27" height="13.54" rx="0.58" ry="0.58"/><path class="cls-2" d="M58.28,97.28a4.84,4.84,0,0,1,4.83-4.87H219.94c1.13,0,16.73-.82,23.46-7.65-15.05-18.27-.35-39.44-.35-39.44s15.41,8.88,15.41,27.17c21.68-5,31,2.43,31,2.43s-6.9,20.19-34.91,17.45c-10.43,27.05-29.47,68.43-88,79.73-25.31,4.88-60.56,3.2-79.16-8.19C66.93,151.43,58.5,123,58.28,97.28Z"/><ellipse class="cls-3" cx="131.1" cy="132.33" rx="7.89" ry="7.94"/><path class="cls-1" d="M131.76,129.9a2.26,2.26,0,0,1,.48-1.92,4.33,4.33,0,0,0-2.12,0,4.54,4.54,0,1,0,5.4,3.42c0-.08-.06-.16-.08-.24a2.17,2.17,0,0,1-1,.51A2.27,2.27,0,0,1,131.76,129.9Z"/><path class="cls-3" d="M117.1,149.07l0,0a63.16,63.16,0,0,1-32.25,8.83c-1.49,0-3.52-.12-5.53-.29a44.73,44.73,0,0,0,8,6.28c12.21,7.48,31.58,10.77,50.62,10.77,3.92,0,7.82-.14,11.65-.41A61.19,61.19,0,0,1,117.1,149.07Z"/><path class="cls-1" d="M84.82,157.92a72.63,72.63,0,0,1-9.48-.68c-1.18-.17-2.58-4.72-1.38-4.55a100.2,100.2,0,0,0,10.86.9,58.87,58.87,0,0,0,30-8.23,2.17,2.17,0,0,1,2.21,3.73A63.16,63.16,0,0,1,84.82,157.92Z"/><path class="cls-2" d="M51.28,199.93a4.82,4.82,0,0,0-5,5v23.85a25.87,25.87,0,0,0-16.77-5.87,25.8,25.8,0,0,0-18.93,7.83,26.77,26.77,0,0,0,0,37.86,25.81,25.81,0,0,0,18.93,7.84,26,26,0,0,0,18.92-7.84,25.58,25.58,0,0,0,7.84-18.93V204.9a4.74,4.74,0,0,0-1.46-3.56A5,5,0,0,0,51.28,199.93ZM45,256.12a17.1,17.1,0,0,1-3.59,5.32,16.84,16.84,0,0,1-5.32,3.64,16.8,16.8,0,0,1-13.15,0,16.8,16.8,0,0,1-8.86-8.94,16.66,16.66,0,0,1,0-13,16.8,16.8,0,0,1,8.86-8.94,16.8,16.8,0,0,1,13.15,0,17.06,17.06,0,0,1,8.91,9,16.68,16.68,0,0,1,0,13Z"/><path class="cls-2" d="M107.17,230.71a26.79,26.79,0,0,0-37.85,0,26.77,26.77,0,0,0,18.93,45.7,26,26,0,0,0,18.92-7.84A25.58,25.58,0,0,0,115,249.64a27.46,27.46,0,0,0-2-10.27A26.21,26.21,0,0,0,107.17,230.71Zm-3.46,25.41a17.1,17.1,0,0,1-3.59,5.32,16.84,16.84,0,0,1-5.32,3.64,16.8,16.8,0,0,1-13.15,0,16.8,16.8,0,0,1-8.86-8.94,16.66,16.66,0,0,1,0-13,16.8,16.8,0,0,1,8.86-8.94,16.8,16.8,0,0,1,13.15,0,17.06,17.06,0,0,1,8.91,9,16.68,16.68,0,0,1,0,13Z"/><path class="cls-2" d="M217.83,227.85a4.61,4.61,0,0,0-.4-1.91,5.55,5.55,0,0,0-1.08-1.61,4.61,4.61,0,0,0-1.57-1.07,4.93,4.93,0,0,0-2-.38,4.87,4.87,0,0,0-2.68.76l-28.58,18.59V205a4.87,4.87,0,0,0-1.46-3.56,5,5,0,0,0-7.07,0,4.87,4.87,0,0,0-1.46,3.56v66.44a4.85,4.85,0,0,0,1.46,3.53,4.94,4.94,0,0,0,7.07,0,4.85,4.85,0,0,0,1.46-3.53V254.13l5.83-3.82,22.08,24.81a4.63,4.63,0,0,0,3.35,1.29,4.93,4.93,0,0,0,2-.39,4.61,4.61,0,0,0,1.57-1.07,5.5,5.5,0,0,0,1.08-1.6,4.68,4.68,0,0,0,.4-1.91,5.1,5.1,0,0,0-1.38-3.5L195.9,244.81l20-13A4.43,4.43,0,0,0,217.83,227.85Z"/><path class="cls-2" d="M134.92,237.76a17.26,17.26,0,0,1,5.35-3.58,16.35,16.35,0,0,1,6.55-1.32,16.06,16.06,0,0,1,5.83,1,18.55,18.55,0,0,1,5.11,3.11,5,5,0,0,0,3.25,1.15,4.79,4.79,0,0,0,3.56-1.43,4.93,4.93,0,0,0,1.41-3.59,4.86,4.86,0,0,0-1.72-3.78,25.49,25.49,0,0,0-17.44-6.49,26.77,26.77,0,1,0,17.44,47,5,5,0,0,0,1.58-3.67,4.82,4.82,0,0,0-5-5,5.45,5.45,0,0,0-3.16,1.06,17.33,17.33,0,0,1-5.06,3.08,17,17,0,0,1-12.38-.29,17.09,17.09,0,0,1-5.35-3.58,16.53,16.53,0,0,1-3.61-5.33,16.91,16.91,0,0,1,0-13.1A16.64,16.64,0,0,1,134.92,237.76Z"/><path class="cls-2" d="M317.11,226.22a9.31,9.31,0,0,0-3.37-2,19.78,19.78,0,0,0-4.44-1,38.68,38.68,0,0,0-4.52-.28,26.29,26.29,0,0,0-9,1.52,27.61,27.61,0,0,0-7.79,4.4v-1a5,5,0,1,0-10,0v43.59a4.78,4.78,0,0,0,1.45,3.51,4.87,4.87,0,0,0,3.57,1.46,5,5,0,0,0,5-5v-21.8a16.55,16.55,0,0,1,1.31-6.55,16.66,16.66,0,0,1,8.91-8.91,16.35,16.35,0,0,1,6.55-1.32,17.54,17.54,0,0,1,6.55,1.2,5.35,5.35,0,0,0,2.1.52,4.89,4.89,0,0,0,2-.38,4.65,4.65,0,0,0,1.58-1.07,5.47,5.47,0,0,0,1.07-1.6,4.62,4.62,0,0,0,.41-2A4.46,4.46,0,0,0,317.11,226.22Z"/><path class="cls-2" d="M270.67,239.41a26.82,26.82,0,1,0-24.81,37.06,25.68,25.68,0,0,0,17.49-6.5l.2-.18a5.84,5.84,0,0,0,1.13-1.24,5.1,5.1,0,0,0-1.28-7.09,5,5,0,0,0-6.17.55l-.71.65-.07.06a15.73,15.73,0,0,1-4.81,2.8,17.42,17.42,0,0,1-11.11.1,17.15,17.15,0,0,1-4.68-2.41,16.83,16.83,0,0,1-3.71-3.73,16,16,0,0,1-2.38-4.81h37.85a4.9,4.9,0,0,0,3.56-1.41,4.72,4.72,0,0,0,1.46-3.55A26.88,26.88,0,0,0,270.67,239.41Zm-40.91,5.32a15.3,15.3,0,0,1,2.34-4.8,16.67,16.67,0,0,1,3.72-3.73,17.65,17.65,0,0,1,4.74-2.41,16.72,16.72,0,0,1,5.3-.86,16.5,16.5,0,0,1,5.28.86,17.07,17.07,0,0,1,8.41,6.14,16,16,0,0,1,2.42,4.8Z"/><path class="cls-2" d="M300,269.17a3.46,3.46,0,1,0,3.52,3.44A3.45,3.45,0,0,0,300,269.17Zm0,6.19a2.75,2.75,0,1,1,2.62-2.73A2.64,2.64,0,0,1,300.06,275.36Z"/><path class="cls-2" d="M300.83,272.72v-.05a.87.87,0,0,0,.72-.79,1,1,0,0,0-.34-.76,2.18,2.18,0,0,0-1.19-.25,6.46,6.46,0,0,0-1.33.11v3.44h.8V273h.38c.44,0,.65.17.71.54a3.51,3.51,0,0,0,.27.85h.87a2.61,2.61,0,0,1-.26-.87A1,1,0,0,0,300.83,272.72Zm-.94-.25h-.38v-1a2,2,0,0,1,.44,0c.51,0,.74.21.74.52S300.33,272.47,299.89,272.47Z"/></svg>