<svg id="Capa_1" data-name="Capa 1" xmlns="http://www.w3.org/2000/svg" viewBox="0 0 650.04 167.67"><defs><style>.cls-1{fill:#0093d7;}.cls-2{fill:#24588d;}.cls-3{fill:#fff;}</style></defs><title>Docker-R-Logo-08-2018-Color-RGB</title><path class="cls-1" d="M305.56,49a6.17,6.17,0,0,0-6.37,6.37V86a34.32,34.32,0,0,0-55.81,26.78,34.31,34.31,0,0,0,68.62,0V55.41a6.12,6.12,0,0,0-1.87-4.57A6.35,6.35,0,0,0,305.56,49Zm-8.05,72a22.27,22.27,0,0,1-4.6,6.83,21.77,21.77,0,0,1-6.83,4.65,21.49,21.49,0,0,1-16.85,0,21.46,21.46,0,0,1-11.36-11.45,21.4,21.4,0,0,1,0-16.67A21.52,21.52,0,0,1,269.23,93a21.61,21.61,0,0,1,16.85,0,22,22,0,0,1,6.83,4.66,22.27,22.27,0,0,1,4.6,6.83,21.37,21.37,0,0,1,0,16.61Z"/><path class="cls-1" d="M377.21,88.49a34.31,34.31,0,0,0-58.57,24.27,34.31,34.31,0,0,0,68.62,0,35.2,35.2,0,0,0-2.55-13.18A33.61,33.61,0,0,0,377.21,88.49Zm-4.44,32.57a22.27,22.27,0,0,1-4.6,6.83,21.77,21.77,0,0,1-6.83,4.65,21.49,21.49,0,0,1-16.85,0,21.46,21.46,0,0,1-11.36-11.45,21.4,21.4,0,0,1,0-16.67A21.52,21.52,0,0,1,344.49,93a21.61,21.61,0,0,1,16.85,0,22,22,0,0,1,6.83,4.66,22.27,22.27,0,0,1,4.6,6.83,21.37,21.37,0,0,1,0,16.61Z"/><path class="cls-1" d="M519.06,84.82a5.86,5.86,0,0,0-.52-2.45,6.9,6.9,0,0,0-1.38-2.06,6.2,6.2,0,0,0-2-1.38,6.49,6.49,0,0,0-2.51-.48,6.24,6.24,0,0,0-3.43,1l-36.64,23.84V55.47a6.21,6.21,0,0,0-1.87-4.57,6.13,6.13,0,0,0-4.5-1.86,6.37,6.37,0,0,0-6.43,6.43v85.16a6.24,6.24,0,0,0,1.87,4.54,6.15,6.15,0,0,0,4.56,1.89,6.08,6.08,0,0,0,4.5-1.89,6.24,6.24,0,0,0,1.87-4.54V118.51l7.48-4.9,28.3,31.8a6,6,0,0,0,4.29,1.65,6.31,6.31,0,0,0,2.51-.49,5.88,5.88,0,0,0,2-1.37,6.77,6.77,0,0,0,1.38-2.06,5.86,5.86,0,0,0,.52-2.45,6.49,6.49,0,0,0-1.77-4.47l-26.35-29.65L516.61,89.9A5.7,5.7,0,0,0,519.06,84.82Z"/><path class="cls-1" d="M412.77,97.53a22,22,0,0,1,6.86-4.59,21,21,0,0,1,8.4-1.69,20.24,20.24,0,0,1,7.47,1.35,23.77,23.77,0,0,1,6.56,4,6.47,6.47,0,0,0,4.16,1.47,6.13,6.13,0,0,0,4.57-1.84,6.55,6.55,0,0,0-.4-9.43A32.63,32.63,0,0,0,428,78.45a34.3,34.3,0,0,0-34.31,34.31,34.27,34.27,0,0,0,56.67,26,6.45,6.45,0,0,0,2-4.71,6.17,6.17,0,0,0-6.37-6.38,6.83,6.83,0,0,0-4,1.35,22.15,22.15,0,0,1-6.5,3.95,20.65,20.65,0,0,1-7.47,1.32,21.14,21.14,0,0,1-8.4-1.68,22.17,22.17,0,0,1-6.86-4.6,21.36,21.36,0,0,1-4.62-6.83,21.7,21.7,0,0,1,0-16.79A21.36,21.36,0,0,1,412.77,97.53Z"/><path class="cls-1" d="M646.33,82.73a12.34,12.34,0,0,0-4.32-2.6,25.85,25.85,0,0,0-5.7-1.32,50.33,50.33,0,0,0-5.79-.36,33.34,33.34,0,0,0-11.52,2A35.1,35.1,0,0,0,609,86V84.82a6.4,6.4,0,0,0-12.8,0v55.87a6.14,6.14,0,0,0,1.87,4.51A6.4,6.4,0,0,0,609,140.69V112.76a21.15,21.15,0,0,1,1.69-8.4,21.35,21.35,0,0,1,11.43-11.42,20.9,20.9,0,0,1,8.39-1.69,22.55,22.55,0,0,1,8.39,1.53,6.85,6.85,0,0,0,2.7.68,6.22,6.22,0,0,0,2.51-.5,6,6,0,0,0,2-1.37,7.16,7.16,0,0,0,1.38-2.06A6,6,0,0,0,648,87,5.72,5.72,0,0,0,646.33,82.73Z"/><path class="cls-1" d="M586.79,99.63a34.37,34.37,0,1,0-56.06,37.47,34.31,34.31,0,0,0,46.68,1.71l.25-.23a7.29,7.29,0,0,0,1.45-1.58,6.55,6.55,0,0,0-1.63-9.1,6.44,6.44,0,0,0-7.92.71c-.2.19-.81.75-.91.83l-.09.08a20.48,20.48,0,0,1-6.16,3.6,21.73,21.73,0,0,1-7.41,1.22,21.49,21.49,0,0,1-6.84-1.1,22.44,22.44,0,0,1-6-3.09,21.29,21.29,0,0,1-4.74-4.78,20.79,20.79,0,0,1-3.07-6.16h48.53a6.31,6.31,0,0,0,4.56-1.81,6.1,6.1,0,0,0,1.87-4.56A34.45,34.45,0,0,0,586.79,99.63Zm-52.45,6.83a20,20,0,0,1,3-6.15,21.25,21.25,0,0,1,4.78-4.78,22.45,22.45,0,0,1,6.07-3.1,21.47,21.47,0,0,1,6.8-1.1,21.24,21.24,0,0,1,6.77,1.1,22,22,0,0,1,10.78,7.88,20.7,20.7,0,0,1,3.1,6.15Z"/><path class="cls-2" d="M231.63,63.5c-.63-.5-6.51-4.94-18.9-4.94a61.4,61.4,0,0,0-9.76.84C200.58,43,187,35,186.38,34.6l-3.33-1.92-2.19,3.16a44.1,44.1,0,0,0-5.92,13.83c-2.22,9.38-.87,18.18,3.9,25.72-4.65,2.59-11.54,3.63-15,4V58a5,5,0,0,0-5-5H135.25V5.51a5,5,0,0,0-5-5H107.45a5,5,0,0,0-5,5V26.76h-52a5,5,0,0,0-5,5V53H22.25a5,5,0,0,0-5,5V79.45H11.06A9.17,9.17,0,0,0,1.9,88.71,108.92,108.92,0,0,0,9,126.92c5.27,13.32,13,23.15,22.91,29.24,11.42,7,30,11,51,11a152.07,152.07,0,0,0,28.32-2.57,118.19,118.19,0,0,0,37-13.43,101.34,101.34,0,0,0,25.23-20.65c12.11-13.7,19.33-29,24.69-42.54.72,0,1.43,0,2.14,0,13.25,0,21.41-5.3,25.91-9.75A28.45,28.45,0,0,0,233,68.12l.95-2.78Z"/><rect class="cls-1" x="21.62" y="57.38" width="24.06" height="21.83" rx="2.24" ry="2.24"/><rect class="cls-2" x="25.99" y="61.79" width="2.19" height="13.06" rx="0.56" ry="0.56"/><rect class="cls-2" x="32.56" y="61.79" width="2.19" height="13.06" rx="0.56" ry="0.56"/><rect class="cls-2" x="39.12" y="61.79" width="2.19" height="13.06" rx="0.56" ry="0.56"/><rect class="cls-1" x="49.84" y="57.38" width="24.06" height="21.83" rx="2.24" ry="2.24"/><rect class="cls-2" x="54.22" y="61.79" width="2.19" height="13.06" rx="0.56" ry="0.56"/><rect class="cls-2" x="60.78" y="61.79" width="2.19" height="13.06" rx="0.56" ry="0.56"/><rect class="cls-2" x="67.34" y="61.79" width="2.19" height="13.06" rx="0.56" ry="0.56"/><rect class="cls-1" x="78.5" y="57.38" width="24.06" height="21.83" rx="2.24" ry="2.24"/><rect class="cls-2" x="82.87" y="61.79" width="2.19" height="13.06" rx="0.56" ry="0.56"/><rect class="cls-2" x="89.44" y="61.79" width="2.19" height="13.06" rx="0.56" ry="0.56"/><rect class="cls-2" x="96" y="61.79" width="2.19" height="13.06" rx="0.56" ry="0.56"/><rect class="cls-1" x="106.81" y="57.38" width="24.06" height="21.83" rx="2.24" ry="2.24"/><rect class="cls-2" x="111.19" y="61.79" width="2.19" height="13.06" rx="0.56" ry="0.56"/><rect class="cls-2" x="117.75" y="61.79" width="2.19" height="13.06" rx="0.56" ry="0.56"/><rect class="cls-2" x="124.31" y="61.79" width="2.19" height="13.06" rx="0.56" ry="0.56"/><rect class="cls-1" x="49.84" y="31.13" width="24.06" height="21.83" rx="2.24" ry="2.24"/><rect class="cls-2" x="54.22" y="35.54" width="2.19" height="13.06" rx="0.56" ry="0.56"/><rect class="cls-2" x="60.78" y="35.54" width="2.19" height="13.06" rx="0.56" ry="0.56"/><rect class="cls-2" x="67.34" y="35.54" width="2.19" height="13.06" rx="0.56" ry="0.56"/><rect class="cls-1" x="78.5" y="31.13" width="24.06" height="21.83" rx="2.24" ry="2.24"/><rect class="cls-2" x="82.87" y="35.54" width="2.19" height="13.06" rx="0.56" ry="0.56"/><rect class="cls-2" x="89.44" y="35.54" width="2.19" height="13.06" rx="0.56" ry="0.56"/><rect class="cls-2" x="96" y="35.54" width="2.19" height="13.06" rx="0.56" ry="0.56"/><rect class="cls-1" x="106.81" y="31.13" width="24.06" height="21.83" rx="2.24" ry="2.24"/><rect class="cls-2" x="111.19" y="35.54" width="2.19" height="13.06" rx="0.56" ry="0.56"/><rect class="cls-2" x="117.75" y="35.54" width="2.19" height="13.06" rx="0.56" ry="0.56"/><rect class="cls-2" x="124.31" y="35.54" width="2.19" height="13.06" rx="0.56" ry="0.56"/><rect class="cls-1" x="106.81" y="4.88" width="24.06" height="21.83" rx="2.24" ry="2.24"/><rect class="cls-2" x="111.19" y="9.29" width="2.19" height="13.06" rx="0.56" ry="0.56"/><rect class="cls-2" x="117.75" y="9.29" width="2.19" height="13.06" rx="0.56" ry="0.56"/><rect class="cls-2" x="124.31" y="9.29" width="2.19" height="13.06" rx="0.56" ry="0.56"/><rect class="cls-1" x="135.38" y="57.38" width="24.06" height="21.83" rx="2.24" ry="2.24"/><rect class="cls-2" x="139.75" y="61.79" width="2.19" height="13.06" rx="0.56" ry="0.56"/><rect class="cls-2" x="146.32" y="61.79" width="2.19" height="13.06" rx="0.56" ry="0.56"/><rect class="cls-2" x="152.88" y="61.79" width="2.19" height="13.06" rx="0.56" ry="0.56"/><path class="cls-1" d="M6.08,88.33a4.66,4.66,0,0,1,4.66-4.7H162c1.09,0,16.14-.79,22.63-7.37-14.52-17.63-.34-38-.34-38s14.86,8.56,14.86,26.2C220.07,59.58,229,66.76,229,66.76s-6.65,19.48-33.67,16.83c-10.06,26.1-28.42,66-84.92,76.9C86,165.2,52,163.58,34.07,152.59,14.42,140.55,6.29,113.13,6.08,88.33Z"/><ellipse class="cls-3" cx="76.32" cy="122.13" rx="7.61" ry="7.66"/><path class="cls-2" d="M77,119.79a2.21,2.21,0,0,1,.46-1.85,4.25,4.25,0,0,0-2,0,4.37,4.37,0,1,0,5.21,3.3c0-.08-.06-.15-.08-.24a2.07,2.07,0,0,1-.92.5A2.2,2.2,0,0,1,77,119.79Z"/><path class="cls-3" d="M62.82,138.28l0,0a60.93,60.93,0,0,1-31.1,8.52c-1.44,0-3.39-.12-5.34-.28a43.53,43.53,0,0,0,7.73,6.05C45.84,159.81,64.53,163,82.89,163c3.78,0,7.55-.13,11.24-.39A59,59,0,0,1,62.82,138.28Z"/><path class="cls-2" d="M31.68,146.82a69.15,69.15,0,0,1-9.14-.66c-1.15-.16-2.49-4.56-1.34-4.39a95.93,95.93,0,0,0,10.48.87,56.77,56.77,0,0,0,29-7.94,2.09,2.09,0,0,1,2.13,3.6A60.93,60.93,0,0,1,31.68,146.82Z"/><path class="cls-1" d="M624.44,137.79A4.44,4.44,0,1,0,629,142.2,4.42,4.42,0,0,0,624.44,137.79Zm0,7.93a3.52,3.52,0,1,1,3.36-3.49A3.37,3.37,0,0,1,624.46,145.72Z"/><path class="cls-1" d="M625.46,142.34v-.06a1.13,1.13,0,0,0,.91-1,1.24,1.24,0,0,0-.43-1,2.82,2.82,0,0,0-1.53-.32,8.05,8.05,0,0,0-1.69.14v4.4h1v-1.77h.48c.57,0,.84.21.91.7a4.06,4.06,0,0,0,.35,1.07h1.11a3.37,3.37,0,0,1-.33-1.1A1.28,1.28,0,0,0,625.46,142.34Zm-1.21-.33h-.49v-1.26a2.39,2.39,0,0,1,.57-.05c.64,0,.94.27.94.67S624.81,142,624.25,142Z"/></svg>