<svg width="973" height="374" viewBox="0 0 973 374" fill="none" xmlns="http://www.w3.org/2000/svg">
<path d="M973 171.539L948.186 374L344 199.288L401.409 105L973 171.539Z" fill="#96D7E3"/>
<path d="M401 104.614L343.857 199L268 171.223L312.553 32L401 104.614Z" fill="#F46E20"/>
<path d="M312 31.9508L254.069 25L190 145.508L267.492 171L312 31.9508Z" fill="#F46E20"/>
<path d="M207.973 49L254 25.605L198.042 10L176 42.99L207.973 49Z" fill="#96D7E3"/>
<path d="M144 93.4019L125.068 116L47 78.157L74.4929 56L144 93.4019Z" fill="#F46E20"/>
<path d="M74.6483 56L75 26.9953L29.6225 12L17 18.2341L74.6483 56Z" fill="#96D7E3"/>
<path d="M254 25L222 40.5634L190 60.0563V146L254 25Z" fill="#F46E20"/>
<path d="M190 146V98.0654L144.151 93L125 115.565L190 146Z" fill="#96D7E3"/>
<path d="M190 98V60.1114L144 49V93.0049L190 98Z" fill="#96D7E3"/>
<path d="M144 48.904V93L75 56.0954L75.3497 27L144 48.904Z" fill="#F46E20"/>
<path d="M198 9.98752L176.199 43L126 13.417L133.316 0L198 9.98752Z" fill="#F46E20"/>
<path d="M47.3489 78L75 56.0448L16.8761 18L0 26.8259L47.3489 78Z" fill="#96D7E3"/>
</svg>
