<svg width="905" height="534" viewBox="0 0 905 534" fill="none" xmlns="http://www.w3.org/2000/svg">
<path d="M774 68.7321L786.595 102L844 75.8878L832.182 48L774 68.7321Z" fill="#F46E20"/>
<path d="M682 102.293L689.841 136L786 102.386L773.442 69L682 102.293Z" fill="#96D7E3"/>
<path d="M672 60.6655L680.017 95L767 61.9812L754.953 27L672 60.6655Z" fill="#96D7E3"/>
<path d="M755 27.416L767.098 62L818 36.6186L807.025 8L755 27.416Z" fill="#F46E20"/>
<path d="M807 7.56735L817.903 37L858 18.9156L852.917 0L807 7.56735Z" fill="#96D7E3"/>
<path d="M896.594 29L905 46.8977L843.818 76L832 48.4225L896.594 29Z" fill="#96D7E3"/>
<path d="M838 95.9736L848.111 122L898 93.4357L891.389 79L838 95.9736Z" fill="#96D7E3"/>
<path d="M783 172.012L787.965 201L826 186.519L817.174 159L783 172.012Z" fill="#F46E20"/>
<path d="M704 196.671L712.002 231L788 201.156L782.997 172L704 196.671Z" fill="#96D7E3"/>
<path d="M817 158.852L825.788 186L863 163.78L858.333 150L817 158.852Z" fill="#96D7E3"/>
<path d="M788 113.743L797.973 147L848 121.744L837.809 96L788 113.743Z" fill="#F46E20"/>
<path d="M692 145.915L701.019 184L798 146.661L787.969 114L692 145.915Z" fill="#96D7E3"/>
<path d="M488 141L580.384 89.0821L586 72.2987L535.084 57L488 141Z" fill="#96D7E3"/>
<path d="M585.997 72L535 56.8192L650 4L648.396 24.4261L585.997 72Z" fill="#F46E20"/>
<path d="M475 148.667L526.707 267L635 248.775L580.981 89L475 148.667Z" fill="#F46E20"/>
<path d="M672.268 61L712 230.812L634.823 249L581 88.9894L672.268 61Z" fill="#F46E20"/>
<path d="M0 333.211L76.1409 534L527 267.287L475.458 149L0 333.211Z" fill="#96D7E3"/>
</svg>
