<svg width="654" height="640" viewBox="0 0 654 640" fill="none" xmlns="http://www.w3.org/2000/svg">
<path d="M71.3321 432.826C78.8606 423.859 89.3063 419.781 97.7064 412.267C108.138 402.937 116.102 389.92 126.232 379.982C147.564 359.159 171.839 341.538 198.29 327.676C251.011 299.944 311.942 287.011 371.446 293.198C400.182 296.187 428.736 303.541 454.639 316.418C472.346 325.232 514.157 347.844 516.856 370.296C518.656 385.297 494.798 398.928 484.704 407.686C422.704 461.088 361.506 488.911 277.828 478.868C210.992 470.844 148.698 457.094 81.0045 458.162C77.0329 458.225 72.752 458.162 69.5325 455.844C63.5505 451.528 64.7807 442.037 68.935 435.962C69.679 434.876 70.4791 433.83 71.3321 432.826Z" fill="#A7DDE8" stroke="#A7DDE8" stroke-width="3" stroke-miterlimit="10"/>
<path d="M327.35 491.362C390.176 491.362 441.107 442.536 441.107 382.307C441.107 322.078 390.176 273.253 327.35 273.253C264.524 273.253 213.593 322.078 213.593 382.307C213.593 442.536 264.524 491.362 327.35 491.362Z" fill="#F68632" stroke="#F68632" stroke-width="3" stroke-miterlimit="10"/>
<path d="M327.35 425.654C355.512 425.654 378.342 404.258 378.342 377.866C378.342 351.473 355.512 330.078 327.35 330.078C299.188 330.078 276.359 351.473 276.359 377.866C276.359 404.258 299.188 425.654 327.35 425.654Z" fill="#ECAB4B"/>
<path d="M74.0032 416.554C87.1411 406.652 98.2265 391.874 109.895 380.156C150.624 339.275 194.888 295.502 249.485 273.672C307.253 250.626 366.68 262.931 424.518 278.407C460.255 287.967 492.703 306.494 522.866 327.34C537.727 337.599 551.539 349.568 566.582 359.464C570.413 361.992 614.642 382.558 615.184 377.726C616.203 368.703 604.056 354.191 598.84 346.817C591.481 336.513 583.323 326.795 574.441 317.752C556.968 299.901 537.406 284.193 516.174 270.962C468.937 241.373 417.404 229.976 362.504 225.227C291.781 219.2 220.651 234.522 164.247 278.749C128.179 307.032 99.2458 343.807 77.9888 384.276C73.244 393.355 68.7522 403.593 71.5288 413.419C71.9506 414.927 72.5059 416.009 74.0032 416.554Z" fill="#EE3670"/>
<path d="M350.702 314.476C351.654 315.131 352.778 315.495 353.935 315.524C354.513 315.529 355.079 315.368 355.566 315.059C356.053 314.75 356.439 314.308 356.677 313.785C357.099 312.682 356.628 311.467 356.157 310.384C357.949 310.503 359.672 311.115 361.134 312.151C362.209 312.912 363.144 313.904 364.374 314.386C365.604 314.868 367.284 314.588 367.79 313.38C368.297 312.172 367.397 310.894 366.553 309.888C365.433 308.589 364.299 307.302 363.151 306.026C362.439 305.131 361.567 304.373 360.578 303.792C358.983 302.968 357.064 303.093 355.306 302.926C352.951 302.709 350.681 301.955 348.361 301.529C346.041 301.103 343.525 301.04 341.423 302.116C341.127 302.231 340.879 302.443 340.72 302.716C340.432 303.331 341.023 303.98 341.55 304.413C343.448 305.964 345.064 307.053 346.084 309.253C347.092 311.395 348.694 313.207 350.702 314.476Z" fill="#A7DDE8"/>
<path d="M264.929 410.171C263.741 411.233 262.005 411.456 260.409 411.31C258.813 411.163 257.253 410.702 255.657 410.611C254.181 410.514 252.459 410.856 251.749 412.148C251.039 413.44 251.749 415.234 252.536 416.61C253.323 417.986 254.146 419.634 253.471 421.066C253.084 421.876 252.283 422.42 251.791 423.161C250.807 424.676 251.25 426.694 251.974 428.349C252.55 429.932 253.644 431.278 255.081 432.169C255.958 432.566 256.915 432.759 257.879 432.732C258.843 432.706 259.787 432.46 260.641 432.016C262.338 431.116 263.883 429.956 265.217 428.58C266.264 427.475 267.593 426.674 269.062 426.261C270.405 424.816 272.064 423.251 274.032 423.468C276.218 423.726 277.505 426.136 277.687 428.314C277.87 430.493 277.357 432.714 277.737 434.872C277.751 435.103 277.848 435.321 278.011 435.487C278.202 435.611 278.429 435.672 278.657 435.661L284.534 435.892C285.359 435.871 286.179 436.019 286.945 436.325C287.89 436.901 288.628 437.759 289.054 438.776C290.129 440.87 290.842 443.129 291.163 445.459C291.36 446.856 291.866 448.734 293.307 449.048C296.864 448.385 300.512 447.694 303.577 445.78C306.642 443.867 308.793 441.017 311.9 439.383C314.184 438.182 316.778 437.749 319.323 437.33C324.494 436.362 329.723 435.723 334.977 435.417C337.332 435.326 339.82 435.417 341.831 436.618C343.841 437.819 345.163 439.928 347.377 440.347C349.591 440.766 351.693 439.286 353.83 438.503C356.44 437.56 359.317 437.666 361.851 438.797C363.601 439.579 365.253 441.101 365.281 442.987C366.321 443.999 368.022 444.062 369.456 443.797C370.89 443.531 372.268 442.945 373.674 442.728C376.676 442.281 380.001 443.427 382.658 442.03C384.007 441.332 384.963 440.019 386.172 439.097C387.433 438.23 388.826 437.573 390.299 437.149C392.018 436.557 393.759 436.013 395.521 435.514C397.679 434.907 400.196 434.425 402.01 435.745C403.823 437.065 404.118 439.684 403.626 441.862C403.134 444.041 402.017 446.053 401.581 448.245C400.709 452.624 402.565 457.464 400.611 461.514C399.606 463.609 397.743 465.062 395.943 466.486C394.973 469.901 394.249 473.337 392.604 476.494C389.589 482.269 384.766 486.878 380.029 491.368L372.802 498.212L368.093 502.682C366.325 504.495 364.345 506.092 362.195 507.437C360.022 508.79 357.433 509.323 354.898 508.939C354.955 505.384 356.016 501.879 355.868 498.317C355.721 494.755 353.865 490.845 350.386 490C346.533 490 342.653 490.132 338.801 490.139C337.644 490.212 336.484 490.084 335.371 489.762C333.051 488.959 331.652 486.669 329.81 485.055C328.19 483.633 326.187 482.713 324.046 482.409C322.099 482.136 320.089 482.409 318.156 482.011C316.223 481.613 314.226 480.397 313.938 478.463C313.72 477.15 314.325 475.823 314.297 474.489C314.267 473.707 314.024 472.947 313.593 472.291C313.162 471.636 312.56 471.109 311.85 470.767C311.046 470.414 310.338 469.875 309.787 469.195C309.235 468.514 308.856 467.712 308.68 466.856C308.46 465.096 308.791 463.311 309.629 461.744C310.026 461.044 310.329 460.295 310.529 459.517C310.887 457.533 309.425 455.55 307.569 454.726C305.714 453.902 303.577 454.028 301.566 454.349C299.556 454.67 297.581 455.243 295.549 455.278C293.627 455.289 291.731 454.836 290.024 453.957C288.317 453.079 286.85 451.802 285.75 450.236C284.267 448.078 282.235 446.046 279.698 445.347C278.229 444.935 276.619 444.879 275.311 444.097C274.573 443.592 273.894 443.007 273.287 442.351C271.701 440.766 269.682 439.676 267.481 439.216C265.231 438.825 262.933 439.313 260.718 439.844C258.504 440.375 256.241 440.948 253.97 440.724C251.7 440.501 249.38 439.327 248.515 437.232C247.25 437.259 245.999 436.955 244.889 436.351C243.778 435.747 242.847 434.864 242.189 433.79C241.001 431.694 240.678 429.236 240.516 426.806C240.354 424.376 240.319 421.966 239.616 419.669C239.07 418.066 238.363 416.522 237.507 415.06L233.592 407.755C233.153 407.969 232.783 408.298 232.52 408.707C232.257 409.116 232.112 409.589 232.102 410.074C232.086 411.044 232.255 412.008 232.601 412.916L235.687 422.965C234.703 424.131 232.685 423.761 231.652 422.651C230.618 421.54 230.288 419.955 229.965 418.461C229.351 415.667 228.617 412.9 227.764 410.157C227.195 408.363 226.359 406.379 224.622 405.702C225.016 402.84 224.662 399.925 223.596 397.238C222.324 393.746 219.87 390.666 218.914 387.056C217.755 382.677 218.914 378.068 220.095 373.703C220.798 371.071 221.262 368.899 222.612 366.538C225.016 362.348 224.165 357.111 225.121 352.376C225.656 349.722 226.759 347.222 227.694 344.694C228.113 343.738 228.324 342.705 228.313 341.663C228.245 340.87 227.942 340.114 227.441 339.493C226.941 338.871 226.265 338.411 225.501 338.171C225.635 335.944 227.49 334.107 228.847 332.326C230.204 330.545 231.089 328.241 232.151 326.16C234.766 321.041 239.349 316.502 245.071 315.685C245.718 315.594 246.603 315.685 246.681 316.383C246.68 316.56 246.64 316.734 246.565 316.895C246.49 317.055 246.38 317.197 246.245 317.312C244.944 318.708 243.314 319.749 242.027 321.146C240.741 322.542 239.764 324.47 240.27 326.299C241.008 328.988 244.277 329.973 246.245 331.956C247.363 333.08 248.129 334.617 249.556 335.315C251.932 336.474 254.659 334.75 256.641 333.004C258.624 331.258 261 329.274 263.572 329.889C264.188 330.738 264.54 331.747 264.584 332.792C264.628 333.838 264.361 334.873 263.818 335.769C263.05 336.821 262.156 337.776 261.154 338.611C259.377 340.384 258.095 342.586 257.436 345.001C257.052 346.058 257.092 347.221 257.548 348.249C257.932 348.836 258.444 349.33 259.045 349.694C262.573 352.133 266.573 353.814 270.792 354.632C271.365 354.785 271.969 354.785 272.542 354.632C272.99 354.436 273.394 354.154 273.73 353.8L278.299 349.548C279.529 348.402 280.872 346.817 280.246 345.267C279.859 344.289 278.791 343.709 278.411 342.732C277.765 341.063 279.339 338.828 278.088 337.536C279.135 336.014 280.682 334.4 282.524 334.631C284.365 334.861 285.624 336.726 287.444 337.005C290.115 337.445 292.822 334.393 295.226 335.608C296.133 336.083 296.632 337.047 297.271 337.857C299.837 341.153 304.413 341.915 308.357 343.339C308.613 343.415 308.852 343.541 309.06 343.709C309.699 344.317 309.278 345.385 308.771 346.105C306.805 348.892 304.04 351.026 300.835 352.229C299.923 352.495 299.054 352.89 298.255 353.402C296.604 354.652 296.266 356.985 296.4 359.038C296.372 359.768 296.623 360.481 297.103 361.035C297.471 361.331 297.909 361.528 298.375 361.608C299.689 361.931 301.044 362.061 302.396 361.992C302.543 363.068 303.099 364.562 302.48 365.484C301.862 366.406 300.596 366.783 299.563 367.314C298.386 367.941 297.415 368.891 296.765 370.051C296.116 371.212 295.816 372.532 295.901 373.857C295.999 375.107 296.435 376.441 295.865 377.558C295.001 379.255 292.632 379.22 290.741 379.493C290.378 379.523 290.03 379.645 289.729 379.849C289.464 380.089 289.262 380.388 289.138 380.722C288.582 381.992 288.199 383.331 288 384.702C287.648 387.182 288.555 390.045 287.458 392.301C287.002 393.06 286.457 393.764 285.834 394.396C284.416 396.076 283.434 398.075 282.974 400.22C282.715 401.06 282.778 401.965 283.149 402.762C283.522 403.397 284.211 403.795 284.618 404.417C285.539 405.814 284.787 408.02 286.024 409.138C286.467 409.529 287.086 409.689 287.543 410.074C288.372 410.772 288.463 411.994 288.492 413.076L288.618 417.839C288.649 418.137 288.61 418.438 288.506 418.719C288.391 418.934 288.225 419.118 288.021 419.253C287.817 419.389 287.583 419.471 287.339 419.494C285.891 419.718 284.527 418.607 283.824 417.35C283.121 416.093 282.692 414.648 281.898 413.426C281.111 412.334 280.163 411.367 279.086 410.555L272.64 405.234C272.409 404.99 272.092 404.845 271.755 404.829C271.503 404.877 271.272 404.996 271.087 405.171C268.971 406.903 266.925 408.398 264.929 410.171Z" fill="#EE3670" stroke="#EE3670" stroke-width="2" stroke-miterlimit="10"/>
<path d="M300.083 428.776C301.236 429.956 302.283 431.569 303.935 431.681C304.922 431.635 305.884 431.362 306.747 430.885C308.748 430.066 310.936 429.808 313.074 430.137C315.316 430.487 317.453 431.471 319.716 431.492C321.98 431.513 324.553 430.026 324.524 427.777C324.464 427.081 324.22 426.412 323.816 425.84C323.412 425.267 322.864 424.81 322.226 424.516C320.941 423.948 319.566 423.61 318.163 423.517L313.242 422.91C311.753 422.608 310.214 422.651 308.743 423.035C307.028 423.622 305.51 425.13 303.717 424.865C302.902 424.661 302.152 424.255 301.538 423.685C300.132 422.546 298.783 421.275 297.103 420.598C294.523 419.557 289.321 421.492 291.831 424.9C292.534 425.884 293.94 425.933 295.064 426.192C296.953 426.555 298.696 427.452 300.083 428.776Z" fill="#A7DDE8" stroke="#A7DDE8" stroke-width="2" stroke-miterlimit="10"/>
<path d="M436.25 359.646C434.902 360.218 433.719 361.114 432.807 362.254C431.896 363.394 431.284 364.742 431.027 366.175C430.872 367.646 430.823 369.125 430.879 370.603C430.767 374.583 429.403 378.417 427.808 382.07C426.922 384.116 425.488 386.441 423.246 386.427C421.84 386.427 420.602 385.408 419.829 384.227C419.151 382.995 418.546 381.724 418.016 380.421C414.902 374.136 407.268 371.133 403.662 365.058C401.698 361.536 400.975 357.463 401.609 353.486C401.96 350.902 402.642 347.899 400.906 345.972C397.954 342.683 396.927 338.486 396.576 334.1C396.507 333.634 396.533 333.159 396.653 332.703C396.819 332.33 397.034 331.98 397.293 331.663C398.076 330.541 398.584 329.252 398.774 327.899C398.965 326.547 398.833 325.169 398.389 323.876C397.687 321.851 396.196 320.091 395.873 317.975C395.81 317.825 395.786 317.661 395.802 317.499C395.819 317.336 395.876 317.181 395.968 317.046C396.06 316.911 396.184 316.801 396.329 316.725C396.475 316.65 396.637 316.611 396.801 316.613C398.269 316.355 399.778 316.439 401.208 316.858C402.156 317.229 403.145 317.487 404.154 317.626C406.698 317.745 408.997 315.363 411.485 315.901C412.322 316.083 412.8 316.962 413.376 317.591C418.044 322.717 422.592 327.982 426.367 333.793C430.141 339.603 433.136 345.993 434.443 352.781C434.886 355.155 434.858 357.662 436.25 359.646Z" fill="#A7DDE8"/>
<path d="M397.124 308.15C396.592 307.999 396.089 307.764 395.634 307.451C395.414 307.293 395.238 307.082 395.123 306.837C395.007 306.593 394.956 306.324 394.973 306.055C395.035 305.767 395.152 305.495 395.318 305.251L395.95 304.19C396.246 303.701 396.611 303.156 397.173 303.08C397.933 302.975 398.488 303.736 399.008 304.295C399.889 305.099 400.869 305.789 401.925 306.348C403.296 307.214 407.24 309.84 404.252 310.978C401.968 311.823 399.205 308.918 397.124 308.15Z" fill="#A7DDE8"/>
<path d="M384.506 295.88C384.661 297.074 383.592 298.149 382.397 298.45C381.199 298.65 379.969 298.561 378.812 298.191C377.948 299.302 378.812 300.985 380.021 301.683C381.231 302.381 382.728 302.381 384.099 302.759C385.469 303.136 386.91 303.981 387.086 305.37L383.628 305.545C383.46 305.937 383.401 306.367 383.456 306.789C383.512 307.211 383.68 307.611 383.944 307.947C384.475 308.609 385.074 309.215 385.729 309.756C387.838 311.732 389.026 314.407 390.2 317.019C390.98 318.751 391.775 320.559 391.718 322.452C391.639 323.07 391.656 323.697 391.768 324.31C392.021 325.19 392.815 325.783 393.363 326.523C393.823 327.161 394.106 327.909 394.182 328.69C394.259 329.471 394.127 330.258 393.799 330.972C393.019 332.62 390.882 333.409 389.188 334.128C387.494 334.848 385.357 334.827 383.993 333.619C383.107 332.829 382.679 331.677 382.13 330.63C380.957 328.368 379.182 326.47 376.999 325.141C376.19 324.726 375.433 324.22 374.742 323.632C374.4 323.331 374.145 322.944 374.006 322.511C373.866 322.079 373.846 321.617 373.948 321.174C374.175 320.682 374.559 320.278 375.041 320.025C375.523 319.772 376.075 319.685 376.612 319.777C377.684 319.989 378.694 320.44 379.565 321.097C380.19 319.393 379.185 317.494 377.863 316.244C376.542 314.994 374.876 314.114 373.646 312.752C371.038 309.959 370.405 305.301 366.954 303.631C364.044 302.235 361.921 299.441 358.933 298.24C357.696 297.723 356.297 297.542 355.201 296.802C354.364 296.208 353.795 295.314 353.021 294.644C352.422 294.132 351.716 293.759 350.954 293.55C350.192 293.341 349.393 293.302 348.614 293.436C346.948 293.736 345.514 294.832 343.855 295.147C342.112 295.416 340.329 295.057 338.829 294.134C337.35 293.21 335.986 292.115 334.766 290.873C331.357 291.152 327.877 289.399 324.925 287.702C323.224 286.724 321.41 285.607 320.763 283.742L327.54 282.688C328.742 282.499 330.063 282.248 330.823 281.291C330.218 279.615 328.046 279.196 326.253 279.091L320.328 278.665C341.688 277.248 363.009 281.953 381.758 292.22C382.287 292.484 382.763 292.842 383.164 293.275C383.82 294.021 384.281 294.915 384.506 295.88Z" fill="#A7DDE8"/>
<path d="M276.865 322.145C279.101 323.332 280.513 326.237 283.044 326.237C284.176 326.237 285.195 325.616 286.249 325.204C287.02 324.966 287.766 324.657 288.478 324.282C288.831 324.09 289.126 323.809 289.334 323.466C289.541 323.124 289.653 322.733 289.659 322.333C289.574 321.363 288.654 320.713 287.824 320.238L284.858 318.423C284.253 318.011 283.589 317.691 282.889 317.473C282.13 317.277 281.329 317.326 280.556 317.194C279.213 316.963 278.032 316.223 276.767 315.741C275.007 315.087 273.101 314.92 271.254 315.26C269.406 315.6 267.686 316.432 266.279 317.668C264.051 319.687 264.29 322.236 267.411 322.068C270.377 321.914 274.096 320.671 276.865 322.145Z" fill="#ECAB4B"/>
<path d="M278.053 308.205C278.908 307.908 279.785 307.674 280.675 307.507C282.388 307.341 284.114 307.653 285.659 308.408C287.474 309.197 289.138 310.291 290.579 311.641C291.2 312.311 291.91 312.893 292.688 313.373C294.031 314.072 295.76 314.023 296.948 314.972C298.136 315.922 298.459 317.766 299.598 318.855C300.737 319.945 302.508 320.098 304.083 320.44C306.192 320.901 308.195 321.837 310.318 322.249C312.441 322.661 314.887 322.452 316.419 320.929C316.638 320.757 316.779 320.506 316.813 320.231C316.813 319.812 316.391 319.533 316.026 319.309C313.773 317.887 312.121 315.697 311.379 313.15C310.676 310.726 310.789 307.926 309.13 306.02C308.603 305.412 307.865 304.721 308.132 303.966C308.272 303.575 308.673 303.268 308.729 302.884C308.728 302.509 308.582 302.15 308.322 301.878C306.965 300.07 305.51 298.205 303.556 297.109C301.868 296.271 300.021 295.795 298.136 295.712C292.672 295.279 287.178 296.01 282.022 297.858C276.866 299.706 272.167 302.626 268.24 306.425C265.548 309.064 268.036 309.26 270.524 309.218C273.068 309.212 275.599 308.872 278.053 308.205Z" fill="#A7DDE8" stroke="#A7DDE8" stroke-width="2" stroke-miterlimit="10"/>
<path d="M281.089 288.841C282.342 288.544 283.567 288.142 284.752 287.64C286.017 286.983 287.163 285.845 288.583 285.936C288.362 285.582 288.05 285.292 287.679 285.097C287.309 284.902 286.893 284.808 286.474 284.825C285.633 284.877 284.812 285.1 284.063 285.482C282.439 286.18 280.351 287.081 279.051 288.331C276.956 290.356 279.93 289.211 281.089 288.841Z" fill="#A7DDE8" stroke="#A7DDE8" stroke-width="2" stroke-miterlimit="10"/>
<path d="M300.062 287.478C301.593 287.167 303.09 286.711 304.533 286.117C306.459 285.376 308.364 284.566 310.234 283.686C309.053 281.591 306.269 281.193 303.907 281.221C300.723 281.256 297.433 281.731 294.734 283.414C293.328 284.315 292.098 285.285 290.439 285.774C289.3 286.11 288.105 286.375 289.736 287.367C290.917 288.065 293.251 287.702 294.565 287.744C296.402 287.845 298.244 287.756 300.062 287.478Z" fill="#A7DDE8" stroke="#A7DDE8" stroke-width="2" stroke-miterlimit="10"/>
<path d="M64.8438 445.11C67.2508 442.993 69.5101 440.715 71.606 438.294C112.081 394.298 152.957 352.173 201.945 317.242C237.423 291.941 278.193 268.951 322.851 266.821C380.724 264.027 441.803 294.273 485.357 330.371C497.624 340.553 509.222 351.95 516.955 365.854C520.055 371.441 522.578 377.775 521.46 384.053C520.343 390.331 515.76 395.562 511.24 400.206C499.325 412.455 486.981 428.105 469.654 429.976C447.082 432.414 424.623 435.221 402.27 439.257C358.296 447.209 315.062 458.771 273.013 473.826C269.21 475.188 265.119 476.815 263.094 480.292C258.799 487.639 266.609 496.096 273.927 500.545C304.483 518.925 341.69 525.776 377.055 520.888C408.16 516.558 438.092 503.317 462.568 483.819C487.044 464.321 512.378 442.295 532.862 418.335C541.684 408.027 549.979 396.637 552.861 383.417C557.156 363.724 545.389 351.67 532.152 339.226C517.13 325.105 501.391 311.487 483.396 301.208C462.659 289.336 439.659 282.352 416.856 275.585C395.064 269.125 372.852 259.286 350.371 255.598C318.184 250.319 284.358 254.32 254.645 267.847C232.102 278.113 212.236 293.288 192.667 308.422C158.785 334.61 124.994 361.196 95.4357 392.126C82.1923 405.967 67.6555 425.723 64.8438 445.11Z" fill="#ECAB4B"/>
<path d="M31.2797 587.159C37.4867 603.996 45.1628 620.77 45.9993 638.69C37.0368 640.506 27.8494 634.968 22.7249 627.439C17.6005 619.911 15.6955 610.679 14.0717 601.775C9.15114 574.938 -12.4995 498.901 10.1282 480.884C14.845 517.198 18.444 552.332 31.2797 587.159Z" fill="#F68632"/>
<path d="M42.3636 50.1442C48.9713 38.4468 56.5841 26.519 68.3725 20.0104C78.8041 14.263 91.1759 13.4808 103.084 12.8314L275.136 3.41061C344.86 -0.409364 415.618 -4.15251 483.797 10.8341C551.975 25.8207 618.445 62.2047 654 121.914C622.009 128.073 589.224 119.902 557.346 113.163C478.694 96.5372 398.461 88.4262 318.05 88.9724C251.018 89.4333 182.066 96.4867 122.633 127.319C97.4531 140.385 30.5472 201.728 6.47847 172.628C-16.5007 144.792 28.6984 74.342 42.3636 50.1442Z" fill="#A7DDE8"/>
</svg>
