<svg width="266" height="368" viewBox="0 0 266 368" fill="none" xmlns="http://www.w3.org/2000/svg">
<path d="M178.123 228.613L102.77 215.056L103.644 170.718L152.039 166.326L179.351 186.635L178.123 228.613Z" fill="#F68632"/>
<path d="M147.603 142.894L164.64 143.635L179.783 186.196L152.476 165.896L147.603 142.894Z" fill="#A7DDE8"/>
<path d="M102.77 215.056L76.8286 200.037L78.6327 190.286L103.084 198.779L102.77 215.056Z" fill="#A7DDE8"/>
<path d="M103.111 197.758L76.4255 187.2L78.1867 176.096L103.373 184.324L103.111 197.758Z" fill="#A7DDE8"/>
<path d="M103.644 170.718L84.9705 164.851L79.4208 174.504L103.344 183.646L103.644 170.718Z" fill="#A7DDE8"/>
<path d="M103.554 175.129L89.4048 156.998L103.369 154.334L120.949 169.246L103.554 175.129Z" fill="#A7DDE8"/>
<path d="M89.4048 156.998L103.369 154.334L99.4868 139.832L86.2819 140.158L89.4048 156.998Z" fill="#F68632"/>
<path d="M147.331 142.606L138.23 133.411L146.463 125.267L164.64 143.635L147.331 142.606Z" fill="#F68632"/>
<path d="M79.4208 174.504L66.8005 161.583L75.071 155.622L84.9705 164.851L79.4208 174.504Z" fill="#F68632"/>
<path d="M76.4253 187.2L58.9979 173.685L66.2596 166.504L78.1866 176.095L76.4253 187.2Z" fill="#F68632"/>
<path d="M76.8287 200.037L63.8312 190.794L67.8192 182.621L78.6328 190.286L76.8287 200.037Z" fill="#F68632"/>
<path d="M166.561 227.161L265.078 326.771L319.938 292.704L179.783 186.196L166.561 227.161Z" fill="#A7DDE8"/>
<path d="M106.513 57.8758C109.778 63.57 110.88 70.251 109.616 76.6921C112.437 89.78 116.311 102.619 121.2 115.082L112.064 120.305L102.27 125.592C93.8902 115.781 84.8765 106.53 75.2871 97.897C70.9591 96.6745 66.9983 94.4059 63.7541 91.2911C60.5099 88.1764 58.0819 84.3112 56.6843 80.0365C55.2866 75.7618 54.9623 71.2088 55.7398 66.7791C56.5174 62.3495 58.3729 58.1791 61.1428 54.6359C63.9128 51.0927 67.512 48.2855 71.623 46.4619C75.7341 44.6382 80.2307 43.8541 84.7164 44.1787C89.2021 44.5033 93.539 45.9266 97.3446 48.3231C101.15 50.7197 104.308 54.0159 106.539 57.9209L106.513 57.8758Z" fill="#EAE5E0"/>
<path d="M102.291 125.628L121.221 115.118L125.358 125.163L109.252 134.369L102.291 125.628Z" fill="#EE3670"/>
<path d="M138.23 133.411L125.414 122.831L125.471 115.659L146.463 125.267L138.23 133.411Z" fill="#A7DDE8"/>
<path d="M99.4868 139.832L102.523 125.699L94.0501 123.092L86.2819 140.158L99.4868 139.832Z" fill="#A7DDE8"/>
<path d="M66.8005 161.583L57.5804 142.312L64.0804 138.596L75.0711 155.622L66.8005 161.583Z" fill="#A7DDE8"/>
<path d="M66.2287 166.45L55.3963 147.501L46.9614 150.011L58.9669 173.631L66.2287 166.45Z" fill="#A7DDE8"/>
<path d="M67.8553 182.684L56.8257 171.897L49.9386 174.6L63.8673 190.857L67.8553 182.684Z" fill="#A7DDE8"/>
</svg>
