<svg width="330" height="331" viewBox="0 0 330 331" fill="none" xmlns="http://www.w3.org/2000/svg">
<path d="M0 124.268L0 206.268L330 206.268V124.268L0 124.268Z" fill="#96D7E3"/>
<mask id="mask0" mask-type="alpha" maskUnits="userSpaceOnUse" x="123" y="0" width="84" height="331">
<path d="M123.839 330.475H206.2L206.2 9.15527e-05H123.839L123.839 330.475Z" fill="#B8B7B7"/>
</mask>
<g mask="url(#mask0)">
<path d="M197.677 1.42301C200.84 1.42301 203.404 -1.14122 203.404 -4.30436C203.404 -7.46751 200.84 -10.0317 197.677 -10.0317C194.513 -10.0317 191.949 -7.46751 191.949 -4.30436C191.949 -1.14122 194.513 1.42301 197.677 1.42301Z" fill="#B8B7B7"/>
<path d="M129.485 21.2807C132.648 21.2807 135.213 18.7164 135.213 15.5533C135.213 12.3902 132.648 9.82593 129.485 9.82593C126.322 9.82593 123.758 12.3902 123.758 15.5533C123.758 18.7164 126.322 21.2807 129.485 21.2807Z" fill="#B8B7B7"/>
<path d="M129.485 41.101C132.648 41.101 135.213 38.5368 135.213 35.3736C135.213 32.2105 132.648 29.6462 129.485 29.6462C126.322 29.6462 123.758 32.2105 123.758 35.3736C123.758 38.5368 126.322 41.101 129.485 41.101Z" fill="#B8B7B7"/>
<path d="M129.485 61.1051C132.648 61.1051 135.213 58.5409 135.213 55.3778C135.213 52.2146 132.648 49.6504 129.485 49.6504C126.322 49.6504 123.758 52.2146 123.758 55.3778C123.758 58.5409 126.322 61.1051 129.485 61.1051Z" fill="#B8B7B7"/>
<path d="M129.485 80.925C132.648 80.925 135.213 78.3607 135.213 75.1976C135.213 72.0344 132.648 69.4702 129.485 69.4702C126.322 69.4702 123.758 72.0344 123.758 75.1976C123.758 78.3607 126.322 80.925 129.485 80.925Z" fill="#B8B7B7"/>
<path d="M129.457 100.711C132.62 100.711 135.185 98.1471 135.185 94.984C135.185 91.8208 132.62 89.2566 129.457 89.2566C126.294 89.2566 123.73 91.8208 123.73 94.984C123.73 98.1471 126.294 100.711 129.457 100.711Z" fill="#B8B7B7"/>
<path d="M129.457 120.532C132.62 120.532 135.185 117.968 135.185 114.805C135.185 111.641 132.62 109.077 129.457 109.077C126.294 109.077 123.73 111.641 123.73 114.805C123.73 117.968 126.294 120.532 129.457 120.532Z" fill="#B8B7B7"/>
<path d="M129.485 140.481C132.648 140.481 135.213 137.917 135.213 134.754C135.213 131.591 132.648 129.027 129.485 129.027C126.322 129.027 123.758 131.591 123.758 134.754C123.758 137.917 126.322 140.481 129.485 140.481Z" fill="#B8B7B7"/>
<path d="M129.485 160.302C132.648 160.302 135.213 157.737 135.213 154.574C135.213 151.411 132.648 148.847 129.485 148.847C126.322 148.847 123.758 151.411 123.758 154.574C123.758 157.737 126.322 160.302 129.485 160.302Z" fill="#B8B7B7"/>
<path d="M129.485 180.142C132.648 180.142 135.213 177.578 135.213 174.415C135.213 171.251 132.648 168.687 129.485 168.687C126.322 168.687 123.758 171.251 123.758 174.415C123.758 177.578 126.322 180.142 129.485 180.142Z" fill="#B8B7B7"/>
<path d="M129.485 199.963C132.648 199.963 135.213 197.398 135.213 194.235C135.213 191.072 132.648 188.508 129.485 188.508C126.322 188.508 123.758 191.072 123.758 194.235C123.758 197.398 126.322 199.963 129.485 199.963Z" fill="#B8B7B7"/>
<path d="M129.485 219.912C132.648 219.912 135.213 217.348 135.213 214.185C135.213 211.022 132.648 208.457 129.485 208.457C126.322 208.457 123.758 211.022 123.758 214.185C123.758 217.348 126.322 219.912 129.485 219.912Z" fill="#B8B7B7"/>
<path d="M129.485 239.732C132.648 239.732 135.213 237.168 135.213 234.005C135.213 230.842 132.648 228.278 129.485 228.278C126.322 228.278 123.758 230.842 123.758 234.005C123.758 237.168 126.322 239.732 129.485 239.732Z" fill="#B8B7B7"/>
<path d="M129.502 259.585C132.665 259.585 135.229 257.021 135.229 253.858C135.229 250.695 132.665 248.13 129.502 248.13C126.339 248.13 123.774 250.695 123.774 253.858C123.774 257.021 126.339 259.585 129.502 259.585Z" fill="#B8B7B7"/>
<path d="M129.502 279.406C132.665 279.406 135.229 276.841 135.229 273.678C135.229 270.515 132.665 267.951 129.502 267.951C126.339 267.951 123.774 270.515 123.774 273.678C123.774 276.841 126.339 279.406 129.502 279.406Z" fill="#B8B7B7"/>
<path d="M129.502 299.41C132.665 299.41 135.229 296.846 135.229 293.682C135.229 290.519 132.665 287.955 129.502 287.955C126.339 287.955 123.774 290.519 123.774 293.682C123.774 296.846 126.339 299.41 129.502 299.41Z" fill="#B8B7B7"/>
<path d="M129.502 319.23C132.665 319.23 135.229 316.666 135.229 313.503C135.229 310.34 132.665 307.775 129.502 307.775C126.339 307.775 123.774 310.34 123.774 313.503C123.774 316.666 126.339 319.23 129.502 319.23Z" fill="#B8B7B7"/>
<path d="M129.474 339.016C132.637 339.016 135.201 336.452 135.201 333.289C135.201 330.126 132.637 327.561 129.474 327.561C126.311 327.561 123.747 330.126 123.747 333.289C123.747 336.452 126.311 339.016 129.474 339.016Z" fill="#B8B7B7"/>
<path d="M146.747 11.3691C149.91 11.3691 152.474 8.80482 152.474 5.64168C152.474 2.47854 149.91 -0.0856934 146.747 -0.0856934C143.584 -0.0856934 141.02 2.47854 141.02 5.64168C141.02 8.80482 143.584 11.3691 146.747 11.3691Z" fill="#B8B7B7"/>
<path d="M146.747 31.1889C149.91 31.1889 152.474 28.6246 152.474 25.4615C152.474 22.2984 149.91 19.7341 146.747 19.7341C143.584 19.7341 141.02 22.2984 141.02 25.4615C141.02 28.6246 143.584 31.1889 146.747 31.1889Z" fill="#B8B7B7"/>
<path d="M146.747 51.193C149.91 51.193 152.474 48.6288 152.474 45.4657C152.474 42.3025 149.91 39.7383 146.747 39.7383C143.584 39.7383 141.02 42.3025 141.02 45.4657C141.02 48.6288 143.584 51.193 146.747 51.193Z" fill="#B8B7B7"/>
<path d="M146.747 71.0126C149.91 71.0126 152.474 68.4484 152.474 65.2852C152.474 62.1221 149.91 59.5579 146.747 59.5579C143.584 59.5579 141.02 62.1221 141.02 65.2852C141.02 68.4484 143.584 71.0126 146.747 71.0126Z" fill="#B8B7B7"/>
<path d="M146.714 90.8C149.877 90.8 152.441 88.2357 152.441 85.0726C152.441 81.9094 149.877 79.3452 146.714 79.3452C143.551 79.3452 140.986 81.9094 140.986 85.0726C140.986 88.2357 143.551 90.8 146.714 90.8Z" fill="#B8B7B7"/>
<path d="M146.714 110.62C149.877 110.62 152.441 108.055 152.441 104.892C152.441 101.729 149.877 99.1648 146.714 99.1648C143.551 99.1648 140.986 101.729 140.986 104.892C140.986 108.055 143.551 110.62 146.714 110.62Z" fill="#B8B7B7"/>
<path d="M146.747 130.573C149.91 130.573 152.474 128.009 152.474 124.846C152.474 121.683 149.91 119.118 146.747 119.118C143.584 119.118 141.02 121.683 141.02 124.846C141.02 128.009 143.584 130.573 146.747 130.573Z" fill="#B8B7B7"/>
<path d="M146.747 150.394C149.91 150.394 152.474 147.829 152.474 144.666C152.474 141.503 149.91 138.939 146.747 138.939C143.584 138.939 141.02 141.503 141.02 144.666C141.02 147.829 143.584 150.394 146.747 150.394Z" fill="#B8B7B7"/>
<path d="M146.747 170.231C149.91 170.231 152.474 167.666 152.474 164.503C152.474 161.34 149.91 158.776 146.747 158.776C143.584 158.776 141.02 161.34 141.02 164.503C141.02 167.666 143.584 170.231 146.747 170.231Z" fill="#B8B7B7"/>
<path d="M146.747 190.05C149.91 190.05 152.474 187.486 152.474 184.323C152.474 181.16 149.91 178.595 146.747 178.595C143.584 178.595 141.02 181.16 141.02 184.323C141.02 187.486 143.584 190.05 146.747 190.05Z" fill="#B8B7B7"/>
<path d="M146.747 210.004C149.91 210.004 152.474 207.44 152.474 204.276C152.474 201.113 149.91 198.549 146.747 198.549C143.584 198.549 141.02 201.113 141.02 204.276C141.02 207.44 143.584 210.004 146.747 210.004Z" fill="#B8B7B7"/>
<path d="M146.747 229.824C149.91 229.824 152.474 227.26 152.474 224.097C152.474 220.934 149.91 218.37 146.747 218.37C143.584 218.37 141.02 220.934 141.02 224.097C141.02 227.26 143.584 229.824 146.747 229.824Z" fill="#B8B7B7"/>
<path d="M146.758 249.678C149.921 249.678 152.486 247.114 152.486 243.951C152.486 240.787 149.921 238.223 146.758 238.223C143.595 238.223 141.031 240.787 141.031 243.951C141.031 247.114 143.595 249.678 146.758 249.678Z" fill="#B8B7B7"/>
<path d="M146.758 269.498C149.921 269.498 152.486 266.934 152.486 263.771C152.486 260.608 149.921 258.043 146.758 258.043C143.595 258.043 141.031 260.608 141.031 263.771C141.031 266.934 143.595 269.498 146.758 269.498Z" fill="#B8B7B7"/>
<path d="M146.758 289.502C149.921 289.502 152.486 286.937 152.486 283.774C152.486 280.611 149.921 278.047 146.758 278.047C143.595 278.047 141.031 280.611 141.031 283.774C141.031 286.937 143.595 289.502 146.758 289.502Z" fill="#B8B7B7"/>
<path d="M146.758 309.322C149.921 309.322 152.486 306.758 152.486 303.595C152.486 300.431 149.921 297.867 146.758 297.867C143.595 297.867 141.031 300.431 141.031 303.595C141.031 306.758 143.595 309.322 146.758 309.322Z" fill="#B8B7B7"/>
<path d="M146.73 329.109C149.893 329.109 152.458 326.544 152.458 323.381C152.458 320.218 149.893 317.654 146.73 317.654C143.567 317.654 141.003 320.218 141.003 323.381C141.003 326.544 143.567 329.109 146.73 329.109Z" fill="#B8B7B7"/>
<path d="M163.805 21.298C166.968 21.298 169.532 18.7338 169.532 15.5706C169.532 12.4075 166.968 9.84326 163.805 9.84326C160.641 9.84326 158.077 12.4075 158.077 15.5706C158.077 18.7338 160.641 21.298 163.805 21.298Z" fill="#B8B7B7"/>
<path d="M163.805 41.1176C166.968 41.1176 169.532 38.5534 169.532 35.3902C169.532 32.2271 166.968 29.6628 163.805 29.6628C160.641 29.6628 158.077 32.2271 158.077 35.3902C158.077 38.5534 160.641 41.1176 163.805 41.1176Z" fill="#B8B7B7"/>
<path d="M163.805 61.1217C166.968 61.1217 169.532 58.5575 169.532 55.3944C169.532 52.2312 166.968 49.667 163.805 49.667C160.641 49.667 158.077 52.2312 158.077 55.3944C158.077 58.5575 160.641 61.1217 163.805 61.1217Z" fill="#B8B7B7"/>
<path d="M163.805 80.9416C166.968 80.9416 169.532 78.3773 169.532 75.2142C169.532 72.051 166.968 69.4868 163.805 69.4868C160.641 69.4868 158.077 72.051 158.077 75.2142C158.077 78.3773 160.641 80.9416 163.805 80.9416Z" fill="#B8B7B7"/>
<path d="M163.771 100.729C166.934 100.729 169.499 98.1644 169.499 95.0013C169.499 91.8382 166.934 89.2739 163.771 89.2739C160.608 89.2739 158.044 91.8382 158.044 95.0013C158.044 98.1644 160.608 100.729 163.771 100.729Z" fill="#B8B7B7"/>
<path d="M163.771 120.548C166.934 120.548 169.499 117.984 169.499 114.821C169.499 111.658 166.934 109.094 163.771 109.094C160.608 109.094 158.044 111.658 158.044 114.821C158.044 117.984 160.608 120.548 163.771 120.548Z" fill="#B8B7B7"/>
<path d="M163.805 140.498C166.968 140.498 169.532 137.934 169.532 134.771C169.532 131.607 166.968 129.043 163.805 129.043C160.641 129.043 158.077 131.607 158.077 134.771C158.077 137.934 160.641 140.498 163.805 140.498Z" fill="#B8B7B7"/>
<path d="M163.805 160.318C166.968 160.318 169.532 157.754 169.532 154.591C169.532 151.428 166.968 148.864 163.805 148.864C160.641 148.864 158.077 151.428 158.077 154.591C158.077 157.754 160.641 160.318 163.805 160.318Z" fill="#B8B7B7"/>
<path d="M163.805 180.159C166.968 180.159 169.532 177.595 169.532 174.432C169.532 171.269 166.968 168.705 163.805 168.705C160.641 168.705 158.077 171.269 158.077 174.432C158.077 177.595 160.641 180.159 163.805 180.159Z" fill="#B8B7B7"/>
<path d="M163.805 199.979C166.968 199.979 169.532 197.415 169.532 194.252C169.532 191.089 166.968 188.524 163.805 188.524C160.641 188.524 158.077 191.089 158.077 194.252C158.077 197.415 160.641 199.979 163.805 199.979Z" fill="#B8B7B7"/>
<path d="M163.805 219.929C166.968 219.929 169.532 217.364 169.532 214.201C169.532 211.038 166.968 208.474 163.805 208.474C160.641 208.474 158.077 211.038 158.077 214.201C158.077 217.364 160.641 219.929 163.805 219.929Z" fill="#B8B7B7"/>
<path d="M163.805 239.749C166.968 239.749 169.532 237.185 169.532 234.022C169.532 230.858 166.968 228.294 163.805 228.294C160.641 228.294 158.077 230.858 158.077 234.022C158.077 237.185 160.641 239.749 163.805 239.749Z" fill="#B8B7B7"/>
<path d="M163.821 259.607C166.984 259.607 169.549 257.042 169.549 253.879C169.549 250.716 166.984 248.152 163.821 248.152C160.658 248.152 158.094 250.716 158.094 253.879C158.094 257.042 160.658 259.607 163.821 259.607Z" fill="#B8B7B7"/>
<path d="M163.821 279.422C166.984 279.422 169.549 276.858 169.549 273.695C169.549 270.532 166.984 267.968 163.821 267.968C160.658 267.968 158.094 270.532 158.094 273.695C158.094 276.858 160.658 279.422 163.821 279.422Z" fill="#B8B7B7"/>
<path d="M163.821 299.426C166.984 299.426 169.549 296.862 169.549 293.699C169.549 290.536 166.984 287.972 163.821 287.972C160.658 287.972 158.094 290.536 158.094 293.699C158.094 296.862 160.658 299.426 163.821 299.426Z" fill="#B8B7B7"/>
<path d="M163.821 319.247C166.984 319.247 169.549 316.683 169.549 313.519C169.549 310.356 166.984 307.792 163.821 307.792C160.658 307.792 158.094 310.356 158.094 313.519C158.094 316.683 160.658 319.247 163.821 319.247Z" fill="#B8B7B7"/>
<path d="M163.788 339.037C166.951 339.037 169.515 336.473 169.515 333.31C169.515 330.147 166.951 327.583 163.788 327.583C160.625 327.583 158.061 330.147 158.061 333.31C158.061 336.473 160.625 339.037 163.788 339.037Z" fill="#B8B7B7"/>
<path d="M180.68 11.3691C183.843 11.3691 186.407 8.80482 186.407 5.64168C186.407 2.47854 183.843 -0.0856934 180.68 -0.0856934C177.517 -0.0856934 174.953 2.47854 174.953 5.64168C174.953 8.80482 177.517 11.3691 180.68 11.3691Z" fill="#B8B7B7"/>
<path d="M180.68 31.1889C183.843 31.1889 186.407 28.6246 186.407 25.4615C186.407 22.2984 183.843 19.7341 180.68 19.7341C177.517 19.7341 174.953 22.2984 174.953 25.4615C174.953 28.6246 177.517 31.1889 180.68 31.1889Z" fill="#B8B7B7"/>
<path d="M180.68 51.193C183.843 51.193 186.407 48.6288 186.407 45.4657C186.407 42.3025 183.843 39.7383 180.68 39.7383C177.517 39.7383 174.953 42.3025 174.953 45.4657C174.953 48.6288 177.517 51.193 180.68 51.193Z" fill="#B8B7B7"/>
<path d="M180.68 71.0126C183.843 71.0126 186.407 68.4484 186.407 65.2852C186.407 62.1221 183.843 59.5579 180.68 59.5579C177.517 59.5579 174.953 62.1221 174.953 65.2852C174.953 68.4484 177.517 71.0126 180.68 71.0126Z" fill="#B8B7B7"/>
<path d="M180.652 90.8C183.815 90.8 186.38 88.2357 186.38 85.0726C186.38 81.9094 183.815 79.3452 180.652 79.3452C177.489 79.3452 174.925 81.9094 174.925 85.0726C174.925 88.2357 177.489 90.8 180.652 90.8Z" fill="#B8B7B7"/>
<path d="M180.652 110.62C183.815 110.62 186.38 108.055 186.38 104.892C186.38 101.729 183.815 99.1648 180.652 99.1648C177.489 99.1648 174.925 101.729 174.925 104.892C174.925 108.055 177.489 110.62 180.652 110.62Z" fill="#B8B7B7"/>
<path d="M180.68 130.573C183.843 130.573 186.407 128.009 186.407 124.846C186.407 121.683 183.843 119.118 180.68 119.118C177.517 119.118 174.953 121.683 174.953 124.846C174.953 128.009 177.517 130.573 180.68 130.573Z" fill="#B8B7B7"/>
<path d="M180.68 150.394C183.843 150.394 186.407 147.829 186.407 144.666C186.407 141.503 183.843 138.939 180.68 138.939C177.517 138.939 174.953 141.503 174.953 144.666C174.953 147.829 177.517 150.394 180.68 150.394Z" fill="#B8B7B7"/>
<path d="M180.68 170.231C183.843 170.231 186.407 167.666 186.407 164.503C186.407 161.34 183.843 158.776 180.68 158.776C177.517 158.776 174.953 161.34 174.953 164.503C174.953 167.666 177.517 170.231 180.68 170.231Z" fill="#B8B7B7"/>
<path d="M180.68 190.05C183.843 190.05 186.407 187.486 186.407 184.323C186.407 181.16 183.843 178.595 180.68 178.595C177.517 178.595 174.953 181.16 174.953 184.323C174.953 187.486 177.517 190.05 180.68 190.05Z" fill="#B8B7B7"/>
<path d="M180.68 210.004C183.843 210.004 186.407 207.44 186.407 204.276C186.407 201.113 183.843 198.549 180.68 198.549C177.517 198.549 174.953 201.113 174.953 204.276C174.953 207.44 177.517 210.004 180.68 210.004Z" fill="#B8B7B7"/>
<path d="M180.68 229.824C183.843 229.824 186.407 227.26 186.407 224.097C186.407 220.934 183.843 218.37 180.68 218.37C177.517 218.37 174.953 220.934 174.953 224.097C174.953 227.26 177.517 229.824 180.68 229.824Z" fill="#B8B7B7"/>
<path d="M180.697 249.678C183.86 249.678 186.424 247.114 186.424 243.951C186.424 240.787 183.86 238.223 180.697 238.223C177.533 238.223 174.969 240.787 174.969 243.951C174.969 247.114 177.533 249.678 180.697 249.678Z" fill="#B8B7B7"/>
<path d="M180.697 269.498C183.86 269.498 186.424 266.934 186.424 263.771C186.424 260.608 183.86 258.043 180.697 258.043C177.533 258.043 174.969 260.608 174.969 263.771C174.969 266.934 177.533 269.498 180.697 269.498Z" fill="#B8B7B7"/>
<path d="M180.697 289.502C183.86 289.502 186.424 286.937 186.424 283.774C186.424 280.611 183.86 278.047 180.697 278.047C177.533 278.047 174.969 280.611 174.969 283.774C174.969 286.937 177.533 289.502 180.697 289.502Z" fill="#B8B7B7"/>
<path d="M180.697 309.322C183.86 309.322 186.424 306.758 186.424 303.595C186.424 300.431 183.86 297.867 180.697 297.867C177.533 297.867 174.969 300.431 174.969 303.595C174.969 306.758 177.533 309.322 180.697 309.322Z" fill="#B8B7B7"/>
<path d="M180.669 329.109C183.832 329.109 186.396 326.544 186.396 323.381C186.396 320.218 183.832 317.654 180.669 317.654C177.506 317.654 174.941 320.218 174.941 323.381C174.941 326.544 177.506 329.109 180.669 329.109Z" fill="#B8B7B7"/>
<path d="M197.704 21.2641C200.868 21.2641 203.432 18.6998 203.432 15.5367C203.432 12.3736 200.868 9.80933 197.704 9.80933C194.541 9.80933 191.977 12.3736 191.977 15.5367C191.977 18.6998 194.541 21.2641 197.704 21.2641Z" fill="#B8B7B7"/>
<path d="M197.704 41.0802C200.868 41.0802 203.432 38.516 203.432 35.3529C203.432 32.1897 200.868 29.6255 197.704 29.6255C194.541 29.6255 191.977 32.1897 191.977 35.3529C191.977 38.516 194.541 41.0802 197.704 41.0802Z" fill="#B8B7B7"/>
<path d="M197.704 61.0837C200.868 61.0837 203.432 58.5194 203.432 55.3563C203.432 52.1931 200.868 49.6289 197.704 49.6289C194.541 49.6289 191.977 52.1931 191.977 55.3563C191.977 58.5194 194.541 61.0837 197.704 61.0837Z" fill="#B8B7B7"/>
<path d="M197.704 80.9042C200.868 80.9042 203.432 78.34 203.432 75.1768C203.432 72.0137 200.868 69.4495 197.704 69.4495C194.541 69.4495 191.977 72.0137 191.977 75.1768C191.977 78.34 194.541 80.9042 197.704 80.9042Z" fill="#B8B7B7"/>
<path d="M197.677 100.695C200.84 100.695 203.404 98.1305 203.404 94.9674C203.404 91.8042 200.84 89.24 197.677 89.24C194.513 89.24 191.949 91.8042 191.949 94.9674C191.949 98.1305 194.513 100.695 197.677 100.695Z" fill="#B8B7B7"/>
<path d="M197.677 120.511C200.84 120.511 203.404 117.947 203.404 114.784C203.404 111.62 200.84 109.056 197.677 109.056C194.513 109.056 191.949 111.62 191.949 114.784C191.949 117.947 194.513 120.511 197.677 120.511Z" fill="#B8B7B7"/>
<path d="M197.704 140.465C200.868 140.465 203.432 137.901 203.432 134.737C203.432 131.574 200.868 129.01 197.704 129.01C194.541 129.01 191.977 131.574 191.977 134.737C191.977 137.901 194.541 140.465 197.704 140.465Z" fill="#B8B7B7"/>
<path d="M197.704 160.284C200.868 160.284 203.432 157.72 203.432 154.557C203.432 151.394 200.868 148.83 197.704 148.83C194.541 148.83 191.977 151.394 191.977 154.557C191.977 157.72 194.541 160.284 197.704 160.284Z" fill="#B8B7B7"/>
<path d="M197.704 180.126C200.868 180.126 203.432 177.561 203.432 174.398C203.432 171.235 200.868 168.671 197.704 168.671C194.541 168.671 191.977 171.235 191.977 174.398C191.977 177.561 194.541 180.126 197.704 180.126Z" fill="#B8B7B7"/>
<path d="M197.704 199.942C200.868 199.942 203.432 197.378 203.432 194.214C203.432 191.051 200.868 188.487 197.704 188.487C194.541 188.487 191.977 191.051 191.977 194.214C191.977 197.378 194.541 199.942 197.704 199.942Z" fill="#B8B7B7"/>
<path d="M197.704 219.895C200.868 219.895 203.432 217.331 203.432 214.168C203.432 211.005 200.868 208.441 197.704 208.441C194.541 208.441 191.977 211.005 191.977 214.168C191.977 217.331 194.541 219.895 197.704 219.895Z" fill="#B8B7B7"/>
<path d="M197.704 239.715C200.868 239.715 203.432 237.151 203.432 233.988C203.432 230.824 200.868 228.26 197.704 228.26C194.541 228.26 191.977 230.824 191.977 233.988C191.977 237.151 194.541 239.715 197.704 239.715Z" fill="#B8B7B7"/>
<path d="M197.721 259.569C200.884 259.569 203.448 257.004 203.448 253.841C203.448 250.678 200.884 248.114 197.721 248.114C194.558 248.114 191.994 250.678 191.994 253.841C191.994 257.004 194.558 259.569 197.721 259.569Z" fill="#B8B7B7"/>
<path d="M197.721 279.389C200.884 279.389 203.448 276.825 203.448 273.662C203.448 270.499 200.884 267.934 197.721 267.934C194.558 267.934 191.994 270.499 191.994 273.662C191.994 276.825 194.558 279.389 197.721 279.389Z" fill="#B8B7B7"/>
<path d="M197.721 299.393C200.884 299.393 203.448 296.829 203.448 293.666C203.448 290.503 200.884 287.938 197.721 287.938C194.558 287.938 191.994 290.503 191.994 293.666C191.994 296.829 194.558 299.393 197.721 299.393Z" fill="#B8B7B7"/>
<path d="M197.721 319.213C200.884 319.213 203.448 316.649 203.448 313.485C203.448 310.322 200.884 307.758 197.721 307.758C194.558 307.758 191.994 310.322 191.994 313.485C191.994 316.649 194.558 319.213 197.721 319.213Z" fill="#B8B7B7"/>
<path d="M197.688 338.999C200.851 338.999 203.415 336.435 203.415 333.272C203.415 330.109 200.851 327.545 197.688 327.545C194.525 327.545 191.96 330.109 191.96 333.272C191.96 336.435 194.525 338.999 197.688 338.999Z" fill="#B8B7B7"/>
<path d="M129.656 1.46037C132.819 1.46037 135.383 -1.10387 135.383 -4.26701C135.383 -7.43015 132.819 -9.99438 129.656 -9.99438C126.493 -9.99438 123.929 -7.43015 123.929 -4.26701C123.929 -1.10387 126.493 1.46037 129.656 1.46037Z" fill="#B8B7B7"/>
<path d="M163.771 1.46037C166.934 1.46037 169.499 -1.10387 169.499 -4.26701C169.499 -7.43015 166.934 -9.99438 163.771 -9.99438C160.608 -9.99438 158.044 -7.43015 158.044 -4.26701C158.044 -1.10387 160.608 1.46037 163.771 1.46037Z" fill="#B8B7B7"/>
</g>
</svg>
