<svg width="331" height="331" viewBox="0 0 331 331" fill="none" xmlns="http://www.w3.org/2000/svg">
<path d="M124 330.268H206L206 0.267578H124L124 330.268Z" fill="#F46E20"/>
<mask id="mask0" mask-type="alpha" maskUnits="userSpaceOnUse" x="0" y="124" width="331" height="83">
<path d="M0 124.343L0 206.704L330.475 206.704V124.343L0 124.343Z" fill="#B8B7B7"/>
</mask>
<g mask="url(#mask0)">
<path d="M311.55 123.39C311.55 126.553 314.115 129.117 317.278 129.117C320.441 129.117 323.005 126.553 323.005 123.39C323.005 120.227 320.441 117.662 317.278 117.662C314.115 117.662 311.55 120.227 311.55 123.39Z" fill="#B8B7B7"/>
<path d="M291.73 123.39C291.73 126.553 294.294 129.117 297.457 129.117C300.62 129.117 303.185 126.553 303.185 123.39C303.185 120.227 300.62 117.662 297.457 117.662C294.294 117.662 291.73 120.227 291.73 123.39Z" fill="#B8B7B7"/>
<path d="M271.943 123.356C271.943 126.519 274.507 129.083 277.67 129.083C280.833 129.083 283.397 126.519 283.397 123.356C283.397 120.193 280.833 117.629 277.67 117.629C274.507 117.629 271.943 120.193 271.943 123.356Z" fill="#B8B7B7"/>
<path d="M252.122 123.356C252.122 126.519 254.687 129.083 257.85 129.083C261.013 129.083 263.577 126.519 263.577 123.356C263.577 120.193 261.013 117.629 257.85 117.629C254.687 117.629 252.122 120.193 252.122 123.356Z" fill="#B8B7B7"/>
<path d="M232.169 123.39C232.169 126.553 234.734 129.117 237.897 129.117C241.06 129.117 243.624 126.553 243.624 123.39C243.624 120.227 241.06 117.662 237.897 117.662C234.734 117.662 232.169 120.227 232.169 123.39Z" fill="#B8B7B7"/>
<path d="M212.349 123.39C212.349 126.553 214.913 129.117 218.076 129.117C221.239 129.117 223.804 126.553 223.804 123.39C223.804 120.227 221.239 117.662 218.076 117.662C214.913 117.662 212.349 120.227 212.349 123.39Z" fill="#B8B7B7"/>
<path d="M192.512 123.39C192.512 126.553 195.076 129.117 198.239 129.117C201.403 129.117 203.967 126.553 203.967 123.39C203.967 120.227 201.403 117.662 198.239 117.662C195.076 117.662 192.512 120.227 192.512 123.39Z" fill="#B8B7B7"/>
<path d="M172.692 123.39C172.692 126.553 175.256 129.117 178.419 129.117C181.582 129.117 184.146 126.553 184.146 123.39C184.146 120.227 181.582 117.662 178.419 117.662C175.256 117.662 172.692 120.227 172.692 123.39Z" fill="#B8B7B7"/>
<path d="M152.739 123.39C152.739 126.553 155.303 129.117 158.466 129.117C161.629 129.117 164.193 126.553 164.193 123.39C164.193 120.227 161.629 117.662 158.466 117.662C155.303 117.662 152.739 120.227 152.739 123.39Z" fill="#B8B7B7"/>
<path d="M132.918 123.39C132.918 126.553 135.483 129.117 138.646 129.117C141.809 129.117 144.373 126.553 144.373 123.39C144.373 120.227 141.809 117.662 138.646 117.662C135.483 117.662 132.918 120.227 132.918 123.39Z" fill="#B8B7B7"/>
<path d="M321.624 140.446C321.624 143.609 324.188 146.173 327.351 146.173C330.514 146.173 333.078 143.609 333.078 140.446C333.078 137.283 330.514 134.719 327.351 134.719C324.188 134.719 321.624 137.283 321.624 140.446Z" fill="#B8B7B7"/>
<path d="M301.621 140.446C301.621 143.609 304.185 146.173 307.348 146.173C310.511 146.173 313.075 143.609 313.075 140.446C313.075 137.283 310.511 134.719 307.348 134.719C304.185 134.719 301.621 137.283 301.621 140.446Z" fill="#B8B7B7"/>
<path d="M281.8 140.446C281.8 143.609 284.365 146.173 287.528 146.173C290.691 146.173 293.255 143.609 293.255 140.446C293.255 137.283 290.691 134.719 287.528 134.719C284.365 134.719 281.8 137.283 281.8 140.446Z" fill="#B8B7B7"/>
<path d="M262.013 140.417C262.013 143.58 264.577 146.144 267.741 146.144C270.904 146.144 273.468 143.58 273.468 140.417C273.468 137.254 270.904 134.69 267.741 134.69C264.578 134.69 262.013 137.254 262.013 140.417Z" fill="#B8B7B7"/>
<path d="M242.193 140.417C242.193 143.58 244.757 146.144 247.92 146.144C251.083 146.144 253.647 143.58 253.647 140.417C253.647 137.254 251.083 134.69 247.92 134.69C244.757 134.69 242.193 137.254 242.193 140.417Z" fill="#B8B7B7"/>
<path d="M222.24 140.446C222.24 143.609 224.804 146.173 227.967 146.173C231.13 146.173 233.695 143.609 233.695 140.446C233.695 137.283 231.13 134.719 227.967 134.719C224.804 134.719 222.24 137.283 222.24 140.446Z" fill="#B8B7B7"/>
<path d="M202.425 140.446C202.425 143.609 204.989 146.173 208.152 146.173C211.315 146.173 213.88 143.609 213.88 140.446C213.88 137.283 211.315 134.719 208.152 134.719C204.989 134.719 202.425 137.283 202.425 140.446Z" fill="#B8B7B7"/>
<path d="M182.582 140.446C182.582 143.609 185.147 146.173 188.31 146.173C191.473 146.173 194.037 143.609 194.037 140.446C194.037 137.283 191.473 134.719 188.31 134.719C185.147 134.719 182.582 137.283 182.582 140.446Z" fill="#B8B7B7"/>
<path d="M162.762 140.446C162.762 143.609 165.326 146.173 168.489 146.173C171.653 146.173 174.217 143.609 174.217 140.446C174.217 137.283 171.653 134.719 168.489 134.719C165.326 134.719 162.762 137.283 162.762 140.446Z" fill="#B8B7B7"/>
<path d="M142.809 140.446C142.809 143.609 145.373 146.173 148.537 146.173C151.7 146.173 154.264 143.609 154.264 140.446C154.264 137.283 151.7 134.719 148.537 134.719C145.373 134.719 142.809 137.283 142.809 140.446Z" fill="#B8B7B7"/>
<path d="M122.994 140.446C122.994 143.609 125.558 146.173 128.722 146.173C131.885 146.173 134.449 143.609 134.449 140.446C134.449 137.283 131.885 134.719 128.722 134.719C125.558 134.719 122.994 137.283 122.994 140.446Z" fill="#B8B7B7"/>
<path d="M311.55 157.323C311.55 160.486 314.115 163.051 317.278 163.051C320.441 163.051 323.005 160.486 323.005 157.323C323.005 154.16 320.441 151.596 317.278 151.596C314.115 151.596 311.55 154.16 311.55 157.323Z" fill="#B8B7B7"/>
<path d="M291.73 157.323C291.73 160.486 294.294 163.051 297.457 163.051C300.62 163.051 303.185 160.486 303.185 157.323C303.185 154.16 300.62 151.596 297.457 151.596C294.294 151.596 291.73 154.16 291.73 157.323Z" fill="#B8B7B7"/>
<path d="M271.943 157.294C271.943 160.457 274.507 163.022 277.67 163.022C280.833 163.022 283.397 160.457 283.397 157.294C283.397 154.131 280.833 151.567 277.67 151.567C274.507 151.567 271.943 154.131 271.943 157.294Z" fill="#B8B7B7"/>
<path d="M252.122 157.294C252.122 160.457 254.687 163.022 257.85 163.022C261.013 163.022 263.577 160.457 263.577 157.294C263.577 154.131 261.013 151.567 257.85 151.567C254.687 151.567 252.122 154.131 252.122 157.294Z" fill="#B8B7B7"/>
<path d="M232.169 157.323C232.169 160.486 234.734 163.051 237.897 163.051C241.06 163.051 243.624 160.486 243.624 157.323C243.624 154.16 241.06 151.596 237.897 151.596C234.734 151.596 232.169 154.16 232.169 157.323Z" fill="#B8B7B7"/>
<path d="M212.349 157.323C212.349 160.486 214.913 163.051 218.076 163.051C221.239 163.051 223.804 160.486 223.804 157.323C223.804 154.16 221.239 151.596 218.076 151.596C214.913 151.596 212.349 154.16 212.349 157.323Z" fill="#B8B7B7"/>
<path d="M192.512 157.323C192.512 160.486 195.076 163.051 198.239 163.051C201.403 163.051 203.967 160.486 203.967 157.323C203.967 154.16 201.403 151.596 198.239 151.596C195.076 151.596 192.512 154.16 192.512 157.323Z" fill="#B8B7B7"/>
<path d="M172.692 157.323C172.692 160.486 175.256 163.051 178.419 163.051C181.582 163.051 184.146 160.486 184.146 157.323C184.146 154.16 181.582 151.596 178.419 151.596C175.256 151.596 172.692 154.16 172.692 157.323Z" fill="#B8B7B7"/>
<path d="M152.739 157.323C152.739 160.486 155.303 163.051 158.466 163.051C161.629 163.051 164.193 160.486 164.193 157.323C164.193 154.16 161.629 151.596 158.466 151.596C155.303 151.596 152.739 154.16 152.739 157.323Z" fill="#B8B7B7"/>
<path d="M132.918 157.323C132.918 160.486 135.483 163.051 138.646 163.051C141.809 163.051 144.373 160.486 144.373 157.323C144.373 154.16 141.809 151.596 138.646 151.596C135.483 151.596 132.918 154.16 132.918 157.323Z" fill="#B8B7B7"/>
<path d="M321.662 174.35C321.662 177.514 324.226 180.078 327.39 180.078C330.553 180.078 333.117 177.514 333.117 174.35C333.117 171.187 330.553 168.623 327.39 168.623C324.226 168.623 321.662 171.187 321.662 174.35Z" fill="#B8B7B7"/>
<path d="M301.654 174.35C301.654 177.514 304.218 180.078 307.381 180.078C310.544 180.078 313.109 177.514 313.109 174.35C313.109 171.187 310.544 168.623 307.381 168.623C304.218 168.623 301.654 171.187 301.654 174.35Z" fill="#B8B7B7"/>
<path d="M281.839 174.35C281.839 177.514 284.403 180.078 287.567 180.078C290.73 180.078 293.294 177.514 293.294 174.35C293.294 171.187 290.73 168.623 287.567 168.623C284.403 168.623 281.839 171.187 281.839 174.35Z" fill="#B8B7B7"/>
<path d="M262.052 174.321C262.052 177.485 264.616 180.049 267.779 180.049C270.942 180.049 273.507 177.485 273.507 174.321C273.507 171.158 270.942 168.594 267.779 168.594C264.616 168.594 262.052 171.158 262.052 174.321Z" fill="#B8B7B7"/>
<path d="M242.232 174.321C242.232 177.485 244.796 180.049 247.959 180.049C251.122 180.049 253.686 177.485 253.686 174.321C253.686 171.158 251.122 168.594 247.959 168.594C244.796 168.594 242.232 171.158 242.232 174.321Z" fill="#B8B7B7"/>
<path d="M222.278 174.35C222.278 177.514 224.843 180.078 228.006 180.078C231.169 180.078 233.733 177.514 233.733 174.35C233.733 171.187 231.169 168.623 228.006 168.623C224.843 168.623 222.278 171.187 222.278 174.35Z" fill="#B8B7B7"/>
<path d="M202.458 174.35C202.458 177.514 205.022 180.078 208.185 180.078C211.349 180.078 213.913 177.514 213.913 174.35C213.913 171.187 211.349 168.623 208.185 168.623C205.022 168.623 202.458 171.187 202.458 174.35Z" fill="#B8B7B7"/>
<path d="M182.621 174.35C182.621 177.514 185.185 180.078 188.349 180.078C191.512 180.078 194.076 177.514 194.076 174.35C194.076 171.187 191.512 168.623 188.349 168.623C185.185 168.623 182.621 171.187 182.621 174.35Z" fill="#B8B7B7"/>
<path d="M162.801 174.35C162.801 177.514 165.365 180.078 168.528 180.078C171.691 180.078 174.256 177.514 174.256 174.35C174.256 171.187 171.691 168.623 168.528 168.623C165.365 168.623 162.801 171.187 162.801 174.35Z" fill="#B8B7B7"/>
<path d="M142.848 174.35C142.848 177.514 145.412 180.078 148.575 180.078C151.738 180.078 154.302 177.514 154.302 174.35C154.302 171.187 151.738 168.623 148.575 168.623C145.412 168.623 142.848 171.187 142.848 174.35Z" fill="#B8B7B7"/>
<path d="M123.027 174.35C123.027 177.514 125.592 180.078 128.755 180.078C131.918 180.078 134.482 177.514 134.482 174.35C134.482 171.187 131.918 168.623 128.755 168.623C125.592 168.623 123.027 171.187 123.027 174.35Z" fill="#B8B7B7"/>
<path d="M311.733 191.411C311.733 194.575 314.297 197.139 317.46 197.139C320.623 197.139 323.187 194.575 323.187 191.411C323.187 188.248 320.623 185.684 317.46 185.684C314.297 185.684 311.733 188.248 311.733 191.411Z" fill="#B8B7B7"/>
<path d="M291.73 191.411C291.73 194.575 294.294 197.139 297.457 197.139C300.62 197.139 303.185 194.575 303.185 191.411C303.185 188.248 300.62 185.684 297.457 185.684C294.294 185.684 291.73 188.248 291.73 191.411Z" fill="#B8B7B7"/>
<path d="M271.91 191.411C271.91 194.575 274.474 197.139 277.637 197.139C280.8 197.139 283.364 194.575 283.364 191.411C283.364 188.248 280.8 185.684 277.637 185.684C274.474 185.684 271.91 188.248 271.91 191.411Z" fill="#B8B7B7"/>
<path d="M252.122 191.378C252.122 194.541 254.687 197.106 257.85 197.106C261.013 197.106 263.577 194.541 263.577 191.378C263.577 188.215 261.013 185.651 257.85 185.651C254.687 185.651 252.122 188.215 252.122 191.378Z" fill="#B8B7B7"/>
<path d="M232.302 191.378C232.302 194.541 234.866 197.106 238.029 197.106C241.192 197.106 243.757 194.541 243.757 191.378C243.757 188.215 241.192 185.651 238.029 185.651C234.866 185.651 232.302 188.215 232.302 191.378Z" fill="#B8B7B7"/>
<path d="M212.349 191.411C212.349 194.575 214.913 197.139 218.076 197.139C221.239 197.139 223.804 194.575 223.804 191.411C223.804 188.248 221.239 185.684 218.076 185.684C214.913 185.684 212.349 188.248 212.349 191.411Z" fill="#B8B7B7"/>
<path d="M192.529 191.411C192.529 194.575 195.093 197.139 198.256 197.139C201.419 197.139 203.983 194.575 203.983 191.411C203.983 188.248 201.419 185.684 198.256 185.684C195.093 185.684 192.529 188.248 192.529 191.411Z" fill="#B8B7B7"/>
<path d="M172.692 191.411C172.692 194.575 175.256 197.139 178.419 197.139C181.582 197.139 184.146 194.575 184.146 191.411C184.146 188.248 181.582 185.684 178.419 185.684C175.256 185.684 172.692 188.248 172.692 191.411Z" fill="#B8B7B7"/>
<path d="M152.871 191.411C152.871 194.575 155.435 197.139 158.599 197.139C161.762 197.139 164.326 194.575 164.326 191.411C164.326 188.248 161.762 185.684 158.599 185.684C155.435 185.684 152.871 188.248 152.871 191.411Z" fill="#B8B7B7"/>
<path d="M132.918 191.411C132.918 194.575 135.483 197.139 138.646 197.139C141.809 197.139 144.373 194.575 144.373 191.411C144.373 188.248 141.809 185.684 138.646 185.684C135.483 185.684 132.918 188.248 132.918 191.411Z" fill="#B8B7B7"/>
<path d="M113.098 191.411C113.098 194.575 115.662 197.139 118.825 197.139C121.989 197.139 124.553 194.575 124.553 191.411C124.553 188.248 121.989 185.684 118.825 185.684C115.662 185.684 113.098 188.248 113.098 191.411Z" fill="#B8B7B7"/>
<path d="M321.662 208.289C321.662 211.452 324.226 214.016 327.39 214.016C330.553 214.016 333.117 211.452 333.117 208.289C333.117 205.126 330.553 202.561 327.39 202.561C324.226 202.561 321.662 205.126 321.662 208.289Z" fill="#B8B7B7"/>
<path d="M301.654 208.289C301.654 211.452 304.218 214.016 307.381 214.016C310.544 214.016 313.109 211.452 313.109 208.289C313.109 205.126 310.544 202.561 307.381 202.561C304.218 202.561 301.654 205.126 301.654 208.289Z" fill="#B8B7B7"/>
<path d="M281.839 208.289C281.839 211.452 284.403 214.016 287.567 214.016C290.73 214.016 293.294 211.452 293.294 208.289C293.294 205.126 290.73 202.561 287.567 202.561C284.403 202.561 281.839 205.126 281.839 208.289Z" fill="#B8B7B7"/>
<path d="M262.052 208.255C262.052 211.418 264.616 213.982 267.779 213.982C270.942 213.982 273.507 211.418 273.507 208.255C273.507 205.092 270.942 202.528 267.779 202.528C264.616 202.528 262.052 205.092 262.052 208.255Z" fill="#B8B7B7"/>
<path d="M242.232 208.255C242.232 211.418 244.796 213.982 247.959 213.982C251.122 213.982 253.686 211.418 253.686 208.255C253.686 205.092 251.122 202.528 247.959 202.528C244.796 202.528 242.232 205.092 242.232 208.255Z" fill="#B8B7B7"/>
<path d="M222.278 208.289C222.278 211.452 224.843 214.016 228.006 214.016C231.169 214.016 233.733 211.452 233.733 208.289C233.733 205.126 231.169 202.561 228.006 202.561C224.843 202.561 222.278 205.126 222.278 208.289Z" fill="#B8B7B7"/>
<path d="M202.458 208.289C202.458 211.452 205.022 214.016 208.185 214.016C211.349 214.016 213.913 211.452 213.913 208.289C213.913 205.126 211.349 202.561 208.185 202.561C205.022 202.561 202.458 205.126 202.458 208.289Z" fill="#B8B7B7"/>
<path d="M182.621 208.289C182.621 211.452 185.185 214.016 188.349 214.016C191.512 214.016 194.076 211.452 194.076 208.289C194.076 205.126 191.512 202.561 188.349 202.561C185.185 202.561 182.621 205.126 182.621 208.289Z" fill="#B8B7B7"/>
<path d="M162.801 208.289C162.801 211.452 165.365 214.016 168.528 214.016C171.691 214.016 174.256 211.452 174.256 208.289C174.256 205.126 171.691 202.561 168.528 202.561C165.365 202.561 162.801 205.126 162.801 208.289Z" fill="#B8B7B7"/>
<path d="M142.848 208.289C142.848 211.452 145.412 214.016 148.575 214.016C151.738 214.016 154.302 211.452 154.302 208.289C154.302 205.126 151.738 202.561 148.575 202.561C145.412 202.561 142.848 205.126 142.848 208.289Z" fill="#B8B7B7"/>
<path d="M123.027 208.289C123.027 211.452 125.592 214.016 128.755 214.016C131.918 214.016 134.482 211.452 134.482 208.289C134.482 205.126 131.918 202.561 128.755 202.561C125.592 202.561 123.027 205.126 123.027 208.289Z" fill="#B8B7B7"/>
<path d="M93.2442 123.219C93.2442 126.382 95.8085 128.946 98.9716 128.946C102.135 128.946 104.699 126.382 104.699 123.219C104.699 120.055 102.135 117.491 98.9716 117.491C95.8085 117.491 93.2442 120.055 93.2442 123.219Z" fill="#B8B7B7"/>
<path d="M73.4239 123.219C73.4239 126.382 75.9881 128.946 79.1513 128.946C82.3144 128.946 84.8787 126.382 84.8787 123.219C84.8787 120.055 82.3144 117.491 79.1513 117.491C75.9881 117.491 73.4239 120.055 73.4239 123.219Z" fill="#B8B7B7"/>
<path d="M53.4212 123.219C53.4212 126.382 55.9855 128.946 59.1486 128.946C62.3117 128.946 64.876 126.382 64.876 123.219C64.876 120.055 62.3117 117.491 59.1486 117.491C55.9855 117.491 53.4212 120.055 53.4212 123.219Z" fill="#B8B7B7"/>
<path d="M33.6009 123.219C33.6009 126.382 36.1651 128.946 39.3283 128.946C42.4914 128.946 45.0557 126.382 45.0557 123.219C45.0557 120.055 42.4914 117.491 39.3283 117.491C36.1651 117.491 33.6009 120.055 33.6009 123.219Z" fill="#B8B7B7"/>
<path d="M13.8136 123.189C13.8136 126.352 16.3778 128.916 19.5409 128.916C22.7041 128.916 25.2683 126.352 25.2683 123.189C25.2683 120.026 22.7041 117.461 19.5409 117.461C16.3778 117.461 13.8136 120.026 13.8136 123.189Z" fill="#B8B7B7"/>
<path d="M-6.00675 123.189C-6.00675 126.352 -3.44252 128.916 -0.279377 128.916C2.88376 128.916 5.448 126.352 5.448 123.189C5.448 120.026 2.88376 117.461 -0.279377 117.461C-3.44252 117.461 -6.00675 120.026 -6.00675 123.189Z" fill="#B8B7B7"/>
<path d="M103.157 140.48C103.157 143.643 105.722 146.207 108.885 146.207C112.048 146.207 114.612 143.643 114.612 140.48C114.612 137.317 112.048 134.752 108.885 134.752C105.722 134.752 103.157 137.317 103.157 140.48Z" fill="#B8B7B7"/>
<path d="M83.337 140.48C83.337 143.643 85.9012 146.207 89.0644 146.207C92.2275 146.207 94.7917 143.643 94.7917 140.48C94.7917 137.317 92.2275 134.752 89.0644 134.752C85.9012 134.752 83.337 137.317 83.337 140.48Z" fill="#B8B7B7"/>
<path d="M63.3287 140.48C63.3287 143.643 65.8929 146.207 69.0561 146.207C72.2192 146.207 74.7834 143.643 74.7834 140.48C74.7834 137.317 72.2192 134.752 69.0561 134.752C65.8929 134.752 63.3287 137.317 63.3287 140.48Z" fill="#B8B7B7"/>
<path d="M43.5084 140.48C43.5084 143.643 46.0726 146.207 49.2358 146.207C52.3989 146.207 54.9631 143.643 54.9631 140.48C54.9631 137.317 52.3989 134.752 49.2358 134.752C46.0726 134.752 43.5084 137.317 43.5084 140.48Z" fill="#B8B7B7"/>
<path d="M23.7266 140.446C23.7266 143.609 26.2909 146.173 29.454 146.173C32.6172 146.173 35.1814 143.609 35.1814 140.446C35.1814 137.283 32.6172 134.719 29.454 134.719C26.2909 134.719 23.7266 137.283 23.7266 140.446Z" fill="#B8B7B7"/>
<path d="M3.90609 140.446C3.90609 143.609 6.47032 146.173 9.63346 146.173C12.7966 146.173 15.3608 143.609 15.3608 140.446C15.3608 137.283 12.7966 134.719 9.63346 134.719C6.47032 134.719 3.90609 137.283 3.90609 140.446Z" fill="#B8B7B7"/>
<path d="M93.2279 157.537C93.2279 160.7 95.7921 163.264 98.9552 163.264C102.118 163.264 104.683 160.7 104.683 157.537C104.683 154.374 102.118 151.809 98.9552 151.809C95.7921 151.809 93.2279 154.374 93.2279 157.537Z" fill="#B8B7B7"/>
<path d="M73.4073 157.537C73.4073 160.7 75.9715 163.264 79.1347 163.264C82.2978 163.264 84.8621 160.7 84.8621 157.537C84.8621 154.374 82.2978 151.809 79.1347 151.809C75.9715 151.809 73.4073 154.374 73.4073 157.537Z" fill="#B8B7B7"/>
<path d="M53.4046 157.537C53.4046 160.7 55.9689 163.264 59.132 163.264C62.2951 163.264 64.8594 160.7 64.8594 157.537C64.8594 154.374 62.2951 151.809 59.132 151.809C55.9689 151.809 53.4046 154.374 53.4046 157.537Z" fill="#B8B7B7"/>
<path d="M33.5843 157.537C33.5843 160.7 36.1485 163.264 39.3117 163.264C42.4748 163.264 45.0391 160.7 45.0391 157.537C45.0391 154.374 42.4748 151.809 39.3117 151.809C36.1485 151.809 33.5843 154.374 33.5843 157.537Z" fill="#B8B7B7"/>
<path d="M13.797 157.507C13.797 160.67 16.3612 163.234 19.5243 163.234C22.6875 163.234 25.2517 160.67 25.2517 157.507C25.2517 154.344 22.6875 151.78 19.5243 151.78C16.3612 151.78 13.797 154.344 13.797 157.507Z" fill="#B8B7B7"/>
<path d="M-6.02335 157.507C-6.02335 160.67 -3.45912 163.234 -0.295979 163.234C2.86716 163.234 5.4314 160.67 5.4314 157.507C5.4314 154.344 2.86716 151.78 -0.295979 151.78C-3.45912 151.78 -6.02335 154.344 -6.02335 157.507Z" fill="#B8B7B7"/>
<path d="M103.157 174.413C103.157 177.577 105.722 180.141 108.885 180.141C112.048 180.141 114.612 177.577 114.612 174.413C114.612 171.25 112.048 168.686 108.885 168.686C105.722 168.686 103.157 171.25 103.157 174.413Z" fill="#B8B7B7"/>
<path d="M83.337 174.413C83.337 177.577 85.9012 180.141 89.0644 180.141C92.2275 180.141 94.7917 177.577 94.7917 174.413C94.7917 171.25 92.2275 168.686 89.0644 168.686C85.9012 168.686 83.337 171.25 83.337 174.413Z" fill="#B8B7B7"/>
<path d="M63.3287 174.413C63.3287 177.577 65.8929 180.141 69.0561 180.141C72.2192 180.141 74.7834 177.577 74.7834 174.413C74.7834 171.25 72.2192 168.686 69.0561 168.686C65.8929 168.686 63.3287 171.25 63.3287 174.413Z" fill="#B8B7B7"/>
<path d="M43.5084 174.413C43.5084 177.577 46.0726 180.141 49.2358 180.141C52.3989 180.141 54.9631 177.577 54.9631 174.413C54.9631 171.25 52.3989 168.686 49.2358 168.686C46.0726 168.686 43.5084 171.25 43.5084 174.413Z" fill="#B8B7B7"/>
<path d="M23.7266 174.384C23.7266 177.547 26.2909 180.112 29.454 180.112C32.6172 180.112 35.1814 177.547 35.1814 174.384C35.1814 171.221 32.6172 168.657 29.454 168.657C26.2909 168.657 23.7266 171.221 23.7266 174.384Z" fill="#B8B7B7"/>
<path d="M3.90609 174.384C3.90609 177.547 6.47032 180.112 9.63346 180.112C12.7966 180.112 15.3608 177.547 15.3608 174.384C15.3608 171.221 12.7966 168.657 9.63346 168.657C6.47032 168.657 3.90609 171.221 3.90609 174.384Z" fill="#B8B7B7"/>
<path d="M93.2608 191.441C93.2608 194.604 95.8251 197.169 98.9882 197.169C102.151 197.169 104.716 194.604 104.716 191.441C104.716 188.278 102.151 185.714 98.9882 185.714C95.8251 185.714 93.2608 188.278 93.2608 191.441Z" fill="#B8B7B7"/>
<path d="M73.4461 191.441C73.4461 194.604 76.0104 197.169 79.1735 197.169C82.3366 197.169 84.9009 194.604 84.9009 191.441C84.9009 188.278 82.3366 185.714 79.1735 185.714C76.0104 185.714 73.4461 188.278 73.4461 191.441Z" fill="#B8B7B7"/>
<path d="M53.4378 191.441C53.4378 194.604 56.0021 197.169 59.1652 197.169C62.3283 197.169 64.8926 194.604 64.8926 191.441C64.8926 188.278 62.3283 185.714 59.1652 185.714C56.0021 185.714 53.4378 188.278 53.4378 191.441Z" fill="#B8B7B7"/>
<path d="M33.6175 191.441C33.6175 194.604 36.1817 197.169 39.3449 197.169C42.508 197.169 45.0723 194.604 45.0723 191.441C45.0723 188.278 42.508 185.714 39.3449 185.714C36.1817 185.714 33.6175 188.278 33.6175 191.441Z" fill="#B8B7B7"/>
<path d="M13.8302 191.411C13.8302 194.575 16.3944 197.139 19.5575 197.139C22.7207 197.139 25.2849 194.575 25.2849 191.411C25.2849 188.248 22.7207 185.684 19.5575 185.684C16.3944 185.684 13.8302 188.248 13.8302 191.411Z" fill="#B8B7B7"/>
<path d="M-5.98478 191.411C-5.98478 194.575 -3.42055 197.139 -0.257405 197.139C2.90574 197.139 5.46997 194.575 5.46997 191.411C5.46997 188.248 2.90574 185.684 -0.257404 185.684C-3.42055 185.684 -5.98478 188.248 -5.98478 191.411Z" fill="#B8B7B7"/>
<path d="M83.337 208.502C83.337 211.665 85.9012 214.229 89.0644 214.229C92.2275 214.229 94.7917 211.665 94.7917 208.502C94.7917 205.338 92.2275 202.774 89.0644 202.774C85.9012 202.774 83.337 205.338 83.337 208.502Z" fill="#B8B7B7"/>
<path d="M63.5164 208.502C63.5164 211.665 66.0807 214.229 69.2438 214.229C72.407 214.229 74.9712 211.665 74.9712 208.502C74.9712 205.338 72.407 202.774 69.2438 202.774C66.0807 202.774 63.5164 205.338 63.5164 208.502Z" fill="#B8B7B7"/>
<path d="M43.5084 208.502C43.5084 211.665 46.0726 214.229 49.2358 214.229C52.3989 214.229 54.9631 211.665 54.9631 208.502C54.9631 205.338 52.3989 202.774 49.2358 202.774C46.0726 202.774 43.5084 205.338 43.5084 208.502Z" fill="#B8B7B7"/>
<path d="M23.6878 208.502C23.6878 211.665 26.2521 214.229 29.4152 214.229C32.5783 214.229 35.1426 211.665 35.1426 208.502C35.1426 205.338 32.5783 202.774 29.4152 202.774C26.2521 202.774 23.6878 205.338 23.6878 208.502Z" fill="#B8B7B7"/>
<path d="M3.90609 208.468C3.90609 211.631 6.47032 214.196 9.63346 214.196C12.7966 214.196 15.3608 211.631 15.3608 208.468C15.3608 205.305 12.7966 202.741 9.63346 202.741C6.47032 202.741 3.90609 205.305 3.90609 208.468Z" fill="#B8B7B7"/>
<path d="M103.157 208.41C103.157 211.573 105.722 214.137 108.885 214.137C112.048 214.137 114.612 211.573 114.612 208.41C114.612 205.246 112.048 202.682 108.885 202.682C105.722 202.682 103.157 205.246 103.157 208.41Z" fill="#B8B7B7"/>
<path d="M113.065 123.39C113.065 126.553 115.629 129.117 118.792 129.117C121.955 129.117 124.52 126.553 124.52 123.39C124.52 120.227 121.955 117.662 118.792 117.662C115.629 117.662 113.065 120.227 113.065 123.39Z" fill="#B8B7B7"/>
<path d="M113.065 157.507C113.065 160.67 115.629 163.234 118.792 163.234C121.955 163.234 124.52 160.67 124.52 157.507C124.52 154.344 121.955 151.78 118.792 151.78C115.629 151.78 113.065 154.344 113.065 157.507Z" fill="#B8B7B7"/>
</g>
</svg>
