<?xml version="1.0" encoding="utf-8"?>
<!-- Generator: Adobe Illustrator 20.0.0, SVG Export Plug-In . SVG Version: 6.00 Build 0)  -->
<svg version="1.1" id="Layer_1" xmlns="http://www.w3.org/2000/svg" xmlns:xlink="http://www.w3.org/1999/xlink" x="0px" y="0px"
	 viewBox="0 0 1628 512" style="enable-background:new 0 0 1628 512;" xml:space="preserve">
<g>
	<g>
		<g>
			<path d="M367.9,245.2c-5.1-6.4-11.5-11.8-19-16.1c-7.5-4.3-16.8-6.5-27.7-6.5c-10.3,0-19.2,2.2-26.7,6.5
				c-7.5,4.3-11.3,10.7-11.3,19c0,6.7,2.2,12.2,6.5,16.3c4.3,4.2,9.5,7.5,15.4,10.1c5.9,2.6,12.3,4.5,19,5.8
				c6.7,1.3,12.5,2.4,17.3,3.4c9.3,2.2,18.1,5,26.2,8.2s15.2,7.4,21.2,12.5c5.9,5.1,10.6,11.4,13.9,18.8c3.4,7.4,5.1,16.3,5.1,27
				c0,12.9-2.7,23.9-8.2,33c-5.5,9.2-12.5,16.6-21.2,22.4c-8.7,5.8-18.5,10-29.6,12.5c-11.1,2.5-22.3,3.8-33.5,3.8
				c-18.9,0-35.6-2.9-49.8-8.7c-14.3-5.8-27-16.3-38.2-31.8l32.7-27c7.1,7.1,14.9,13.3,23.6,18.8c8.7,5.5,19.2,8.2,31.8,8.2
				c5.4,0,11-0.6,16.6-1.7c5.6-1.2,10.6-2.9,14.9-5.3s7.9-5.4,10.6-9.1c2.7-3.7,4.1-8,4.1-12.7c0-6.4-2-11.7-6-15.9
				c-4-4.2-8.8-7.4-14.5-9.8s-11.6-4.3-17.8-5.8c-6.3-1.4-11.8-2.7-16.6-3.6c-9.3-2.2-18.1-4.8-26.5-7.7
				c-8.3-2.9-15.8-6.7-22.1-11.6c-6.4-4.8-11.6-10.9-15.4-18.3c-3.8-7.4-5.8-16.6-5.8-27.5c0-11.9,2.5-22.2,7.4-31
				c5-8.8,11.6-16.1,19.7-21.9s17.5-10.1,27.9-13c10.4-2.9,21-4.3,31.5-4.3c15.4,0,30.1,2.9,44.3,8.7c14.1,5.8,25.4,15.4,33.7,28.9
				L367.9,245.2z"/>
			<path d="M582.5,225.5h-62.1V329c0,6.4,0.1,12.8,0.5,19c0.3,6.3,1.5,11.9,3.6,16.8c2.1,5,5.3,9,9.6,12c4.3,3,10.7,4.6,19,4.6
				c5.1,0,10.4-0.5,15.9-1.4c5.4-0.9,10.4-2.7,14.9-5.3v39.5c-5.1,2.9-11.8,4.9-19.9,6c-8.2,1.2-14.5,1.7-19,1.7
				c-16.7,0-29.6-2.3-38.7-7c-9.2-4.6-15.9-10.7-20.2-18.1c-4.3-7.4-6.9-15.6-7.7-24.8c-0.8-9.1-1.2-18.4-1.2-27.7V225.5H427v-37.6
				h50.1v-64h43.3v64h62.2V225.5z"/>
			<path d="M867,416.1h-43.3v-32.7h-0.9c-8.3,12.2-19.8,21.7-34.4,28.4s-29.6,10.1-45,10.1c-17.6,0-33.6-3-47.9-9.1
				c-14.3-6.1-26.5-14.6-36.6-25.5c-10.1-10.9-17.9-23.6-23.3-38c-5.5-14.5-8.2-30.1-8.2-47.2c0-17,2.7-32.8,8.2-47.4
				s13.2-27.2,23.3-38c10.1-10.8,22.3-19.2,36.6-25.3c14.2-6.1,30.2-9.2,47.9-9.2c16.3,0,31.8,3.5,46.2,10.3
				c14.5,6.9,25.5,16.3,33.2,28.2h0.9V52.3H867L867,416.1L867,416.1z M748.6,381.5c11.6,0,22-2,31.3-6c9.3-4,17.1-9.5,23.6-16.3
				c6.4-6.9,11.4-15.2,14.9-25c3.5-9.8,5.3-20.5,5.3-32s-1.7-22.2-5.3-32c-3.5-9.8-8.5-18.1-14.9-25c-6.4-6.9-14.3-12.4-23.6-16.3
				c-9.3-4-19.7-6-31.3-6c-11.6,0-22,2-31.3,6c-9.3,4-17.2,9.5-23.6,16.3c-6.4,6.9-11.4,15.2-14.9,25c-3.5,9.8-5.3,20.5-5.3,32
				s1.7,22.3,5.3,32c3.5,9.8,8.5,18.1,14.9,25c6.4,6.9,14.2,12.4,23.6,16.3C726.6,379.4,737,381.5,748.6,381.5z"/>
			<path d="M935.8,52.3h43.3v363.9h-43.3L935.8,52.3L935.8,52.3z"/>
			<path d="M1041.2,106.2c0-8.7,3.1-16.1,9.4-22.4c6.3-6.3,13.7-9.4,22.4-9.4s16.1,3.1,22.4,9.4c6.3,6.3,9.4,13.7,9.4,22.4
				s-3.1,16.1-9.4,22.4c-6.3,6.3-13.7,9.4-22.4,9.4s-16.1-3.1-22.4-9.4C1044.3,122.3,1041.2,114.8,1041.2,106.2z M1051.4,188h43.3
				v228.2h-43.3V188z"/>
			<path d="M1163.5,52.3h43.3v168.5h0.9c7.7-11.9,18.8-21.2,33.2-28.2c14.5-6.9,29.8-10.3,46.2-10.3c17.6,0,33.6,3,47.9,9.2
				c14.2,6.1,26.5,14.5,36.6,25.3c10.1,10.8,17.9,23.4,23.3,38c5.4,14.6,8.2,30.4,8.2,47.4s-2.7,32.7-8.2,47.2
				c-5.5,14.5-13.2,27.1-23.3,38c-10.1,10.9-22.3,19.4-36.6,25.5c-14.3,6.1-30.3,9.1-47.9,9.1c-15.4,0-30.4-3.4-45-10.1
				s-26.1-16.2-34.4-28.4h-0.9v32.7h-43.3V52.3z M1281.9,381.5c11.6,0,22-2,31.3-6s17.1-9.5,23.6-16.3c6.4-6.9,11.4-15.2,14.9-25
				c3.5-9.8,5.3-20.5,5.3-32s-1.7-22.2-5.3-32c-3.5-9.8-8.5-18.1-14.9-25c-6.4-6.9-14.3-12.4-23.6-16.3c-9.3-4-19.7-6-31.3-6
				c-11.6,0-22,2-31.3,6c-9.3,4-17.2,9.5-23.6,16.3c-6.4,6.9-11.4,15.2-14.9,25c-3.5,9.8-5.3,20.5-5.3,32s1.7,22.3,5.3,32
				c3.5,9.8,8.5,18.1,14.9,25c6.4,6.9,14.2,12.4,23.6,16.3C1259.9,379.4,1270.3,381.5,1281.9,381.5z"/>
		</g>
	</g>
	<g>
		<rect x="1466.2" y="142.1" transform="matrix(0.7071 -0.7071 0.7071 0.7071 270.2251 1111.7843)" width="21.9" height="175.2"/>
		<rect x="1389.6" y="358.1" transform="matrix(0.7071 -0.7071 0.7071 0.7071 171.6921 1152.598)" width="175.2" height="21.9"/>
		<rect x="1535.9" y="288.4" transform="matrix(0.7071 -0.7071 0.7071 0.7071 241.3655 1181.4578)" width="21.9" height="21.9"/>
		<path d="M1546.8,314.9L1423,438.7c25.7,25.7,67.2,25.7,92.9,0l92.9-92.9l-46.4-46.4L1546.8,314.9z"/>
		<path d="M1562.3,299.4l46.4-46.4l-92.9-92.9c-25.7-25.7-67.2-25.7-92.9,0l123.9,123.9L1562.3,299.4z"/>
		<path d="M1608.8,345.8c25.7-25.7,25.7-67.2,0-92.9l-46.4,46.4L1608.8,345.8z"/>
		<polygon points="1608.8,345.8 1531.3,330.3 1562.3,299.4 		"/>
	</g>
	<g>
		<rect x="64" y="217.8" transform="matrix(0.7071 -0.7071 0.7071 0.7071 -117.1893 174.9134)" width="177.1" height="22.1"/>
		<rect x="141.5" y="281.3" transform="matrix(0.7071 -0.7071 0.7071 0.7071 -216.8324 216.1869)" width="22.1" height="177.1"/>
		<rect x="71" y="288.3" transform="matrix(0.7071 -0.7071 0.7071 0.7071 -187.6476 145.7286)" width="22.1" height="22.1"/>
		<path d="M66.4,299.4l-47,47l93.9,93.9c25.9,25.9,68,25.9,93.9,0L82.1,315L66.4,299.4z"/>
		<path d="M19.5,252.4c-25.9,25.9-25.9,68,0,93.9l47-47L19.5,252.4z"/>
		<path d="M82.1,283.7l125.3-125.3c-25.9-25.9-68-25.9-93.9,0l-93.9,93.9l47,47L82.1,283.7z"/>
		<polygon points="19.5,252.4 97.7,268.1 66.4,299.4 		"/>
	</g>
</g>
</svg>
