<svg width="64" height="70" viewBox="0 0 32 35" fill="none" xmlns="http://www.w3.org/2000/svg">
<path fill-rule="evenodd" clip-rule="evenodd" d="M21.2987 14.4458C19.3093 16.343 16.0291 16.4968 12.1683 15.6987C9.70777 15.1901 8.47821 15.7446 7.87355 16.2241C7.18136 16.7731 6.87892 17.5633 6.82173 18.0428C6.66356 19.3686 5.46074 20.3155 4.13516 20.1579C2.80959 20.0002 1.86321 18.7976 2.02138 17.4718C2.20204 15.9575 3.00871 13.9127 4.87083 12.4361C6.82048 10.89 9.59042 10.2283 13.1486 10.9638C16.8111 11.7209 17.8516 11.0537 17.9633 10.9472C17.979 10.9323 17.9829 10.9251 17.9881 10.9125C17.9957 10.8944 18.0159 10.8366 18.021 10.7194C18.0322 10.4642 17.9662 10.037 17.7214 9.46329C17.1974 8.2355 17.768 6.81496 18.9958 6.29042C20.2237 5.76588 21.6438 6.33598 22.1678 7.56376C22.9694 9.44213 23.477 12.3685 21.2987 14.4458Z" fill="#34D399"/>
<path fill-rule="evenodd" clip-rule="evenodd" d="M27.3388 22.5539C25.3494 24.4512 22.0691 24.605 18.2083 23.8069C15.7478 23.2983 14.5182 23.8528 13.9136 24.3323C13.2214 24.8812 12.919 25.6715 12.8618 26.1509C12.7036 27.4767 11.5008 28.4237 10.1752 28.266C8.84962 28.1084 7.90325 26.9058 8.06142 25.58C8.24207 24.0657 9.04875 22.0209 10.9109 20.5442C12.8605 18.9981 15.6305 18.3365 19.1886 19.072C22.8511 19.8291 23.8916 19.1619 24.0033 19.0554C24.019 19.0404 24.0229 19.0332 24.0281 19.0207C24.0357 19.0025 24.0559 18.9448 24.0611 18.8276C24.0723 18.5723 24.0062 18.1451 23.7614 17.5714C23.2374 16.3437 23.808 14.9231 25.0359 14.3986C26.2637 13.874 27.6839 14.4441 28.2078 15.6719C29.0095 17.5503 29.517 20.4766 27.3388 22.5539Z" fill="#6366F1"/>
<path fill-rule="evenodd" clip-rule="evenodd" d="M21.2987 14.4458C19.3093 16.343 16.0291 16.4968 12.1683 15.6987C9.70777 15.1901 8.47821 15.7446 7.87355 16.2241C7.18136 16.7731 6.87892 17.5633 6.82173 18.0428C6.66356 19.3686 5.46074 20.3155 4.13516 20.1579C2.80959 20.0002 1.86321 18.7976 2.02138 17.4718C2.20204 15.9575 3.00871 13.9127 4.87083 12.4361C6.82048 10.89 9.59042 10.2283 13.1486 10.9638C16.8111 11.7209 17.8516 11.0537 17.9633 10.9472C17.979 10.9323 17.9829 10.9251 17.9881 10.9125C17.9957 10.8944 18.0159 10.8366 18.021 10.7194C18.0322 10.4642 17.9662 10.037 17.7214 9.46329C17.1974 8.2355 17.768 6.81496 18.9958 6.29042C20.2237 5.76588 21.6438 6.33598 22.1678 7.56376C22.9694 9.44213 23.477 12.3685 21.2987 14.4458Z" fill="#34D399"/>
<path fill-rule="evenodd" clip-rule="evenodd" d="M27.3388 22.5539C25.3494 24.4512 22.0691 24.605 18.2083 23.8069C15.7478 23.2983 14.5182 23.8528 13.9136 24.3323C13.2214 24.8812 12.919 25.6715 12.8618 26.1509C12.7036 27.4767 11.5008 28.4237 10.1752 28.266C8.84962 28.1084 7.90325 26.9058 8.06142 25.58C8.24207 24.0657 9.04875 22.0209 10.9109 20.5442C12.8605 18.9981 15.6305 18.3365 19.1886 19.072C22.8511 19.8291 23.8916 19.1619 24.0033 19.0554C24.019 19.0404 24.0229 19.0332 24.0281 19.0207C24.0357 19.0025 24.0559 18.9448 24.0611 18.8276C24.0723 18.5723 24.0062 18.1451 23.7614 17.5714C23.2374 16.3437 23.808 14.9231 25.0359 14.3986C26.2637 13.874 27.6839 14.4441 28.2078 15.6719C29.0095 17.5503 29.517 20.4766 27.3388 22.5539Z" fill="#6366F1"/>
</svg>
