<svg width="62" height="70" viewBox="0 0 31 35" fill="none" xmlns="http://www.w3.org/2000/svg">
<path fill-rule="evenodd" clip-rule="evenodd" d="M10.2192 13.8502C12.2084 15.7474 15.4881 15.9012 19.3483 15.1032C21.8085 14.5946 23.0378 15.1491 23.6424 15.6286C24.3345 16.1775 24.6369 16.9678 24.6941 17.4472C24.8522 18.773 26.0549 19.7199 27.3802 19.5623C28.7056 19.4046 29.6518 18.202 29.4937 16.8762C29.3131 15.3619 28.5065 13.3172 26.6447 11.8405C24.6953 10.2944 21.9258 9.63274 18.3682 10.3683C14.7062 11.1253 13.6659 10.4582 13.5542 10.3517C13.5385 10.3367 13.5346 10.3295 13.5294 10.317C13.5218 10.2988 13.5016 10.2411 13.4965 10.1238C13.4852 9.86859 13.5513 9.44139 13.7961 8.86771C14.32 7.63992 13.7495 6.21938 12.5218 5.69484C11.2941 5.1703 9.87421 5.74039 9.3503 6.96818C8.54879 8.84655 8.0413 11.7729 10.2192 13.8502Z" fill="#34D399"/>
<path fill-rule="evenodd" clip-rule="evenodd" d="M4.18017 21.9583C6.1693 23.8556 9.44906 24.0094 13.3093 23.2113C15.7694 22.7027 16.9988 23.2572 17.6034 23.7367C18.2954 24.2856 18.5978 25.0759 18.655 25.5553C18.8132 26.8811 20.0158 27.8281 21.3412 27.6704C22.6666 27.5128 23.6128 26.3102 23.4546 24.9844C23.274 23.4701 22.4675 21.4253 20.6056 19.9486C18.6563 18.4025 15.8867 17.7409 12.3291 18.4764C8.66713 19.2335 7.62679 18.5663 7.51515 18.4598C7.49943 18.4448 7.49553 18.4376 7.49031 18.4251C7.48273 18.407 7.46257 18.3492 7.45741 18.232C7.44617 17.9767 7.51221 17.5495 7.75701 16.9759C8.28092 15.7481 7.71041 14.3275 6.48275 13.803C5.25508 13.2785 3.83515 13.8485 3.31124 15.0763C2.50972 16.9547 2.00224 19.881 4.18017 21.9583Z" fill="#6366F1"/>
<path fill-rule="evenodd" clip-rule="evenodd" d="M10.2192 13.8502C12.2084 15.7474 15.4881 15.9012 19.3483 15.1032C21.8085 14.5946 23.0378 15.1491 23.6424 15.6286C24.3345 16.1775 24.6369 16.9678 24.6941 17.4472C24.8522 18.773 26.0549 19.7199 27.3802 19.5623C28.7056 19.4046 29.6518 18.202 29.4937 16.8762C29.3131 15.3619 28.5065 13.3172 26.6447 11.8405C24.6953 10.2944 21.9258 9.63274 18.3682 10.3683C14.7062 11.1253 13.6659 10.4582 13.5542 10.3517C13.5385 10.3367 13.5346 10.3295 13.5294 10.317C13.5218 10.2988 13.5016 10.2411 13.4965 10.1238C13.4852 9.86859 13.5513 9.44139 13.7961 8.86771C14.32 7.63992 13.7495 6.21938 12.5218 5.69484C11.2941 5.1703 9.87421 5.74039 9.3503 6.96818C8.54879 8.84655 8.0413 11.7729 10.2192 13.8502Z" fill="#34D399"/>
<path fill-rule="evenodd" clip-rule="evenodd" d="M4.18017 21.9583C6.1693 23.8556 9.44906 24.0094 13.3093 23.2113C15.7694 22.7027 16.9988 23.2572 17.6034 23.7367C18.2954 24.2856 18.5978 25.0759 18.655 25.5553C18.8132 26.8811 20.0158 27.8281 21.3412 27.6704C22.6666 27.5128 23.6128 26.3102 23.4546 24.9844C23.274 23.4701 22.4675 21.4253 20.6056 19.9486C18.6563 18.4025 15.8867 17.7409 12.3291 18.4764C8.66713 19.2335 7.62679 18.5663 7.51515 18.4598C7.49943 18.4448 7.49553 18.4376 7.49031 18.4251C7.48273 18.407 7.46257 18.3492 7.45741 18.232C7.44617 17.9767 7.51221 17.5495 7.75701 16.9759C8.28092 15.7481 7.71041 14.3275 6.48275 13.803C5.25508 13.2785 3.83515 13.8485 3.31124 15.0763C2.50972 16.9547 2.00224 19.881 4.18017 21.9583Z" fill="#6366F1"/>
</svg>
