<svg width="3001" height="1501" viewBox="0 0 3001 1501" fill="none" xmlns="http://www.w3.org/2000/svg">
<path fill-rule="evenodd" clip-rule="evenodd" d="M95.5651 0.00488281C89.6321 3.27688 83.4421 6.19488 77.0221 8.71988C52.2421 18.4619 26.3751 22.2449 0.265137 23.3569V25.9199C26.6451 24.8099 52.8051 20.9649 77.9371 11.0899C85.8721 7.96488 93.4521 4.23988 100.642 0.00488281H95.5651" fill="#51DF9B" fill-opacity="0.2"/>
<path fill-rule="evenodd" clip-rule="evenodd" d="M184.457 0.00488281C158.297 29.7899 123.202 52.8129 83.0901 65.4219C56.1371 73.8949 28.3051 78.0199 0.265137 80.0099V82.5499C28.5251 80.5599 56.6121 76.3979 83.8351 67.8399C125.142 54.8499 161.202 30.9499 187.815 0.00488281H184.457" fill="#51DF9B" fill-opacity="0.2"/>
<path fill-rule="evenodd" clip-rule="evenodd" d="M243.037 0.00488281C242.305 1.04188 241.61 2.07988 240.865 3.11688C200.912 58.7079 142.037 97.4169 70.6271 115.058C47.3351 120.805 23.4341 124.835 0.265137 127.972V130.523C23.6171 127.385 47.7241 123.32 71.2241 117.523C143.235 99.7369 202.597 60.6849 242.905 4.59488C244.002 3.06988 245.052 1.54288 246.115 0.00488281H243.037" fill="#51DF9B" fill-opacity="0.2"/>
<path fill-rule="evenodd" clip-rule="evenodd" d="M329.135 892.657C353.267 914.313 395.04 910.138 431.967 906.45C505.135 899.125 580.122 886.383 661.215 867.46C685.202 861.87 709.517 855.353 733.027 849.077C783.724 835.527 836.13 821.515 888.632 815.605C966.342 806.89 1045.36 812.285 1119.64 818.535C1187.71 824.298 1266.04 827.837 1334.18 797.1C1385.79 773.808 1428.41 732.61 1457.43 677.96C1484.97 626.092 1497.49 566.095 1492.66 509.025C1486.52 436.26 1458.96 372.245 1415.06 328.777C1397.17 311.065 1376.01 296.172 1355.55 281.768C1323.83 259.44 1291.03 236.358 1270.79 202.665C1239.81 151.103 1251.79 82.4149 1298.07 46.3079C1356.13 1.00488 1434.18 30.7549 1465.05 45.6599C1486.44 55.9749 1507.06 68.1569 1526.98 79.9249C1566.55 103.288 1607.45 127.447 1655.52 137.615C1719.12 151.055 1784.5 145.745 1847.68 140.605L1853.83 140.105C1979.1 129.95 2107.98 129.01 2186.79 236.1C2217.11 277.3 2234.99 326.53 2252.3 374.137C2259.01 392.645 2265.97 411.785 2273.56 430.18C2277.76 440.422 2282.23 450.775 2286.52 460.795C2308.23 511.222 2330.66 563.373 2331.2 619.597C2331.88 691.63 2289.85 749.725 2246.73 803.032L2237.33 814.652C2192.99 869.365 2151.12 921.05 2116.65 982.572C2111.45 991.875 2106.45 1001.27 2101.12 1011.23C2075.05 1060.13 2048.1 1110.69 2002.66 1139.04C1948.9 1172.58 1881.42 1162.33 1821.88 1153.27L1818.29 1152.74C1744.09 1141.48 1671.31 1133.23 1596.98 1155.91C1557.64 1167.87 1520.62 1186.38 1484.81 1204.27C1455.64 1218.85 1425.48 1233.91 1394.42 1245.24C1385.58 1248.46 1376.76 1251.66 1367.96 1254.83C1306.34 1277.05 1248.15 1298.05 1191.44 1330.74C1139.72 1360.55 1095.84 1396.26 1049.38 1434.11C1039.97 1441.77 1030.53 1449.44 1021 1457.11C999.092 1474.68 977.962 1488.94 957.285 1500H977.45C993.845 1490.18 1010.43 1478.54 1027.27 1465.04C1036.83 1457.35 1046.28 1449.66 1055.7 1441.99C1101.85 1404.42 1145.42 1368.95 1196.44 1339.53C1252.37 1307.3 1310.17 1286.45 1371.35 1264.36C1380.16 1261.18 1389 1258.01 1397.85 1254.76C1429.44 1243.24 1459.86 1228.05 1489.28 1213.36C1524.72 1195.63 1561.35 1177.34 1599.88 1165.6C1672.22 1143.55 1743.77 1151.66 1816.8 1162.75L1820.39 1163.3C1881.62 1172.61 1951.05 1183.16 2007.98 1147.63C2055.69 1117.87 2083.3 1066.09 2110.01 1016.01C2115.28 1006.1 2120.26 996.758 2125.44 987.555C2159.48 926.787 2201.07 875.42 2245.14 821.05L2254.54 809.43C2296.88 757.085 2341.99 694.902 2341.26 619.5C2340.73 561.222 2317.87 508.123 2295.78 456.768C2291.48 446.782 2287.04 436.455 2282.84 426.3C2275.34 408.097 2268.44 389.068 2261.74 370.66C2244.21 322.367 2226.07 272.443 2194.87 230.058C2113.01 118.805 1981.1 119.623 1853.03 129.998L1846.88 130.498C1784.38 135.577 1719.78 140.838 1657.57 127.69C1611.11 117.865 1572.73 95.1949 1532.08 71.1849C1511.96 59.3079 1491.16 47.0149 1469.4 36.5149C1436.85 20.8049 1354.4 -10.4681 1291.91 38.2969C1241.65 77.5069 1228.59 152.02 1262.18 207.915C1283.52 243.438 1317.21 267.143 1349.79 290.08C1369.91 304.24 1390.72 318.89 1408.01 336.003C1450.2 377.775 1476.7 439.52 1482.64 509.88C1492.5 626.605 1428.32 743.51 1330.05 787.848C1264.11 817.608 1187.3 814.093 1120.48 808.452C1045.7 802.13 966.122 796.71 887.519 805.548C834.275 811.527 781.49 825.64 730.452 839.287C707.015 845.537 682.772 852.032 658.945 857.572C578.267 876.398 503.707 889.093 430.905 896.367C396.102 899.835 356.662 903.79 335.837 885.087C325.107 875.47 319.722 860.553 319.38 839.483C318.527 785.943 339.95 729.802 383.052 672.65C391.635 661.26 400.472 649.797 409.017 638.702C443.197 594.327 478.547 548.443 506.015 497.49C536.52 440.935 566.232 373.688 596.872 291.925C627.865 209.21 639.352 135.088 631.967 65.3249C629.512 42.0349 624.447 20.4869 617.575 0.00488281H607.002C614.18 20.7449 619.442 42.5229 621.97 66.3999C629.172 134.55 617.88 207.145 587.46 288.347C556.98 369.683 527.45 436.505 497.177 492.657C470.09 542.875 435.005 588.433 401.07 632.487C392.502 643.608 383.65 655.095 375.032 666.52C330.537 725.518 308.432 783.77 309.322 839.652C309.7 863.702 316.182 881.035 329.135 892.657" fill="#51DF9B" fill-opacity="0.2"/>
<path fill-rule="evenodd" clip-rule="evenodd" d="M672.055 1489.58C658.945 1485.18 645.395 1480.62 632.197 1476.42C568.747 1456.22 496.932 1430.22 447.737 1376.91C410.605 1336.67 400.765 1282.79 391.244 1230.67C388.645 1216.41 385.957 1201.68 382.747 1187.47C374.9 1152.71 365.23 1117.85 353.182 1080.91C349.485 1069.53 345.98 1057.64 342.599 1046.12C335.322 1021.36 327.792 995.782 317.367 972.197C301.692 936.798 271.052 926.957 246.102 922.32C214.682 916.51 181.38 909.478 150.082 893.34C101.204 868.12 65.7671 824.518 38.5701 756.133C24.6671 721.16 12.2151 684.93 0.265137 649.433V680.742C9.37214 707.245 18.8921 733.893 29.2321 759.893C56.9901 829.718 95.0271 876.322 145.492 902.35C178.012 919.12 212.13 926.348 244.282 932.305C278.182 938.58 297.287 951.737 308.162 976.322C318.332 999.298 325.765 1024.56 332.942 1049C336.349 1060.57 339.877 1072.56 343.625 1084.06C355.575 1120.7 365.157 1155.27 372.932 1189.72C376.095 1203.74 378.755 1218.36 381.345 1232.5C391.122 1286.04 401.242 1341.41 440.365 1383.81C491.232 1438.94 564.485 1465.5 629.172 1486.08C642.282 1490.26 655.795 1494.8 668.867 1499.2C669.662 1499.46 670.467 1499.73 671.26 1500H703.365C692.867 1496.58 682.43 1493.07 672.055 1489.58" fill="#51DF9B" fill-opacity="0.2"/>
<path fill-rule="evenodd" clip-rule="evenodd" d="M1553.2 30.9499C1604.2 57.2319 1652.35 82.0599 1708.74 91.8869C1768.14 102.228 1827.76 93.2679 1885.4 84.5869C1900.73 82.2799 1916.58 79.8999 1932.18 77.9219C2009.42 68.0829 2066.99 74.3099 2118.77 98.0649C2169.56 121.367 2214.19 160.858 2244.41 209.27C2268.77 248.308 2281.62 293.413 2294.05 337.04C2300.44 359.503 2307.06 382.72 2315.16 404.827C2320.95 420.635 2327.69 436.87 2334.18 452.568C2355.88 505.047 2378.35 559.295 2375.37 615.898C2370.73 703.435 2316.73 769.327 2264.48 833.063C2233.55 870.805 2201.54 909.845 2179.61 953.277C2138.55 1034.69 2125.27 1106.35 2140.14 1166.26C2143.63 1180.32 2147.8 1194.07 2151.83 1207.35C2167.99 1260.69 2183.28 1311.08 2148.58 1366.21C2135.06 1387.7 2119.92 1408.01 2105.3 1427.64C2088.13 1450.68 2070.58 1474.27 2055.49 1500H2058.42C2073.27 1474.88 2090.48 1451.76 2107.3 1429.17C2121.98 1409.5 2137.13 1389.13 2150.71 1367.58C2186.01 1311.45 2170.58 1260.52 2154.23 1206.62C2150.22 1193.36 2146.07 1179.66 2142.58 1165.65C2127.86 1106.35 2141.09 1035.28 2181.86 954.425C2203.66 911.235 2235.57 872.32 2266.43 834.673C2318.92 770.622 2373.19 704.4 2377.86 616.032C2380.88 558.855 2358.33 504.327 2336.5 451.592C2330.01 435.918 2323.29 419.708 2317.53 403.947C2309.45 381.927 2302.86 358.757 2296.46 336.345C2283.98 292.547 2271.1 247.257 2246.53 207.927C2216.04 159.1 2171.05 119.268 2119.82 95.7699C2067.58 71.7949 2009.62 65.5199 1931.86 75.4069C1916.24 77.3849 1900.37 79.7769 1885.03 82.0849C1827.56 90.7279 1768.16 99.6629 1709.18 89.3849C1653.15 79.6199 1605.15 54.8869 1554.35 28.6919C1546.95 24.8819 1539.55 21.0619 1532.1 17.2769C1520.51 11.4069 1508.72 5.55988 1496.74 0.00488281H1490.7C1504.36 6.21688 1517.8 12.8599 1530.98 19.5469C1538.43 23.3199 1545.83 27.1399 1553.2 30.9499" fill="#51DF9B" fill-opacity="0.2"/>
<path fill-rule="evenodd" clip-rule="evenodd" d="M1316.85 318.023C1285.87 292.875 1253.84 266.875 1230.56 233.49C1194.68 182.012 1192.96 110.612 1226.17 51.6049C1237.81 30.9249 1252.65 13.5429 1269.75 0.00488281H1265.75C1249.43 13.4449 1235.23 30.3749 1223.98 50.3599C1190.3 110.21 1192.07 182.67 1228.49 234.943C1251.97 268.632 1284.16 294.745 1315.27 319.987C1334.5 335.6 1354.4 351.737 1371.95 369.463C1417.09 415.02 1440.75 478.447 1436.86 543.463C1432.85 610.21 1400.72 672.112 1348.7 713.288C1270.27 775.348 1173.94 770.452 1080.78 765.74C1030.61 763.2 978.732 760.565 930.22 768.412C915.707 770.758 901.035 772.638 886.837 774.443C870.735 776.495 854.072 778.617 837.595 781.45C808.602 786.43 779.39 792.68 751.145 798.735C741.17 800.86 731.197 803.008 721.212 805.082L715.474 806.28C652.412 819.462 580.93 834.43 515.377 827.935C476.472 824.077 446.492 810.185 430.952 788.822C419.112 772.527 415.657 752.165 420.7 728.3C429.55 686.333 454.16 649.48 477.95 613.835C490.915 594.427 504.305 574.358 514.865 553.838C534.432 515.788 549.642 474.785 564.34 435.137C568.015 425.237 571.675 415.35 575.4 405.523C581.417 389.677 587.752 373.65 593.88 358.148C606.38 326.555 619.307 293.89 630.11 261.003C660.397 168.805 667.415 84.7699 651.559 0.00488281H648.994C664.89 84.5029 657.92 168.268 627.717 260.21C616.94 293.01 604.037 325.652 591.55 357.208C585.41 372.722 579.072 388.75 573.055 404.62C569.32 414.445 565.657 424.345 561.985 434.245C547.297 473.833 532.125 514.762 512.63 552.677C502.145 573.065 488.777 593.072 475.862 612.42C451.937 648.273 427.192 685.333 418.235 727.775C413.045 752.372 416.647 773.417 428.927 790.313C444.895 812.285 475.51 826.542 515.119 830.45C581.062 836.992 652.755 821.978 715.987 808.77L721.724 807.572C731.71 805.475 741.695 803.35 751.67 801.202C779.892 795.17 809.077 788.92 838.01 783.965C854.44 781.133 871.077 779.01 887.155 776.957C901.375 775.152 916.072 773.273 930.612 770.915C978.865 763.115 1030.61 765.74 1080.65 768.268C1174.28 773.015 1271.09 777.91 1350.25 715.275C1402.84 673.65 1435.32 611.09 1439.36 543.62C1443.3 477.873 1419.37 413.737 1373.74 367.668C1356.08 349.847 1336.14 333.672 1316.85 318.023" fill="#51DF9B" fill-opacity="0.2"/>
<path fill-rule="evenodd" clip-rule="evenodd" d="M1268.58 339.288C1250.73 322.465 1232.28 305.07 1215.87 286.505C1165.36 229.362 1147.46 165.668 1162.67 97.2219C1170.69 61.1369 1184.49 27.8499 1202.36 0.00488281H1199.38C1181.75 27.8249 1168.16 60.8929 1160.22 96.6599C1144.81 165.96 1162.9 230.4 1213.99 288.188C1230.47 306.84 1248.97 324.273 1266.86 341.13C1296.17 368.755 1326.48 397.32 1348.62 431.927C1385.17 488.995 1387.05 555.717 1353.65 610.418C1313.42 676.335 1245.63 699.992 1195.85 708.233C1147.11 716.302 1096.46 718.157 1047.49 719.94C1020.78 720.915 993.172 721.918 966.255 723.93C916.195 727.655 865.927 735.345 817.305 742.765C789.559 747.015 760.885 751.398 732.54 754.997L732.222 755.035C683.86 761.188 633.847 767.558 586.96 756.487C563.607 750.983 546.7 741.228 536.69 727.52C518.21 702.19 527.217 668.183 538.045 635.527C548.617 603.63 558.809 571.012 568.66 539.47C582.112 496.415 596.017 451.885 611.092 408.575C618.515 387.248 626.704 365.643 634.615 344.745C653.755 294.23 673.555 241.998 684.615 188.42C697.115 127.873 698.982 64.5319 690.217 0.00488281H687.68C696.457 64.3599 694.625 127.532 682.15 187.907C671.127 241.277 651.375 293.413 632.272 343.84C624.337 364.75 616.147 386.382 608.724 407.733C593.637 451.092 579.72 495.635 566.255 538.713C556.405 570.245 546.224 602.85 535.652 634.722C527.51 659.33 513.862 700.505 534.665 729.02C545.04 743.23 562.434 753.3 586.385 758.952C605.232 763.407 624.545 765.068 644.027 765.068C673.47 765.068 703.305 761.273 732.54 757.55L732.857 757.513C761.227 753.9 789.925 749.518 817.684 745.28C866.255 737.847 916.474 730.18 966.44 726.445C993.307 724.443 1020.9 723.443 1047.57 722.465C1096.63 720.683 1147.36 718.827 1196.26 710.735C1246.56 702.41 1315.05 678.472 1355.8 611.748C1389.71 556.195 1387.83 488.458 1350.76 430.56C1328.43 395.683 1298 367.01 1268.58 339.288" fill="#51DF9B" fill-opacity="0.2"/>
<path fill-rule="evenodd" clip-rule="evenodd" d="M1835.08 0.00488281C1787.19 35.7949 1717.48 20.0849 1669.09 5.06988C1663.89 3.45988 1658.72 1.74988 1653.56 0.00488281H1645.7C1653.23 2.62988 1660.77 5.14488 1668.34 7.48688C1717.6 22.7699 1788.72 38.7499 1837.55 1.32188C1838.13 0.894883 1838.65 0.444883 1839.21 0.00488281H1835.08" fill="#51DF9B" fill-opacity="0.2"/>
<path fill-rule="evenodd" clip-rule="evenodd" d="M1165.2 281.987C1124.68 229.583 1110.55 166.46 1124.32 99.4669C1129.3 75.2849 1138.78 38.4699 1155.73 0.00488281H1152.98C1136.23 38.3099 1126.82 74.8699 1121.86 98.9549C1107.92 166.705 1122.23 230.523 1163.21 283.55C1177.88 302.52 1195.47 321 1214.09 340.58C1271.02 400.395 1329.88 462.248 1313.28 546.342C1296.68 630.365 1200.99 655.463 1119.47 667.938C1091.49 672.222 1062.85 675.262 1035.15 678.215C1019.63 679.875 1003.6 681.585 987.85 683.49C970.591 685.577 953.293 687.773 935.995 689.983C877.658 697.418 817.343 705.108 757.883 708.22C674.703 712.59 625.803 691.765 612.533 646.367C603.733 616.265 607.261 582.683 611.631 550.885C612.203 546.745 612.301 540.947 612.411 534.233C612.693 517.998 613.083 495.757 621.396 489.117L621.725 488.713C626.096 480.387 627.183 470.733 628.221 461.395C628.623 457.757 629.013 454.327 629.576 450.958C632.028 436.382 636.801 421.82 641.416 407.733L642.991 402.898C651.901 375.505 662.473 348.21 672.703 321.795C677.171 310.235 681.808 298.273 686.241 286.467C713.205 214.568 727.268 141.925 728.026 70.5379C728.281 47.1249 726.951 23.3199 725.413 0.00488281H722.898C724.435 23.3199 725.766 47.1369 725.511 70.5119C724.753 141.595 710.738 213.958 683.883 285.565C679.453 297.367 674.826 309.32 670.358 320.88C660.116 347.32 649.533 374.65 640.611 402.105L639.023 406.938C634.383 421.11 629.576 435.773 627.096 450.53C626.523 453.972 626.108 457.597 625.718 461.112C624.716 470.135 623.666 479.447 619.613 487.31C610.58 494.853 610.203 516.643 609.898 534.185C609.788 540.825 609.691 546.55 609.141 550.543C604.733 582.61 601.168 616.498 610.116 647.075C622.593 689.762 665.256 711.32 737.058 711.32C743.783 711.32 750.778 711.137 758.006 710.76C817.563 707.635 877.926 699.945 936.313 692.498C953.611 690.288 970.883 688.09 988.143 686.003C1003.88 684.1 1019.91 682.39 1035.41 680.742C1063.15 677.788 1091.82 674.725 1119.85 670.44C1195.76 658.818 1298.66 633.367 1315.75 546.83C1332.61 461.455 1273.28 399.115 1215.91 338.822C1197.33 319.305 1179.79 300.86 1165.2 281.987" fill="#51DF9B" fill-opacity="0.2"/>
<path fill-rule="evenodd" clip-rule="evenodd" d="M2165.75 1459.86C2154.49 1472.92 2143.04 1486.23 2132.08 1500H2135.33C2145.87 1486.84 2156.84 1474.07 2167.65 1461.52C2188.28 1437.6 2209.6 1412.87 2227.27 1385.96C2265.31 1328.1 2268.95 1270.36 2239.09 1198.75C2214.85 1140.65 2189.8 1080.59 2206.86 1011.28C2224.98 937.7 2272.8 879.79 2319.05 823.785C2357.3 777.423 2396.85 729.498 2419.75 672.735C2445.61 608.66 2442.73 535.248 2411.23 454.57C2409.18 449.297 2407.08 444.035 2405.01 438.762C2394.48 412.163 2383.6 384.648 2376.1 356.547C2369.78 332.915 2366.77 308.305 2363.89 284.503C2362.87 276.165 2361.82 267.535 2360.65 259.05C2355.64 223.137 2345.1 190.91 2326.42 154.545C2312.87 128.13 2293.16 105.595 2274.1 83.8079C2266.14 74.7119 2257.91 65.3119 2250.27 55.7799C2237.67 40.0579 2224.85 21.1719 2220.24 0.00488281H2217.63C2222.24 21.8419 2235.38 41.2279 2248.32 57.3649C2255.98 66.9469 2264.23 76.3729 2272.19 85.4779C2291.16 107.157 2310.77 129.57 2324.19 155.717C2342.7 191.815 2353.17 223.797 2358.13 259.405C2359.33 267.865 2360.38 276.483 2361.38 284.808C2364.31 308.697 2367.31 333.402 2373.66 357.208C2381.2 385.455 2392.11 413.03 2402.66 439.702C2404.74 444.963 2406.84 450.225 2408.89 455.498C2440.14 535.552 2443.02 608.318 2417.43 671.782C2394.68 728.18 2355.25 775.957 2317.09 822.148C2270.68 878.398 2222.68 936.527 2204.42 1010.67C2187.13 1080.79 2212.38 1141.26 2236.77 1199.73C2266.28 1270.46 2262.7 1327.46 2225.2 1384.57C2207.6 1411.33 2186.33 1435.99 2165.75 1459.86" fill="#51DF9B" fill-opacity="0.2"/>
<path fill-rule="evenodd" clip-rule="evenodd" d="M3000.26 39.0799C2958.93 36.5149 2921.11 39.1649 2883.24 46.9899C2851.36 53.5699 2819.4 62.0899 2788.49 70.3299C2747.18 81.3529 2704.46 92.7419 2661.39 99.6149C2604.36 108.72 2530.63 114.64 2466.13 79.3369C2427.58 58.2319 2397.6 30.4129 2379.39 0.00488281H2376.46C2394.84 31.3149 2425.45 59.9519 2464.93 81.5599C2503.26 102.545 2544.72 109.123 2584.07 109.123C2611.61 109.123 2638.12 105.89 2661.78 102.117C2704.97 95.2199 2747.77 83.8169 2789.15 72.7819C2820.01 64.5429 2851.92 56.0349 2883.75 49.4669C2921.45 41.6929 2959.07 39.0429 3000.26 41.6199V39.0799" fill="#51DF9B" fill-opacity="0.2"/>
<path fill-rule="evenodd" clip-rule="evenodd" d="M2644.36 0.005C2652.17 0.64 2660.11 0.995 2668.19 0.995C2676.39 0.995 2684.74 0.665 2693.19 0.005H2644.36" fill="#51DF9B" fill-opacity="0.2"/>
<path fill-rule="evenodd" clip-rule="evenodd" d="M1167.3 338.873C1139.05 304.643 1109.84 269.242 1093.96 227.422C1070.69 166.155 1086.22 98.7599 1106.47 35.0619C1110.1 23.6499 1113.84 11.9199 1117.68 0.00488281H1107.09C1103.6 10.8569 1100.2 21.5499 1096.89 31.9749C1076.08 97.4299 1060.18 166.85 1084.56 231.047C1101.04 274.433 1130.79 310.478 1159.56 345.342C1165.53 352.58 1171.71 360.075 1177.61 367.45C1224.25 425.677 1245.14 475.043 1239.74 514.165C1236.33 538.788 1222.32 560.015 1198.09 577.262C1136.98 620.757 1053.79 631.67 980.392 641.29L974.032 642.132C963.18 643.56 952.085 645.135 941.365 646.66C901.985 652.262 861.275 658.063 821.347 658.063C803.317 658.063 786.837 656.915 770.954 654.558C731.65 648.735 703.559 634.943 687.46 613.555C671.042 591.753 666.89 563.14 663.815 533.257C666.085 467.547 678.805 404.938 702.695 341.862C705.062 335.637 707.43 329.435 709.797 323.248C730.11 270.123 751.119 215.19 758.687 156.34C764.302 112.737 764.827 68.3149 765.34 25.3599C765.45 16.9979 765.559 8.51188 765.695 0.00488281H755.635C755.49 8.47788 755.38 16.9129 755.282 25.2369C754.77 67.8999 754.244 112.03 748.702 155.047C741.292 212.688 721.432 264.617 700.4 319.61C698.03 325.81 695.65 332.012 693.295 338.25C668.954 402.507 656.015 466.29 653.744 533.257L653.732 533.6L653.767 533.94C656.99 565.447 661.385 595.695 679.44 619.67C697.177 643.255 727.487 658.355 769.49 664.58C785.86 667.01 802.827 668.193 821.347 668.193C861.985 668.193 903.059 662.347 942.769 656.695C953.462 655.168 964.535 653.595 975.337 652.177L981.684 651.347C1056.24 641.57 1140.75 630.485 1203.9 585.54C1230.49 566.608 1245.9 543.06 1249.7 515.558C1255.59 472.967 1234.59 422.43 1185.45 361.09C1179.49 353.655 1173.29 346.135 1167.3 338.873" fill="#51DF9B" fill-opacity="0.2"/>
<path fill-rule="evenodd" clip-rule="evenodd" d="M1110.8 339.75C1078.32 298.503 1044.74 255.865 1034.47 203.715C1024.12 151.055 1040.35 98.7219 1056.03 48.1119C1060.94 32.2929 1065.93 16.0069 1070.04 0.00488281H1067.44C1063.38 15.7529 1058.46 31.7799 1053.63 47.3549C1037.84 98.2729 1021.52 150.92 1032.01 204.217C1042.38 256.95 1076.16 299.847 1108.83 341.325C1116.69 351.31 1124.82 361.625 1132.36 371.782C1181.21 437.615 1189.72 491.083 1157.63 530.705C1126.16 569.572 1069.56 583.427 1028.21 593.547C981.773 604.913 926.913 616.52 872.091 616.52H872.08C851.963 616.52 832.591 614.922 814.536 611.773C748.618 600.262 711.986 556.23 705.636 481.01C705.503 419.67 729.271 362.31 752.243 306.827C754.721 300.873 757.188 294.927 759.616 288.983C786.361 223.577 799.266 163.92 800.205 101.237L800.35 90.9469C800.766 61.6999 801.205 30.5829 804.013 0.00488281H801.473C798.691 30.5829 798.251 61.6749 797.836 90.9219L797.691 101.202C796.751 163.555 783.908 222.918 757.286 288.018C754.856 293.95 752.391 299.895 749.923 305.853C726.853 361.565 702.988 419.17 703.133 481.12C709.58 557.745 746.921 602.545 814.096 614.275C832.308 617.45 851.816 619.06 872.08 619.06H872.091C927.183 619.06 982.223 607.402 1028.81 596C1070.5 585.808 1127.58 571.83 1159.58 532.305C1192.5 491.668 1184.01 437.15 1134.38 370.268C1126.81 360.075 1118.68 349.748 1110.8 339.75" fill="#51DF9B" fill-opacity="0.2"/>
<path fill-rule="evenodd" clip-rule="evenodd" d="M0.265137 186.112C5.67214 184.588 11.0671 183.085 16.3901 181.61C73.1401 165.813 131.82 149.48 182.882 117.9C231.197 88.0049 267.94 47.0999 303.402 0.00488281H300.24C265.292 46.2449 229.012 86.3819 181.565 115.74C130.807 147.137 72.2971 163.42 15.7191 179.168C10.6301 180.583 5.45214 182.025 0.265137 183.478V186.112" fill="#51DF9B" fill-opacity="0.2"/>
<path fill-rule="evenodd" clip-rule="evenodd" d="M592.27 60.6249C587.325 39.8599 579.487 19.4019 569.38 0.00488281H566.562C576.852 19.5599 584.822 40.2279 589.827 61.2219C604.782 123.93 597.309 190.813 565.61 278.08C537.497 355.45 505.49 424.188 470.467 482.39C441.695 530.205 406.15 568.913 368.515 609.893C358.785 620.5 348.715 631.463 338.862 642.51C328.635 653.96 318.452 665.788 308.602 677.228C294.82 693.242 280.562 709.782 266.012 725.568C263.192 728.605 260.322 731.805 257.382 735.075C238.79 755.73 217.72 779.13 192.744 787.992C185.91 790.41 178.927 791.655 171.97 791.655H171.957C122.297 791.63 81.6721 729.4 66.5121 702.643C39.1801 654.4 19.0151 601.933 0.265137 550.237V557.597C18.3921 607.28 38.0451 657.5 64.3271 703.9C83.4321 737.615 122.822 794.17 171.957 794.17H171.97C179.207 794.17 186.482 792.9 193.575 790.385C219.162 781.305 240.45 757.648 259.237 736.773C262.18 733.512 265.047 730.327 267.855 727.288C282.442 711.48 296.7 694.915 310.507 678.9C320.345 667.46 330.525 655.645 340.732 644.195C350.57 633.172 360.64 622.21 370.369 611.615C408.09 570.538 443.722 531.742 472.615 483.708C507.722 425.36 539.802 356.475 567.977 278.947C599.849 191.193 607.345 123.858 592.27 60.6249" fill="#51DF9B" fill-opacity="0.2"/>
<path fill-rule="evenodd" clip-rule="evenodd" d="M1024.01 317.413C1010.71 302.825 996.969 287.737 985.299 272.222C962.946 242.523 951.716 216.815 949.946 191.325C948.006 163.335 959.296 137.018 970.221 111.552C972.896 105.34 975.654 98.9069 978.131 92.6199C986.604 71.1969 1000.87 35.0029 1005.02 0.00488281H1002.49C998.346 34.5619 984.174 70.4649 975.801 91.6799C973.324 97.9299 970.576 104.35 967.916 110.552C956.868 136.285 945.453 162.895 947.431 191.51C949.239 217.51 960.629 243.645 983.284 273.748C995.026 289.36 1008.82 304.485 1022.16 319.12C1049.48 349.103 1077.74 380.108 1091.59 418.132C1112.27 474.907 1072.38 515.875 1028.15 535.295C990.694 551.737 946.051 561.175 905.683 561.175C862.933 561.175 788.141 549.797 767.524 473.785C762.629 431.183 772.664 385.43 797.334 337.797C804.926 323.137 814.009 308.5 822.774 294.353C838.924 268.302 855.624 241.362 864.656 212.115C875.776 176.115 871.249 137.87 866.866 100.895C863.534 72.6849 860.078 43.5099 863.594 15.5319C864.216 10.5769 865.206 5.35288 866.499 0.00488281H863.924C862.666 5.24188 861.701 10.3449 861.091 15.2149C857.539 43.5099 861.018 72.8329 864.376 101.202C868.721 137.907 873.214 175.885 862.251 211.358C853.316 240.3 836.701 267.095 820.636 293.01C811.848 307.195 802.741 321.88 795.101 336.625C770.186 384.722 760.066 430.963 765.071 474.26C786.151 552.092 862.226 563.713 905.683 563.713H905.696C946.393 563.713 991.389 554.205 1029.15 537.615C1074.43 517.742 1115.24 475.677 1093.95 417.265C1079.92 378.765 1051.5 347.575 1024.01 317.413" fill="#51DF9B" fill-opacity="0.2"/>
<path fill-rule="evenodd" clip-rule="evenodd" d="M0.265137 268.572C1.97414 266.472 3.80414 264.41 5.80714 262.407C29.6591 238.603 60.7751 224.188 90.8651 210.248C95.0271 208.305 99.2021 206.378 103.34 204.425C155.405 179.887 222.885 144.793 283.102 90.8369C293.465 81.5469 303.635 71.1719 314.387 60.1849C336.227 37.9069 358.542 15.1429 383.932 0.00488281H379.085C354.915 15.2399 333.542 37.0399 312.607 58.4149C301.877 69.3649 291.732 79.7049 281.43 88.9449C221.445 142.693 154.172 177.665 102.267 202.13C98.1401 204.083 93.9771 206.01 89.8021 207.94C59.5171 221.978 28.2071 236.492 4.03714 260.612C2.70714 261.933 1.46214 263.288 0.265137 264.665V268.572" fill="#51DF9B" fill-opacity="0.2"/>
<path fill-rule="evenodd" clip-rule="evenodd" d="M553.585 73.3199C544.32 45.7449 526.387 18.0349 501.95 0.00488281H497.579C523.055 17.5949 541.72 45.9269 551.204 74.1249C568.16 124.53 565.707 183.183 543.722 253.447C523.25 318.827 491.085 388.188 450.68 454.02C415.097 512.005 370.005 557.097 313.252 606.963C310.727 609.185 308.115 611.505 305.405 613.898C269.21 645.978 219.637 689.922 171.335 689.922H171.322C163.68 689.922 156.235 688.775 149.202 686.527C101.107 671.123 73.3971 622.552 50.6071 572.345C28.9151 524.552 13.6451 473.98 0.265137 423.612V433.33C13.0941 480.79 27.8521 528.3 48.3251 573.405C71.3471 624.125 99.4091 673.235 148.445 688.945C155.722 691.265 163.412 692.45 171.322 692.45C171.335 692.45 171.335 692.45 171.335 692.45C220.59 692.45 270.577 648.15 307.065 615.8C309.775 613.407 312.387 611.09 314.9 608.88C371.835 558.855 417.075 513.603 452.817 455.353C493.332 389.347 525.595 319.793 546.115 254.205C568.282 183.415 570.724 124.235 553.585 73.3199" fill="#51DF9B" fill-opacity="0.2"/>
<path fill-rule="evenodd" clip-rule="evenodd" d="M437.557 67.9853C408.615 67.9853 374.202 83.5123 335.275 114.128C277.28 159.745 215.535 199.273 157.454 235.197C153.962 237.358 150.422 239.52 146.872 241.68C123.97 255.608 100.302 270.025 82.5523 290.13C57.6503 318.353 51.4373 354.95 50.6193 380.683C50.4003 387.797 50.4603 395.575 50.8273 404.46C61.2523 470.635 77.5003 538.14 125.265 582.597C142.44 598.565 162.595 606.67 185.165 606.67H185.177C226.767 606.67 269.49 579.717 298.02 559.44C393.637 491.498 466.77 381.78 503.94 250.53C516.977 204.485 530.232 138.395 494.98 96.1973C479.329 77.4823 460.017 67.9853 437.557 67.9853ZM185.177 609.197H185.165C161.934 609.197 141.207 600.873 123.567 584.452C75.2273 539.47 58.8353 471.478 48.3253 404.705C47.9453 395.61 47.8853 387.773 48.1053 380.595C48.9473 354.447 55.2703 317.23 80.6723 288.445C98.6653 268.06 122.517 253.545 145.577 239.507C149.117 237.347 152.645 235.197 156.137 233.038C214.157 197.148 275.827 157.67 333.737 112.128C373.105 81.1573 408.04 65.4473 437.557 65.4473C460.787 65.4473 480.757 75.2503 496.907 94.5603C532.93 137.688 519.552 204.62 506.357 251.225C469.04 383.025 395.565 493.23 299.472 561.515C270.675 581.987 227.474 609.197 185.177 609.197V609.197Z" fill="#51DF9B" fill-opacity="0.2"/>
<path fill-rule="evenodd" clip-rule="evenodd" d="M969.099 844.537C956.735 844.537 944.565 844.952 932.942 845.83C853.707 851.665 777.937 872.76 714.267 892.633C694.04 898.955 673.03 904.815 652.717 910.502C603.817 924.15 553.255 938.287 507.382 960.138C469.125 978.375 424.702 1014 430.355 1080.16C447.922 1191.47 497.53 1340.12 634.115 1415.78C706.16 1455.68 774.887 1478.06 838.387 1482.34C843.037 1482.65 847.762 1482.82 852.425 1482.82C907.612 1482.82 963.082 1461.48 1026.99 1415.66C1040.53 1405.94 1054.13 1395.93 1067.28 1386.29C1112.33 1353.16 1158.91 1318.91 1209.52 1291.68C1236.51 1277.18 1265.03 1264.12 1292.6 1251.5C1331.74 1233.58 1372.21 1215.07 1409.01 1192.03C1425.53 1181.7 1441.85 1170.15 1457.62 1159C1498.09 1130.36 1539.93 1100.74 1589.66 1088.34C1615.15 1081.97 1642.64 1078.99 1676.11 1078.99C1701.87 1078.99 1728.09 1080.77 1753.46 1082.51C1771.97 1083.75 1791.1 1085.07 1809.68 1085.63C1817.59 1085.88 1824.94 1086 1832.14 1086C1880.09 1086 1950.36 1081.16 2006.68 1039.42C2043.54 1012.09 2072.04 974.907 2099.6 938.92C2110.24 925.03 2121.25 910.675 2132.56 897.125C2144.35 883.013 2156.68 868.902 2168.62 855.255C2202.21 816.875 2236.95 777.178 2263.42 732.5C2298.4 673.393 2303.07 605.485 2277.26 530.693C2253.99 463.237 2222.62 392.595 2184.02 320.708C2151.75 260.637 2109.47 219.56 2058.29 198.625C2014.98 180.9 1966.89 172.65 1906.95 172.65C1867.91 172.65 1827.77 176.128 1788.93 179.498C1750.26 182.842 1710.27 186.308 1671.55 186.308C1657.61 186.308 1644.77 185.882 1632.24 185.003C1595.43 182.39 1564.57 175.518 1537.95 163.983C1517.76 155.23 1499.6 142.523 1482.03 130.23C1470.69 122.308 1458.96 114.105 1446.82 107.06C1423.21 93.3532 1402.54 86.7002 1383.64 86.7002C1375.65 86.7002 1367.87 87.9072 1360.51 90.3132C1330.41 100.128 1314.94 127.313 1322.04 157.975C1330.78 195.782 1369.47 218.242 1403.63 238.043C1410.77 242.193 1417.51 246.11 1423.77 250.043C1468.06 277.862 1498.18 328.117 1515.87 403.668C1530.9 467.79 1545.55 551.628 1525.43 631.475C1508.16 699.955 1472.12 764.495 1426.54 808.525C1384 849.64 1324.77 869.635 1245.46 869.635C1199.05 869.635 1151.59 863.018 1113.44 857.72C1066.75 851.225 1018.46 844.537 969.099 844.537ZM852.437 1485.34C852.437 1485.34 852.437 1485.34 852.425 1485.34C847.702 1485.34 842.927 1485.19 838.217 1484.87C774.349 1480.58 705.27 1458.07 632.907 1418C495.43 1341.85 445.517 1192.42 427.852 1080.46C422.067 1012.76 467.329 976.42 506.307 957.843C552.365 935.893 603.035 921.733 652.047 908.063C672.335 902.372 693.332 896.515 713.522 890.215C777.327 870.318 853.267 849.15 932.76 843.29C944.442 842.438 956.672 841.997 969.099 841.997C1018.63 841.997 1067.01 848.71 1113.8 855.205C1151.85 860.502 1199.22 867.095 1245.46 867.095C1324.09 867.095 1382.74 847.345 1424.79 806.695C1470.05 762.98 1505.84 698.895 1522.99 630.853C1542.98 551.543 1528.39 468.095 1513.43 404.253C1495.89 329.387 1466.13 279.643 1422.44 252.19C1416.21 248.285 1409.49 244.378 1402.37 240.24C1367.78 220.17 1328.57 197.43 1319.58 158.55C1312.19 126.53 1328.32 98.1372 1359.74 87.8952C1367.35 85.4172 1375.39 84.1602 1383.64 84.1602C1402.99 84.1602 1424.07 90.9352 1448.07 104.862C1460.32 111.955 1472.09 120.195 1483.46 128.155C1500.93 140.373 1518.98 152.995 1538.93 161.65C1565.3 173.077 1595.86 179.887 1632.41 182.475C1644.86 183.355 1657.68 183.782 1671.55 183.782C1710.17 183.782 1750.11 180.315 1788.74 176.97C1827.6 173.6 1867.81 170.11 1906.95 170.11C1967.23 170.11 2015.62 178.422 2059.24 196.282C2110.95 217.438 2153.68 258.905 2186.25 319.5C2224.92 391.51 2256.34 462.285 2279.65 529.862C2305.7 605.4 2300.97 674.015 2265.57 733.795C2239 778.667 2204.19 818.462 2170.52 856.938C2158.59 870.563 2146.25 884.673 2134.49 898.76C2123.21 912.26 2112.22 926.617 2101.6 940.483C2073.92 976.593 2045.33 1013.93 2008.17 1041.44C1951.24 1083.65 1880.43 1088.51 1832.14 1088.51C1824.92 1088.51 1817.54 1088.41 1809.61 1088.17C1790.98 1087.58 1771.82 1086.29 1753.29 1085.02C1727.97 1083.31 1701.77 1081.53 1676.11 1081.53C1642.84 1081.53 1615.57 1084.48 1590.25 1090.78C1540.98 1103.09 1499.34 1132.55 1459.06 1161.07C1443.26 1172.25 1426.92 1183.82 1410.34 1194.2C1373.39 1217.3 1332.85 1235.85 1293.64 1253.82C1266.1 1266.42 1237.64 1279.45 1210.71 1293.93C1160.24 1321.08 1113.74 1355.26 1068.76 1388.31C1055.61 1398.01 1041.99 1407.99 1028.44 1417.71C964.095 1463.85 908.162 1485.34 852.437 1485.34V1485.34Z" fill="#51DF9B" fill-opacity="0.2"/>
<path fill-rule="evenodd" clip-rule="evenodd" d="M3000.27 410.443C2991.31 409.063 2982.45 407.402 2973.71 405.768C2960.67 403.313 2947.19 400.775 2933.55 399.2C2859.4 390.643 2798.93 394.427 2743.24 411.1L2735.23 413.518C2686.69 428.228 2631.67 444.902 2591.41 409.538C2557.42 379.68 2552.95 324.15 2566.14 284.745C2589.38 215.24 2670.26 188.077 2735.23 166.265C2743.16 163.592 2750.93 160.992 2758.35 158.39C2770.53 154.13 2782.81 149.628 2794.7 145.268C2836.84 129.815 2880.42 113.835 2925.44 106.535C2949.56 102.63 2974.56 101.018 3000.27 101.628V91.4977C2974.02 90.8867 2948.49 92.5347 2923.85 96.5377C2877.88 103.985 2833.84 120.135 2791.26 135.748C2779.42 140.092 2767.14 144.585 2755.05 148.82C2747.66 151.41 2739.94 153.998 2732.06 156.645C2664.94 179.18 2581.45 207.22 2556.59 281.512C2542.36 324.115 2547.46 384.393 2584.79 417.18C2604.64 434.6 2627.64 440.605 2651.35 440.605C2680.76 440.605 2711.28 431.365 2738.13 423.222L2746.12 420.818C2800.44 404.535 2859.65 400.873 2932.4 409.257C2945.7 410.795 2959.01 413.297 2971.85 415.728C2981.18 417.472 2990.65 419.255 3000.27 420.708V410.443" fill="#51DF9B" fill-opacity="0.2"/>
<path fill-rule="evenodd" clip-rule="evenodd" d="M111.605 429.535C116.44 459.33 130.525 511.492 170.687 528.802C181.76 533.575 193.66 535.992 206.075 535.992C239.717 535.992 278.072 518.608 320.077 484.308C388.107 428.777 440.94 333 454.695 240.3C459.005 211.273 459.187 173.76 435.592 159.795C428.242 155.45 419.76 153.24 410.36 153.24C378.255 153.24 340.23 178.63 315.072 195.427C312.24 197.32 309.542 199.115 307.002 200.788C292.427 210.358 277.365 219.645 262.79 228.617C233.272 246.795 202.767 265.592 175.265 287.505C155.525 303.228 139.119 322.038 123.617 346.672C109.724 368.768 110.579 396.415 111.41 423.15C111.47 425.285 111.545 427.422 111.605 429.535ZM206.075 546.135H206.062C192.295 546.123 179.05 543.438 166.72 538.115C121.992 518.84 106.722 462.615 101.607 430.815L101.547 430.145C101.485 427.935 101.425 425.713 101.352 423.467C100.51 396.515 99.5704 365.972 115.11 341.253C131.235 315.617 148.36 296.012 169.015 279.558C196.992 257.268 227.767 238.31 257.527 219.975C272.042 211.027 287.057 201.788 301.497 192.302C304.025 190.643 306.697 188.86 309.505 186.98C335.677 169.512 375.215 143.108 410.36 143.108C421.577 143.108 431.782 145.782 440.695 151.055C463.522 164.568 471.577 195.097 464.657 241.79C450.545 336.858 396.285 435.15 326.412 492.18C282.577 527.983 242.087 546.135 206.075 546.135V546.135Z" fill="#51DF9B" fill-opacity="0.2"/>
<path fill-rule="evenodd" clip-rule="evenodd" d="M3000.27 330.656C2979.74 329.252 2957.67 326.299 2932.57 321.599L2930.44 321.207C2897.44 315.057 2852.25 306.631 2830.13 279.459C2823.1 270.841 2820.68 261.687 2822.95 252.249C2830.44 220.841 2886.79 192.997 2910.67 182.474C2937.06 170.841 2970.53 169.754 3000.27 168.924V166.399C2970.29 167.229 2936.52 168.314 2909.67 180.156C2885.43 190.824 2828.25 219.144 2820.51 251.664C2818.04 261.906 2820.63 271.794 2828.17 281.059C2850.88 308.951 2896.61 317.471 2929.98 323.699L2932.1 324.102C2957.37 328.812 2979.59 331.792 3000.27 333.194V330.656" fill="#51DF9B" fill-opacity="0.2"/>
<path fill-rule="evenodd" clip-rule="evenodd" d="M525.291 1109.24C549.998 1231.38 633.968 1344.69 739.291 1397.91C778.878 1417.9 821.543 1428.5 862.656 1428.5C888.193 1428.5 913.253 1424.5 937.118 1416.59C990.183 1399.06 1037.63 1365.34 1083.53 1332.75C1096.75 1323.35 1110.43 1313.63 1123.91 1304.55C1166.42 1275.91 1211.34 1249.55 1254.79 1224.06C1278.61 1210.07 1303.25 1195.62 1327.14 1180.99C1355.68 1163.51 1382.1 1141.49 1405.68 1115.56C1418.63 1101.33 1429.87 1085.09 1440.75 1069.39C1450.71 1055.01 1461.02 1040.15 1472.75 1026.57C1492.98 1003.18 1520.89 991.803 1558.06 991.803C1582.62 991.803 1607.86 996.515 1632.25 1001.06C1641.38 1002.77 1650 1004.35 1658.42 1005.7C1709.74 1013.8 1762.8 1022.2 1815.28 1022.2C1840.99 1022.2 1864.33 1020.22 1886.62 1016.17C1922.73 1009.6 1955.2 997.465 1983.15 980.082C2002.98 967.755 2020.17 951.322 2036.77 935.455C2045.1 927.495 2053.71 919.292 2062.6 911.603C2078.25 898.077 2092.09 881.742 2105.49 865.923C2112.94 857.157 2120.63 848.077 2128.56 839.555C2131.55 836.383 2134.52 833.183 2137.5 829.985C2159.67 806.305 2182.6 781.792 2202.08 755.34C2231.96 714.8 2264.31 650.737 2248.76 575.775C2237.16 519.878 2208.23 467.668 2180.25 417.18C2174.95 407.623 2169.46 397.722 2164.26 388.068C2136.74 337.128 2100.98 281.183 2044.05 252.532C2000.76 230.717 1950.44 221 1880.91 221C1869.09 221 1856.23 221.27 1841.55 221.83L1833.72 222.125C1764.21 224.76 1692.33 227.47 1627.71 253.583C1561.18 280.45 1563.09 346.415 1570.73 411.688C1572.22 424.455 1573.98 437.725 1575.66 450.555C1583.4 509.465 1591.41 570.367 1582.84 628.24C1574.32 685.82 1550.54 741.117 1527.51 794.585C1523.52 803.888 1519.53 813.165 1515.66 822.367C1513.92 826.518 1512.19 830.718 1510.44 834.965C1500.88 858.282 1490.99 882.377 1475.68 902.398C1454.44 930.18 1422.9 936.285 1394.85 938.58C1385.95 939.313 1376.6 939.678 1367.05 939.678C1324.1 939.678 1280.6 932.305 1238.55 925.175C1226.32 923.1 1213.67 920.952 1201.38 919.072C1181.01 915.923 1160.24 912.31 1140.17 908.843C1089.07 899.955 1036.26 890.8 984.141 888.14C976.353 887.725 968.406 887.53 960.531 887.53C902.378 887.53 842.563 898.125 777.671 919.877C707.308 943.487 648.446 968.877 597.713 997.49C544.761 1027.35 520.396 1064.95 525.291 1109.24ZM862.668 1438.63H862.656C819.981 1438.63 775.753 1427.67 734.776 1406.97C680.538 1379.55 631.283 1336.95 592.343 1283.72C554.293 1231.75 527.683 1172.03 515.391 1111.02L515.318 1110.58C509.81 1061.78 535.886 1020.76 592.796 988.652C644.088 959.723 703.526 934.087 774.495 910.282C840.426 888.165 901.278 877.398 960.531 877.398C968.576 877.398 976.693 877.617 984.653 878.008C1037.37 880.718 1090.49 889.923 1141.88 898.832C1161.91 902.325 1182.62 905.912 1202.91 909.037C1215.27 910.943 1227.95 913.115 1240.22 915.19C1281.87 922.245 1324.94 929.545 1367.05 929.545C1376.33 929.545 1385.4 929.18 1394.03 928.473C1419.89 926.372 1448.86 920.855 1467.7 896.22C1482.2 877.25 1491.83 853.79 1501.14 831.108C1502.9 826.835 1504.64 822.587 1506.4 818.412C1510.28 809.185 1514.27 799.907 1518.29 790.558C1541.04 737.688 1564.58 683.012 1572.88 626.75C1581.23 570.28 1573.32 510.1 1565.67 451.885C1563.99 439.018 1562.23 425.713 1560.74 412.87C1552.98 346.733 1550.83 273.71 1623.95 244.17C1690.21 217.413 1762.96 214.665 1833.33 212.005L1841.16 211.7C1855.96 211.137 1868.97 210.87 1880.91 210.87C1952.08 210.87 2003.78 220.915 2048.56 243.463C2107.96 273.382 2144.85 330.9 2173.1 383.22C2178.3 392.84 2183.76 402.702 2189.04 412.248C2217.38 463.395 2246.7 516.29 2258.62 573.7C2271.53 635.955 2254.76 700.86 2210.16 761.383C2190.33 788.31 2167.19 813.018 2144.82 836.943C2141.87 840.117 2138.89 843.315 2135.91 846.49C2128.15 854.84 2120.53 863.822 2113.16 872.515C2099.51 888.603 2085.38 905.255 2069.17 919.292C2060.45 926.813 2051.93 934.943 2043.7 942.803C2026.71 959.037 2009.13 975.81 1988.45 988.702C1959.42 1006.75 1925.76 1019.37 1888.43 1026.16C1865.5 1030.31 1841.58 1032.34 1815.28 1032.34C1762.01 1032.34 1708.57 1023.89 1656.86 1015.71C1648.29 1014.34 1639.62 1012.73 1630.42 1011.02C1606.47 1006.58 1581.69 1001.96 1558.06 1001.96C1523.5 1001.96 1498.8 1011.9 1480.35 1033.24C1468.96 1046.4 1458.81 1061.05 1449 1075.21C1437.94 1091.17 1426.5 1107.68 1413.1 1122.42C1388.88 1149.06 1361.72 1171.67 1332.37 1189.64C1308.39 1204.33 1283.72 1218.81 1259.86 1232.82C1216.54 1258.24 1171.75 1284.53 1129.5 1312.97C1116.13 1321.98 1102.5 1331.68 1089.33 1341.02C1042.83 1374.06 994.748 1408.21 940.256 1426.23C915.378 1434.46 889.268 1438.63 862.668 1438.63V1438.63Z" fill="#51DF9B" fill-opacity="0.2"/>
<path fill-rule="evenodd" clip-rule="evenodd" d="M1848.22 265.57C1828.66 265.57 1807.98 266.583 1785.03 268.657C1723.29 274.248 1680.52 292.9 1654.27 325.7C1622.05 365.985 1623.05 420.855 1627.51 464.152C1628.71 475.555 1630.03 487.03 1631.32 498.137C1636.82 545.257 1641.99 589.75 1637.28 637.03C1634.94 660.65 1630.4 684.43 1626 707.427C1617.97 749.395 1609.69 792.803 1614.55 836.455C1640.36 946.367 1780.79 954.938 1823.22 954.938C1828.2 954.938 1833.2 954.84 1838.11 954.643C1972.29 949.247 2075.1 847.76 2140.77 771.893C2196.48 707.512 2216.85 648.015 2204.88 584.648C2192.92 521.185 2154.42 457.233 2118.34 403.045C2079.69 345 2027.78 303.507 1968.26 283.075C1933.94 271.295 1894.68 265.57 1848.22 265.57ZM1823.22 957.475V957.475C1775.32 957.475 1729.59 948.417 1694.51 931.987C1649.71 911.015 1621.98 879.032 1612.09 836.895C1607.13 792.705 1615.48 749.115 1623.54 706.95C1627.91 684.003 1632.45 660.282 1634.79 636.773C1639.45 589.775 1634.3 545.402 1628.83 498.43C1627.54 487.322 1626.2 475.835 1625.02 464.422C1620.51 420.635 1619.51 365.117 1652.32 324.115C1679 290.753 1722.34 271.782 1784.79 266.13C1807.84 264.043 1828.56 263.03 1848.22 263.03C1894.97 263.03 1934.5 268.805 1969.07 280.67C2029.13 301.288 2081.47 343.12 2120.44 401.64C2156.64 456.035 2195.29 520.268 2207.37 584.172C2219.48 648.37 2198.93 708.55 2142.65 773.553C2076.69 849.785 1973.36 951.737 1838.21 957.183C1833.25 957.377 1828.23 957.475 1823.22 957.475V957.475Z" fill="#51DF9B" fill-opacity="0.2"/>
<path fill-rule="evenodd" clip-rule="evenodd" d="M342.342 267.631C317.72 267.631 284.055 284.879 271.369 291.374C241.207 306.826 172.017 350.151 181.125 418.509C190.28 451.932 213.827 458.977 231.967 458.977C249.287 458.989 269.832 452.384 288.349 440.861C312.265 425.982 332.797 404.276 347.724 378.079C355.417 364.579 379.66 317.937 368.832 284.429C365.23 273.284 356.32 267.631 342.342 267.631ZM231.967 461.514V461.514C212.947 461.514 188.277 454.142 178.67 419.011C169.307 348.881 239.585 304.814 270.235 289.116C283.052 282.549 317.11 265.104 342.342 265.104C357.54 265.104 367.257 271.341 371.237 283.647C382.382 318.144 357.722 365.616 349.91 379.337C334.775 405.899 313.95 427.921 289.67 443.022C270.772 454.776 249.74 461.514 231.967 461.514V461.514Z" fill="#51DF9B" fill-opacity="0.2"/>
<path fill-rule="evenodd" clip-rule="evenodd" d="M1836.6 318.975C1795.22 318.975 1760.5 327.873 1733.37 345.44C1697.71 368.56 1681.3 409.38 1684.6 466.765C1685.38 474.065 1686.16 481.402 1686.96 488.737C1694.48 558.77 1702.27 631.205 1697.12 703.668C1691.97 776.055 1708.01 824.737 1746.17 852.495C1776.1 874.298 1810.06 885.332 1847.12 885.332C1957.28 885.332 2057.15 791.362 2085.16 762.542C2141.09 704.985 2163.26 652.313 2154.93 596.808C2146.58 541.117 2112.52 476.933 2061.5 420.708C2015.04 369.487 1957.15 336.21 1894.12 324.455C1874.56 320.818 1855.2 318.975 1836.6 318.975ZM1847.15 887.87C1847.12 887.87 1847.15 887.87 1847.12 887.87C1809.52 887.87 1775.07 876.665 1744.7 854.57C1705.76 826.225 1689.38 776.813 1694.6 703.485C1699.73 631.242 1692.31 562.15 1684.45 489.007C1683.67 481.67 1682.89 474.333 1682.1 466.972C1678.74 408.55 1695.53 366.947 1732.03 343.302C1759.55 325.48 1794.73 316.435 1836.6 316.435C1855.37 316.435 1874.88 318.302 1894.56 321.965C1958.15 333.818 2016.53 367.375 2063.35 419C2114.72 475.577 2149 540.253 2157.42 596.427C2165.87 652.788 2143.48 706.132 2086.96 764.325C2058.79 793.29 1958.25 887.87 1847.15 887.87V887.87Z" fill="#51DF9B" fill-opacity="0.2"/>
<path fill-rule="evenodd" clip-rule="evenodd" d="M918.879 353.18C899.129 353.18 879.671 362.882 865.473 379.802C850.509 397.637 843.734 421.1 847.334 442.547C856.844 475.53 893.941 490.362 926.471 490.362C926.484 490.362 926.484 490.362 926.484 490.362C959.821 490.362 987.289 475.885 998.164 452.568C1004.15 439.715 1004.14 425.75 998.104 411.077C987.141 384.393 960.481 364.36 940.339 357.025C933.334 354.472 926.106 353.18 918.879 353.18ZM926.484 492.9C926.484 492.9 926.484 492.9 926.471 492.9C893.001 492.887 854.794 477.495 844.881 443.108C841.121 420.793 848.116 396.563 863.556 378.168C878.231 360.675 898.384 350.652 918.879 350.652C926.399 350.652 933.906 351.995 941.194 354.643C961.836 362.163 989.179 382.72 1000.43 410.1C1006.66 425.25 1006.66 440.3 1000.43 453.643C989.143 477.85 960.811 492.9 926.484 492.9V492.9Z" fill="#51DF9B" fill-opacity="0.2"/>
<path fill-rule="evenodd" clip-rule="evenodd" d="M1776.31 517.362C1780.22 544.327 1782.71 571.88 1785.1 598.527C1787.73 628.032 1790.47 658.538 1795.16 688.128C1799.79 717.34 1815.25 768.082 1866.72 779.765C1875.23 781.695 1884.22 782.695 1893.4 782.695C1963.2 782.695 2044.4 725.065 2070.72 656.853C2105.04 567.853 2015.74 480.608 1957.56 443.083C1933.14 427.338 1895.62 408.563 1855.48 408.563C1840.52 408.563 1826.26 411.26 1813.15 416.558C1775.92 431.62 1774.58 476.445 1776.31 517.362ZM1893.43 792.827C1893.4 792.827 1893.4 792.827 1893.4 792.827C1883.46 792.827 1873.75 791.752 1864.52 789.652C1807.24 776.665 1790.25 721.465 1785.22 689.715C1780.48 659.782 1777.72 629.108 1775.06 599.443C1772.67 572.845 1770.21 545.342 1766.32 518.572L1766.27 518.06C1764.81 483.697 1762.34 426.177 1809.39 407.157C1823.72 401.373 1839.22 398.43 1855.48 398.43C1898.04 398.43 1937.44 418.072 1962.98 434.55C2023.75 473.735 2116.79 565.422 2080.09 660.527C2052.43 732.245 1966.93 792.827 1893.43 792.827V792.827Z" fill="#51DF9B" fill-opacity="0.2"/>
<path fill-rule="evenodd" clip-rule="evenodd" d="M1034.99 1500C1042.76 1492.5 1050.42 1484.96 1057.99 1477.46C1076.91 1458.76 1096.46 1439.43 1117.14 1422.19C1173.45 1375.32 1234.3 1340.26 1298 1318.02C1334.95 1305.13 1373.83 1296.73 1411.42 1288.6C1445.97 1281.13 1481.73 1273.39 1515.98 1262.18C1522.78 1259.96 1529.87 1257.52 1537.22 1255.03C1594.47 1235.42 1665.74 1211.06 1719.79 1240.65C1734.32 1248.63 1742.28 1258.62 1743.45 1270.36C1746.67 1302.74 1698.45 1343.46 1669.64 1367.8C1663.15 1373.32 1657.51 1378.05 1653.39 1381.91C1615 1417.72 1582.07 1457.69 1552.94 1500H1556.02C1584.8 1458.35 1617.3 1419.04 1655.09 1383.76C1659.19 1379.96 1664.79 1375.22 1671.28 1369.75C1702.36 1343.48 1749.31 1303.83 1745.96 1270.09C1744.69 1257.47 1736.29 1246.83 1720.99 1238.43C1665.96 1208.3 1594.13 1232.88 1536.42 1252.61C1529.09 1255.13 1522 1257.54 1515.2 1259.76C1481.07 1270.95 1445.39 1278.66 1410.88 1286.13C1373.22 1294.26 1334.28 1302.68 1297.18 1315.63C1233.19 1337.96 1172.09 1373.17 1115.54 1420.24C1094.78 1437.55 1075.17 1456.91 1056.23 1475.66C1048.04 1483.76 1039.77 1491.92 1031.34 1500H1034.99" fill="#51DF9B" fill-opacity="0.2"/>
<path fill-rule="evenodd" clip-rule="evenodd" d="M335.715 1454.69C303.195 1439.06 285.055 1421.34 278.647 1398.92C270.992 1372.17 278.292 1343.82 285.347 1316.43C286.13 1313.43 286.897 1310.45 287.642 1307.47C308.724 1223.37 304.244 1155 273.934 1098.46C244.65 1043.82 194.235 1010.01 145.48 977.325C95.9201 944.098 44.6751 909.745 15.8291 853.52C9.87214 841.925 4.77014 829.862 0.265137 817.558V824.688C4.22014 834.917 8.60214 844.952 13.5951 854.693C42.7321 911.505 94.2601 946.025 144.075 979.447C192.587 1011.96 242.732 1045.58 271.724 1099.66C301.717 1155.62 306.125 1223.39 285.202 1306.86C284.457 1309.82 283.687 1312.79 282.92 1315.79C276.107 1342.24 268.38 1372.19 276.217 1399.61C284.932 1430.08 313.73 1446.92 334.627 1456.96C373.434 1475.58 414.302 1489.06 455.16 1500H465.097C421.285 1488.65 377.292 1474.63 335.715 1454.69" fill="#51DF9B" fill-opacity="0.2"/>
<path fill-rule="evenodd" clip-rule="evenodd" d="M2807.81 1487.77C2816.33 1492.26 2824.98 1496.34 2833.76 1500H2840.58C2829.86 1495.78 2819.31 1490.99 2808.98 1485.52C2700.56 1428.1 2598.15 1299.17 2614.48 1182.79C2623.54 1118.14 2663.13 1055.62 2698.07 1000.44C2702.86 992.853 2707.6 985.358 2712.19 978.008C2717.26 969.83 2722.34 961.65 2727.4 953.473C2761.04 899.125 2795.83 842.925 2835.47 791.705C2866.55 751.495 2903.03 715.202 2938.31 680.108C2955.13 663.335 2972.56 646.012 2989.33 628.288C2992.75 624.688 2996.48 620.745 3000.27 616.545V612.75C2995.83 617.777 2991.38 622.465 2987.38 626.702C2970.75 644.23 2953.35 661.552 2936.52 678.3C2901.2 713.458 2864.67 749.81 2833.47 790.143C2793.75 841.485 2758.94 897.735 2725.27 952.13C2720.19 960.308 2715.14 968.487 2710.06 976.665C2705.47 984.015 2700.73 991.485 2695.95 999.077C2660.86 1054.47 2621.12 1117.26 2611.99 1182.45C2601.93 1254.05 2635.43 1319.24 2665.28 1361.3C2702.1 1413.21 2754.05 1459.3 2807.81 1487.77" fill="#51DF9B" fill-opacity="0.2"/>
<path fill-rule="evenodd" clip-rule="evenodd" d="M2197.22 1500C2202.4 1493.26 2207.62 1486.7 2212.74 1480.35C2218.02 1473.85 2223.39 1467.36 2228.78 1460.82C2260.23 1422.8 2292.77 1383.47 2309.08 1336.16C2331.45 1271.26 2305.3 1216.29 2277.61 1158.11L2273.68 1149.83C2244.46 1088.13 2238.67 1032.67 2255.94 980.277C2273.98 925.542 2311.52 878.96 2345.34 839.605C2353.35 830.277 2361.6 820.902 2369.6 811.845C2398.27 779.375 2427.88 745.805 2451.03 707.878C2455.35 700.797 2459.72 693.365 2463.94 686.163C2489.9 641.96 2516.73 596.245 2563.23 574.822C2581.01 566.63 2600.39 561.822 2619.17 557.183C2632.18 553.947 2645.63 550.615 2658.5 546.16C2680.74 538.483 2702.47 528.668 2723.49 519.183C2736.99 513.077 2750.95 506.768 2764.9 501.103C2837.5 471.563 2904.91 468.463 2965.28 491.875C2976.71 496.308 2989.26 502.14 3000.27 509.452V506.463C2990.85 500.347 2979.47 494.657 2966.19 489.507C2905.2 465.85 2837.16 468.963 2763.97 498.748C2749.95 504.435 2735.96 510.76 2722.44 516.862C2701.49 526.335 2679.81 536.112 2657.69 543.768C2644.92 548.185 2631.52 551.507 2618.55 554.717C2599.69 559.393 2580.18 564.225 2562.19 572.515C2514.94 594.268 2487.92 640.325 2461.77 684.867C2457.55 692.058 2453.2 699.492 2448.88 706.547C2425.85 744.293 2396.31 777.765 2367.73 810.162C2359.72 819.22 2351.44 828.617 2343.44 837.945C2309.48 877.495 2271.73 924.298 2253.54 979.473C2236.06 1032.54 2241.9 1088.62 2271.41 1150.9L2275.34 1159.21C2302.78 1216.89 2328.74 1271.41 2306.69 1335.33C2290.53 1382.23 2258.15 1421.36 2226.86 1459.21C2221.46 1465.72 2216.06 1472.24 2210.79 1478.76C2205.25 1485.59 2199.61 1492.7 2194.02 1500H2197.22" fill="#51DF9B" fill-opacity="0.2"/>
<path fill-rule="evenodd" clip-rule="evenodd" d="M192.477 1124.17C167.512 1071.31 119.967 1037.5 73.9941 1004.81C48.5321 986.7 22.5921 968.242 0.265137 946.415V949.883C22.3091 971.122 47.6521 989.165 72.5421 1006.86C118.257 1039.38 165.525 1073 190.207 1125.25C241.305 1233.45 130.417 1333.06 57.0401 1398.97L48.1401 1407.01C31.5401 1421.97 15.0971 1437.82 0.265137 1455.35V1459.3C15.5121 1440.97 32.5651 1424.44 49.8121 1408.89L58.7121 1400.88C132.65 1334.45 244.38 1234.08 192.477 1124.17" fill="#51DF9B" fill-opacity="0.2"/>
<path fill-rule="evenodd" clip-rule="evenodd" d="M2273.54 1461.82C2263.57 1474.32 2253.52 1486.99 2243.85 1500H2256.47C2264.65 1489.21 2273.05 1478.61 2281.4 1468.14C2292.58 1454.05 2304.18 1439.5 2314.85 1424.83C2353.15 1372.19 2400.81 1306.71 2380.1 1236.25C2371.46 1206.88 2355.03 1180.86 2339.11 1155.69C2318.04 1122.29 2298.12 1090.77 2294.12 1051.51C2282.47 937.555 2378.3 848.223 2455.3 776.42L2461.5 770.635C2508.81 726.483 2552.71 688.31 2611.08 668.183C2636.77 659.33 2664.26 654.887 2690.82 650.59C2696.17 649.725 2701.51 648.858 2706.84 647.967C2708.76 647.65 2710.94 647.245 2713.33 646.82C2732.45 643.353 2768.04 636.895 2784.33 648.37C2788.85 651.568 2791.53 655.938 2792.53 661.735C2795.53 679.338 2788.09 701.385 2781.49 720.83C2779.91 725.48 2778.42 729.875 2777.12 734.05C2768.55 761.822 2758.2 789.825 2745.48 819.683C2724.34 869.34 2697.88 921.318 2662.19 983.233C2653.54 998.175 2643.65 1013.72 2633.15 1030.17C2583.55 1108.06 2527.32 1196.34 2564.8 1285.11C2586.6 1336.79 2625.2 1385.91 2656.37 1422.92C2681.15 1452.34 2706.96 1478.13 2733.45 1500H2749.59C2720.14 1476.93 2691.48 1448.95 2664.04 1416.36C2633.33 1379.91 2595.34 1331.57 2574.05 1281.13C2538.65 1197.29 2593.36 1111.42 2641.65 1035.64C2652.17 1019.09 2662.13 1003.47 2670.87 988.31C2706.79 926.03 2733.42 873.735 2754.74 823.688C2767.58 793.51 2778.05 765.165 2786.74 737.065C2787.99 733.012 2789.45 728.693 2791.02 724.103C2798 703.507 2805.91 680.168 2802.44 660.015C2800.98 651.53 2796.83 644.818 2790.09 640.068C2770.36 626.177 2733.55 632.855 2711.55 636.833C2709.2 637.26 2707.06 637.652 2705.18 637.97C2699.88 638.86 2694.56 639.728 2689.23 640.58C2662.23 644.952 2634.33 649.455 2607.84 658.588C2547.58 679.362 2502.81 718.255 2454.66 763.2L2448.46 768.987C2369.82 842.315 2271.95 933.575 2284.11 1052.56C2288.35 1094.19 2309.84 1128.22 2330.64 1161.11C2346.15 1185.69 2362.21 1211.13 2370.44 1239.13C2389.75 1304.76 2343.73 1368.02 2306.71 1418.85C2296.17 1433.33 2284.67 1447.8 2273.54 1461.82" fill="#51DF9B" fill-opacity="0.2"/>
<path fill-rule="evenodd" clip-rule="evenodd" d="M3000.27 1477.27C2986.06 1478.64 2971.48 1479.17 2956.59 1478.83C2897.22 1477.54 2840.48 1459.57 2792.48 1426.86C2747.58 1396.24 2709.74 1354.08 2683.11 1304.93C2667.04 1275.27 2658.67 1251.32 2656.01 1227.29C2652.91 1199.29 2654.66 1167.02 2660.45 1145.04C2671.51 1103.25 2698.02 1061.77 2721.44 1025.17C2725.63 1018.63 2729.76 1012.16 2733.74 1005.79C2768.73 949.955 2806.52 898.468 2846.07 852.787C2886.62 805.962 2929.64 763.983 2973.85 728.032C2982.57 720.952 2991.38 714.19 3000.27 707.768V704.668C2990.85 711.43 2981.49 718.56 2972.29 726.055C2927.93 762.103 2884.84 804.18 2844.17 851.127C2804.54 896.905 2766.65 948.492 2731.62 1004.44C2727.64 1010.79 2723.51 1017.26 2719.31 1023.8C2695.83 1060.55 2669.19 1102.2 2658.03 1144.41C2652.15 1166.63 2650.37 1199.29 2653.52 1227.56C2656.2 1251.95 2664.65 1276.17 2680.88 1306.13C2707.74 1355.67 2745.83 1398.12 2791.09 1428.96C2839.48 1461.94 2896.68 1480.08 2956.55 1481.37C2959.42 1481.45 2962.3 1481.47 2965.16 1481.47C2977.08 1481.47 2988.8 1480.88 3000.27 1479.81V1477.27" fill="#51DF9B" fill-opacity="0.2"/>
<path fill-rule="evenodd" clip-rule="evenodd" d="M3000.26 1434.48C2996.06 1434.92 2991.84 1435.31 2987.61 1435.58C2933.78 1438.88 2881.34 1427.33 2835.98 1402.14C2761.59 1360.83 2690.2 1276.35 2698.45 1180.72C2703.02 1127.89 2728.22 1081.06 2752.26 1042.27C2782.51 993.412 2817.76 946.88 2857.02 903.96C2895.16 862.26 2937.03 823.175 2981.44 787.773C2987.12 783.258 2993.45 778.228 3000.26 772.968V769.78C2992.84 775.47 2985.98 780.938 2979.87 785.795C2935.37 821.245 2893.4 860.43 2855.17 902.25C2815.79 945.268 2780.46 991.925 2750.11 1040.93C2725.92 1079.99 2700.58 1127.14 2695.96 1180.5C2692.2 1224.08 2705.09 1269.37 2733.29 1311.46C2758.41 1348.98 2794.45 1381.99 2834.76 1404.35C2875.43 1426.94 2921.69 1438.66 2969.57 1438.66C2975.6 1438.66 2981.68 1438.49 2987.76 1438.09C2991.93 1437.85 2996.11 1437.46 3000.26 1437.05V1434.48" fill="#51DF9B" fill-opacity="0.2"/>
<path fill-rule="evenodd" clip-rule="evenodd" d="M3000.27 1398.27C2999.61 1398.37 2998.97 1398.46 2998.32 1398.56C2951.42 1404.2 2901.42 1394.24 2857.55 1370.53C2776.2 1326.59 2729 1246.8 2737.3 1167.26C2746.7 1077.37 2812.92 1000.9 2874.22 936.285C2906.84 901.91 2944.14 867.853 2988.28 832.11C2992.11 829.01 2996.15 825.81 3000.27 822.612V819.39C2995.56 823.027 2991.04 826.64 2986.69 830.157C2942.48 865.947 2905.08 900.077 2872.41 934.527C2810.79 999.468 2744.29 1076.32 2734.81 1166.99C2726.39 1247.56 2774.1 1328.32 2856.35 1372.78C2892.58 1392.33 2932.91 1402.64 2972.34 1402.64C2981.15 1402.64 2989.94 1402.1 2998.63 1401.08C2999.17 1401 2999.73 1400.9 3000.27 1400.83V1398.27" fill="#51DF9B" fill-opacity="0.2"/>
<path fill-rule="evenodd" clip-rule="evenodd" d="M2596.15 761.577C2558.23 761.577 2521.1 783.525 2486.65 807.255C2381.71 879.523 2330.54 954.643 2334.55 1030.63C2340.38 1077.84 2370.26 1126.72 2410.67 1155.01C2424.39 1164.61 2440.77 1174.45 2458.37 1174.45C2462.48 1174.45 2466.55 1173.89 2470.48 1172.84C2492.73 1166.78 2508.79 1147.33 2523 1130.16C2588.38 1051.11 2656.76 956.548 2669.29 853.52C2673.34 820.22 2663.19 777.08 2621.22 765.045C2613.19 762.737 2604.76 761.577 2596.15 761.577ZM2458.37 1176.96V1176.96C2440.09 1176.96 2423.27 1166.93 2409.23 1157.09C2368.26 1128.4 2337.96 1078.84 2332.03 1030.84C2327.98 953.837 2379.54 877.96 2485.23 805.157C2520.02 781.205 2557.52 759.037 2596.15 759.037C2604.98 759.037 2613.65 760.235 2621.9 762.603C2665.41 775.077 2675.95 819.537 2671.78 853.813C2659.18 957.525 2590.55 1052.43 2525.07 1131.6C2510.5 1149.23 2494.14 1169.03 2471.15 1175.28C2466.99 1176.4 2462.7 1176.96 2458.37 1176.96V1176.96Z" fill="#51DF9B" fill-opacity="0.2"/>
<path fill-rule="evenodd" clip-rule="evenodd" d="M3000.27 1356.98C2965.55 1361.72 2929.54 1356.96 2896.58 1342.97C2824.41 1312.3 2777.22 1245.07 2779.2 1175.63C2781.47 1095.41 2840.21 1025.32 2897.39 967.34C2926.83 937.48 2960.52 907.33 3000.27 875.225V862.26C2998.78 863.457 2997.27 864.652 2995.78 865.85C2954.93 898.735 2920.41 929.595 2890.23 960.21C2831.69 1019.58 2771.51 1091.6 2769.14 1175.34C2767.04 1248.92 2816.7 1320.04 2892.68 1352.29C2918.65 1363.33 2946.44 1368.9 2974.1 1368.9C2982.86 1368.9 2991.6 1368.33 3000.27 1367.21V1356.98" fill="#51DF9B" fill-opacity="0.2"/>
<path fill-rule="evenodd" clip-rule="evenodd" d="M3000.27 1320.05C2973.54 1324.43 2945.05 1323.06 2916.46 1311.73C2860.79 1289.66 2808.96 1231.09 2817.6 1161.83C2826.69 1089.1 2877.88 1030.89 2931.86 978.837C2951.73 959.673 2974.63 938.627 3000.27 918.365V915.165C2973.93 935.82 2950.44 957.402 2930.13 977.008C2875.81 1029.38 2824.29 1088 2815.11 1161.51C2806.32 1232.04 2858.96 1291.66 2915.53 1314.07C2934.77 1321.72 2953.96 1324.91 2972.61 1324.91C2981.98 1324.91 2991.24 1324.08 3000.27 1322.62V1320.05" fill="#51DF9B" fill-opacity="0.2"/>
<path fill-rule="evenodd" clip-rule="evenodd" d="M2533.57 873.76C2510.62 873.76 2486.06 886.773 2476.59 892.388C2434.11 917.438 2395.36 966.803 2404.57 1020.53C2412.94 1048.78 2431.69 1064.41 2457.37 1064.41C2479.64 1064.41 2504.37 1051.93 2521.95 1031.86C2567.99 979.205 2584.89 934.99 2572.15 900.47C2565.6 882.745 2552.61 873.76 2533.57 873.76ZM2457.37 1066.94V1066.94C2430.49 1066.94 2410.86 1050.66 2402.12 1021.12C2392.68 966.045 2432.08 915.702 2475.32 890.19C2484.96 884.478 2509.99 871.22 2533.57 871.22C2553.78 871.22 2567.55 880.768 2574.49 899.59C2587.6 935.04 2570.53 980.108 2523.83 1033.52C2505.81 1054.13 2480.35 1066.94 2457.37 1066.94V1066.94Z" fill="#51DF9B" fill-opacity="0.2"/>
<path fill-rule="evenodd" clip-rule="evenodd" d="M3000.26 1269.15C2986.49 1271.52 2973.35 1271.5 2960.68 1269.08C2907.8 1259.02 2869.74 1212.95 2872.14 1161.95C2874.89 1103.11 2918.57 1054.72 2960.93 1015.15C2973.38 1003.52 2986.49 991.558 3000.26 979.815V976.495C2985.85 988.702 2972.18 1001.18 2959.22 1013.29C2916.49 1053.21 2872.43 1102.09 2869.62 1161.83C2867.15 1214.1 2906.12 1261.26 2960.2 1271.57C2966.79 1272.81 2973.5 1273.45 2980.34 1273.45C2986.86 1273.45 2993.47 1272.86 3000.26 1271.72V1269.15" fill="#51DF9B" fill-opacity="0.2"/>
<path fill-rule="evenodd" clip-rule="evenodd" d="M953.647 931.818C951.522 931.818 949.41 931.84 947.287 931.865C880.244 932.792 812.082 953.473 744.697 993.315C667.757 1038.79 634.885 1089.89 646.97 1145.14C672.102 1222.78 733.15 1355.83 859.382 1373.39C867.342 1374.49 875.485 1375.05 883.565 1375.05C942.99 1375.05 997.712 1345.14 1048.01 1312.82C1064.64 1302.13 1081.84 1291.53 1098.46 1281.3C1141.19 1255 1185.36 1227.83 1224.79 1195.83C1227.48 1193.63 1230.3 1191.38 1233.22 1189.04C1269.42 1159.99 1319.01 1120.21 1317.96 1072.54C1316.6 1011.62 1236.61 988.627 1183.68 973.393C1179.11 972.1 1174.77 970.855 1170.75 969.657C1116.27 953.423 1034.5 931.818 953.647 931.818ZM883.565 1377.59C883.565 1377.59 883.577 1377.59 883.565 1377.59C875.362 1377.59 867.11 1377.03 859.042 1375.9C731.454 1358.16 669.895 1224.12 644.552 1145.83C632.162 1089.23 665.437 1037.23 743.417 991.117C811.19 951.055 879.769 930.255 947.25 929.327C1030.41 928.18 1115.4 950.518 1171.46 967.218C1175.48 968.412 1179.81 969.657 1184.36 970.978C1238.01 986.407 1319.08 1009.72 1320.47 1072.49C1321.56 1121.41 1271.4 1161.64 1234.78 1191.01C1231.87 1193.36 1229.07 1195.61 1226.38 1197.8C1186.82 1229.91 1142.58 1257.13 1099.78 1283.47C1083.15 1293.7 1065.98 1304.27 1049.37 1314.94C998.752 1347.49 943.637 1377.59 883.565 1377.59V1377.59Z" fill="#51DF9B" fill-opacity="0.2"/>
<path fill-rule="evenodd" clip-rule="evenodd" d="M120.505 1171.34C118.025 1125.44 88.7771 1091.82 63.5701 1067.67C44.5521 1049.46 23.3251 1032.47 0.265137 1016.89V1019.97C22.6651 1035.21 43.3071 1051.76 61.8371 1069.51C86.7021 1093.36 115.572 1126.46 117.99 1171.49C120.187 1212.35 101.107 1247 84.7121 1268.85C61.0201 1300.44 30.2321 1325.95 0.265137 1350.54V1353.81C30.8551 1328.74 62.4341 1302.76 86.7151 1270.36C103.365 1248.17 122.737 1212.99 120.505 1171.34" fill="#51DF9B" fill-opacity="0.2"/>
<path fill-rule="evenodd" clip-rule="evenodd" d="M3000.26 1201.08C2987 1201.37 2974.18 1197.56 2964.1 1190.01C2952.04 1180.98 2945.21 1167.33 2944.89 1151.61C2944.06 1112.3 2974.68 1081.03 3000.26 1057.37V1053.93C2973.99 1078.1 2941.49 1110.38 2942.37 1151.66C2942.71 1168.19 2949.89 1182.54 2962.59 1192.04C2972.77 1199.66 2985.56 1203.64 2998.84 1203.64C2999.31 1203.64 2999.79 1203.59 3000.26 1203.59V1201.08" fill="#51DF9B" fill-opacity="0.2"/>
<path fill-rule="evenodd" clip-rule="evenodd" d="M964.803 985.282C896.971 985.282 809.751 1007.92 768.393 1071.44C753.806 1093.88 747.703 1121.62 751.243 1149.52C759.713 1207.06 788.388 1256.99 829.893 1286.48C853.721 1303.43 880.918 1312 910.728 1312C910.738 1312 910.738 1312 910.738 1312C936.948 1312 964.793 1305.43 993.491 1292.49C1048.11 1267.83 1108.07 1227.65 1158.01 1182.19C1204.03 1140.27 1218.47 1103.4 1200.94 1072.57C1183.42 1041.78 1145.61 1025.08 1110.94 1012.83C1075.43 1000.26 1037.38 991.608 997.823 987.115C987.181 985.893 976.071 985.282 964.803 985.282ZM910.738 1314.54C910.738 1314.54 910.738 1314.54 910.728 1314.54C880.381 1314.54 852.696 1305.8 828.451 1288.56C786.373 1258.68 757.321 1208.12 748.753 1149.86C745.138 1121.32 751.363 1093 766.293 1070.05C808.201 1005.7 896.31 982.745 964.803 982.745C976.168 982.745 987.376 983.355 998.106 984.575C1037.84 989.093 1076.09 997.782 1111.77 1010.43C1146.89 1022.86 1185.19 1039.8 1203.13 1071.32C1221.07 1102.87 1206.04 1141.85 1159.69 1184.07C1109.57 1229.7 1049.38 1270.05 994.528 1294.79C965.488 1307.89 937.301 1314.54 910.738 1314.54V1314.54Z" fill="#51DF9B" fill-opacity="0.2"/>
<path fill-rule="evenodd" clip-rule="evenodd" d="M0.265137 1096.71C19.4801 1114.82 31.9901 1136.21 36.2521 1158.93C43.5021 1197.54 22.7751 1232.84 0.265137 1258.45V1262.25C23.8721 1236.04 46.3601 1199.14 38.7301 1158.47C34.2371 1134.52 20.8451 1112.06 0.265137 1093.26V1096.71" fill="#51DF9B" fill-opacity="0.2"/>
<path fill-rule="evenodd" clip-rule="evenodd" d="M871.799 1162.34C881.089 1204.7 918.174 1219.79 949.827 1219.79C958.947 1219.79 968.137 1218.61 977.159 1216.32C1013.06 1207.12 1068.63 1173.98 1073.88 1132.14C1075.48 1119.44 1072.06 1108.07 1063.73 1098.33C1042.42 1073.4 995.799 1065.8 974.132 1065.29C973.009 1065.27 971.896 1065.25 970.787 1065.25C941.367 1065.25 915.427 1074.38 895.749 1091.68C874.594 1110.26 873.339 1133.51 871.896 1160.43L871.799 1162.34ZM949.827 1222.33V1222.33C917.162 1222.33 878.844 1206.68 869.297 1162.71L869.262 1162.54L869.382 1160.29C870.799 1133.94 872.129 1109.07 894.101 1089.76C914.232 1072.08 940.757 1062.71 970.787 1062.71C971.922 1062.71 973.057 1062.73 974.192 1062.76C996.252 1063.29 1043.75 1071.05 1065.64 1096.67C1074.45 1106.99 1078.06 1119.03 1076.38 1132.46C1070.97 1175.47 1014.36 1209.39 977.782 1218.76C968.552 1221.13 959.154 1222.33 949.827 1222.33V1222.33Z" fill="#51DF9B" fill-opacity="0.2"/>
<path fill-rule="evenodd" clip-rule="evenodd" d="M2307.01 1500C2330.3 1466.6 2356.13 1435.04 2381.3 1404.34L2384.18 1400.83C2386.23 1398.34 2388.31 1395.78 2390.45 1393.12C2413.13 1365.09 2441.33 1330.17 2478.13 1328.1C2520.48 1325.73 2557.4 1367.99 2579.42 1393.24C2590.87 1406.35 2602.35 1419.78 2613.45 1432.76C2632.47 1455 2652 1477.83 2672.12 1500H2675.54C2654.91 1477.32 2634.86 1453.91 2615.36 1431.1C2604.25 1418.12 2592.75 1404.69 2581.32 1391.58C2558.98 1365.97 2521.56 1323.07 2477.98 1325.58C2440.09 1327.71 2411.48 1363.08 2388.5 1391.5C2386.38 1394.17 2384.28 1396.73 2382.25 1399.22L2379.37 1402.74C2353.78 1433.91 2327.54 1465.97 2303.93 1500H2307.01" fill="#51DF9B" fill-opacity="0.2"/>
<path fill-rule="evenodd" clip-rule="evenodd" d="M1085.67 1500.01C1085.68 1499.98 1085.69 1499.96 1085.72 1499.96C1160.68 1415.68 1241.02 1364.34 1324.49 1347.33C1388.49 1334.29 1440.72 1333.46 1484.17 1344.76C1506.55 1350.59 1520.95 1360.75 1526.98 1374.94C1529.61 1381.14 1542.11 1412.56 1529.61 1422.55L1529.25 1422.84L1529.15 1423.28C1523.82 1449.79 1514.47 1475.26 1503.59 1500.01H1506.35C1517.03 1475.57 1526.2 1450.45 1531.55 1424.23C1544.56 1413.12 1533.13 1382.99 1529.3 1373.93C1522.95 1359 1507.97 1348.35 1484.79 1342.32C1440.98 1330.89 1388.38 1331.72 1323.99 1344.86C1239.97 1361.95 1159.17 1413.59 1083.84 1498.25C1083.33 1498.84 1082.82 1499.43 1082.31 1500.01H1085.67" fill="#51DF9B" fill-opacity="0.2"/>
<path fill-rule="evenodd" clip-rule="evenodd" d="M1608.2 1500.01C1668.92 1438.83 1748.27 1392.22 1833.03 1368.25C1874.22 1356.6 1930.2 1347.72 1962.87 1371.47C1979.71 1383.75 1988.87 1403.72 1990.09 1430.87C1991.14 1454.04 1989.16 1477.14 1985.69 1500.01H1988.23C1991.68 1477.14 1993.65 1453.99 1992.6 1430.75C1991.36 1402.79 1981.84 1382.16 1964.33 1369.42C1930.86 1345.05 1874.07 1354.01 1832.35 1365.8C1746.36 1390.12 1665.87 1437.63 1604.64 1500.01H1608.2" fill="#51DF9B" fill-opacity="0.2"/>
<path fill-rule="evenodd" clip-rule="evenodd" d="M1128.08 1500C1178.32 1440.09 1243.25 1399.24 1311.94 1384.52C1348.56 1376.68 1399.75 1372.68 1435.49 1398.19C1468.76 1421.92 1468.68 1463.65 1462.75 1494.48C1462.38 1496.31 1461.99 1498.17 1461.58 1500H1464.16C1464.53 1498.32 1464.88 1496.63 1465.21 1494.95C1471.29 1463.4 1471.31 1420.66 1436.94 1396.12C1400.45 1370.09 1348.54 1374.1 1311.41 1382.03C1241.55 1397 1175.57 1438.77 1124.77 1500H1128.08" fill="#51DF9B" fill-opacity="0.2"/>
<path fill-rule="evenodd" clip-rule="evenodd" d="M1173.99 1500.01C1214.42 1455.31 1268.01 1425.91 1318.7 1421.64C1348.73 1419.13 1374.89 1428.48 1392.38 1447.98C1404.96 1462 1411.85 1479.99 1412.66 1500.01H1415.19C1414.37 1479.35 1407.26 1460.78 1394.25 1446.27C1376.22 1426.18 1349.33 1416.51 1318.5 1419.13C1266.54 1423.5 1211.63 1453.89 1170.61 1500.01H1173.99" fill="#51DF9B" fill-opacity="0.2"/>
<path fill-rule="evenodd" clip-rule="evenodd" d="M2368.63 1500.01C2397.29 1463.54 2434.91 1435.46 2466.8 1428.14C2518.65 1416.25 2564.06 1458.75 2597.68 1500.01H2600.95C2566.8 1457.72 2520.17 1413.29 2466.24 1425.67C2433.37 1433.19 2394.6 1462.34 2365.45 1500.01H2368.63" fill="#51DF9B" fill-opacity="0.2"/>
<path fill-rule="evenodd" clip-rule="evenodd" d="M1674.69 1500.01C1707.74 1479.87 1742.77 1465.47 1777.64 1458.85C1842.77 1446.5 1884.4 1460.36 1901.42 1500.01H1904.15C1886.89 1458.36 1844.19 1443.66 1777.17 1456.36C1741.04 1463.19 1704.3 1478.23 1669.31 1500.01H1674.69" fill="#51DF9B" fill-opacity="0.2"/>
<path fill-rule="evenodd" clip-rule="evenodd" d="M1236.12 1500C1239.18 1497.9 1242.32 1495.93 1245.53 1494.08C1265.54 1482.53 1287.6 1475.9 1306.05 1475.9C1321.05 1475.9 1339.77 1480.47 1350.62 1500H1353.55C1342.3 1478.32 1322.11 1473.38 1306.05 1473.38C1287.18 1473.38 1264.66 1480.1 1244.28 1491.88C1239.98 1494.37 1235.82 1497.07 1231.79 1500H1236.12" fill="#51DF9B" fill-opacity="0.2"/>
</svg>
