<?xml version="1.0" encoding="UTF-8"?>
<!DOCTYPE svg PUBLIC "-//W3C//DTD SVG 1.1//EN" "http://www.w3.org/Graphics/SVG/1.1/DTD/svg11.dtd">
<svg xmlns="http://www.w3.org/2000/svg" version="1.1" width="614px" height="616px" style="shape-rendering:geometricPrecision; text-rendering:geometricPrecision; image-rendering:optimizeQuality; fill-rule:evenodd; clip-rule:evenodd" xmlns:xlink="http://www.w3.org/1999/xlink">
<g><path style="opacity:1" fill="#fefefe" d="M -0.5,-0.5 C 204.167,-0.5 408.833,-0.5 613.5,-0.5C 613.5,204.833 613.5,410.167 613.5,615.5C 408.833,615.5 204.167,615.5 -0.5,615.5C -0.5,410.167 -0.5,204.833 -0.5,-0.5 Z"/></g>
<g><path style="opacity:1" fill="#0c0e0d" d="M 321.5,26.5 C 321.5,27.8333 321.5,29.1667 321.5,30.5C 323.167,30.5 324.833,30.5 326.5,30.5C 326.842,31.3382 327.508,31.6716 328.5,31.5C 335.608,35.792 342.941,39.792 350.5,43.5C 365.644,52.91 381.311,61.5767 397.5,69.5C 396.432,70.4345 395.099,70.7678 393.5,70.5C 393.5,71.5 393.5,72.5 393.5,73.5C 387.921,72.2196 382.588,70.0529 377.5,67C 359.748,56.9137 342.248,46.4137 325,35.5C 321.945,36.6105 319.112,38.1105 316.5,40C 298.333,56.8333 280.167,73.6667 262,90.5C 260.936,92.2688 259.769,93.9355 258.5,95.5C 258.529,97.0293 259.196,98.196 260.5,99C 276.908,106.369 292.574,115.036 307.5,125C 314.919,128.917 322.586,132.25 330.5,135C 332.054,136.892 333.888,138.392 336,139.5C 345.625,130.876 354.958,121.876 364,112.5C 375.427,98.403 387.593,84.903 400.5,72C 401.793,71.51 403.127,71.3433 404.5,71.5C 406.048,71.8212 406.715,72.8212 406.5,74.5C 405.859,75.4822 405.193,76.4822 404.5,77.5C 406.527,78.6933 408.027,80.36 409,82.5C 410.37,88.0903 411.37,93.757 412,99.5C 412.581,119.449 413.748,139.283 415.5,159C 410.951,165.557 405.618,171.557 399.5,177C 397.522,176.967 396.522,175.8 396.5,173.5C 398.656,171.159 401.156,169.159 404,167.5C 404.495,165.527 404.662,163.527 404.5,161.5C 404.804,160.85 405.137,160.183 405.5,159.5C 404.396,153.899 403.729,148.232 403.5,142.5C 403.05,123.495 402.384,104.495 401.5,85.5C 400.893,85.6236 400.56,85.9569 400.5,86.5C 400.167,87.5 399.5,88.1667 398.5,88.5C 398.67,87.1779 398.337,86.0113 397.5,85C 395.432,84.3131 393.432,84.4798 391.5,85.5C 375.46,108.844 356.626,129.844 335,148.5C 334.517,149.448 334.351,150.448 334.5,151.5C 335.5,151.5 336.5,151.5 337.5,151.5C 337.365,173.181 337.865,194.848 339,216.5C 343.034,217.972 346.867,217.472 350.5,215C 357.402,207.594 364.735,200.761 372.5,194.5C 374.101,195.519 375.101,197.019 375.5,199C 366.76,207.071 357.427,214.405 347.5,221C 344.5,224 341.5,227 338.5,230C 336.505,230.613 334.838,230.113 333.5,228.5C 332.71,227.206 331.71,226.039 330.5,225C 326.296,224.203 322.629,222.369 319.5,219.5C 320.804,222.513 323.137,225.179 326.5,227.5C 327.625,229.129 328.959,230.629 330.5,232C 329.207,232.49 327.873,232.657 326.5,232.5C 314.465,220.964 301.965,209.964 289,199.5C 288.666,197.153 288.833,194.819 289.5,192.5C 293.617,195.068 297.617,197.902 301.5,201C 303.392,201.973 305.392,202.64 307.5,203C 313.913,209.938 321.246,215.438 329.5,219.5C 329.56,220.043 329.893,220.376 330.5,220.5C 331.328,203.311 330.662,186.311 328.5,169.5C 328.666,161.826 328.5,154.159 328,146.5C 326.549,144.536 324.716,143.203 322.5,142.5C 320.37,139.263 317.37,137.263 313.5,136.5C 297.67,126.863 281.67,117.363 265.5,108C 265.05,103.613 262.716,101.946 258.5,103C 256.982,108.688 256.148,114.522 256,120.5C 255.536,136.852 255.203,153.185 255,169.5C 258.209,170.679 260.709,172.679 262.5,175.5C 262.146,179.846 259.813,181.513 255.5,180.5C 254.03,178.61 253.03,176.443 252.5,174C 251.87,172.69 250.87,171.856 249.5,171.5C 249.167,170.833 248.833,170.167 248.5,169.5C 248.5,168.5 248.5,167.5 248.5,166.5C 248.5,165.833 248.5,165.167 248.5,164.5C 248.354,162.058 249.187,161.391 251,162.5C 250.644,145.521 250.477,128.521 250.5,111.5C 250.665,107.818 250.499,104.152 250,100.5C 249.29,99.0267 248.124,98.3601 246.5,98.5C 245.662,98.1583 245.328,97.4916 245.5,96.5C 249.552,92.7768 253.552,89.1101 257.5,85.5C 262.139,80.5261 266.805,75.5261 271.5,70.5C 278.438,65.2312 284.771,59.2312 290.5,52.5C 293.167,50.5 295.5,48.1667 297.5,45.5C 301.994,42.3501 305.328,38.3501 307.5,33.5C 310.31,30.8644 313.31,28.3644 316.5,26C 318.387,25.2204 320.054,25.3871 321.5,26.5 Z"/></g>
<g><path style="opacity:1" fill="#3f3f3f" d="M 337.5,30.5 C 335.901,30.2322 334.568,30.5655 333.5,31.5C 332.833,31.1667 332.167,30.8333 331.5,30.5C 328.357,28.7583 325.357,26.7583 322.5,24.5C 323,24.1667 323.5,23.8333 324,23.5C 328.813,25.4877 333.313,27.821 337.5,30.5 Z"/></g>
<g><path style="opacity:1" fill="#636363" d="M 321.5,26.5 C 322.404,27.209 322.737,28.209 322.5,29.5C 324.099,29.2322 325.432,29.5655 326.5,30.5C 324.833,30.5 323.167,30.5 321.5,30.5C 321.5,29.1667 321.5,27.8333 321.5,26.5 Z"/></g>
<g><path style="opacity:1" fill="#131313" d="M 337.5,30.5 C 360.661,42.9128 383.661,55.5795 406.5,68.5C 405.791,69.404 404.791,69.7373 403.5,69.5C 401.254,68.5448 398.921,67.8782 396.5,67.5C 383.202,59.8485 369.869,52.1818 356.5,44.5C 348.636,40.4044 340.969,36.0711 333.5,31.5C 334.568,30.5655 335.901,30.2322 337.5,30.5 Z"/></g>
<g><path style="opacity:1" fill="#7b7b7b" d="M 331.5,30.5 C 332.167,30.8333 332.833,31.1667 333.5,31.5C 340.969,36.0711 348.636,40.4044 356.5,44.5C 356.44,45.0431 356.107,45.3764 355.5,45.5C 353.925,44.5435 352.258,43.8769 350.5,43.5C 342.941,39.792 335.608,35.792 328.5,31.5C 329.791,31.7373 330.791,31.404 331.5,30.5 Z"/></g>
<g><path style="opacity:1" fill="#fcfcfc" d="M 393.5,73.5 C 394.937,72.2745 396.604,71.2745 398.5,70.5C 398.376,69.8933 398.043,69.56 397.5,69.5C 397.167,68.8333 396.833,68.1667 396.5,67.5C 398.921,67.8782 401.254,68.5448 403.5,69.5C 403.833,70.1667 404.167,70.8333 404.5,71.5C 403.127,71.3433 401.793,71.51 400.5,72C 387.593,84.903 375.427,98.403 364,112.5C 354.958,121.876 345.625,130.876 336,139.5C 333.888,138.392 332.054,136.892 330.5,135C 322.586,132.25 314.919,128.917 307.5,125C 292.574,115.036 276.908,106.369 260.5,99C 259.196,98.196 258.529,97.0293 258.5,95.5C 259.769,93.9355 260.936,92.2688 262,90.5C 280.167,73.6667 298.333,56.8333 316.5,40C 319.112,38.1105 321.945,36.6105 325,35.5C 342.248,46.4137 359.748,56.9137 377.5,67C 382.588,70.0529 387.921,72.2196 393.5,73.5 Z"/></g>
<g><path style="opacity:1" fill="#414141" d="M 307.5,33.5 C 305.328,38.3501 301.994,42.3501 297.5,45.5C 297.5,44.5 297.5,43.5 297.5,42.5C 300.792,39.5095 304.126,36.5095 307.5,33.5 Z"/></g>
<g><path style="opacity:1" fill="#6d6d6d" d="M 297.5,42.5 C 297.5,43.5 297.5,44.5 297.5,45.5C 295.5,48.1667 293.167,50.5 290.5,52.5C 289.697,51.5768 289.53,50.5768 290,49.5C 292.37,46.9614 294.87,44.6281 297.5,42.5 Z"/></g>
<g><path style="opacity:1" fill="#4e4e4e" d="M 350.5,43.5 C 352.258,43.8769 353.925,44.5435 355.5,45.5C 356.107,45.3764 356.44,45.0431 356.5,44.5C 369.869,52.1818 383.202,59.8485 396.5,67.5C 396.833,68.1667 397.167,68.8333 397.5,69.5C 381.311,61.5767 365.644,52.91 350.5,43.5 Z"/></g>
<g><path style="opacity:1" fill="#727272" d="M 406.5,68.5 C 408.893,69.3527 410.226,71.0194 410.5,73.5C 409.041,73.4326 407.708,73.7659 406.5,74.5C 406.715,72.8212 406.048,71.8212 404.5,71.5C 404.167,70.8333 403.833,70.1667 403.5,69.5C 404.791,69.7373 405.791,69.404 406.5,68.5 Z"/></g>
<g><path style="opacity:1" fill="#696969" d="M 397.5,69.5 C 398.043,69.56 398.376,69.8933 398.5,70.5C 396.604,71.2745 394.937,72.2745 393.5,73.5C 393.5,72.5 393.5,71.5 393.5,70.5C 395.099,70.7678 396.432,70.4345 397.5,69.5 Z"/></g>
<g><path style="opacity:1" fill="#444444" d="M 271.5,70.5 C 266.805,75.5261 262.139,80.5261 257.5,85.5C 257.586,84.5041 257.252,83.6708 256.5,83C 257.381,82.2917 258.047,81.4584 258.5,80.5C 262.258,76.4078 266.591,73.0745 271.5,70.5 Z"/></g>
<g><path style="opacity:1" fill="#71d7a8" d="M 398.5,88.5 C 398.917,113.118 400.917,137.451 404.5,161.5C 404.662,163.527 404.495,165.527 404,167.5C 401.156,169.159 398.656,171.159 396.5,173.5C 394.513,174.164 392.846,175.331 391.5,177C 390.5,177.667 389.5,177.667 388.5,177C 382.5,171 376.5,165 370.5,159C 369.552,158.517 368.552,158.351 367.5,158.5C 367.351,159.552 367.517,160.552 368,161.5C 370.04,163.37 371.873,165.37 373.5,167.5C 369.974,165.46 366.308,165.127 362.5,166.5C 364.767,164.633 365.934,162.3 366,159.5C 362.951,162.718 359.785,165.718 356.5,168.5C 362.03,176.541 368.697,183.541 376.5,189.5C 375.143,191.186 373.81,192.852 372.5,194.5C 364.735,200.761 357.402,207.594 350.5,215C 346.867,217.472 343.034,217.972 339,216.5C 337.865,194.848 337.365,173.181 337.5,151.5C 336.5,151.5 335.5,151.5 334.5,151.5C 334.351,150.448 334.517,149.448 335,148.5C 356.626,129.844 375.46,108.844 391.5,85.5C 393.432,84.4798 395.432,84.3131 397.5,85C 398.337,86.0113 398.67,87.1779 398.5,88.5 Z"/></g>
<g><path style="opacity:1" fill="#777777" d="M 258.5,80.5 C 258.047,81.4584 257.381,82.2917 256.5,83C 257.252,83.6708 257.586,84.5041 257.5,85.5C 253.552,89.1101 249.552,92.7768 245.5,96.5C 245.187,93.7531 245.52,91.0865 246.5,88.5C 250.557,85.8129 254.557,83.1462 258.5,80.5 Z"/></g>
<g><path style="opacity:1" fill="#292929" d="M 400.5,86.5 C 400.56,85.9569 400.893,85.6236 401.5,85.5C 402.384,104.495 403.05,123.495 403.5,142.5C 402.016,123.859 401.016,105.192 400.5,86.5 Z"/></g>
<g><path style="opacity:1" fill="#418868" d="M 313.5,136.5 C 315.473,139.064 318.473,141.064 322.5,142.5C 324.716,143.203 326.549,144.536 328,146.5C 328.5,154.159 328.666,161.826 328.5,169.5C 328.656,183.189 329.322,196.856 330.5,210.5C 330.498,213.686 330.165,216.686 329.5,219.5C 321.246,215.438 313.913,209.938 307.5,203C 305.392,202.64 303.392,201.973 301.5,201C 297.617,197.902 293.617,195.068 289.5,192.5C 287.766,189.8 285.432,187.8 282.5,186.5C 282.351,185.448 282.517,184.448 283,183.5C 287.521,178.946 291.688,174.113 295.5,169C 293.707,166.205 291.54,163.705 289,161.5C 281.506,164.489 275.673,169.489 271.5,176.5C 270.735,176.923 269.902,177.257 269,177.5C 266.953,176.391 264.787,175.724 262.5,175.5C 260.709,172.679 258.209,170.679 255,169.5C 255.203,153.185 255.536,136.852 256,120.5C 256.148,114.522 256.982,108.688 258.5,103C 262.716,101.946 265.05,103.613 265.5,108C 281.67,117.363 297.67,126.863 313.5,136.5 Z"/></g>
<g><path style="opacity:1" fill="#3c3c3c" d="M 246.5,98.5 C 248.124,98.3601 249.29,99.0267 250,100.5C 250.499,104.152 250.665,107.818 250.5,111.5C 248.873,126.302 248.206,141.302 248.5,156.5C 247.669,142.339 247.169,128.006 247,113.5C 245.594,108.493 245.428,103.493 246.5,98.5 Z"/></g>
<g><path style="opacity:1" fill="#d9e6e1" d="M 400.5,86.5 C 401.016,105.192 402.016,123.859 403.5,142.5C 403.729,148.232 404.396,153.899 405.5,159.5C 405.137,160.183 404.804,160.85 404.5,161.5C 400.917,137.451 398.917,113.118 398.5,88.5C 399.5,88.1667 400.167,87.5 400.5,86.5 Z"/></g>
<g><path style="opacity:1" fill="#242424" d="M 250.5,111.5 C 250.477,128.521 250.644,145.521 251,162.5C 249.187,161.391 248.354,162.058 248.5,164.5C 247.5,163.833 246.5,163.167 245.5,162.5C 245.5,161.167 246.167,160.5 247.5,160.5C 248.434,159.432 248.768,158.099 248.5,156.5C 248.206,141.302 248.873,126.302 250.5,111.5 Z"/></g>
<g><path style="opacity:1" fill="#bdcdc7" d="M 313.5,136.5 C 317.37,137.263 320.37,139.263 322.5,142.5C 318.473,141.064 315.473,139.064 313.5,136.5 Z"/></g>
<g><path style="opacity:1" fill="#626262" d="M 247.5,160.5 C 246.167,160.5 245.5,161.167 245.5,162.5C 241.229,159.899 237.563,156.566 234.5,152.5C 235.723,151.386 237.056,151.219 238.5,152C 241.396,155.066 244.396,157.899 247.5,160.5 Z"/></g>
<g><path style="opacity:1" fill="#dbe7e3" d="M 282.5,186.5 C 281.542,186.047 280.708,185.381 280,184.5C 279.329,185.252 278.496,185.586 277.5,185.5C 277.833,184.833 278.167,184.167 278.5,183.5C 283.051,181.954 286.384,178.954 288.5,174.5C 290.624,172.941 292.291,170.941 293.5,168.5C 291.517,167.018 289.684,165.351 288,163.5C 283.935,167.395 280.102,171.395 276.5,175.5C 275.728,176.694 274.728,177.694 273.5,178.5C 272.761,178.631 272.094,178.464 271.5,178C 272.738,177.31 272.738,176.81 271.5,176.5C 275.673,169.489 281.506,164.489 289,161.5C 291.54,163.705 293.707,166.205 295.5,169C 291.688,174.113 287.521,178.946 283,183.5C 282.517,184.448 282.351,185.448 282.5,186.5 Z"/></g>
<g><path style="opacity:1" fill="#7b7b7b" d="M 248.5,166.5 C 248.5,167.5 248.5,168.5 248.5,169.5C 245.013,168.255 242.013,166.255 239.5,163.5C 240,163.167 240.5,162.833 241,162.5C 243.432,163.966 245.932,165.299 248.5,166.5 Z"/></g>
<g><path style="opacity:1" fill="#0d1612" d="M 288.5,174.5 C 286.193,176.338 283.86,178.338 281.5,180.5C 279.054,179.476 277.388,177.809 276.5,175.5C 280.102,171.395 283.935,167.395 288,163.5C 289.684,165.351 291.517,167.018 293.5,168.5C 292.291,170.941 290.624,172.941 288.5,174.5 Z"/></g>
<g><path style="opacity:1" fill="#080d0b" d="M 373.5,167.5 C 376.851,169.854 379.518,172.854 381.5,176.5C 379.519,178.144 377.519,179.81 375.5,181.5C 374.148,180.476 372.815,179.476 371.5,178.5C 368.098,175.105 365.098,171.438 362.5,167.5C 362.5,167.167 362.5,166.833 362.5,166.5C 366.308,165.127 369.974,165.46 373.5,167.5 Z"/></g>
<g><path style="opacity:1" fill="#4f8e71" d="M 362.5,167.5 C 365.098,171.438 368.098,175.105 371.5,178.5C 367.43,175.94 363.764,172.773 360.5,169C 361.044,168.283 361.711,167.783 362.5,167.5 Z"/></g>
<g><path style="opacity:1" fill="#4b876d" d="M 288.5,174.5 C 286.384,178.954 283.051,181.954 278.5,183.5C 277.415,181.413 275.749,180.08 273.5,179.5C 273.5,179.167 273.5,178.833 273.5,178.5C 274.728,177.694 275.728,176.694 276.5,175.5C 277.388,177.809 279.054,179.476 281.5,180.5C 283.86,178.338 286.193,176.338 288.5,174.5 Z"/></g>
<g><path style="opacity:1" fill="#545454" d="M 249.5,171.5 C 250.87,171.856 251.87,172.69 252.5,174C 253.03,176.443 254.03,178.61 255.5,180.5C 253.833,180.5 252.167,180.5 250.5,180.5C 249.841,177.545 249.508,174.545 249.5,171.5 Z"/></g>
<g><path style="opacity:1" fill="#71cfa4" d="M 381.5,176.5 C 383.5,177.833 385.167,179.5 386.5,181.5C 384.5,183.167 382.5,184.833 380.5,186.5C 378.068,185.25 375.734,183.75 373.5,182C 372.177,181.184 371.511,180.017 371.5,178.5C 372.815,179.476 374.148,180.476 375.5,181.5C 377.519,179.81 379.519,178.144 381.5,176.5 Z"/></g>
<g><path style="opacity:1" fill="#111111" d="M 273.5,179.5 C 275.749,180.08 277.415,181.413 278.5,183.5C 278.167,184.167 277.833,184.833 277.5,185.5C 262.717,199.445 247.717,213.279 232.5,227C 230.099,229.062 227.433,230.729 224.5,232C 222.098,232.814 219.765,232.647 217.5,231.5C 236.621,214.615 255.288,197.282 273.5,179.5 Z"/></g>
<g><path style="opacity:1" fill="#0c0c0c" d="M 386.5,181.5 C 388.189,182.931 390.189,183.764 392.5,184C 404.638,195.137 416.471,206.637 428,218.5C 428.483,219.448 428.649,220.448 428.5,221.5C 424.537,222.44 420.537,222.607 416.5,222C 404.605,209.937 392.605,198.104 380.5,186.5C 382.5,184.833 384.5,183.167 386.5,181.5 Z"/></g>
<g><path style="opacity:1" fill="#0c0d0c" d="M 459.5,194.5 C 460.833,194.5 462.167,194.5 463.5,194.5C 463.5,195.833 463.5,197.167 463.5,198.5C 466.451,198.287 469.118,198.954 471.5,200.5C 480.96,206.066 490.626,211.4 500.5,216.5C 509.156,221.62 517.989,226.62 527,231.5C 528.826,230.99 528.993,230.156 527.5,229C 520.257,224.907 512.924,221.074 505.5,217.5C 495.197,211.011 484.53,205.011 473.5,199.5C 473.5,199.167 473.5,198.833 473.5,198.5C 474.209,197.596 475.209,197.263 476.5,197.5C 494.633,207.067 512.633,216.9 530.5,227C 533.073,227.428 535.406,227.094 537.5,226C 535.993,226.837 535.493,228.004 536,229.5C 539.778,231.97 543.611,234.303 547.5,236.5C 546.791,237.404 545.791,237.737 544.5,237.5C 542.5,236.833 540.5,236.167 538.5,235.5C 536.565,234.19 534.565,232.857 532.5,231.5C 531.5,231.833 530.833,232.5 530.5,233.5C 532.962,234.794 535.295,236.294 537.5,238C 536.944,238.383 536.611,238.883 536.5,239.5C 535.596,240.209 535.263,241.209 535.5,242.5C 533.801,242.66 532.134,242.494 530.5,242C 517.468,234.004 504.135,226.337 490.5,219C 482.488,214.329 474.821,209.162 467.5,203.5C 463.504,205.163 459.837,207.329 456.5,210C 444.467,221.702 432.133,233.035 419.5,244C 412.763,250.401 406.429,257.068 400.5,264C 400.785,265.89 401.785,267.223 403.5,268C 419.274,275.051 434.274,283.384 448.5,293C 457.167,297 465.833,301 474.5,305C 475.667,306.167 476.833,307.333 478,308.5C 495.709,291.792 512.375,274.125 528,255.5C 533.062,250.269 538.229,245.269 543.5,240.5C 545.781,240.077 547.448,240.744 548.5,242.5C 547.859,243.482 547.193,244.482 546.5,245.5C 548.404,246.766 549.737,248.433 550.5,250.5C 551.509,255.283 552.509,259.95 553.5,264.5C 554.726,273.77 555.392,283.103 555.5,292.5C 554.856,304.216 555.522,315.549 557.5,326.5C 558.303,327.423 558.47,328.423 558,329.5C 548.581,338.919 539.081,348.419 529.5,358C 513.35,371.573 497.017,384.906 480.5,398C 479.5,398.667 478.5,398.667 477.5,398C 475.136,396.158 472.803,394.325 470.5,392.5C 469.685,391.163 468.518,390.163 467,389.5C 466.53,388.423 466.697,387.423 467.5,386.5C 468.167,386.5 468.833,386.5 469.5,386.5C 470.482,387.141 471.482,387.807 472.5,388.5C 472.833,388.167 473.167,387.833 473.5,387.5C 471.55,383.032 470.55,378.366 470.5,373.5C 469.277,352.786 468.11,332.119 467,311.5C 448.611,300.052 430.444,288.219 412.5,276C 409.568,275.047 406.568,274.547 403.5,274.5C 403.44,273.957 403.107,273.624 402.5,273.5C 401.505,278.792 401.172,284.125 401.5,289.5C 401.333,303.504 401.5,317.504 402,331.5C 403.417,332.078 404.25,333.078 404.5,334.5C 404.433,336.401 404.767,338.234 405.5,340C 404.402,342.46 403.402,344.96 402.5,347.5C 401.635,348.583 400.635,348.749 399.5,348C 398.295,346.624 396.962,345.458 395.5,344.5C 394.563,342.162 393.23,339.995 391.5,338C 391.667,337.5 391.833,337 392,336.5C 392.718,337.451 393.551,337.617 394.5,337C 391.833,335.333 391.833,333.667 394.5,332C 393.833,331.667 393.167,331.333 392.5,331C 392.762,314.916 392.762,298.749 392.5,282.5C 392.665,279.482 392.498,276.482 392,273.5C 391.184,274.823 390.017,275.489 388.5,275.5C 388.806,272.615 388.473,269.948 387.5,267.5C 387.5,266.5 387.5,265.5 387.5,264.5C 392.46,261.208 396.793,257.208 400.5,252.5C 405.5,248.167 410.167,243.5 414.5,238.5C 420.474,232.861 426.474,227.195 432.5,221.5C 439.038,216.642 444.038,210.642 447.5,203.5C 451.134,200.016 455.134,197.016 459.5,194.5 Z"/></g>
<g><path style="opacity:1" fill="#505050" d="M 467.5,192.5 C 470.669,193.917 473.669,195.583 476.5,197.5C 475.209,197.263 474.209,197.596 473.5,198.5C 470.222,197.191 467.222,195.358 464.5,193C 465.448,192.517 466.448,192.351 467.5,192.5 Z"/></g>
<g><path style="opacity:1" fill="#cbcbcb" d="M 467.5,192.5 C 466.448,192.351 465.448,192.517 464.5,193C 467.222,195.358 470.222,197.191 473.5,198.5C 473.5,198.833 473.5,199.167 473.5,199.5C 473.158,200.338 472.492,200.672 471.5,200.5C 469.118,198.954 466.451,198.287 463.5,198.5C 463.5,197.167 463.5,195.833 463.5,194.5C 462.167,194.5 460.833,194.5 459.5,194.5C 461.403,193.549 463.403,192.549 465.5,191.5C 466.416,191.543 467.083,191.876 467.5,192.5 Z"/></g>
<g><path style="opacity:1" fill="#27503e" d="M 328.5,169.5 C 330.662,186.311 331.328,203.311 330.5,220.5C 329.893,220.376 329.56,220.043 329.5,219.5C 330.165,216.686 330.498,213.686 330.5,210.5C 329.322,196.856 328.656,183.189 328.5,169.5 Z"/></g>
<g><path style="opacity:1" fill="#fcfcfc" d="M 536.5,239.5 C 542.825,239.996 543.159,238.829 537.5,236C 537.728,235.601 538.062,235.435 538.5,235.5C 540.5,236.167 542.5,236.833 544.5,237.5C 544.918,238.222 545.584,238.722 546.5,239C 545.263,239.232 544.263,239.732 543.5,240.5C 538.229,245.269 533.062,250.269 528,255.5C 512.375,274.125 495.709,291.792 478,308.5C 476.833,307.333 475.667,306.167 474.5,305C 465.833,301 457.167,297 448.5,293C 434.274,283.384 419.274,275.051 403.5,268C 401.785,267.223 400.785,265.89 400.5,264C 406.429,257.068 412.763,250.401 419.5,244C 432.133,233.035 444.467,221.702 456.5,210C 459.837,207.329 463.504,205.163 467.5,203.5C 474.821,209.162 482.488,214.329 490.5,219C 504.135,226.337 517.468,234.004 530.5,242C 532.134,242.494 533.801,242.66 535.5,242.5C 535.263,241.209 535.596,240.209 536.5,239.5 Z"/></g>
<g><path style="opacity:1" fill="#4b4b4b" d="M 447.5,203.5 C 444.038,210.642 439.038,216.642 432.5,221.5C 432.586,220.504 432.252,219.671 431.5,219C 436.702,213.63 442.035,208.464 447.5,203.5 Z"/></g>
<g><path style="opacity:1" fill="#6c6c6c" d="M 473.5,199.5 C 484.53,205.011 495.197,211.011 505.5,217.5C 503.784,217.371 502.117,217.038 500.5,216.5C 490.626,211.4 480.96,206.066 471.5,200.5C 472.492,200.672 473.158,200.338 473.5,199.5 Z"/></g>
<g><path style="opacity:1" fill="#0b0c0c" d="M 148.5,223.5 C 157.299,228.94 166.299,233.94 175.5,238.5C 181.634,242.404 187.968,246.071 194.5,249.5C 201.335,253.083 208.001,256.916 214.5,261C 213.748,261.671 213.414,262.504 213.5,263.5C 213.03,264.693 212.03,265.36 210.5,265.5C 187.842,253.842 165.842,241.175 144.5,227.5C 140.034,229.234 136.034,231.734 132.5,235C 114.365,251.467 96.5312,268.301 79,285.5C 77.9581,288.804 79.1247,290.971 82.5,292C 98.2739,299.051 113.274,307.384 127.5,317C 135.05,320.608 142.717,323.942 150.5,327C 152.054,328.892 153.888,330.392 156,331.5C 164.282,324.22 172.282,316.553 180,308.5C 192.762,293.068 206.262,278.235 220.5,264C 222.134,263.506 223.801,263.34 225.5,263.5C 226.338,263.842 226.672,264.508 226.5,265.5C 225.645,266.531 224.978,267.697 224.5,269C 227.08,270.919 228.913,273.419 230,276.5C 230.585,281.511 231.251,286.511 232,291.5C 232.689,311.378 233.856,331.045 235.5,350.5C 232.833,354.167 230.167,357.833 227.5,361.5C 224.536,363.962 221.703,366.629 219,369.5C 217.624,368.295 216.458,366.962 215.5,365.5C 218.167,362.167 221.167,359.167 224.5,356.5C 226.959,355.126 227.959,352.96 227.5,350C 225.402,337.043 223.402,324.209 221.5,311.5C 221.5,303.833 221.5,296.167 221.5,288.5C 221.665,285.15 221.498,281.817 221,278.5C 218.295,281.036 215.795,283.703 213.5,286.5C 211.745,287.072 210.078,287.906 208.5,289C 205.303,293.362 201.637,297.195 197.5,300.5C 190.202,306.131 183.535,312.464 177.5,319.5C 174.833,322.5 172.167,325.5 169.5,328.5C 165.434,331.563 162.101,335.229 159.5,339.5C 158.417,339.539 157.417,339.873 156.5,340.5C 155.502,349.475 155.168,358.475 155.5,367.5C 155.334,374.841 155.5,382.174 156,389.5C 156.186,392.036 156.686,394.369 157.5,396.5C 157.605,400.319 158.438,403.986 160,407.5C 162.319,409.936 164.819,410.103 167.5,408C 174.043,400.955 181.043,394.455 188.5,388.5C 191.323,389.148 192.823,390.814 193,393.5C 180.686,402.818 168.686,412.484 157,422.5C 153.977,420.302 151.144,417.969 148.5,415.5C 144.906,411.703 140.573,409.536 135.5,409C 137.684,411.016 139.684,413.183 141.5,415.5C 140.675,416.386 139.675,416.719 138.5,416.5C 121.678,401 104.012,386.667 85.5,373.5C 85.5852,372.005 84.9185,371.005 83.5,370.5C 80.562,371.575 77.562,371.741 74.5,371C 74.5471,366.68 72.5471,363.847 68.5,362.5C 68.5,362.167 68.5,361.833 68.5,361.5C 68.5,358.5 68.5,355.5 68.5,352.5C 69.4584,352.953 70.2917,353.619 71,354.5C 71.1667,353.167 71.3333,351.833 71.5,350.5C 69.2619,332.713 68.9286,314.879 70.5,297C 70.8261,293.172 69.1594,291.005 65.5,290.5C 65.5,289.5 65.5,288.5 65.5,287.5C 69.7908,284.877 73.4575,281.544 76.5,277.5C 82.1937,272.473 87.5271,267.14 92.5,261.5C 98.4737,255.861 104.474,250.195 110.5,244.5C 116.38,240.3 120.713,234.967 123.5,228.5C 126.974,225.198 130.641,222.032 134.5,219C 136.677,217.798 139.011,217.298 141.5,217.5C 141.5,218.833 141.5,220.167 141.5,221.5C 144.188,221.166 146.521,221.832 148.5,223.5 Z"/></g>
<g><path style="opacity:1" fill="#5a5a5a" d="M 151.5,219.5 C 150.209,219.263 149.209,219.596 148.5,220.5C 146.246,219.585 144.246,218.252 142.5,216.5C 143.167,216.167 143.833,215.833 144.5,215.5C 147.022,216.591 149.355,217.925 151.5,219.5 Z"/></g>
<g><path style="opacity:1" fill="#161616" d="M 148.5,220.5 C 149.209,219.596 150.209,219.263 151.5,219.5C 176.985,232.407 201.985,246.073 226.5,260.5C 226.158,261.338 225.492,261.672 224.5,261.5C 222.297,261.396 220.297,260.73 218.5,259.5C 212.117,256.473 205.783,253.139 199.5,249.5C 193.704,246.434 188.038,243.1 182.5,239.5C 172.006,234.087 161.673,228.421 151.5,222.5C 150.5,221.833 149.5,221.167 148.5,220.5 Z"/></g>
<g><path style="opacity:1" fill="#c6c6c6" d="M 333.5,228.5 C 332.504,228.586 331.671,228.252 331,227.5C 330.536,228.094 330.369,228.761 330.5,229.5C 329.395,228.4 328.062,227.733 326.5,227.5C 323.137,225.179 320.804,222.513 319.5,219.5C 322.629,222.369 326.296,224.203 330.5,225C 331.71,226.039 332.71,227.206 333.5,228.5 Z"/></g>
<g><path style="opacity:1" fill="#4f4f4f" d="M 500.5,216.5 C 502.117,217.038 503.784,217.371 505.5,217.5C 512.924,221.074 520.257,224.907 527.5,229C 528.993,230.156 528.826,230.99 527,231.5C 517.989,226.62 509.156,221.62 500.5,216.5 Z"/></g>
<g><path style="opacity:1" fill="#fcfcfc" d="M 213.5,263.5 C 215.288,263.785 216.955,263.452 218.5,262.5C 218.023,261.522 217.357,260.689 216.5,260C 217.094,259.536 217.761,259.369 218.5,259.5C 220.297,260.73 222.297,261.396 224.5,261.5C 224.833,262.167 225.167,262.833 225.5,263.5C 223.801,263.34 222.134,263.506 220.5,264C 206.262,278.235 192.762,293.068 180,308.5C 172.282,316.553 164.282,324.22 156,331.5C 153.888,330.392 152.054,328.892 150.5,327C 142.717,323.942 135.05,320.608 127.5,317C 113.274,307.384 98.2739,299.051 82.5,292C 79.1247,290.971 77.9581,288.804 79,285.5C 96.5312,268.301 114.365,251.467 132.5,235C 136.034,231.734 140.034,229.234 144.5,227.5C 165.842,241.175 187.842,253.842 210.5,265.5C 212.03,265.36 213.03,264.693 213.5,263.5 Z"/></g>
<g><path style="opacity:1" fill="#505050" d="M 123.5,228.5 C 120.713,234.967 116.38,240.3 110.5,244.5C 109.697,243.577 109.53,242.577 110,241.5C 114.369,236.963 118.869,232.63 123.5,228.5 Z"/></g>
<g><path style="opacity:1" fill="#6f6f6f" d="M 151.5,222.5 C 161.673,228.421 172.006,234.087 182.5,239.5C 182.44,240.043 182.107,240.376 181.5,240.5C 179.677,239.253 177.677,238.586 175.5,238.5C 166.299,233.94 157.299,228.94 148.5,223.5C 149.791,223.737 150.791,223.404 151.5,222.5 Z"/></g>
<g><path style="opacity:1" fill="#7a7a7a" d="M 326.5,227.5 C 328.062,227.733 329.395,228.4 330.5,229.5C 331.234,230.708 331.567,232.041 331.5,233.5C 329.585,233.784 327.919,233.451 326.5,232.5C 327.873,232.657 329.207,232.49 330.5,232C 328.959,230.629 327.625,229.129 326.5,227.5 Z"/></g>
<g><path style="opacity:1" fill="#5a5a5a" d="M 538.5,235.5 C 538.062,235.435 537.728,235.601 537.5,236C 543.159,238.829 542.825,239.996 536.5,239.5C 536.611,238.883 536.944,238.383 537.5,238C 535.295,236.294 532.962,234.794 530.5,233.5C 530.833,232.5 531.5,231.833 532.5,231.5C 534.565,232.857 536.565,234.19 538.5,235.5 Z"/></g>
<g><path style="opacity:1" fill="#696969" d="M 547.5,236.5 C 553.191,238.411 553.524,240.411 548.5,242.5C 547.448,240.744 545.781,240.077 543.5,240.5C 544.263,239.732 545.263,239.232 546.5,239C 545.584,238.722 544.918,238.222 544.5,237.5C 545.791,237.737 546.791,237.404 547.5,236.5 Z"/></g>
<g><path style="opacity:1" fill="#404040" d="M 175.5,238.5 C 177.677,238.586 179.677,239.253 181.5,240.5C 182.107,240.376 182.44,240.043 182.5,239.5C 188.038,243.1 193.704,246.434 199.5,249.5C 197.602,248.904 195.935,248.904 194.5,249.5C 187.968,246.071 181.634,242.404 175.5,238.5 Z"/></g>
<g><path style="opacity:1" fill="#3f3f3f" d="M 414.5,238.5 C 410.167,243.5 405.5,248.167 400.5,252.5C 400.629,250.784 400.962,249.117 401.5,247.5C 405.553,244.117 409.886,241.117 414.5,238.5 Z"/></g>
<g><path style="opacity:1" fill="#71d7a8" d="M 548.5,305.5 C 548.5,313.5 548.5,321.5 548.5,329.5C 545.358,331.58 542.358,333.914 539.5,336.5C 530.344,341.317 522.344,347.65 515.5,355.5C 508.758,361.905 502.758,368.905 497.5,376.5C 494.786,379.215 491.786,381.549 488.5,383.5C 487.791,382.596 486.791,382.263 485.5,382.5C 484.883,382.389 484.383,382.056 484,381.5C 483.636,374.148 483.136,366.815 482.5,359.5C 482.987,349.866 481.987,340.533 479.5,331.5C 477.812,325.633 478.312,319.967 481,314.5C 499.794,292.706 519.627,271.872 540.5,252C 543.956,250.877 546.79,251.71 549,254.5C 548.896,271.492 548.73,288.492 548.5,305.5 Z"/></g>
<g><path style="opacity:1" fill="#787878" d="M 401.5,247.5 C 400.962,249.117 400.629,250.784 400.5,252.5C 396.793,257.208 392.46,261.208 387.5,264.5C 387.337,262.143 387.503,259.81 388,257.5C 392.638,254.364 397.138,251.03 401.5,247.5 Z"/></g>
<g><path style="opacity:1" fill="#626262" d="M 194.5,249.5 C 195.935,248.904 197.602,248.904 199.5,249.5C 205.783,253.139 212.117,256.473 218.5,259.5C 217.761,259.369 217.094,259.536 216.5,260C 217.357,260.689 218.023,261.522 218.5,262.5C 216.955,263.452 215.288,263.785 213.5,263.5C 213.414,262.504 213.748,261.671 214.5,261C 208.001,256.916 201.335,253.083 194.5,249.5 Z"/></g>
<g><path style="opacity:1" fill="#787878" d="M 226.5,260.5 C 228.893,261.353 230.226,263.019 230.5,265.5C 229.167,265.5 227.833,265.5 226.5,265.5C 226.672,264.508 226.338,263.842 225.5,263.5C 225.167,262.833 224.833,262.167 224.5,261.5C 225.492,261.672 226.158,261.338 226.5,260.5 Z"/></g>
<g><path style="opacity:1" fill="#4a4a4a" d="M 550.5,250.5 C 552.956,254.738 553.956,259.404 553.5,264.5C 552.509,259.95 551.509,255.283 550.5,250.5 Z"/></g>
<g><path style="opacity:1" fill="#484848" d="M 92.5,261.5 C 87.5271,267.14 82.1937,272.473 76.5,277.5C 75.4168,277.539 74.4168,277.873 73.5,278.5C 72.7025,278.043 72.3691,277.376 72.5,276.5C 78.5956,270.738 85.2623,265.738 92.5,261.5 Z"/></g>
<g><path style="opacity:1" fill="#418768" d="M 403.5,274.5 C 406.568,274.547 409.568,275.047 412.5,276C 430.444,288.219 448.611,300.052 467,311.5C 468.11,332.119 469.277,352.786 470.5,373.5C 469.515,377.634 469.182,381.968 469.5,386.5C 468.833,386.5 468.167,386.5 467.5,386.5C 464.833,386.5 462.167,386.5 459.5,386.5C 451.342,378.842 443.342,371.008 435.5,363C 430.94,358.931 426.274,355.098 421.5,351.5C 421.277,348.537 420.944,345.537 420.5,342.5C 418.833,341.167 417.167,339.833 415.5,338.5C 414.468,340.04 413.135,340.54 411.5,340C 408.961,338.279 406.628,336.446 404.5,334.5C 404.25,333.078 403.417,332.078 402,331.5C 401.5,317.504 401.333,303.504 401.5,289.5C 402.327,284.654 402.994,279.654 403.5,274.5 Z"/></g>
<g><path style="opacity:1" fill="#7c7c7c" d="M 72.5,276.5 C 72.3691,277.376 72.7025,278.043 73.5,278.5C 74.4168,277.873 75.4168,277.539 76.5,277.5C 73.4575,281.544 69.7908,284.877 65.5,287.5C 65.3367,285.143 65.5034,282.81 66,280.5C 68.5607,279.766 70.7274,278.433 72.5,276.5 Z"/></g>
<g><path style="opacity:1" fill="#bdcec8" d="M 403.5,274.5 C 402.994,279.654 402.327,284.654 401.5,289.5C 401.172,284.125 401.505,278.792 402.5,273.5C 403.107,273.624 403.44,273.957 403.5,274.5 Z"/></g>
<g><path style="opacity:1" fill="#e9edec" d="M 221.5,288.5 C 219.087,286.949 216.421,286.283 213.5,286.5C 215.795,283.703 218.295,281.036 221,278.5C 221.498,281.817 221.665,285.15 221.5,288.5 Z"/></g>
<g><path style="opacity:1" fill="#3d3d3d" d="M 392.5,282.5 C 391.06,292.633 390.393,302.966 390.5,313.5C 390.167,313.5 389.833,313.5 389.5,313.5C 389.5,311.167 389.5,308.833 389.5,306.5C 389.733,296.135 389.4,285.802 388.5,275.5C 390.017,275.489 391.184,274.823 392,273.5C 392.498,276.482 392.665,279.482 392.5,282.5 Z"/></g>
<g><path style="opacity:1" fill="#72d7a8" d="M 213.5,286.5 C 216.421,286.283 219.087,286.949 221.5,288.5C 221.5,296.167 221.5,303.833 221.5,311.5C 222.227,326.52 223.227,341.52 224.5,356.5C 221.167,359.167 218.167,362.167 215.5,365.5C 213.852,366.81 212.186,368.143 210.5,369.5C 204.545,366.035 199.212,361.869 194.5,357C 193.167,356.333 191.833,356.333 190.5,357C 190.833,357.333 191.167,357.667 191.5,358C 188.541,361.798 184.874,364.631 180.5,366.5C 185.802,371.481 191.469,375.981 197.5,380C 194.604,383.066 191.604,385.899 188.5,388.5C 181.043,394.455 174.043,400.955 167.5,408C 164.819,410.103 162.319,409.936 160,407.5C 158.438,403.986 157.605,400.319 157.5,396.5C 157.083,386.665 156.416,376.999 155.5,367.5C 155.168,358.475 155.502,349.475 156.5,340.5C 157.417,339.873 158.417,339.539 159.5,339.5C 161.017,339.489 162.184,338.823 163,337.5C 165.41,334.603 167.577,331.603 169.5,328.5C 172.167,325.5 174.833,322.5 177.5,319.5C 182.941,315.234 188.274,310.734 193.5,306C 195.464,304.549 196.797,302.716 197.5,300.5C 201.637,297.195 205.303,293.362 208.5,289C 210.078,287.906 211.745,287.072 213.5,286.5 Z"/></g>
<g><path style="opacity:1" fill="#a5a5a5" d="M 387.5,267.5 C 388.473,269.948 388.806,272.615 388.5,275.5C 389.4,285.802 389.733,296.135 389.5,306.5C 388.903,295.924 387.903,285.258 386.5,274.5C 387.374,272.253 387.708,269.92 387.5,267.5 Z"/></g>
<g><path style="opacity:1" fill="#d6e1dd" d="M 83.5,298.5 C 82.8333,299.167 82.1667,299.833 81.5,300.5C 80.8333,300.5 80.1667,300.5 79.5,300.5C 79.5,299.5 79.5,298.5 79.5,297.5C 80.9587,297.433 82.2921,297.766 83.5,298.5 Z"/></g>
<g><path style="opacity:1" fill="#428969" d="M 83.5,298.5 C 101.886,310.361 120.886,321.194 140.5,331C 142.333,332.833 144.167,334.667 146,336.5C 144.568,348.071 144.235,359.738 145,371.5C 146.354,384.354 148.354,397.021 151,409.5C 150.667,410.167 150.333,410.833 150,411.5C 146.911,410.949 144.078,409.783 141.5,408C 135.605,401.936 129.605,396.103 123.5,390.5C 118.651,385.489 113.317,380.989 107.5,377C 102.938,374.22 98.2717,371.72 93.5,369.5C 89.1233,368.605 85.7899,366.272 83.5,362.5C 84.6822,358.423 84.3489,354.423 82.5,350.5C 82.0239,333.837 81.6906,317.17 81.5,300.5C 82.1667,299.833 82.8333,299.167 83.5,298.5 Z"/></g>
<g><path style="opacity:1" fill="#a6c4b7" d="M 197.5,300.5 C 196.797,302.716 195.464,304.549 193.5,306C 188.274,310.734 182.941,315.234 177.5,319.5C 183.535,312.464 190.202,306.131 197.5,300.5 Z"/></g>
<g><path style="opacity:1" fill="#aaaaaa" d="M 555.5,292.5 C 556.187,303.735 556.853,315.068 557.5,326.5C 555.522,315.549 554.856,304.216 555.5,292.5 Z"/></g>
<g><path style="opacity:1" fill="#919191" d="M 389.5,313.5 C 389.833,313.5 390.167,313.5 390.5,313.5C 390.827,318.544 390.494,323.544 389.5,328.5C 388.893,328.376 388.56,328.043 388.5,327.5C 389.486,323.03 389.819,318.363 389.5,313.5 Z"/></g>
<g><path style="opacity:1" fill="#54a27e" d="M 548.5,305.5 C 549.926,312.972 550.426,320.639 550,328.5C 549.617,329.056 549.117,329.389 548.5,329.5C 548.5,321.5 548.5,313.5 548.5,305.5 Z"/></g>
<g><path style="opacity:1" fill="#313131" d="M 65.5,290.5 C 69.1594,291.005 70.8261,293.172 70.5,297C 68.9286,314.879 69.2619,332.713 71.5,350.5C 71.3333,351.833 71.1667,353.167 71,354.5C 70.2917,353.619 69.4584,352.953 68.5,352.5C 68.5,352.167 68.5,351.833 68.5,351.5C 67.9686,335.673 67.3019,320.007 66.5,304.5C 66.8399,301.856 66.1733,299.523 64.5,297.5C 65.3742,295.253 65.7076,292.92 65.5,290.5 Z"/></g>
<g><path style="opacity:1" fill="#679381" d="M 79.5,300.5 C 80.1667,300.5 80.8333,300.5 81.5,300.5C 81.6906,317.17 82.0239,333.837 82.5,350.5C 82.5,351.5 82.5,352.5 82.5,353.5C 80.923,336.019 79.923,318.352 79.5,300.5 Z"/></g>
<g><path style="opacity:1" fill="#272727" d="M 392.5,282.5 C 392.762,298.749 392.762,314.916 392.5,331C 393.167,331.333 393.833,331.667 394.5,332C 391.833,333.667 391.833,335.333 394.5,337C 393.551,337.617 392.718,337.451 392,336.5C 391.833,337 391.667,337.5 391.5,338C 393.23,339.995 394.563,342.162 395.5,344.5C 393.086,343.089 391.419,341.089 390.5,338.5C 390.795,336.265 390.461,334.265 389.5,332.5C 387.403,331.121 387.07,329.455 388.5,327.5C 388.56,328.043 388.893,328.376 389.5,328.5C 390.494,323.544 390.827,318.544 390.5,313.5C 390.393,302.966 391.06,292.633 392.5,282.5 Z"/></g>
<g><path style="opacity:1" fill="#808080" d="M 389.5,332.5 C 390.461,334.265 390.795,336.265 390.5,338.5C 387.158,336.846 386.825,334.846 389.5,332.5 Z"/></g>
<g><path style="opacity:1" fill="#accbbe" d="M 169.5,328.5 C 167.577,331.603 165.41,334.603 163,337.5C 162.184,338.823 161.017,339.489 159.5,339.5C 162.101,335.229 165.434,331.563 169.5,328.5 Z"/></g>
<g><path style="opacity:1" fill="#b5b5b5" d="M 66.5,304.5 C 67.3019,320.007 67.9686,335.673 68.5,351.5C 67.5084,351.672 66.8417,351.338 66.5,350.5C 66.5415,335.414 66.5415,320.08 66.5,304.5 Z"/></g>
<g><path style="opacity:1" fill="#5fb68e" d="M 221.5,311.5 C 223.402,324.209 225.402,337.043 227.5,350C 227.959,352.96 226.959,355.126 224.5,356.5C 223.227,341.52 222.227,326.52 221.5,311.5 Z"/></g>
<g><path style="opacity:1" fill="#487e68" d="M 417.5,347.5 C 417.5,345.5 416.5,344.5 414.5,344.5C 414.696,342.354 415.696,342.188 417.5,344C 420.07,345.349 420.07,346.516 417.5,347.5 Z"/></g>
<g><path style="opacity:1" fill="#eaf1ee" d="M 539.5,336.5 C 532.5,344.167 525.167,351.5 517.5,358.5C 516.226,357.811 516.226,356.977 517.5,356C 516.906,355.536 516.239,355.369 515.5,355.5C 522.344,347.65 530.344,341.317 539.5,336.5 Z"/></g>
<g><path style="opacity:1" fill="#111111" d="M 414.5,344.5 C 416.5,344.5 417.5,345.5 417.5,347.5C 400.488,369.502 382.988,391.169 365,412.5C 362.619,413.435 360.119,413.768 357.5,413.5C 357.343,412.127 357.51,410.793 358,409.5C 376.379,387.388 395.212,365.721 414.5,344.5 Z"/></g>
<g><path style="opacity:1" fill="#646464" d="M 66.5,350.5 C 66.8417,351.338 67.5084,351.672 68.5,351.5C 68.5,351.833 68.5,352.167 68.5,352.5C 68.5,355.5 68.5,358.5 68.5,361.5C 65.3566,359.758 62.3566,357.758 59.5,355.5C 62.2095,354.738 64.7095,355.405 67,357.5C 67.1667,357.167 67.3333,356.833 67.5,356.5C 63.1667,352.5 58.8333,348.5 54.5,344.5C 55.723,343.386 57.0563,343.219 58.5,344C 60.7512,346.758 63.4179,348.925 66.5,350.5 Z"/></g>
<g><path style="opacity:1" fill="#a5d9c2" d="M 479.5,331.5 C 481.987,340.533 482.987,349.866 482.5,359.5C 480.637,350.399 479.637,341.066 479.5,331.5 Z"/></g>
<g><path style="opacity:1" fill="#141615" d="M 421.5,351.5 C 426.274,355.098 430.94,358.931 435.5,363C 443.342,371.008 451.342,378.842 459.5,386.5C 459.953,387.458 460.619,388.292 461.5,389C 461.272,389.399 460.938,389.565 460.5,389.5C 445.608,380.26 431.941,369.593 419.5,357.5C 419.977,355.403 420.643,353.403 421.5,351.5 Z"/></g>
<g><path style="opacity:1" fill="#dae6e2" d="M 82.5,350.5 C 84.3489,354.423 84.6822,358.423 83.5,362.5C 82.5233,359.713 82.19,356.713 82.5,353.5C 82.5,352.5 82.5,351.5 82.5,350.5 Z"/></g>
<g><path style="opacity:1" fill="#858585" d="M 235.5,350.5 C 236.573,351.251 236.74,352.251 236,353.5C 233.297,356.371 230.464,359.038 227.5,361.5C 230.167,357.833 232.833,354.167 235.5,350.5 Z"/></g>
<g><path style="opacity:1" fill="#080f0c" d="M 189.5,363.5 C 192.714,364.44 195.714,365.94 198.5,368C 199.727,369.587 199.394,370.921 197.5,372C 192.5,372.515 189.167,370.348 187.5,365.5C 187.833,364.5 188.5,363.833 189.5,363.5 Z"/></g>
<g><path style="opacity:1" fill="#595959" d="M 68.5,362.5 C 72.5471,363.847 74.5471,366.68 74.5,371C 77.562,371.741 80.562,371.575 83.5,370.5C 84.9185,371.005 85.5852,372.005 85.5,373.5C 80.5488,372.772 75.5488,372.272 70.5,372C 69.3899,368.951 68.7233,365.784 68.5,362.5 Z"/></g>
<g><path style="opacity:1" fill="#71cba1" d="M 206.5,373.5 C 204.091,374.701 202.091,376.367 200.5,378.5C 194.83,374.993 189.497,370.993 184.5,366.5C 185.325,365.614 186.325,365.281 187.5,365.5C 189.167,370.348 192.5,372.515 197.5,372C 199.394,370.921 199.727,369.587 198.5,368C 195.714,365.94 192.714,364.44 189.5,363.5C 189.962,362.12 190.962,361.453 192.5,361.5C 198.755,363.763 203.422,367.763 206.5,373.5 Z"/></g>
<g><path style="opacity:1" fill="#bdc6c2" d="M 515.5,355.5 C 516.239,355.369 516.906,355.536 517.5,356C 516.226,356.977 516.226,357.811 517.5,358.5C 511.157,364.842 504.491,370.842 497.5,376.5C 502.758,368.905 508.758,361.905 515.5,355.5 Z"/></g>
<g><path style="opacity:1" fill="#afbeb9" d="M 93.5,369.5 C 98.2717,371.72 102.938,374.22 107.5,377C 113.317,380.989 118.651,385.489 123.5,390.5C 113.142,383.99 103.142,376.99 93.5,369.5 Z"/></g>
<g><path style="opacity:1" fill="#0f0f0f" d="M 206.5,373.5 C 219.493,382.336 232.16,391.669 244.5,401.5C 245.386,402.325 245.719,403.325 245.5,404.5C 243.143,404.663 240.81,404.497 238.5,404C 225.632,395.738 212.966,387.238 200.5,378.5C 202.091,376.367 204.091,374.701 206.5,373.5 Z"/></g>
<g><path style="opacity:1" fill="#1b3529" d="M 155.5,367.5 C 156.416,376.999 157.083,386.665 157.5,396.5C 156.686,394.369 156.186,392.036 156,389.5C 155.5,382.174 155.334,374.841 155.5,367.5 Z"/></g>
<g><path style="opacity:1" fill="#c3cbc8" d="M 470.5,373.5 C 470.55,378.366 471.55,383.032 473.5,387.5C 473.167,387.833 472.833,388.167 472.5,388.5C 471.482,387.807 470.482,387.141 469.5,386.5C 469.182,381.968 469.515,377.634 470.5,373.5 Z"/></g>
<g><path style="opacity:1" fill="#c5ceca" d="M 485.5,382.5 C 486.791,382.263 487.791,382.596 488.5,383.5C 486.694,386.338 485.694,386.005 485.5,382.5 Z"/></g>
<g><path style="opacity:1" fill="#5b5b5b" d="M 294.5,388.5 C 292.302,388.409 291.969,389.075 293.5,390.5C 290.004,389.252 287.004,387.252 284.5,384.5C 285.365,383.417 286.365,383.251 287.5,384C 289.898,385.524 292.231,387.024 294.5,388.5 Z"/></g>
<g><path style="opacity:1" fill="#0d0e0e" d="M 291.5,392.5 C 298.703,396.684 306.036,400.684 313.5,404.5C 326.641,412.24 339.974,419.74 353.5,427C 355.037,428.11 355.703,429.61 355.5,431.5C 355.5,432.5 355.5,433.5 355.5,434.5C 331.947,423.334 309.281,410.334 287.5,395.5C 284.221,396.473 281.221,397.973 278.5,400C 260.333,416.833 242.167,433.667 224,450.5C 222.596,452.394 221.43,454.394 220.5,456.5C 221.707,458.449 223.373,459.949 225.5,461C 241.908,468.369 257.574,477.036 272.5,487C 279.466,489.992 286.466,492.992 293.5,496C 295,497.5 296.5,499 298,500.5C 317.375,482.392 335.375,463.059 352,442.5C 356.001,439.665 359.501,436.332 362.5,432.5C 365.082,432.025 367.082,432.692 368.5,434.5C 367.859,435.482 367.193,436.482 366.5,437.5C 369.694,439.223 371.361,441.889 371.5,445.5C 371.41,448.152 372.076,450.485 373.5,452.5C 374.524,463.141 375.19,473.808 375.5,484.5C 374.856,496.216 375.522,507.549 377.5,518.5C 378.573,519.251 378.74,520.251 378,521.5C 353.507,546.663 327.174,569.663 299,590.5C 295.914,588.702 293.081,586.536 290.5,584C 288.444,583.689 286.444,583.189 284.5,582.5C 283.914,582.709 283.414,583.043 283,583.5C 264.566,570.366 246.399,556.866 228.5,543C 225.861,541.054 222.861,540.054 219.5,540C 216.948,537.147 214.115,534.647 211,532.5C 210.517,531.552 210.351,530.552 210.5,529.5C 210.5,527.833 210.5,526.167 210.5,524.5C 210.354,522.058 211.187,521.391 213,522.5C 212.622,505.19 212.455,487.856 212.5,470.5C 212.66,468.801 212.494,467.134 212,465.5C 210.989,466.337 209.822,466.67 208.5,466.5C 208.806,463.615 208.473,460.948 207.5,458.5C 207.5,457.833 207.5,457.167 207.5,456.5C 211.192,453.138 214.859,449.805 218.5,446.5C 224.167,440.167 230.167,434.167 236.5,428.5C 242.14,423.527 247.473,418.194 252.5,412.5C 256.5,410.5 259.5,407.5 261.5,403.5C 265.566,400.437 268.899,396.771 271.5,392.5C 274.39,388.276 278.39,386.276 283.5,386.5C 283.5,387.833 283.5,389.167 283.5,390.5C 286.421,390.283 289.087,390.949 291.5,392.5 Z"/></g>
<g><path style="opacity:1" fill="#474d4a" d="M 459.5,386.5 C 462.167,386.5 464.833,386.5 467.5,386.5C 466.697,387.423 466.53,388.423 467,389.5C 468.518,390.163 469.685,391.163 470.5,392.5C 468.173,392.753 466.173,392.086 464.5,390.5C 462.969,391.421 461.635,391.088 460.5,389.5C 460.938,389.565 461.272,389.399 461.5,389C 460.619,388.292 459.953,387.458 459.5,386.5 Z"/></g>
<g><path style="opacity:1" fill="#121212" d="M 294.5,388.5 C 318.094,400.631 341.428,413.298 364.5,426.5C 364.5,427.833 363.833,428.5 362.5,428.5C 362.167,428.5 361.833,428.5 361.5,428.5C 347.944,421.719 334.611,414.386 321.5,406.5C 311.909,401.567 302.576,396.233 293.5,390.5C 291.969,389.075 292.302,388.409 294.5,388.5 Z"/></g>
<g><path style="opacity:1" fill="#fcfcfc" d="M 355.5,431.5 C 357.288,431.785 358.955,431.452 360.5,430.5C 359.019,429.056 359.352,428.389 361.5,428.5C 361.833,428.5 362.167,428.5 362.5,428.5C 363.6,429.558 364.934,430.392 366.5,431C 364.942,431.21 363.609,431.71 362.5,432.5C 359.501,436.332 356.001,439.665 352,442.5C 335.375,463.059 317.375,482.392 298,500.5C 296.5,499 295,497.5 293.5,496C 286.466,492.992 279.466,489.992 272.5,487C 257.574,477.036 241.908,468.369 225.5,461C 223.373,459.949 221.707,458.449 220.5,456.5C 221.43,454.394 222.596,452.394 224,450.5C 242.167,433.667 260.333,416.833 278.5,400C 281.221,397.973 284.221,396.473 287.5,395.5C 309.281,410.334 331.947,423.334 355.5,434.5C 355.5,433.5 355.5,432.5 355.5,431.5 Z"/></g>
<g><path style="opacity:1" fill="#333333" d="M 271.5,392.5 C 268.899,396.771 265.566,400.437 261.5,403.5C 261.557,402.391 261.89,401.391 262.5,400.5C 264.9,397.097 267.9,394.43 271.5,392.5 Z"/></g>
<g><path style="opacity:1" fill="#767676" d="M 293.5,390.5 C 302.576,396.233 311.909,401.567 321.5,406.5C 321.44,407.043 321.107,407.376 320.5,407.5C 318.261,406.212 315.928,405.212 313.5,404.5C 306.036,400.684 298.703,396.684 291.5,392.5C 292.833,392.5 293.5,391.833 293.5,390.5 Z"/></g>
<g><path style="opacity:1" fill="#5e5e5e" d="M 262.5,400.5 C 261.89,401.391 261.557,402.391 261.5,403.5C 259.5,407.5 256.5,410.5 252.5,412.5C 251.697,411.577 251.53,410.577 252,409.5C 255.098,405.893 258.598,402.893 262.5,400.5 Z"/></g>
<g><path style="opacity:1" fill="#4f4f4f" d="M 313.5,404.5 C 315.928,405.212 318.261,406.212 320.5,407.5C 321.107,407.376 321.44,407.043 321.5,406.5C 334.611,414.386 347.944,421.719 361.5,428.5C 359.352,428.389 359.019,429.056 360.5,430.5C 358.955,431.452 357.288,431.785 355.5,431.5C 355.703,429.61 355.037,428.11 353.5,427C 339.974,419.74 326.641,412.24 313.5,404.5 Z"/></g>
<g><path style="opacity:1" fill="#2d2d2d" d="M 148.5,415.5 C 141.078,413.834 140.745,415.168 147.5,419.5C 147.511,421.017 148.177,422.184 149.5,423C 148.207,423.49 146.873,423.657 145.5,423.5C 142.833,421.5 140.5,419.167 138.5,416.5C 139.675,416.719 140.675,416.386 141.5,415.5C 139.684,413.183 137.684,411.016 135.5,409C 140.573,409.536 144.906,411.703 148.5,415.5 Z"/></g>
<g><path style="opacity:1" fill="#646464" d="M 147.5,419.5 C 149.145,420.479 150.479,421.812 151.5,423.5C 149.462,426.152 147.462,426.152 145.5,423.5C 146.873,423.657 148.207,423.49 149.5,423C 148.177,422.184 147.511,421.017 147.5,419.5 Z"/></g>
<g><path style="opacity:1" fill="#616161" d="M 364.5,426.5 C 367.533,428.016 370.2,430.016 372.5,432.5C 371.234,433.362 369.901,434.029 368.5,434.5C 367.082,432.692 365.082,432.025 362.5,432.5C 363.609,431.71 364.942,431.21 366.5,431C 364.934,430.392 363.6,429.558 362.5,428.5C 363.833,428.5 364.5,427.833 364.5,426.5 Z"/></g>
<g><path style="opacity:1" fill="#464646" d="M 236.5,428.5 C 230.167,434.167 224.167,440.167 218.5,446.5C 217.777,444.836 218.11,443.169 219.5,441.5C 224.618,436.442 230.285,432.109 236.5,428.5 Z"/></g>
<g><path style="opacity:1" fill="#727272" d="M 219.5,441.5 C 218.11,443.169 217.777,444.836 218.5,446.5C 214.859,449.805 211.192,453.138 207.5,456.5C 207.5,453.833 207.5,451.167 207.5,448.5C 208.552,448.649 209.552,448.483 210.5,448C 213.397,445.59 216.397,443.423 219.5,441.5 Z"/></g>
<g><path style="opacity:1" fill="#71d7a8" d="M 344.5,543.5 C 335.258,548.74 327.591,555.74 321.5,564.5C 316.817,569.345 311.65,573.678 306,577.5C 305.517,576.552 305.351,575.552 305.5,574.5C 304.5,574.5 303.5,574.5 302.5,574.5C 301.576,564.539 301.242,554.539 301.5,544.5C 301.666,534.494 301.5,524.494 301,514.5C 300.802,512.618 300.302,510.952 299.5,509.5C 299.5,508.167 299.5,506.833 299.5,505.5C 301.415,505.784 303.081,505.451 304.5,504.5C 304.833,503.5 305.5,502.833 306.5,502.5C 317.5,492.167 328.167,481.5 338.5,470.5C 345.001,462.495 351.334,454.328 357.5,446C 359.81,445.503 362.143,445.337 364.5,445.5C 364.126,450.491 363.792,455.491 363.5,460.5C 365.006,480.587 366.839,500.587 369,520.5C 365.182,525.285 361.015,529.785 356.5,534C 352.05,536.619 348.05,539.786 344.5,543.5 Z"/></g>
<g><path style="opacity:1" fill="#818181" d="M 371.5,445.5 C 372.924,447.515 373.59,449.848 373.5,452.5C 372.076,450.485 371.41,448.152 371.5,445.5 Z"/></g>
<g><path style="opacity:1" fill="#418868" d="M 272.5,495.5 C 276.819,498.996 281.485,501.996 286.5,504.5C 288.044,504.703 289.378,505.37 290.5,506.5C 291.415,510.815 292.248,515.148 293,519.5C 293.333,534.167 293.667,548.833 294,563.5C 294.458,567.416 295.292,571.25 296.5,575C 295.968,577.02 294.635,577.853 292.5,577.5C 287.055,572.228 281.388,567.061 275.5,562C 264.502,554.499 253.168,547.499 241.5,541C 235.448,537.312 229.782,533.146 224.5,528.5C 221.006,524.19 219.672,519.19 220.5,513.5C 220.921,501.948 220.254,490.615 218.5,479.5C 218.167,474.833 217.833,470.167 217.5,465.5C 218.93,465.579 220.264,465.246 221.5,464.5C 232.889,470.038 243.555,476.872 253.5,485C 259.927,488.542 266.261,492.042 272.5,495.5 Z"/></g>
<g><path style="opacity:1" fill="#4d4d4d" d="M 207.5,458.5 C 208.473,460.948 208.806,463.615 208.5,466.5C 209.822,466.67 210.989,466.337 212,465.5C 212.494,467.134 212.66,468.801 212.5,470.5C 211.294,480.647 210.628,490.98 210.5,501.5C 210.167,501.5 209.833,501.5 209.5,501.5C 208.756,490.192 208.256,478.858 208,467.5C 207.308,466.975 206.808,466.308 206.5,465.5C 207.374,463.253 207.708,460.92 207.5,458.5 Z"/></g>
<g><path style="opacity:1" fill="#9dbfb1" d="M 338.5,470.5 C 328.167,481.5 317.5,492.167 306.5,502.5C 315.909,491.587 325.909,481.087 336.5,471C 337.094,470.536 337.761,470.369 338.5,470.5 Z"/></g>
<g><path style="opacity:1" fill="#252525" d="M 212.5,470.5 C 212.455,487.856 212.622,505.19 213,522.5C 211.187,521.391 210.354,522.058 210.5,524.5C 209.609,523.89 208.609,523.557 207.5,523.5C 207.232,521.901 207.566,520.568 208.5,519.5C 208.56,520.043 208.893,520.376 209.5,520.5C 210.496,514.202 210.83,507.868 210.5,501.5C 210.628,490.98 211.294,480.647 212.5,470.5 Z"/></g>
<g><path style="opacity:1" fill="#163327" d="M 218.5,479.5 C 220.254,490.615 220.921,501.948 220.5,513.5C 219.56,502.336 218.893,491.003 218.5,479.5 Z"/></g>
<g><path style="opacity:1" fill="#c3cdca" d="M 272.5,495.5 C 278.502,496.497 283.169,499.497 286.5,504.5C 281.485,501.996 276.819,498.996 272.5,495.5 Z"/></g>
<g><path style="opacity:1" fill="#427c62" d="M 304.5,504.5 C 303.081,505.451 301.415,505.784 299.5,505.5C 299.5,506.833 299.5,508.167 299.5,509.5C 299.167,509.5 298.833,509.5 298.5,509.5C 298.5,507.5 298.5,505.5 298.5,503.5C 300.565,503.517 302.565,503.85 304.5,504.5 Z"/></g>
<g><path style="opacity:1" fill="#b9b9b9" d="M 375.5,484.5 C 376.187,495.735 376.853,507.068 377.5,518.5C 375.522,507.549 374.856,496.216 375.5,484.5 Z"/></g>
<g><path style="opacity:1" fill="#808080" d="M 209.5,501.5 C 209.833,501.5 210.167,501.5 210.5,501.5C 210.83,507.868 210.496,514.202 209.5,520.5C 208.893,520.376 208.56,520.043 208.5,519.5C 209.49,513.69 209.823,507.69 209.5,501.5 Z"/></g>
<g><path style="opacity:1" fill="#979797" d="M 207.5,523.5 C 208.609,523.557 209.609,523.89 210.5,524.5C 210.5,526.167 210.5,527.833 210.5,529.5C 208.031,528.393 207.031,526.393 207.5,523.5 Z"/></g>
<g><path style="opacity:1" fill="#cfebe0" d="M 298.5,509.5 C 298.833,509.5 299.167,509.5 299.5,509.5C 300.302,510.952 300.802,512.618 301,514.5C 301.5,524.494 301.666,534.494 301.5,544.5C 299.979,533.024 298.979,521.357 298.5,509.5 Z"/></g>
<g><path style="opacity:1" fill="#d2ddd8" d="M 344.5,543.5 C 337.159,550.841 329.492,557.841 321.5,564.5C 327.591,555.74 335.258,548.74 344.5,543.5 Z"/></g>
<g><path style="opacity:1" fill="#d9dfdd" d="M 224.5,528.5 C 229.782,533.146 235.448,537.312 241.5,541C 253.168,547.499 264.502,554.499 275.5,562C 281.388,567.061 287.055,572.228 292.5,577.5C 292.483,579.028 291.816,579.528 290.5,579C 271.72,563.444 252.053,549.111 231.5,536C 228.572,533.91 226.239,531.41 224.5,528.5 Z"/></g>
</svg>
