<svg width="4645" height="2175" viewBox="0 0 4645 2175" fill="none" xmlns="http://www.w3.org/2000/svg">
<path d="M145 1592C145 1592 260.506 1486.41 297.773 1388.7C343.859 1267.87 321.616 1292.99 381.484 1179.23C416.262 1113.14 513 1047 513 1047" stroke="#15766A" stroke-width="204.383" stroke-linecap="round"/>
<path d="M1106.62 1047.01C1106.62 1047.01 1497.5 1125.19 1701.61 1266.02C1954.03 1440.17 1872.9 1416.42 2147.86 1564.18C2307.58 1650.02 2607.62 1675.01 2607.62 1675.01" stroke="#15766A" stroke-width="204.383" stroke-linecap="round"/>
<path d="M3616.06 1509.48C3616.06 1509.48 3219.12 1472.88 3001.32 1354.32C2731.97 1207.71 2815.15 1222.78 2526.17 1104.78C2358.29 1036.23 2057.29 1042.97 2057.29 1042.97" stroke="#15766A" stroke-width="204.383" stroke-linecap="round"/>
<path d="M1436.62 1047.01C1436.62 1047.01 1609.27 1009.04 1699.43 940.642C1810.93 856.062 1775.09 867.596 1896.54 795.831C1967.1 754.141 2099.62 742.007 2099.62 742.007" stroke="#15766A" stroke-width="204.383" stroke-linecap="round"/>
<path d="M2747.62 1190C2747.62 1190 3103.34 1134.23 3289.1 1033.76C3518.82 909.529 3444.98 926.47 3695.21 821.058C3840.57 759.823 4113.62 742 4113.62 742" stroke="#15766A" stroke-width="204.383" stroke-linecap="round"/>
<path d="M612.735 944.809L510.544 945.076L511.078 1149.46L613.269 1149.19L612.735 944.809ZM2099.87 1145.31C2156.31 1145.16 2201.94 1099.29 2201.8 1042.85C2201.65 986.41 2155.78 940.777 2099.34 940.924L2099.87 1145.31ZM613.269 1149.19L2099.87 1145.31L2099.34 940.924L612.735 944.809L613.269 1149.19Z" fill="#15766A"/>
<circle cx="3064.55" cy="1959.55" r="214.548" fill="#51DF9B"/>
<circle cx="3615.72" cy="259.716" r="259.716" fill="#0DBC93"/>
<path d="M3874.59 1891.8C3874.59 1972.87 3808.87 2038.59 3727.8 2038.59C3646.72 2038.59 3581 1972.87 3581 1891.8C3581 1810.72 3646.72 1745 3727.8 1745C3808.87 1745 3874.59 1810.72 3874.59 1891.8Z" fill="#51DF9B"/>
<circle cx="2747.69" cy="577.689" r="317.689" fill="#51DF9B"/>
<circle cx="4259.57" cy="1282.57" r="384.571" fill="#0DBC93"/>
</svg>
