<svg width="5102" height="2175" viewBox="0 0 5102 2175" fill="none" xmlns="http://www.w3.org/2000/svg">
<path d="M103 411.599C103 411.599 271.178 459.634 433.497 622.294C634.229 823.447 593.718 803.132 781.131 964.55C890.002 1058.32 993 1047 993 1047" stroke="#15766A" stroke-width="204.383" stroke-linecap="round"/>
<path d="M1563.62 1047.01C1563.62 1047.01 1954.5 1125.19 2158.61 1266.02C2411.03 1440.17 2329.9 1416.42 2604.86 1564.18C2764.58 1650.02 3064.62 1675.01 3064.62 1675.01" stroke="#15766A" stroke-width="204.383" stroke-linecap="round"/>
<path d="M4073.06 1509.48C4073.06 1509.48 3676.12 1472.88 3458.32 1354.32C3188.97 1207.71 3272.15 1222.78 2983.17 1104.78C2815.29 1036.23 2514.29 1042.97 2514.29 1042.97" stroke="#15766A" stroke-width="204.383" stroke-linecap="round"/>
<path d="M1893.62 1047.01C1893.62 1047.01 2066.27 1009.04 2156.43 940.642C2267.93 856.062 2232.09 867.596 2353.54 795.831C2424.09 754.141 2556.62 742.007 2556.62 742.007" stroke="#15766A" stroke-width="204.383" stroke-linecap="round"/>
<path d="M3204.62 1190C3204.62 1190 3560.34 1134.23 3746.1 1033.76C3975.82 909.529 3901.98 926.47 4152.21 821.058C4297.57 759.823 4570.62 742 4570.62 742" stroke="#15766A" stroke-width="204.383" stroke-linecap="round"/>
<path d="M1069.73 944.809L967.543 945.076L968.077 1149.46L1070.27 1149.19L1069.73 944.809ZM2556.87 1145.31C2613.31 1145.16 2658.94 1099.29 2658.8 1042.85C2658.65 986.41 2612.78 940.777 2556.34 940.924L2556.87 1145.31ZM1070.27 1149.19L2556.87 1145.31L2556.34 940.924L1069.73 944.809L1070.27 1149.19Z" fill="#15766A"/>
<circle cx="3521.55" cy="1959.55" r="214.548" fill="#51DF9B"/>
<circle cx="4072.72" cy="259.716" r="259.716" fill="#0DBC93"/>
<path d="M4331.59 1891.8C4331.59 1972.87 4265.87 2038.59 4184.8 2038.59C4103.72 2038.59 4038 1972.87 4038 1891.8C4038 1810.72 4103.72 1745 4184.8 1745C4265.87 1745 4331.59 1810.72 4331.59 1891.8Z" fill="#51DF9B"/>
<circle cx="3204.69" cy="577.689" r="317.689" fill="#51DF9B"/>
<circle cx="4716.57" cy="1282.57" r="384.571" fill="#0DBC93"/>
</svg>
