<svg width="435" height="472" viewBox="0 0 435 472" fill="none" xmlns="http://www.w3.org/2000/svg">
<g filter="url(#filter0_d_230_14440)">
<path d="M80.6229 20.215C74.4954 32.2975 80.6229 54.9055 80.6229 54.9055C80.6229 54.9055 65.8563 58.5812 55.7044 65.6547C39.2176 77.142 29.8086 110.117 29.8086 110.117C29.8086 110.117 17.894 114.214 13.6848 120.378C7.65868 129.202 10.0253 137.7 13.6848 147.739C15.4362 152.544 19.5011 157.428 23.4727 161.369C29.4089 167.258 37.7261 169.726 46.0883 169.726H69.3851C69.3851 169.726 82.4637 174.684 87.4633 181.453C93.6891 189.882 92.3493 207.837 92.3493 207.837C92.3493 207.837 85.897 259.991 92.3493 292.365C96.8905 315.149 111.893 348.554 111.893 348.554C111.893 348.554 113.814 374.869 111.893 391.551C110.172 406.498 103.587 429.173 103.587 429.173C103.587 429.173 88.9557 433.595 85.5089 441.388C82.8845 447.321 85.5089 458 85.5089 458H128.994L151.47 377.381L152.168 374.938C152.168 374.938 152.911 397.031 159.776 408.651C165.609 418.526 172.581 421.159 180.786 429.173C175.443 429.173 172.256 430.199 167.105 431.616C159.634 433.671 154.563 436.726 151.47 443.831C148.88 449.779 151.47 458 151.47 458H298.558C311.971 458 324.492 451.277 331.901 440.095L340.253 427.491C344.594 420.94 346.91 413.255 346.91 405.396V232.808C346.91 226.667 348.168 220.487 351.783 215.522C353.959 212.531 356.692 209.463 359.613 207.837C368.616 202.825 376.585 203.646 385.998 207.837C387.319 208.426 388.673 209.26 389.994 210.22C397.417 215.611 400.167 225.058 400.167 234.232V252.06C400.167 257.694 401.097 263.483 404.628 267.872C406.737 270.495 409.438 272.821 412.382 272.821C415.326 272.821 418.027 270.495 420.136 267.872C423.667 263.483 424.597 257.694 424.597 252.06V223.639C424.597 215.27 422.049 207.039 416.47 200.801C410.316 193.919 401.473 185.408 392.838 181.941C376.193 175.26 352.772 174.612 336.649 188.782C319.86 203.535 319.942 232.941 320.025 236.745C320.031 237.022 320.037 237.292 320.037 237.57V325.101C320.037 325.101 311.178 284.144 299.027 260.606C284.509 232.485 273.03 217.329 248.701 197.088C222.527 175.311 171.014 157.511 171.014 157.511C171.014 157.511 174.288 128.334 171.014 110.117C167.228 89.0534 162.216 77.2078 150.493 59.3029C133.589 33.4863 90.3949 8 90.3949 8C90.3949 8 83.386 14.7667 80.6229 20.215Z" fill="#51DF9B"/>
<path d="M180.786 429.173C175.443 429.173 172.256 430.199 167.105 431.616C159.634 433.671 154.563 436.726 151.47 443.831C148.88 449.779 151.47 458 151.47 458H298.558C311.971 458 324.492 451.277 331.901 440.095L340.253 427.491C344.594 420.94 346.91 413.255 346.91 405.396V232.808C346.91 226.667 348.168 220.487 351.783 215.522C353.959 212.531 356.692 209.463 359.613 207.837C368.616 202.825 376.585 203.646 385.998 207.837C387.319 208.426 388.673 209.26 389.994 210.22C397.417 215.611 400.167 225.058 400.167 234.232V252.06C400.167 257.694 401.097 263.483 404.628 267.872C406.737 270.495 409.438 272.821 412.382 272.821C415.326 272.821 418.027 270.495 420.136 267.872C423.667 263.483 424.597 257.694 424.597 252.06V223.639C424.597 215.27 422.049 207.039 416.47 200.801C410.316 193.919 401.473 185.408 392.838 181.941C376.193 175.26 352.772 174.612 336.649 188.782C319.86 203.535 319.942 232.941 320.025 236.745C320.031 237.022 320.037 237.292 320.037 237.57V325.101C320.037 325.101 311.178 284.144 299.027 260.606C284.509 232.485 273.03 217.329 248.701 197.088C222.527 175.311 171.014 157.511 171.014 157.511C171.014 157.511 174.288 128.334 171.014 110.117C167.228 89.0534 162.216 77.2078 150.493 59.3029C133.589 33.4863 90.3949 8 90.3949 8C90.3949 8 83.386 14.7667 80.6229 20.215C74.4954 32.2975 80.6229 54.9055 80.6229 54.9055C80.6229 54.9055 65.8563 58.5812 55.7044 65.6547C39.2176 77.142 29.8086 110.117 29.8086 110.117C29.8086 110.117 17.894 114.214 13.6848 120.378C7.65868 129.202 10.0253 137.7 13.6848 147.739C15.4362 152.544 19.5011 157.428 23.4727 161.369C29.4089 167.258 37.7261 169.726 46.0883 169.726H69.3851C69.3851 169.726 82.4637 174.684 87.4633 181.453C93.6891 189.882 92.3493 207.837 92.3493 207.837C92.3493 207.837 85.897 259.991 92.3493 292.365C96.8905 315.149 111.893 348.554 111.893 348.554C111.893 348.554 113.814 374.869 111.893 391.55C110.172 406.498 103.587 429.173 103.587 429.173C103.587 429.173 88.9557 433.595 85.5089 441.388C82.8845 447.321 85.5089 458 85.5089 458H128.994L151.47 377.381L152.168 374.938M180.786 429.173C186.701 425.929 191.039 425.51 195.932 420.866C198.645 418.292 200.907 414.283 202.61 410.524C205.411 404.347 205.326 397.379 204.23 390.685C202.026 377.216 199.558 353.331 206.193 337.805C208.407 332.623 209.442 329.442 213.033 325.101C216.226 321.242 218.482 319.323 222.805 316.795C235.323 309.473 246.573 311.17 259.939 316.795C265.55 319.156 268.315 321.376 273.131 325.101C292.264 339.899 303.913 378.847 303.913 378.847M180.786 429.173C172.581 421.159 165.609 418.526 159.776 408.651C152.911 397.031 152.168 374.938 152.168 374.938M167.105 288.945C167.105 288.945 168.502 309.566 167.105 322.658C164.852 343.772 152.168 374.938 152.168 374.938" stroke="#240071" stroke-width="12"/>
<path d="M28.078 77.8697C31.5088 72.2052 38.22 66.2243 42.8115 62.5064C45.7092 60.1601 49.7027 59.8821 53.0199 61.5843L63.7457 67.0884L73.6798 72.1861C76.644 73.7072 77.1338 77.7414 74.6198 79.9277C72.0405 82.1707 72.6489 86.2841 75.8144 87.574C85.0751 91.3477 102.115 97.6022 115.049 98.3909C131.328 99.3836 153.744 92.4874 164.302 88.833C167.603 87.6906 171.265 89.3441 172.492 92.6147C173.693 95.8174 172.098 99.3727 168.865 100.488C157.772 104.315 133.035 111.922 115.049 110.606C101.277 109.598 83.7236 102.982 73.2652 98.5441C68.2723 96.4255 62.3803 98.561 60.1359 103.499C58.2529 107.641 53.7264 109.899 49.2842 108.912L39.3158 106.697L29.501 104.662C23.9296 103.507 20.4447 97.9425 22.1593 92.5171C23.7914 87.353 25.932 81.4128 28.078 77.8697Z" fill="#513EC3" stroke="#240071" stroke-width="12"/>
</g>
<defs>
<filter id="filter0_d_230_14440" x="0" y="0.512451" width="434.597" height="471.488" filterUnits="userSpaceOnUse" color-interpolation-filters="sRGB">
<feFlood flood-opacity="0" result="BackgroundImageFix"/>
<feColorMatrix in="SourceAlpha" type="matrix" values="0 0 0 0 0 0 0 0 0 0 0 0 0 0 0 0 0 0 127 0" result="hardAlpha"/>
<feOffset dy="4"/>
<feGaussianBlur stdDeviation="2"/>
<feComposite in2="hardAlpha" operator="out"/>
<feColorMatrix type="matrix" values="0 0 0 0 0 0 0 0 0 0 0 0 0 0 0 0 0 0 0.25 0"/>
<feBlend mode="normal" in2="BackgroundImageFix" result="effect1_dropShadow_230_14440"/>
<feBlend mode="normal" in="SourceGraphic" in2="effect1_dropShadow_230_14440" result="shape"/>
</filter>
</defs>
</svg>
