<svg width="785" height="833" viewBox="0 0 785 833" fill="none" xmlns="http://www.w3.org/2000/svg">
<path d="M542.685 548.902C476.114 624.427 398.981 677.904 328.11 703.325C257.219 728.754 192.715 726.078 151.242 689.522C109.768 652.965 99.0168 589.307 115.345 515.785C131.67 442.283 175.041 359.048 241.612 283.523C308.183 207.998 385.316 154.521 456.188 129.099C527.078 103.671 591.582 106.346 633.056 142.903C674.529 179.459 685.281 243.117 668.952 316.639C652.628 390.141 609.256 473.377 542.685 548.902Z" stroke="#FFFFFF"/>
<path d="M563.448 520.732C511.009 606.674 444.339 672.738 378.962 710.085C313.567 747.442 249.579 756.013 202.385 727.217C155.192 698.421 133.545 637.599 136.853 562.359C140.16 487.138 168.412 397.633 220.85 311.692C273.288 225.751 339.958 159.687 405.336 122.34C470.731 84.9827 534.719 76.4116 581.912 105.207C629.106 134.003 650.753 194.826 647.445 270.066C644.138 345.286 615.886 434.791 563.448 520.732Z" stroke="#FFFFFF"/>
<path d="M578.993 489.399C542.275 583.14 488.089 659.778 430.19 707.91C372.276 756.055 310.748 775.608 259.271 755.444C207.794 735.281 175.915 679.142 166.107 604.47C156.302 529.818 168.582 436.767 205.3 343.026C242.019 249.284 296.204 172.647 354.103 124.515C412.017 76.3693 473.545 56.817 525.022 76.9803C576.499 97.1435 608.379 153.283 618.186 227.955C627.991 302.606 615.711 395.657 578.993 489.399Z" stroke="#FFFFFF"/>
<path d="M588.865 455.842C568.982 554.535 528.928 639.417 480.267 696.872C431.593 754.343 374.395 784.282 320.199 773.364C266.002 762.446 224.859 712.696 202.233 640.861C179.614 569.046 175.55 475.276 195.432 376.583C215.314 277.89 255.368 193.008 304.03 135.552C352.704 78.0817 409.902 48.1424 464.098 59.0604C518.294 69.9785 559.438 119.729 582.063 191.563C604.683 263.378 608.747 357.148 588.865 455.842Z" stroke="#FFFFFF"/>
</svg>
