<svg width="294" height="373" viewBox="0 0 294 373" fill="none" xmlns="http://www.w3.org/2000/svg">
<ellipse cx="147.079" cy="163.904" rx="142.108" ry="56.346" fill="#51DF9B"/>
<ellipse cx="147.079" cy="318.855" rx="142.108" ry="48.0598" fill="#51DF9B"/>
<rect x="4.97168" y="163.075" width="284.216" height="159.923" fill="#51DF9B"/>
<path d="M171.685 2.51642C171.113 4.00336 169.855 7.20599 168.711 9.72235C167.682 12.2387 159.446 32.5983 150.41 54.9023C141.374 77.2063 133.025 97.909 131.766 100.769L129.479 106.03L117.698 106.831C53.6451 110.948 10.4096 124.216 2.17426 142.288C0.115431 146.749 0.00105146 151.896 0.00105146 239.397C0.00105146 339.364 -0.227708 336.276 6.06317 342.91C9.60894 346.799 22.1907 354.005 31.1123 357.322C57.7628 367.273 98.9394 372.763 146.407 372.878C203.94 372.878 251.522 364.871 276.342 351.031C284.234 346.57 291.326 339.25 292.813 334.217C294.414 328.27 294.414 150.752 292.699 144.805C291.212 139.543 284.006 132.223 275.885 127.762C264.676 121.7 235.623 113.35 218.809 111.291C215.492 110.948 212.747 110.262 212.747 109.69C212.747 109.233 227.045 96.3077 244.545 80.9809C261.93 65.7684 278.401 51.2422 281.032 48.8402L285.836 44.3794L282.29 39.9185C280.346 37.4022 278.287 35.4578 277.715 35.4578C277.257 35.4578 262.274 48.1539 244.545 63.7095C226.816 79.3795 208.172 95.7358 203.025 100.197L193.646 108.203L185.182 107.403C180.492 106.945 169.397 106.488 160.476 106.488C150.067 106.373 144.119 105.916 144.119 105.229C144.119 104.543 145.378 101.112 146.865 97.4515C148.351 93.9058 154.985 77.5495 161.619 61.1932C168.254 44.8369 176.031 25.6211 178.891 18.5296C181.75 11.438 184.152 5.37592 184.152 5.03278C184.152 4.57526 174.316 6.10352e-05 173.172 6.10352e-05C172.829 6.10352e-05 172.257 1.14386 171.685 2.51642ZM122.959 120.099C123.302 120.671 120.557 128.792 116.668 138.171C112.894 147.435 109.806 155.442 109.806 155.9C109.806 156.357 112.207 157.844 115.181 159.102C119.413 160.932 120.672 161.047 121.472 159.903C121.93 159.102 124.904 152.011 127.992 144.118C131.195 136.226 134.74 127.419 136.113 124.331L138.515 118.955H155.9C173.057 118.955 178.433 119.527 178.433 121.242C178.433 121.7 173.057 126.733 166.423 132.223C159.904 137.828 154.414 142.86 154.414 143.547C154.414 144.118 156.129 146.635 158.188 149.037L161.848 153.498L177.289 139.886C200.623 119.412 196.734 121.357 211.26 123.187C240.084 126.847 267.878 135.769 277.715 144.462C289.038 154.641 262.617 168.138 217.322 175.458C142.404 187.583 41.864 177.632 16.8149 155.556C11.7822 151.21 11.6678 149.952 15.3279 145.605C24.9358 134.167 62.2236 124.102 109.577 120.213C115.639 119.641 121.015 119.184 121.472 119.069C121.93 119.069 122.502 119.412 122.959 120.099ZM19.3312 172.713C35.3444 181.406 70.3445 189.184 106.832 192.158C114.953 192.73 133.025 193.302 146.979 193.302C186.783 193.302 219.267 189.87 245.574 182.893C258.27 179.462 274.055 173.628 276.114 171.57C276.8 170.883 278.172 170.426 279.316 170.426C282.404 170.426 282.176 180.491 278.973 184.609C271.195 194.445 239.283 204.396 200.966 208.857C169.169 212.517 116.897 212.174 85.7858 208.057C53.8739 203.939 25.6221 195.017 16.3573 186.096C13.0403 183.007 12.5828 181.864 12.5828 176.488C12.5828 169.739 13.1547 169.396 19.3312 172.713ZM38.8901 211.145C44.266 212.746 52.7301 215.034 57.7628 216.063L66.9131 217.893L67.2563 270.279C67.3707 307.567 67.1419 322.551 66.2269 322.551C64.2824 322.551 47.0111 318.09 38.8901 315.459C29.0535 312.371 21.6188 308.482 16.5861 304.136L12.5828 300.59V251.178C12.5828 223.955 12.8116 201.423 13.1547 201.079C13.4978 200.851 17.158 202.338 21.39 204.396C25.7365 206.455 33.5143 209.544 38.8901 211.145ZM281.375 250.034C281.375 282.175 280.917 299.446 280.117 300.933C278.287 304.364 267.649 310.77 257.698 314.43C248.777 317.632 227.731 323.008 226.93 322.208C226.244 321.636 226.358 219.609 227.045 218.58C227.273 218.008 230.934 216.978 234.937 216.292C245.574 214.462 262.388 209.086 271.653 204.511C276.114 202.452 280.002 200.851 280.574 201.079C281.032 201.308 281.375 223.269 281.375 250.034ZM118.384 223.383L140.116 224.756V276.799V328.842L124.446 328.613C115.868 328.498 102.828 327.583 95.3937 326.554C87.959 325.639 81.4394 324.838 80.9818 324.838C80.5243 324.838 80.0668 301.39 80.0668 272.681V220.41L88.4165 221.325C92.8773 221.782 106.488 222.697 118.384 223.383ZM212.976 272.452C212.747 300.933 212.404 324.381 212.29 324.609C211.375 325.525 183.466 328.384 169.512 329.07L153.27 329.757L153.499 277.256L153.842 224.756L170.427 223.841C179.577 223.383 190.901 222.583 195.59 222.011C200.28 221.439 206.228 220.982 208.744 220.867L213.319 220.753L212.976 272.452ZM19.6743 321.521C33.9718 328.842 57.3053 334.789 87.5015 338.793C104.544 341.08 111.75 341.423 146.979 341.309C181.636 341.309 189.528 340.966 206.228 338.793C234.594 335.018 255.983 329.642 271.881 322.322C275.77 320.606 279.431 319.119 280.117 319.119C280.803 319.119 281.375 321.407 281.375 324.724C281.375 332.159 277.944 336.276 267.306 341.309C215.035 366.358 79.838 366.701 27.9097 341.881C16.0142 336.276 12.5828 332.387 12.5828 324.724C12.5828 321.636 13.1547 319.119 13.7266 319.119C14.4129 319.119 17.0436 320.263 19.6743 321.521Z" fill="#240071"/>
</svg>
