<svg width="32" height="36" viewBox="0 0 3689 3918" fill="none" xmlns="http://www.w3.org/2000/svg">
<path fill-rule="evenodd" clip-rule="evenodd" d="M2680.76 2720.74C2764.72 2732.04 2821.26 2795.33 2807.05 2862.1L2655.03 2841.64C2807.05 2862.1 2807.04 2862.13 2807.04 2862.16L2806.99 2862.35L2806.93 2862.65L2806.77 2863.39C2806.64 2863.94 2806.49 2864.62 2806.3 2865.42C2805.93 2867.02 2805.43 2869.11 2804.79 2871.62C2803.5 2876.64 2801.65 2883.45 2799.13 2891.64C2794.14 2907.89 2786.33 2930.25 2774.85 2955.38C2753.26 3002.66 2712.79 3073.05 2639.4 3126.49C2556.86 3186.6 2516.39 3212.07 2469.33 3236.57C2457.39 3242.79 2446.25 3248.35 2434.47 3254.24C2403.67 3269.64 2368.42 3287.26 2302.62 3324.58C2250.83 3353.96 2204.59 3401 2169.18 3446.97C2152.22 3468.99 2139.26 3488.76 2130.68 3502.79C2126.42 3509.77 2123.3 3515.22 2121.38 3518.68C2120.42 3520.41 2119.76 3521.63 2119.4 3522.29L2119.13 3522.8L2119.19 3522.69L2119.23 3522.62M2119.25 3522.57C2119.21 3522.66 2119.16 3522.75 2119.12 3522.84C2086.91 3585.36 1997.14 3615.4 1918.39 3589.94C1839.51 3564.44 1801.56 3492.91 1833.62 3430.17L1969.3 3474.04C1833.63 3430.17 1833.64 3430.15 1833.65 3430.12L1833.74 3429.94L1833.89 3429.65L1834.29 3428.89C1834.6 3428.3 1834.99 3427.55 1835.47 3426.65C1836.43 3424.85 1837.73 3422.44 1839.38 3419.48C1842.67 3413.56 1847.34 3405.42 1853.37 3395.56C1865.39 3375.9 1883.07 3348.95 1906.25 3318.86C1951.12 3260.61 2023.2 3181.86 2123.58 3124.92C2197.56 3082.96 2243.43 3060.03 2274.78 3044.36C2284.63 3039.44 2293.04 3035.24 2300.44 3031.39C2327.51 3017.29 2354.04 3001.78 2431.17 2945.62C2450.54 2931.51 2469.94 2904.7 2485.03 2871.65C2491.9 2856.62 2496.64 2843.04 2499.6 2833.4C2501.06 2828.64 2502.04 2825 2502.6 2822.82C2502.88 2821.74 2503.05 2821.03 2503.11 2820.74C2503.12 2820.71 2503.13 2820.68 2503.13 2820.66C2517.64 2754.17 2597.02 2709.47 2680.76 2720.74" fill="#024E67"/>
<path fill-rule="evenodd" clip-rule="evenodd" d="M1381.01 2719.21C1317.81 2726.67 1275.76 2766.44 1287.08 2808.05L1401.51 2794.56C1287.08 2808.05 1287.08 2808.07 1287.09 2808.09L1287.12 2808.22L1287.17 2808.4L1287.3 2808.86C1287.4 2809.21 1287.52 2809.62 1287.66 2810.1C1287.95 2811.06 1288.33 2812.29 1288.81 2813.77C1289.77 2816.72 1291.16 2820.69 1293.02 2825.44C1296.73 2834.87 1302.5 2847.8 1310.99 2862.33C1326.96 2889.69 1356.99 2930.53 1411.29 2961.46C1470.63 2995.25 1499.94 3009.69 1534.01 3023.57C1542.66 3027.09 1550.68 3030.22 1559.15 3033.54C1581.21 3042.16 1606.31 3051.98 1653.35 3072.85C1689.4 3088.84 1721.67 3114.49 1746.5 3139.7C1758.38 3151.76 1767.44 3162.58 1773.42 3170.23C1776.39 3174.03 1778.54 3176.97 1779.85 3178.81C1780.51 3179.73 1780.94 3180.37 1781.17 3180.7L1781.29 3180.88L1781.24 3180.8L1781.2 3180.75M1781.19 3180.72C1781.23 3180.79 1781.27 3180.86 1781.32 3180.92C1806.82 3219.59 1875.04 3237.42 1933.9 3220.75C1992.88 3204.04 2020.12 3159.02 1994.74 3120.18L1887.95 3150.44C1994.74 3120.18 1994.73 3120.17 1994.72 3120.15L1994.64 3120.04L1994.53 3119.86L1994.22 3119.4C1993.98 3119.04 1993.69 3118.6 1993.33 3118.07C1992.61 3117.01 1991.64 3115.61 1990.42 3113.91C1987.99 3110.49 1984.56 3105.82 1980.15 3100.17C1971.37 3088.93 1958.47 3073.56 1941.58 3056.4C1908.85 3023.18 1856.3 2978.29 1783.27 2945.89C1730.09 2922.3 1697.02 2909.37 1674.56 2900.59C1667.54 2897.84 1661.55 2895.5 1656.32 2893.37C1637.25 2885.61 1618.53 2877.07 1563.4 2845.67C1551.22 2838.73 1538.33 2825.07 1528 2807.39C1523.34 2799.4 1520.12 2792.18 1518.12 2787.09C1517.13 2784.58 1516.48 2782.69 1516.13 2781.6C1515.96 2781.1 1515.86 2780.77 1515.82 2780.65C1504.22 2739.27 1444 2711.78 1381.01 2719.21" fill="#024E67"/>
<path fill-rule="evenodd" clip-rule="evenodd" d="M1951.23 1906C2029.66 1906 2093.23 1957.19 2093.23 2020.33V3803.67C2093.23 3866.81 2029.66 3918 1951.23 3918C1872.81 3918 1809.23 3866.81 1809.23 3803.67V2020.33C1809.23 1957.19 1872.81 1906 1951.23 1906Z" fill="#024E67"/>
<path d="M612.528 881.048C706.08 827.905 752.856 801.334 804.036 800.541C806.102 800.509 808.169 800.509 810.235 800.541C861.415 801.334 908.191 827.905 1001.74 881.048L1414.88 1115.73C1510.63 1170.13 1558.51 1197.32 1585.51 1242.08C1586.6 1243.88 1587.66 1245.71 1588.69 1247.55C1614.27 1293.13 1614.27 1348.19 1614.27 1458.32V1916.68C1614.27 2026.81 1614.27 2081.87 1588.69 2127.45C1587.66 2129.29 1586.6 2131.12 1585.51 2132.92C1558.51 2177.68 1510.63 2204.87 1414.88 2259.27L1001.74 2493.95C908.191 2547.09 861.415 2573.67 810.235 2574.46C808.169 2574.49 806.102 2574.49 804.036 2574.46C752.856 2573.67 706.08 2547.09 612.528 2493.95L199.392 2259.27C103.64 2204.87 55.7636 2177.68 28.7582 2132.92C27.669 2131.12 26.6083 2129.29 25.5766 2127.45C0 2081.87 0 2026.81 0 1916.68V1458.32C0 1348.19 0 1293.13 25.5766 1247.55C26.6083 1245.71 27.669 1243.88 28.7582 1242.08C55.7636 1197.32 103.64 1170.13 199.392 1115.73L612.528 881.048Z" fill="#0CCB8A"/>
<path d="M2727.59 1342.6C2821.16 1289.43 2867.94 1262.85 2919.13 1262.06C2921.2 1262.02 2923.27 1262.02 2925.33 1262.06C2976.53 1262.85 3023.31 1289.43 3116.88 1342.6L3488.88 1553.98C3584.62 1608.37 3632.48 1635.57 3659.48 1680.32C3660.57 1682.13 3661.63 1683.95 3662.66 1685.79C3688.23 1731.37 3688.23 1786.43 3688.23 1896.54V2308.46C3688.23 2418.57 3688.23 2473.63 3662.66 2519.21C3661.63 2521.05 3660.57 2522.87 3659.48 2524.68C3632.48 2569.43 3584.62 2596.63 3488.88 2651.02L3116.88 2862.4C3023.31 2915.57 2976.53 2942.15 2925.33 2942.94C2923.27 2942.98 2921.2 2942.98 2919.13 2942.94C2867.94 2942.15 2821.16 2915.57 2727.59 2862.4L2355.59 2651.02C2259.85 2596.63 2211.99 2569.43 2184.99 2524.68C2183.9 2522.87 2182.84 2521.05 2181.81 2519.21C2156.23 2473.63 2156.23 2418.57 2156.23 2308.46V1896.54C2156.23 1786.43 2156.23 1731.37 2181.81 1685.79C2182.84 1683.95 2183.9 1682.13 2184.99 1680.32C2211.99 1635.57 2259.85 1608.37 2355.59 1553.98L2727.59 1342.6Z" fill="#109373"/>
<path d="M1690.17 138.944C1792.57 72.5605 1843.77 39.3686 1901.05 38.3802C1903.35 38.3405 1905.65 38.3405 1907.95 38.3802C1965.23 39.3686 2016.43 72.5606 2118.83 138.945L2560.11 425.021C2646.64 481.116 2689.9 509.163 2714.06 552.079C2715.04 553.814 2715.99 555.564 2716.91 557.327C2739.78 600.945 2739.78 652.505 2739.78 755.626V1410.37C2739.78 1513.49 2739.78 1565.06 2716.91 1608.67C2715.99 1610.44 2715.04 1612.19 2714.06 1613.92C2689.9 1656.84 2646.64 1684.88 2560.11 1740.98L2118.83 2027.06C2016.43 2093.44 1965.23 2126.63 1907.95 2127.62C1905.65 2127.66 1903.35 2127.66 1901.05 2127.62C1843.77 2126.63 1792.57 2093.44 1690.17 2027.06L1248.89 1740.98C1162.36 1684.88 1119.1 1656.84 1094.94 1613.92C1093.96 1612.19 1093.01 1610.44 1092.09 1608.67C1069.22 1565.06 1069.22 1513.49 1069.22 1410.37V755.626C1069.22 652.505 1069.22 600.945 1092.09 557.327C1093.01 555.564 1093.96 553.814 1094.94 552.079C1119.1 509.163 1162.36 481.116 1248.89 425.02L1690.17 138.944Z" fill="#00E88C"/>
<path d="M1377.17 750.314C1423.96 723.724 1447.35 710.429 1472.95 710.032C1473.98 710.016 1475.02 710.016 1476.05 710.032C1501.65 710.429 1525.04 723.724 1571.83 750.314L1909.33 942.111C1957.2 969.31 1981.13 982.91 1994.63 1005.29C1995.17 1006.19 1995.7 1007.1 1996.22 1008.02C2009 1030.81 2009 1058.33 2009 1113.39V1491.61C2009 1546.67 2009 1574.19 1996.22 1596.98C1995.7 1597.9 1995.17 1598.81 1994.63 1599.71C1981.13 1622.09 1957.2 1635.69 1909.33 1662.89L1571.83 1854.69C1525.04 1881.28 1501.65 1894.57 1476.05 1894.97C1475.02 1894.98 1473.98 1894.98 1472.95 1894.97C1447.35 1894.57 1423.96 1881.28 1377.17 1854.69L1039.67 1662.89C991.804 1635.69 967.873 1622.09 954.374 1599.71C953.83 1598.81 953.3 1597.9 952.784 1596.98C940 1574.19 940 1546.67 940 1491.61V1113.39C940 1058.33 940 1030.81 952.784 1008.02C953.3 1007.1 953.83 1006.19 954.374 1005.29C967.873 982.91 991.804 969.31 1039.67 942.111L1377.17 750.314Z" fill="#109373"/>
<path d="M893.752 1665.4C987.595 1611.86 1034.52 1585.08 1085.89 1584.29C1087.96 1584.25 1090.04 1584.25 1092.11 1584.29C1143.48 1585.08 1190.41 1611.86 1284.25 1665.4L1513.79 1796.36C1609.24 1850.81 1656.97 1878.04 1683.88 1922.74C1684.97 1924.55 1686.02 1926.37 1687.05 1928.2C1712.54 1973.73 1712.54 2028.68 1712.54 2138.57V2392.43C1712.54 2502.32 1712.54 2557.27 1687.05 2602.8C1686.02 2604.63 1684.97 2606.45 1683.88 2608.26C1656.97 2652.96 1609.24 2680.19 1513.79 2734.64L1284.25 2865.6C1190.41 2919.14 1143.48 2945.92 1092.11 2946.71C1090.04 2946.75 1087.96 2946.75 1085.89 2946.71C1034.52 2945.92 987.595 2919.14 893.752 2865.6L664.214 2734.64C568.76 2680.19 521.033 2652.96 494.121 2608.26C493.035 2606.45 491.978 2604.63 490.95 2602.8C465.462 2557.27 465.462 2502.32 465.462 2392.43V2138.57C465.462 2028.68 465.462 1973.73 490.95 1928.2C491.978 1926.37 493.035 1924.55 494.121 1922.74C521.033 1878.04 568.76 1850.81 664.214 1796.36L893.752 1665.4Z" fill="#00E88C"/>
<path d="M1911.44 1154.95C1958.11 1128.53 1981.44 1115.32 2006.95 1114.93C2007.98 1114.91 2009.02 1114.91 2010.05 1114.93C2035.56 1115.32 2058.89 1128.53 2105.56 1154.95L2623.46 1448.17C2671.45 1475.34 2695.45 1488.92 2708.99 1511.32C2709.53 1512.23 2710.06 1513.14 2710.58 1514.06C2723.4 1536.88 2723.4 1564.45 2723.4 1619.6V2199.4C2723.4 2254.55 2723.4 2282.12 2710.58 2304.94C2710.06 2305.86 2709.53 2306.77 2708.99 2307.68C2695.45 2330.08 2671.45 2343.66 2623.46 2370.83L2105.56 2664.05C2058.89 2690.47 2035.56 2703.68 2010.05 2704.07C2009.02 2704.09 2007.98 2704.09 2006.95 2704.07C1981.44 2703.68 1958.11 2690.47 1911.44 2664.05L1393.54 2370.83C1345.55 2343.66 1321.55 2330.08 1308.01 2307.68C1307.47 2306.77 1306.94 2305.86 1306.42 2304.94C1293.6 2282.12 1293.6 2254.55 1293.6 2199.4V1619.6C1293.6 1564.45 1293.6 1536.88 1306.42 1514.06C1306.94 1513.14 1307.47 1512.23 1308.01 1511.32C1321.55 1488.92 1345.55 1475.34 1393.54 1448.17L1911.44 1154.95Z" fill="#0CCB8A"/>
<path d="M2418.97 614.917C2465.62 588.513 2488.95 575.311 2514.46 574.917C2515.48 574.901 2516.52 574.901 2517.54 574.917C2543.05 575.311 2566.38 588.513 2613.03 614.917L2855.11 751.922C2903.11 779.09 2927.11 792.674 2940.65 815.076C2941.2 815.979 2941.73 816.891 2942.25 817.812C2955.07 840.631 2955.07 868.21 2955.07 923.368V1190.63C2955.07 1245.79 2955.07 1273.37 2942.25 1296.19C2941.73 1297.11 2941.2 1298.02 2940.65 1298.92C2927.11 1321.33 2903.11 1334.91 2855.11 1362.08L2613.03 1499.08C2566.38 1525.49 2543.05 1538.69 2517.54 1539.08C2516.52 1539.1 2515.48 1539.1 2514.46 1539.08C2488.95 1538.69 2465.62 1525.49 2418.97 1499.08L2176.89 1362.08C2128.89 1334.91 2104.89 1321.33 2091.35 1298.92C2090.8 1298.02 2090.27 1297.11 2089.75 1296.19C2076.93 1273.37 2076.93 1245.79 2076.93 1190.63V923.368C2076.93 868.21 2076.93 840.631 2089.75 817.812C2090.27 816.891 2090.8 815.979 2091.35 815.076C2104.89 792.674 2128.89 779.09 2176.89 751.922L2418.97 614.917Z" fill="#109373"/>
<path d="M2735.41 1017.3C2782.19 990.718 2805.59 977.426 2831.18 977.029C2832.22 977.013 2833.25 977.013 2834.28 977.029C2859.88 977.426 2883.27 990.718 2930.06 1017.3L3253.97 1201.36L3253.98 1201.36C3301.84 1228.56 3325.77 1242.16 3339.27 1264.54C3339.82 1265.44 3340.35 1266.35 3340.86 1267.27C3353.65 1290.06 3353.65 1317.59 3353.65 1372.64V1735.36C3353.65 1790.41 3353.65 1817.94 3340.86 1840.73C3340.35 1841.65 3339.82 1842.56 3339.27 1843.46C3325.77 1865.84 3301.84 1879.44 3253.98 1906.64L3253.97 1906.64L2930.06 2090.7C2883.27 2117.28 2859.88 2130.57 2834.28 2130.97C2833.25 2130.99 2832.22 2130.99 2831.18 2130.97C2805.59 2130.57 2782.19 2117.28 2735.41 2090.7L2411.49 1906.64C2363.63 1879.44 2339.7 1865.84 2326.2 1843.46C2325.65 1842.56 2325.12 1841.65 2324.61 1840.73C2311.82 1817.94 2311.82 1790.41 2311.82 1735.36V1372.64C2311.82 1317.59 2311.82 1290.06 2324.61 1267.27C2325.12 1266.35 2325.65 1265.44 2326.2 1264.54C2339.7 1242.16 2363.63 1228.56 2411.49 1201.36L2735.41 1017.3Z" fill="#0FB47B"/>
<path d="M2735.41 1017.3C2782.19 990.718 2805.59 977.426 2831.18 977.029C2832.22 977.013 2833.25 977.013 2834.28 977.029C2859.88 977.426 2883.27 990.718 2930.06 1017.3L3253.97 1201.36L3253.98 1201.36C3301.84 1228.56 3325.77 1242.16 3339.27 1264.54C3339.82 1265.44 3340.35 1266.35 3340.86 1267.27C3353.65 1290.06 3353.65 1317.59 3353.65 1372.64V1735.36C3353.65 1790.41 3353.65 1817.94 3340.86 1840.73C3340.35 1841.65 3339.82 1842.56 3339.27 1843.46C3325.77 1865.84 3301.84 1879.44 3253.98 1906.64L3253.97 1906.64L2930.06 2090.7C2883.27 2117.28 2859.88 2130.57 2834.28 2130.97C2833.25 2130.99 2832.22 2130.99 2831.18 2130.97C2805.59 2130.57 2782.19 2117.28 2735.41 2090.7L2411.49 1906.64C2363.63 1879.44 2339.7 1865.84 2326.2 1843.46C2325.65 1842.56 2325.12 1841.65 2324.61 1840.73C2311.82 1817.94 2311.82 1790.41 2311.82 1735.36V1372.64C2311.82 1317.59 2311.82 1290.06 2324.61 1267.27C2325.12 1266.35 2325.65 1265.44 2326.2 1264.54C2339.7 1242.16 2363.63 1228.56 2411.49 1201.36L2735.41 1017.3Z" stroke="black"/>
<path d="M709.857 615.237C756.62 588.683 780.002 575.406 805.584 575.01C806.616 574.994 807.649 574.994 808.682 575.01C834.263 575.406 857.645 588.683 904.409 615.237L1075.47 712.372C1123.36 739.566 1147.3 753.163 1160.81 775.543C1161.35 776.446 1161.89 777.357 1162.4 778.277C1175.19 801.073 1175.19 828.609 1175.19 883.68V1072.32C1175.19 1127.39 1175.19 1154.93 1162.4 1177.72C1161.89 1178.64 1161.35 1179.55 1160.81 1180.46C1147.3 1202.84 1123.36 1216.43 1075.47 1243.63L904.409 1340.76C857.645 1367.32 834.263 1380.59 808.682 1380.99C807.649 1381.01 806.616 1381.01 805.584 1380.99C780.002 1380.59 756.62 1367.32 709.857 1340.76L538.796 1243.63C490.907 1216.43 466.962 1202.84 453.456 1180.46C452.911 1179.55 452.38 1178.64 451.864 1177.72C439.072 1154.93 439.072 1127.39 439.072 1072.32V883.68C439.072 828.609 439.072 801.073 451.864 778.277C452.38 777.357 452.911 776.446 453.456 775.543C466.962 753.163 490.907 739.566 538.796 712.372L709.857 615.237Z" fill="#0FB47B"/>
</svg>
