<svg width="32" height="36" viewBox="0 0 32 36" fill="none" xmlns="http://www.w3.org/2000/svg">
<path d="M14.7451 25.1018C14.7451 25.1018 15.4565 23.3519 16.7378 22.4381C18.3223 21.308 18.1062 21.6713 19.4507 20.4403C20.2317 19.7252 20.459 18.382 20.459 18.382" stroke="#15766A" stroke-width="2.29329" stroke-linecap="round"/>
<path d="M14.7451 21.3997C14.7451 21.3997 14.0688 19.8279 12.8507 19.0071C11.3443 17.9921 11.5497 18.3183 10.2715 17.2127C9.52902 16.5704 9.3129 15.3639 9.3129 15.3639" stroke="#15766A" stroke-width="2.29329" stroke-linecap="round"/>
<path d="M13.5575 34.2043V35.351H15.8507V34.2043H13.5575ZM15.8507 13.9556C15.8507 13.3223 15.3374 12.8089 14.7041 12.8089C14.0708 12.8089 13.5575 13.3223 13.5575 13.9556H15.8507ZM15.8507 34.2043V13.9556H13.5575V34.2043H15.8507Z" fill="#15766A"/>
<circle cx="3.76566" cy="11.625" r="3.19925" fill="#0DBC93"/>
<circle cx="12.4448" cy="5.47991" r="5.47991" fill="#51DF9B"/>
<circle cx="20.1359" cy="13.0315" r="2.40736" fill="#51DF9B"/>
<circle cx="22.7882" cy="6.56224" r="2.91417" fill="#0DBC93"/>
<circle cx="25.59" cy="22.1096" r="2.91417" fill="#0DBC93"/>
<path d="M7.41213 20.1998C7.41213 22.2466 5.75287 23.9059 3.70607 23.9059C1.65926 23.9059 0 22.2466 0 20.1998C0 18.153 1.65926 16.4938 3.70607 16.4938C5.75287 16.4938 7.41213 18.153 7.41213 20.1998Z" fill="#51DF9B"/>
<path d="M31.7431 14.2803C31.7431 16.3446 30.0696 18.0181 28.0053 18.0181C25.941 18.0181 24.2676 16.3446 24.2676 14.2803C24.2676 12.216 25.941 10.5426 28.0053 10.5426C30.0696 10.5426 31.7431 12.216 31.7431 14.2803Z" fill="#51DF9B"/>
<path d="M11.681 23.2336C11.681 24.1433 10.9435 24.8807 10.0339 24.8807C9.12417 24.8807 8.38672 24.1433 8.38672 23.2336C8.38672 22.3239 9.12417 21.5864 10.0339 21.5864C10.9435 21.5864 11.681 22.3239 11.681 23.2336Z" fill="#51DF9B"/>
</svg>
