<svg width="481" height="480" viewBox="0 0 481 480" fill="none" xmlns="http://www.w3.org/2000/svg">
<path d="M98.2647 6.97195C92.6647 8.12198 90.0647 9.12198 88.2647 10.822C87.7147 11.322 86.2147 12.172 84.9147 12.772C83.6147 13.322 82.1147 14.422 81.5647 15.172C80.4147 16.822 78.2147 23.372 77.4647 27.522C76.9147 30.472 76.9147 30.672 78.9647 36.122L81.0647 41.722L79.9147 43.272C78.3647 45.372 78.3147 50.022 79.8647 53.272C80.4147 54.522 81.1647 56.122 81.4647 56.922C81.7647 57.672 82.5647 58.522 83.2647 58.872C84.2147 59.272 84.5147 59.822 84.5147 60.972C84.5147 61.822 85.0147 63.272 85.6647 64.222C87.6647 67.272 88.0147 68.022 88.0147 69.072C88.0147 69.672 88.3647 71.122 88.7647 72.272C89.1647 73.422 89.5147 74.472 89.5147 74.572C89.5147 74.672 88.8147 74.772 88.0147 74.772C87.1647 74.772 86.0647 75.022 85.5647 75.372C84.8147 75.822 83.5147 75.822 79.6647 75.322L74.7647 74.672L73.0147 76.822C68.7147 82.172 63.9147 85.772 61.1147 85.772C60.5647 85.772 58.8147 86.422 57.2147 87.272C55.0147 88.372 53.5647 88.772 51.4647 88.772C49.9647 88.772 47.5147 89.122 46.0147 89.572C42.5647 90.572 38.9147 94.272 36.5647 99.072C35.6647 100.972 34.1147 103.172 33.1647 103.972C32.2147 104.722 30.2647 106.922 28.7647 108.772C27.2647 110.672 24.6147 113.272 22.9147 114.572C16.3647 119.522 9.06467 125.922 7.71467 127.822C6.36467 129.772 6.36467 129.822 6.91467 133.922C7.21467 136.172 7.66467 140.222 7.96467 142.872C8.36467 147.172 8.66467 148.072 10.4647 151.222C13.3147 156.022 16.4147 159.772 22.1647 165.222C29.4147 172.172 34.0647 178.922 36.5647 185.972C37.3147 188.072 37.4147 188.172 44.2147 194.322C49.5647 199.222 52.8647 201.372 57.4147 203.022C61.7147 204.572 64.7647 204.672 65.5147 203.322C65.7647 202.772 66.4647 202.222 66.9647 202.022C67.5147 201.872 68.1647 201.022 68.4647 200.172C68.7647 199.322 69.1647 198.722 69.3147 198.872C69.4647 199.022 69.0147 200.472 68.3647 202.072C67.6647 203.722 66.9647 206.022 66.7647 207.272C66.5647 208.522 65.3647 211.672 64.1147 214.272L61.7647 219.022L61.5147 226.272C61.1647 234.772 61.0647 235.122 53.7147 249.772C48.4647 260.222 46.9647 264.422 45.7147 271.772C44.6147 278.422 44.9647 286.622 46.8147 299.272C48.6647 311.822 48.6647 317.822 46.9647 322.772C46.2147 324.822 45.4647 328.072 45.2647 329.972C44.8147 334.222 44.6147 334.772 40.3647 341.222C34.5147 350.172 31.7147 357.022 30.2147 365.822C29.4647 370.372 29.4647 372.322 29.9647 384.972C30.2647 392.672 30.9647 402.372 31.5147 406.522C33.7147 422.972 33.4147 428.572 30.0147 435.922C28.6147 438.872 28.0147 440.822 28.0147 442.422C28.0147 444.572 27.9147 444.722 22.1147 450.372C16.2647 456.022 14.1647 457.472 7.91467 459.972C5.61467 460.872 5.41467 462.322 7.16467 465.272C8.56467 467.722 9.31467 468.122 14.5147 469.022C20.8647 470.122 26.5647 470.022 28.1647 468.772C28.8647 468.222 30.1147 467.772 31.0147 467.772C31.8647 467.772 33.1647 467.472 33.9647 467.072C35.4147 466.272 38.5647 463.022 39.4647 461.372C39.7647 460.822 40.7147 460.172 41.6147 460.022C44.7647 459.322 47.0647 457.822 47.8647 455.872C48.5647 454.272 48.5647 453.422 47.9647 449.072C47.4147 444.722 47.4147 443.522 48.1647 439.072C48.6647 436.322 49.0147 433.272 49.0147 432.372C49.0147 429.572 50.9647 420.872 52.8147 415.422C56.5147 404.422 60.1147 396.772 63.7647 392.022C65.6647 389.522 67.8647 386.072 68.7147 384.272C70.1147 381.222 70.2147 380.622 70.2647 375.022C70.2647 371.722 69.9647 366.772 69.5647 364.022C69.2147 361.272 68.9647 356.622 69.0647 353.722L69.2647 348.422L72.5647 342.972C74.4147 339.972 76.1147 337.022 76.4647 336.422C76.7647 335.822 78.2647 330.422 79.7647 324.422C86.2647 298.872 86.1147 299.322 91.9647 293.022C97.4647 287.072 100.015 281.822 102.515 271.422C103.715 266.322 105.365 256.922 105.815 252.622C106.215 248.822 106.365 248.522 108.115 248.122C109.365 247.772 109.465 247.872 109.715 249.872C111.215 262.272 111.615 264.272 114.165 272.272C118.365 285.222 120.515 289.522 126.415 296.772C129.715 300.772 131.715 305.522 134.765 316.722C138.665 330.822 143.865 341.222 151.415 350.222C154.665 354.022 155.115 356.472 154.665 368.272C154.415 376.172 154.515 377.972 155.215 380.522C156.315 384.272 158.365 387.972 162.015 392.772C163.565 394.822 165.915 398.522 167.265 401.022C168.565 403.472 171.615 408.672 174.015 412.522C181.515 424.572 183.065 428.372 183.065 434.922C183.065 437.622 183.365 439.622 184.015 441.322C184.815 443.272 185.015 445.022 185.015 449.522C185.015 454.122 185.265 455.972 186.215 459.122C186.865 461.272 187.665 464.122 188.015 465.522C189.215 470.772 193.715 473.272 201.865 473.272C207.015 473.272 212.215 472.522 214.815 471.472C216.815 470.622 218.515 468.522 218.515 466.922C218.515 465.322 215.765 461.772 211.565 457.922C206.965 453.722 205.815 450.822 206.315 444.622C206.615 440.822 206.515 440.122 205.565 438.122C204.965 436.872 203.615 434.872 202.565 433.672C201.215 432.122 200.115 429.972 198.715 426.022L196.765 420.522V394.772C196.765 366.422 196.815 366.972 193.515 359.872C191.465 355.422 189.215 352.272 183.465 345.522C176.415 337.272 176.115 336.722 175.065 330.922C174.565 328.172 173.615 324.722 172.915 323.222C169.965 317.022 169.715 311.822 171.815 299.272C172.915 292.722 173.215 289.422 173.215 283.272C173.215 272.122 171.865 267.822 164.765 255.522C159.365 246.272 156.015 237.272 156.015 232.172V230.172L157.415 231.022C158.165 231.522 161.815 234.022 165.515 236.572C185.215 250.172 197.615 262.022 206.815 276.022C216.115 290.122 220.265 302.322 220.865 317.072L221.165 324.672L222.965 325.172C232.065 327.872 243.165 329.022 252.915 328.322C258.965 327.822 268.165 326.272 270.915 325.222C273.665 324.172 273.815 324.372 276.015 332.922C276.765 335.872 277.515 338.372 277.665 338.422C277.815 338.472 280.015 336.722 282.465 334.572C291.315 326.772 300.365 321.122 310.865 316.772C316.815 314.322 325.215 311.772 327.415 311.772C328.515 311.772 333.715 316.122 341.315 323.372C345.315 327.172 344.365 326.972 352.015 325.472C372.915 321.272 391.815 307.022 401.665 287.922C404.615 282.172 405.765 278.172 405.315 274.972C404.965 272.672 404.615 272.222 399.915 267.672L394.865 262.772L396.165 257.572C398.815 247.022 403.465 236.672 409.515 227.822C412.365 223.622 416.765 218.172 417.515 217.872C417.715 217.822 419.765 218.422 422.065 219.222L426.265 220.722L430.865 218.822C440.515 214.822 445.515 210.472 447.515 204.422C449.565 198.172 450.465 197.272 454.965 196.522L457.165 196.172L452.015 194.222C432.865 186.972 413.665 176.572 383.215 156.772C331.965 123.422 317.215 115.272 287.515 103.572C245.315 86.972 200.315 78.322 156.065 78.272C147.165 78.272 146.265 78.172 145.315 77.322C143.965 76.022 139.515 73.872 137.515 73.472C136.565 73.272 134.765 73.472 132.965 74.022C130.265 74.872 129.915 74.872 129.165 74.172C128.665 73.722 127.265 73.122 126.065 72.772L123.865 72.172L124.215 68.122C124.365 65.872 124.515 62.372 124.515 60.372C124.515 57.222 124.615 56.772 125.415 56.772C126.865 56.772 128.715 54.372 130.865 49.772C132.015 47.272 132.015 42.172 130.865 40.922C130.115 40.072 130.065 39.672 130.565 38.472C130.915 37.622 131.215 34.322 131.215 30.772C131.265 24.072 130.765 21.372 128.615 17.022C126.015 11.722 122.965 9.77197 116.465 9.32196C112.815 9.07196 111.865 8.77197 110.115 7.57196C107.315 5.67197 104.915 5.52197 98.2647 6.97195ZM59.2647 130.022C60.5647 133.872 62.8147 140.072 64.2647 143.772C68.9647 155.672 69.5647 157.422 70.8147 162.972C72.5147 170.472 72.8647 177.172 71.7647 180.872C71.3147 182.472 70.8147 183.772 70.6647 183.772C70.5147 183.772 69.8147 183.372 69.1147 182.822C67.3147 181.572 63.9147 180.072 60.3647 178.972C57.8647 178.222 57.1647 178.172 55.3647 178.722C51.1147 179.972 51.0147 179.972 49.4147 178.472C45.7147 174.972 43.2647 168.822 42.7647 161.722C42.3147 155.372 41.4147 151.922 38.9147 147.122C36.8147 143.072 35.0147 140.922 31.0647 137.822C29.9147 136.922 29.1147 136.022 29.2647 135.822C29.4647 135.672 32.3147 135.522 35.6647 135.522C41.4647 135.522 41.9147 135.422 45.0647 133.972C48.5647 132.322 52.9647 128.372 55.3147 124.772C56.0647 123.672 56.7147 122.822 56.8147 122.922C56.9147 122.972 58.0147 126.222 59.2647 130.022Z" fill="#51DF9B" stroke="#240071" stroke-width="12"/>
</svg>
