<svg width="526" height="462" viewBox="0 0 526 462" fill="none" xmlns="http://www.w3.org/2000/svg">
<path d="M255.987 6.74423C249.823 8.70554 243.379 14.5894 240.951 20.4734C239.083 24.9563 239.363 34.5761 241.418 39.0591C242.352 41.1138 244.873 44.3826 247.021 46.3439C251.131 49.9863 250.664 51.4807 245.714 50.5467C243.566 50.0797 243.379 50.3599 243.379 53.5354C243.379 56.1505 243.846 57.1778 245.06 57.458C247.115 58.0183 251.317 71.1871 250.477 74.5494C250.103 76.0437 250.384 77.071 251.411 77.6314C253.185 78.6588 253.185 77.4446 254.586 155.803C255.053 181.487 255.24 202.595 255.053 202.781C254.586 203.248 255.053 203.435 227.502 192.975C202.658 183.449 199.483 182.048 199.483 180.086C199.483 177.284 203.686 176.444 209.57 178.125C216.481 179.993 227.782 180.086 233.386 178.125C240.857 175.603 246.835 166.918 243.192 164.022C242.538 163.462 240.484 162.528 238.616 161.968C236.748 161.314 233.759 159.446 231.985 157.765C229.65 155.523 227.221 154.216 223.392 153.375C218.629 152.348 217.695 152.441 214.613 153.936C212.278 155.056 207.608 155.803 199.95 156.364C182.765 157.485 171.651 162.248 167.448 170.28C164.833 175.323 165.674 183.262 169.223 187.745C174.546 194.376 181.177 197.831 207.982 207.638C221.991 212.868 233.666 217.164 233.759 217.351C233.946 217.538 230.49 219.499 226.007 221.647C211.251 229.026 206.207 234.723 203.966 246.677C202.658 253.495 203.406 257.605 206.955 262.835C210.597 268.345 216.948 273.015 230.21 279.926L241.324 285.623L235.907 289.172C224.793 296.457 217.508 306.45 215.36 317.658C213.959 324.663 214.613 336.057 216.574 339.886C218.909 344.369 228.249 352.588 239.83 360.34L250.757 367.624L246.461 372.388C240.67 378.832 237.775 385.183 237.775 391.721C237.775 398.258 240.39 402.461 250.57 412.548L258.042 419.833L254.867 426.09C251.878 431.694 251.598 432.815 251.971 438.512C252.251 444.396 252.532 445.143 256.081 448.785C258.229 451.027 260.19 453.548 260.47 454.389C261.217 456.537 264.766 456.537 265.514 454.389C265.794 453.548 267.755 451.027 269.81 448.879C273.172 445.33 273.639 444.302 274.013 439.352C274.48 433.188 273.265 428.799 269.903 423.755L267.568 420.3L276.347 411.334C281.204 406.384 285.874 401.06 286.714 399.379C290.357 392.188 287.648 381.54 279.803 372.668C277.748 370.333 276.067 368.091 276.067 367.624C276.067 367.251 280.55 363.982 285.874 360.433C296.801 353.335 307.168 344.276 309.316 340.073C310.063 338.578 310.997 333.909 311.277 329.706C312.398 312.988 306.047 300.473 291.011 289.919L284.753 285.53L296.054 279.739C308.382 273.482 315.293 268.345 319.216 262.555C322.578 257.698 323.232 253.775 321.924 246.677C319.87 234.723 314.64 228.839 299.603 221.461C295.307 219.406 292.038 217.538 292.225 217.351C292.412 217.164 302.218 213.428 313.986 209.132C344.993 197.738 345.367 197.551 351.064 193.068C357.135 188.398 360.123 183.262 360.123 177.658C360.123 165.423 347.795 157.671 326.034 156.364C318.282 155.803 313.892 155.15 311.651 154.029C306.514 151.32 296.708 153.562 293.532 158.138C292.785 159.259 290.17 160.847 287.648 161.781C285.127 162.808 282.698 164.116 282.231 164.863C280.27 168.038 284.38 174.296 290.544 177.565C294.84 179.806 307.355 180.18 315.574 178.218C322.858 176.537 326.501 177.098 326.501 180.086C326.501 182.234 324.166 183.262 277.655 200.82C274.199 202.128 271.117 203.062 270.931 202.875C270.464 202.314 272.238 91.0804 272.892 83.6087C273.265 79.6861 273.826 77.8182 274.666 77.8182C275.507 77.8182 275.787 76.7909 275.507 74.2692C275.04 69.5994 278.776 58.0183 280.924 57.458C282.138 57.1778 282.605 56.057 282.605 53.5354C282.605 50.1731 282.512 50.0797 279.336 50.3599C277.562 50.4533 276.067 50.3599 276.067 50.0797C276.067 49.7996 277.935 47.558 280.27 44.943C286.154 38.4053 287.835 30.4667 285.313 21.4073C283.913 16.4573 275.974 8.51874 270.837 7.02441C266.821 5.81027 259.163 5.62347 255.987 6.74423ZM255.894 235.75C256.828 244.996 256.548 273.015 255.52 273.015C253.746 273.015 234.88 264.329 229.183 260.873C222.085 256.577 219.563 253.589 220.404 250.226C221.244 246.771 227.035 241.634 233.572 238.365C238.242 236.124 251.971 230.707 254.68 230.146C254.96 230.146 255.52 232.668 255.894 235.75ZM293.719 238.925C299.229 241.914 304.833 247.238 305.58 250.133C306.608 254.336 302.405 258.445 291.104 264.142C285.22 267.131 271.304 273.015 270.277 273.015C269.436 273.015 269.249 242.008 270.09 235.096L270.744 230.24L279.897 233.322C284.94 235.096 291.197 237.618 293.719 238.925ZM257.388 316.257C257.388 326.25 257.668 338.859 258.042 344.462L258.602 354.549L252.625 350.533C227.408 333.535 223.486 323.729 237.028 310.653C241.231 306.544 254.119 298.232 256.174 298.232C257.108 298.232 257.388 302.154 257.388 316.257ZM277.935 302.528C290.263 310.093 296.614 317.751 296.614 325.13C296.614 329.986 292.598 335.87 285.22 341.754C278.215 347.358 268.689 353.802 268.222 353.242C267.942 353.055 268.035 340.54 268.315 325.503C268.689 305.983 269.156 298.232 269.997 298.232C270.557 298.232 274.106 300.193 277.935 302.528ZM259.163 402.554C259.256 406.29 258.883 409.372 258.509 409.372C257.575 409.372 251.691 402.368 249.73 398.819C246.741 393.495 247.488 390.226 252.999 384.436L257.855 379.299L258.416 387.518C258.789 392.094 259.069 398.912 259.163 402.554ZM277.935 392.561C277.935 394.149 277.281 396.764 276.441 398.445C274.573 401.994 268.502 409.372 267.475 409.372C266.541 409.372 266.541 397.791 267.382 387.051L267.942 379.206L272.985 384.436C276.814 388.452 277.935 390.226 277.935 392.561Z" fill="#51DF9B" stroke="#240071" stroke-width="12"/>
<path d="M162.031 20.7535C159.697 21.2204 154.653 22.9016 150.824 24.3959C146.995 25.9836 138.776 29.3459 132.425 31.9609C117.015 38.3118 100.017 44.1023 92.265 45.5033L86.0075 46.624L88.716 48.1184L91.4244 49.5193L86.8481 51.0136C61.3511 59.139 26.7948 66.5173 13.0656 66.7041C5.22039 66.7975 5.0336 67.638 12.2251 71.8408C19.9769 76.3238 33.0523 79.686 49.1163 81.1804L56.1209 81.8341L49.6767 83.9822C46.1276 85.1964 43.0456 86.4105 42.8588 86.5973C42.0182 87.4379 45.5673 92.7614 48.4625 95.0029C54.9068 99.9529 66.2077 102.008 77.6019 100.326C81.1509 99.7661 84.233 99.5793 84.4198 99.7661C84.6066 99.9529 81.8047 101.074 78.1623 102.194C71.8114 104.249 71.6246 104.342 73.2123 106.117C79.5632 113.122 94.8801 116.764 107.675 114.336C112.625 113.402 112.158 114.149 106.181 117.044C103.566 118.258 101.418 119.566 101.418 119.94C101.418 121.154 107.955 123.675 114.773 125.076C122.619 126.757 131.398 126.197 140.084 123.489C143.259 122.555 145.967 121.714 146.248 121.714C146.528 121.714 143.819 123.582 140.177 125.823L133.639 130.026L136.441 131.054C147.275 135.256 162.872 133.388 174.266 126.477C176.508 125.17 176.414 125.263 173.799 128.345C172.305 130.12 169.596 133.015 167.915 134.883C165.954 137.031 165.113 138.525 165.767 138.899C167.168 139.833 178.843 139.833 182.765 138.992C184.54 138.619 187.528 137.498 189.396 136.564C194.066 134.136 194.626 134.322 191.918 137.311C190.704 138.805 188.836 140.953 187.809 142.168L185.941 144.409L194.346 143.942C201.351 143.662 203.873 143.102 209.103 140.58L215.454 137.591L211.998 142.354C207.982 147.865 208.636 149.172 215.08 148.519C225.54 147.491 235.627 138.152 246.368 119.846L249.917 113.775V99.2057V84.636L244.22 83.9822C226.848 82.0209 219.283 74.8295 214.52 55.8702C212.932 49.8929 210.504 42.9816 209.196 40.3665C204.713 32.2411 195.841 25.61 184.633 22.1544C179.216 20.4733 167.635 19.8195 162.031 20.7535Z" fill="#51DF9B" stroke="#240071" stroke-width="12"/>
<path d="M348.449 20.4735C340.137 22.4348 337.522 23.3688 332.572 25.7036C321.177 31.214 315.387 39.6196 311.464 55.9638C307.168 74.1759 298.856 82.0211 281.765 83.9824L276.067 84.6362V99.2993V113.962L280.737 121.714C289.983 137.125 297.735 144.783 306.608 147.491C310.624 148.799 317.161 148.612 317.161 147.211C317.161 146.931 315.667 144.69 313.799 142.074L310.437 137.498L316.227 140.487C321.364 143.008 323.419 143.569 331.077 143.942L340.043 144.409L338.175 142.168C337.148 140.954 335.093 138.525 333.506 136.751L330.704 133.669L335.374 136.004C337.989 137.218 341.538 138.619 343.312 138.992C346.861 139.74 360.123 139.833 360.871 139.086C361.057 138.806 358.909 136.004 356.014 132.828C353.119 129.653 350.877 126.944 351.064 126.758C351.251 126.477 354.146 127.598 357.415 129.092C367.782 133.949 380.11 134.696 389.543 131.054L392.345 130.026L385.807 125.824C382.165 123.582 379.456 121.714 379.736 121.714C380.017 121.714 382.725 122.555 385.807 123.489C393.839 126.01 402.525 126.758 409.623 125.45C415.694 124.329 424.566 121.06 424.566 119.94C424.566 119.566 421.951 117.978 418.776 116.297C415.507 114.616 413.732 113.495 414.76 113.869C418.869 115.177 431.944 115.363 436.801 114.243C442.685 112.935 449.783 109.293 452.585 106.304L454.64 104.156L451.558 103.502C449.876 103.129 446.794 102.008 444.74 101.074L440.91 99.2993L444.646 99.9531C446.701 100.327 452.398 100.607 457.255 100.513C466.968 100.42 472.291 99.0191 477.521 95.0031C480.417 92.7616 483.966 87.4381 483.125 86.5975C482.938 86.4107 479.856 85.1966 476.307 83.9824L469.863 81.8344L480.137 80.7136C497.602 78.7523 513.759 73.7089 518.242 68.6656C519.83 66.8911 519.736 66.8911 513.105 66.7043C498.442 66.4241 473.879 61.2873 440.91 51.4808L434.466 49.6129L437.175 48.1186L439.977 46.6242L433.626 45.5035C425.127 43.9158 405.607 37.1913 389.076 30.1866C381.604 27.0112 373.012 23.5555 369.93 22.6216C364.42 20.7537 352.091 19.5395 348.449 20.4735Z" fill="#51DF9B" stroke="#240071" stroke-width="12"/>
</svg>
