<svg width="304" height="456" viewBox="0 0 304 456" fill="none" xmlns="http://www.w3.org/2000/svg">
<path d="M250.447 450.542H55.9515L80.8999 422.03L90.0646 384.353V346.167L80.8999 329.874L62.0613 310.526L50.86 276.922L39.6588 245.864L32.5307 232.117L18.2745 210.733L12.6738 182.73V150.653V117.049L25.4026 83.4456L50.86 52.3874L90.0646 18.7836L128.76 9.10974H161.345H190.367L213.279 18.7836L236.7 34.0581L257.575 52.3874L275.904 77.3358L292.706 106.866L297.288 141.998L292.706 174.583L283.032 224.48L269.285 238.736L250.447 293.724L218.879 340.566L226.007 396.063L250.447 450.542Z" fill="#51DF9B" stroke="#51DF9B" stroke-width="5"/>
<path d="M271.092 79.4354L271.095 79.4413C283.721 100.962 289.153 118.834 290.588 143.212C291.093 152.897 291.05 160.171 290.47 164.793C290.176 167.142 289.762 168.617 289.333 169.376C289.228 169.563 289.144 169.666 289.093 169.718C289.092 169.718 289.091 169.717 289.09 169.717L289.066 169.706L289.042 169.696C283.498 167.386 276.663 167.339 271.863 169.739L271.848 169.747L271.832 169.755C270.628 170.392 269.465 170.956 268.56 171.356C268.28 171.48 268.03 171.586 267.816 171.672C267.799 171.634 267.781 171.594 267.763 171.552C267.458 170.841 267.102 169.751 266.716 168.323C265.947 165.486 265.11 161.521 264.326 157.079C262.757 148.19 261.432 137.561 261.289 130.503C261.289 130.502 261.289 130.5 261.289 130.499L259.789 130.529C259.5 110.109 258.631 106.778 252.983 101.42L271.092 79.4354ZM271.092 79.4354C263.383 66.1579 245.428 46.6202 232.85 37.6147C220.548 28.8896 199.292 19.1237 184.993 15.5474C178.316 13.9136 168.065 12.6893 158.018 12.1121C147.954 11.5339 138.281 11.6161 132.732 12.5292L132.731 12.5294C85.3998 20.2744 47.5845 47.7894 26.8066 89.6319C16.6417 110.249 13.0599 126.671 13.0599 153.557C13.0599 162.241 13.1004 166.766 13.4248 169.02C13.4767 169.381 13.5316 169.648 13.5837 169.843C17.1595 168.281 20.2767 167.55 23.0921 167.928C25.9758 168.316 28.3159 169.833 30.3723 172.282C31.5131 173.613 32.1885 174.371 32.7168 174.731C32.8399 174.815 32.915 174.848 32.9507 174.861C32.9755 174.849 33.0182 174.826 33.0812 174.779C33.5192 174.456 34.1877 173.61 35.2611 171.749C36.2967 169.955 37.59 167.441 39.3338 164.026L39.3371 164.019L39.3405 164.013L44.0962 154.921L44.2385 133.571C44.2385 133.569 44.2385 133.568 44.2385 133.566C44.2385 122.905 44.2706 117.301 44.9072 113.106C45.5586 108.815 46.8445 105.992 49.1535 100.941L49.1549 100.938C55.0781 88.055 65.8936 76.7581 77.5646 71.521C87.7409 66.949 110.635 61.1313 130.23 58.0832L130.232 58.0829C157.744 53.839 180.003 57.7774 199.633 70.6161C204.47 73.7457 215.689 79.6472 224.356 83.6922L271.092 79.4354ZM215.256 349.87L209.432 354.317L209.426 354.321C203.66 358.683 194.647 363.731 185.77 367.897C176.919 372.05 167.997 375.425 162.418 376.329L162.411 376.33C143.522 379.305 120.55 372.603 98.9232 357.992C98.9216 357.991 98.92 357.99 98.9184 357.989L93.2465 354.207L92.4199 365.544L92.4198 365.545C90.8161 387.341 85.6064 409.36 79.0122 425.964C75.7176 434.26 72.0509 441.272 68.2687 446.24C64.5582 451.113 60.4367 454.409 56.1659 454.409C54.6353 454.409 53.269 454.123 52.2488 453.426C51.1483 452.674 50.5851 451.528 50.6298 450.233C50.6713 449.03 51.2258 447.822 52.044 446.707C52.8758 445.572 54.0612 444.421 55.5589 443.307C58.2972 441.261 61.194 437.413 64.0437 432.036C66.8755 426.692 69.5908 419.973 72.0253 412.337C76.894 397.066 80.6013 378.248 81.8966 359.683L81.8971 359.676L82.8647 346.682L72.4088 334.553L72.407 334.551C51.9415 310.723 37.5052 279.777 30.3654 244.661L30.3633 244.65C29.711 241.316 29.1672 239.406 28.3642 238.016C27.6002 236.693 26.5333 235.73 24.5272 234.485L24.5111 234.475L24.4953 234.464C19.5369 231.21 15.3631 225.61 12.1632 218.433C8.95551 211.239 6.67879 202.357 5.57937 192.389L5.57875 192.383C4.85611 185.591 3.70347 176.811 2.99011 172.955C1.87522 167.3 1.40636 158.746 1.51536 149.972C1.62454 141.183 2.31525 132.045 3.56553 125.2C7.66327 101.062 17.1769 79.5543 32.0847 59.8225C53.5989 31.1376 84.6164 11.5436 121.293 3.35916C128.304 1.7197 137.748 1.29459 154.962 1.58389L154.968 1.58401C175.876 2.01959 180.661 2.60379 192.286 5.98822L192.297 5.99152C218.152 13.7332 237.191 24.7143 256.197 43.1353C282.238 68.2976 297.159 99.3264 301.396 136.296L301.396 136.297C303.306 153.045 301.529 172.058 295.153 205.243C294.104 211.08 291.65 217.458 288.656 222.891C285.692 228.27 282.075 232.95 278.572 235.188C276.395 236.664 275.295 237.662 274.493 239.087C273.647 240.592 273.068 242.683 272.267 246.54C266.429 276.451 252.864 306.357 234.612 329.575C234.612 329.575 234.611 329.576 234.611 329.577L226.702 339.705L227.543 356.519C227.543 356.52 227.543 356.52 227.543 356.521C228.624 376.256 232.155 397.149 236.653 413.629C238.902 421.873 241.382 428.967 243.896 434.242C245.153 436.882 246.401 439.027 247.608 440.623C248.834 442.244 249.925 443.175 250.829 443.568L250.844 443.575L250.86 443.582C253.198 444.661 254.917 447.032 254.917 449.578C254.917 451.142 254.277 452.435 253.172 453.304C252.112 454.136 250.745 454.489 249.374 454.5C246.642 454.521 243.452 453.202 241.151 450.582C235.612 444.578 230.544 433.059 226.358 418.27C222.148 403.397 218.767 384.989 216.732 365.008L216.732 365.001L215.256 349.87ZM32.9236 174.871C32.9237 174.871 32.9266 174.87 32.9324 174.868C32.9264 174.869 32.9234 174.87 32.9236 174.871ZM225.02 96.4262L225.007 96.4207C215.413 92.2051 202.59 85.6519 196.414 81.6819C190.405 77.8187 181.814 73.3827 177.567 71.6815C171.584 69.4574 166.277 68.5944 152.732 68.3062C142.562 68.0883 137.611 67.9854 132.128 68.6575C126.622 69.3324 120.568 70.7901 108.22 73.7682L108.211 73.7703C84.8222 79.2565 76.7892 83.084 68.5605 91.8692C62.8792 97.982 59.7717 102.237 58.065 107.562C56.3398 112.945 56 119.556 56.2174 130.5L56.2175 130.504C56.363 138.948 56.509 143.57 56.9248 146.307C57.1302 147.659 57.3843 148.416 57.6554 148.899C57.903 149.341 58.2123 149.642 58.7359 149.991L58.7575 150.006L58.7786 150.021C62.2852 152.538 62.7237 156.748 61.4016 159.848C60.7363 161.407 59.59 162.791 58.042 163.59C56.4625 164.406 54.5694 164.555 52.5928 163.794C52.4764 163.751 52.3386 163.75 52.1584 163.858C51.9603 163.977 51.6865 164.254 51.493 164.786L51.4848 164.809L51.476 164.831C51.1422 165.665 50.0711 167.681 48.6958 170.146C47.2944 172.657 45.5132 175.747 43.6965 178.799L43.6938 178.804C41.7333 182.071 40.0716 184.64 38.5931 186.504C37.1489 188.325 35.7177 189.689 34.1618 190.236C32.4089 190.853 30.8184 190.344 29.4273 189.218C28.1173 188.157 26.8495 186.454 25.5019 184.342L25.4977 184.335L25.4935 184.329C23.9767 181.895 22.6608 180.461 21.6282 179.794C21.1265 179.47 20.7672 179.376 20.5356 179.367C20.3328 179.36 20.1387 179.411 19.9127 179.585C19.3724 179.999 18.6986 181.083 18.1864 183.267C17.6905 185.381 17.4046 188.27 17.4046 191.935C17.4046 199.745 19.3081 207.672 22.3644 214.101C25.4428 220.576 29.5678 225.285 33.8415 227.039C35.6371 227.742 37.0484 228.602 38.0776 230.006C39.0831 231.377 39.6018 233.105 39.9755 235.273L39.976 235.276C42.2751 248.783 49.7734 274.585 54.6434 285.759C70.2949 321.224 96.3919 347.998 128.143 361.3C132.083 362.947 134.784 363.874 138.002 364.408C141.253 364.947 145.089 365.094 151.316 365.094H151.324L151.333 365.094C157.706 365.166 161.494 365.054 164.75 364.5C167.977 363.95 170.744 362.956 175.065 361.156C187.22 356.007 204.011 345.241 213.577 336.246L213.577 336.246C230.018 320.806 244.674 296.992 254.027 270.376C255.963 264.638 258.339 256.107 260.234 248.403C261.181 244.551 262.003 240.923 262.588 237.967C263.183 234.96 263.503 232.786 263.503 231.762C263.503 231.287 263.719 230.955 263.793 230.848C263.892 230.703 263.999 230.593 264.072 230.523C264.223 230.38 264.396 230.25 264.552 230.141C264.874 229.917 265.301 229.662 265.784 229.397C266.758 228.862 268.073 228.225 269.49 227.628L269.502 227.623L269.515 227.618C270.772 227.115 272.263 226.166 273.626 225.007C274.995 223.844 276.12 222.566 276.726 221.475L276.744 221.443L276.763 221.412C280.567 215.284 283.516 207.413 285.098 200.091C285.888 196.435 286.329 192.951 286.374 189.921C286.42 186.866 286.062 184.386 285.343 182.666L285.34 182.658L285.336 182.65C284.322 180.144 282.462 179.025 280.355 179.025C278.15 179.025 275.417 180.262 272.936 183.079L272.92 183.096L272.904 183.113C271.779 184.313 270.572 185.446 269.535 186.291C269.019 186.711 268.52 187.082 268.077 187.355C267.856 187.491 267.622 187.621 267.388 187.72C267.184 187.807 266.844 187.932 266.451 187.932C265.259 187.932 264.276 187.169 263.545 186.381C262.766 185.54 261.99 184.36 261.219 182.922C259.673 180.037 258.012 175.85 256.335 170.529C255.019 166.581 254.166 164.372 253.512 163.298C253.479 163.243 253.448 163.194 253.419 163.151C251.343 164.717 248.728 164.301 246.832 163.121C244.847 161.886 243.228 159.598 243.228 156.888C243.228 154.437 244.275 152.226 245.852 150.784C247.278 149.48 249.24 148.736 251.254 149.203C251.058 148.586 250.906 147.554 250.775 146.365C250.633 145.087 250.5 143.464 250.382 141.614C250.144 137.912 249.963 133.254 249.89 128.528C249.744 119.976 249.631 115.78 249.089 113.186C248.831 111.955 248.488 111.156 248.021 110.45C247.528 109.705 246.864 109.009 245.839 107.984L245.808 107.952L245.779 107.92C245.325 107.409 244.463 106.696 243.176 105.817C241.912 104.954 240.315 103.983 238.458 102.947C234.745 100.876 230.049 98.5816 225.02 96.4262Z" fill="#240071" stroke="#240071" stroke-width="3"/>
<path d="M149.723 78.9719C145.088 82.0132 147.116 89.3993 152.619 89.3993C157.688 89.3993 160.15 85.7787 158.122 81.4339C156.529 77.8133 152.909 76.7995 149.723 78.9719Z" fill="black"/>
<path d="M75.572 104.171C71.6617 108.082 74.703 114.019 80.496 114.019C83.6822 114.019 85.4201 111.557 85.4201 106.778C85.4201 102.723 78.7581 100.985 75.572 104.171Z" fill="black"/>
<path d="M221.99 103.302C220.976 103.737 220.107 105.62 220.107 107.502C220.107 113.875 227.349 116.192 230.824 110.688C233.721 106.054 227.638 100.985 221.99 103.302Z" fill="black"/>
<path d="M100.192 162.101C95.4131 166.881 100.337 173.398 107.144 171.225C112.502 169.487 110.04 160.363 104.247 160.363C102.944 160.363 101.206 161.088 100.192 162.101Z" fill="black"/>
<path d="M197.225 162.101C192.88 166.446 197.225 172.963 203.452 171.37C209.39 169.777 207.652 160.363 201.28 160.363C199.977 160.363 198.239 161.087 197.225 162.101Z" fill="black"/>
<path d="M76.4408 176.439C70.9375 179.48 74.8478 187.156 81.3649 186.142C83.8269 185.852 84.8407 184.549 85.1303 181.508C85.8544 175.715 81.7994 173.253 76.4408 176.439Z" fill="black"/>
<path d="M124.813 176.149C123.654 176.873 123.075 179.191 123.365 181.508C123.654 184.984 124.523 185.852 127.999 186.142C134.227 186.866 136.834 181.508 132.344 177.163C129.882 174.556 127.71 174.267 124.813 176.149Z" fill="black"/>
<path d="M173.039 176.873C170.577 178.611 170.432 179.48 172.025 182.666C175.067 189.328 183.756 187.011 182.598 179.915C181.729 174.846 177.674 173.542 173.039 176.873Z" fill="black"/>
<path d="M221.556 176.873C220.687 178.032 220.108 180.494 220.398 182.377C220.687 185.128 221.701 185.708 225.901 185.708C230.101 185.708 231.115 185.128 231.404 182.377C231.984 178.322 229.377 174.846 225.901 174.846C224.453 174.846 222.57 175.86 221.556 176.873Z" fill="black"/>
<path d="M99.4682 188.749C97.151 191.211 98.5993 196.714 102.075 198.307C106.709 200.335 110.33 197.583 109.751 192.37C109.461 189.328 108.447 188.459 104.972 188.17C102.51 187.88 100.048 188.17 99.4682 188.749Z" fill="black"/>
<path d="M197.37 188.749C194.039 190.197 195.198 196.57 199.108 198.307C203.743 200.335 207.363 197.583 206.784 192.37C206.494 189.473 205.481 188.604 202.729 188.315C200.701 188.17 198.239 188.459 197.37 188.749Z" fill="black"/>
<path d="M50.6629 202.363C49.5043 204.39 49.5043 206.128 50.6629 208.3C52.8353 212.211 59.3524 211.487 60.9454 207.142C63.2626 200.77 53.849 196.425 50.6629 202.363Z" fill="black"/>
<path d="M136.11 201.638C132.344 206.273 137.992 213.369 143.061 210.183C147.985 206.997 146.247 199.466 140.454 199.466C139.006 199.466 137.123 200.48 136.11 201.638Z" fill="black"/>
<path d="M160.73 201.638C156.964 206.273 162.613 213.369 167.681 210.183C172.605 206.997 170.868 199.466 165.075 199.466C163.626 199.466 161.744 200.48 160.73 201.638Z" fill="black"/>
<path d="M245.306 201.638C243.569 205.983 246.031 211.052 249.796 211.052C254.286 211.052 257.037 206.418 254.865 202.363C252.982 198.887 246.465 198.452 245.306 201.638Z" fill="black"/>
<path d="M65.145 263.189C62.9726 267.244 65.7243 271.878 70.2138 271.878C74.7034 271.878 77.4551 267.244 75.2827 263.189C74.4138 261.451 72.2414 260.292 70.2138 260.292C68.1863 260.292 66.0139 261.451 65.145 263.189Z" fill="black"/>
<path d="M114.675 262.03C110.33 266.375 114.675 272.892 120.903 271.299C126.84 269.706 125.103 260.292 118.73 260.292C117.427 260.292 115.689 261.017 114.675 262.03Z" fill="black"/>
<path d="M182.742 262.03C178.832 265.941 181.874 271.878 187.811 271.878C190.129 271.878 191.287 270.865 192.011 268.258C193.604 262.03 187.087 257.686 182.742 262.03Z" fill="black"/>
<path d="M230.246 263.189C228.073 267.244 230.825 271.878 235.314 271.878C239.804 271.878 242.556 267.244 240.383 263.189C239.514 261.451 237.342 260.292 235.314 260.292C233.287 260.292 231.115 261.451 230.246 263.189Z" fill="black"/>
<path d="M137.268 273.471C133.937 275.354 133.937 279.554 137.412 282.595C139.585 284.623 140.888 284.768 143.205 283.464C147.116 281.437 147.26 275.354 143.495 273.327C140.164 271.589 140.309 271.589 137.268 273.471Z" fill="black"/>
<path d="M161.453 273.761C156.385 277.527 161.309 286.216 167.246 284.044C170.867 282.595 171.736 276.078 168.695 273.761C167.102 272.747 165.509 271.878 165.074 271.878C164.64 271.878 163.047 272.747 161.453 273.761Z" fill="black"/>
<path d="M132.923 302.436C129.447 304.319 129.592 310.547 133.068 312.429C138.861 315.471 143.785 309.533 140.164 303.885C138.137 300.554 136.544 300.264 132.923 302.436Z" fill="black"/>
<path d="M166.088 303.45C162.902 307.071 163.047 308.954 166.812 311.56C168.984 313.153 170.578 313.298 172.605 312.285C176.081 310.402 175.936 304.319 172.46 302.292C168.84 300.409 168.84 300.409 166.088 303.45Z" fill="black"/>
<path d="M83.3931 310.836C80.4966 314.022 80.4966 315.905 83.3931 318.802C86.2896 321.843 87.7378 321.698 91.2136 318.222C93.5308 315.905 93.8205 314.602 92.8067 312.574C90.6343 308.809 85.9999 307.94 83.3931 310.836Z" fill="black"/>
<path d="M216.197 309.678C211.997 311.271 211.708 317.498 215.618 319.67C220.832 322.277 225.466 318.077 223.728 312.429C222.714 309.098 220.252 308.229 216.197 309.678Z" fill="black"/>
<path d="M107.433 315.615C103.088 319.96 107.433 326.477 113.66 324.884C116.412 324.16 117.281 323.001 117.281 319.815C117.281 314.312 111.343 311.705 107.433 315.615Z" fill="black"/>
<path d="M189.695 316.05C185.929 320.684 191.577 327.781 196.646 324.595C201.57 321.408 199.832 313.877 194.039 313.877C192.591 313.877 190.708 314.891 189.695 316.05Z" fill="black"/>
<path d="M131.765 327.491C129.013 330.822 130.606 336.325 134.372 336.76C140.744 337.774 144.075 332.126 139.585 327.781C136.834 324.884 134.082 324.884 131.765 327.491Z" fill="black"/>
<path d="M165.943 327.781C163.047 330.533 163.047 333.284 165.654 335.601C168.985 338.353 174.488 336.76 174.923 332.995C175.936 326.622 170.288 323.291 165.943 327.781Z" fill="black"/>
<path d="M107.433 337.339C103.088 341.684 107.433 348.201 113.66 346.608C119.598 345.015 117.86 335.601 111.488 335.601C110.185 335.601 108.447 336.325 107.433 337.339Z" fill="black"/>
<path d="M189.695 337.774C185.929 342.408 191.577 349.505 196.646 346.318C199.688 344.291 200.701 338.498 198.095 336.905C195.198 335.022 191.722 335.312 189.695 337.774Z" fill="black"/>
<path d="M147.985 354.863C145.813 357.47 147.406 362.828 150.592 363.842C156.24 365.58 161.454 359.497 157.833 355.153C155.661 352.401 150.013 352.401 147.985 354.863Z" fill="black"/>
<path d="M111.15 343.352L153.918 359.135L192.104 343.352M111.15 343.352L89.2561 315.858M111.15 343.352L135.08 331.132M89.2561 315.858L69.3993 267.998M89.2561 315.858L111.15 318.912M89.2561 315.858L118.787 265.961M69.3993 267.998L57.1797 204.863M69.3993 267.998L118.787 265.961M57.1797 204.863V158.021M57.1797 204.863L118.787 265.961M57.1797 204.863L104.531 192.643M57.1797 158.021L79.5823 109.652M57.1797 158.021L79.5823 182.46M79.5823 109.652L153.918 83.6854M79.5823 109.652L104.531 166.677M153.918 83.6854L226.217 109.652M153.918 83.6854L104.531 166.677M153.918 83.6854L201.269 166.677M226.217 109.652L251.166 158.021M226.217 109.652L201.269 166.677M251.166 158.021V204.863M251.166 158.021L226.217 182.46M251.166 204.863L236.4 267.998M251.166 204.863L201.269 192.643M251.166 204.863L187.013 265.961M236.4 267.998L218.58 315.858M236.4 267.998L187.013 265.961M218.58 315.858L192.104 343.352M218.58 315.858L196.177 318.912M218.58 315.858L187.013 265.961M192.104 343.352L169.702 331.132M169.702 331.132H135.08M169.702 331.132L196.177 318.912M135.08 331.132L111.15 318.912M111.15 318.912L135.08 307.711M111.15 318.912L118.787 265.961M135.08 307.711H169.702M135.08 307.711L140.68 278.69M169.702 307.711L196.177 318.912M169.702 307.711L165.119 278.69M196.177 318.912L187.013 265.961M165.119 278.69H140.68M165.119 278.69L187.013 265.961M140.68 278.69L118.787 265.961M118.787 265.961L140.68 204.863M118.787 265.961L104.531 192.643M140.68 204.863L104.531 192.643M140.68 204.863L128.97 180.424M140.68 204.863H165.119M104.531 192.643L79.5823 182.46M104.531 192.643L128.97 180.424M79.5823 182.46L104.531 166.677M104.531 166.677L128.97 180.424M128.97 180.424H177.339M165.119 204.863L187.013 265.961M165.119 204.863L201.269 192.643M165.119 204.863L177.339 180.424M187.013 265.961L201.269 192.643M201.269 192.643L177.339 180.424M201.269 192.643L226.217 182.46M177.339 180.424L201.269 166.677M201.269 166.677L226.217 182.46" stroke="#240071" stroke-width="5"/>
</svg>
