<svg width="432" height="467" viewBox="0 0 432 467" fill="none" xmlns="http://www.w3.org/2000/svg">
<path d="M317.28 173.13L293.44 191.861L315.829 211.584C330.146 224.197 349.692 229.08 368.258 224.683C375.724 222.914 382.771 219.703 389.003 215.228L421.55 191.861L391.265 170.894C383.564 165.563 374.76 162.036 365.508 160.575C348.385 157.871 330.91 162.421 317.28 173.13Z" fill="#51DF9B" stroke="#240071" stroke-width="12"/>
<path d="M268.58 171.956L292.364 190.489L270.037 209.994C255.67 222.545 236.134 227.402 217.562 223.04C210.085 221.284 203.022 218.09 196.766 213.636L164.254 190.489L194.501 169.723C202.229 164.418 211.047 160.911 220.308 159.461C237.434 156.779 254.906 161.302 268.58 171.956Z" fill="#51DF9B" stroke="#240071" stroke-width="12"/>
<path d="M266.591 164.074L293.44 192.938L318.83 161.745C326.903 151.827 332.453 140.1 335.006 127.569L336.294 121.243C340.557 100.316 336.184 78.5533 324.168 60.8969L290.211 11L257.067 62.8774C246.524 79.379 242.471 99.2022 245.69 118.518L246.465 123.166C249.017 138.481 256.016 152.707 266.591 164.074Z" fill="#51DF9B"/>
<path d="M77.0527 341.502V402.179C77.0527 418.417 83.7654 433.933 95.6005 445.05V445.05C106.507 455.296 120.909 461 135.874 461H225.186C246.488 461 266.568 451.055 279.478 434.111V434.111C288.535 422.223 293.44 407.691 293.44 392.746V192.938M293.44 98.201V192.938M293.44 192.938H225.617M293.44 192.938H354.804M293.44 192.938L266.591 164.074C256.016 152.707 249.017 138.481 246.465 123.166L245.69 118.518C242.471 99.2022 246.524 79.379 257.067 62.8774L290.211 11L324.168 60.8969C336.184 78.5533 340.557 100.316 336.294 121.243L335.006 127.569C332.453 140.1 326.903 151.827 318.83 161.745L293.44 192.938Z" stroke="#240071" stroke-width="12"/>
<path d="M77.0526 338.273L69.5601 338.094C48.4404 337.591 31.4372 320.593 30.9283 299.474L29.6842 247.842H23.7632C13.9528 247.842 6 239.889 6 230.079C6 220.269 13.9528 212.316 23.7632 212.316H49.0622H109.349H131.419C141.229 212.316 149.182 220.269 149.182 230.079C149.182 239.889 141.229 247.842 131.419 247.842H126.574V298.462C126.574 319.989 109.371 337.57 87.849 338.038L77.0526 338.273Z" fill="#51DF9B"/>
<path d="M29.6842 247.842L30.9283 299.474C31.4372 320.593 48.4404 337.591 69.5601 338.094L77.0526 338.273L87.849 338.038C109.371 337.57 126.574 319.989 126.574 298.462V247.842M29.6842 247.842H126.574M29.6842 247.842H23.7632C13.9528 247.842 6 239.889 6 230.079V230.079C6 220.269 13.9528 212.316 23.7632 212.316H49.0622M126.574 247.842H131.419C141.229 247.842 149.182 239.889 149.182 230.079V230.079C149.182 220.269 141.229 212.316 131.419 212.316H109.349M49.0622 212.316V148.799M49.0622 212.316H109.349M109.349 212.316V148.799" stroke="#240071" stroke-width="12"/>
</svg>
