<svg width="430" height="215" viewBox="0 0 430 215" fill="none" xmlns="http://www.w3.org/2000/svg">
<path d="M48.6696 8.2948L48.7444 8.25353L48.8203 8.21442C50.7432 7.22385 52.8027 6.91708 56.2506 6.70117C59.8445 6.47611 65.8863 6.32802 76.4875 6.22603C97.7598 6.02139 137.947 5.99996 215 5.99996C292.054 5.99996 332.241 6.02139 353.513 6.22603C364.114 6.32802 370.156 6.47611 373.75 6.70117C377.198 6.91708 379.257 7.22385 381.18 8.21442L381.256 8.25353L381.331 8.29479C383.751 9.62996 385.507 11.5475 387.413 14.3265C389.263 17.0241 391.607 21.0713 395.023 27.2195C397.352 31.3614 399.473 35.1921 401.018 38.0427C401.789 39.4643 402.431 40.6694 402.888 41.5567C403.112 41.9929 403.317 42.4006 403.475 42.738C403.55 42.8979 403.649 43.1147 403.742 43.3444C403.785 43.4536 403.861 43.6489 403.936 43.8883L403.938 43.897C403.97 43.9942 404.216 44.755 404.216 45.7186C404.216 48.277 402.69 49.806 402.066 50.3305C401.387 50.9016 400.741 51.1866 400.482 51.2949C399.909 51.5341 399.41 51.6387 399.239 51.6739C398.801 51.7641 398.366 51.8129 398.075 51.842C397.427 51.9066 396.585 51.9577 395.642 52.0012C393.722 52.0898 391.002 52.1635 387.712 52.223C381.115 52.3421 372.044 52.4067 362.089 52.4067H325.962H324.007L322.427 51.2548L318.342 48.2761C318.336 48.2711 318.329 48.2661 318.322 48.2611C296.804 32.8827 267.259 32.3799 244.791 47.1184C244.791 47.1185 244.791 47.1186 244.791 47.1187C244.789 47.12 244.787 47.1212 244.785 47.1224L238.254 51.4192L236.753 52.4067H234.956H133.37C105.408 52.4067 79.9973 52.3422 61.572 52.2238C52.3625 52.1647 44.8821 52.0919 39.696 52.0068C37.1092 51.9643 35.0603 51.9182 33.6431 51.8679C32.9469 51.8432 32.3371 51.8152 31.8723 51.7812C31.6637 51.7659 31.3511 51.7402 31.0346 51.6932C30.9175 51.6758 30.5414 51.6197 30.0968 51.4866C29.9195 51.4335 29.3488 51.26 28.703 50.8721C28.6994 50.8699 28.695 50.8673 28.6898 50.8642C28.4114 50.6988 25.7842 49.1376 25.7842 45.7186C25.7842 44.7552 26.0306 43.9944 26.0621 43.897C26.0634 43.8929 26.0644 43.89 26.0649 43.8883C26.1392 43.6489 26.2152 43.4536 26.259 43.3444C26.3511 43.1147 26.4503 42.8979 26.5254 42.738C26.684 42.4006 26.8886 41.9929 27.113 41.5568C27.5696 40.6694 28.2116 39.4643 28.9821 38.0427C30.5268 35.1927 32.6474 31.3628 34.9766 27.2218C38.3931 21.0724 40.7376 17.0244 42.588 14.3265C44.4939 11.5475 46.2496 9.62997 48.6696 8.2948Z" fill="#51DF9B" stroke="#240071" stroke-width="12"/>
<path d="M272.627 31.8452L272.632 31.8446C289.751 29.8694 308.945 34.8855 322.363 45.0676C322.363 45.0677 322.363 45.0678 322.364 45.0679L325.305 47.2881H364.411C383.37 47.2881 393.85 47.3301 399.98 47.5612C406.059 47.7904 408.725 48.2086 411.468 49.4681C413.914 50.589 416.136 51.9189 418.045 53.9139C419.943 55.8978 421.192 58.1844 422.242 60.6846L422.243 60.6877C422.88 62.2078 423.167 63.9163 423.355 65.8774C423.551 67.905 423.681 70.7064 423.773 74.6859C423.957 82.6735 424 95.9773 424 118.575C424 136.048 423.914 149.401 423.752 158.603C423.671 163.198 423.57 166.801 423.449 169.382C423.389 170.665 423.321 171.754 423.242 172.611C423.203 173.036 423.155 173.464 423.095 173.86C423.054 174.125 422.957 174.741 422.729 175.402C422.269 176.757 421.48 178.124 420.796 179.162C420.078 180.253 419.165 181.45 418.18 182.447L418.126 182.504C417.085 183.605 415.739 185.028 413.968 186.145C411.985 187.395 409.839 188.061 407.33 188.456C402.769 189.173 395.421 189.174 382.475 189.174C373.177 189.174 367.121 189.239 363.335 189.394C362.548 189.427 361.889 189.462 361.34 189.499C361.287 189.625 361.232 189.755 361.176 189.89C360.457 191.616 359.563 193.882 358.687 196.258L358.684 196.268L358.68 196.279L355.411 205.052L353.956 208.958H349.789H327.682H305.576H301.394L299.947 205.034L296.689 196.205C296.688 196.2 296.686 196.196 296.685 196.192C295.808 193.854 294.913 191.608 294.193 189.891C294.185 189.872 294.177 189.853 294.169 189.834C293.178 189.786 291.966 189.74 290.545 189.695C286.002 189.552 279.539 189.431 271.771 189.335C256.245 189.141 235.625 189.045 214.989 189.045C194.354 189.045 173.729 189.141 158.192 189.335C150.418 189.431 143.948 189.552 139.397 189.695C138.001 189.739 136.807 189.784 135.823 189.831C135.209 191.714 133.856 195.344 132.698 198.384L132.694 198.393L132.691 198.402L130.11 205.112L128.631 208.958H124.51H102.318H80.2114H76.0439L74.589 205.052L71.3203 196.279L71.3165 196.268L71.3127 196.258C70.4372 193.882 69.543 191.616 68.8238 189.89C68.7678 189.755 68.7132 189.625 68.66 189.499C68.1113 189.462 67.4518 189.427 66.6647 189.394C62.8792 189.239 56.8225 189.174 47.525 189.174C34.5793 189.174 27.2306 189.173 22.6699 188.456C20.1607 188.061 18.0154 187.395 16.0324 186.145C14.2608 185.028 12.9151 183.605 11.8743 182.504C11.8562 182.485 11.8382 182.466 11.8203 182.447C10.8352 181.45 9.92218 180.253 9.20391 179.162C8.52039 178.124 7.73201 176.759 7.27206 175.405C7.04314 174.743 6.94614 174.126 6.90542 173.86C6.84477 173.463 6.79735 173.036 6.75807 172.61C6.67894 171.753 6.6111 170.664 6.5509 169.379C6.42989 166.796 6.32922 163.187 6.24823 158.582C6.08602 149.357 6 135.962 6 118.403C6 93.8452 6.04232 80.5091 6.27154 72.9231C6.4947 65.5375 6.87815 62.6533 8.18226 59.8149C9.30268 57.3713 10.6322 55.1509 12.6258 53.2432C14.6096 51.3448 16.8963 50.0966 19.3965 49.0465L19.429 49.0329L19.4616 49.0196C21.2283 48.3019 23.5745 48.078 26.4733 47.9146C29.6932 47.733 34.632 47.6058 42.3141 47.5144C57.7121 47.3311 84.5264 47.2881 131.564 47.2881H236.191L238.619 45.4283L238.632 45.4186L238.644 45.409C248.02 38.3065 260.473 33.2584 272.627 31.8452ZM362.32 187.301C362.335 187.275 362.342 187.261 362.342 187.26C362.342 187.26 362.335 187.273 362.32 187.301ZM293.023 187.261C293.023 187.263 293.031 187.277 293.045 187.302C293.029 187.272 293.022 187.26 293.023 187.261ZM133.061 190.02C133.062 190.02 133.067 190.02 133.077 190.018C133.066 190.019 133.061 190.02 133.061 190.02ZM67.6577 187.26C67.6579 187.261 67.6654 187.276 67.6797 187.301C67.6647 187.272 67.6575 187.259 67.6577 187.26ZM295.859 145.885L295.862 145.884C318.353 137.67 331.32 114.566 326.545 91.9557C322.801 74.3826 308.267 59.5737 291.565 55.8813C289.329 55.3976 286.174 54.9757 283.166 54.731C280.027 54.4756 277.749 54.4732 276.951 54.5787C260.362 57.1966 249.243 64.2094 241.526 76.0115L241.522 76.0177L241.518 76.024C238.709 80.2974 236.973 83.9113 235.901 87.6962C234.821 91.5069 234.333 95.775 234.333 101.458C234.333 109.288 234.65 111.429 236.098 115.844C240.971 130.692 254.024 142.959 268.974 146.829L268.985 146.832C272.123 147.651 277.305 148.03 282.793 147.825C288.318 147.618 293.212 146.853 295.859 145.885ZM388.091 76.6476L388.092 76.6246L388.093 76.6017C388.118 76.0095 388.137 75.4307 388.151 74.8757C384.808 74.8131 380.244 74.7712 375.25 74.7712H362.928V76.5127V78.2542H375.336H388.035L388.091 76.6476ZM108.769 95.4576H187.496V92.8559V90.2542H108.769H30.0424V92.8559V95.4576H108.769Z" fill="#51DF9B" stroke="#240071" stroke-width="12"/>
<path d="M269.326 54.8543L269.331 54.8531C272.312 54.1335 276.449 53.6521 279.861 53.4587C281.587 53.3609 283.305 53.3262 284.737 53.3991C285.433 53.4346 286.234 53.5033 287.001 53.654C287.38 53.7287 287.907 53.8529 288.476 54.074C288.916 54.2453 289.955 54.6864 290.9 55.6761C292.224 57.0557 292.549 58.6475 292.608 59.5957C292.667 60.5492 292.498 61.3219 292.38 61.7564C292.139 62.6392 291.759 63.3624 291.503 63.8055C290.947 64.7684 290.2 65.7273 289.419 66.5692C287.474 68.6742 286.317 72.4299 286.655 75.1312C287.02 77.3301 288.361 79.6604 290.453 81.4824C292.568 83.3252 295.021 84.2754 297.146 84.2754C299.021 84.2754 301.368 83.4546 303.425 81.8885C305.52 80.2943 306.584 78.4981 306.825 77.2599L306.84 77.1815L306.858 77.1035C307.085 76.08 307.403 75.0023 307.815 74.0559C308.006 73.616 308.328 72.9448 308.823 72.2801C309.068 71.951 309.507 71.4163 310.172 70.9155C310.811 70.4339 312.105 69.6526 313.919 69.6526C316.063 69.6526 317.491 70.756 317.832 71.0204C318.381 71.4462 318.788 71.8935 319.031 72.1788C319.539 72.7742 319.993 73.4488 320.358 74.0298C321.119 75.2402 321.953 76.7866 322.745 78.3822C324.306 81.5265 326.024 85.5106 326.898 88.4885C327.979 92.1179 328.454 96.7762 328.488 101.13C328.523 105.486 328.122 110.162 327.11 113.857C320.495 138.866 294.849 154.048 269.714 148.157L269.71 148.157C253.399 144.324 239.942 131.887 234.996 116.077C233.592 111.649 232.996 106.279 233.031 101.18C233.066 96.0861 233.734 90.7492 235.2 86.3951C240.411 70.683 253.46 58.6975 269.326 54.8543ZM318.819 78.8406C318.819 78.8406 318.819 78.8406 318.819 78.8407C318.819 78.8407 318.819 78.8407 318.819 78.8406L318.819 78.8406ZM260.899 120.497L260.87 120.539L260.84 120.581C260.443 121.141 260.431 121.624 260.538 121.988C260.648 122.36 260.948 122.81 261.618 123.105C262.454 123.44 262.849 123.296 263.007 123.226C263.275 123.108 263.624 122.813 263.86 122.307C264.096 121.801 264.092 121.357 264.016 121.096C263.973 120.95 263.838 120.556 263.011 120.129C262.513 119.875 262.158 119.778 261.947 119.743C261.748 119.71 261.665 119.729 261.656 119.731L261.656 119.732C261.656 119.732 261.655 119.732 261.655 119.732C261.649 119.733 261.605 119.742 261.506 119.815C261.393 119.898 261.175 120.092 260.899 120.497Z" fill="#51DF9B" stroke="#240071" stroke-width="12"/>
</svg>
