<svg width="371" height="371" viewBox="0 0 371 371" fill="none" xmlns="http://www.w3.org/2000/svg">
<circle cx="274.74" cy="272.674" r="90.8914" fill="#51DF9B"/>
<circle cx="183.848" cy="185.914" r="183.848" fill="#51DF9B"/>
<path d="M170.435 0.162354C160.18 1.00381 144.14 4.0015 133.884 6.94662C77.7695 23.2499 31.9098 65.7438 11.3992 120.334C6.66596 133.113 3.3527 146.366 0.986088 162.091C-0.328696 171.295 -0.328696 198.642 0.986088 208.635C8.03333 260.7 34.5394 305.297 76.8228 336.169C97.4386 351.21 122.998 362.412 148.084 367.46C163.178 370.511 166.964 370.826 184.898 370.879C195.732 370.879 203.2 370.616 206.461 370.195C215.191 368.986 223.342 367.46 229.811 365.83L236.017 364.252L238.857 365.357C242.801 366.829 250.059 368.775 255.633 369.88C262.313 371.247 282.402 371.247 289.397 369.932C310.802 365.883 329.629 355.733 344.092 340.481C357.03 326.755 365.234 310.977 369.336 291.729C370.651 285.681 370.756 284.156 370.756 272.796C370.809 258.702 370.02 253.495 366.286 241.977L364.235 235.666L365.286 231.932C366.759 226.621 368.757 216.26 369.757 208.897C370.966 200.272 371.387 179.604 370.598 170.138C366.496 122.174 344.197 77.7346 308.54 46.4953C279.563 21.1989 247.64 6.57849 209.038 1.16159C203.252 0.320099 176.852 -0.310974 170.435 0.162354ZM199.887 11.9954C245.904 15.9398 287.504 37.2918 317.691 72.4229C350.824 110.972 365.392 162.617 357.345 212.789C356.767 216.418 356.241 219.416 356.136 219.521C356.03 219.626 354.347 217.417 352.349 214.577C339.885 196.907 318.217 182.181 297.233 177.132C286.662 174.608 283.612 174.24 272.726 174.24C251.637 174.187 235.544 178.973 217.978 190.491C189.526 209.108 172.855 241.241 174.012 275.426C174.643 294.043 179.166 309.242 188.579 324.441C196.047 336.432 204.567 345.214 218.346 355.154L219.871 356.258L216.453 356.89C205.198 358.888 200.202 359.256 185.424 359.256C169.804 359.309 166.649 359.046 153.396 356.627C121.473 350.789 91.0751 335.38 66.8305 312.765C36.9586 284.945 18.2361 248.499 12.6088 207.32C11.294 197.643 11.2414 173.241 12.5562 163.932C18.1835 123.962 34.8023 90.1988 62.4128 62.4831C80.1887 44.6546 101.541 30.9283 125.522 21.9878C137.461 17.5701 153.764 13.6783 165.702 12.5213C168.91 12.2058 172.224 11.8376 173.065 11.7324C176.746 11.3117 194.102 11.4695 199.887 11.9954ZM281.193 186.073C286.978 186.651 293.71 188.019 298.495 189.544L301.388 190.491L301.546 205.321L301.651 220.205H272.515H243.38L243.432 205.374L243.537 190.543L247.324 189.333C258 186.02 269.675 184.863 281.193 186.073ZM231.704 213.894V231.775H240.592C245.536 231.775 249.638 231.985 249.848 232.248C250.006 232.511 251.321 240.978 252.741 251.076C254.161 261.121 255.476 270.166 255.633 271.06L255.949 272.796H261.103C265.573 272.796 266.362 272.901 266.678 273.69C266.835 274.216 266.941 280.685 266.888 288.048L266.783 301.458L272.62 301.616L278.511 301.774V287.311V272.849L283.875 272.691L289.239 272.533L292.027 252.811C293.552 241.977 294.919 232.827 295.077 232.458C295.235 231.932 297.549 231.775 304.28 231.775H313.221V213.841C313.221 193.488 312.695 195.171 317.849 198.274C328.157 204.427 338.938 214.945 345.722 225.464C351.245 233.984 356.293 246.763 358.239 257.282C359.607 264.644 359.607 280.422 358.239 287.785C352.086 321.022 327.841 347.528 295.34 356.574C287.399 358.783 283.139 359.309 272.2 359.256C263.101 359.256 260.524 359.046 255.896 358.047C235.491 353.734 217.873 343.058 204.883 327.228C190.473 309.663 183.478 286.049 186.003 263.435C187.58 249.13 192.471 235.719 200.57 223.623C204.567 217.628 213.876 207.74 219.24 203.744C223.079 200.904 230.653 196.065 231.336 196.013C231.547 196.013 231.704 204.059 231.704 213.894ZM282.876 232.143C283.191 232.616 279.247 260.121 278.879 260.49C278.563 260.805 266.415 260.858 266.099 260.542C265.731 260.174 261.839 232.301 262.102 232.038C262.523 231.617 282.613 231.722 282.876 232.143Z" fill="#240071"/>
<path d="M147.558 47.6524C141.615 49.5983 135.462 51.8597 133.885 52.7012C125.943 56.7507 117.423 65.3757 113.427 73.4222C112.585 75.0525 110.481 80.8901 108.746 86.4122C105.117 97.7194 103.487 100.664 97.8069 106.239C92.9159 111.078 89.2871 112.971 78.1903 116.547C72.7734 118.283 67.7772 119.86 66.9884 120.018C65.1477 120.491 65.1477 121.017 67.1461 127.013C68.3031 130.536 68.9868 131.851 69.5127 131.641C69.8809 131.483 75.3504 129.695 81.6614 127.696C95.6507 123.174 99.6476 120.965 106.8 113.707C113.321 107.133 115.425 103.347 119.527 90.8299C123.524 78.6287 125.049 75.631 129.782 70.5822C135.357 64.5868 138.355 62.9565 151.292 58.7492C157.498 56.6981 162.81 54.9626 163.178 54.8574C163.599 54.6471 163.283 53.1219 162.074 49.4405C160.759 45.4436 160.128 44.2866 159.339 44.1814C158.813 44.1288 153.501 45.7065 147.558 47.6524Z" fill="#240071"/>
<path d="M202.621 45.9696C202.515 46.2326 201.884 47.9681 201.253 49.914C199.044 56.6457 193.259 63.7981 186.423 68.2158C183.951 69.7935 180.322 71.2661 172.486 73.7904C160.705 77.577 156.393 79.7859 150.766 84.8346C142.509 92.1974 139.669 96.8781 135.146 110.604C133.253 116.337 130.991 122.437 130.045 124.173C127.941 128.117 121.577 134.691 117.317 137.216C115.424 138.373 110.112 140.424 104.17 142.37C90.3381 146.945 86.6041 148.943 79.7672 155.675C73.0881 162.249 70.3008 167.193 66.4616 179.131C65.0417 183.654 63.4113 188.703 62.8854 190.333C61.9914 193.173 61.9388 193.436 62.7802 193.857C64.6209 194.803 72.6148 197.012 72.9304 196.644C73.0881 196.433 74.9814 191.069 77.0325 184.706C81.082 172.294 82.5546 169.402 87.4982 164.3C92.2314 159.409 96.1757 157.306 107.22 153.729C121.946 148.891 126.205 146.472 133.568 138.636C139.511 132.325 141.72 128.17 145.717 115.706C149.609 103.715 151.87 99.5602 157.445 94.4588C162.02 90.2515 165.596 88.3582 174.484 85.4657C178.902 84.0457 184.056 82.2577 185.949 81.574C194.942 78.2607 205.145 68.7417 209.878 59.2752C211.824 55.4361 213.928 49.1777 213.454 48.757C212.981 48.3362 204.198 45.6015 203.41 45.6015C203.094 45.6015 202.726 45.7592 202.621 45.9696Z" fill="#240071"/>
<path d="M230.653 64.6395C229.181 69.3727 227.708 74.0534 227.393 75.0526C225.867 79.9436 222.081 85.7287 217.611 89.8834C212.877 94.301 209.564 95.984 198.888 99.5076C184.688 104.136 179.903 106.765 173.171 113.918C166.702 120.755 165.124 123.805 160.444 138.004C156.552 149.943 155.5 151.889 149.452 157.884C144.14 163.091 141.301 164.616 130.204 168.139C125.418 169.664 120.264 171.453 118.739 172.136C110.482 175.765 100.753 185.179 96.335 193.804C95.8616 194.751 93.9158 200.167 92.0751 205.9C88.2359 217.523 86.8685 220.257 82.5034 224.991C77.1391 230.776 73.4051 232.932 63.2024 236.245C53.6308 239.348 46.0576 242.293 46.0576 242.819C46.0576 243.345 49.7916 252.496 50.1597 252.917C50.3701 253.074 51.9478 252.654 53.6834 251.97C55.4189 251.234 60.7306 249.393 65.5164 247.868C74.7199 244.923 78.1383 243.398 82.9767 240.084C89.6033 235.614 97.0186 226.674 99.6482 220.047C100.227 218.522 101.91 213.473 103.435 208.792C104.96 204.007 106.958 198.853 108.01 197.065C111.586 191.017 119.423 184.18 125.102 182.129C126.312 181.708 131.098 180.13 135.726 178.658C140.354 177.132 145.455 175.239 147.086 174.345C154.501 170.453 163.284 161.513 166.965 154.203C167.859 152.362 169.805 147.103 171.278 142.527C172.698 137.952 174.275 133.271 174.749 132.114C177.168 126.224 183.426 119.282 189.527 115.653C191.788 114.286 196.364 112.498 202.517 110.552C212.509 107.396 215.454 106.134 220.135 102.926C226.13 98.8765 232.704 91.4085 235.912 85.045C237.543 81.7317 244.59 59.9063 244.169 59.433C243.749 59.0648 234.808 56.1197 233.967 56.1197C233.651 56.1197 232.178 59.9589 230.653 64.6395Z" fill="#240071"/>
<path d="M253.056 101.243C252.32 103.452 250.742 106.765 249.585 108.553C247.008 112.497 240.224 118.966 236.648 120.912C235.228 121.648 229.338 123.857 223.553 125.75C217.189 127.854 211.72 129.958 209.668 131.167C202.411 135.48 195.101 143.106 191.262 150.416C190.367 152.099 188.264 157.884 186.528 163.301C182.899 174.503 181.059 178.026 175.957 183.18C170.488 188.702 167.595 190.28 156.288 193.961C150.766 195.75 144.666 197.958 142.772 198.958C138.197 201.219 131.833 206.373 128.257 210.685C123.787 216.102 121.525 220.625 117.844 231.932C114.005 243.66 111.954 247.447 106.589 252.653C102.592 256.493 98.7007 258.859 93.4942 260.752C91.2327 261.489 89.4446 262.33 89.4972 262.488C89.5498 262.698 90.2335 265.065 91.075 267.8C92.232 271.481 92.8105 272.796 93.4942 272.796C95.1245 272.796 102.75 269.851 105.748 268.01C112.953 263.698 120.105 256.335 123.682 249.551C124.733 247.447 127.153 241.136 128.993 235.509C132.833 223.728 134.515 220.625 140.406 215.103C145.507 210.212 148.4 208.687 159.444 205.216C170.33 201.745 175.221 199.378 180.533 194.961C189.105 187.861 192.681 182.023 197.257 167.876C199.15 162.091 201.412 156.043 202.358 154.465C204.567 150.521 212.245 143.053 216.19 140.949C217.925 140.055 223.237 138.057 228.023 136.532C238.489 133.218 241.118 132.114 245.431 129.169C249.375 126.487 256.107 119.965 258.421 116.547C261.313 112.287 265.363 103.031 265.363 100.77C265.363 100.401 255.686 97.1407 254.687 97.1407C254.529 97.1407 253.793 98.9814 253.056 101.243Z" fill="#240071"/>
<path d="M220.659 284.366L218.029 289.625L222.763 291.992C225.339 293.307 227.759 294.359 228.179 294.359C228.811 294.359 233.281 285.997 233.281 284.734C233.281 284.366 231.019 282.946 228.285 281.579L223.288 279.107L220.659 284.366Z" fill="#240071"/>
<path d="M316.534 281.631C313.851 282.999 311.643 284.261 311.643 284.524C311.643 285.418 316.113 293.99 316.691 294.201C317.059 294.306 319.479 293.359 322.108 291.992L326.894 289.625L325.947 287.627C325.369 286.575 324.317 284.314 323.476 282.631C322.687 281 321.898 279.528 321.688 279.423C321.53 279.317 319.163 280.317 316.534 281.631Z" fill="#240071"/>
<path d="M241.539 294.621C240.172 297.356 239.067 299.775 239.067 299.881C239.067 300.196 248.692 304.877 249.27 304.877C249.586 304.877 254.319 295.673 254.319 294.99C254.319 294.674 244.8 289.625 244.169 289.625C244.116 289.625 242.907 291.887 241.539 294.621Z" fill="#240071"/>
<path d="M295.602 292.097C293.025 293.412 290.816 294.569 290.711 294.621C290.396 294.884 295.55 304.877 295.97 304.877C296.549 304.877 305.857 300.196 305.857 299.881C305.857 299.302 300.966 289.625 300.651 289.678C300.493 289.678 298.232 290.782 295.602 292.097Z" fill="#240071"/>
<path d="M214.349 319.077V324.862H220.134H225.919V319.077V313.291H220.134H214.349V319.077Z" fill="#240071"/>
<path d="M237.489 319.077V324.862H243.274H249.059V319.077V313.291H243.274H237.489V319.077Z" fill="#240071"/>
<path d="M295.866 319.077V324.862H301.651H307.436V319.077V313.291H301.651H295.866V319.077Z" fill="#240071"/>
<path d="M319.006 319.077V324.862H324.791H330.576V319.077V313.291H324.791H319.006V319.077Z" fill="#240071"/>
</svg>
