<svg width="1527" height="32768" viewBox="0 0 1527 32768" fill="none" xmlns="http://www.w3.org/2000/svg">
<path d="M99.7738 1801.46C99.7738 1801.46 159.488 1654.56 267.047 1577.85C400.06 1482.99 381.922 1513.48 494.781 1410.15C560.343 1350.12 579.426 1237.36 579.426 1237.36" stroke="#15766A" stroke-width="302.637" stroke-linecap="round"/>
<path d="M0.072671 32671.3V32767.6H192.583V32671.3H0.072671ZM192.583 865.786C192.583 812.625 149.488 769.53 96.328 769.53C43.1676 769.53 0.072671 812.625 0.072671 865.786H192.583ZM192.583 32671.3V865.786H0.072671V32671.3H192.583Z" fill="#15766A"/>
<circle cx="552.301" cy="788.215" r="202.086" fill="#51DF9B"/>
<circle cx="774.956" cy="245.152" r="244.63" fill="#0DBC93"/>
<circle cx="1010.15" cy="1550.28" r="244.63" fill="#0DBC93"/>
<path d="M1526.67 893.049C1526.67 1066.34 1386.19 1206.81 1212.9 1206.81C1039.61 1206.81 899.136 1066.34 899.136 893.049C899.136 719.762 1039.61 579.284 1212.9 579.284C1386.19 579.284 1526.67 719.762 1526.67 893.049Z" fill="#51DF9B"/>
</svg>
