<svg width="973" height="374" viewBox="0 0 973 374" fill="none" xmlns="http://www.w3.org/2000/svg">
<path d="M0 171.54L24.814 374L629 199.288L571.591 105L0 171.54Z" fill="#96D7E3"/>
<path d="M572 105.614L629.143 200L705 172.223L660.447 33L572 105.614Z" fill="#F46E20"/>
<path d="M661 32.954L718.931 26L783 146.509L705.508 172L661 32.954Z" fill="#F46E20"/>
<path d="M765.027 50L719 26.0053L774.958 10L797 43.8359L765.027 50Z" fill="#96D7E3"/>
<path d="M829 93.7784L847.932 116L926 78.7878L898.507 57L829 93.7784Z" fill="#F46E20"/>
<path d="M898.351 57L898 27.9954L943.377 13L956 19.2342L898.351 57Z" fill="#96D7E3"/>
<path d="M719 26L751 41.4348L783 60.7667V146L719 26Z" fill="#F46E20"/>
<path d="M783 146V98.97L828.849 94L848 116.139L783 146Z" fill="#96D7E3"/>
<path d="M783 99V61.1114L829 50V94.0048L783 99Z" fill="#96D7E3"/>
<path d="M829 49.904V94L898 57.0954L897.65 28L829 49.904Z" fill="#F46E20"/>
<path d="M775 10.2198L796.801 44L847 13.7289L839.684 0L775 10.2198Z" fill="#F46E20"/>
<path d="M925.651 79L898 57.0446L956.124 19L973 27.8259L925.651 79Z" fill="#96D7E3"/>
</svg>
