<svg width="859" height="494" viewBox="0 0 859 494" fill="none" xmlns="http://www.w3.org/2000/svg">
<path d="M709.137 162L662 153.456L712.029 103L750 113.534L709.137 162Z" fill="#96D7E3"/>
<path d="M710.323 182L694 158.833L764.258 132L780 159.095L710.323 182Z" fill="#96D7E3"/>
<path d="M710.668 224L710 189.61L782.384 165L787 195.012L710.668 224Z" fill="#96D7E3"/>
<path d="M574.369 136.89L500 191L539.955 72L585 74.4381L574.369 136.89Z" fill="#96D7E3"/>
<path d="M495 195.221L529.021 305L636 288.602L574.481 137L495 195.221Z" fill="#F46E20"/>
<path d="M708.941 152.917L714 274.22L635.85 289L574 137L708.941 152.917Z" fill="#F46E20"/>
<path d="M713.828 274L712 229.851L779.709 206L785 233.002L713.828 274Z" fill="#96D7E3"/>
<path d="M764 131.605L780.045 159L815 123.39L792.68 109L764 131.605Z" fill="#F46E20"/>
<path d="M782 165.05L786.53 195L836 158.045L814.876 141L782 165.05Z" fill="#F46E20"/>
<path d="M780 205.978L785.348 233L822 205.677L813.136 185L780 205.978Z" fill="#F46E20"/>
<path d="M712 102.423L750.017 113L759 64.0353L723.74 64L712 102.423Z" fill="#F46E20"/>
<path d="M759 64L724.116 63.9645L718 23.35L739.849 16L759 64Z" fill="#96D7E3"/>
<path d="M815.021 123L793 108.692L818.748 71L834 75.2098L815.021 123Z" fill="#96D7E3"/>
<path d="M836.556 158L815 140.7L839.135 101L857 103.429L836.556 158Z" fill="#96D7E3"/>
<path d="M821.88 206L813 185.255L846.352 155L859 158.843L821.88 206Z" fill="#96D7E3"/>
<path d="M0 258.692L19.9824 494L529 305.035L494.875 195L0 258.692Z" fill="#96D7E3"/>
<path d="M540 71.5479L585.147 74L644 19.3209L637.68 0L540 71.5479Z" fill="#F46E20"/>
</svg>
