<svg width="859" height="494" viewBox="0 0 859 494" fill="none" xmlns="http://www.w3.org/2000/svg">
<path d="M149.863 162L197 153.456L146.971 103L109 113.534L149.863 162Z" fill="#96D7E3"/>
<path d="M149.487 182L166 158.833L94.9251 132L79 159.095L149.487 182Z" fill="#96D7E3"/>
<path d="M148.34 224L149 189.61L77.5562 165L73 195.012L148.34 224Z" fill="#96D7E3"/>
<path d="M284.631 137.435L359 192L319.044 72L274 74.4586L284.631 137.435Z" fill="#96D7E3"/>
<path d="M365 195.221L330.738 305L223 288.602L284.955 137L365 195.221Z" fill="#F46E20"/>
<path d="M150.055 152.914L145 274.22L223.15 289L285 137L150.055 152.914Z" fill="#F46E20"/>
<path d="M145.172 274L147 229.85L79.2907 206L74 233.002L145.172 274Z" fill="#96D7E3"/>
<path d="M95 131.605L79.2699 159L45 123.39L66.8824 109L95 131.605Z" fill="#F46E20"/>
<path d="M77 165.05L72.4704 195L23 158.045L44.1238 141L77 165.05Z" fill="#F46E20"/>
<path d="M79 205.978L73.6517 233L37 205.677L45.8645 185L79 205.978Z" fill="#F46E20"/>
<path d="M147 102.423L108.983 113L100 64.0353L135.26 64L147 102.423Z" fill="#F46E20"/>
<path d="M100 64L135.735 63.9649L142 23.3503L119.618 16L100 64Z" fill="#96D7E3"/>
<path d="M44.9785 123L67 108.692L41.2521 71L26 75.2098L44.9785 123Z" fill="#96D7E3"/>
<path d="M22.9578 158L44 140.7L20.4401 101L3 103.429L22.9578 158Z" fill="#96D7E3"/>
<path d="M37.12 206L46 185.255L12.648 155L0 158.843L37.12 206Z" fill="#96D7E3"/>
<path d="M859 258.692L839.005 494L330 305.035L364.124 195L859 258.692Z" fill="#96D7E3"/>
<path d="M319 71.5479L274.288 74L216 19.3209L222.259 0L319 71.5479Z" fill="#F46E20"/>
</svg>
