<svg width="905" height="533" viewBox="0 0 905 533" fill="none" xmlns="http://www.w3.org/2000/svg">
<path d="M131 68.7317L118.405 102L61 75.8874L72.8177 48L131 68.7317Z" fill="#F46E20"/>
<path d="M223 101.293L215.159 135L119 101.386L131.558 68L223 101.293Z" fill="#96D7E3"/>
<path d="M233 60.6687L224.983 95L138 61.9779L150.048 27L233 60.6687Z" fill="#96D7E3"/>
<path d="M150 26.7758L137.902 62L87 36.1484L97.9744 7L150 26.7758Z" fill="#F46E20"/>
<path d="M98 7.36282L87.0975 36L47 18.4043L52.0833 0L98 7.36282Z" fill="#96D7E3"/>
<path d="M8.40884 28L0 46.2789L61.1823 76L73 47.8358L8.40884 28Z" fill="#96D7E3"/>
<path d="M67 95.5788L56.8885 121L7 93.1L13.611 79L67 95.5788Z" fill="#96D7E3"/>
<path d="M122 171.011L117.035 200L79 185.519L87.8259 158L122 171.011Z" fill="#F46E20"/>
<path d="M201 195.671L192.998 230L117 200.156L122.002 171L201 195.671Z" fill="#96D7E3"/>
<path d="M88 158.096L79.2142 186L42 163.164L46.6661 149L88 158.096Z" fill="#96D7E3"/>
<path d="M117 113.397L107.027 146L57 121.241L67.1907 96L117 113.397Z" fill="#F46E20"/>
<path d="M213 145.368L203.981 184L107 146.128L117.031 113L213 145.368Z" fill="#96D7E3"/>
<path d="M417 140L324.616 88.0821L319 71.2987L369.916 56L417 140Z" fill="#96D7E3"/>
<path d="M319.003 72L370 56.5959L255 3L256.604 23.7265L319.003 72Z" fill="#F46E20"/>
<path d="M430 147.668L378.293 266L270 247.775L324.019 88L430 147.668Z" fill="#F46E20"/>
<path d="M232.735 60L193 229.811L270.177 248L324 87.9783L232.735 60Z" fill="#F46E20"/>
<path d="M905 332.212L828.858 533L378 266.288L429.542 148L905 332.212Z" fill="#96D7E3"/>
</svg>
