<svg width="626" height="648" viewBox="0 0 626 648" fill="none" xmlns="http://www.w3.org/2000/svg">
<path d="M154 204.246L135.061 218L60 186.603L120.195 155L154 204.246Z" fill="#96D7E3"/>
<path d="M145.284 243.962L152 271L97.623 256.501L86 237L145.284 243.962Z" fill="#96D7E3"/>
<path d="M506.649 648L626 528.53L326.107 274L275 357.819L506.649 648Z" fill="#96D7E3"/>
<path d="M274.794 358L326 274.206L289.795 242L235 345.72L274.794 358Z" fill="#F46E20"/>
<path d="M235.285 346L146 193.122L187.485 148L290 242.238L235.285 346Z" fill="#F46E20"/>
<path d="M184.491 259L235 346L127 313.161L135.606 266.099L184.491 259Z" fill="#96D7E3"/>
<path d="M126.477 313L135 266.597L63.2899 235L59 282.291L126.477 313Z" fill="#F46E20"/>
<path d="M63 234.821L58.6761 282L5 233.911L9.34618 219L63 234.821Z" fill="#96D7E3"/>
<path d="M187 148.176L145.594 193L90 120.67L120.795 90L187 148.176Z" fill="#96D7E3"/>
<path d="M62 44.3158L41.3855 67L0 13.0823L6.98109 0L62 44.3158Z" fill="#96D7E3"/>
<path d="M145 244L134.777 217.407L60 186L86.0164 237.119L145 244Z" fill="#F46E20"/>
<path d="M90.275 120L121 89.197L62.6559 44L42 66.5088L90.275 120Z" fill="#F46E20"/>
</svg>
