<svg width="626" height="647" viewBox="0 0 626 647" fill="none" xmlns="http://www.w3.org/2000/svg">
<path d="M472 203.246L490.939 217L566 185.603L505.805 154L472 203.246Z" fill="#96D7E3"/>
<path d="M480.716 242.962L474 270L528.377 255.501L540 236L480.716 242.962Z" fill="#96D7E3"/>
<path d="M119.351 647L0 527.85L299.893 274L351 357.595L119.351 647Z" fill="#96D7E3"/>
<path d="M351.206 357L300 273.206L336.205 241L391 344.72L351.206 357Z" fill="#F46E20"/>
<path d="M390.715 345L480 192.122L438.515 147L336 241.238L390.715 345Z" fill="#F46E20"/>
<path d="M441.509 259L391 345L499 312.538L490.391 266.017L441.509 259Z" fill="#96D7E3"/>
<path d="M499.638 312L491 265.597L563.654 234L568 281.29L499.638 312Z" fill="#F46E20"/>
<path d="M563 233.821L567.324 281L621 232.911L616.654 218L563 233.821Z" fill="#96D7E3"/>
<path d="M439 147.176L480.406 192L536 119.67L505.205 89L439 147.176Z" fill="#96D7E3"/>
<path d="M564 43.6543L584.615 66L626 12.8871L619.019 0L564 43.6543Z" fill="#96D7E3"/>
<path d="M481 243L491.224 216.407L566 185L539.984 236.119L481 243Z" fill="#F46E20"/>
<path d="M536.114 120L505 89.197L564.083 44L585 66.5088L536.114 120Z" fill="#F46E20"/>
</svg>
