<?xml version="1.0" encoding="UTF-8"?>
<svg width="1436px" height="606px" viewBox="0 0 1436 606" version="1.1" xmlns="http://www.w3.org/2000/svg" xmlns:xlink="http://www.w3.org/1999/xlink">
    <!-- Generator: Sketch 51.2 (57519) - http://www.bohemiancoding.com/sketch -->
    <title>Circuit</title>
    <desc>Created with Sketch.</desc>
    <defs></defs>
    <g id="Circuit" stroke="none" stroke-width="1" fill="none" fill-rule="evenodd">
        <g transform="translate(3.000000, 65.000000)" stroke="#6D727C" stroke-width="3">
            <path d="M64,1.974 L64,144.5" id="Stroke-1" stroke-linecap="round"></path>
            <path d="M84,147.5 L84,244.5" id="Stroke-3" stroke-linecap="round"></path>
            <path d="M84,17.5 L84,95.5" id="Stroke-4" stroke-linecap="round"></path>
            <path d="M105,1.5 L105,71.5" id="Stroke-5" stroke-linecap="round"></path>
            <path d="M104,121.5 L104,176.5" id="Stroke-6" stroke-linecap="round"></path>
            <path d="M140.5,141 L217,141" id="Stroke-19" stroke-linecap="round"></path>
            <path d="M217,141 L230,155" id="Stroke-21" stroke-linecap="round"></path>
            <path d="M140.5,163 L210,163" id="Stroke-22" stroke-linecap="round"></path>
            <path d="M210,163 L223,177" id="Stroke-24" stroke-linecap="round"></path>
            <path d="M140.5,184 L203,184" id="Stroke-25" stroke-linecap="round"></path>
            <path d="M203,184 L216,198" id="Stroke-27" stroke-linecap="round"></path>
            <path d="M140.5,204 L193,204" id="Stroke-28" stroke-linecap="round"></path>
            <path d="M205,218 L193,204" id="Stroke-29" stroke-linecap="round"></path>
            <path d="M205,218 L217,218" id="Stroke-30" stroke-linecap="round"></path>
            <path d="M217,353.5 L217,218" id="Stroke-31" stroke-linecap="round"></path>
            <path d="M90.075,11.038 C90.075,14.372 87.372,17.075 84.038,17.075 C80.703,17.075 78,14.372 78,11.038 C78,7.703 80.703,5 84.038,5 C87.372,5 90.075,7.703 90.075,11.038 Z" id="Stroke-210"></path>
            <path d="M90.075,102.037 C90.075,105.372 87.372,108.074 84.038,108.074 C80.703,108.074 78,105.372 78,102.037 C78,98.703 80.703,96 84.038,96 C87.372,96 90.075,98.703 90.075,102.037 Z" id="Stroke-214"></path>
            <path d="M70.075,151.037 C70.075,154.371 67.372,157.074 64.038,157.074 C60.703,157.074 58,154.371 58,151.037 C58,147.703 60.703,145 64.038,145 C67.372,145 70.075,147.703 70.075,151.037 Z" id="Stroke-218"></path>
            <path d="M110.075,78.037 C110.075,81.371 107.372,84.074 104.038,84.074 C100.703,84.074 98,81.371 98,78.037 C98,74.702 100.703,72 104.038,72 C107.372,72 110.075,74.702 110.075,78.037 Z" id="Stroke-222"></path>
            <path d="M90.075,141.037 C90.075,144.371 87.372,147.074 84.038,147.074 C80.703,147.074 78,144.371 78,141.037 C78,137.703 80.703,135 84.038,135 C87.372,135 90.075,137.703 90.075,141.037 Z" id="Stroke-226"></path>
            <path d="M90.075,251.038 C90.075,254.372 87.372,257.075 84.038,257.075 C80.703,257.075 78,254.372 78,251.038 C78,247.703 80.703,245 84.038,245 C87.372,245 90.075,247.703 90.075,251.038 Z" id="Stroke-230"></path>
            <path d="M110.075,115.037 C110.075,118.371 107.372,121.074 104.038,121.074 C100.703,121.074 98,118.371 98,115.037 C98,111.703 100.703,109 104.038,109 C107.372,109 110.075,111.703 110.075,115.037 Z" id="Stroke-234"></path>
            <path d="M110.075,183.038 C110.075,186.372 107.372,189.075 104.038,189.075 C100.703,189.075 98,186.372 98,183.038 C98,179.703 100.703,177 104.038,177 C107.372,177 110.075,179.703 110.075,183.038 Z" id="Stroke-238"></path>
            <path d="M243.075,398.037 C243.075,401.371 240.372,404.074 237.038,404.074 C233.703,404.074 231,401.371 231,398.037 C231,394.702 233.703,392 237.038,392 C240.372,392 243.075,394.702 243.075,398.037 Z" id="Stroke-242"></path>
            <path d="M140.075,141.037 C140.075,144.371 137.372,147.074 134.038,147.074 C130.703,147.074 128,144.371 128,141.037 C128,137.703 130.703,135 134.038,135 C137.372,135 140.075,137.703 140.075,141.037 Z" id="Stroke-246"></path>
            <path d="M140.075,163.037 C140.075,166.372 137.372,169.075 134.038,169.075 C130.703,169.075 128,166.372 128,163.037 C128,159.703 130.703,157 134.038,157 C137.372,157 140.075,159.703 140.075,163.037 Z" id="Stroke-250"></path>
            <path d="M140.075,183.038 C140.075,186.372 137.372,189.075 134.038,189.075 C130.703,189.075 128,186.372 128,183.038 C128,179.703 130.703,177 134.038,177 C137.372,177 140.075,179.703 140.075,183.038 Z" id="Stroke-254"></path>
            <path d="M140.075,204.037 C140.075,207.371 137.372,210.074 134.038,210.074 C130.703,210.074 128,207.371 128,204.037 C128,200.703 130.703,198 134.038,198 C137.372,198 140.075,200.703 140.075,204.037 Z" id="Stroke-258"></path>
            <path d="M222.075,360.038 C222.075,363.372 219.372,366.075 216.038,366.075 C212.703,366.075 210,363.372 210,360.038 C210,356.703 212.703,354 216.038,354 C219.372,354 222.075,356.703 222.075,360.038 Z" id="Stroke-286"></path>
            <polygon id="Stroke-324" points="133 121.077 165.078 121.077 165.078 89 133 89"></polygon>
            <polygon id="Stroke-326" points="142 112.327 156.327 112.327 156.327 98 142 98"></polygon>
            <polygon id="Stroke-327" points="126 118.296 132.519 118.296 132.519 109 126 109"></polygon>
            <polygon id="Stroke-328" points="166 102.297 172.519 102.297 172.519 93 166 93"></polygon>
            <polygon id="Stroke-329" points="126 102.297 132.519 102.297 132.519 93 126 93"></polygon>
            <polygon id="Stroke-330" points="166 118.296 172.519 118.296 172.519 109 166 109"></polygon>
            <polygon id="Stroke-331" points="199 121.078 231.078 121.078 231.078 89 199 89"></polygon>
            <polygon id="Stroke-332" points="208 112.327 222.327 112.327 222.327 98 208 98"></polygon>
            <polygon id="Stroke-333" points="192 118.296 198.519 118.296 198.519 109 192 109"></polygon>
            <polygon id="Stroke-335" points="192 102.297 198.519 102.297 198.519 93 192 93"></polygon>
            <polygon id="Stroke-337" points="133 69.077 165.078 69.077 165.078 37 133 37"></polygon>
            <polygon id="Stroke-338" points="142 60.327 156.327 60.327 156.327 46 142 46"></polygon>
            <polygon id="Stroke-339" points="126 66.296 132.519 66.296 132.519 57 126 57"></polygon>
            <polygon id="Stroke-340" points="166 50.297 172.519 50.297 172.519 41 166 41"></polygon>
            <polygon id="Stroke-341" points="126 50.297 132.519 50.297 132.519 41 126 41"></polygon>
            <polygon id="Stroke-342" points="166 66.296 172.519 66.296 172.519 57 166 57"></polygon>
            <polygon id="Stroke-343" points="199 69.077 231.078 69.077 231.078 37 199 37"></polygon>
            <polygon id="Stroke-344" points="207 60.327 221.327 60.327 221.327 46 207 46"></polygon>
            <polygon id="Stroke-345" points="192 66.296 198.519 66.296 198.519 57 192 57"></polygon>
            <polygon id="Stroke-347" points="192 50.297 198.519 50.297 198.519 41 192 41"></polygon>
            <polygon id="Stroke-349" points="133 17 165.078 17 165.078 0 133 0"></polygon>
            <polygon id="Stroke-350" points="141 8 155.327 8 155.327 1 141 1"></polygon>
            <polygon id="Stroke-351" points="126 14.297 132.519 14.297 132.519 5 126 5"></polygon>
            <polygon id="Stroke-354" points="165 14.297 171.519 14.297 171.519 5 165 5"></polygon>
            <polygon id="Stroke-355" points="199 17 231.078 17 231.078 0 199 0"></polygon>
            <polygon id="Stroke-356" points="207 8 221.327 8 221.327 1 207 1"></polygon>
            <polygon id="Stroke-357" points="192 14.297 198.519 14.297 198.519 5 192 5"></polygon>
            <path d="M258,1.6683 L258,75.5" id="Stroke-11" stroke-linecap="round"></path>
            <path d="M279,1.6683 L279,135.5" id="Stroke-13" stroke-linecap="round"></path>
            <path d="M300,1.6683 L300,134.5" id="Stroke-15" stroke-linecap="round"></path>
            <path d="M258,128.5 L258,206.5" id="Stroke-18" stroke-linecap="round"></path>
            <path d="M230,155 L258,155" id="Stroke-20" stroke-linecap="round"></path>
            <path d="M223,177 L258,177" id="Stroke-23" stroke-linecap="round"></path>
            <path d="M216,198 L258,198" id="Stroke-26" stroke-linecap="round"></path>
            <path d="M237,234.5 L237,391.5" id="Stroke-32" stroke-linecap="round"></path>
            <path d="M258,261.5 L258,335.5" id="Stroke-34" stroke-linecap="round"></path>
            <path d="M279,189.5 L279,268.5" id="Stroke-35" stroke-linecap="round"></path>
            <path d="M300,189.5 L300,268.5" id="Stroke-36" stroke-linecap="round"></path>
            <path d="M320.5,189.5 L320.5,269.5" id="Stroke-37" stroke-linecap="round"></path>
            <path d="M300,42 L371.5,42" id="Stroke-38" stroke-linecap="round"></path>
            <path d="M300,64 L372.5,64" id="Stroke-39" stroke-linecap="round"></path>
            <path d="M425.5,42 L525.5,42" id="Stroke-40" stroke-linecap="round"></path>
            <path d="M424.5,64 L526.5,64" id="Stroke-41" stroke-linecap="round"></path>
            <path d="M320,134.5 L320,86" id="Stroke-42" stroke-linecap="round"></path>
            <path d="M542,86 L320,86" id="Stroke-43" stroke-linecap="round"></path>
            <path d="M542,203.5 L542,86" id="Stroke-44" stroke-linecap="round"></path>
            <path d="M341.667,147.5 L341.667,222.5" id="Stroke-45" stroke-linecap="round"></path>
            <path d="M356.5,104 L501,104" id="Stroke-46" stroke-linecap="round"></path>
            <path d="M501,364.5 L501,102" id="Stroke-47" stroke-linecap="round"></path>
            <path d="M363.667,189.5 L363.667,378.5" id="Stroke-48" stroke-linecap="round"></path>
            <path d="M383,190.5 L383,377.5" id="Stroke-49" stroke-linecap="round"></path>
            <path d="M342,155 L370,155" id="Stroke-50" stroke-linecap="round"></path>
            <path d="M395,126 L477,126.666" id="Stroke-51" stroke-linecap="round"></path>
            <path d="M370,155 L395,126" id="Stroke-52" stroke-linecap="round"></path>
            <path d="M416.5,330 L459,330" id="Stroke-53" stroke-linecap="round"></path>
            <path d="M478,126 L479,308" id="Stroke-54" stroke-linecap="round"></path>
            <path d="M460,329 L478.5,308.5" id="Stroke-55" stroke-linecap="round"></path>
            <path d="M415.5,351 L459,351" id="Stroke-56" stroke-linecap="round"></path>
            <path d="M481,373 L459,351" id="Stroke-57" stroke-linecap="round"></path>
            <path d="M481,395.5 L481,373" id="Stroke-58" stroke-linecap="round"></path>
            <path d="M542,86 L523,105" id="Stroke-59" stroke-linecap="round"></path>
            <path d="M523,104 L523,395.5" id="Stroke-60" stroke-linecap="round"></path>
            <path d="M542,253.5 L542,330.5" id="Stroke-61" stroke-linecap="round"></path>
            <path d="M583,154.5 L583,428.5" id="Stroke-62" stroke-linecap="round"></path>
            <path d="M604,1.6683 L604,405.5" id="Stroke-63" stroke-linecap="round"></path>
            <path d="M561,2.6683 L561,304.5" id="Stroke-65" stroke-linecap="round"></path>
            <path d="M624,1.6683 L624,56.5" id="Stroke-67" stroke-linecap="round"></path>
            <path d="M624,110.5 L624,372.5" id="Stroke-70" stroke-linecap="round"></path>
            <path d="M643,1.6683 L643,338.5" id="Stroke-71" stroke-linecap="round"></path>
            <path d="M667,1.1273 L667,308.5" id="Stroke-73" stroke-linecap="round"></path>
            <path d="M687,1.1273 L687,286.5" id="Stroke-75" stroke-linecap="round"></path>
            <path d="M561,42 L583,24" id="Stroke-78" stroke-linecap="round"></path>
            <path d="M583,1.974 L583,24" id="Stroke-79" stroke-linecap="round"></path>
            <path d="M583,54 L604,33" id="Stroke-81" stroke-linecap="round"></path>
            <path d="M583,97.5 L583,54" id="Stroke-82" stroke-linecap="round"></path>
            <path d="M709,1.974 L709,147.5" id="Stroke-83" stroke-linecap="round"></path>
            <path d="M709,202.5 L709,312.5" id="Stroke-85" stroke-linecap="round"></path>
            <path d="M727,1.974 L728.5,172.5" id="Stroke-86" stroke-linecap="round"></path>
            <path d="M763.5,17.5 L969,16" id="Stroke-88" stroke-linecap="round"></path>
            <path d="M753,133.5 L753,38" id="Stroke-89" stroke-linecap="round"></path>
            <path d="M968.667,16 L968.667,106.5" id="Stroke-90" stroke-linecap="round"></path>
            <path d="M858,38 L753,38" id="Stroke-91" stroke-linecap="round"></path>
            <path d="M884,63 L858,38" id="Stroke-92" stroke-linecap="round"></path>
            <path d="M884,130 L884.667,64" id="Stroke-93" stroke-linecap="round"></path>
            <path d="M899,141 L1020,141" id="Stroke-94" stroke-linecap="round"></path>
            <path d="M884,130 L899,141" id="Stroke-95" stroke-linecap="round"></path>
            <path d="M904.007,17 L904.007,84.5" id="Stroke-96" stroke-linecap="round"></path>
            <path d="M926.002,17 L926.002,107.5" id="Stroke-97" stroke-linecap="round"></path>
            <path d="M946,17 L946,88.5" id="Stroke-98" stroke-linecap="round"></path>
            <path d="M1020,1.974 L1020,92" id="Stroke-99" stroke-linecap="round"></path>
            <path d="M1035,109.667 L1197,109" id="Stroke-101" stroke-linecap="round"></path>
            <path d="M1020,92 L1035,109" id="Stroke-102" stroke-linecap="round"></path>
            <path d="M1197,109 L1224,80" id="Stroke-103" stroke-linecap="round"></path>
            <path d="M1288.5,80 L1224,80" id="Stroke-104" stroke-linecap="round"></path>
            <path d="M789.5,164.666 L892.5,164.666" id="Stroke-105" stroke-linecap="round"></path>
            <path d="M944.5,164 L1020,164" id="Stroke-106" stroke-linecap="round"></path>
            <path d="M1020,130 L1020,185" id="Stroke-107" stroke-linecap="round"></path>
            <path d="M961.5,185 L1020,185" id="Stroke-108" stroke-linecap="round"></path>
            <path d="M769,184 L909.5,184" id="Stroke-109" stroke-linecap="round"></path>
            <path d="M710,246 L736.5,216.5" id="Stroke-110" stroke-linecap="round"></path>
            <path d="M758.5,227.5 L731,259" id="Stroke-111" stroke-linecap="round"></path>
            <path d="M779.5,239.5 L753,268" id="Stroke-112" stroke-linecap="round"></path>
            <path d="M800.5,249.5 L773,280" id="Stroke-113" stroke-linecap="round"></path>
            <path d="M833,184 L833,335.5" id="Stroke-114" stroke-linecap="round"></path>
            <path d="M731.29,259 L731.29,352.5" id="Stroke-115" stroke-linecap="round"></path>
            <path d="M753,268 L753,386.5" id="Stroke-116" stroke-linecap="round"></path>
            <path d="M773,280 L773,421.5" id="Stroke-117" stroke-linecap="round"></path>
            <path d="M792,315.5 L792,384" id="Stroke-118" stroke-linecap="round"></path>
            <path d="M813,355 L813,383.5" id="Stroke-119" stroke-linecap="round"></path>
            <path d="M792,336 L813,355" id="Stroke-120" stroke-linecap="round"></path>
            <path d="M855,184 L855,399.5" id="Stroke-122" stroke-linecap="round"></path>
            <path d="M874,206 L874,386.5" id="Stroke-123" stroke-linecap="round"></path>
            <path d="M1045,206 L874,206" id="Stroke-124" stroke-linecap="round"></path>
            <path d="M1045,242.5 L1045,206" id="Stroke-125" stroke-linecap="round"></path>
            <path d="M895,350.5 L895,228" id="Stroke-126" stroke-linecap="round"></path>
            <path d="M915,301.5 L915,228" id="Stroke-127" stroke-linecap="round"></path>
            <path d="M937,228 L937,338.5" id="Stroke-128" stroke-linecap="round"></path>
            <path d="M959,228 L959,401.5" id="Stroke-129" stroke-linecap="round"></path>
            <path d="M979,228 L979,347.5" id="Stroke-130" stroke-linecap="round"></path>
            <path d="M1001,228 L1001,372.5" id="Stroke-131" stroke-linecap="round"></path>
            <path d="M1024,250 L1024,418.5" id="Stroke-132" stroke-linecap="round"></path>
            <path d="M895,228.583 L1001,228" id="Stroke-133" stroke-linecap="round"></path>
            <path d="M1024,250 L1001,228" id="Stroke-134" stroke-linecap="round"></path>
            <path d="M1067,296.5 L1067,373.5" id="Stroke-137" stroke-linecap="round"></path>
            <path d="M1085.5,191.5 L1087.5,392.5" id="Stroke-138" stroke-linecap="round"></path>
            <path d="M1066,191.5 L1066,221" id="Stroke-139" stroke-linecap="round"></path>
            <path d="M1086,242 L1066,222" id="Stroke-140" stroke-linecap="round"></path>
            <path d="M1107,190.5 L1107,265.5" id="Stroke-141" stroke-linecap="round"></path>
            <path d="M1063.5,130 L1020,130" id="Stroke-142" stroke-linecap="round"></path>
            <path d="M1062.5,152 L1020,152" id="Stroke-143" stroke-linecap="round"></path>
            <path d="M1114.5,130 L1195,130" id="Stroke-144" stroke-linecap="round"></path>
            <path d="M1113.5,152 L1211,152" id="Stroke-145" stroke-linecap="round"></path>
            <path d="M1145.5,179 L1192,179" id="Stroke-146" stroke-linecap="round"></path>
            <path d="M1128,289.5 L1128,200" id="Stroke-147" stroke-linecap="round"></path>
            <path d="M1151,302.5 L1151,199.5" id="Stroke-148" stroke-linecap="round"></path>
            <path d="M1170.5,200.5 L1170.5,248.5" id="Stroke-149" stroke-linecap="round"></path>
            <path d="M1180,262 L1180,302.5" id="Stroke-150" stroke-linecap="round"></path>
            <path d="M1171,249 L1180,262" id="Stroke-151" stroke-linecap="round"></path>
            <path d="M1202,219 L1202,325.5" id="Stroke-152" stroke-linecap="round"></path>
            <path d="M1221,203 L1221,378.5" id="Stroke-153" stroke-linecap="round"></path>
            <path d="M1243,203 L1243,316.5" id="Stroke-154" stroke-linecap="round"></path>
            <path d="M1297,254 L1297,347.5" id="Stroke-155" stroke-linecap="round"></path>
            <path d="M1330,271 L1330,322.5" id="Stroke-156" stroke-linecap="round"></path>
            <path d="M1128,199.5 L1180,199" id="Stroke-157" stroke-linecap="round"></path>
            <path d="M1202,219 L1180,199" id="Stroke-158" stroke-linecap="round"></path>
            <path d="M1221,203 L1191,179" id="Stroke-159" stroke-linecap="round"></path>
            <path d="M1264,203 L1221,203" id="Stroke-160" stroke-linecap="round"></path>
            <path d="M1351,149.5 L1351,273.5" id="Stroke-161" stroke-linecap="round"></path>
            <path d="M1264,231 L1350,231" id="Stroke-162" stroke-linecap="round"></path>
            <path d="M1264,203 L1264,231" id="Stroke-163" stroke-linecap="round"></path>
            <path d="M1243,254 L1312,254" id="Stroke-164" stroke-linecap="round"></path>
            <path d="M1330,271 L1312,254" id="Stroke-165" stroke-linecap="round"></path>
            <path d="M1309,195.5 L1309,58" id="Stroke-174" stroke-linecap="round"></path>
            <path d="M1330,195.5 L1330,55" id="Stroke-175" stroke-linecap="round"></path>
            <path d="M1206,7 L1234,37" id="Stroke-176" stroke-linecap="round"></path>
            <path d="M1315,38 L1234,37" id="Stroke-177" stroke-linecap="round"></path>
            <path d="M1330,55 L1315,38" id="Stroke-178" stroke-linecap="round"></path>
            <path d="M1195,130 L1211,152" id="Stroke-179" stroke-linecap="round"></path>
            <path d="M1211,170 L1211,152" id="Stroke-180" stroke-linecap="round"></path>
            <path d="M1225,184 L1210.5,169.5" id="Stroke-181" stroke-linecap="round"></path>
            <path d="M1271,184 L1225,184" id="Stroke-182" stroke-linecap="round"></path>
            <path d="M1288,197 L1271,184" id="Stroke-183" stroke-linecap="round"></path>
            <path d="M1288.167,80 L1288.167,204.5" id="Stroke-184" stroke-linecap="round"></path>
            <path d="M1245.5,160 L1271,160" id="Stroke-185" stroke-linecap="round"></path>
            <path d="M1246.5,140 L1271,140" id="Stroke-186" stroke-linecap="round"></path>
            <path d="M1246.5,120 L1268,120" id="Stroke-187" stroke-linecap="round"></path>
            <path d="M1246.5,99 L1271,99" id="Stroke-188" stroke-linecap="round"></path>
            <path d="M1288,174 L1271,160" id="Stroke-189" stroke-linecap="round"></path>
            <path d="M1288,154 L1271,140" id="Stroke-190" stroke-linecap="round"></path>
            <path d="M1288,135 L1268,120" id="Stroke-191" stroke-linecap="round"></path>
            <path d="M1288,112 L1271,99" id="Stroke-192" stroke-linecap="round"></path>
            <path d="M1225,58.5 L1309,58" id="Stroke-193" stroke-linecap="round"></path>
            <path d="M1183,16 L1224,58" id="Stroke-194" stroke-linecap="round"></path>
            <path d="M1182.5,0.6683 L1182.5,15.248" id="Stroke-195" stroke-linecap="round"></path>
            <path d="M1206,6.248 L1206,0.6683" id="Stroke-197" stroke-linecap="round"></path>
            <path d="M1245,17 L1325,17.5" id="Stroke-200" stroke-linecap="round"></path>
            <path d="M1343.5,33.5 L1326,18" id="Stroke-201" stroke-linecap="round"></path>
            <path d="M1245,17 L1227,1.974" id="Stroke-202" stroke-linecap="round"></path>
            <path d="M1156.507,37.5 L1156.507,109" id="Stroke-203" stroke-linecap="round"></path>
            <path d="M1178.002,52.5 L1178.002,109" id="Stroke-204" stroke-linecap="round"></path>
            <path d="M1197,76.5 L1197,109" id="Stroke-205" stroke-linecap="round"></path>
            <path d="M264.075,81.038 C264.075,84.372 261.372,87.075 258.038,87.075 C254.703,87.075 252,84.372 252,81.038 C252,77.703 254.703,75 258.038,75 C261.372,75 264.075,77.703 264.075,81.038 Z" id="Stroke-262"></path>
            <path d="M264.075,122.037 C264.075,125.372 261.372,128.074 258.038,128.074 C254.703,128.074 252,125.372 252,122.037 C252,118.703 254.703,116 258.038,116 C261.372,116 264.075,118.703 264.075,122.037 Z" id="Stroke-266"></path>
            <path d="M264.075,213.037 C264.075,216.371 261.372,219.074 258.038,219.074 C254.703,219.074 252,216.371 252,213.037 C252,209.703 254.703,207 258.038,207 C261.372,207 264.075,209.703 264.075,213.037 Z" id="Stroke-270"></path>
            <path d="M243.075,229.037 C243.075,232.372 240.372,235.074 237.038,235.074 C233.703,235.074 231,232.372 231,229.037 C231,225.703 233.703,223 237.038,223 C240.372,223 243.075,225.703 243.075,229.037 Z" id="Stroke-274"></path>
            <path d="M264.075,255.037 C264.075,258.371 261.372,261.074 258.038,261.074 C254.703,261.074 252,258.371 252,255.037 C252,251.702 254.703,249 258.038,249 C261.372,249 264.075,251.702 264.075,255.037 Z" id="Stroke-278"></path>
            <path d="M264.075,342.037 C264.075,345.372 261.372,348.074 258.038,348.074 C254.703,348.074 252,345.372 252,342.037 C252,338.703 254.703,336 258.038,336 C261.372,336 264.075,338.703 264.075,342.037 Z" id="Stroke-282"></path>
            <path d="M285.075,276.037 C285.075,279.371 282.372,282.074 279.038,282.074 C275.703,282.074 273,279.371 273,276.037 C273,272.703 275.703,270 279.038,270 C282.372,270 285.075,272.703 285.075,276.037 Z" id="Stroke-290"></path>
            <path d="M306.075,276.038 C306.075,279.372 303.372,282.075 300.038,282.075 C296.703,282.075 294,279.372 294,276.038 C294,272.703 296.703,270 300.038,270 C303.372,270 306.075,272.703 306.075,276.038 Z" id="Stroke-294"></path>
            <path d="M327.075,276.037 C327.075,279.371 324.372,282.074 321.038,282.074 C317.703,282.074 315,279.371 315,276.037 C315,272.703 317.703,270 321.038,270 C324.372,270 327.075,272.703 327.075,276.037 Z" id="Stroke-298"></path>
            <path d="M285.075,183.038 C285.075,186.372 282.372,189.075 279.038,189.075 C275.703,189.075 273,186.372 273,183.038 C273,179.703 275.703,177 279.038,177 C282.372,177 285.075,179.703 285.075,183.038 Z" id="Stroke-302"></path>
            <path d="M305.075,183.038 C305.075,186.372 302.372,189.075 299.038,189.075 C295.703,189.075 293,186.372 293,183.038 C293,179.703 295.703,177 299.038,177 C302.372,177 305.075,179.703 305.075,183.038 Z" id="Stroke-306"></path>
            <path d="M327.075,183.038 C327.075,186.372 324.372,189.075 321.038,189.075 C317.703,189.075 315,186.372 315,183.038 C315,179.703 317.703,177 321.038,177 C324.372,177 327.075,179.703 327.075,183.038 Z" id="Stroke-310"></path>
            <path d="M284.075,141.037 C284.075,144.372 281.372,147.074 278.038,147.074 C274.703,147.074 272,144.372 272,141.037 C272,137.703 274.703,135 278.038,135 C281.372,135 284.075,137.703 284.075,141.037 Z" id="Stroke-314"></path>
            <path d="M305.075,141.037 C305.075,144.371 302.372,147.074 299.038,147.074 C295.703,147.074 293,144.371 293,141.037 C293,137.703 295.703,135 299.038,135 C302.372,135 305.075,137.703 305.075,141.037 Z" id="Stroke-318"></path>
            <path d="M326.075,141.037 C326.075,144.372 323.372,147.074 320.038,147.074 C316.703,147.074 314,144.372 314,141.037 C314,137.703 316.703,135 320.038,135 C323.372,135 326.075,137.703 326.075,141.037 Z" id="Stroke-322"></path>
            <polygon id="Stroke-334" points="231 102.297 237.519 102.297 237.519 93 231 93"></polygon>
            <polygon id="Stroke-336" points="232 118.296 238.519 118.296 238.519 109 232 109"></polygon>
            <polygon id="Stroke-346" points="231 50.297 237.519 50.297 237.519 41 231 41"></polygon>
            <polygon id="Stroke-348" points="231 66.296 237.519 66.296 237.519 57 231 57"></polygon>
            <polygon id="Stroke-360" points="231 14.297 237.519 14.297 237.519 5 231 5"></polygon>
            <path d="M384.075,42.037 C384.075,45.372 381.372,48.074 378.038,48.074 C374.703,48.074 372,45.372 372,42.037 C372,38.703 374.703,36 378.038,36 C381.372,36 384.075,38.703 384.075,42.037 Z" id="Stroke-362"></path>
            <path d="M384.075,64.037 C384.075,67.371 381.372,70.074 378.038,70.074 C374.703,70.074 372,67.371 372,64.037 C372,60.703 374.703,58 378.038,58 C381.372,58 384.075,60.703 384.075,64.037 Z" id="Stroke-364"></path>
            <path d="M425.075,42.037 C425.075,45.372 422.372,48.074 419.038,48.074 C415.703,48.074 413,45.372 413,42.037 C413,38.703 415.703,36 419.038,36 C422.372,36 425.075,38.703 425.075,42.037 Z" id="Stroke-366"></path>
            <path d="M425.075,64.037 C425.075,67.371 422.372,70.074 419.038,70.074 C415.703,70.074 413,67.371 413,64.037 C413,60.703 415.703,58 419.038,58 C422.372,58 425.075,60.703 425.075,64.037 Z" id="Stroke-368"></path>
            <path d="M356.075,104.037 C356.075,107.372 353.372,110.074 350.038,110.074 C346.703,110.074 344,107.372 344,104.037 C344,100.703 346.703,98 350.038,98 C353.372,98 356.075,100.703 356.075,104.037 Z" id="Stroke-370"></path>
            <path d="M348.075,141.037 C348.075,144.371 345.372,147.074 342.038,147.074 C338.703,147.074 336,144.371 336,141.037 C336,137.703 338.703,135 342.038,135 C345.372,135 348.075,137.703 348.075,141.037 Z" id="Stroke-372"></path>
            <path d="M348.075,229.037 C348.075,232.372 345.372,235.074 342.038,235.074 C338.703,235.074 336,232.372 336,229.037 C336,225.703 338.703,223 342.038,223 C345.372,223 348.075,225.703 348.075,229.037 Z" id="Stroke-374"></path>
            <path d="M369.075,183.038 C369.075,186.372 366.372,189.075 363.038,189.075 C359.703,189.075 357,186.372 357,183.038 C357,179.703 359.703,177 363.038,177 C366.372,177 369.075,179.703 369.075,183.038 Z" id="Stroke-376"></path>
            <path d="M389.075,184.037 C389.075,187.371 386.372,190.074 383.038,190.074 C379.703,190.074 377,187.371 377,184.037 C377,180.702 379.703,178 383.038,178 C386.372,178 389.075,180.702 389.075,184.037 Z" id="Stroke-378"></path>
            <path d="M369.075,384.037 C369.075,387.371 366.372,390.074 363.038,390.074 C359.703,390.074 357,387.371 357,384.037 C357,380.703 359.703,378 363.038,378 C366.372,378 369.075,380.703 369.075,384.037 Z" id="Stroke-380"></path>
            <path d="M389.075,384.037 C389.075,387.372 386.372,390.074 383.038,390.074 C379.703,390.074 377,387.372 377,384.037 C377,380.703 379.703,378 383.038,378 C386.372,378 389.075,380.703 389.075,384.037 Z" id="Stroke-382"></path>
            <path d="M416.075,349.038 C416.075,352.372 413.372,355.075 410.038,355.075 C406.703,355.075 404,352.372 404,349.038 C404,345.703 406.703,343 410.038,343 C413.372,343 416.075,345.703 416.075,349.038 Z" id="Stroke-384"></path>
            <path d="M416.075,329.038 C416.075,332.372 413.372,335.075 410.038,335.075 C406.703,335.075 404,332.372 404,329.038 C404,325.703 406.703,323 410.038,323 C413.372,323 416.075,325.703 416.075,329.038 Z" id="Stroke-386"></path>
            <path d="M548.075,337.038 C548.075,340.372 545.372,343.075 542.038,343.075 C538.703,343.075 536,340.372 536,337.038 C536,333.703 538.703,331 542.038,331 C545.372,331 548.075,333.703 548.075,337.038 Z" id="Stroke-388"></path>
            <path d="M507.075,371.038 C507.075,374.372 504.372,377.075 501.038,377.075 C497.703,377.075 495,374.372 495,371.038 C495,367.703 497.703,365 501.038,365 C504.372,365 507.075,367.703 507.075,371.038 Z" id="Stroke-390"></path>
            <path d="M529.075,402.038 C529.075,405.372 526.372,408.075 523.038,408.075 C519.703,408.075 517,405.372 517,402.038 C517,398.703 519.703,396 523.038,396 C526.372,396 529.075,398.703 529.075,402.038 Z" id="Stroke-390"></path>
            <path d="M488.075,402.038 C488.075,405.372 485.372,408.075 482.038,408.075 C478.703,408.075 476,405.372 476,402.038 C476,398.703 478.703,396 482.038,396 C485.372,396 488.075,398.703 488.075,402.038 Z" id="Stroke-392"></path>
            <path d="M548.075,248.037 C548.075,251.372 545.372,254.074 542.038,254.074 C538.703,254.074 536,251.372 536,248.037 C536,244.703 538.703,242 542.038,242 C545.372,242 548.075,244.703 548.075,248.037 Z" id="Stroke-396"></path>
            <path d="M548.075,211.037 C548.075,214.371 545.372,217.074 542.038,217.074 C538.703,217.074 536,214.371 536,211.037 C536,207.703 538.703,205 542.038,205 C545.372,205 548.075,207.703 548.075,211.037 Z" id="Stroke-398"></path>
            <path d="M538.075,63.038 C538.075,66.372 535.372,69.075 532.038,69.075 C528.703,69.075 526,66.372 526,63.038 C526,59.703 528.703,57 532.038,57 C535.372,57 538.075,59.703 538.075,63.038 Z" id="Stroke-400"></path>
            <path d="M538.075,42.037 C538.075,45.372 535.372,48.074 532.038,48.074 C528.703,48.074 526,45.372 526,42.037 C526,38.703 528.703,36 532.038,36 C535.372,36 538.075,38.703 538.075,42.037 Z" id="Stroke-402"></path>
            <polygon id="Stroke-403" points="409 162.713 450.75 162.713 450.75 147 409 147"></polygon>
            <polygon id="Stroke-404" points="402 159.5 409.25 159.5 409.25 150 402 150"></polygon>
            <polygon id="Stroke-405" points="451 159.5 458.25 159.5 458.25 150 451 150"></polygon>
            <polygon id="Stroke-406" points="409 198.713 450.75 198.713 450.75 183 409 183"></polygon>
            <polygon id="Stroke-407" points="402 195.5 409.25 195.5 409.25 186 402 186"></polygon>
            <polygon id="Stroke-408" points="451 195.5 458.25 195.5 458.25 186 451 186"></polygon>
            <polygon id="Stroke-409" points="409 235.713 450.75 235.713 450.75 220 409 220"></polygon>
            <polygon id="Stroke-410" points="402 232.5 409.25 232.5 409.25 223 402 223"></polygon>
            <polygon id="Stroke-411" points="451 232.5 458.25 232.5 458.25 223 451 223"></polygon>
            <polygon id="Stroke-412" points="409 271.713 450.75 271.713 450.75 256 409 256"></polygon>
            <polygon id="Stroke-413" points="402 268.5 409.25 268.5 409.25 259 402 259"></polygon>
            <polygon id="Stroke-414" points="451 268.5 458.25 268.5 458.25 259 451 259"></polygon>
            <polygon id="Stroke-415" points="410 308.713 451.75 308.713 451.75 293 410 293"></polygon>
            <polygon id="Stroke-416" points="403 305.5 410.25 305.5 410.25 296 403 296"></polygon>
            <polygon id="Stroke-417" points="452 305.5 459.25 305.5 459.25 296 452 296"></polygon>
            <path d="M589.075,104.037 C589.075,107.372 586.372,110.074 583.038,110.074 C579.703,110.074 577,107.372 577,104.037 C577,100.703 579.703,98 583.038,98 C586.372,98 589.075,100.703 589.075,104.037 Z" id="Stroke-419"></path>
            <path d="M589.075,148.037 C589.075,151.372 586.372,154.074 583.038,154.074 C579.703,154.074 577,151.372 577,148.037 C577,144.703 579.703,142 583.038,142 C586.372,142 589.075,144.703 589.075,148.037 Z" id="Stroke-421"></path>
            <path d="M630.075,63.038 C630.075,66.372 627.372,69.075 624.038,69.075 C620.703,69.075 618,66.372 618,63.038 C618,59.703 620.703,57 624.038,57 C627.372,57 630.075,59.703 630.075,63.038 Z" id="Stroke-423"></path>
            <path d="M630.075,104.037 C630.075,107.372 627.372,110.074 624.038,110.074 C620.703,110.074 618,107.372 618,104.037 C618,100.703 620.703,98 624.038,98 C627.372,98 630.075,100.703 630.075,104.037 Z" id="Stroke-425"></path>
            <path d="M714.074,154.037 C714.074,157.372 711.371,160.075 708.037,160.075 C704.702,160.075 702,157.372 702,154.037 C702,150.703 704.702,148 708.037,148 C711.371,148 714.074,150.703 714.074,154.037 Z" id="Stroke-427"></path>
            <path d="M715.075,196.037 C715.075,199.372 712.372,202.074 709.038,202.074 C705.703,202.074 703,199.372 703,196.037 C703,192.703 705.703,190 709.038,190 C712.372,190 715.075,192.703 715.075,196.037 Z" id="Stroke-429"></path>
            <path d="M734.074,179.038 C734.074,182.372 731.371,185.075 728.037,185.075 C724.702,185.075 722,182.372 722,179.038 C722,175.703 724.702,173 728.037,173 C731.371,173 734.074,175.703 734.074,179.038 Z" id="Stroke-431"></path>
            <path d="M759.074,140.037 C759.074,143.372 756.371,146.074 753.037,146.074 C749.702,146.074 747,143.372 747,140.037 C747,136.703 749.702,134 753.037,134 C756.371,134 759.074,136.703 759.074,140.037 Z" id="Stroke-433"></path>
            <path d="M789.074,163.037 C789.074,166.372 786.371,169.074 783.037,169.074 C779.702,169.074 777,166.372 777,163.037 C777,159.703 779.702,157 783.037,157 C786.371,157 789.074,159.703 789.074,163.037 Z" id="Stroke-435"></path>
            <path d="M768.296,183.583 L762.5,178.5" id="Stroke-436" stroke-linecap="round"></path>
            <path d="M764.075,174.038 C764.075,177.372 761.372,180.075 758.038,180.075 C754.703,180.075 752,177.372 752,174.038 C752,170.703 754.703,168 758.038,168 C761.372,168 764.075,170.703 764.075,174.038 Z" id="Stroke-438"></path>
            <path d="M746.075,211.037 C746.075,214.371 743.372,217.074 740.038,217.074 C736.703,217.074 734,214.371 734,211.037 C734,207.702 736.703,205 740.038,205 C743.372,205 746.075,207.702 746.075,211.037 Z" id="Stroke-440"></path>
            <path d="M768.075,223.037 C768.075,226.371 765.372,229.074 762.038,229.074 C758.703,229.074 756,226.371 756,223.037 C756,219.703 758.703,217 762.038,217 C765.372,217 768.075,219.703 768.075,223.037 Z" id="Stroke-442"></path>
            <path d="M789.074,235.037 C789.074,238.372 786.371,241.074 783.037,241.074 C779.702,241.074 777,238.372 777,235.037 C777,231.703 779.702,229 783.037,229 C786.371,229 789.074,231.703 789.074,235.037 Z" id="Stroke-444"></path>
            <path d="M811.075,245.037 C811.075,248.371 808.372,251.074 805.038,251.074 C801.703,251.074 799,248.371 799,245.037 C799,241.703 801.703,239 805.038,239 C808.372,239 811.075,241.703 811.075,245.037 Z" id="Stroke-446"></path>
            <path d="M798.074,309.037 C798.074,312.371 795.371,315.074 792.037,315.074 C788.702,315.074 786,312.371 786,309.037 C786,305.703 788.702,303 792.037,303 C795.371,303 798.074,305.703 798.074,309.037 Z" id="Stroke-448"></path>
            <path d="M839.074,344.037 C839.074,347.372 836.371,350.074 833.037,350.074 C829.702,350.074 827,347.372 827,344.037 C827,340.703 829.702,338 833.037,338 C836.371,338 839.074,340.703 839.074,344.037 Z" id="Stroke-452"></path>
            <path d="M862.074,407.037 C862.074,410.372 859.371,413.075 856.037,413.075 C852.702,413.075 850,410.372 850,407.037 C850,403.703 852.702,401 856.037,401 C859.371,401 862.074,403.703 862.074,407.037 Z" id="Stroke-454"></path>
            <path d="M880.074,393.037 C880.074,396.371 877.371,399.074 874.037,399.074 C870.702,399.074 868,396.371 868,393.037 C868,389.703 870.702,387 874.037,387 C877.371,387 880.074,389.703 880.074,393.037 Z" id="Stroke-456"></path>
            <path d="M901.074,358.037 C901.074,361.371 898.371,364.074 895.037,364.074 C891.702,364.074 889,361.371 889,358.037 C889,354.703 891.702,352 895.037,352 C898.371,352 901.074,354.703 901.074,358.037 Z" id="Stroke-458"></path>
            <path d="M922.074,310.037 C922.074,313.371 919.371,316.074 916.037,316.074 C912.702,316.074 910,313.371 910,310.037 C910,306.703 912.702,304 916.037,304 C919.371,304 922.074,306.703 922.074,310.037 Z" id="Stroke-460"></path>
            <path d="M965.074,410.037 C965.074,413.371 962.371,416.074 959.037,416.074 C955.702,416.074 953,413.371 953,410.037 C953,406.703 955.702,404 959.037,404 C962.371,404 965.074,406.703 965.074,410.037 Z" id="Stroke-462"></path>
            <path d="M984.075,353.037 C984.075,356.372 981.372,359.074 978.038,359.074 C974.703,359.074 972,356.372 972,353.037 C972,349.703 974.703,347 978.038,347 C981.372,347 984.075,349.703 984.075,353.037 Z" id="Stroke-468"></path>
            <path d="M943.074,345.037 C943.074,348.371 940.371,351.074 937.037,351.074 C933.702,351.074 931,348.371 931,345.037 C931,341.703 933.702,339 937.037,339 C940.371,339 943.074,341.703 943.074,345.037 Z" id="Stroke-470"></path>
            <path d="M1007.074,379.037 C1007.074,382.372 1004.371,385.074 1001.037,385.074 C997.702,385.074 995,382.372 995,379.037 C995,375.703 997.702,373 1001.037,373 C1004.371,373 1007.074,375.703 1007.074,379.037 Z" id="Stroke-472"></path>
            <path d="M1031.075,426.037 C1031.075,429.371 1028.372,432.074 1025.038,432.074 C1021.703,432.074 1019,429.371 1019,426.037 C1019,422.702 1021.703,420 1025.038,420 C1028.372,420 1031.075,422.702 1031.075,426.037 Z" id="Stroke-474"></path>
            <path d="M1093.074,398.038 C1093.074,401.372 1090.371,404.075 1087.037,404.075 C1083.702,404.075 1081,401.372 1081,398.038 C1081,394.703 1083.702,392 1087.037,392 C1090.371,392 1093.074,394.703 1093.074,398.038 Z" id="Stroke-478"></path>
            <path d="M1073.075,380.037 C1073.075,383.372 1070.372,386.074 1067.038,386.074 C1063.703,386.074 1061,383.372 1061,380.037 C1061,376.703 1063.703,374 1067.038,374 C1070.372,374 1073.075,376.703 1073.075,380.037 Z" id="Stroke-480"></path>
            <path d="M1072.075,290.037 C1072.075,293.372 1069.372,296.075 1066.038,296.075 C1062.703,296.075 1060,293.372 1060,290.037 C1060,286.703 1062.703,284 1066.038,284 C1069.372,284 1072.075,286.703 1072.075,290.037 Z" id="Stroke-482"></path>
            <path d="M1051.074,249.037 C1051.074,252.371 1048.371,255.074 1045.037,255.074 C1041.702,255.074 1039,252.371 1039,249.037 C1039,245.703 1041.702,243 1045.037,243 C1048.371,243 1051.074,245.703 1051.074,249.037 Z" id="Stroke-486"></path>
            <path d="M904.075,164.037 C904.075,167.372 901.372,170.074 898.038,170.074 C894.703,170.074 892,167.372 892,164.037 C892,160.703 894.703,158 898.038,158 C901.372,158 904.075,160.703 904.075,164.037 Z" id="Stroke-488"></path>
            <path d="M921.074,185.037 C921.074,188.372 918.371,191.074 915.037,191.074 C911.702,191.074 909,188.372 909,185.037 C909,181.703 911.702,179 915.037,179 C918.371,179 921.074,181.703 921.074,185.037 Z" id="Stroke-490"></path>
            <path d="M944.075,163.037 C944.075,166.371 941.372,169.074 938.038,169.074 C934.703,169.074 932,166.371 932,163.037 C932,159.703 934.703,157 938.038,157 C941.372,157 944.075,159.703 944.075,163.037 Z" id="Stroke-492"></path>
            <path d="M961.074,185.037 C961.074,188.372 958.371,191.074 955.037,191.074 C951.702,191.074 949,188.372 949,185.037 C949,181.703 951.702,179 955.037,179 C958.371,179 961.074,181.703 961.074,185.037 Z" id="Stroke-494"></path>
            <path d="M932.074,114.037 C932.074,117.371 929.371,120.074 926.037,120.074 C922.702,120.074 920,117.371 920,114.037 C920,110.703 922.702,108 926.037,108 C929.371,108 932.074,110.703 932.074,114.037 Z" id="Stroke-496"></path>
            <path d="M952.075,95.037 C952.075,98.372 949.372,101.075 946.038,101.075 C942.703,101.075 940,98.372 940,95.037 C940,91.703 942.703,89 946.038,89 C949.372,89 952.075,91.703 952.075,95.037 Z" id="Stroke-498"></path>
            <path d="M974.074,114.037 C974.074,117.371 971.371,120.074 968.037,120.074 C964.702,120.074 962,117.371 962,114.037 C962,110.703 964.702,108 968.037,108 C971.371,108 974.074,110.703 974.074,114.037 Z" id="Stroke-500"></path>
            <path d="M904,85 L925.333,100.333" id="Stroke-501" stroke-linecap="round"></path>
            <polygon id="Stroke-502" stroke-linecap="round" points="781 143 856 143 856 58 781 58"></polygon>
            <polygon id="Stroke-503" stroke-linecap="round" points="789 133 848.796 133 848.796 68 789 68"></polygon>
            <polygon id="Stroke-504" stroke-linecap="round" points="856 77.25 863.5 77.25 863.5 62 856 62"></polygon>
            <polygon id="Stroke-505" stroke-linecap="round" points="856 97 863.5 97 863.5 84 856 84"></polygon>
            <polygon id="Stroke-506" stroke-linecap="round" points="856 120.37 863.5 120.37 863.5 107 856 107"></polygon>
            <polygon id="Stroke-507" stroke-linecap="round" points="856 140.083 863.5 140.083 863.5 127 856 127"></polygon>
            <polygon id="Stroke-508" stroke-linecap="round" points="773 138.75 780.5 138.75 780.5 127 773 127"></polygon>
            <polygon id="Stroke-509" stroke-linecap="round" points="773 118 780.5 118 780.5 105 773 105"></polygon>
            <polygon id="Stroke-510" stroke-linecap="round" points="773 97 780.5 97 780.5 84 773 84"></polygon>
            <polygon id="Stroke-511" stroke-linecap="round" points="773 76 780.5 76 780.5 62 773 62"></polygon>
            <path d="M763.075,17.037 C763.075,20.372 760.372,23.075 757.038,23.075 C753.703,23.075 751,20.372 751,17.037 C751,13.703 753.703,11 757.038,11 C760.372,11 763.075,13.703 763.075,17.037 Z" id="Stroke-513"></path>
            <path d="M1076.074,129.038 C1076.074,132.372 1073.371,135.075 1070.037,135.075 C1066.702,135.075 1064,132.372 1064,129.038 C1064,125.703 1066.702,123 1070.037,123 C1073.371,123 1076.074,125.703 1076.074,129.038 Z" id="Stroke-515"></path>
            <path d="M1114.074,129.038 C1114.074,132.372 1111.371,135.075 1108.037,135.075 C1104.702,135.075 1102,132.372 1102,129.038 C1102,125.703 1104.702,123 1108.037,123 C1111.371,123 1114.074,125.703 1114.074,129.038 Z" id="Stroke-517"></path>
            <path d="M1075.075,151.037 C1075.075,154.371 1072.372,157.074 1069.038,157.074 C1065.703,157.074 1063,154.371 1063,151.037 C1063,147.703 1065.703,145 1069.038,145 C1072.372,145 1075.075,147.703 1075.075,151.037 Z" id="Stroke-519"></path>
            <path d="M1113.074,151.037 C1113.074,154.371 1110.371,157.074 1107.037,157.074 C1103.702,157.074 1101,154.371 1101,151.037 C1101,147.703 1103.702,145 1107.037,145 C1110.371,145 1113.074,147.703 1113.074,151.037 Z" id="Stroke-521"></path>
            <path d="M1072.074,184.037 C1072.074,187.372 1069.371,190.074 1066.037,190.074 C1062.702,190.074 1060,187.372 1060,184.037 C1060,180.703 1062.702,178 1066.037,178 C1069.371,178 1072.074,180.703 1072.074,184.037 Z" id="Stroke-523"></path>
            <path d="M1092.075,184.037 C1092.075,187.372 1089.372,190.074 1086.038,190.074 C1082.703,190.074 1080,187.372 1080,184.037 C1080,180.703 1082.703,178 1086.038,178 C1089.372,178 1092.075,180.703 1092.075,184.037 Z" id="Stroke-525"></path>
            <path d="M1113.075,184.037 C1113.075,187.372 1110.372,190.074 1107.038,190.074 C1103.703,190.074 1101,187.372 1101,184.037 C1101,180.703 1103.703,178 1107.038,178 C1110.372,178 1113.075,180.703 1113.075,184.037 Z" id="Stroke-527"></path>
            <path d="M1145.074,178.037 C1145.074,181.371 1142.371,184.074 1139.037,184.074 C1135.702,184.074 1133,181.371 1133,178.037 C1133,174.703 1135.702,172 1139.037,172 C1142.371,172 1145.074,174.703 1145.074,178.037 Z" id="Stroke-529"></path>
            <path d="M1113.075,272.037 C1113.075,275.371 1110.372,278.074 1107.038,278.074 C1103.703,278.074 1101,275.371 1101,272.037 C1101,268.702 1103.703,266 1107.038,266 C1110.372,266 1113.075,268.702 1113.075,272.037 Z" id="Stroke-531"></path>
            <path d="M1135.074,296.038 C1135.074,299.372 1132.371,302.075 1129.037,302.075 C1125.702,302.075 1123,299.372 1123,296.038 C1123,292.703 1125.702,290 1129.037,290 C1132.371,290 1135.074,292.703 1135.074,296.038 Z" id="Stroke-533"></path>
            <path d="M1157.074,309.037 C1157.074,312.371 1154.371,315.074 1151.037,315.074 C1147.702,315.074 1145,312.371 1145,309.037 C1145,305.703 1147.702,303 1151.037,303 C1154.371,303 1157.074,305.703 1157.074,309.037 Z" id="Stroke-535"></path>
            <path d="M1186.075,309.037 C1186.075,312.371 1183.372,315.074 1180.038,315.074 C1176.703,315.074 1174,312.371 1174,309.037 C1174,305.703 1176.703,303 1180.038,303 C1183.372,303 1186.075,305.703 1186.075,309.037 Z" id="Stroke-537"></path>
            <path d="M1207.075,332.037 C1207.075,335.371 1204.372,338.074 1201.038,338.074 C1197.703,338.074 1195,335.371 1195,332.037 C1195,328.703 1197.703,326 1201.038,326 C1204.372,326 1207.075,328.703 1207.075,332.037 Z" id="Stroke-539"></path>
            <path d="M1227.074,385.037 C1227.074,388.371 1224.371,391.074 1221.037,391.074 C1217.702,391.074 1215,388.371 1215,385.037 C1215,381.703 1217.702,379 1221.037,379 C1224.371,379 1227.074,381.703 1227.074,385.037 Z" id="Stroke-541"></path>
            <path d="M1249.074,323.037 C1249.074,326.372 1246.371,329.074 1243.037,329.074 C1239.702,329.074 1237,326.372 1237,323.037 C1237,319.703 1239.702,317 1243.037,317 C1246.371,317 1249.074,319.703 1249.074,323.037 Z" id="Stroke-543"></path>
            <path d="M1303.074,354.037 C1303.074,357.371 1300.371,360.074 1297.037,360.074 C1293.702,360.074 1291,357.371 1291,354.037 C1291,350.703 1293.702,348 1297.037,348 C1300.371,348 1303.074,350.703 1303.074,354.037 Z" id="Stroke-545"></path>
            <path d="M1335.074,329.037 C1335.074,332.372 1332.371,335.075 1329.037,335.075 C1325.702,335.075 1323,332.372 1323,329.037 C1323,325.703 1325.702,323 1329.037,323 C1332.371,323 1335.074,325.703 1335.074,329.037 Z" id="Stroke-547"></path>
            <path d="M1356.074,280.037 C1356.074,283.371 1353.371,286.074 1350.037,286.074 C1346.702,286.074 1344,283.371 1344,280.037 C1344,276.703 1346.702,274 1350.037,274 C1353.371,274 1356.074,276.703 1356.074,280.037 Z" id="Stroke-551"></path>
            <path d="M1294.074,211.037 C1294.074,214.372 1291.371,217.074 1288.037,217.074 C1284.702,217.074 1282,214.372 1282,211.037 C1282,207.703 1284.702,205 1288.037,205 C1291.371,205 1294.074,207.703 1294.074,211.037 Z" id="Stroke-553"></path>
            <path d="M1315.074,202.037 C1315.074,205.371 1312.371,208.074 1309.037,208.074 C1305.702,208.074 1303,205.371 1303,202.037 C1303,198.702 1305.702,196 1309.037,196 C1312.371,196 1315.074,198.702 1315.074,202.037 Z" id="Stroke-555"></path>
            <path d="M1336.074,202.037 C1336.074,205.371 1333.371,208.074 1330.037,208.074 C1326.702,208.074 1324,205.371 1324,202.037 C1324,198.702 1326.702,196 1330.037,196 C1333.371,196 1336.074,198.702 1336.074,202.037 Z" id="Stroke-557"></path>
            <path d="M1357.075,143.037 C1357.075,146.371 1354.372,149.074 1351.038,149.074 C1347.703,149.074 1345,146.371 1345,143.037 C1345,139.703 1347.703,137 1351.038,137 C1354.372,137 1357.075,139.703 1357.075,143.037 Z" id="Stroke-559"></path>
            <path d="M1355.074,37.037 C1355.074,40.371 1352.371,43.074 1349.037,43.074 C1345.702,43.074 1343,40.371 1343,37.037 C1343,33.703 1345.702,31 1349.037,31 C1352.371,31 1355.074,33.703 1355.074,37.037 Z" id="Stroke-565"></path>
            <path d="M1246.074,98.037 C1246.074,101.371 1243.371,104.074 1240.037,104.074 C1236.702,104.074 1234,101.371 1234,98.037 C1234,94.703 1236.702,92 1240.037,92 C1243.371,92 1246.074,94.703 1246.074,98.037 Z" id="Stroke-567"></path>
            <path d="M1246.074,120.037 C1246.074,123.371 1243.371,126.074 1240.037,126.074 C1236.702,126.074 1234,123.371 1234,120.037 C1234,116.703 1236.702,114 1240.037,114 C1243.371,114 1246.074,116.703 1246.074,120.037 Z" id="Stroke-569"></path>
            <path d="M1246.074,140.037 C1246.074,143.372 1243.371,146.074 1240.037,146.074 C1236.702,146.074 1234,143.372 1234,140.037 C1234,136.703 1236.702,134 1240.037,134 C1243.371,134 1246.074,136.703 1246.074,140.037 Z" id="Stroke-571"></path>
            <path d="M1245.075,160.037 C1245.075,163.371 1242.372,166.074 1239.038,166.074 C1235.703,166.074 1233,163.371 1233,160.037 C1233,156.703 1235.703,154 1239.038,154 C1242.372,154 1245.075,156.703 1245.075,160.037 Z" id="Stroke-573"></path>
            <path d="M1203.074,69.037 C1203.074,72.372 1200.371,75.074 1197.037,75.074 C1193.702,75.074 1191,72.372 1191,69.037 C1191,65.703 1193.702,63 1197.037,63 C1200.371,63 1203.074,65.703 1203.074,69.037 Z" id="Stroke-575"></path>
            <path d="M1185.075,47.037 C1185.075,50.371 1182.372,53.074 1179.038,53.074 C1175.703,53.074 1173,50.371 1173,47.037 C1173,43.703 1175.703,41 1179.038,41 C1182.372,41 1185.075,43.703 1185.075,47.037 Z" id="Stroke-577"></path>
            <path d="M1162.074,31.037 C1162.074,34.371 1159.371,37.074 1156.037,37.074 C1152.702,37.074 1150,34.371 1150,31.037 C1150,27.702 1152.702,25 1156.037,25 C1159.371,25 1162.074,27.702 1162.074,31.037 Z" id="Stroke-579"></path>
            <polygon id="Stroke-580" points="1042 80.75 1057.713 80.75 1057.713 39 1042 39"></polygon>
            <polygon id="Stroke-581" points="1045 88.25 1054.5 88.25 1054.5 81 1045 81"></polygon>
            <polygon id="Stroke-582" points="1045 38.25 1054.5 38.25 1054.5 31 1045 31"></polygon>
            <polygon id="Stroke-583" points="1078 80.75 1093.713 80.75 1093.713 39 1078 39"></polygon>
            <polygon id="Stroke-584" points="1081 87.25 1090.5 87.25 1090.5 80 1081 80"></polygon>
            <polygon id="Stroke-585" points="1081 38.25 1090.5 38.25 1090.5 31 1081 31"></polygon>
            <polygon id="Stroke-586" points="1114 80.75 1129.713 80.75 1129.713 39 1114 39"></polygon>
            <polygon id="Stroke-587" points="1117 87.25 1126.5 87.25 1126.5 80 1117 80"></polygon>
            <polygon id="Stroke-588" points="1117 38.25 1126.5 38.25 1126.5 31 1117 31"></polygon>
            <path d="M43,2 L43,97.5" id="Stroke-171" stroke-linecap="round"></path>
            <path d="M49.074,104.037 C49.074,107.371 46.371,110.074 43.037,110.074 C39.702,110.074 37,107.371 37,104.037 C37,100.703 39.702,98 43.037,98 C46.371,98 49.074,100.703 49.074,104.037 Z" id="Stroke-561"></path>
        </g>
    </g>
</svg>