<svg width="908" height="666" viewBox="0 0 908 666" fill="none" xmlns="http://www.w3.org/2000/svg">
<path d="M297.137 4.98908C361.402 -14.7848 435.526 25.9886 462.551 96.0141C491.421 79.1001 527.029 78.5281 556.324 94.3799C585.619 110.232 607.892 142.262 614.985 178.623C653.572 159.911 699.678 163.098 735.995 187.039C772.313 210.98 798.132 255.104 803.736 302.822C832.818 321.37 861.546 342.452 882.116 372.521C902.686 402.59 914.107 443.282 904.602 479.97C894.813 517.883 864.454 545.093 831.825 557.594C799.196 570.096 764.155 570.259 729.753 570.259C543.414 570.504 357.004 570.749 170.664 570.995C132.148 571.076 91.6457 570.504 57.9528 548.851C20.5715 524.828 -2.83619 474.658 0.284831 425.469C3.40585 376.28 33.0556 330.604 73.0614 313.118C59.0878 274.959 67.5997 227.322 93.49 198.642C121.154 168.001 156.62 167.184 191.448 177.561C198.754 139.32 197.264 106.555 217.905 71.5828C236.702 39.8793 264.721 14.9577 297.137 4.98908Z" fill="#A7DDE8"/>
<path d="M424.042 217.456C468.636 203.745 520.108 232.064 538.895 280.54C558.888 268.87 583.631 268.381 603.979 279.398C624.326 290.415 639.782 312.613 644.673 337.831C671.473 324.855 703.447 327.058 728.686 343.707C753.926 360.273 771.792 390.877 775.691 424.011C795.897 436.824 815.819 451.513 830.14 472.324C844.461 493.134 852.331 521.372 845.737 546.834C838.931 573.112 817.875 591.964 795.259 600.696C772.643 609.347 748.254 609.51 724.433 609.51C595.046 609.674 465.729 609.837 336.342 610C309.614 610 281.468 609.674 258.143 594.657C232.195 577.927 215.889 543.161 218.086 509.048C220.284 474.935 240.844 443.271 268.636 431.111C258.923 404.669 264.878 371.617 282.815 351.704C302.028 330.404 326.63 329.914 350.805 337.096C355.91 310.573 354.847 287.804 369.168 263.566C382.071 241.612 401.497 224.393 424.042 217.456Z" fill="#F68632"/>
<path d="M256.336 360.695C291.114 350.018 331.216 372.024 345.837 409.759C361.451 400.631 380.686 400.305 396.585 408.862C412.412 417.42 424.478 434.698 428.311 454.34C449.178 444.234 474.091 445.946 493.751 458.904C513.411 471.782 527.394 495.58 530.375 521.335C546.131 531.359 561.675 542.688 572.818 558.907C583.962 575.126 590.137 597.05 584.955 616.854C579.632 637.311 563.237 651.982 545.564 658.746C527.891 665.511 508.94 665.592 490.344 665.592C389.487 665.755 288.701 665.837 187.844 666C166.977 666 145.116 665.755 126.875 654.101C106.647 641.142 93.9422 614.083 95.6457 587.514C97.3491 560.944 113.39 536.331 135.037 526.877C127.514 506.257 132.056 480.665 146.11 465.18C161.086 448.635 180.249 448.228 199.058 453.851C203.033 433.231 202.181 415.546 213.395 396.719C223.616 379.44 238.805 366.074 256.336 360.695Z" fill="#EE3670"/>
</svg>
