<svg width="48" height="48" viewBox="0 0 48 48" fill="none" xmlns="http://www.w3.org/2000/svg">
<path d="M16.5 47C6 47 1 39.7759 1 39.7759C1 39.7759 6 33 16 33C26 33 32 40 32 40C32 40 27 47 16.5 47Z" fill="#15766A" stroke="#15766A"/>
<path d="M16.4029 26.3087C8.71854 19.1532 9.9824 10.4589 9.9824 10.4589C9.9824 10.4589 18.2592 8.9074 25.5776 15.7222C32.896 22.5369 32.5167 31.7486 32.5167 31.7486C32.5167 31.7486 24.0872 33.4642 16.4029 26.3087Z" fill="#15766A" stroke="#15766A"/>
<path d="M32.7038 16.6828C32.5657 6.18371 39.7235 1.08914 39.7235 1.08914C39.7235 1.08914 46.5645 5.9996 46.696 15.9987C46.8275 25.9979 39.9071 32.0894 39.9071 32.0894C39.9071 32.0894 32.8419 27.1819 32.7038 16.6828Z" fill="#15766A" stroke="#15766A"/>
</svg>
