<svg width="861" height="590" viewBox="0 0 861 590" fill="none" xmlns="http://www.w3.org/2000/svg">
<path d="M248.202 411.279C334.478 411.279 404.419 390.81 404.419 365.559C404.419 340.308 334.478 319.838 248.202 319.838C161.926 319.838 91.9849 340.308 91.9849 365.559C91.9849 390.81 161.926 411.279 248.202 411.279Z" fill="#A7DDE8"/>
<path d="M704.783 335.988C791.059 335.988 861 315.518 861 290.267C861 265.017 791.059 244.547 704.783 244.547C618.507 244.547 548.566 265.017 548.566 290.267C548.566 315.518 618.507 335.988 704.783 335.988Z" fill="#A7DDE8"/>
<path d="M632.914 91.4409C719.19 91.4409 789.131 70.9712 789.131 45.7205C789.131 20.4697 719.19 0 632.914 0C546.637 0 476.697 20.4697 476.697 45.7205C476.697 70.9712 546.637 91.4409 632.914 91.4409Z" fill="#A7DDE8"/>
<path d="M156.217 169.458C242.493 169.458 312.434 148.988 312.434 123.738C312.434 98.4868 242.493 78.0171 156.217 78.0171C69.9407 78.0171 0 98.4868 0 123.738C0 148.988 69.9407 169.458 156.217 169.458Z" fill="#A7DDE8"/>
<path d="M631.55 75.9059C634.345 73.0441 638.096 71.2725 641.982 70.1142C649.347 67.7975 657.734 67.4568 664.62 70.8637C671.507 74.2706 676.349 82.1064 674.508 89.3972C661.143 91.4413 647.778 93.4173 634.414 95.4614C623.231 97.0967 626.64 80.9481 631.55 75.9059Z" fill="#DD4A72"/>
<path d="M732.807 315.887C737.649 321.27 738.603 329.106 736.626 336.124L736.217 335.988C734.035 327.402 725.443 321.815 716.852 319.907C708.192 317.999 699.259 318.953 690.395 318.885C664.893 318.749 639.527 310.027 619.344 294.492L616.071 294.628C615.866 289.041 615.321 283.454 614.366 277.934L615.73 277.73C632.845 292.107 653.778 301.851 675.735 305.871C683.508 307.37 691.486 308.051 699.396 308.051C705.328 308.051 711.26 307.642 717.124 308.46C717.329 308.46 717.533 308.528 717.738 308.596C723.329 309.414 728.989 311.594 732.807 315.887Z" fill="#ECAB4B"/>
<path d="M683.509 289.995C685.486 289.518 687.532 289.245 689.577 289.109C696.328 288.632 703.147 288.836 709.897 289.79C711.602 289.995 713.238 290.267 714.943 290.608C715.898 296.604 716.852 302.532 717.807 308.46V308.596C717.602 308.528 717.398 308.528 717.193 308.46C711.329 307.642 705.397 308.051 699.465 308.051C691.555 308.051 683.577 307.37 675.804 305.871L676.076 304.508C672.94 301.442 674.167 295.855 677.44 292.993C679.077 291.426 681.19 290.54 683.509 289.995Z" fill="#EE3670"/>
<path d="M709.829 289.722C703.078 288.768 696.259 288.563 689.509 289.04C687.463 289.176 685.418 289.449 683.44 289.926C681.599 284.679 683.168 278.343 687.395 274.663C691.895 270.711 699.123 270.234 704.169 273.505C709.215 276.775 711.67 283.589 709.829 289.313V289.722Z" fill="#EE3670"/>
<path d="M667.144 71.2719C673.554 79.1759 675.736 90.5549 671.372 99.6172C667.962 106.704 661.144 111.678 654.12 115.221C647.097 118.764 639.528 121.217 632.641 125.101C621.731 131.233 613.072 140.636 604.548 149.835C585.592 170.48 566.568 191.126 547.612 211.772L545.089 211.976C544.271 209.115 542.975 206.457 540.929 204.277C533.906 196.714 520.882 198.417 513.041 205.026C505.199 211.636 496.881 222.129 494.426 232.077C491.903 242.23 494.494 253.404 500.972 261.581L498.108 263.761C450.445 273.232 396.986 284.543 349.323 294.014C356.551 282.976 353.551 267.304 344.823 257.424C336.095 247.544 323.208 239.027 309.979 239.708C303.161 240.049 297.637 245.909 295.524 252.45C294.91 254.358 294.501 256.334 294.296 258.31L293.205 258.106C281 247.135 265.453 240.799 250.247 234.666C231.36 227.103 212.472 219.472 193.584 211.908C185.538 208.706 177.423 205.435 168.832 204.618C160.854 203.8 152.876 205.094 144.83 205.571C136.852 205.98 128.397 205.367 121.578 201.142C113.055 195.896 108.623 185.403 109.509 175.455L110.191 175.523C112.1 164.144 124.374 157.466 135.829 155.831C156.081 152.969 175.787 160.464 194.948 168.3C198.63 169.799 202.312 171.298 205.994 172.797C271.658 199.098 344.278 207.956 414.374 198.213C488.903 187.787 557.976 144.588 609.117 89.3284C623.709 73.5886 646.279 66.4341 667.144 71.4081V71.2719Z" fill="#F68632"/>
<path d="M614.572 319.838C615.868 311.526 616.345 303.077 616.072 294.627L619.345 294.491C639.529 310.095 664.826 318.816 690.396 318.885C699.261 318.885 708.193 317.931 716.853 319.907C725.444 321.814 733.968 327.47 736.218 335.987L736.627 336.123C735.945 338.781 734.786 341.302 733.286 343.55C727.763 351.795 718.489 356.837 709.08 359.972C699.874 362.97 689.714 364.469 680.577 361.334C673.69 358.95 667.963 354.112 661.962 349.887C647.575 339.667 631.005 332.58 613.617 329.173L612.936 328.765C614.367 326.039 614.572 322.905 614.572 319.838Z" fill="#F68632"/>
<path d="M615.048 47.4919C613.207 41.2914 611.503 34.6139 613.685 28.5496C615.594 23.303 620.571 19.2829 626.095 18.4652C631.686 17.6476 637.55 20.0324 640.959 24.4613C644.301 28.8903 645.051 37.5438 642.732 42.586V42.7223C633.595 41.9728 624.39 44.9027 615.798 48.3777C615.662 48.3777 615.594 48.4458 615.457 48.514L615.048 47.4919Z" fill="#EE3670"/>
<path d="M614.367 317.59C612.594 296.195 603.048 275.481 587.842 260.286L587.16 260.082C589.001 258.378 589.138 255.517 589.069 253.064C589.001 244.478 588.933 235.961 588.865 227.376C588.865 224.514 588.66 221.311 586.956 219.199L588.728 217.836C602.093 235.348 610.821 256.198 614.367 277.866C615.253 283.385 615.799 288.972 616.071 294.56C616.344 303.009 615.867 311.458 614.571 319.771H614.503C614.435 319.089 614.367 318.34 614.367 317.59Z" fill="#EE3670"/>
<path d="M614.503 319.839C614.639 322.905 614.367 326.039 612.866 328.765C610.071 333.875 603.866 335.919 598.274 337.487C591.592 339.326 584.91 341.234 578.227 343.074C571 345.118 563.772 347.094 556.612 349.138C554.362 320.248 552.18 291.425 549.93 262.535C560.294 262.262 570.59 262.058 580.955 261.785C583.205 261.717 585.66 261.581 587.228 260.082L587.91 260.286C603.048 275.549 612.594 296.195 614.435 317.59C614.367 318.34 614.435 319.089 614.503 319.839Z" fill="#ECAB4B"/>
<path d="M611.571 66.5025C609.389 67.8653 607.479 69.5006 605.638 71.3403L605.297 70.9996C601.615 66.0256 602.024 58.4623 606.32 53.9652C608.775 51.376 612.116 49.8088 615.457 48.5142C615.594 48.5142 615.662 48.446 615.798 48.3779C624.39 44.971 633.595 41.9729 642.732 42.7225C643.619 42.7906 644.505 42.9269 645.391 43.0631C648.801 43.6764 652.278 44.971 654.256 47.6965C656.711 51.2397 656.029 57.9853 655.21 62.2099C648.937 59.3481 641.709 58.1897 634.754 58.7348C626.572 59.3481 618.526 62.0055 611.571 66.5025Z" fill="#EE3670"/>
<path d="M601.07 523.843C601.889 530.725 602.707 538.288 598.888 544.148C594.524 551.03 585.524 553.143 577.478 554.71C518.564 565.816 459.718 576.854 400.805 587.961C389.213 590.141 375.78 591.845 366.847 584.145C358.938 577.263 357.71 565.68 357.097 555.187C354.983 520.232 352.801 485.209 350.687 450.254L350.278 449.301C355.119 447.256 360.029 445.417 365.006 443.918L365.347 444.94C369.166 480.985 372.916 517.029 376.666 553.074C377.212 558.594 378.03 564.658 382.053 568.474C387.576 573.788 396.372 572.698 403.873 571.335C455.559 561.523 507.313 551.712 558.999 541.9C566.568 540.469 574.818 538.629 579.66 532.565C584.569 526.364 584.296 517.575 583.614 509.671C580.069 468.107 572.568 426.883 561.385 386.682L559.544 386.818C558.59 374.213 557.635 361.675 556.68 349.138C563.908 347.094 571.136 345.118 578.296 343.074L578.364 343.346C585.865 403.512 593.433 463.678 601.07 523.843Z" fill="#EE3670"/>
<path d="M589.138 253.064C589.138 255.585 589.07 258.379 587.229 260.082C585.592 261.581 583.205 261.717 580.955 261.785C570.591 262.058 560.295 262.262 549.93 262.535C548.907 249.452 547.884 236.438 546.93 223.424C546.725 220.903 546.521 218.245 546.043 215.724L547.68 215.179C558.317 215.656 568.954 216.201 579.592 216.678C581.91 216.815 584.433 216.951 586.206 218.382C586.547 218.654 586.819 218.927 587.024 219.199C588.729 221.312 588.933 224.514 588.933 227.376C589.001 235.893 589.07 244.478 589.138 253.064Z" fill="#A7DDE8"/>
<path d="M549.861 262.535C552.112 291.425 554.294 320.248 556.544 349.138C557.498 361.675 558.453 374.281 559.408 386.818C559.544 388.317 559.612 389.748 559.749 391.179C560.362 398.742 560.771 406.851 556.748 413.188C551.225 421.773 539.906 423.885 529.814 425.248C495.448 429.881 459.241 429.472 424.192 432.743L423.442 424.771C455.286 419.729 486.993 414.141 518.564 407.873C526.541 406.306 535.338 404.193 539.906 397.38C543.997 391.247 543.316 383.207 542.429 375.848C541.338 366.854 540.247 357.86 539.224 348.865C537.929 338.168 536.633 327.47 535.338 316.841C533.701 303.554 531.724 289.381 522.587 279.637C516.859 273.573 509.017 269.962 503.153 264.034C502.335 263.216 501.653 262.399 500.971 261.513C494.425 253.404 491.902 242.162 494.425 232.009C496.948 222.061 505.199 211.568 513.04 204.958C520.882 198.349 533.974 196.646 540.929 204.209C542.975 206.389 544.27 209.047 545.088 211.909C545.429 213.135 545.77 214.361 545.975 215.656C546.452 218.177 546.657 220.835 546.861 223.356C547.884 236.506 548.907 249.521 549.861 262.535Z" fill="#EE3670"/>
<path d="M498.108 263.761L500.972 261.581C501.654 262.467 502.404 263.284 503.154 264.102C509.018 270.03 516.859 273.641 522.587 279.706C531.724 289.449 533.702 303.622 535.338 316.909C536.634 327.607 537.861 338.304 539.225 348.934L535.884 349.343C485.016 360.04 434.08 370.67 383.212 381.367C380.894 381.844 378.508 382.389 376.121 382.866C370.53 384.025 364.393 385.115 359.347 382.458C352.733 378.914 350.755 370.533 349.46 363.174L349.664 363.106C343.596 340.962 343.323 317.25 348.71 294.9C348.914 294.628 349.187 294.287 349.392 294.015C396.986 284.544 450.377 273.233 498.108 263.761Z" fill="#ECAB4B"/>
<path d="M423.443 424.839L424.193 432.811C417.374 433.424 410.623 434.174 403.941 435.128L402.85 427.973C409.737 426.951 416.556 425.929 423.443 424.839Z" fill="#EE3670"/>
<path d="M383.553 383.343C386.212 390.906 385.326 399.492 381.235 406.374C378.916 410.258 375.711 413.46 373.393 417.276C371.075 421.092 369.643 425.929 371.347 430.086L371.688 432.402C363.847 433.493 356.005 434.515 348.164 435.469L348.027 434.651C346.391 423.613 341.413 413.392 338.004 402.762C334.595 392.201 332.822 380.209 337.663 370.124L336.777 368.762C340.663 366.172 344.959 364.196 349.459 363.038C350.755 370.397 352.732 378.778 359.347 382.321C364.392 384.978 370.529 383.888 376.121 382.73C378.439 382.253 380.826 381.708 383.212 381.231L383.553 383.343Z" fill="#EE3670"/>
<path d="M349.596 363.106L349.391 363.174C344.891 364.332 340.527 366.308 336.708 368.898C331.253 372.509 326.617 377.483 323.344 383.138C322.593 374.28 321.912 365.354 321.162 356.496C320.002 341.779 319.252 325.426 328.458 313.91C334.254 306.688 343.254 302.395 348.641 294.9C343.254 317.249 343.595 340.961 349.596 363.106Z" fill="#F68632"/>
<path d="M349.323 294.014C349.119 294.355 348.914 294.627 348.642 294.9C343.255 302.395 334.254 306.688 328.458 313.91C319.253 325.494 320.003 341.779 321.162 356.496C321.844 365.354 322.594 374.28 323.344 383.138C324.844 401.399 326.276 419.728 327.776 438.057C334.527 437.24 341.345 436.422 348.096 435.536C355.938 434.582 363.779 433.492 371.621 432.47C382.053 431.039 392.486 429.54 402.85 427.973L403.941 435.127C390.645 437.035 377.553 439.761 364.938 443.849C359.961 445.416 355.051 447.188 350.21 449.232C347.414 450.39 344.687 451.549 341.959 452.911C331.254 458.09 316.798 453.116 311.548 442.418C309.093 437.444 308.616 431.721 308.07 426.201C307.116 415.231 306.161 404.193 305.138 393.223C303.774 377.483 302.342 361.675 300.979 345.935C300.501 340.211 299.956 334.42 299.479 328.628C299.479 328.287 299.41 327.947 299.41 327.606C297.774 309.277 296.206 290.948 294.569 272.619C294.16 267.849 293.751 262.943 294.228 258.174C294.433 256.198 294.842 254.222 295.456 252.314C297.569 245.772 303.092 239.913 309.911 239.572C323.139 238.891 336.027 247.408 344.755 257.288C353.483 267.304 356.551 282.976 349.323 294.014Z" fill="#EE3670"/>
<path d="M301.046 345.936C302.41 361.676 303.842 377.484 305.206 393.224L304.456 393.292C296.069 397.993 289.114 405.352 285.022 414.074C282.568 419.389 280.999 425.18 277.317 429.746C272.271 435.946 264.021 438.672 256.179 439.898C244.724 441.601 232.314 440.579 222.836 434.038C216.426 429.609 211.789 422.318 210.767 414.755C212.812 410.054 217.108 406.17 221.881 403.853C228.154 400.787 235.314 399.833 242.201 398.538C249.088 397.312 256.247 395.54 261.771 391.248C264.566 389.067 266.817 386.342 269.135 383.616C279.568 371.079 289.932 358.542 300.296 346.004L301.046 345.936Z" fill="#F68632"/>
<path d="M264.021 370.942C266.885 367.944 269.476 364.605 272.067 361.335C280.727 350.16 289.386 338.985 298.046 327.743L299.41 327.606C299.41 327.947 299.478 328.288 299.478 328.628C299.955 334.352 300.501 340.144 300.978 345.935L300.16 346.004C289.795 358.541 279.363 371.078 268.998 383.616C266.748 386.341 264.498 389.067 261.634 391.247C256.111 395.54 249.02 397.311 242.064 398.538C235.178 399.832 228.018 400.718 221.745 403.853C217.04 406.169 212.744 410.053 210.63 414.755C210.153 411.075 210.562 407.328 211.994 403.853C214.039 398.947 217.858 395.131 222.427 392.133C225.768 389.952 229.382 388.249 232.996 386.818C241.655 383.479 250.929 381.231 258.429 375.78C260.475 374.281 262.316 372.714 264.021 370.942Z" fill="#ECAB4B"/>
<path d="M260.271 360.653C262.112 361.471 263.339 363.311 263.816 365.287C264.294 367.127 264.157 369.103 264.021 371.01C262.316 372.714 260.475 374.349 258.566 375.78C251.065 381.231 241.792 383.48 233.132 386.818C229.518 388.249 225.836 389.953 222.563 392.133C220.858 387.432 218.199 378.642 220.858 374.485C222.495 371.964 225.427 370.533 228.223 369.307C229.859 368.626 231.496 367.944 233.132 367.263C240.019 364.605 247.042 362.425 254.27 360.722C255.225 360.517 256.179 360.245 257.134 360.245C258.225 360.108 259.248 360.176 260.271 360.653Z" fill="#EE3670"/>
<path d="M257.134 360.176C256.179 360.244 255.156 360.448 254.27 360.653C247.042 362.356 240.019 364.536 233.132 367.194C232.314 362.152 231.632 356.905 233.064 351.999C234.632 346.753 239.405 341.983 244.86 342.392C248.883 342.664 252.429 345.662 254.27 349.274C256.043 352.612 256.725 356.428 257.134 360.176Z" fill="#EE3670"/>
<path d="M667.007 71.4087C646.142 66.3665 623.572 73.5891 608.98 89.3289C557.84 144.521 488.834 187.788 414.237 198.213C344.141 207.957 271.59 199.099 205.857 172.798C202.175 171.299 198.561 169.8 194.811 168.301L197.334 162.1C198.016 162.305 198.698 162.509 199.448 162.645C238.246 171.299 277.249 180.02 316.934 182.678C409.805 188.946 504.654 160.669 579.046 104.66C590.092 96.3471 595.82 81.2887 605.571 71.4087C607.412 69.569 609.321 67.9337 611.503 66.5709C618.39 62.0738 626.436 59.4164 634.687 58.8713C641.642 58.3944 648.802 59.4846 655.143 62.3464C658.825 64.0498 662.303 66.2984 665.166 69.2283C665.848 69.9097 666.462 70.591 667.076 71.4087H667.007Z" fill="#ECAB4B"/>
<path d="M167.809 146.223C156.694 142.748 144.421 142.203 133.511 146.223C129.76 147.586 126.146 149.562 123.01 152.083L122.464 151.334C121.169 145.337 124.51 139.069 129.215 135.117C130.919 133.686 132.761 132.528 134.738 131.505C138.216 129.734 141.966 128.439 145.716 127.145C149.057 125.986 152.398 124.896 155.944 124.555C158.126 124.351 160.445 124.487 162.558 125.237C163.786 125.577 164.945 126.191 165.968 126.94C168.832 128.984 170.604 132.323 171.354 135.798C172.173 139.273 172.105 142.816 172.036 146.36L169.854 146.973C169.173 146.7 168.491 146.496 167.809 146.223Z" fill="#EE3670"/>
<path d="M162.558 125.238C160.445 124.556 158.126 124.352 155.944 124.556C152.399 124.897 149.057 125.987 145.716 127.146C141.966 128.44 138.216 129.735 134.738 131.507L134.193 130.484C133.988 125.306 133.715 119.923 135.284 114.949C136.852 109.975 140.67 105.41 145.716 104.32C150.558 103.298 155.808 105.75 158.808 109.702C161.808 113.654 163.036 118.765 163.036 123.739L162.558 125.238Z" fill="#EE3670"/>
<path d="M135.829 155.762C124.442 157.398 112.168 164.075 110.191 175.454L109.509 175.386C109.577 173.751 109.85 172.115 110.259 170.548C112.168 163.189 116.873 156.716 122.942 152.083C126.146 149.562 129.692 147.654 133.443 146.223C144.352 142.203 156.626 142.748 167.741 146.223C168.423 146.427 169.104 146.7 169.786 146.973C179.332 150.652 187.651 158.965 197.402 161.963L194.879 168.163C175.787 160.328 156.012 152.832 135.829 155.762Z" fill="#ECAB4B"/>
</svg>
