<svg width="48" height="66" viewBox="0 0 48 66" fill="none" xmlns="http://www.w3.org/2000/svg">
<g clip-path="url(#clip0)">
<path fill-rule="evenodd" clip-rule="evenodd" d="M31.9122 34.9685C31.8087 35.6554 31.6891 36.306 31.5614 36.9151C28.6562 50.7729 20.8163 59.3232 14.6059 65.5515C13.1824 66.979 10.8712 66.9824 9.44365 65.5589C8.01609 64.1354 8.01278 61.8242 9.43625 60.3966C15.1996 54.6167 21.489 47.6406 24.1328 36.6751C24.1096 36.6749 24.0863 36.6747 24.0631 36.6744C18.8624 36.6084 14.2767 34.2616 11.7548 31.384C7.41785 26.4352 6.79174 20.7815 7.56752 16.123C8.32253 11.5891 10.4251 7.7534 12.0273 5.77601C13.1672 4.36924 15.166 4.01064 16.7238 4.93344C24.8038 9.71979 29.0579 15.6915 30.9718 21.6521C31.4752 23.2196 31.8094 24.7633 32.0136 26.2577C32.8537 25.5306 33.6971 24.6506 34.5324 23.5919C35.781 22.0092 38.0763 21.7384 39.6591 22.9871C41.2418 24.2358 41.5126 26.5311 40.2639 28.1138C37.6751 31.395 34.8236 33.6135 31.9122 34.9685ZM24.9613 29.3535C24.6871 29.3713 24.4183 29.3778 24.1556 29.3744C20.9479 29.3338 18.3517 27.8347 17.2453 26.5723C14.6892 23.6556 14.2588 20.3853 14.7689 17.3222C15.0219 15.8028 15.5009 14.398 16.0277 13.2269C20.6091 16.6605 22.908 20.4185 24.0208 23.8841C24.6207 25.7523 24.8964 27.6017 24.9613 29.3535Z" fill="#21CE99"/>
</g>
<defs>
<clipPath id="clip0">
<rect width="48" height="66" fill="white"/>
</clipPath>
</defs>
</svg>
