<svg width="256" height="79" viewBox="0 0 256 79" fill="none" xmlns="http://www.w3.org/2000/svg">
<path d="M191.983 29.3552L202.448 54.1579L183.875 49.2699L173.718 33.6719L191.983 29.3552Z" fill="#A7DDE8"/>
<path d="M207.281 72.7394L204.679 78.6885H182.751L191.303 64.9404L207.281 72.7394Z" fill="#A7DDE8"/>
<path d="M166.4 55.645L157.114 71.8144L182.751 78.6884L191.302 64.9404L166.4 55.645Z" fill="#F68632"/>
<path d="M157.114 45.6152L122.182 55.6451L157.114 71.8145L166.4 55.6451L157.114 45.6152Z" fill="#A7DDE8"/>
<path d="M179.785 16.2512V35.9483L157.114 45.6154L122.182 55.6453L111.027 49.2701L116.233 17.3667L179.785 16.2512Z" fill="#F68632"/>
<path d="M209.141 16.2512V30.3801L179.785 35.9483V16.2512H209.141Z" fill="#A7DDE8"/>
<path d="M232.927 27.7774L209.141 30.3801V16.2512L232.927 17.7385V27.7774Z" fill="#F68632"/>
<path d="M255.59 18.4819V23.3155L232.927 27.7772V17.7383L255.59 18.4819Z" fill="#A7DDE8"/>
<path d="M174.208 54.1578L183.875 49.2698L202.448 54.1578L182.751 61.7482L174.208 54.1578Z" fill="#F68632"/>
<path d="M165.747 52.8428L166.4 55.645L182.751 61.7482L174.208 54.1577L165.747 52.8428Z" fill="#A7DDE8"/>
<path d="M116.233 17.3664L111.027 49.2698L2.1845e-05 64.9404L2.04046 0L116.233 17.3664Z" fill="#A7DDE8"/>
<path d="M174.916 38.0247L175.822 45.6152L183.875 49.2698L175.831 37.6348L174.916 38.0247Z" fill="#A7DDE8"/>
<path d="M167.824 49.2699L174.208 54.1579L183.875 49.2699L175.822 45.6152L167.824 49.2699Z" fill="#F68632"/>
<path d="M164.332 52.1354L174.208 54.1577L167.824 49.2697L163.353 48.9795L164.332 52.1354Z" fill="#A7DDE8"/>
</svg>
