<svg width="403" height="582" viewBox="0 0 403 582" fill="none" xmlns="http://www.w3.org/2000/svg">
<path d="M221.975 71.9777L221.171 96.3349C221.077 99.1595 223.342 101.5 226.168 101.5H242.659C245.55 101.5 247.838 99.0552 247.648 96.1703L246.043 71.8926C246.015 71.4567 245.931 71.0301 245.775 70.6221C244.778 68.0159 240.524 58 234 58C227.537 58 223.302 67.8286 222.254 70.5467C222.077 71.0058 221.992 71.4859 221.975 71.9777Z" fill="#FDEE6E" stroke="#FFCF25" stroke-width="5" stroke-linecap="round"/>
<path d="M324.751 217.068C294.574 218.465 289.545 240.539 289.545 240.539C289.545 240.539 280.324 238.776 271.662 244.451C263 250.126 263 260.378 263 260.378H399.077C399.077 260.378 403.827 249.76 389.018 239.98C379.691 233.821 363.032 236.348 363.032 236.348C363.032 236.348 354.929 215.671 324.751 217.068Z" fill="#F5F5F5" stroke="#F5F5F5" stroke-width="5"/>
<path d="M234 96.5C192.652 96.5 184.266 138.175 182.787 148.971C182.569 150.564 181.689 151.999 180.319 152.842L178.38 154.036C176.901 154.946 176 156.558 176 158.294V163.598C176 165.393 175.039 167.049 173.481 167.94L171.519 169.06C169.961 169.951 169 171.607 169 173.402V205.943C169 206.64 168.854 207.329 168.572 207.967L155.928 236.533C155.646 237.171 155.5 237.86 155.5 238.557V253.642C155.5 255.109 154.744 256.472 153.5 257.25C152.256 258.028 151.5 259.391 151.5 260.858V533.745C151.5 536.784 154.189 539.12 157.199 538.695L193.531 533.566C193.843 533.522 194.158 533.508 194.473 533.523L311.756 539.244C314.61 539.383 317 537.107 317 534.25V250.74C317 249.615 316.123 248.685 315 248.618C313.877 248.552 313 247.622 313 246.497V227.128C313 226.385 312.835 225.652 312.516 224.981L298.984 196.519C298.665 195.848 298.5 195.115 298.5 194.372V173.62C298.5 171.979 297.695 170.443 296.346 169.509L294.154 167.991C292.805 167.057 292 165.521 292 163.88V158.294C292 156.558 291.099 154.946 289.62 154.036L287.681 152.842C286.311 151.999 285.431 150.564 285.213 148.971C283.734 138.175 275.348 96.5 234 96.5Z" fill="#E5E5E5" stroke="#FFCF25" stroke-width="5" stroke-linecap="round"/>
<path d="M237 63V97.5L224.5 96.5L225 71.5C225 71.5 225 68.875 229.5 64C234 59.125 237 63 237 63Z" fill="#F25726" stroke="#F25726" stroke-width="3"/>
<path d="M221 101.5L221.975 71.9777C221.992 71.4859 222.077 71.0058 222.254 70.5467C223.302 67.8286 227.537 58 234 58" stroke="#F25726" stroke-width="5" stroke-linecap="round"/>
<path d="M233.5 96C192.152 96 183.766 137.675 182.287 148.471C182.069 150.064 181.189 151.499 179.819 152.342L177.88 153.536C176.401 154.446 175.5 156.058 175.5 157.794V163.098C175.5 164.893 174.539 166.549 172.981 167.44L171.019 168.56C169.461 169.451 168.5 171.107 168.5 172.902V205.443C168.5 206.14 168.354 206.829 168.072 207.467L155.428 236.033C155.146 236.671 155 237.36 155 238.057V253.142C155 254.609 154.244 255.972 153 256.75C151.756 257.528 151 258.891 151 260.358V533.245C151 536.284 153.689 538.62 156.699 538.195L193.031 533.066C193.343 533.022 193.658 533.008 193.973 533.023L311.256 538.744C314.11 538.883 316.5 536.607 316.5 533.75V250.24C316.5 249.115 315.623 248.185 314.5 248.118C313.377 248.052 312.5 247.122 312.5 245.997V226.628C312.5 225.885 312.335 225.152 312.016 224.481L298.484 196.019C298.165 195.348 298 194.615 298 193.872V173.12C298 171.479 297.195 169.943 295.846 169.009L293.654 167.491C292.305 166.557 291.5 165.021 291.5 163.38V157.794C291.5 156.058 290.599 154.446 289.12 153.536L287.181 152.342C285.811 151.499 284.931 150.064 284.713 148.471C283.234 137.675 274.848 96 233.5 96Z" fill="#FDEE6E" stroke="#FFCF25" stroke-width="5" stroke-linecap="round"/>
<path d="M216.829 243.157L230.329 244.314C231.497 244.414 232.5 243.493 232.5 242.321V139.5C232.5 139.5 232.5 126.5 233.5 115.5C234.176 108.06 236.454 101.992 237.857 98.8441C238.394 97.6412 237.744 96.2231 236.437 96.0591C230.152 95.2702 213.5 94.955 200 110.5C185.207 127.535 182.908 145.591 182.56 149.991C182.51 150.629 182.189 151.215 181.663 151.579L176.862 154.904C176.322 155.277 176 155.892 176 156.548V165.339C176 166.057 175.615 166.72 174.992 167.076L170.008 169.924C169.385 170.28 169 170.943 169 171.661V207.071C169 207.354 168.94 207.633 168.824 207.891L155.676 237.108C155.56 237.367 155.5 237.646 155.5 237.929V254.891C155.5 255.581 155.145 256.222 154.56 256.587L152.44 257.912C151.855 258.278 151.5 258.919 151.5 259.608V484.813C151.5 486.288 153.042 487.255 154.37 486.613L194.87 467.046C195.561 466.712 196 466.013 196 465.245V242.75C196 242.06 196.56 241.5 197.25 241.5C197.94 241.5 198.5 240.94 198.5 240.25V216.669C198.5 216.557 198.51 216.444 198.528 216.333L204.122 183.516C204.497 181.316 207.648 181.29 208.059 183.484L214.966 220.317C214.989 220.439 215 220.562 215 220.686V241.164C215 242.202 215.795 243.068 216.829 243.157Z" fill="#F25726" stroke="#F25726" stroke-width="3"/>
<path d="M218 218V184.222C218 184.222 218 178 211.5 178C205 178 205 184.222 205 184.222L216 218H218Z" fill="#272727" stroke="#272727" stroke-width="3" stroke-linecap="round"/>
<path d="M237.357 57.7712L238 97L225 96.2504L225.494 71.2639C225.494 71.2639 225.494 63.2682 228.954 59.2704C232.414 55.2725 237.357 57.7712 237.357 57.7712Z" fill="#F25726" stroke="#F25726" stroke-width="3"/>
<path d="M233.5 96C192.152 96 183.766 137.675 182.287 148.471C182.069 150.064 181.189 151.499 179.819 152.342L177.88 153.536C176.401 154.446 175.5 156.058 175.5 157.794V163.098C175.5 164.893 174.539 166.549 172.981 167.44L171.019 168.56C169.461 169.451 168.5 171.107 168.5 172.902V205.443C168.5 206.14 168.354 206.829 168.072 207.467L155.428 236.033C155.146 236.671 155 237.36 155 238.057V253.142C155 254.609 154.244 255.972 153 256.75V256.75C151.756 257.528 151 258.891 151 260.358V539" stroke="#B5401B" stroke-width="5" stroke-linecap="round"/>
<path d="M212.5 288V539H232.5V288C232.5 288 232.5 271.5 222.5 271.5C212.5 271.5 212.5 288 212.5 288Z" fill="#FFA800" stroke="#FFA800" stroke-width="5" stroke-linecap="round"/>
<path d="M248 185.222V219H261V185.222C261 185.222 261 179 254.5 179C248 179 248 185.222 248 185.222Z" fill="#FFA800" stroke="#FFA800" stroke-width="5" stroke-linecap="round"/>
<path d="M204.5 182.5L215 219.5" stroke="#272727" stroke-width="3" stroke-linecap="round"/>
<path d="M247 290.407V540H266V290.407C266 290.407 266 274 256.5 274C247 274 247 290.407 247 290.407Z" fill="#FFA800" stroke="#FFA800" stroke-width="5" stroke-linecap="round"/>
<path d="M281 293.222V540H300V293.222C300 293.222 300 277 290.5 277C281 277 281 293.222 281 293.222Z" fill="#FFA800" stroke="#FFA800" stroke-width="5" stroke-linecap="round"/>
<path d="M186 275V539" stroke="#272727" stroke-width="7" stroke-linecap="round"/>
<path d="M173 281V540" stroke="#272727" stroke-width="7" stroke-linecap="round"/>
<path d="M161 287V540" stroke="#272727" stroke-width="7" stroke-linecap="round"/>
<path d="M177.786 460.184C92.8589 463.985 78.7044 524.033 78.7044 524.033C78.7044 524.033 52.7544 519.236 28.3772 534.674C4 550.112 4 578 4 578H386.958C386.958 578 400.326 549.116 358.649 522.513C332.402 505.758 285.518 512.631 285.518 512.631C285.518 512.631 262.713 456.384 177.786 460.184Z" fill="#F5F5F5"/>
<path d="M386.958 578H4C4 578 4 550.112 28.3772 534.674C52.7544 519.236 78.7044 524.033 78.7044 524.033C78.7044 524.033 92.8589 463.985 177.786 460.184C184.77 459.872 191.334 459.965 197.5 460.4" stroke="#B5401B" stroke-width="7"/>
<mask id="mask0_714_326" style="mask-type:alpha" maskUnits="userSpaceOnUse" x="244" y="19" width="40" height="44">
<ellipse rx="20.9247" ry="20.2429" transform="matrix(0.313132 -0.94971 -0.910702 -0.413064 263.987 41.234)" fill="#C4C4C4"/>
</mask>
<g mask="url(#mask0_714_326)">
<ellipse rx="20.9247" ry="20.2429" transform="matrix(0.313132 -0.94971 -0.910702 -0.413064 275.711 66.6855)" fill="#F25726"/>
</g>
<mask id="mask1_714_326" style="mask-type:alpha" maskUnits="userSpaceOnUse" x="252" y="39" width="40" height="42">
<ellipse rx="19.0459" ry="21.2131" transform="matrix(0.889249 -0.457424 -0.453635 -0.891187 272.192 59.9153)" fill="#C4C4C4"/>
</mask>
<g mask="url(#mask1_714_326)">
<ellipse rx="19.0459" ry="21.2131" transform="matrix(0.889188 -0.457544 -0.453539 -0.891237 266.399 85.5371)" fill="#F25726"/>
</g>
<mask id="mask2_714_326" style="mask-type:alpha" maskUnits="userSpaceOnUse" x="221" y="18" width="40" height="42">
<ellipse rx="21.214" ry="19.045" transform="matrix(-0.434696 -0.900577 -0.900822 0.434189 241.467 39.1017)" fill="#C4C4C4"/>
</mask>
<g mask="url(#mask2_714_326)">
<ellipse rx="21.214" ry="19.045" transform="matrix(-0.434696 -0.900577 -0.900822 0.434189 265.878 48.0909)" fill="#F25726"/>
</g>
<mask id="mask3_714_326" style="mask-type:alpha" maskUnits="userSpaceOnUse" x="163" y="179" width="29" height="48">
<rect x="163.282" y="183.036" width="18.1722" height="45.046" transform="rotate(-12.8339 163.282 183.036)" fill="#C4C4C4"/>
</mask>
<g mask="url(#mask3_714_326)">
<path d="M178 186L178 233" stroke="#272727" stroke-width="7" stroke-linecap="round"/>
</g>
<mask id="mask4_714_326" style="mask-type:alpha" maskUnits="userSpaceOnUse" x="284" y="181" width="6" height="42">
<rect x="284" y="181" width="6" height="42" fill="#C4C4C4"/>
</mask>
<g mask="url(#mask4_714_326)">
<path d="M283.942 186.5L283.942 233.544" stroke="#FFA800" stroke-width="7" stroke-linecap="round"/>
</g>
</svg>
