<svg width="442" height="630" viewBox="0 0 442 630" fill="none" xmlns="http://www.w3.org/2000/svg">
<path d="M241.214 74.604L240.201 100.807C240.091 103.642 242.36 106 245.197 106H264.646C267.542 106 269.832 103.548 269.634 100.658L267.845 74.5272C267.815 74.0957 267.731 73.6716 267.578 73.2672C266.526 70.4954 261.8 59.2214 254.521 59.2214C247.3 59.2214 242.593 70.3146 241.491 73.1986C241.318 73.6492 241.232 74.122 241.214 74.604Z" fill="#FDEE6E" stroke="black" stroke-width="5" stroke-linecap="round"/>
<path d="M354.948 235.352C321.553 236.899 315.988 261.341 315.988 261.341C315.988 261.341 305.784 259.388 296.198 265.672C286.613 271.956 286.613 283.307 286.613 283.307H437.197C437.197 283.307 442.454 271.55 426.066 260.722C415.745 253.902 397.309 256.7 397.309 256.7C397.309 256.7 388.342 233.805 354.948 235.352Z" fill="#15766A" stroke="#15766A" stroke-width="5"/>
<path d="M254.521 101.851C208.42 101.851 199.347 148.697 197.813 160.216C197.6 161.809 196.72 163.25 195.351 164.093L192.716 165.715C191.238 166.626 190.338 168.237 190.338 169.973V176.459C190.338 178.253 189.377 179.909 187.819 180.8L185.109 182.349C183.552 183.239 182.591 184.896 182.591 186.69V223.148C182.591 223.844 182.446 224.533 182.164 225.17L168.079 257.01C167.798 257.647 167.652 258.336 167.652 259.032V275.85C167.652 277.474 166.816 278.983 165.439 279.844C164.062 280.705 163.226 282.215 163.226 283.839V586.614C163.226 589.654 165.915 591.99 168.925 591.565L209.787 585.793C210.099 585.749 210.415 585.734 210.73 585.75L341.126 592.114C343.98 592.254 346.37 589.977 346.37 587.12V272.635C346.37 271.39 345.4 270.36 344.157 270.287C342.914 270.213 341.944 269.184 341.944 267.939V246.37C341.944 245.627 341.778 244.894 341.46 244.224L326.382 212.489C326.063 211.818 325.898 211.085 325.898 210.343V186.961C325.898 185.321 325.093 183.785 323.745 182.851L320.858 180.851C319.509 179.917 318.705 178.381 318.705 176.741V169.973C318.705 168.237 317.804 166.626 316.326 165.715L313.691 164.093C312.323 163.25 311.442 161.809 311.23 160.216C309.696 148.697 300.623 101.851 254.521 101.851Z" fill="#FDEE6E" stroke="black" stroke-width="5" stroke-linecap="round"/>
<path d="M257.288 61.436C258.368 77.8677 257.867 85.4195 258.948 101.851H240.688L241.242 74.1696C241.242 74.1696 240.688 71.4014 247.328 64.2041C253.968 57.0069 257.288 61.436 257.288 61.436Z" fill="#F25726" stroke="#F25726" stroke-width="3"/>
<mask id="mask0" style="mask-type:alpha" maskUnits="userSpaceOnUse" x="233" y="53" width="41" height="50">
<rect x="233" y="53" width="41" height="50" fill="#C4C4C4"/>
</mask>
<g mask="url(#mask0)">
<path d="M241.214 74.3825L240.201 100.585C240.091 103.42 242.36 105.779 245.197 105.779H264.646C267.542 105.779 269.832 103.326 269.634 100.437L267.845 74.3058C267.815 73.8742 267.731 73.4502 267.578 73.0458C266.526 70.2739 261.8 59 254.521 59C247.3 59 242.593 70.0932 241.491 72.9772C241.318 73.4278 241.232 73.9005 241.214 74.3825Z" stroke="black" stroke-width="5" stroke-linecap="round"/>
</g>
<path d="M236.162 262.516L250.744 263.375C251.892 263.443 252.861 262.529 252.861 261.379V149.464C252.861 149.464 252.861 135.069 253.968 122.889C254.741 114.375 257.137 107.484 258.509 104.107C258.988 102.929 258.338 101.584 257.078 101.41C250.557 100.507 232.1 99.835 216.896 117.353C200.406 136.353 197.945 156.5 197.589 161.185C197.541 161.822 197.22 162.413 196.694 162.777L191.199 166.583C190.659 166.957 190.338 167.571 190.338 168.227V178.2C190.338 178.917 189.953 179.58 189.33 179.936L183.599 183.213C182.976 183.569 182.591 184.232 182.591 184.949V224.329C182.591 224.612 182.531 224.891 182.415 225.149L167.828 257.584C167.712 257.842 167.652 258.122 167.652 258.405V277.352C167.652 278.041 167.297 278.682 166.712 279.048L164.165 280.641C163.581 281.006 163.226 281.647 163.226 282.337V532.158C163.226 533.633 164.768 534.6 166.096 533.958L211.34 512.086C212.031 511.752 212.47 511.052 212.47 510.285V263.788C212.47 263.024 213.089 262.405 213.853 262.405C214.617 262.405 215.236 261.786 215.236 261.022V234.723L218.542 198.5C218.743 196.301 221.835 196.001 222.453 198.121L234.2 238.376C234.253 238.558 234.28 238.746 234.28 238.936V260.519C234.28 261.578 235.105 262.453 236.162 262.516Z" fill="#F25726" stroke="#F25726" stroke-width="3"/>
<path d="M253.968 101.298C207.866 101.298 198.793 148.143 197.259 159.662C197.047 161.255 196.166 162.697 194.798 163.539L192.163 165.162C190.685 166.072 189.784 167.684 189.784 169.419V175.905C189.784 177.699 188.823 179.356 187.266 180.246L184.556 181.796C182.999 182.686 182.038 184.342 182.038 186.136V222.594C182.038 223.291 181.892 223.98 181.611 224.617L167.526 256.456C167.244 257.093 167.099 257.782 167.099 258.479V275.296C167.099 276.92 166.262 278.43 164.885 279.291C163.509 280.152 162.672 281.661 162.672 283.285V586.061C162.672 589.1 165.362 591.437 168.372 591.012L209.234 585.239C209.546 585.195 209.862 585.181 210.177 585.196L340.573 591.561C343.427 591.7 345.817 589.424 345.817 586.567V272.081C345.817 270.836 344.847 269.807 343.604 269.733C342.361 269.66 341.39 268.63 341.39 267.385V245.816C341.39 245.074 341.225 244.341 340.907 243.67L325.828 211.935C325.51 211.265 325.344 210.532 325.344 209.79V186.408C325.344 184.768 324.54 183.232 323.192 182.298L320.304 180.298C318.956 179.364 318.151 177.828 318.151 176.187V169.419C318.151 167.684 317.251 166.072 315.773 165.162L313.138 163.539C311.769 162.697 310.889 161.255 310.677 159.662C309.142 148.143 300.069 101.298 253.968 101.298Z" stroke="black" stroke-width="5" stroke-linecap="round"/>
<path d="M254.296 102C208.194 102 199.121 148.845 197.587 160.364C197.375 161.958 196.494 163.399 195.125 164.242L192.49 165.864C191.012 166.774 190.112 168.386 190.112 170.122V176.608C190.112 178.402 189.151 180.058 187.594 180.948L184.884 182.498C183.327 183.388 182.366 185.045 182.366 186.838V223.296C182.366 223.993 182.22 224.682 181.938 225.319L167.854 257.158C167.572 257.795 167.426 258.484 167.426 259.181V275.999C167.426 277.623 166.59 279.132 165.213 279.993C163.836 280.854 163 282.364 163 283.988V586.763C163 589.803 165.69 592.139 168.699 591.714L209.562 585.942C209.874 585.898 210.19 585.883 210.505 585.899L340.901 592.263C343.755 592.402 346.145 590.126 346.145 587.269V272.784C346.145 271.539 345.174 270.509 343.931 270.436C342.688 270.362 341.718 269.333 341.718 268.087V246.518C341.718 245.776 341.553 245.043 341.234 244.373L326.156 212.638C325.837 211.967 325.672 211.234 325.672 210.492V187.11C325.672 185.47 324.868 183.934 323.519 183L320.632 181C319.284 180.066 318.479 178.53 318.479 176.89V170.122C318.479 168.386 317.579 166.774 316.101 165.864L313.466 164.242C312.097 163.399 311.216 161.958 311.004 160.364C309.47 148.845 300.397 102 254.296 102Z" stroke="black" stroke-width="5" stroke-linecap="round"/>
<path d="M230.729 313.893V591.817H252.861V313.893C252.861 313.893 252.861 295.623 241.795 295.623C230.729 295.623 230.729 313.893 230.729 313.893Z" fill="black" stroke="black" stroke-width="5" stroke-linecap="round"/>
<path d="M270.014 200.09V237.491H284.4V200.09C284.4 200.09 284.4 193.201 277.207 193.201C270.014 193.201 270.014 200.09 270.014 200.09Z" fill="black" stroke="black" stroke-width="5" stroke-linecap="round"/>
<path d="M236.815 236.384V198.983C236.815 198.983 236.815 192.093 229.622 192.093C222.429 192.093 222.429 198.983 222.429 198.983L234.602 236.384H236.815Z" fill="black" stroke="black" stroke-width="5" stroke-linecap="round"/>
<path d="M268.907 316.558V592.924H289.933V316.558C289.933 316.558 289.933 298.391 279.42 298.391C268.907 298.391 268.907 316.558 268.907 316.558Z" fill="black" stroke="black" stroke-width="5" stroke-linecap="round"/>
<path d="M306.532 319.675V592.924H327.558V319.675C327.558 319.675 327.558 301.713 317.045 301.713C306.532 301.713 306.532 319.675 306.532 319.675Z" fill="black" stroke="black" stroke-width="5" stroke-linecap="round"/>
<path d="M201.404 299.498V591.817" stroke="black" stroke-width="7" stroke-linecap="round"/>
<path d="M187.018 306.142V592.924" stroke="black" stroke-width="7" stroke-linecap="round"/>
<path d="M173.738 312.785V592.924" stroke="black" stroke-width="7" stroke-linecap="round"/>
<path d="M197.71 504.205C101.091 508.424 84.9884 575.087 84.9884 575.087C84.9884 575.087 55.4661 569.762 27.733 586.901C0 604.04 0 635 0 635H435.677C435.677 635 450.886 602.934 403.471 573.4C373.61 554.799 320.272 562.43 320.272 562.43C320.272 562.43 294.328 499.985 197.71 504.205Z" fill="#15766A" stroke="#15766A" stroke-width="7"/>
<mask id="mask1" style="mask-type:alpha" maskUnits="userSpaceOnUse" x="265" y="17" width="44" height="49">
<ellipse rx="23.1635" ry="22.4069" transform="matrix(0.31308 -0.949974 -0.910409 -0.41317 286.73 41.4779)" fill="#C4C4C4"/>
</mask>
<g mask="url(#mask1)">
<ellipse rx="23.1635" ry="22.4069" transform="matrix(0.313081 -0.949974 -0.910409 -0.41317 299.704 69.6593)" fill="#F25726"/>
</g>
<mask id="mask2" style="mask-type:alpha" maskUnits="userSpaceOnUse" x="275" y="38" width="44" height="47">
<ellipse rx="21.0828" ry="23.4821" transform="matrix(0.889123 -0.457692 -0.453368 -0.891314 296.785 61.3422)" fill="#FFE570"/>
</mask>
<g mask="url(#mask2)">
<ellipse rx="21.0828" ry="23.4821" transform="matrix(0.889062 -0.457811 -0.453272 -0.891363 290.374 89.7123)" fill="#F25726"/>
</g>
<mask id="mask3" style="mask-type:alpha" maskUnits="userSpaceOnUse" x="241" y="15" width="44" height="47">
<ellipse rx="23.4831" ry="21.0817" transform="matrix(-0.434434 -0.900705 -0.900694 0.434451 262.784 38.2959)" fill="#C4C4C4"/>
</mask>
<g mask="url(#mask3)">
<ellipse rx="23.4831" ry="21.0817" transform="matrix(-0.434435 -0.900705 -0.900694 0.434451 289.798 48.2495)" fill="#F25726"/>
</g>
<mask id="mask4" style="mask-type:alpha" maskUnits="userSpaceOnUse" x="176" y="193" width="31" height="54">
<rect width="20.1102" height="49.8765" transform="matrix(0.97499 -0.222251 0.222002 0.975046 176.263 197.67)" fill="#C4C4C4"/>
</mask>
<g mask="url(#mask4)">
<path d="M192.551 200.951L192.551 252.993" stroke="black" stroke-width="7" stroke-linecap="round"/>
</g>
<mask id="mask5" style="mask-type:alpha" maskUnits="userSpaceOnUse" x="309" y="195" width="8" height="47">
<rect x="309.852" y="195.415" width="6.63971" height="46.5052" fill="#C4C4C4"/>
</mask>
<g mask="url(#mask5)">
<path d="M309.788 201.505L309.788 253.596" stroke="black" stroke-width="7" stroke-linecap="round"/>
</g>
</svg>
