<svg width="516" height="390" viewBox="0 0 516 390" fill="none" xmlns="http://www.w3.org/2000/svg">
<mask id="mask0_709_166" style="mask-type:alpha" maskUnits="userSpaceOnUse" x="285" y="23" width="45" height="48">
<ellipse rx="22.8553" ry="22.1088" transform="matrix(0.0864012 -0.996497 -0.98099 -0.192905 307.711 46.9318)" fill="#C4C4C4"/>
</mask>
<g mask="url(#mask0_709_166)">
<ellipse rx="22.8553" ry="22.1088" transform="matrix(0.0864015 -0.996496 -0.98099 -0.192904 326.559 71.0527)" fill="#51E1AD"/>
</g>
<mask id="mask1_709_166" style="mask-type:alpha" maskUnits="userSpaceOnUse" x="300" y="41" width="44" height="46">
<ellipse rx="20.8023" ry="23.1697" transform="matrix(0.760153 -0.649761 -0.646056 -0.763278 322.213 63.876)" fill="#C4C4C4"/>
</mask>
<g mask="url(#mask1_709_166)">
<ellipse rx="20.8023" ry="23.1697" transform="matrix(0.760066 -0.649863 -0.645974 -0.763349 322.489 92.5733)" fill="#51E1AD"/>
</g>
<mask id="mask2_709_166" style="mask-type:alpha" maskUnits="userSpaceOnUse" x="262" y="27" width="45" height="45">
<ellipse rx="23.1707" ry="20.8012" transform="matrix(-0.629787 -0.776769 -0.776755 0.629801 284.336 49.4542)" fill="#C4C4C4"/>
</mask>
<g mask="url(#mask2_709_166)">
<ellipse rx="23.1707" ry="20.8012" transform="matrix(-0.629787 -0.776769 -0.776755 0.629801 312.534 52.8875)" fill="#51E1AD"/>
</g>
<path d="M1.55748 76.4752L39.0964 310.484C39.3291 311.935 40.5788 313.004 42.0483 313.009L331.482 313.988C333.328 313.994 334.742 312.348 334.456 310.525L297.702 75.5364C297.473 74.0763 296.216 73 294.738 73H4.51961C2.67318 73 1.26502 74.6521 1.55748 76.4752Z" fill="#E5FFEA"/>
<path d="M22.0334 87.4574L54.8956 300.457C55.1213 301.92 56.3803 303 57.8605 303H318.502C320.341 303 321.747 301.36 321.467 299.543L288.604 86.5426C288.379 85.0796 287.12 84 285.639 84H24.9983C23.1592 84 21.753 85.6398 22.0334 87.4574Z" fill="#15766A"/>
<path d="M39.5 311.449L3.5 76" stroke="#51E1AD" stroke-width="6" stroke-linecap="round"/>
<path d="M39.5 312.449H333.5" stroke="#51E1AD" stroke-width="3" stroke-linecap="round"/>
<path d="M122.231 236.907C122.756 236.536 123.365 236.339 123.974 236.341L181.012 236.578C183.851 236.589 184.716 240.425 182.269 242.151L133.11 276.834C132.586 277.204 131.976 277.402 131.368 277.399L74.33 277.163C71.4908 277.151 70.6254 273.316 73.0725 271.589L122.231 236.907Z" fill="#E5FFEA"/>
<path d="M123.438 229.686L180.45 231.436C181.396 231.465 181.65 232.75 180.819 233.304L130.757 266.67C130.579 266.788 130.374 266.849 130.171 266.843L73.1601 265.093C72.2142 265.064 71.9597 263.778 72.7904 263.224L122.853 229.859C123.031 229.74 123.235 229.679 123.438 229.686Z" fill="#E5E5E5" stroke="#E5FFEA" stroke-width="4"/>
<path d="M122.692 230.716L178.245 230.946C179.191 230.95 179.48 232.229 178.664 232.804L130.771 266.594C130.596 266.717 130.392 266.783 130.189 266.782L76.1888 266.511C75.2507 266.506 74.9564 265.246 75.7571 264.663L122.098 230.914C122.276 230.785 122.484 230.715 122.692 230.716Z" fill="#15766A" stroke="#E5FFEA" stroke-width="2"/>
<path d="M122.719 221.257L179.756 221.493C180.703 221.497 180.991 222.775 180.176 223.351L131.017 258.034C130.842 258.157 130.639 258.223 130.436 258.222L73.3982 257.986C72.4518 257.982 72.1633 256.704 72.979 256.128L122.138 221.445C122.313 221.322 122.516 221.256 122.719 221.257Z" fill="#15766A" stroke="#E5FFEA" stroke-width="4"/>
<path d="M125.413 230.464L146.578 230.54C147.997 230.545 148.429 232.462 147.205 233.327L128.959 246.214C128.697 246.399 128.392 246.498 128.088 246.497L106.923 246.421C105.504 246.416 105.072 244.499 106.296 243.634L124.542 230.747C124.804 230.562 125.109 230.463 125.413 230.464Z" fill="#15766A" stroke="#E5FFEA" stroke-width="3"/>
<path d="M135.147 143.125C135.147 143.125 141.761 149.902 145.196 159.974M127.911 235.367C127.911 235.367 121.713 229.281 140.708 191.957M145.072 183.104C146.43 179.579 147.071 176.128 147.192 172.824" stroke="#E5FFEA" stroke-width="4" stroke-linecap="round"/>
<path d="M111.16 191.991C111.16 191.991 111.312 196.317 115.79 202.18C120.269 208.042 130.073 211.665 130.073 211.665" stroke="#E5FFEA" stroke-width="4" stroke-linecap="round"/>
<path d="M168.844 172.841C168.844 172.841 167.416 175.981 164.102 178.788C156.564 184.246 147.426 187.388 147.426 187.388" stroke="#E5FFEA" stroke-width="4" stroke-linecap="round"/>
<path d="M120.56 143.277C120.56 143.277 120.017 144.669 125.826 149.661C131.635 154.652 141.944 155.086 141.944 155.086" stroke="#E5FFEA" stroke-width="4" stroke-linecap="round"/>
<path d="M84.4939 180.658L84.1183 182.623L86.0149 182.985L86.4439 181.103L84.4939 180.658ZM126.464 178.264L124.602 178.994L125.185 180.481L126.764 180.242L126.464 178.264ZM147.05 191.989V193.989H148.347L148.876 192.805L147.05 191.989ZM69.3335 191.989H67.3335V193.989H69.3335V191.989ZM141.305 180.339L140.203 182.008L141.305 180.339ZM98.5951 193.989C99.6997 193.989 100.595 193.093 100.595 191.989C100.595 190.884 99.6997 189.989 98.5951 189.989V193.989ZM84.4939 180.658C86.4439 181.103 86.4437 181.104 86.4434 181.105C86.4433 181.105 86.4431 181.106 86.4429 181.107C86.4426 181.108 86.4424 181.109 86.4422 181.11C86.4418 181.112 86.4415 181.113 86.4414 181.113C86.4413 181.114 86.4418 181.112 86.4431 181.106C86.4457 181.096 86.4511 181.075 86.4598 181.043C86.4773 180.979 86.5077 180.873 86.5536 180.731C86.6456 180.448 86.7993 180.021 87.0352 179.498C87.508 178.45 88.304 177.027 89.5834 175.579C92.0999 172.731 96.6206 169.625 104.694 169.251L104.509 165.255C95.3472 165.68 89.8141 169.276 86.5856 172.931C84.9925 174.734 83.9933 176.513 83.3888 177.854C83.0862 178.525 82.8808 179.09 82.7484 179.498C82.6821 179.703 82.6339 179.869 82.6009 179.99C82.5844 180.051 82.5716 180.1 82.5622 180.138C82.5575 180.156 82.5537 180.172 82.5506 180.185C82.5491 180.191 82.5478 180.197 82.5467 180.202C82.5461 180.204 82.5456 180.206 82.5451 180.208C82.5449 180.209 82.5446 180.211 82.5445 180.211C82.5442 180.213 82.5439 180.214 84.4939 180.658ZM104.694 169.251C112.793 168.876 117.761 171.451 120.691 173.975C122.175 175.254 123.171 176.55 123.789 177.513C124.098 177.993 124.311 178.388 124.442 178.651C124.507 178.782 124.552 178.881 124.578 178.94C124.592 178.969 124.6 178.989 124.604 178.999C124.606 179.003 124.607 179.005 124.606 179.005C124.606 179.004 124.606 179.003 124.605 179.001C124.605 179.001 124.604 179 124.604 178.998C124.604 178.998 124.603 178.997 124.603 178.996C124.603 178.995 124.602 178.994 126.464 178.264C128.326 177.535 128.326 177.533 128.325 177.532C128.325 177.532 128.325 177.53 128.324 177.529C128.324 177.528 128.323 177.525 128.322 177.523C128.32 177.519 128.318 177.513 128.315 177.507C128.311 177.495 128.304 177.48 128.297 177.463C128.282 177.427 128.263 177.381 128.238 177.324C128.188 177.211 128.116 177.056 128.022 176.866C127.832 176.487 127.549 175.965 127.155 175.351C126.366 174.124 125.128 172.518 123.301 170.944C119.608 167.763 113.644 164.832 104.509 165.255L104.694 169.251ZM69.3335 191.989C71.3335 191.989 71.3335 191.989 71.3335 191.99C71.3335 191.99 71.3335 191.991 71.3335 191.992C71.3335 191.993 71.3335 191.993 71.3335 191.994C71.3335 191.996 71.3335 191.997 71.3335 191.998C71.3335 191.999 71.3335 192 71.3335 191.999C71.3335 191.997 71.3336 191.99 71.3339 191.977C71.3346 191.953 71.3362 191.909 71.3398 191.847C71.347 191.722 71.3623 191.528 71.3944 191.279C71.4589 190.778 71.5894 190.074 71.8506 189.284C72.3742 187.702 73.3896 185.867 75.3766 184.565L73.1845 181.219C70.2244 183.159 68.7664 185.872 68.0531 188.028C67.696 189.107 67.5173 190.069 67.4272 190.767C67.382 191.118 67.3586 191.406 67.3465 191.615C67.3405 191.719 67.3372 191.804 67.3355 191.867C67.3346 191.898 67.3341 191.924 67.3338 191.945C67.3337 191.955 67.3336 191.964 67.3336 191.971C67.3335 191.975 67.3335 191.978 67.3335 191.981C67.3335 191.982 67.3335 191.984 67.3335 191.985C67.3335 191.986 67.3335 191.987 67.3335 191.987C67.3335 191.988 67.3335 191.989 69.3335 191.989ZM75.3766 184.565C77.4952 183.177 79.6988 182.688 81.4004 182.554C82.248 182.486 82.9555 182.508 83.4409 182.546C83.6829 182.564 83.8677 182.586 83.9845 182.602C84.0429 182.611 84.0842 182.617 84.1069 182.621C84.1183 182.623 84.1251 182.624 84.127 182.624C84.128 182.624 84.1278 182.624 84.1263 182.624C84.1256 182.624 84.1246 182.624 84.1232 182.624C84.1225 182.623 84.1218 182.623 84.121 182.623C84.1206 182.623 84.1199 182.623 84.1197 182.623C84.119 182.623 84.1183 182.623 84.4939 180.658C84.8695 178.694 84.8688 178.694 84.868 178.694C84.8677 178.693 84.8669 178.693 84.8663 178.693C84.8652 178.693 84.864 178.693 84.8627 178.692C84.86 178.692 84.8571 178.691 84.8538 178.691C84.8473 178.69 84.8394 178.688 84.8303 178.687C84.812 178.683 84.7885 178.679 84.7601 178.675C84.7034 178.665 84.6266 178.653 84.5314 178.64C84.3409 178.614 84.0756 178.583 83.7466 178.557C83.09 178.507 82.1717 178.48 81.0843 178.566C78.916 178.738 76.0131 179.366 73.1845 181.219L75.3766 184.565ZM126.464 178.264C126.764 180.242 126.764 180.242 126.763 180.242C126.763 180.242 126.763 180.242 126.763 180.242C126.763 180.242 126.762 180.242 126.762 180.242C126.762 180.242 126.763 180.242 126.764 180.242C126.766 180.242 126.771 180.241 126.778 180.24C126.791 180.238 126.813 180.235 126.843 180.231C126.904 180.222 126.999 180.21 127.123 180.195C127.371 180.165 127.738 180.125 128.198 180.087C129.121 180.011 130.402 179.945 131.836 179.982C134.791 180.059 138.026 180.57 140.203 182.008L142.408 178.67C139.258 176.59 135.072 176.065 131.939 175.983C130.328 175.942 128.898 176.016 127.87 176.101C127.355 176.143 126.937 176.188 126.644 176.224C126.498 176.241 126.382 176.256 126.301 176.268C126.261 176.273 126.229 176.278 126.206 176.281C126.194 176.283 126.185 176.284 126.178 176.285C126.175 176.286 126.172 176.286 126.17 176.286C126.168 176.286 126.167 176.287 126.167 176.287C126.166 176.287 126.166 176.287 126.165 176.287C126.165 176.287 126.164 176.287 126.464 178.264ZM140.203 182.008C144.036 184.539 145.105 186.999 145.378 188.596C145.521 189.431 145.463 190.122 145.376 190.587C145.333 190.82 145.283 190.994 145.249 191.097C145.232 191.148 145.22 191.181 145.215 191.194C145.212 191.201 145.212 191.202 145.213 191.199C145.214 191.197 145.215 191.194 145.217 191.189C145.218 191.187 145.219 191.184 145.221 191.182C145.221 191.18 145.222 191.179 145.223 191.177C145.223 191.176 145.223 191.175 145.224 191.174C145.224 191.173 145.225 191.172 147.05 191.989C148.876 192.805 148.877 192.804 148.877 192.803C148.878 192.802 148.878 192.801 148.879 192.8C148.88 192.798 148.88 192.796 148.881 192.793C148.883 192.789 148.885 192.784 148.888 192.779C148.892 192.769 148.897 192.757 148.903 192.743C148.914 192.716 148.928 192.683 148.943 192.644C148.973 192.566 149.011 192.463 149.052 192.338C149.134 192.087 149.23 191.743 149.308 191.32C149.466 190.475 149.557 189.3 149.321 187.921C148.836 185.089 147.033 181.724 142.408 178.67L140.203 182.008ZM147.05 189.989H111.16V193.989H147.05V189.989ZM98.5951 189.989H69.3335V193.989H98.5951V189.989Z" fill="#E5FFEA"/>
<path d="M145.135 161.508L144.76 163.473L146.657 163.835L147.086 161.953L145.135 161.508ZM187.106 159.115L185.244 159.844L185.827 161.331L187.406 161.092L187.106 159.115ZM207.692 172.839V174.839H208.988L209.518 173.655L207.692 172.839ZM129.975 172.839H127.975V174.839H129.975V172.839ZM201.947 161.189L200.845 162.858L201.947 161.189ZM181.408 170.839C180.304 170.839 179.408 171.734 179.408 172.839C179.408 173.943 180.304 174.839 181.408 174.839V170.839ZM145.135 161.508C147.086 161.953 147.085 161.954 147.085 161.955C147.085 161.955 147.085 161.956 147.085 161.957C147.084 161.958 147.084 161.959 147.084 161.96C147.083 161.962 147.083 161.963 147.083 161.963C147.083 161.964 147.083 161.962 147.085 161.956C147.087 161.946 147.093 161.925 147.101 161.893C147.119 161.829 147.149 161.723 147.195 161.582C147.287 161.298 147.441 160.871 147.677 160.348C148.15 159.3 148.946 157.877 150.225 156.429C152.742 153.581 157.262 150.475 165.335 150.101L165.15 146.105C155.989 146.53 150.456 150.126 147.227 153.781C145.634 155.584 144.635 157.363 144.03 158.704C143.728 159.375 143.522 159.94 143.39 160.348C143.324 160.553 143.276 160.719 143.242 160.84C143.226 160.901 143.213 160.95 143.204 160.988C143.199 161.006 143.195 161.022 143.192 161.035C143.191 161.041 143.189 161.047 143.188 161.052C143.188 161.054 143.187 161.056 143.187 161.058C143.186 161.059 143.186 161.061 143.186 161.061C143.186 161.063 143.185 161.064 145.135 161.508ZM165.335 150.101C173.435 149.726 178.402 152.301 181.332 154.825C182.817 156.104 183.813 157.4 184.431 158.363C184.739 158.843 184.952 159.238 185.083 159.501C185.149 159.632 185.194 159.731 185.22 159.79C185.233 159.82 185.242 159.839 185.245 159.849C185.247 159.853 185.248 159.855 185.248 159.855C185.248 159.854 185.247 159.853 185.247 159.852C185.246 159.851 185.246 159.85 185.245 159.848C185.245 159.848 185.245 159.847 185.245 159.846C185.244 159.845 185.244 159.844 187.106 159.115C188.968 158.385 188.967 158.384 188.967 158.382C188.967 158.382 188.966 158.38 188.966 158.38C188.965 158.378 188.964 158.375 188.963 158.373C188.962 158.369 188.959 158.363 188.957 158.357C188.952 158.345 188.946 158.33 188.939 158.313C188.924 158.277 188.904 158.231 188.879 158.174C188.829 158.061 188.758 157.906 188.663 157.716C188.474 157.337 188.191 156.815 187.796 156.201C187.008 154.974 185.769 153.368 183.943 151.794C180.25 148.613 174.286 145.682 165.15 146.105L165.335 150.101ZM129.975 172.839C131.975 172.839 131.975 172.839 131.975 172.84C131.975 172.84 131.975 172.841 131.975 172.842C131.975 172.843 131.975 172.843 131.975 172.844C131.975 172.846 131.975 172.847 131.975 172.848C131.975 172.849 131.975 172.85 131.975 172.849C131.975 172.847 131.975 172.84 131.976 172.827C131.976 172.803 131.978 172.759 131.981 172.697C131.989 172.572 132.004 172.378 132.036 172.129C132.1 171.628 132.231 170.924 132.492 170.134C133.016 168.552 134.031 166.717 136.018 165.415L133.826 162.07C130.866 164.009 129.408 166.722 128.695 168.878C128.338 169.957 128.159 170.919 128.069 171.617C128.024 171.968 128 172.256 127.988 172.465C127.982 172.569 127.979 172.654 127.977 172.717C127.976 172.748 127.976 172.774 127.975 172.795C127.975 172.805 127.975 172.814 127.975 172.821C127.975 172.825 127.975 172.828 127.975 172.831C127.975 172.832 127.975 172.834 127.975 172.835C127.975 172.836 127.975 172.837 127.975 172.837C127.975 172.838 127.975 172.839 129.975 172.839ZM136.018 165.415C138.137 164.027 140.34 163.539 142.042 163.404C142.89 163.336 143.597 163.359 144.083 163.396C144.325 163.414 144.509 163.436 144.626 163.453C144.685 163.461 144.726 163.467 144.749 163.471C144.76 163.473 144.767 163.474 144.769 163.474C144.77 163.474 144.769 163.474 144.768 163.474C144.767 163.474 144.766 163.474 144.765 163.474C144.764 163.473 144.763 163.473 144.763 163.473C144.762 163.473 144.761 163.473 144.761 163.473C144.761 163.473 144.76 163.473 145.135 161.508C145.511 159.544 145.51 159.544 145.51 159.544C145.509 159.544 145.509 159.543 145.508 159.543C145.507 159.543 145.506 159.543 145.504 159.543C145.502 159.542 145.499 159.542 145.495 159.541C145.489 159.54 145.481 159.538 145.472 159.537C145.454 159.533 145.43 159.529 145.402 159.525C145.345 159.515 145.268 159.503 145.173 159.49C144.983 159.464 144.717 159.433 144.388 159.407C143.732 159.357 142.813 159.33 141.726 159.416C139.558 159.588 136.655 160.216 133.826 162.07L136.018 165.415ZM187.106 159.115C187.406 161.092 187.405 161.092 187.405 161.092C187.405 161.092 187.405 161.092 187.404 161.092C187.404 161.092 187.404 161.092 187.404 161.092C187.404 161.092 187.405 161.092 187.406 161.092C187.408 161.092 187.412 161.091 187.419 161.09C187.433 161.088 187.455 161.085 187.485 161.081C187.546 161.072 187.64 161.06 187.764 161.045C188.013 161.015 188.38 160.975 188.84 160.937C189.762 160.861 191.044 160.795 192.477 160.832C195.433 160.909 198.668 161.42 200.845 162.858L203.049 159.52C199.9 157.44 195.714 156.915 192.581 156.833C190.97 156.792 189.54 156.866 188.512 156.951C187.996 156.993 187.579 157.038 187.286 157.074C187.139 157.091 187.024 157.107 186.943 157.118C186.902 157.123 186.87 157.128 186.847 157.131C186.836 157.133 186.827 157.134 186.82 157.135C186.816 157.136 186.813 157.136 186.811 157.136C186.81 157.137 186.809 157.137 186.808 157.137C186.808 157.137 186.807 157.137 186.807 157.137C186.806 157.137 186.806 157.137 187.106 159.115ZM200.845 162.858C204.678 165.389 205.747 167.849 206.02 169.446C206.163 170.281 206.104 170.972 206.018 171.438C205.974 171.67 205.924 171.844 205.891 171.947C205.874 171.998 205.862 172.031 205.857 172.044C205.854 172.051 205.853 172.052 205.855 172.049C205.856 172.047 205.857 172.044 205.859 172.039C205.86 172.037 205.861 172.035 205.862 172.032C205.863 172.03 205.863 172.029 205.864 172.027C205.865 172.026 205.865 172.025 205.865 172.025C205.866 172.023 205.866 172.022 207.692 172.839C209.518 173.655 209.518 173.654 209.519 173.653C209.519 173.652 209.52 173.651 209.52 173.65C209.521 173.648 209.522 173.646 209.523 173.643C209.525 173.639 209.527 173.634 209.529 173.629C209.534 173.619 209.539 173.607 209.544 173.593C209.556 173.567 209.569 173.533 209.584 173.494C209.615 173.416 209.653 173.313 209.693 173.188C209.775 172.937 209.871 172.593 209.95 172.17C210.108 171.325 210.199 170.15 209.963 168.771C209.478 165.94 207.674 162.575 203.049 159.52L200.845 162.858ZM168.834 170.839H129.975V174.839H168.834V170.839ZM207.692 170.839H181.408V174.839H207.692V170.839Z" fill="#E5FFEA"/>
<path d="M109.389 130.868L109.013 132.833L110.91 133.195L111.339 131.313L109.389 130.868ZM151.359 128.475L149.497 129.204L150.08 130.691L151.659 130.452L151.359 128.475ZM171.946 142.199V144.199H173.242L173.771 143.015L171.946 142.199ZM94.2285 140.199C93.1239 140.199 92.2285 141.094 92.2285 142.199C92.2285 143.303 93.1239 144.199 94.2285 144.199V140.199ZM98.0795 131.43C97.1556 132.035 96.8973 133.275 97.5027 134.199C98.108 135.122 99.3477 135.381 100.272 134.775L98.0795 131.43ZM166.201 130.549L165.098 132.218L166.201 130.549ZM109.389 130.868C111.339 131.313 111.339 131.314 111.338 131.315C111.338 131.315 111.338 131.316 111.338 131.317C111.338 131.318 111.337 131.319 111.337 131.32C111.337 131.322 111.337 131.323 111.336 131.323C111.336 131.324 111.337 131.322 111.338 131.317C111.341 131.306 111.346 131.285 111.355 131.253C111.372 131.189 111.403 131.083 111.449 130.942C111.541 130.658 111.694 130.231 111.93 129.708C112.403 128.66 113.199 127.237 114.478 125.789C116.995 122.941 121.516 119.835 129.589 119.461L129.404 115.465C120.242 115.89 114.709 119.486 111.481 123.141C109.888 124.944 108.888 126.723 108.284 128.064C107.981 128.735 107.776 129.3 107.643 129.709C107.577 129.913 107.529 130.079 107.496 130.2C107.479 130.261 107.467 130.31 107.457 130.348C107.453 130.366 107.449 130.382 107.446 130.395C107.444 130.401 107.443 130.407 107.442 130.412C107.441 130.414 107.441 130.416 107.44 130.419C107.44 130.42 107.44 130.421 107.439 130.421C107.439 130.423 107.439 130.424 109.389 130.868ZM129.589 119.461C137.688 119.086 142.656 121.661 145.586 124.185C147.071 125.464 148.066 126.76 148.684 127.723C148.993 128.203 149.206 128.598 149.337 128.861C149.402 128.992 149.447 129.091 149.474 129.15C149.487 129.18 149.495 129.199 149.499 129.209C149.501 129.213 149.502 129.215 149.501 129.215C149.501 129.214 149.501 129.213 149.5 129.212C149.5 129.211 149.499 129.21 149.499 129.208C149.499 129.208 149.498 129.207 149.498 129.207C149.498 129.205 149.497 129.204 151.359 128.475C153.221 127.745 153.221 127.744 153.22 127.742C153.22 127.742 153.22 127.741 153.219 127.74C153.219 127.738 153.218 127.736 153.217 127.733C153.215 127.729 153.213 127.723 153.21 127.717C153.206 127.705 153.199 127.69 153.192 127.673C153.177 127.637 153.158 127.591 153.133 127.534C153.083 127.421 153.011 127.266 152.917 127.076C152.727 126.697 152.444 126.175 152.05 125.561C151.261 124.334 150.023 122.728 148.196 121.154C144.503 117.973 138.539 115.043 129.404 115.465L129.589 119.461ZM171.946 140.199H94.2285V144.199H171.946V140.199ZM100.272 134.775C102.39 133.387 104.594 132.899 106.295 132.764C107.143 132.697 107.851 132.719 108.336 132.756C108.578 132.774 108.763 132.796 108.88 132.813C108.938 132.821 108.979 132.827 109.002 132.831C109.013 132.833 109.02 132.834 109.022 132.834C109.023 132.835 109.023 132.835 109.021 132.834C109.021 132.834 109.02 132.834 109.018 132.834C109.018 132.834 109.017 132.833 109.016 132.833C109.016 132.833 109.015 132.833 109.015 132.833C109.014 132.833 109.013 132.833 109.389 130.868C109.765 128.904 109.764 128.904 109.763 128.904C109.763 128.904 109.762 128.903 109.761 128.903C109.76 128.903 109.759 128.903 109.758 128.903C109.755 128.902 109.752 128.902 109.749 128.901C109.742 128.9 109.734 128.898 109.725 128.897C109.707 128.893 109.684 128.889 109.655 128.885C109.598 128.875 109.522 128.863 109.426 128.85C109.236 128.824 108.971 128.793 108.642 128.767C107.985 128.717 107.067 128.69 105.979 128.776C103.811 128.948 100.908 129.576 98.0795 131.43L100.272 134.775ZM151.359 128.475C151.659 130.452 151.659 130.452 151.658 130.452C151.658 130.452 151.658 130.452 151.658 130.452C151.658 130.452 151.657 130.452 151.657 130.452C151.657 130.452 151.658 130.452 151.659 130.452C151.661 130.452 151.666 130.451 151.673 130.45C151.686 130.448 151.708 130.445 151.738 130.441C151.799 130.432 151.894 130.42 152.018 130.405C152.266 130.375 152.633 130.335 153.093 130.297C154.016 130.221 155.297 130.155 156.731 130.192C159.686 130.269 162.921 130.78 165.098 132.218L167.303 128.88C164.153 126.8 159.967 126.275 156.834 126.193C155.223 126.152 153.793 126.226 152.765 126.311C152.25 126.353 151.832 126.399 151.539 126.434C151.393 126.451 151.277 126.467 151.196 126.478C151.156 126.483 151.124 126.488 151.101 126.491C151.089 126.493 151.08 126.494 151.073 126.495C151.07 126.496 151.067 126.496 151.065 126.496C151.063 126.497 151.062 126.497 151.062 126.497C151.061 126.497 151.061 126.497 151.06 126.497C151.06 126.497 151.059 126.497 151.359 128.475ZM165.098 132.218C168.931 134.749 170 137.209 170.273 138.806C170.416 139.641 170.358 140.332 170.271 140.798C170.228 141.03 170.178 141.204 170.144 141.307C170.127 141.358 170.115 141.391 170.11 141.404C170.107 141.411 170.107 141.412 170.108 141.409C170.109 141.407 170.11 141.404 170.112 141.399C170.113 141.397 170.114 141.395 170.116 141.392C170.116 141.39 170.117 141.389 170.118 141.387C170.118 141.386 170.119 141.385 170.119 141.385C170.119 141.383 170.12 141.382 171.946 142.199C173.771 143.015 173.772 143.014 173.772 143.013C173.773 143.012 173.773 143.011 173.774 143.01C173.775 143.008 173.775 143.006 173.776 143.004C173.778 142.999 173.78 142.994 173.783 142.989C173.787 142.979 173.792 142.967 173.798 142.953C173.809 142.927 173.823 142.893 173.838 142.854C173.868 142.776 173.906 142.673 173.947 142.548C174.029 142.297 174.125 141.953 174.203 141.53C174.361 140.685 174.452 139.51 174.216 138.131C173.731 135.3 171.928 131.935 167.303 128.88L165.098 132.218Z" fill="#E5FFEA"/>
<mask id="mask3_709_166" style="mask-type:alpha" maskUnits="userSpaceOnUse" x="79" y="118" width="18" height="18">
<ellipse cx="87.7966" cy="127.318" rx="8.54842" ry="8.20093" transform="rotate(-102.768 87.7966 127.318)" fill="#C4C4C4"/>
</mask>
<g mask="url(#mask3_709_166)">
<ellipse cx="81.8701" cy="136.387" rx="8.54842" ry="8.20093" transform="rotate(-102.768 81.8701 136.387)" fill="#E5FFEA"/>
</g>
<mask id="mask4_709_166" style="mask-type:alpha" maskUnits="userSpaceOnUse" x="75" y="125" width="17" height="17">
<circle cx="83.2777" cy="133.643" r="8.20093" transform="rotate(-144.34 83.2777 133.643)" fill="#C4C4C4"/>
</mask>
<g mask="url(#mask4_709_166)">
<circle cx="84.6124" cy="144.181" r="8.20093" transform="rotate(-144.34 84.6124 144.181)" fill="#E5FFEA"/>
</g>
<mask id="mask5_709_166" style="mask-type:alpha" maskUnits="userSpaceOnUse" x="88" y="119" width="18" height="18">
<circle cx="96.8952" cy="127.92" r="8.20093" transform="rotate(-55.6819 96.8952 127.92)" fill="#C4C4C4"/>
</mask>
<g mask="url(#mask5_709_166)">
<circle cx="86.3913" cy="129.501" r="8.20093" transform="rotate(-55.6819 86.3913 129.501)" fill="#E5FFEA"/>
</g>
<path d="M215.209 366.876L60.289 320.876C56.9714 319.891 57.6822 315 61.1429 315H333.937C334.227 315 334.514 315.042 334.791 315.124L489.711 361.124C493.029 362.109 492.318 367 488.857 367H216.063C215.773 367 215.486 366.958 215.209 366.876Z" fill="#E5FFEA"/>
<path d="M213.34 367.958L40.0254 315.958C38.922 315.627 39.1608 314 40.3127 314H335.372C335.47 314 335.566 314.014 335.66 314.042L508.975 366.042C510.078 366.373 509.839 368 508.687 368H213.628C213.53 368 213.433 367.986 213.34 367.958Z" fill="#E5FFEA"/>
<path d="M191.866 348.962L89.4309 319.962C88.3138 319.646 88.5423 318 89.7033 318H327.851C327.95 318 328.048 318.015 328.143 318.044L423.094 347.044C424.193 347.379 423.951 349 422.802 349H192.139C192.047 349 191.955 348.987 191.866 348.962Z" fill="#0CB08A"/>
<path d="M36.5 317.032C36.5 315.023 38.4372 313.581 40.362 314.159L214.362 366.359C215.631 366.739 216.5 367.907 216.5 369.232V385.946C216.5 387.962 214.551 389.405 212.623 388.815L38.6233 335.649C37.3617 335.263 36.5 334.099 36.5 332.78V317.032Z" fill="#51E1AD"/>
<path d="M51.5 317.5L216.5 367V390L51.5 339.5V317.5Z" fill="#51E1AD"/>
<path d="M216.5 370C216.5 368.343 217.843 367 219.5 367H507.5C509.157 367 510.5 368.343 510.5 370V387C510.5 388.657 509.157 390 507.5 390H219.5C217.843 390 216.5 388.657 216.5 387V370Z" fill="#15766A"/>
<path d="M216.5 367H287.5V390H216.5V367Z" fill="#15766A"/>
<path d="M189.3 203V194.7C189.3 191.775 187.2 190.625 184.625 190.625C182.65 190.625 181.1 191.275 179.8 192.625L180.675 193.925C181.75 192.75 182.925 192.25 184.375 192.25C186.125 192.25 187.425 193.175 187.425 194.775V196.95C186.45 195.85 185.075 195.325 183.425 195.325C181.375 195.325 179.225 196.575 179.225 199.3C179.225 201.925 181.4 203.3 183.425 203.3C185.05 203.3 186.45 202.725 187.425 201.625V203H189.3ZM184.125 201.95C182.35 201.95 181.125 200.85 181.125 199.3C181.125 197.775 182.35 196.675 184.125 196.675C185.425 196.675 186.7 197.175 187.425 198.15V200.45C186.7 201.45 185.425 201.95 184.125 201.95ZM199.033 203.3C202.208 203.3 204.408 200.85 204.408 196.95C204.408 193.025 202.208 190.625 199.033 190.625C197.333 190.625 195.833 191.5 194.958 192.725V190.925H193.083V207.6H194.958V201.175C195.958 202.5 197.383 203.3 199.033 203.3ZM198.558 201.625C197.083 201.625 195.608 200.725 194.958 199.675V194.225C195.608 193.175 197.083 192.3 198.558 192.3C200.983 192.3 202.433 194.275 202.433 196.95C202.433 199.625 200.983 201.625 198.558 201.625ZM213.34 203.3C216.515 203.3 218.715 200.85 218.715 196.95C218.715 193.025 216.515 190.625 213.34 190.625C211.64 190.625 210.14 191.5 209.265 192.725V190.925H207.39V207.6H209.265V201.175C210.265 202.5 211.69 203.3 213.34 203.3ZM212.865 201.625C211.39 201.625 209.915 200.725 209.265 199.675V194.225C209.915 193.175 211.39 192.3 212.865 192.3C215.29 192.3 216.74 194.275 216.74 196.95C216.74 199.625 215.29 201.625 212.865 201.625ZM223.571 203V186.325H221.696V203H223.571ZM226.662 207.725C226.987 207.825 227.612 207.9 228.012 207.9C229.612 207.875 230.837 207.2 231.562 205.45L237.612 190.925H235.587L231.562 200.825L227.562 190.925H225.512L230.562 203.125L229.762 204.95C229.337 205.95 228.787 206.225 227.962 206.225C227.662 206.225 227.212 206.15 226.937 206.025L226.662 207.725ZM256.062 203V194.525C256.062 191.9 254.737 190.625 252.237 190.625C250.412 190.625 248.762 191.65 247.912 192.675V190.925H246.037V203H247.912V194.175C248.637 193.2 250.012 192.3 251.487 192.3C253.112 192.3 254.212 192.95 254.212 195.1V203H256.062ZM265.106 203.3C268.781 203.3 271.081 200.45 271.081 196.95C271.081 193.45 268.781 190.625 265.106 190.625C261.431 190.625 259.131 193.45 259.131 196.95C259.131 200.45 261.431 203.3 265.106 203.3ZM265.106 201.625C262.531 201.625 261.106 199.425 261.106 196.95C261.106 194.5 262.531 192.3 265.106 192.3C267.681 192.3 269.106 194.5 269.106 196.95C269.106 199.425 267.681 201.625 265.106 201.625ZM286.488 203L290.338 190.925H288.363L285.413 200.55L282.263 190.925H280.638L277.463 200.55L274.513 190.925H272.563L276.413 203H278.288L281.438 193.3L284.588 203H286.488Z" fill="#E5FFEA"/>
</svg>
