<svg width="934" height="919" viewBox="0 0 934 919" fill="none" xmlns="http://www.w3.org/2000/svg">
<path d="M445.2 232.4L265.5 328.2L398.2 590.8L401.1 550.4L414.8 350.9L445.2 232.4Z" fill="#ECAB4B"/>
<path d="M478 228.9L385.6 0H640.7L579.2 28.2L510 71.8L478 228.9Z" fill="#ECAB4B"/>
<path d="M537.1 585.6L629.8 497.6L705.6 694L579.2 919H537.1V585.6Z" fill="#EE3670"/>
<path d="M537.1 919V585.6L605.8 521.7L664.7 698L537.1 919Z" fill="#ECAB4B"/>
<path d="M465.3 247.9L498.1 225.4L605.8 521.7L537.1 585.6L465.3 247.9Z" fill="#A7DDE8"/>
<path d="M0 183L131.6 75.7L355.5 71.8L478 228.9L236.5 159.3L0 183Z" fill="#EE3670"/>
<path d="M478 228.9L414.8 350.9L401.1 550.4L295.5 334.8L478 228.9Z" fill="#A7DDE8"/>
<path d="M430.1 28.2L478 228.9L510 71.8L579.2 28.2H430.1Z" fill="#A7DDE8"/>
<path d="M781.5 351.3L629.8 202.3L478 228.9L605.8 128.5H730.9L781.5 351.3Z" fill="#ECAB4B"/>
<path d="M478 228.9L600.9 71.8L670.3 15.6H861.6L933.3 150.3L725.6 71.8L605.8 128.5L478 228.9Z" fill="#EE3670"/>
<path d="M86.9001 139.3L37.6001 179L236.1 159.2L439.8 251.5L478 228.9L244.8 130.4L86.9001 139.3Z" fill="#ECAB4B"/>
<path d="M478 228.9L498.1 225.4L465.3 247.9L478 228.9Z" fill="#A7DDE8"/>
</svg>
