<?xml version="1.0" encoding="UTF-8" standalone="no"?>
<svg
   xmlns:dc="http://purl.org/dc/elements/1.1/"
   xmlns:cc="http://creativecommons.org/ns#"
   xmlns:rdf="http://www.w3.org/1999/02/22-rdf-syntax-ns#"
   xmlns:svg="http://www.w3.org/2000/svg"
   xmlns="http://www.w3.org/2000/svg"
   xmlns:sodipodi="http://sodipodi.sourceforge.net/DTD/sodipodi-0.dtd"
   xmlns:inkscape="http://www.inkscape.org/namespaces/inkscape"
   width="373"
   height="350"
   viewBox="0 0 373 350"
   fill="none"
   version="1.1"
   id="svg4"
   sodipodi:docname="Union.svg"
   inkscape:version="0.92.4 (5da689c313, 2019-01-14)">
  <metadata
     id="metadata10">
    <rdf:RDF>
      <cc:Work
         rdf:about="">
        <dc:format>image/svg+xml</dc:format>
        <dc:type
           rdf:resource="http://purl.org/dc/dcmitype/StillImage" />
      </cc:Work>
    </rdf:RDF>
  </metadata>
  <defs
     id="defs8" />
  <sodipodi:namedview
     pagecolor="#ffffff"
     bordercolor="#666666"
     borderopacity="1"
     objecttolerance="10"
     gridtolerance="10"
     guidetolerance="10"
     inkscape:pageopacity="0"
     inkscape:pageshadow="2"
     inkscape:window-width="1850"
     inkscape:window-height="1016"
     id="namedview6"
     showgrid="false"
     inkscape:zoom="0.67428571"
     inkscape:cx="186.5"
     inkscape:cy="175"
     inkscape:window-x="70"
     inkscape:window-y="27"
     inkscape:window-maximized="1"
     inkscape:current-layer="svg4" />
  <path
     fill-rule="evenodd"
     clip-rule="evenodd"
     d="M225.071 111.96C230.907 69.8369 266.218 22.1906 338.078 1.83065C348.612 -1.15395 359.738 4.06191 364.182 14.0683C369.347 25.6995 374.177 46.4103 371.61 68.7285C368.947 91.8816 358.072 117.921 330.547 135.996C308.717 150.331 268.386 156.274 234.472 133.159C227.567 128.452 223.924 120.239 225.071 111.96ZM327.898 63.7014C328.366 59.6342 328.415 55.662 328.196 51.9514C296.751 65.737 280.16 85.7838 272.89 103.046C286.505 106.692 299.845 103.519 306.396 99.2168C320.773 89.7755 326.39 76.8192 327.898 63.7014ZM208.679 130.753C207.009 127.394 205.146 123.869 203.072 120.233C211.789 102.953 217 81.8113 217 56.6218C217 44.4715 207.15 34.6218 195 34.6218C182.85 34.6218 173 44.4715 173 56.6218C173 64.7491 172.295 72.0618 171.034 78.6378C164.489 72.3291 157.145 66.2729 148.911 60.7348C117.604 39.6766 75.1828 27.3009 19.0835 34.8166C8.26763 36.2656 0.148544 45.424 0.00660912 56.3356C-0.192898 71.6731 4.17759 97.6714 17.5301 121.942C31.2499 146.881 55.3179 171.295 94.313 178.521C116.988 182.722 147.447 176.708 172.301 157.606C172.412 157.52 172.523 157.435 172.633 157.349C201.059 219.103 197.341 275.59 191.648 324.454C190.242 336.522 198.885 347.446 210.954 348.852C223.022 350.258 233.946 341.615 235.352 329.546C241.487 276.892 246.664 207.169 208.679 130.753ZM145.488 122.719C146.743 121.755 147.99 120.72 149.221 119.613C142.375 111.566 134.167 103.845 124.354 97.2442C106.151 85.0004 81.2449 75.8006 46.7493 76.6568C48.6287 84.1645 51.6065 92.5999 56.0813 100.734C65.1024 117.131 79.3468 130.998 102.33 135.257C112.278 137.1 130.158 134.502 145.488 122.719Z"
     fill="white"
     id="path2"
     style="fill:#FF7272;fill-opacity:1" />
</svg>
