<svg width="264" height="326" viewBox="0 0 264 326" fill="none" xmlns="http://www.w3.org/2000/svg">
<path d="M109.987 221.937C110.877 221.344 111.901 221.042 112.915 221.073L213.583 224.163C218.313 224.308 219.585 230.736 215.432 233.504L127.034 292.42C126.144 293.014 125.12 293.316 124.106 293.285L23.4381 290.194C18.7082 290.049 17.4362 283.621 21.5895 280.853L109.987 221.937Z" fill="#E5FFEA"/>
<path d="M110.78 210.239C110.958 210.121 111.163 210.06 111.366 210.067L212.034 213.157C212.347 213.166 212.507 213.265 212.606 213.356C212.727 213.468 212.837 213.652 212.885 213.894C212.933 214.137 212.904 214.361 212.838 214.528C212.784 214.665 212.679 214.842 212.404 215.025L124.006 273.941C123.828 274.06 123.623 274.12 123.42 274.114L22.7523 271.024C22.4386 271.014 22.279 270.916 22.1801 270.824C22.0593 270.712 21.9492 270.529 21.9012 270.286C21.8532 270.044 21.8825 269.819 21.9481 269.652C22.0019 269.515 22.1071 269.339 22.3826 269.155L110.78 210.239Z" fill="#E5E5E5" stroke="#E5FFEA" stroke-width="8"/>
<path d="M109.665 213.473C110.2 213.117 110.814 212.935 111.422 212.954L203.665 215.786C206.503 215.873 207.266 219.73 204.774 221.39L123.775 275.375C123.241 275.731 122.626 275.913 122.018 275.894L29.7754 273.062C26.9375 272.975 26.1743 269.119 28.6663 267.458L109.665 213.473Z" fill="#0CB08A" stroke="#E5FFEA" stroke-width="4"/>
<path d="M110.78 195.293C110.958 195.175 111.163 195.114 111.366 195.12L111.798 191.038L111.366 195.12L212.034 198.211C212.347 198.22 212.507 198.319 212.606 198.41C212.727 198.522 212.837 198.706 212.885 198.948C212.933 199.191 212.904 199.415 212.838 199.582C212.784 199.719 212.679 199.895 212.404 200.079L124.006 258.995C123.828 259.114 123.623 259.174 123.42 259.168L22.7523 256.077C22.4386 256.068 22.279 255.97 22.1801 255.878C22.0593 255.766 21.9492 255.583 21.9012 255.34C21.8532 255.097 21.8825 254.873 21.9481 254.706C22.0019 254.569 22.1071 254.393 22.3826 254.209L110.78 195.293L108.869 191.903L110.78 195.293Z" fill="#0CB08A" stroke="#E5FFEA" stroke-width="8"/>
<path d="M114.496 211.58C114.852 211.343 115.261 211.222 115.667 211.234L153.553 212.375C155.445 212.432 155.952 215.004 154.291 216.112L121.014 238.316C120.657 238.554 120.248 238.675 119.842 238.663L81.9559 237.521C80.0645 237.464 79.5569 234.893 81.2181 233.785L114.496 211.58Z" fill="#0CB08A" stroke="#E5FFEA" stroke-width="6"/>
<path d="M132 58C132 58 143.58 69.8661 149.594 87.5M119.33 219.508C119.33 219.508 108.478 208.852 141.737 143.5M149.377 128C151.756 121.827 152.877 115.785 153.09 110" stroke="#E5FFEA" stroke-width="8" stroke-linecap="round"/>
<path d="M90 143.56C90 143.56 90.2667 151.135 98.1077 161.399C105.949 171.664 123.116 178.008 123.116 178.008" stroke="#E5FFEA" stroke-width="8" stroke-linecap="round"/>
<path d="M191 110.03C191 110.03 188.5 115.528 182.698 120.443C169.5 130 153.5 135.5 153.5 135.5" stroke="#E5FFEA" stroke-width="8" stroke-linecap="round"/>
<path d="M106.458 58.2659C106.458 58.2659 105.508 60.7021 115.679 69.4426C125.85 78.1831 143.9 78.9428 143.9 78.9428" stroke="#E5FFEA" stroke-width="8" stroke-linecap="round"/>
<path d="M43.3099 123.717L42.5586 127.646L46.3519 128.371L47.2099 124.606L43.3099 123.717ZM116.797 119.526L113.073 120.985L114.238 123.96L117.397 123.481L116.797 119.526ZM152.842 143.556V147.556H155.434L156.493 145.189L152.842 143.556ZM16.7651 143.556H12.7651V147.556H16.7651V143.556ZM142.783 123.158L140.578 126.496L142.783 123.158ZM68 147.556C70.2091 147.556 72 145.765 72 143.556C72 141.347 70.2091 139.556 68 139.556V147.556ZM43.3099 123.717C47.2099 124.606 47.2094 124.608 47.2088 124.61C47.2087 124.611 47.2082 124.613 47.2079 124.615C47.2073 124.617 47.2068 124.62 47.2063 124.622C47.2054 124.625 47.2048 124.628 47.2044 124.629C47.2038 124.632 47.2043 124.63 47.2061 124.623C47.2097 124.608 47.2184 124.574 47.2327 124.522C47.2612 124.417 47.3122 124.239 47.3901 123.999C47.5462 123.517 47.8088 122.788 48.2136 121.891C49.025 120.091 50.3935 117.645 52.5945 115.154C56.9121 110.267 64.7014 104.89 78.7015 104.242L78.3316 96.2504C62.1546 96.9993 52.3405 103.358 46.599 109.857C43.7706 113.059 41.9956 116.219 40.9208 118.602C40.3826 119.796 40.0166 120.802 39.7797 121.533C39.6611 121.899 39.5746 122.197 39.5148 122.416C39.4848 122.526 39.4616 122.616 39.4443 122.685C39.4357 122.72 39.4285 122.749 39.4228 122.773C39.42 122.785 39.4175 122.796 39.4153 122.805C39.4142 122.81 39.4132 122.814 39.4123 122.818C39.4118 122.82 39.4112 122.822 39.411 122.823C39.4104 122.826 39.4098 122.829 43.3099 123.717ZM78.7015 104.242C92.7542 103.591 101.327 108.055 106.362 112.393C108.92 114.596 110.632 116.827 111.694 118.479C112.224 119.304 112.587 119.979 112.81 120.425C112.921 120.648 112.996 120.813 113.039 120.91C113.061 120.958 113.074 120.99 113.079 121.003C113.082 121.009 113.083 121.011 113.082 121.008C113.081 121.007 113.08 121.004 113.079 121.001C113.078 120.999 113.077 120.996 113.076 120.994C113.075 120.993 113.075 120.991 113.074 120.99C113.073 120.988 113.073 120.985 116.797 119.526C120.521 118.066 120.52 118.064 120.519 118.062C120.519 118.061 120.518 118.058 120.517 118.056C120.515 118.052 120.514 118.048 120.512 118.044C120.509 118.035 120.505 118.025 120.5 118.014C120.491 117.991 120.48 117.963 120.466 117.931C120.439 117.866 120.403 117.781 120.358 117.678C120.267 117.473 120.139 117.195 119.969 116.856C119.631 116.177 119.126 115.247 118.425 114.155C117.024 111.974 114.824 109.123 111.584 106.332C105.023 100.68 94.4561 95.5039 78.3316 96.2504L78.7015 104.242ZM16.7651 143.556C20.7651 143.556 20.7651 143.558 20.7651 143.559C20.7651 143.56 20.7651 143.561 20.7651 143.562C20.7651 143.564 20.7651 143.566 20.7651 143.567C20.7651 143.571 20.7651 143.573 20.7651 143.575C20.7651 143.579 20.765 143.581 20.765 143.58C20.7651 143.579 20.7652 143.569 20.7657 143.55C20.7668 143.512 20.7693 143.44 20.7753 143.336C20.7874 143.129 20.8131 142.8 20.8676 142.377C20.9774 141.525 21.1999 140.324 21.6454 138.977C22.5384 136.278 24.2613 133.175 27.6192 130.975L23.235 124.283C17.9309 127.758 15.3228 132.618 14.0504 136.464C13.4131 138.39 13.0942 140.106 12.9333 141.354C12.8525 141.981 12.8106 142.497 12.7888 142.872C12.7779 143.06 12.772 143.214 12.7688 143.329C12.7672 143.386 12.7663 143.434 12.7658 143.472C12.7655 143.491 12.7654 143.508 12.7653 143.522C12.7652 143.529 12.7652 143.535 12.7652 143.541C12.7652 143.544 12.7651 143.546 12.7651 143.549C12.7651 143.55 12.7651 143.552 12.7651 143.552C12.7651 143.554 12.7651 143.556 16.7651 143.556ZM27.6192 130.975C31.2402 128.603 35.0116 127.764 37.9328 127.532C39.3869 127.417 40.5995 127.455 41.4281 127.519C41.841 127.55 42.1544 127.588 42.3499 127.615C42.4475 127.628 42.5153 127.639 42.551 127.645C42.5688 127.648 42.5785 127.65 42.5799 127.65C42.5806 127.65 42.5792 127.65 42.5756 127.649C42.5739 127.649 42.5716 127.648 42.5687 127.648C42.5673 127.648 42.5658 127.647 42.5641 127.647C42.5632 127.647 42.5618 127.647 42.5614 127.647C42.56 127.646 42.5586 127.646 43.3099 123.717C44.0611 119.788 44.0596 119.788 44.0581 119.788C44.0575 119.788 44.0559 119.787 44.0548 119.787C44.0526 119.787 44.0502 119.786 44.0476 119.786C44.0425 119.785 44.0369 119.784 44.0306 119.783C44.0182 119.78 44.0034 119.778 43.9864 119.775C43.9523 119.769 43.9092 119.761 43.8574 119.752C43.7538 119.735 43.615 119.714 43.4436 119.69C43.101 119.643 42.6263 119.587 42.0395 119.542C40.8685 119.452 39.2344 119.404 37.3006 119.558C33.446 119.863 28.276 120.981 23.235 124.283L27.6192 130.975ZM116.797 119.526C117.397 123.481 117.396 123.481 117.395 123.481C117.395 123.481 117.394 123.481 117.394 123.481C117.393 123.481 117.393 123.481 117.393 123.481C117.392 123.481 117.393 123.481 117.395 123.481C117.398 123.481 117.405 123.479 117.417 123.478C117.439 123.475 117.476 123.469 117.528 123.462C117.632 123.448 117.795 123.427 118.009 123.401C118.439 123.349 119.075 123.28 119.874 123.214C121.476 123.082 123.701 122.967 126.189 123.031C131.342 123.165 136.888 124.059 140.578 126.496L144.987 119.821C139.351 116.099 131.904 115.177 126.396 115.034C123.553 114.96 121.03 115.092 119.217 115.241C118.308 115.316 117.571 115.396 117.053 115.458C116.793 115.489 116.589 115.516 116.444 115.536C116.372 115.546 116.315 115.554 116.273 115.56C116.253 115.563 116.236 115.565 116.223 115.567C116.217 115.568 116.211 115.569 116.207 115.57C116.205 115.57 116.203 115.57 116.201 115.571C116.2 115.571 116.199 115.571 116.199 115.571C116.198 115.571 116.197 115.571 116.797 119.526ZM140.578 126.496C147.191 130.863 148.971 135.057 149.423 137.699C149.662 139.093 149.563 140.243 149.42 141.011C149.349 141.395 149.267 141.678 149.214 141.84C149.188 141.92 149.169 141.969 149.164 141.984C149.161 141.992 149.161 141.991 149.165 141.98C149.167 141.975 149.17 141.968 149.175 141.958C149.177 141.954 149.179 141.948 149.182 141.942C149.183 141.939 149.184 141.936 149.186 141.933C149.187 141.931 149.188 141.929 149.188 141.928C149.189 141.925 149.19 141.922 152.842 143.556C156.493 145.189 156.494 145.187 156.495 145.184C156.496 145.183 156.497 145.18 156.498 145.178C156.5 145.174 156.502 145.17 156.503 145.166C156.507 145.157 156.511 145.148 156.516 145.138C156.524 145.118 156.534 145.095 156.545 145.07C156.566 145.019 156.591 144.957 156.619 144.884C156.676 144.739 156.745 144.55 156.82 144.321C156.969 143.864 157.142 143.241 157.285 142.477C157.57 140.949 157.733 138.833 157.308 136.35C156.433 131.238 153.184 125.234 144.987 119.821L140.578 126.496ZM152.842 139.556H90V147.556H152.842V139.556ZM68 139.556H16.7651V147.556H68V139.556Z" fill="#E5FFEA"/>
<path d="M149.489 90.1871L148.738 94.1159L152.531 94.8413L153.389 91.0757L149.489 90.1871ZM222.976 85.9958L219.252 87.4553L220.417 90.4296L223.576 89.9506L222.976 85.9958ZM259.021 110.026V114.026H261.613L262.672 111.659L259.021 110.026ZM122.944 110.026H118.944V114.026H122.944V110.026ZM248.962 89.6283L246.757 92.9661L248.962 89.6283ZM213 106.026C210.791 106.026 209 107.817 209 110.026C209 112.235 210.791 114.026 213 114.026V106.026ZM149.489 90.1871C153.389 91.0757 153.388 91.0781 153.388 91.0804C153.388 91.081 153.387 91.0832 153.387 91.0845C153.386 91.0871 153.386 91.0894 153.385 91.0914C153.384 91.0953 153.384 91.098 153.383 91.0993C153.383 91.1021 153.383 91.0998 153.385 91.0926C153.389 91.0781 153.397 91.0441 153.412 90.9917C153.44 90.887 153.491 90.7093 153.569 90.4689C153.725 89.9873 153.988 89.2583 154.393 88.3605C155.204 86.5612 156.572 84.1152 158.773 81.6238C163.091 76.7365 170.88 71.3598 184.88 70.7117L184.511 62.7203C168.334 63.4692 158.519 69.8281 152.778 76.3271C149.95 79.5288 148.175 82.6886 147.1 85.0719C146.562 86.2654 146.196 87.2718 145.959 88.0029C145.84 88.3687 145.754 88.6667 145.694 88.886C145.664 88.9956 145.641 89.0857 145.623 89.1549C145.615 89.1895 145.607 89.2188 145.602 89.2428C145.599 89.2548 145.596 89.2655 145.594 89.2747C145.593 89.2794 145.592 89.2837 145.591 89.2876C145.591 89.2896 145.59 89.2923 145.59 89.2933C145.589 89.2959 145.589 89.2985 149.489 90.1871ZM184.88 70.7117C198.933 70.0611 207.506 74.5252 212.541 78.8626C215.099 81.0656 216.811 83.2967 217.873 84.9487C218.403 85.7735 218.766 86.4485 218.989 86.8948C219.1 87.1177 219.175 87.2826 219.218 87.3796C219.24 87.4281 219.253 87.4595 219.258 87.4725C219.261 87.4791 219.262 87.481 219.261 87.4782C219.26 87.4768 219.259 87.4742 219.257 87.4704C219.257 87.4685 219.256 87.4663 219.255 87.4638C219.254 87.4625 219.254 87.4604 219.253 87.4598C219.252 87.4576 219.252 87.4553 222.976 85.9958C226.7 84.5363 226.699 84.5339 226.698 84.5314C226.698 84.5305 226.697 84.5279 226.696 84.526C226.694 84.5222 226.693 84.5181 226.691 84.5137C226.688 84.5049 226.684 84.4948 226.679 84.4835C226.67 84.4608 226.658 84.4331 226.645 84.4005C226.618 84.3355 226.582 84.2509 226.537 84.1483C226.446 83.9431 226.318 83.6652 226.148 83.3254C225.81 82.6464 225.305 81.7168 224.604 80.625C223.202 78.4438 221.003 75.593 217.763 72.8014C211.202 67.1496 200.635 61.9737 184.511 62.7203L184.88 70.7117ZM122.944 110.026C126.944 110.026 126.944 110.027 126.944 110.029C126.944 110.029 126.944 110.031 126.944 110.032C126.944 110.034 126.944 110.036 126.944 110.037C126.944 110.04 126.944 110.043 126.944 110.045C126.944 110.049 126.944 110.051 126.944 110.05C126.944 110.049 126.944 110.039 126.945 110.02C126.946 109.982 126.948 109.909 126.954 109.806C126.966 109.599 126.992 109.27 127.047 108.847C127.156 107.995 127.379 106.793 127.824 105.447C128.717 102.748 130.44 99.6448 133.798 97.4448L129.414 90.7531C124.11 94.2282 121.502 99.0883 120.229 102.934C119.592 104.86 119.273 106.576 119.112 107.824C119.031 108.45 118.99 108.967 118.968 109.342C118.957 109.53 118.951 109.684 118.948 109.799C118.946 109.856 118.945 109.904 118.945 109.942C118.944 109.961 118.944 109.978 118.944 109.992C118.944 109.999 118.944 110.005 118.944 110.011C118.944 110.013 118.944 110.016 118.944 110.019C118.944 110.02 118.944 110.022 118.944 110.022C118.944 110.024 118.944 110.026 122.944 110.026ZM133.798 97.4448C137.419 95.0724 141.191 94.2339 144.112 94.0024C145.566 93.8871 146.778 93.9251 147.607 93.9886C148.02 94.0202 148.333 94.0579 148.529 94.0849C148.626 94.0983 148.694 94.1091 148.73 94.115C148.748 94.1179 148.757 94.1197 148.759 94.1199C148.76 94.12 148.758 94.1198 148.755 94.1191C148.753 94.1188 148.751 94.1184 148.748 94.1178C148.746 94.1176 148.745 94.1173 148.743 94.1169C148.742 94.1168 148.741 94.1165 148.74 94.1164C148.739 94.1162 148.738 94.1159 149.489 90.1871C150.24 86.2583 150.239 86.258 150.237 86.2577C150.236 86.2576 150.235 86.2573 150.234 86.2571C150.232 86.2566 150.229 86.2562 150.227 86.2557C150.221 86.2548 150.216 86.2537 150.21 86.2525C150.197 86.2502 150.182 86.2475 150.165 86.2445C150.131 86.2384 150.088 86.231 150.036 86.2224C149.933 86.2052 149.794 86.1836 149.623 86.16C149.28 86.1127 148.805 86.0569 148.218 86.012C147.047 85.9222 145.413 85.8741 143.48 86.0274C139.625 86.3329 134.455 87.4504 129.414 90.7531L133.798 97.4448ZM222.976 85.9958C223.576 89.9506 223.575 89.9507 223.574 89.9508C223.574 89.9509 223.573 89.951 223.573 89.951C223.572 89.9511 223.572 89.9512 223.572 89.9512C223.571 89.9512 223.572 89.9511 223.574 89.9509C223.577 89.9504 223.584 89.9493 223.596 89.9477C223.618 89.9445 223.655 89.9392 223.707 89.932C223.811 89.9178 223.974 89.8964 224.188 89.8706C224.618 89.8189 225.254 89.7495 226.053 89.6838C227.655 89.5518 229.88 89.4365 232.368 89.501C237.521 89.6347 243.067 90.5289 246.757 92.9661L251.166 86.2904C245.53 82.5686 238.083 81.6466 232.575 81.5037C229.732 81.43 227.209 81.5614 225.396 81.7108C224.487 81.7856 223.75 81.8656 223.232 81.928C222.972 81.9592 222.767 81.9861 222.623 82.0059C222.551 82.0157 222.494 82.0238 222.452 82.0298C222.431 82.0328 222.415 82.0353 222.402 82.0372C222.396 82.0381 222.39 82.0389 222.386 82.0395C222.384 82.0399 222.382 82.0402 222.38 82.0404C222.379 82.0405 222.378 82.0407 222.378 82.0408C222.377 82.0409 222.376 82.041 222.976 85.9958ZM246.757 92.9661C253.37 97.3326 255.15 101.527 255.602 104.169C255.841 105.563 255.742 106.713 255.599 107.481C255.528 107.865 255.446 108.148 255.393 108.31C255.367 108.39 255.348 108.439 255.342 108.454C255.34 108.462 255.34 108.46 255.344 108.45C255.346 108.445 255.349 108.438 255.354 108.428C255.356 108.423 255.358 108.418 255.361 108.412C255.362 108.409 255.363 108.406 255.365 108.403C255.366 108.401 255.367 108.398 255.367 108.398C255.368 108.395 255.369 108.392 259.021 110.026C262.672 111.659 262.673 111.657 262.674 111.654C262.675 111.653 262.676 111.65 262.677 111.648C262.679 111.644 262.681 111.64 262.682 111.636C262.686 111.627 262.69 111.618 262.695 111.608C262.703 111.588 262.713 111.565 262.724 111.54C262.745 111.489 262.77 111.427 262.798 111.354C262.855 111.209 262.924 111.02 262.999 110.791C263.148 110.334 263.321 109.711 263.464 108.947C263.749 107.419 263.912 105.302 263.487 102.82C262.612 97.7081 259.363 91.7035 251.166 86.2904L246.757 92.9661ZM190.982 106.026H122.944V114.026H190.982V106.026ZM259.021 106.026H213V114.026H259.021V106.026Z" fill="#E5FFEA"/>
<path d="M86.899 36.5388L86.1477 40.4676L89.941 41.193L90.799 37.4274L86.899 36.5388ZM160.386 32.3475L156.662 33.807L157.827 36.7813L160.986 36.3023L160.386 32.3475ZM196.431 56.3775V60.3775H199.023L200.082 58.011L196.431 56.3775ZM60.3542 52.3775C58.1451 52.3775 56.3542 54.1684 56.3542 56.3775C56.3542 58.5866 58.1451 60.3775 60.3542 60.3775V52.3775ZM66.8241 37.1048C64.9762 38.3155 64.4597 40.7949 65.6704 42.6428C66.881 44.4906 69.3605 45.0072 71.2083 43.7965L66.8241 37.1048ZM186.372 35.98L184.168 39.3178L186.372 35.98ZM86.899 36.5388C90.799 37.4274 90.7985 37.4298 90.798 37.4321C90.7978 37.4327 90.7973 37.4349 90.797 37.4362C90.7964 37.4389 90.7959 37.4411 90.7954 37.4431C90.7945 37.447 90.7939 37.4497 90.7935 37.4511C90.7929 37.4538 90.7934 37.4515 90.7952 37.4443C90.7988 37.4298 90.8075 37.3958 90.8218 37.3434C90.8504 37.2387 90.9013 37.061 90.9792 36.8206C91.1353 36.339 91.3979 35.61 91.8028 34.7122C92.6141 32.913 93.9826 30.4669 96.1836 27.9755C100.501 23.0882 108.29 17.7116 122.291 17.0634L121.921 9.07197C105.744 9.8209 95.9296 16.1799 90.1881 22.6788C87.3597 25.8805 85.5847 29.0403 84.51 31.4236C83.9718 32.6171 83.6057 33.6235 83.3688 34.3546C83.2503 34.7204 83.1637 35.0184 83.1039 35.2377C83.074 35.3473 83.0507 35.4374 83.0334 35.5066C83.0248 35.5412 83.0177 35.5706 83.0119 35.5945C83.0091 35.6065 83.0066 35.6172 83.0044 35.6265C83.0033 35.6311 83.0023 35.6354 83.0014 35.6394C83.001 35.6413 83.0003 35.644 83.0001 35.645C82.9995 35.6477 82.9989 35.6502 86.899 36.5388ZM122.291 17.0634C136.343 16.4128 144.917 20.8769 149.952 25.2143C152.509 27.4173 154.222 29.6484 155.283 31.3005C155.813 32.1253 156.177 32.8002 156.399 33.2465C156.51 33.4694 156.586 33.6343 156.628 33.7313C156.65 33.7798 156.663 33.8112 156.668 33.8243C156.671 33.8308 156.672 33.8327 156.671 33.8299C156.67 33.8285 156.669 33.8259 156.668 33.8221C156.667 33.8202 156.666 33.818 156.665 33.8155C156.665 33.8142 156.664 33.8121 156.663 33.8115C156.663 33.8093 156.662 33.807 160.386 32.3475C164.11 30.888 164.109 30.8856 164.108 30.8831C164.108 30.8822 164.107 30.8796 164.106 30.8777C164.105 30.8739 164.103 30.8698 164.101 30.8654C164.098 30.8566 164.094 30.8465 164.089 30.8352C164.08 30.8125 164.069 30.7848 164.055 30.7523C164.028 30.6872 163.992 30.6026 163.947 30.5C163.856 30.2948 163.728 30.0169 163.559 29.6771C163.22 28.9981 162.715 28.0686 162.014 26.9767C160.613 24.7955 158.413 21.9447 155.173 19.1531C148.612 13.5013 138.045 8.32546 121.921 9.07197L122.291 17.0634ZM196.431 52.3775H60.3542V60.3775H196.431V52.3775ZM71.2083 43.7965C74.8293 41.4242 78.6007 40.5856 81.5219 40.3541C82.976 40.2388 84.1886 40.2768 85.0172 40.3403C85.4301 40.3719 85.7435 40.4096 85.939 40.4366C86.0366 40.45 86.1044 40.4608 86.1401 40.4667C86.1579 40.4696 86.1676 40.4714 86.169 40.4716C86.1697 40.4717 86.1683 40.4715 86.1648 40.4708C86.163 40.4705 86.1607 40.4701 86.1578 40.4695C86.1564 40.4693 86.1549 40.469 86.1532 40.4687C86.1523 40.4685 86.151 40.4682 86.1505 40.4682C86.1491 40.4679 86.1477 40.4676 86.899 36.5388C87.6502 32.61 87.6487 32.6097 87.6472 32.6094C87.6466 32.6093 87.6451 32.609 87.6439 32.6088C87.6417 32.6084 87.6393 32.6079 87.6367 32.6074C87.6317 32.6065 87.626 32.6054 87.6198 32.6043C87.6073 32.602 87.5925 32.5993 87.5755 32.5962C87.5414 32.5901 87.4983 32.5827 87.4465 32.5741C87.3429 32.5569 87.2041 32.5353 87.0327 32.5117C86.6901 32.4644 86.2154 32.4087 85.6286 32.3637C84.4576 32.2739 82.8236 32.2258 80.8897 32.3791C77.0351 32.6847 71.8651 33.8021 66.8241 37.1048L71.2083 43.7965ZM160.386 32.3475C160.986 36.3023 160.985 36.3024 160.984 36.3025C160.984 36.3026 160.983 36.3027 160.983 36.3027C160.982 36.3028 160.982 36.3029 160.982 36.3029C160.982 36.3029 160.982 36.3028 160.984 36.3026C160.987 36.3021 160.995 36.301 161.006 36.2994C161.028 36.2962 161.065 36.2909 161.117 36.2838C161.222 36.2695 161.384 36.2481 161.598 36.2223C162.028 36.1706 162.665 36.1012 163.463 36.0355C165.065 35.9035 167.29 35.7883 169.778 35.8528C174.931 35.9864 180.477 36.8806 184.168 39.3178L188.576 32.6421C182.94 28.9203 175.493 27.9983 169.985 27.8554C167.142 27.7817 164.619 27.9132 162.806 28.0625C161.897 28.1374 161.16 28.2173 160.642 28.2797C160.382 28.3109 160.178 28.3378 160.033 28.3576C159.961 28.3675 159.904 28.3756 159.862 28.3815C159.842 28.3845 159.825 28.387 159.812 28.3889C159.806 28.3898 159.8 28.3906 159.796 28.3913C159.794 28.3916 159.792 28.3919 159.79 28.3921C159.79 28.3923 159.788 28.3924 159.788 28.3925C159.787 28.3926 159.786 28.3928 160.386 32.3475ZM184.168 39.3178C190.78 43.6843 192.56 47.8785 193.012 50.521C193.251 51.9149 193.153 53.0644 193.009 53.833C192.938 54.2169 192.856 54.4997 192.803 54.6614C192.777 54.7419 192.758 54.7909 192.753 54.8059C192.75 54.8134 192.75 54.8122 192.754 54.802C192.756 54.7969 192.76 54.7896 192.764 54.7799C192.766 54.7751 192.768 54.7697 192.771 54.7637C192.772 54.7607 192.774 54.7576 192.775 54.7543C192.776 54.7527 192.777 54.7501 192.777 54.7493C192.778 54.7467 192.78 54.744 196.431 56.3775C200.082 58.011 200.083 58.0082 200.085 58.0055C200.085 58.0045 200.086 58.0017 200.087 57.9997C200.089 57.9958 200.091 57.9917 200.093 57.9874C200.096 57.9788 200.1 57.9695 200.105 57.9596C200.113 57.9396 200.123 57.9169 200.134 57.8914C200.155 57.8405 200.18 57.7785 200.209 57.7058C200.265 57.5605 200.334 57.3719 200.409 57.1429C200.558 56.6857 200.732 56.0626 200.874 55.2983C201.159 53.7704 201.322 51.6542 200.897 49.1712C200.023 44.0598 196.773 38.0553 188.576 32.6421L184.168 39.3178Z" fill="#E5FFEA"/>
<mask id="mask0" style="mask-type:alpha" maskUnits="userSpaceOnUse" x="31" y="12" width="36" height="37">
<ellipse cx="49.0926" cy="30.3231" rx="14.9676" ry="14.3592" transform="rotate(-102.768 49.0926 30.3231)" fill="#C4C4C4"/>
</mask>
<g mask="url(#mask0)">
<ellipse cx="38.7158" cy="46.201" rx="14.9676" ry="14.3592" transform="rotate(-102.768 38.7158 46.201)" fill="#E5FFEA"/>
</g>
<mask id="mask1" style="mask-type:alpha" maskUnits="userSpaceOnUse" x="21" y="21" width="41" height="41">
<circle cx="41.1805" cy="41.3973" r="14.3592" transform="rotate(-144.34 41.1805 41.3973)" fill="#C4C4C4"/>
</mask>
<g mask="url(#mask1)">
<circle cx="43.5176" cy="59.8487" r="14.3592" transform="rotate(-144.34 43.5176 59.8487)" fill="#E5FFEA"/>
</g>
<mask id="mask2" style="mask-type:alpha" maskUnits="userSpaceOnUse" x="45" y="11" width="40" height="41">
<circle cx="65.0235" cy="31.3761" r="14.3592" transform="rotate(-55.6819 65.0235 31.3761)" fill="#C4C4C4"/>
</mask>
<g mask="url(#mask2)">
<circle cx="46.632" cy="34.1446" r="14.3592" transform="rotate(-55.6819 46.632 34.1446)" fill="#E5FFEA"/>
</g>
</svg>
