<svg width="232" height="231" viewBox="0 0 232 231" fill="none" xmlns="http://www.w3.org/2000/svg">
<path fill-rule="evenodd" clip-rule="evenodd" d="M132.864 87.3999C135.518 68.3204 151.581 46.7394 184.271 37.5176C189.063 36.1657 194.124 38.5282 196.145 43.0605C198.495 48.3287 200.692 57.7095 199.525 67.8184C198.313 78.3053 193.366 90.0996 180.845 98.2864C170.914 104.78 152.568 107.471 137.14 97.0014C133.999 94.8695 132.342 91.1494 132.864 87.3999ZM179.64 65.5414C179.853 63.6992 179.875 61.9 179.775 60.2193C165.471 66.4634 157.924 75.5434 154.616 83.3623C160.81 85.0137 166.878 83.5762 169.858 81.6277C176.399 77.3514 178.954 71.483 179.64 65.5414ZM125.407 95.9119C124.647 94.3905 123.8 92.7939 122.856 91.1469C126.822 83.3201 129.192 73.7441 129.192 62.3347C129.192 56.8314 124.712 52.37 119.184 52.37C113.657 52.37 109.176 56.8314 109.176 62.3347C109.176 66.016 108.856 69.3282 108.282 72.3067C105.305 69.4493 101.964 66.7061 98.2185 64.1977C83.9768 54.6596 64.6792 49.0541 39.1596 52.4583C34.2394 53.1146 30.546 57.2628 30.4815 62.2051C30.3907 69.1521 32.3789 80.9278 38.4529 91.9211C44.6941 103.217 55.6427 114.275 73.3816 117.548C83.6963 119.451 97.5523 116.727 108.858 108.075C108.885 108.054 108.911 108.034 108.938 108.014C108.962 107.995 108.986 107.977 109.01 107.958C121.94 135.929 120.249 161.515 117.659 183.647C117.02 189.113 120.952 194.061 126.442 194.698C131.932 195.335 136.901 191.42 137.541 185.953C140.331 162.104 142.686 130.524 125.407 95.9119ZM96.661 92.2731C97.2321 91.836 97.7995 91.3677 98.3595 90.866C95.2451 87.2214 91.5112 83.724 87.0472 80.7343C78.7668 75.1886 67.4369 71.0216 51.7448 71.4094C52.5998 74.81 53.9544 78.6307 55.9899 82.3149C60.0937 89.7421 66.5735 96.023 77.0284 97.9519C81.5538 98.7869 89.6875 97.6097 96.661 92.2731Z" fill="#0D9071"/>
</svg>
