<svg width="257" height="331" viewBox="0 0 257 331" fill="none" xmlns="http://www.w3.org/2000/svg">
<path d="M112.257 289.64L115.386 288.936C117.524 288.456 118.648 285.789 117.855 283.745C114.209 274.35 109.542 248.269 136.837 197.73C136.837 197.73 114.389 220.232 104.405 241.69C92.9541 266.3 105.626 284.117 109.563 288.788C110.223 289.571 111.258 289.864 112.257 289.64Z" fill="#51E1AD"/>
<path d="M149.457 59.8285C149.457 59.8285 192.722 105.229 145.575 182.552C142.351 187.839 139.448 192.897 136.837 197.73M136.837 197.73C109.542 248.269 114.209 274.35 117.855 283.745C118.648 285.789 117.524 288.456 115.386 288.936L112.257 289.64C111.258 289.864 110.223 289.571 109.563 288.788C105.626 284.117 92.9541 266.3 104.405 241.69C114.389 220.232 136.837 197.73 136.837 197.73Z" stroke="#51E1AD" stroke-width="3" stroke-linecap="round"/>
<path d="M57.0255 105.556C48.277 105.556 44.1601 99.3646 44.1601 89.9449C44.1601 84.8766 45.4918 79.8198 47.9339 75.1269C47.9339 75.1269 46.2186 93.3203 57.0255 96.0629C66.7194 98.523 69.098 86.5546 69.4852 84.0631C69.521 83.8329 69.6551 83.8139 69.7194 84.0378C72.4489 93.5512 66.9748 105.556 57.0255 105.556Z" fill="#51E1AD"/>
<path d="M151.029 114.628C151.029 114.628 144.167 68.2153 108.659 55.5574C80.7606 45.6123 56.8863 57.9241 47.9339 75.1269M47.9339 75.1269C45.4918 79.8198 44.1601 84.8766 44.1601 89.9449C44.1601 99.3646 48.277 105.556 57.0255 105.556C66.9748 105.556 72.4489 93.5512 69.7194 84.0378V84.0378C69.6551 83.8139 69.521 83.8329 69.4852 84.0631C69.098 86.5546 66.7194 98.523 57.0255 96.0629C46.2186 93.3203 47.9339 75.1269 47.9339 75.1269Z" stroke="#51E1AD" stroke-width="3" stroke-linecap="round"/>
<path d="M122 275C122 275 122.271 242.882 154.289 225.761C186.306 208.639 211.14 219.738 218.867 232.498C229.224 249.602 210.947 261.005 206.682 258.413" stroke="#51E1AD" stroke-width="3" stroke-linecap="round"/>
<path d="M137.039 176.011C137.039 176.011 136.696 177.51 131.823 186.466C126.949 195.422 120.397 202.521 120.397 202.521" stroke="#51E1AD" stroke-width="3" stroke-linecap="round"/>
<path d="M137.039 197.035C137.039 197.035 105.744 227.169 100.46 253.8C95.1762 280.431 110.653 289.377 110.653 289.377" stroke="#51E1AD" stroke-width="3" stroke-linecap="round"/>
<mask id="mask0" style="mask-type:alpha" maskUnits="userSpaceOnUse" x="196" y="12" width="24" height="25">
<ellipse rx="12.1748" ry="11.6799" transform="matrix(0.135182 -0.990821 -0.990821 -0.135182 208.13 24.7862)" fill="#C4C4C4"/>
</mask>
<g mask="url(#mask0)">
<ellipse rx="12.1748" ry="11.6799" transform="matrix(0.135182 -0.990821 -0.990821 -0.135182 217.663 36.9166)" fill="#51E1AD"/>
</g>
<mask id="mask1" style="mask-type:alpha" maskUnits="userSpaceOnUse" x="202" y="22" width="25" height="24">
<circle r="11.6799" transform="matrix(0.758597 -0.651561 -0.651561 -0.758597 214.514 34.0225)" fill="#C4C4C4"/>
</mask>
<g mask="url(#mask1)">
<circle r="11.6799" transform="matrix(0.758597 -0.651561 -0.651561 -0.758597 213.928 49.1393)" fill="#51E1AD"/>
</g>
<mask id="mask2" style="mask-type:alpha" maskUnits="userSpaceOnUse" x="182" y="15" width="25" height="25">
<circle r="11.6799" transform="matrix(-0.633613 -0.77365 -0.77365 0.633613 194.484 27.5921)" fill="#C4C4C4"/>
</mask>
<g mask="url(#mask2)">
<circle r="11.6799" transform="matrix(-0.633613 -0.77365 -0.77365 0.633613 209.583 28.5318)" fill="#51E1AD"/>
</g>
<path d="M44.9379 161.045C22.9773 161.979 19.3172 176.735 19.3172 176.735C19.3172 176.735 12.607 175.556 6.3035 179.35C0 183.143 0 189.996 0 189.996H99.026C99.026 189.996 102.483 182.899 91.7058 176.361C84.9186 172.244 72.7953 173.933 72.7953 173.933C72.7953 173.933 66.8984 160.111 44.9379 161.045Z" fill="#51E1AD"/>
<path d="M81.104 119.033C66.3925 119.718 63.9406 130.539 63.9406 130.539C63.9406 130.539 59.4455 129.675 55.2227 132.457C51 135.238 51 140.264 51 140.264H117.338C117.338 140.264 119.653 135.059 112.434 130.265C107.887 127.246 99.7658 128.484 99.7658 128.484C99.7658 128.484 95.8155 118.348 81.104 119.033Z" fill="#51E1AD"/>
<path d="M198.562 42.4995C198.562 42.4995 196.616 43.4728 193.062 43.3825L193.062 40.9996L184.178 41.5103C183.947 41.4411 183.718 41.3719 183.491 41.3029L184.562 40.4995L180.932 40.4995C179.855 40.149 178.879 39.8116 178.062 39.4996C175.804 38.6375 172.562 38.4997 171.179 39.4995C168.602 41.3626 169.703 41.6894 169.703 41.6894C169.703 41.6894 163.042 42.5 161.062 50.9998C159.082 59.4995 161.062 63.9995 164.062 67.9995C167.062 71.9995 169.296 73.5556 171.179 75.0276C173.062 76.4995 175.113 77.1556 175.113 77.1556L190.562 56.4997L198.562 42.4995Z" fill="#622C17" stroke="#622C17" stroke-linecap="round"/>
<path d="M184.062 329.5C182.562 328 185.062 316 185.062 316L185.562 312H193.562L194.062 316.5C194.062 316.5 195.219 319.742 209.062 323C217.562 325 215.562 328.5 212.562 329.5C209.562 330.5 185.562 331 184.062 329.5Z" fill="#702809"/>
<path d="M109.062 306.5C111.158 301.984 117.062 297.5 117.062 297.5L119.062 293.5L127.062 296.5L126.062 300.5C126.062 300.5 125.062 304.5 135.062 314.5C142.062 321.5 137.062 324.5 133.562 323C130.062 321.499 107.67 309.5 109.062 306.5Z" fill="#702809"/>
<path d="M184.062 329.5C182.562 328 185.062 316 185.062 316L185.562 312H193.562L194.062 316.5C194.062 316.5 195.219 319.742 209.062 323C217.562 325 215.562 328.5 212.562 329.5C209.562 330.5 185.562 331 184.062 329.5Z" stroke="#702809" stroke-linecap="round"/>
<path d="M109.062 306.5C111.158 301.984 117.062 297.5 117.062 297.5L119.062 293.5L127.062 296.5L126.062 300.5C126.062 300.5 125.062 304.5 135.062 314.5C142.062 321.5 137.062 324.5 133.562 323C130.062 321.499 107.67 309.5 109.062 306.5Z" stroke="#702809" stroke-linecap="round"/>
<path d="M192.562 161H187.062L171.062 225.5C171.062 225.5 180.062 314.1 182.062 314.5C187.062 315.5 191.562 314.968 196.562 314.5C198.562 314.312 192.562 161 192.562 161Z" fill="#132746" stroke="#132746" stroke-linecap="round"/>
<path d="M130.562 301.5C124.84 299.948 121.453 296.513 117.562 293.5C116.205 292.449 136.653 257.137 144.062 229.5C151.086 203.299 155.562 161 155.562 161H187.062C187.062 161 172.756 222.902 167.562 237C162.369 251.097 132.453 302.013 130.562 301.5Z" fill="#274169" stroke="#274169" stroke-linecap="round"/>
<path d="M189.702 74.6253C196.923 68.8248 194.329 55.2647 194.329 55.2647C194.329 55.2647 194.062 52.9995 193.062 51.9995C192.666 51.6037 192.562 51.4995 190.562 51.4995C187.562 51.4995 183.062 51.9995 183.062 51.9995L178.562 52.4995C176.062 51.4995 174.062 50.9994 174.062 50.9994C174.062 50.9994 176.694 62.6991 175.521 64.519C173.722 67.3087 171.159 61.9343 171.159 61.9343C169.018 58.5036 164.167 57.3679 164.58 64.1655C164.74 66.801 166.138 68.0386 167.094 68.6927C169.31 70.2102 172.164 70.9513 172.164 70.9513L172.164 84.4995L184.215 88.0591L184.215 76.9995C186.486 77.0123 187.196 76.6378 189.702 74.6253Z" fill="#EB9473"/>
<path d="M172.164 70.9513C172.164 70.9513 169.31 70.2102 167.094 68.6927C166.138 68.0386 164.74 66.801 164.58 64.1655C164.167 57.3679 169.018 58.5036 171.159 61.9343C171.159 61.9343 173.722 67.3087 175.521 64.519C176.694 62.6991 174.062 50.9994 174.062 50.9994C174.062 50.9994 176.062 51.4995 178.562 52.4995L183.062 51.9995C183.062 51.9995 187.562 51.4995 190.562 51.4995C192.562 51.4995 192.666 51.6037 193.062 51.9995C194.062 52.9995 194.329 55.2647 194.329 55.2647C194.329 55.2647 196.923 68.8248 189.702 74.6253C187.196 76.6378 186.486 77.0123 184.215 76.9995M172.164 70.9513L172.164 84.4995L184.215 88.0591L184.215 76.9995M172.164 70.9513C172.164 70.9513 176.837 76.9579 184.215 76.9995" stroke="#EB9473" stroke-linecap="round"/>
<path d="M236.155 49.2297C236.155 49.2297 226.835 70.0583 218.062 86.9995L207.562 89.9995L207.562 104.5C207.562 104.5 211.562 104.27 215.562 103C218.653 102.018 224.562 98.9998 225.562 97.4998C226.562 95.9998 228.655 91.2295 230.655 84.7295C232.655 78.2295 241.445 50.8828 241.445 50.8828C241.445 50.8828 243.7 48.3202 244.655 44.7227C245.25 42.4821 247.075 36.6445 246.655 36.4995C245.054 35.947 240.631 44.7227 240.631 44.7227C240.672 44.15 240.631 35.9996 240.631 35.9996C240.631 35.9996 247.453 28.9611 246.655 27.4995C245.857 26.038 236.131 33.3129 235.562 35.9996C234.766 39.761 236.155 49.2297 236.155 49.2297Z" fill="#EB9473" stroke="#EB9473" stroke-linecap="round"/>
<path d="M156.317 83.9996C150.817 87.7078 129.062 112.5 131.062 114C138.086 119.267 141.744 123.22 150.072 126.001C151.208 126.38 153.354 124.163 155.581 121.267L150.072 170.001H173.322H196.572L197.563 113.5C197.563 113.5 208.062 111 213.562 108.5C215.883 107.445 217.328 85.0782 214.562 85.9998C211.562 86.9996 195.062 88.9996 195.062 88.9996C194.29 88.0926 193.062 86.5276 191.562 85.9998C182.19 82.7021 159.213 82.0471 156.317 83.9996Z" fill="#FFBDE5"/>
<path d="M156.317 114.751L150.072 170.001H173.322H196.572L197.563 113.5M195.062 88.9996C198.643 93.2065 197.563 98.4996 197.563 102C197.563 105.5 197.563 109.87 197.563 113.5M195.062 88.9996C194.29 88.0926 193.062 86.5276 191.562 85.9998C182.19 82.7021 159.213 82.0471 156.317 83.9996C150.817 87.7078 129.062 112.5 131.062 114C138.086 119.267 141.744 123.22 150.072 126.001C153.062 127 163.062 110 163.062 110M195.062 88.9996C195.062 88.9996 211.562 86.9996 214.562 85.9998C217.328 85.0782 215.883 107.445 213.562 108.5C208.062 111 197.563 113.5 197.563 113.5" stroke="#FFBDE5" stroke-linecap="round"/>
<path d="M128.562 137C128.562 135.343 129.905 134 131.562 134H179.562C181.219 134 182.562 135.343 182.562 137V170C182.562 171.656 181.219 173 179.562 173H131.562C129.905 173 128.562 171.656 128.562 170V137Z" fill="#C4C4C4"/>
<path d="M157.299 162.333C157.299 162.333 146.397 141.715 143.388 128.245L147.062 124.5L136.062 115.5L131.54 125.1C132.998 139.488 151.065 166.503 151.065 166.503C151.065 166.503 149.253 170.2 150.062 173.749C150.461 175.5 151.475 176 152.522 176.596C153.569 177.192 158.959 177.946 162.035 176.61C165.112 175.273 164.613 175.247 164.694 173.749C164.782 172.114 161.05 167.043 161.05 167.043C162.109 167.194 164.138 167.548 165.062 168.5C167.062 169.999 168.076 170.791 168.562 169.5C168.939 168.499 166.562 167.358 165.562 166C164.473 164.52 163.035 163.5 162.035 163C159.535 161.75 157.299 162.333 157.299 162.333Z" fill="#EB9473"/>
<path d="M131.54 125.1C132.998 139.488 151.065 166.503 151.065 166.503C151.065 166.503 149.253 170.2 150.062 173.749C150.461 175.5 151.475 176 152.522 176.596C153.569 177.192 158.959 177.946 162.035 176.61C165.112 175.273 164.613 175.247 164.694 173.749C164.782 172.114 161.05 167.043 161.05 167.043C162.109 167.194 164.138 167.548 165.062 168.5C167.062 169.999 168.076 170.791 168.562 169.5C168.939 168.499 166.562 167.358 165.562 166C164.473 164.52 163.035 163.5 162.035 163C159.535 161.75 157.299 162.333 157.299 162.333C157.299 162.333 146.397 141.715 143.388 128.245L147.062 124.5L136.062 115.5L131.54 125.1ZM131.54 125.1C131.433 124.041 131.831 126.349 131.54 125.1Z" stroke="#EB9473" stroke-linecap="round"/>
<path d="M130.677 113.963C128.677 112.463 150.562 90.2078 156.062 86.4996L162.677 109.963C162.677 109.963 152.677 126.963 149.687 125.964C141.359 123.183 137.701 119.23 130.677 113.963Z" fill="#FFBDE5" stroke="#FFBDE5" stroke-linecap="round"/>
<path d="M188.06 63.3255C188.06 63.3255 189.102 65.8217 187.963 66.324C186.824 66.8262 186.448 66.7753 186.448 66.7753" stroke="#2B2B2B" stroke-linecap="round"/>
<path d="M180.046 63.5621L180.095 62.0628M191.571 62.99L191.605 61.9346" stroke="#2B2B2B" stroke-width="2" stroke-linecap="round"/>
<path d="M181.244 70.8188C181.283 70.5922 190.234 70.0802 190.151 70.5615C190.067 71.0428 188.043 73.6058 186.499 73.8377C184.264 74.1734 181.204 71.0454 181.244 70.8188Z" fill="white" stroke="white" stroke-linecap="round"/>
</svg>
