<svg width="332" height="332" viewBox="0 0 332 332" fill="none" xmlns="http://www.w3.org/2000/svg">
<path d="M125 331.268H207L207 0.267578H125L125 331.268Z" fill="#E51B5D"/>
<mask id="mask0" mask-type="alpha" maskUnits="userSpaceOnUse" x="0" y="124" width="332" height="84">
<path d="M0.790527 124.646L0.790527 207.007L331.265 207.007V124.646L0.790527 124.646Z" fill="#B8B7B7"/>
</mask>
<g mask="url(#mask0)">
<path d="M314.071 127.513C314.071 130.676 316.635 133.241 319.798 133.241C322.961 133.241 325.525 130.676 325.525 127.513C325.525 124.35 322.961 121.786 319.798 121.786C316.635 121.786 314.071 124.35 314.071 127.513Z" fill="#B8B7B7"/>
<path d="M324 144.54C324 147.704 326.565 150.268 329.728 150.268C332.891 150.268 335.455 147.704 335.455 144.54C335.455 141.377 332.891 138.813 329.728 138.813C326.565 138.813 324 141.377 324 144.54Z" fill="#B8B7B7"/>
<path d="M304.18 144.54C304.18 147.704 306.744 150.268 309.907 150.268C313.07 150.268 315.634 147.704 315.634 144.54C315.634 141.377 313.07 138.813 309.907 138.813C306.744 138.813 304.18 141.377 304.18 144.54Z" fill="#B8B7B7"/>
<path d="M314.071 161.601C314.071 164.765 316.635 167.329 319.798 167.329C322.961 167.329 325.525 164.765 325.525 161.601C325.525 158.438 322.961 155.874 319.798 155.874C316.635 155.874 314.071 158.438 314.071 161.601Z" fill="#B8B7B7"/>
<path d="M294.25 161.601C294.25 164.765 296.815 167.329 299.978 167.329C303.141 167.329 305.705 164.765 305.705 161.601C305.705 158.438 303.141 155.874 299.978 155.874C296.815 155.874 294.25 158.438 294.25 161.601Z" fill="#B8B7B7"/>
<path d="M324 178.479C324 181.642 326.565 184.206 329.728 184.206C332.891 184.206 335.455 181.642 335.455 178.479C335.455 175.316 332.891 172.751 329.728 172.751C326.565 172.751 324 175.316 324 178.479Z" fill="#B8B7B7"/>
<path d="M304.18 178.479C304.18 181.642 306.744 184.206 309.907 184.206C313.07 184.206 315.634 181.642 315.634 178.479C315.634 175.316 313.07 172.751 309.907 172.751C306.744 172.751 304.18 175.316 304.18 178.479Z" fill="#B8B7B7"/>
<path d="M314.071 195.159C314.071 198.322 316.635 200.887 319.798 200.887C322.961 200.887 325.525 198.322 325.525 195.159C325.525 191.996 322.961 189.432 319.798 189.432C316.635 189.432 314.071 191.996 314.071 195.159Z" fill="#B8B7B7"/>
<path d="M323.961 212.215C323.961 215.379 326.525 217.943 329.689 217.943C332.852 217.943 335.416 215.379 335.416 212.215C335.416 209.052 332.852 206.488 329.689 206.488C326.525 206.488 323.961 209.052 323.961 212.215Z" fill="#B8B7B7"/>
<path d="M304.146 212.215C304.146 215.379 306.711 217.943 309.874 217.943C313.037 217.943 315.601 215.379 315.601 212.215C315.601 209.052 313.037 206.488 309.874 206.488C306.711 206.488 304.146 209.052 304.146 212.215Z" fill="#B8B7B7"/>
<path d="M274.38 127.727C274.38 130.89 276.944 133.454 280.108 133.454C283.271 133.454 285.835 130.89 285.835 127.727C285.835 124.564 283.271 121.999 280.108 121.999C276.944 121.999 274.38 124.564 274.38 127.727Z" fill="#B8B7B7"/>
<path d="M254.56 127.727C254.56 130.89 257.124 133.454 260.287 133.454C263.45 133.454 266.015 130.89 266.015 127.727C266.015 124.564 263.45 121.999 260.287 121.999C257.124 121.999 254.56 124.564 254.56 127.727Z" fill="#B8B7B7"/>
<path d="M234.557 127.727C234.557 130.89 237.121 133.454 240.284 133.454C243.447 133.454 246.012 130.89 246.012 127.727C246.012 124.564 243.447 121.999 240.284 121.999C237.121 121.999 234.557 124.564 234.557 127.727Z" fill="#B8B7B7"/>
<path d="M214.737 127.727C214.737 130.89 217.301 133.454 220.464 133.454C223.627 133.454 226.191 130.89 226.191 127.727C226.191 124.564 223.627 121.999 220.464 121.999C217.301 121.999 214.737 124.564 214.737 127.727Z" fill="#B8B7B7"/>
<path d="M194.95 127.697C194.95 130.86 197.514 133.424 200.677 133.424C203.84 133.424 206.404 130.86 206.404 127.697C206.404 124.534 203.84 121.97 200.677 121.97C197.514 121.97 194.95 124.534 194.95 127.697Z" fill="#B8B7B7"/>
<path d="M175.129 127.697C175.129 130.86 177.693 133.424 180.856 133.424C184.019 133.424 186.583 130.86 186.583 127.697C186.583 124.534 184.019 121.97 180.856 121.97C177.693 121.97 175.129 124.534 175.129 127.697Z" fill="#B8B7B7"/>
<path d="M155.176 127.727C155.176 130.89 157.74 133.454 160.903 133.454C164.067 133.454 166.631 130.89 166.631 127.727C166.631 124.564 164.067 121.999 160.903 121.999C157.74 121.999 155.176 124.564 155.176 127.727Z" fill="#B8B7B7"/>
<path d="M135.356 127.727C135.356 130.89 137.92 133.454 141.083 133.454C144.246 133.454 146.811 130.89 146.811 127.727C146.811 124.564 144.246 121.999 141.083 121.999C137.92 121.999 135.356 124.564 135.356 127.727Z" fill="#B8B7B7"/>
<path d="M115.519 127.727C115.519 130.89 118.083 133.454 121.246 133.454C124.409 133.454 126.974 130.89 126.974 127.727C126.974 124.564 124.409 121.999 121.246 121.999C118.083 121.999 115.519 124.564 115.519 127.727Z" fill="#B8B7B7"/>
<path d="M95.6981 127.727C95.6981 130.89 98.2623 133.454 101.425 133.454C104.589 133.454 107.153 130.89 107.153 127.727C107.153 124.564 104.589 121.999 101.425 121.999C98.2623 121.999 95.6981 124.564 95.6981 127.727Z" fill="#B8B7B7"/>
<path d="M75.7454 127.727C75.7454 130.89 78.3097 133.454 81.4728 133.454C84.636 133.454 87.2002 130.89 87.2002 127.727C87.2002 124.564 84.636 121.999 81.4728 121.999C78.3097 121.999 75.7454 124.564 75.7454 127.727Z" fill="#B8B7B7"/>
<path d="M55.9251 127.727C55.9251 130.89 58.4894 133.454 61.6525 133.454C64.8156 133.454 67.3799 130.89 67.3799 127.727C67.3799 124.564 64.8156 121.999 61.6525 121.999C58.4894 121.999 55.9251 124.564 55.9251 127.727Z" fill="#B8B7B7"/>
<path d="M36.0711 127.743C36.0711 130.906 38.6354 133.471 41.7985 133.471C44.9616 133.471 47.5259 130.906 47.5259 127.743C47.5259 124.58 44.9616 122.016 41.7985 122.016C38.6354 122.016 36.0711 124.58 36.0711 127.743Z" fill="#B8B7B7"/>
<path d="M16.2508 127.743C16.2508 130.906 18.815 133.471 21.9782 133.471C25.1413 133.471 27.7056 130.906 27.7056 127.743C27.7056 124.58 25.1413 122.016 21.9782 122.016C18.815 122.016 16.2508 124.58 16.2508 127.743Z" fill="#B8B7B7"/>
<path d="M-3.75163 127.743C-3.75163 130.906 -1.18739 133.471 1.97575 133.471C5.13889 133.471 7.70312 130.906 7.70312 127.743C7.70312 124.58 5.13889 122.016 1.97575 122.016C-1.18739 122.016 -3.75163 124.58 -3.75163 127.743Z" fill="#B8B7B7"/>
<path d="M284.309 144.603C284.309 147.766 286.874 150.331 290.037 150.331C293.2 150.331 295.764 147.766 295.764 144.603C295.764 141.44 293.2 138.876 290.037 138.876C286.874 138.876 284.309 141.44 284.309 144.603Z" fill="#B8B7B7"/>
<path d="M264.489 144.603C264.489 147.766 267.053 150.331 270.216 150.331C273.38 150.331 275.944 147.766 275.944 144.603C275.944 141.44 273.38 138.876 270.216 138.876C267.053 138.876 264.489 141.44 264.489 144.603Z" fill="#B8B7B7"/>
<path d="M244.481 144.603C244.481 147.766 247.045 150.331 250.208 150.331C253.371 150.331 255.936 147.766 255.936 144.603C255.936 141.44 253.371 138.876 250.208 138.876C247.045 138.876 244.481 141.44 244.481 144.603Z" fill="#B8B7B7"/>
<path d="M224.66 144.603C224.66 147.766 227.225 150.331 230.388 150.331C233.551 150.331 236.115 147.766 236.115 144.603C236.115 141.44 233.551 138.876 230.388 138.876C227.225 138.876 224.66 141.44 224.66 144.603Z" fill="#B8B7B7"/>
<path d="M204.879 144.574C204.879 147.737 207.443 150.302 210.606 150.302C213.769 150.302 216.333 147.737 216.333 144.574C216.333 141.411 213.769 138.847 210.606 138.847C207.443 138.847 204.879 141.411 204.879 144.574Z" fill="#B8B7B7"/>
<path d="M185.058 144.574C185.058 147.737 187.623 150.302 190.786 150.302C193.949 150.302 196.513 147.737 196.513 144.574C196.513 141.411 193.949 138.847 190.786 138.847C187.623 138.847 185.058 141.411 185.058 144.574Z" fill="#B8B7B7"/>
<path d="M165.1 144.603C165.1 147.766 167.664 150.331 170.827 150.331C173.99 150.331 176.555 147.766 176.555 144.603C176.555 141.44 173.99 138.876 170.827 138.876C167.664 138.876 165.1 141.44 165.1 144.603Z" fill="#B8B7B7"/>
<path d="M145.285 144.603C145.285 147.766 147.849 150.331 151.012 150.331C154.176 150.331 156.74 147.766 156.74 144.603C156.74 141.44 154.176 138.876 151.012 138.876C147.849 138.876 145.285 141.44 145.285 144.603Z" fill="#B8B7B7"/>
<path d="M125.448 144.603C125.448 147.766 128.012 150.331 131.175 150.331C134.339 150.331 136.903 147.766 136.903 144.603C136.903 141.44 134.339 138.876 131.175 138.876C128.012 138.876 125.448 141.44 125.448 144.603Z" fill="#B8B7B7"/>
<path d="M105.628 144.603C105.628 147.766 108.192 150.331 111.355 150.331C114.518 150.331 117.083 147.766 117.083 144.603C117.083 141.44 114.518 138.876 111.355 138.876C108.192 138.876 105.628 141.44 105.628 144.603Z" fill="#B8B7B7"/>
<path d="M85.6693 144.603C85.6693 147.766 88.2335 150.331 91.3966 150.331C94.5598 150.331 97.124 147.766 97.124 144.603C97.124 141.44 94.5598 138.876 91.3966 138.876C88.2335 138.876 85.6693 141.44 85.6693 144.603Z" fill="#B8B7B7"/>
<path d="M65.8543 144.603C65.8543 147.766 68.4186 150.331 71.5817 150.331C74.7448 150.331 77.3091 147.766 77.3091 144.603C77.3091 141.44 74.7448 138.876 71.5817 138.876C68.4186 138.876 65.8543 141.44 65.8543 144.603Z" fill="#B8B7B7"/>
<path d="M46.0008 144.62C46.0008 147.783 48.565 150.347 51.7282 150.347C54.8913 150.347 57.4556 147.783 57.4556 144.62C57.4556 141.457 54.8913 138.892 51.7282 138.892C48.565 138.892 46.0008 141.457 46.0008 144.62Z" fill="#B8B7B7"/>
<path d="M26.1805 144.62C26.1805 147.783 28.7447 150.347 31.9079 150.347C35.071 150.347 37.6353 147.783 37.6353 144.62C37.6353 141.457 35.071 138.892 31.9079 138.892C28.7447 138.892 26.1805 141.457 26.1805 144.62Z" fill="#B8B7B7"/>
<path d="M6.1722 144.62C6.1722 147.783 8.73644 150.347 11.8996 150.347C15.0627 150.347 17.627 147.783 17.627 144.62C17.627 141.457 15.0627 138.892 11.8996 138.892C8.73644 138.892 6.1722 141.457 6.1722 144.62Z" fill="#B8B7B7"/>
<path d="M274.413 161.631C274.413 164.794 276.978 167.359 280.141 167.359C283.304 167.359 285.868 164.794 285.868 161.631C285.868 158.468 283.304 155.904 280.141 155.904C276.978 155.904 274.413 158.468 274.413 161.631Z" fill="#B8B7B7"/>
<path d="M254.598 161.631C254.598 164.794 257.163 167.359 260.326 167.359C263.489 167.359 266.053 164.794 266.053 161.631C266.053 158.468 263.489 155.904 260.326 155.904C257.163 155.904 254.598 158.468 254.598 161.631Z" fill="#B8B7B7"/>
<path d="M234.59 161.631C234.59 164.794 237.154 167.359 240.318 167.359C243.481 167.359 246.045 164.794 246.045 161.631C246.045 158.468 243.481 155.904 240.318 155.904C237.154 155.904 234.59 158.468 234.59 161.631Z" fill="#B8B7B7"/>
<path d="M214.77 161.631C214.77 164.794 217.334 167.359 220.497 167.359C223.66 167.359 226.225 164.794 226.225 161.631C226.225 158.468 223.66 155.904 220.497 155.904C217.334 155.904 214.77 158.468 214.77 161.631Z" fill="#B8B7B7"/>
<path d="M194.983 161.601C194.983 164.765 197.547 167.329 200.71 167.329C203.873 167.329 206.437 164.765 206.437 161.601C206.437 158.438 203.873 155.874 200.71 155.874C197.547 155.874 194.983 158.438 194.983 161.601Z" fill="#B8B7B7"/>
<path d="M175.168 161.601C175.168 164.765 177.732 167.329 180.895 167.329C184.058 167.329 186.623 164.765 186.623 161.601C186.623 158.438 184.058 155.874 180.895 155.874C177.732 155.874 175.168 158.438 175.168 161.601Z" fill="#B8B7B7"/>
<path d="M155.209 161.631C155.209 164.794 157.774 167.359 160.937 167.359C164.1 167.359 166.664 164.794 166.664 161.631C166.664 158.468 164.1 155.904 160.937 155.904C157.774 155.904 155.209 158.468 155.209 161.631Z" fill="#B8B7B7"/>
<path d="M135.389 161.631C135.389 164.794 137.953 167.359 141.116 167.359C144.28 167.359 146.844 164.794 146.844 161.631C146.844 158.468 144.28 155.904 141.116 155.904C137.953 155.904 135.389 158.468 135.389 161.631Z" fill="#B8B7B7"/>
<path d="M115.552 161.631C115.552 164.794 118.116 167.359 121.279 167.359C124.442 167.359 127.006 164.794 127.006 161.631C127.006 158.468 124.442 155.904 121.279 155.904C118.116 155.904 115.552 158.468 115.552 161.631Z" fill="#B8B7B7"/>
<path d="M95.7371 161.631C95.7371 164.794 98.3014 167.359 101.465 167.359C104.628 167.359 107.192 164.794 107.192 161.631C107.192 158.468 104.628 155.904 101.465 155.904C98.3014 155.904 95.7371 158.468 95.7371 161.631Z" fill="#B8B7B7"/>
<path d="M75.7786 161.631C75.7786 164.794 78.3429 167.359 81.506 167.359C84.6692 167.359 87.2334 164.794 87.2334 161.631C87.2334 158.468 84.6692 155.904 81.506 155.904C78.3429 155.904 75.7786 158.468 75.7786 161.631Z" fill="#B8B7B7"/>
<path d="M55.9578 161.631C55.9578 164.794 58.5221 167.359 61.6852 167.359C64.8484 167.359 67.4126 164.794 67.4126 161.631C67.4126 158.468 64.8484 155.904 61.6852 155.904C58.5221 155.904 55.9578 158.468 55.9578 161.631Z" fill="#B8B7B7"/>
<path d="M36.1043 161.644C36.1043 164.807 38.6686 167.371 41.8317 167.371C44.9948 167.371 47.5591 164.807 47.5591 161.644C47.5591 158.48 44.9948 155.916 41.8317 155.916C38.6686 155.916 36.1043 158.48 36.1043 161.644Z" fill="#B8B7B7"/>
<path d="M16.2899 161.644C16.2899 164.807 18.8541 167.371 22.0173 167.371C25.1804 167.371 27.7446 164.807 27.7446 161.644C27.7446 158.48 25.1804 155.916 22.0173 155.916C18.8541 155.916 16.2899 158.48 16.2899 161.644Z" fill="#B8B7B7"/>
<path d="M-3.71842 161.644C-3.71842 164.807 -1.15419 167.371 2.00895 167.371C5.17209 167.371 7.73633 164.807 7.73633 161.644C7.73633 158.48 5.1721 155.916 2.00895 155.916C-1.15419 155.916 -3.71842 158.48 -3.71842 161.644Z" fill="#B8B7B7"/>
<path d="M264.489 178.691C264.489 181.855 267.053 184.419 270.216 184.419C273.38 184.419 275.944 181.855 275.944 178.691C275.944 175.528 273.38 172.964 270.216 172.964C267.053 172.964 264.489 175.528 264.489 178.691Z" fill="#B8B7B7"/>
<path d="M244.669 178.691C244.669 181.855 247.233 184.419 250.396 184.419C253.559 184.419 256.124 181.855 256.124 178.691C256.124 175.528 253.559 172.964 250.396 172.964C247.233 172.964 244.669 175.528 244.669 178.691Z" fill="#B8B7B7"/>
<path d="M224.66 178.691C224.66 181.855 227.225 184.419 230.388 184.419C233.551 184.419 236.115 181.855 236.115 178.691C236.115 175.528 233.551 172.964 230.388 172.964C227.225 172.964 224.66 175.528 224.66 178.691Z" fill="#B8B7B7"/>
<path d="M204.84 178.691C204.84 181.855 207.404 184.419 210.568 184.419C213.731 184.419 216.295 181.855 216.295 178.691C216.295 175.528 213.731 172.964 210.568 172.964C207.404 172.964 204.84 175.528 204.84 178.691Z" fill="#B8B7B7"/>
<path d="M185.058 178.658C185.058 181.821 187.623 184.386 190.786 184.386C193.949 184.386 196.513 181.821 196.513 178.658C196.513 175.495 193.949 172.931 190.786 172.931C187.623 172.931 185.058 175.495 185.058 178.658Z" fill="#B8B7B7"/>
<path d="M165.238 178.658C165.238 181.821 167.802 184.386 170.965 184.386C174.129 184.386 176.693 181.821 176.693 178.658C176.693 175.495 174.129 172.931 170.965 172.931C167.802 172.931 165.238 175.495 165.238 178.658Z" fill="#B8B7B7"/>
<path d="M145.285 178.691C145.285 181.855 147.849 184.419 151.012 184.419C154.176 184.419 156.74 181.855 156.74 178.691C156.74 175.528 154.176 172.964 151.012 172.964C147.849 172.964 145.285 175.528 145.285 178.691Z" fill="#B8B7B7"/>
<path d="M125.465 178.691C125.465 181.855 128.029 184.419 131.192 184.419C134.355 184.419 136.919 181.855 136.919 178.691C136.919 175.528 134.355 172.964 131.192 172.964C128.029 172.964 125.465 175.528 125.465 178.691Z" fill="#B8B7B7"/>
<path d="M105.628 178.691C105.628 181.855 108.192 184.419 111.355 184.419C114.518 184.419 117.083 181.855 117.083 178.691C117.083 175.528 114.518 172.964 111.355 172.964C108.192 172.964 105.628 175.528 105.628 178.691Z" fill="#B8B7B7"/>
<path d="M85.8075 178.691C85.8075 181.855 88.3717 184.419 91.5348 184.419C94.698 184.419 97.2622 181.855 97.2622 178.691C97.2622 175.528 94.698 172.964 91.5348 172.964C88.3717 172.964 85.8075 175.528 85.8075 178.691Z" fill="#B8B7B7"/>
<path d="M65.8543 178.691C65.8543 181.855 68.4186 184.419 71.5817 184.419C74.7448 184.419 77.3091 181.855 77.3091 178.691C77.3091 175.528 74.7448 172.964 71.5817 172.964C68.4186 172.964 65.8543 175.528 65.8543 178.691Z" fill="#B8B7B7"/>
<path d="M46.034 178.691C46.034 181.855 48.5983 184.419 51.7614 184.419C54.9245 184.419 57.4888 181.855 57.4888 178.691C57.4888 175.528 54.9245 172.964 51.7614 172.964C48.5983 172.964 46.034 175.528 46.034 178.691Z" fill="#B8B7B7"/>
<path d="M26.1805 178.704C26.1805 181.867 28.7447 184.431 31.9079 184.431C35.071 184.431 37.6353 181.867 37.6353 178.704C37.6353 175.541 35.071 172.977 31.9079 172.977C28.7447 172.977 26.1805 175.541 26.1805 178.704Z" fill="#B8B7B7"/>
<path d="M6.36019 178.704C6.36019 181.867 8.92442 184.431 12.0876 184.431C15.2507 184.431 17.8149 181.867 17.8149 178.704C17.8149 175.541 15.2507 172.977 12.0876 172.977C8.92442 172.977 6.36019 175.541 6.36019 178.704Z" fill="#B8B7B7"/>
<path d="M274.413 195.569C274.413 198.732 276.978 201.296 280.141 201.296C283.304 201.296 285.868 198.732 285.868 195.569C285.868 192.406 283.304 189.841 280.141 189.841C276.978 189.841 274.413 192.406 274.413 195.569Z" fill="#B8B7B7"/>
<path d="M254.598 195.569C254.598 198.732 257.163 201.296 260.326 201.296C263.489 201.296 266.053 198.732 266.053 195.569C266.053 192.406 263.489 189.841 260.326 189.841C257.163 189.841 254.598 192.406 254.598 195.569Z" fill="#B8B7B7"/>
<path d="M234.59 195.569C234.59 198.732 237.154 201.296 240.318 201.296C243.481 201.296 246.045 198.732 246.045 195.569C246.045 192.406 243.481 189.841 240.318 189.841C237.154 189.841 234.59 192.406 234.59 195.569Z" fill="#B8B7B7"/>
<path d="M214.77 195.569C214.77 198.732 217.334 201.296 220.497 201.296C223.66 201.296 226.225 198.732 226.225 195.569C226.225 192.406 223.66 189.841 220.497 189.841C217.334 189.841 214.77 192.406 214.77 195.569Z" fill="#B8B7B7"/>
<path d="M194.983 195.535C194.983 198.698 197.547 201.262 200.71 201.262C203.873 201.262 206.437 198.698 206.437 195.535C206.437 192.372 203.873 189.807 200.71 189.807C197.547 189.807 194.983 192.372 194.983 195.535Z" fill="#B8B7B7"/>
<path d="M175.168 195.535C175.168 198.698 177.732 201.262 180.895 201.262C184.058 201.262 186.623 198.698 186.623 195.535C186.623 192.372 184.058 189.807 180.895 189.807C177.732 189.807 175.168 192.372 175.168 195.535Z" fill="#B8B7B7"/>
<path d="M155.209 195.569C155.209 198.732 157.774 201.296 160.937 201.296C164.1 201.296 166.664 198.732 166.664 195.569C166.664 192.406 164.1 189.841 160.937 189.841C157.774 189.841 155.209 192.406 155.209 195.569Z" fill="#B8B7B7"/>
<path d="M135.389 195.569C135.389 198.732 137.953 201.296 141.116 201.296C144.28 201.296 146.844 198.732 146.844 195.569C146.844 192.406 144.28 189.841 141.116 189.841C137.953 189.841 135.389 192.406 135.389 195.569Z" fill="#B8B7B7"/>
<path d="M115.552 195.569C115.552 198.732 118.116 201.296 121.279 201.296C124.442 201.296 127.006 198.732 127.006 195.569C127.006 192.406 124.442 189.841 121.279 189.841C118.116 189.841 115.552 192.406 115.552 195.569Z" fill="#B8B7B7"/>
<path d="M95.7371 195.569C95.7371 198.732 98.3014 201.296 101.465 201.296C104.628 201.296 107.192 198.732 107.192 195.569C107.192 192.406 104.628 189.841 101.465 189.841C98.3014 189.841 95.7371 192.406 95.7371 195.569Z" fill="#B8B7B7"/>
<path d="M75.7786 195.569C75.7786 198.732 78.3429 201.296 81.506 201.296C84.6692 201.296 87.2334 198.732 87.2334 195.569C87.2334 192.406 84.6692 189.841 81.506 189.841C78.3429 189.841 75.7786 192.406 75.7786 195.569Z" fill="#B8B7B7"/>
<path d="M55.9578 195.569C55.9578 198.732 58.5221 201.296 61.6852 201.296C64.8484 201.296 67.4126 198.732 67.4126 195.569C67.4126 192.406 64.8484 189.841 61.6852 189.841C58.5221 189.841 55.9578 192.406 55.9578 195.569Z" fill="#B8B7B7"/>
<path d="M36.1043 195.581C36.1043 198.744 38.6686 201.309 41.8317 201.309C44.9948 201.309 47.5591 198.744 47.5591 195.581C47.5591 192.418 44.9948 189.854 41.8317 189.854C38.6686 189.854 36.1043 192.418 36.1043 195.581Z" fill="#B8B7B7"/>
<path d="M16.2899 195.581C16.2899 198.744 18.8541 201.309 22.0173 201.309C25.1804 201.309 27.7446 198.744 27.7446 195.581C27.7446 192.418 25.1804 189.854 22.0173 189.854C18.8541 189.854 16.2899 192.418 16.2899 195.581Z" fill="#B8B7B7"/>
<path d="M-3.71842 195.581C-3.71842 198.744 -1.15419 201.309 2.00895 201.309C5.17209 201.309 7.73633 198.744 7.73633 195.581C7.73633 192.418 5.1721 189.854 2.00895 189.854C-1.15419 189.854 -3.71842 192.418 -3.71842 195.581Z" fill="#B8B7B7"/>
<path d="M284.309 178.6C284.309 181.763 286.874 184.327 290.037 184.327C293.2 184.327 295.764 181.763 295.764 178.6C295.764 175.436 293.2 172.872 290.037 172.872C286.874 172.872 284.309 175.436 284.309 178.6Z" fill="#B8B7B7"/>
<path d="M284.309 212.249C284.309 215.412 286.874 217.977 290.037 217.977C293.2 217.977 295.764 215.412 295.764 212.249C295.764 209.086 293.2 206.522 290.037 206.522C286.874 206.522 284.309 209.086 284.309 212.249Z" fill="#B8B7B7"/>
<path d="M264.489 212.249C264.489 215.412 267.053 217.977 270.216 217.977C273.38 217.977 275.944 215.412 275.944 212.249C275.944 209.086 273.38 206.522 270.216 206.522C267.053 206.522 264.489 209.086 264.489 212.249Z" fill="#B8B7B7"/>
<path d="M244.481 212.249C244.481 215.412 247.045 217.977 250.208 217.977C253.371 217.977 255.936 215.412 255.936 212.249C255.936 209.086 253.371 206.522 250.208 206.522C247.045 206.522 244.481 209.086 244.481 212.249Z" fill="#B8B7B7"/>
<path d="M224.66 212.249C224.66 215.412 227.225 217.977 230.388 217.977C233.551 217.977 236.115 215.412 236.115 212.249C236.115 209.086 233.551 206.522 230.388 206.522C227.225 206.522 224.66 209.086 224.66 212.249Z" fill="#B8B7B7"/>
<path d="M204.879 212.215C204.879 215.379 207.443 217.943 210.606 217.943C213.769 217.943 216.333 215.379 216.333 212.215C216.333 209.052 213.769 206.488 210.606 206.488C207.443 206.488 204.879 209.052 204.879 212.215Z" fill="#B8B7B7"/>
<path d="M185.058 212.215C185.058 215.379 187.623 217.943 190.786 217.943C193.949 217.943 196.513 215.379 196.513 212.215C196.513 209.052 193.949 206.488 190.786 206.488C187.623 206.488 185.058 209.052 185.058 212.215Z" fill="#B8B7B7"/>
<path d="M165.1 212.249C165.1 215.412 167.664 217.977 170.827 217.977C173.99 217.977 176.555 215.412 176.555 212.249C176.555 209.086 173.99 206.522 170.827 206.522C167.664 206.522 165.1 209.086 165.1 212.249Z" fill="#B8B7B7"/>
<path d="M145.285 212.249C145.285 215.412 147.849 217.977 151.012 217.977C154.176 217.977 156.74 215.412 156.74 212.249C156.74 209.086 154.176 206.522 151.012 206.522C147.849 206.522 145.285 209.086 145.285 212.249Z" fill="#B8B7B7"/>
<path d="M125.448 212.249C125.448 215.412 128.012 217.977 131.175 217.977C134.339 217.977 136.903 215.412 136.903 212.249C136.903 209.086 134.339 206.522 131.175 206.522C128.012 206.522 125.448 209.086 125.448 212.249Z" fill="#B8B7B7"/>
<path d="M105.628 212.249C105.628 215.412 108.192 217.977 111.355 217.977C114.518 217.977 117.083 215.412 117.083 212.249C117.083 209.086 114.518 206.522 111.355 206.522C108.192 206.522 105.628 209.086 105.628 212.249Z" fill="#B8B7B7"/>
<path d="M85.6693 212.249C85.6693 215.412 88.2335 217.977 91.3966 217.977C94.5598 217.977 97.124 215.412 97.124 212.249C97.124 209.086 94.5598 206.522 91.3966 206.522C88.2335 206.522 85.6693 209.086 85.6693 212.249Z" fill="#B8B7B7"/>
<path d="M65.8543 212.249C65.8543 215.412 68.4186 217.977 71.5817 217.977C74.7448 217.977 77.3091 215.412 77.3091 212.249C77.3091 209.086 74.7448 206.522 71.5817 206.522C68.4186 206.522 65.8543 209.086 65.8543 212.249Z" fill="#B8B7B7"/>
<path d="M46.0008 212.262C46.0008 215.425 48.565 217.989 51.7282 217.989C54.8913 217.989 57.4556 215.425 57.4556 212.262C57.4556 209.099 54.8913 206.534 51.7282 206.534C48.565 206.534 46.0008 209.099 46.0008 212.262Z" fill="#B8B7B7"/>
<path d="M26.1805 212.262C26.1805 215.425 28.7447 217.989 31.9079 217.989C35.071 217.989 37.6353 215.425 37.6353 212.262C37.6353 209.099 35.071 206.534 31.9079 206.534C28.7447 206.534 26.1805 209.099 26.1805 212.262Z" fill="#B8B7B7"/>
<path d="M6.1722 212.262C6.1722 215.425 8.73644 217.989 11.8996 217.989C15.0627 217.989 17.627 215.425 17.627 212.262C17.627 209.099 15.0627 206.534 11.8996 206.534C8.73644 206.534 6.1722 209.099 6.1722 212.262Z" fill="#B8B7B7"/>
<path d="M294.217 127.697C294.217 130.86 296.781 133.424 299.944 133.424C303.108 133.424 305.672 130.86 305.672 127.697C305.672 124.534 303.108 121.97 299.944 121.97C296.781 121.97 294.217 124.534 294.217 127.697Z" fill="#B8B7B7"/>
<path d="M294.217 195.159C294.217 198.322 296.781 200.887 299.944 200.887C303.108 200.887 305.672 198.322 305.672 195.159C305.672 191.996 303.108 189.432 299.944 189.432C296.781 189.432 294.217 191.996 294.217 195.159Z" fill="#B8B7B7"/>
</g>
</svg>
