<svg width="814" height="480" viewBox="0 0 814 480" fill="none" xmlns="http://www.w3.org/2000/svg">
<path d="M273.92 181.81C277.16 177.43 282.68 175.49 287.86 173.81C326.02 161.29 371.92 145.15 411.33 160.62C443.81 173.37 469.42 198.62 501.15 212.85C513.37 218.33 526.46 222 539.94 221.96C575.8 221.87 605.79 196.66 635.94 177.18C657.69 163.12 681.39 151.39 706.86 146.67C732.33 141.95 759.79 144.75 782.02 158.04C802.22 170.12 817.8 193.8 812.14 216.65C806.27 240.05 782 253.08 760.27 263.5C720.44 282.59 680.9 302.5 643.83 326.5C567.52 375.95 499.99 443.31 412.65 468.51C339.59 489.51 259.43 477.74 190.75 445.14C149.13 425.38 108.03 393.76 99.09 348.56C93.27 319.07 102.5 288.01 119.27 263.03C144.86 224.82 185.12 199.49 224.93 178.27C247.39 166.27 249.61 174.41 273.93 181.81" fill="#F68632"/>
<path d="M494.72 122.83L511.96 283.44H579.11L591.56 122.83H494.72Z" fill="#A7DDE8"/>
<path d="M537.36 122.83L540.97 57.8398H552.79L548.45 122.88L537.36 122.83Z" fill="#A7DDE8"/>
<path d="M0 240.08L189.42 194.46L428.62 252.53L229.52 325.81L0 240.08Z" fill="#EE3670"/>
<path d="M228.94 0L473.67 20.74L428.62 252.53L189.42 194.46L228.94 0Z" fill="#EE3670"/>
<path d="M202.84 188.88L237.12 9.72021L455.3 30.0602L417.05 238.54L202.84 188.88Z" fill="#A7DDE8"/>
<path d="M426.39 260.13L229.52 325.81L428.62 252.53L426.39 260.13Z" fill="#EE3670"/>
</svg>
