<svg width="500" height="1800" viewBox="0 0 500 1800" fill="none" xmlns="http://www.w3.org/2000/svg">
<path d="M3586.51 3569.77C3685.31 3664.28 3685.98 3823.65 3574.34 3902.6C3280.62 4110.3 2923.2 4224.34 2553.5 4224.34C2183.8 4224.34 1826.38 4110.3 1532.65 3902.6C1421.02 3823.65 1421.68 3664.28 1520.49 3569.77V3569.77C1613.28 3481 1758.5 3483.38 1866.3 3553.15C2067.73 3683.52 2306.78 3754.64 2553.5 3754.64C2800.22 3754.64 3039.27 3683.52 3240.7 3553.15C3348.5 3483.38 3493.72 3481 3586.51 3569.77V3569.77Z" fill="white"/>
<path d="M3243.32 2874.08C3363.53 2949.21 3398.26 3112.08 3292.16 3206.08C3228.06 3262.87 3156.8 3312.27 3079.8 3353.03C2924.68 3435.14 2750.93 3479.71 2573.68 3482.86C2396.44 3486.01 2221.08 3447.64 2062.88 3371.1C1984.19 3333.02 1910.93 3286.07 1844.57 3231.46C1735.19 3141.45 1763.83 2977.52 1881.13 2898.12V2898.12C1991.71 2823.26 2140.67 2855.24 2256.78 2921.18C2268.01 2927.56 2279.48 2933.58 2291.17 2939.24C2375.75 2980.16 2469.52 3000.68 2564.29 2998.99C2659.07 2997.31 2751.97 2973.48 2834.91 2929.58C2846.07 2923.67 2857 2917.43 2867.68 2910.86C2981.73 2840.77 3129.81 2803.14 3243.32 2874.08V2874.08Z" fill="white"/>
<ellipse cx="2555.99" cy="2457.95" rx="330.415" ry="318.529" fill="white"/>
<path d="M2212 4607.54C2190.04 4746.7 2059.87 4843.65 1922.99 4810.28C1652.43 4744.33 1395.04 4636.37 1161.09 4490.77C1034.6 4412.04 1017.97 4239.73 1114.76 4126.47V4126.47C1205.8 4019.94 1363.84 4005.69 1484.06 4077.68C1643.66 4173.25 1816.49 4246.96 1997.45 4296.64C2135.84 4334.64 2234.36 4465.78 2212 4607.54V4607.54Z" fill="white"/>
<path d="M3983.95 4132.95C4080.18 4246.64 4062.74 4418.83 3935.92 4496.95C3701.24 4641.52 3443.31 4748.34 3172.41 4813.08C3035.35 4845.84 2905.6 4748.26 2884.32 4608.95V4608.95C2862.66 4467.13 2961.76 4336.51 3100.28 4299.16C3281.56 4250.29 3454.81 4177.34 3614.95 4082.44C3735.48 4011.02 3893.43 4026.01 3983.95 4132.95V4132.95Z" fill="white"/>
<rect x="2323.96" y="3912.97" width="459.088" height="1719.03" rx="229.544" fill="white"/>
</svg>
