<svg width="276" height="275" viewBox="0 0 276 275" fill="none" xmlns="http://www.w3.org/2000/svg">
<path d="M151.853 214.739L149.105 214.201C146.829 213.756 145.615 210.791 146.469 208.635C149.972 199.795 153.27 177.413 127.264 135.524C127.264 135.524 144.251 148.277 159.376 173.389C172.461 195.114 158.274 210.394 154.21 214.119C153.573 214.704 152.702 214.905 151.853 214.739Z" fill="#A4ECD2"/>
<path d="M114.768 16.7429C114.768 16.7429 71.9307 55.8485 118.612 122.45C121.804 127.004 124.679 131.36 127.264 135.524M127.264 135.524C153.27 177.413 149.972 199.795 146.469 208.635C145.615 210.791 146.829 213.756 149.105 214.201L151.853 214.739C152.702 214.905 153.573 214.704 154.21 214.119C158.274 210.394 172.461 195.114 159.376 173.389C144.251 148.277 127.264 135.524 127.264 135.524Z" stroke="#A4ECD2" stroke-width="3" stroke-linecap="round"/>
<path d="M206.287 56.1305C214.949 56.1305 219.026 50.7972 219.026 42.6836C219.026 38.3181 217.707 33.9624 215.289 29.9202C215.289 29.9202 216.987 45.591 206.287 47.9533C196.7 50.0698 194.339 39.7879 193.952 37.6251C193.915 37.4181 193.784 37.396 193.719 37.5956C191.016 45.7899 196.436 56.1305 206.287 56.1305Z" fill="#A4ECD2"/>
<path d="M113.212 63.9442C113.212 63.9442 120.006 23.967 155.164 13.0641C182.786 4.49803 206.425 15.1027 215.289 29.9202M215.289 29.9202C217.707 33.9624 219.026 38.3181 219.026 42.6836C219.026 50.7972 214.949 56.1305 206.287 56.1305C196.436 56.1305 191.016 45.7899 193.719 37.5956V37.5956C193.784 37.396 193.915 37.4182 193.952 37.6251C194.339 39.7879 196.7 50.0698 206.287 47.9533C216.987 45.591 215.289 29.9202 215.289 29.9202Z" stroke="#A4ECD2" stroke-width="3" stroke-linecap="round"/>
<path d="M142.259 201.917C142.259 201.917 144.919 170.322 116.5 151C88.0804 131.678 65.6652 140.356 53 149C46.7442 153.27 42.5 162.5 46.5 167" stroke="#A4ECD2" stroke-width="3" stroke-linecap="round"/>
<path d="M127.063 116.816C127.063 116.816 127.403 118.107 132.228 125.822C137.054 133.536 143.541 139.651 143.541 139.651" stroke="#A4ECD2" stroke-width="3" stroke-linecap="round"/>
<path d="M127.063 134.925C127.063 134.925 158.05 160.881 163.282 183.819C168.513 206.758 153.189 214.463 153.189 214.463" stroke="#A4ECD2" stroke-width="3" stroke-linecap="round"/>
<mask id="mask0_713_216" style="mask-type:alpha" maskUnits="userSpaceOnUse" x="17" y="30" width="26" height="27">
<ellipse cx="29.6694" cy="43.3035" rx="13.0351" ry="12.5052" transform="rotate(-97.7692 29.6694 43.3035)" fill="#C4C4C4"/>
</mask>
<g mask="url(#mask0_713_216)">
<ellipse cx="19.4619" cy="56.291" rx="13.0351" ry="12.5052" transform="rotate(-97.7692 19.4619 56.291)" fill="#A4ECD2"/>
</g>
<mask id="mask1_713_216" style="mask-type:alpha" maskUnits="userSpaceOnUse" x="10" y="40" width="26" height="26">
<circle cx="22.8339" cy="53.1925" r="12.5052" transform="rotate(-139.341 22.8339 53.1925)" fill="#C4C4C4"/>
</mask>
<g mask="url(#mask1_713_216)">
<circle cx="23.4608" cy="69.3776" r="12.5052" transform="rotate(-139.341 23.4608 69.3776)" fill="#A4ECD2"/>
</g>
<mask id="mask2_713_216" style="mask-type:alpha" maskUnits="userSpaceOnUse" x="31" y="33" width="26" height="26">
<circle cx="44.2797" cy="46.3076" r="12.5052" transform="rotate(-50.6828 44.2797 46.3076)" fill="#C4C4C4"/>
</mask>
<g mask="url(#mask2_713_216)">
<circle cx="28.1135" cy="47.3138" r="12.5052" transform="rotate(-50.6828 28.1135 47.3138)" fill="#A4ECD2"/>
</g>
<path d="M217.299 103.048C193.696 104.047 189.762 119.822 189.762 119.822C189.762 119.822 182.55 118.562 175.775 122.618C169 126.674 169 134 169 134H275.433C275.433 134 279.148 126.412 267.565 119.423C260.27 115.021 247.24 116.827 247.24 116.827C247.24 116.827 240.902 102.05 217.299 103.048Z" fill="#A4ECD2"/>
<path d="M177.5 71.0359C161.618 71.7767 158.971 83.481 158.971 83.481C158.971 83.481 154.118 82.5461 149.559 85.5551C145 88.5642 145 94 145 94H216.618C216.618 94 219.118 88.3701 211.324 83.1847C206.415 79.919 197.647 81.2586 197.647 81.2586C197.647 81.2586 193.383 70.2951 177.5 71.0359Z" fill="#A4ECD2"/>
<path d="M82.7347 48.0233C82.7347 48.0233 87.152 51.2003 92.5732 50.0947C97.9943 48.989 102.593 45.4342 102.593 45.4342C102.593 45.4342 100.438 51.3241 100.858 53.7192C101.278 56.1143 103.965 57.8621 103.965 57.8621" stroke="black" stroke-linecap="round"/>
<path d="M82.7684 37.3851C77.6482 41.8355 81.6111 50.8416 81.6111 50.8416L97.3093 83.5176L107.666 71.6079C107.666 71.6079 110.255 69.0189 112.143 65.7795C115.407 60.1819 116.853 51.5438 116.533 48.0888C115.806 40.2241 108.167 38.0041 108.167 38.0041C108.167 38.0041 108.518 36.8616 105.863 35.0994C101.278 32.055 87.8887 32.9347 82.7684 37.3851Z" fill="#622C17" stroke="#622C17" stroke-linecap="round"/>
<path d="M33.6187 94.3915C24.7583 82.9997 40.868 79.375 37.2434 74.1969C33.6189 69.0188 40.868 56.5914 58.9912 63.3229C77.1144 70.0544 80.2216 59.1804 80.2216 59.1804L95.7559 72.1257L92.1312 91.2847L72.4544 98.534C72.4544 98.534 63.0454 102.036 54.3311 102.159C48.7122 102.238 39.0324 101.352 33.6187 94.3915Z" fill="#622C17" stroke="#622C17" stroke-linecap="round"/>
<path d="M145.983 216.595C143.912 215.559 141.841 217.113 141.841 217.113C141.841 217.113 140.042 216.372 137.181 215.259L135.109 222.132C139.162 222.52 141.841 222.809 141.841 222.809C141.841 222.809 145.811 232.129 147.019 235.754C148.4 239.896 150.931 235.236 150.644 232.647C150.126 227.987 149.355 218.281 145.983 216.595Z" fill="#6D6D6D"/>
<path d="M99.3805 255.431C98.2095 253.674 96.2737 253.359 96.2737 253.359C96.2737 253.359 95.2246 251.385 93.6846 248.503L89.6277 254.395L92.1312 256.984C92.1312 256.984 89.4271 269.929 88.5065 272.001C86.8956 275.625 92.1735 274.203 93.6846 271.483C96.2737 266.822 101.452 258.537 99.3805 255.431Z" fill="#6D6D6D"/>
<path d="M145.983 216.595C143.912 215.559 141.841 217.113 141.841 217.113C141.841 217.113 140.042 216.372 137.181 215.259L135.109 222.132C139.162 222.52 141.841 222.809 141.841 222.809C141.841 222.809 145.811 232.129 147.019 235.754C148.4 239.896 150.931 235.236 150.644 232.647C150.126 227.987 149.355 218.281 145.983 216.595Z" stroke="#6D6D6D" stroke-linecap="round"/>
<path d="M99.3805 255.431C98.2095 253.674 96.2737 253.359 96.2737 253.359C96.2737 253.359 95.2246 251.385 93.6846 248.503L89.6277 254.395L92.1312 256.984C92.1312 256.984 89.4271 269.929 88.5065 272.001C86.8956 275.625 92.1735 274.203 93.6846 271.483C96.2737 266.822 101.452 258.537 99.3805 255.431Z" stroke="#6D6D6D" stroke-linecap="round"/>
<path d="M49.1529 194.847C51.2241 191.74 83 148.175 83 148.175L92 146.093C92 146.093 71.4593 191.74 70.3831 193.811C69.3069 195.882 67.684 200.542 67.684 200.542C66.9778 202.803 66.4295 205.143 66.0895 207.621C65.8989 209.012 65.7737 210.446 65.7228 211.934C65.4532 219.826 71.9366 221.255 71.9366 221.255L77.6325 220.914C79.7037 223.326 80.7393 224.879 82.8106 228.504C85.2778 232.822 90.5186 242.579 93.6845 248.503L89.6277 254.395L47.0816 209.345C47.0816 209.345 45.5282 207.792 45.5282 204.167C45.5282 200.543 47.0818 197.953 49.1529 194.847Z" fill="#132746"/>
<path d="M67.684 200.542L62.6159 203.65L66.0895 207.621M67.684 200.542C67.684 200.542 69.3069 195.882 70.3831 193.811C71.4593 191.74 92 146.093 92 146.093L83 148.175C83 148.175 51.2241 191.74 49.1529 194.847C47.0818 197.953 45.5282 200.543 45.5282 204.167C45.5282 207.792 47.0816 209.345 47.0816 209.345L89.6277 254.395L93.6845 248.503C90.5186 242.579 85.2778 232.822 82.8106 228.504C80.7393 224.879 79.7037 223.326 77.6325 220.914L71.9366 221.255C71.9366 221.255 65.4532 219.826 65.7228 211.934C65.7737 210.446 65.8989 209.012 66.0895 207.621M67.684 200.542C66.9778 202.803 66.4295 205.143 66.0895 207.621" stroke="#132746" stroke-linecap="round"/>
<path d="M67.684 200.542L63.1337 203.65L66.0895 207.622C66.4295 205.143 66.9777 202.803 67.684 200.542Z" fill="#0CB08A" stroke="#0CB08A" stroke-linecap="round"/>
<path d="M83.8462 208.827C83.8462 208.827 117.599 188.555 118.54 163.778C118.855 155.457 115.126 147.837 111.808 141.512L92 146.093C92 146.093 82.1 161.675 74.5 180.675C70.5 190.675 67.5 200.675 67.5 200.675C66.7937 202.936 66.4296 205.143 66.0896 207.622C65.8989 209.012 65.7737 210.446 65.7228 211.934C65.4532 219.827 71.9366 221.255 71.9366 221.255C71.9366 221.255 95.2763 219.681 109.219 220.219C117.604 220.543 128.298 221.478 135.109 222.131L137.181 215.259C129.067 212.102 112.413 205.95 104.041 205.203C92.7166 204.192 83.8462 208.827 83.8462 208.827Z" fill="#274169" stroke="#274169" stroke-linecap="round"/>
<path d="M83.2783 67.9902C76.9144 61.2599 82.7348 48.0234 82.7348 48.0234C82.7348 48.0234 86.6511 50.7818 91.0956 50.3777C96.7915 49.8599 102.487 45.7176 102.487 45.7176C102.487 45.7176 100.747 51.0121 100.934 53.4846C101.121 55.9571 103.965 57.862 103.965 57.862C106.554 54.7551 111.514 54.2909 110.179 60.9688C109.661 63.5579 108.108 64.5935 107.072 65.1113C104.669 66.3126 101.741 66.6581 101.741 66.6581L98.8627 77.3039L87.4709 81.9642L89.9439 71.1372C87.6931 70.8405 85.4864 70.3254 83.2783 67.9902Z" fill="#EB9473"/>
<path d="M101.741 66.6581C101.741 66.6581 104.669 66.3126 107.072 65.1113C108.108 64.5935 109.661 63.5579 110.179 60.9688C111.514 54.2909 106.554 54.7551 103.965 57.862C103.965 57.862 101.121 55.9571 100.934 53.4846C100.747 51.0121 102.487 45.7176 102.487 45.7176C102.487 45.7176 96.7915 49.8599 91.0956 50.3777C86.6511 50.7818 82.7348 48.0234 82.7348 48.0234C82.7348 48.0234 76.9144 61.2599 83.2783 67.9902C85.4864 70.3254 87.6931 70.8405 89.9439 71.1372M101.741 66.6581L98.8627 77.3039L87.4709 81.9642L89.9439 71.1372M101.741 66.6581C101.741 66.6581 97.2587 72.1012 89.9439 71.1372" stroke="#EB9473" stroke-linecap="round"/>
<path d="M148.573 19.309C148.573 19.309 136.524 43.93 122.164 59.1804L127.86 72.9262C128.646 71.9133 129.349 70.9456 129.931 70.0544C143.284 49.6113 153.751 20.8624 153.751 20.8624C153.751 20.8624 156.72 17.8014 158.411 14.6487C159.711 12.2248 161 8.95245 161 7.91711C161 6.88176 158.411 1.96238 155.304 1.18577C152.197 0.409153 149.09 2.22146 148.573 3.77483C148.055 5.32826 148.573 13.0952 148.573 13.0952C147.019 10.5062 145.466 8.43493 143.912 8.95275C142.359 9.47056 144.95 11.9439 145.984 14.6487C146.888 17.0156 148.573 19.309 148.573 19.309Z" fill="#EB9473"/>
<path d="M26.3693 146.69C26.3693 146.69 42.8368 137.907 55.3667 124.424C56.528 123.175 57.8558 121.745 59.2148 120.282L68.3119 128.158L61.0626 133.745C54.331 138.794 28.4405 150.833 28.4405 150.833C28.4405 150.833 25.6683 152.522 22.2268 153.94C20.0834 154.823 16.7296 156.408 16.5309 156.011C15.7733 154.496 22.2268 150.833 22.2268 150.833C21.6645 150.949 16.9965 152.253 16.5309 152.386C12.9062 153.422 9.79932 158.164 8.24588 157.564C6.69245 156.965 12.9062 147.606 15.4952 146.69C19.1199 145.408 26.3693 146.69 26.3693 146.69Z" fill="#EB9473"/>
<path d="M148.573 19.309C148.573 19.309 136.524 43.93 122.164 59.1804L127.86 72.9262C128.646 71.9133 129.349 70.9456 129.931 70.0544C143.284 49.6113 153.751 20.8624 153.751 20.8624C153.751 20.8624 156.72 17.8014 158.411 14.6487C159.711 12.2248 161 8.95245 161 7.91711C161 6.88176 158.411 1.96238 155.304 1.18577C152.197 0.409153 149.09 2.22146 148.573 3.77483C148.055 5.32826 148.573 13.0952 148.573 13.0952C147.019 10.5062 145.466 8.43493 143.912 8.95275C142.359 9.47056 144.95 11.9439 145.984 14.6487C146.888 17.0156 148.573 19.309 148.573 19.309Z" stroke="#EB9473" stroke-linecap="round"/>
<path d="M26.3693 146.69C26.3693 146.69 42.8368 137.907 55.3667 124.424C56.528 123.175 57.8558 121.745 59.2148 120.282L68.3119 128.158L61.0626 133.745C54.331 138.794 28.4405 150.833 28.4405 150.833C28.4405 150.833 25.6683 152.522 22.2268 153.94C20.0834 154.823 16.7296 156.408 16.5309 156.011C15.7733 154.496 22.2268 150.833 22.2268 150.833C21.6645 150.949 16.9965 152.253 16.5309 152.386C12.9062 153.422 9.79932 158.164 8.24588 157.564C6.69245 156.965 12.9062 147.606 15.4952 146.69C19.1199 145.408 26.3693 146.69 26.3693 146.69Z" stroke="#EB9473" stroke-linecap="round"/>
<path d="M100.416 76.786C100.416 76.786 113.893 67.9645 122.164 59.1803L127.86 72.9262C122.085 80.3656 111.808 90.2489 111.808 90.2489L100.934 120.282C102.106 128.777 107.487 133.276 111.808 141.512L82.8106 147.726L76.5969 123.389L76.2314 121.836L68.312 128.158L59.2148 120.282C63.8421 115.3 71.4189 108.372 71.4189 108.372C70.5906 105.417 70.3016 103.212 71.4189 100.605C72.5361 97.9984 76.5969 92.3204 76.5969 92.3204L82.8107 84.0352L100.416 76.786Z" fill="#FFE55A"/>
<path d="M71.4189 108.372C70.5906 105.417 70.3016 103.212 71.4189 100.605C72.5361 97.9984 76.5969 92.3204 76.5969 92.3204L82.8107 84.0352L100.416 76.786C100.416 76.786 113.893 67.9645 122.164 59.1803L127.86 72.9262C122.085 80.3656 111.808 90.2489 111.808 90.2489L100.934 120.282C102.106 128.777 107.487 133.276 111.808 141.512L82.8106 147.726L76.5969 123.389L76.2314 121.836M71.4189 108.372C71.9993 110.444 74.5257 114.586 74.5257 114.586L75.8659 120.282L76.2314 121.836M71.4189 108.372C71.4189 108.372 63.8421 115.3 59.2148 120.282L68.312 128.158L76.2314 121.836" stroke="#FFE55A" stroke-linecap="round"/>
<path d="M93.6088 56.3082C93.6088 56.3082 95.0857 55.9038 96.1979 56.3082C97.3101 56.7127 98.2691 57.8617 98.2691 57.8617M83.2526 54.7549C83.2526 54.7549 84.2882 54.2371 85.3239 54.7549C86.1089 55.1474 86.3595 55.7905 86.3595 55.7905M87.3951 58.8973C87.3951 58.8973 86.3595 59.7603 87.3951 60.4507C88.4307 61.1411 89.4664 60.9685 89.4664 60.9685" stroke="#2B2B2B" stroke-linecap="round"/>
<path d="M93.0943 65.6242C93.0943 65.3942 84.364 63.3522 84.364 63.8407C84.364 64.3293 85.9174 67.2018 87.3984 67.6955C89.5421 68.4101 93.0943 65.8543 93.0943 65.6242Z" fill="white" stroke="white" stroke-linecap="round"/>
</svg>
