<svg width="276" height="275" viewBox="0 0 276 275" fill="none" xmlns="http://www.w3.org/2000/svg">
<path d="M151.853 214.739L149.105 214.201C146.829 213.756 145.615 210.791 146.469 208.635C149.972 199.795 153.27 177.413 127.264 135.524C127.264 135.524 144.251 148.277 159.376 173.389C172.461 195.114 158.274 210.394 154.21 214.119C153.573 214.704 152.702 214.905 151.853 214.739Z" fill="#51E1AD"/>
<path d="M114.768 16.7429C114.768 16.7429 71.9308 55.8485 118.612 122.45C121.804 127.004 124.679 131.36 127.264 135.524M127.264 135.524C153.27 177.413 149.972 199.795 146.469 208.635C145.615 210.791 146.829 213.756 149.105 214.201L151.853 214.739C152.702 214.905 153.573 214.704 154.21 214.119C158.274 210.394 172.461 195.114 159.376 173.389C144.251 148.277 127.264 135.524 127.264 135.524Z" stroke="#51E1AD" stroke-width="3" stroke-linecap="round"/>
<path d="M206.287 56.1305C214.949 56.1305 219.026 50.7972 219.026 42.6836C219.026 38.3181 217.707 33.9624 215.289 29.9202C215.289 29.9202 216.988 45.591 206.287 47.9533C196.7 50.0698 194.34 39.7879 193.952 37.6251C193.915 37.4181 193.785 37.396 193.719 37.5956C191.016 45.7899 196.436 56.1305 206.287 56.1305Z" fill="#51E1AD"/>
<path d="M113.212 63.9442C113.212 63.9442 120.006 23.967 155.164 13.0641C182.786 4.49803 206.425 15.1027 215.289 29.9202M215.289 29.9202C217.707 33.9624 219.026 38.3181 219.026 42.6836C219.026 50.7972 214.949 56.1305 206.287 56.1305C196.436 56.1305 191.016 45.7899 193.719 37.5956V37.5956C193.785 37.396 193.915 37.4182 193.952 37.6251C194.34 39.7879 196.7 50.0698 206.287 47.9533C216.988 45.591 215.289 29.9202 215.289 29.9202Z" stroke="#51E1AD" stroke-width="3" stroke-linecap="round"/>
<path d="M142.259 201.917C142.259 201.917 144.92 170.322 116.5 151C88.0805 131.678 65.6653 140.356 53 149C46.7442 153.27 42.5 162.5 46.5 167" stroke="#51E1AD" stroke-width="3" stroke-linecap="round"/>
<path d="M127.063 116.816C127.063 116.816 127.403 118.107 132.228 125.822C137.054 133.536 143.541 139.651 143.541 139.651" stroke="#51E1AD" stroke-width="3" stroke-linecap="round"/>
<path d="M127.063 134.925C127.063 134.925 158.05 160.881 163.282 183.819C168.513 206.758 153.189 214.463 153.189 214.463" stroke="#51E1AD" stroke-width="3" stroke-linecap="round"/>
<mask id="mask0" style="mask-type:alpha" maskUnits="userSpaceOnUse" x="17" y="30" width="26" height="27">
<ellipse cx="29.6694" cy="43.3035" rx="13.0351" ry="12.5052" transform="rotate(-97.7692 29.6694 43.3035)" fill="#C4C4C4"/>
</mask>
<g mask="url(#mask0)">
<ellipse cx="19.4619" cy="56.291" rx="13.0351" ry="12.5052" transform="rotate(-97.7692 19.4619 56.291)" fill="#51E1AD"/>
</g>
<mask id="mask1" style="mask-type:alpha" maskUnits="userSpaceOnUse" x="10" y="40" width="26" height="26">
<circle cx="22.8339" cy="53.1925" r="12.5052" transform="rotate(-139.341 22.8339 53.1925)" fill="#C4C4C4"/>
</mask>
<g mask="url(#mask1)">
<circle cx="23.4608" cy="69.3776" r="12.5052" transform="rotate(-139.341 23.4608 69.3776)" fill="#51E1AD"/>
</g>
<mask id="mask2" style="mask-type:alpha" maskUnits="userSpaceOnUse" x="31" y="33" width="26" height="26">
<circle cx="44.2797" cy="46.3076" r="12.5052" transform="rotate(-50.6828 44.2797 46.3076)" fill="#C4C4C4"/>
</mask>
<g mask="url(#mask2)">
<circle cx="28.1136" cy="47.3138" r="12.5052" transform="rotate(-50.6828 28.1136 47.3138)" fill="#51E1AD"/>
</g>
<path d="M217.299 103.048C193.696 104.047 189.762 119.822 189.762 119.822C189.762 119.822 182.55 118.562 175.775 122.618C169 126.674 169 134 169 134H275.433C275.433 134 279.148 126.412 267.565 119.423C260.27 115.021 247.24 116.827 247.24 116.827C247.24 116.827 240.902 102.05 217.299 103.048Z" fill="#51E1AD"/>
<path d="M177.5 71.0359C161.618 71.7767 158.971 83.481 158.971 83.481C158.971 83.481 154.118 82.5461 149.559 85.5551C145 88.5642 145 94 145 94H216.618C216.618 94 219.118 88.3701 211.324 83.1847C206.415 79.919 197.647 81.2586 197.647 81.2586C197.647 81.2586 193.383 70.2951 177.5 71.0359Z" fill="#51E1AD"/>
<path d="M81.7347 48.0233C81.7347 48.0233 86.152 51.2003 91.5731 50.0947C96.9943 48.989 101.593 45.4342 101.593 45.4342C101.593 45.4342 99.438 51.3241 99.8581 53.7192C100.278 56.1143 102.965 57.8621 102.965 57.8621" stroke="black" stroke-linecap="round"/>
<path d="M81.7684 37.3851C76.6481 41.8355 80.611 50.8416 80.611 50.8416L96.3093 83.5176L106.665 71.6079C106.665 71.6079 109.255 69.0189 111.143 65.7795C114.407 60.1819 115.853 51.5438 115.533 48.0888C114.806 40.2241 107.167 38.0041 107.167 38.0041C107.167 38.0041 107.518 36.8616 104.863 35.0994C100.278 32.055 86.8886 32.9347 81.7684 37.3851Z" fill="#F1DC93" stroke="#F1DC93" stroke-linecap="round"/>
<path d="M32.6983 94.2111C23.8379 82.8193 39.9476 79.1946 36.323 74.0165C32.6985 68.8384 39.9476 56.4109 58.0708 63.1425C76.194 69.874 79.3012 59 79.3012 59L94.8355 71.9453L91.2108 91.1042L71.534 98.3536C71.534 98.3536 62.125 101.856 53.4107 101.978C47.7918 102.057 38.112 101.172 32.6983 94.2111Z" fill="#F1DC93" stroke="#F1DC93" stroke-linecap="round"/>
<path d="M144.983 216.595C142.912 215.559 140.841 217.113 140.841 217.113C140.841 217.113 139.042 216.372 136.181 215.259L134.109 222.132C138.162 222.52 140.841 222.809 140.841 222.809C140.841 222.809 144.811 232.129 146.019 235.754C147.4 239.896 149.931 235.236 149.644 232.647C149.126 227.987 148.355 218.281 144.983 216.595Z" fill="white"/>
<path d="M98.3805 255.431C97.2095 253.674 95.2737 253.359 95.2737 253.359C95.2737 253.359 94.2246 251.385 92.6846 248.503L88.6277 254.395L91.1312 256.984C91.1312 256.984 88.4271 269.929 87.5065 272.001C85.8956 275.625 91.1735 274.203 92.6846 271.483C95.2737 266.822 100.452 258.537 98.3805 255.431Z" fill="white"/>
<path d="M144.983 216.595C142.912 215.559 140.841 217.113 140.841 217.113C140.841 217.113 139.042 216.372 136.181 215.259L134.109 222.132C138.162 222.52 140.841 222.809 140.841 222.809C140.841 222.809 144.811 232.129 146.019 235.754C147.4 239.896 149.931 235.236 149.644 232.647C149.126 227.987 148.355 218.281 144.983 216.595Z" stroke="white" stroke-linecap="round"/>
<path d="M98.3805 255.431C97.2095 253.674 95.2737 253.359 95.2737 253.359C95.2737 253.359 94.2246 251.385 92.6846 248.503L88.6277 254.395L91.1312 256.984C91.1312 256.984 88.4271 269.929 87.5065 272.001C85.8956 275.625 91.1735 274.203 92.6846 271.483C95.2737 266.822 100.452 258.537 98.3805 255.431Z" stroke="white" stroke-linecap="round"/>
<path d="M48.153 194.672C50.2241 191.565 82 148 82 148L91 145.918C91 145.918 70.4594 191.565 69.3831 193.636C68.3069 195.707 66.6841 200.367 66.6841 200.367C65.9778 202.628 65.4296 204.968 65.0896 207.447C64.8989 208.837 64.7737 210.271 64.7229 211.759C64.4532 219.652 70.9366 221.08 70.9366 221.08L76.6325 220.739C78.7037 223.151 79.7394 224.705 81.8106 228.329C84.2778 232.647 89.5186 242.404 92.6846 248.328L88.6277 254.22L46.0817 209.17C46.0817 209.17 44.5282 207.617 44.5282 203.992C44.5282 200.368 46.0818 197.778 48.153 194.672Z" fill="#234326"/>
<path d="M66.6841 200.367L61.616 203.475L65.0896 207.447M66.6841 200.367C66.6841 200.367 68.3069 195.707 69.3831 193.636C70.4594 191.565 91 145.918 91 145.918L82 148C82 148 50.2241 191.565 48.153 194.672C46.0818 197.778 44.5282 200.368 44.5282 203.992C44.5282 207.617 46.0817 209.17 46.0817 209.17L88.6277 254.22L92.6846 248.328C89.5186 242.404 84.2778 232.647 81.8106 228.329C79.7394 224.705 78.7037 223.151 76.6325 220.739L70.9366 221.08C70.9366 221.08 64.4532 219.652 64.7229 211.759C64.7737 210.271 64.8989 208.837 65.0896 207.447M66.6841 200.367C65.9778 202.628 65.4296 204.968 65.0896 207.447" stroke="#234326" stroke-linecap="round"/>
<path d="M66.6841 200.368L62.1338 203.475L65.0896 207.447C65.4296 204.968 65.9778 202.628 66.6841 200.368Z" fill="white" stroke="#234326" stroke-linecap="round"/>
<path d="M82.8462 208.652C82.8462 208.652 116.599 188.38 117.54 163.603C117.855 155.282 114.126 147.662 110.808 141.337L91 145.919C91 145.919 81.1 161.5 73.5 180.5C69.5 190.5 66.5 200.5 66.5 200.5C65.7937 202.761 65.4296 204.968 65.0896 207.447C64.8989 208.837 64.7737 210.271 64.7228 211.759C64.4532 219.652 70.9366 221.08 70.9366 221.08C70.9366 221.08 94.2763 219.506 108.219 220.044C116.604 220.368 127.298 221.304 134.109 221.956L136.181 215.084C128.067 211.927 111.413 205.775 103.041 205.028C91.7166 204.017 82.8462 208.652 82.8462 208.652Z" fill="#37703D" stroke="#37703D" stroke-linecap="round"/>
<path d="M82.2783 67.9902C75.9144 61.2599 81.7348 48.0234 81.7348 48.0234C81.7348 48.0234 85.6511 50.7818 90.0956 50.3777C95.7915 49.8599 101.487 45.7176 101.487 45.7176C101.487 45.7176 99.7466 51.0121 99.934 53.4846C100.121 55.9571 102.965 57.862 102.965 57.862C105.554 54.7551 110.514 54.2909 109.179 60.9688C108.661 63.5579 107.108 64.5935 106.072 65.1113C103.669 66.3126 100.741 66.6581 100.741 66.6581L97.8627 77.3039L86.4709 81.9642L88.9439 71.1372C86.6931 70.8405 84.4864 70.3254 82.2783 67.9902Z" fill="#8A3E26"/>
<path d="M100.741 66.6581C100.741 66.6581 103.669 66.3126 106.072 65.1113C107.108 64.5935 108.661 63.5579 109.179 60.9688C110.514 54.2909 105.554 54.7551 102.965 57.862C102.965 57.862 100.121 55.9571 99.934 53.4846C99.7466 51.0121 101.487 45.7176 101.487 45.7176C101.487 45.7176 95.7915 49.8599 90.0956 50.3777C85.6511 50.7818 81.7348 48.0234 81.7348 48.0234C81.7348 48.0234 75.9144 61.2599 82.2783 67.9902C84.4864 70.3254 86.6931 70.8405 88.9439 71.1372M100.741 66.6581L97.8627 77.3039L86.4709 81.9642L88.9439 71.1372M100.741 66.6581C100.741 66.6581 96.2587 72.1012 88.9439 71.1372" stroke="#8A3E26" stroke-linecap="round"/>
<path d="M147.573 19.309C147.573 19.309 135.524 43.93 121.164 59.1804L126.86 72.9262C127.646 71.9133 128.349 70.9456 128.931 70.0544C142.284 49.6113 152.751 20.8624 152.751 20.8624C152.751 20.8624 155.72 17.8014 157.411 14.6487C158.711 12.2248 160 8.95245 160 7.91711C160 6.88176 157.411 1.96238 154.304 1.18577C151.197 0.409153 148.09 2.22146 147.573 3.77483C147.055 5.32826 147.573 13.0952 147.573 13.0952C146.019 10.5062 144.466 8.43493 142.912 8.95275C141.359 9.47056 143.95 11.9439 144.984 14.6487C145.888 17.0156 147.573 19.309 147.573 19.309Z" fill="#8A3E26"/>
<path d="M25.3693 146.69C25.3693 146.69 41.8368 137.907 54.3667 124.424C55.528 123.175 56.8558 121.745 58.2148 120.282L67.3119 128.158L60.0626 133.745C53.331 138.794 27.4405 150.833 27.4405 150.833C27.4405 150.833 24.6683 152.522 21.2268 153.94C19.0834 154.823 15.7296 156.408 15.5309 156.011C14.7733 154.496 21.2268 150.833 21.2268 150.833C20.6645 150.949 15.9965 152.253 15.5309 152.386C11.9062 153.422 8.79932 158.164 7.24588 157.564C5.69245 156.965 11.9062 147.606 14.4952 146.69C18.1199 145.408 25.3693 146.69 25.3693 146.69Z" fill="#8A3E26"/>
<path d="M147.573 19.309C147.573 19.309 135.524 43.93 121.164 59.1804L126.86 72.9262C127.646 71.9133 128.349 70.9456 128.931 70.0544C142.284 49.6113 152.751 20.8624 152.751 20.8624C152.751 20.8624 155.72 17.8014 157.411 14.6487C158.711 12.2248 160 8.95245 160 7.91711C160 6.88176 157.411 1.96238 154.304 1.18577C151.197 0.409153 148.09 2.22146 147.573 3.77483C147.055 5.32826 147.573 13.0952 147.573 13.0952C146.019 10.5062 144.466 8.43493 142.912 8.95275C141.359 9.47056 143.95 11.9439 144.984 14.6487C145.888 17.0156 147.573 19.309 147.573 19.309Z" stroke="#8A3E26" stroke-linecap="round"/>
<path d="M25.3693 146.69C25.3693 146.69 41.8368 137.907 54.3667 124.424C55.528 123.175 56.8558 121.745 58.2148 120.282L67.3119 128.158L60.0626 133.745C53.331 138.794 27.4405 150.833 27.4405 150.833C27.4405 150.833 24.6683 152.522 21.2268 153.94C19.0834 154.823 15.7296 156.408 15.5309 156.011C14.7733 154.496 21.2268 150.833 21.2268 150.833C20.6645 150.949 15.9965 152.253 15.5309 152.386C11.9062 153.422 8.79932 158.164 7.24588 157.564C5.69245 156.965 11.9062 147.606 14.4952 146.69C18.1199 145.408 25.3693 146.69 25.3693 146.69Z" stroke="#8A3E26" stroke-linecap="round"/>
<path d="M70.204 100.659C71.3213 98.0524 75.3821 92.3744 75.3821 92.3744L81.5959 84.0892L99.2013 76.84C99.2013 76.84 110.084 68.0382 119.5 57.7343C128.915 47.4312 135.704 32.2342 139 28.7343C140.777 26.8466 144.799 27.8839 146.5 28.7343C148.5 29.7343 152 32.6156 152 35.6749C152 38.7343 146.5 52.1749 146.5 52.1749C142.432 61.6984 137 73.1749 130.5 80.1749C118.602 92.988 110 96.1749 110 96.1749C110 96.1749 108.5 111.438 109 120.336C109.291 125.507 112.64 133.338 113 137.734C113.26 140.903 110.593 141.566 110.593 141.566C104.5 142.234 101.285 142.888 96.5 144.586C87.5 147.78 84.5 147.78 81.5958 147.78C81.5958 147.78 78.5643 147.02 78.5 145.734C78 135.734 76 126.175 76 126.175C76 126.175 73.651 130.675 66.5 136.175C60.5719 140.734 45.5 149.616 40 149.675C38.1205 149.695 35.5 147.032 34 144.675C33.5663 143.993 32 141.175 32.5 139.175C33.5651 134.915 49.1595 127.674 57.5 120.336C66.6809 112.259 70.204 108.427 70.204 108.427C69.3757 105.471 69.0868 103.266 70.204 100.659Z" fill="#E26138"/>
<path d="M70.204 108.427C69.3757 105.471 69.0868 103.266 70.204 100.659C71.3213 98.0524 75.3821 92.3744 75.3821 92.3744L81.5959 84.0892L99.2013 76.84C99.2013 76.84 110.084 68.0382 119.5 57.7343C128.915 47.4312 135.704 32.2342 139 28.7343C140.777 26.8466 144.799 27.8839 146.5 28.7343C148.5 29.7343 152 32.6156 152 35.6749C152 38.7343 146.5 52.1749 146.5 52.1749C142.432 61.6984 137 73.1749 130.5 80.1749C118.602 92.988 110 96.1749 110 96.1749C110 96.1749 108.5 111.438 109 120.336C109.291 125.507 112.64 133.338 113 137.734C113.26 140.903 110.593 141.566 110.593 141.566C104.5 142.234 101.285 142.888 96.5 144.586C87.5 147.78 84.5 147.78 81.5958 147.78C81.5958 147.78 78.5643 147.02 78.5 145.734C78 135.734 76 126.175 76 126.175M70.204 108.427C70.7844 110.498 73.3108 114.64 73.3108 114.64L74.651 120.336L76 126.175M70.204 108.427C70.204 108.427 66.6809 112.259 57.5 120.336C49.1595 127.674 33.5651 134.915 32.5 139.175C32 141.175 33.5663 143.993 34 144.675C35.5 147.032 38.1205 149.695 40 149.675C45.5 149.616 60.5719 140.734 66.5 136.175C73.651 130.675 76 126.175 76 126.175" stroke="#E26138" stroke-linecap="round"/>
<path d="M92.6088 56.3082C92.6088 56.3082 94.0857 55.9038 95.1979 56.3082C96.3101 56.7127 97.2691 57.8617 97.2691 57.8617M82.2526 54.7549C82.2526 54.7549 83.2882 54.2371 84.3239 54.7549C85.1089 55.1474 85.3595 55.7905 85.3595 55.7905M86.3951 58.8973C86.3951 58.8973 85.3595 59.7603 86.3951 60.4507C87.4307 61.1411 88.4664 60.9685 88.4664 60.9685" stroke="black" stroke-linecap="round"/>
<path d="M92.0943 65.6242C92.0943 65.3942 83.364 63.3522 83.364 63.8407C83.364 64.3293 84.9174 67.2018 86.3984 67.6955C88.5421 68.4101 92.0943 65.8543 92.0943 65.6242Z" fill="white" stroke="white" stroke-linecap="round"/>
</svg>
